<svg width="279" height="393" viewBox="0 0 279 393" fill="none" xmlns="http://www.w3.org/2000/svg">
<path d="M278.004 336.701H-107.969V360.714H278.004V336.701Z" fill="#4E352E"/>
<path d="M-9.52155 391.864C-38.3153 391.864 -38.4524 306.787 -9.52155 306.787C19.4092 306.787 19.4092 391.864 -9.52155 391.864ZM194.091 315.02C193.189 313.77 192.017 312.738 190.663 312.001C192.994 321.744 195.325 345.071 186.001 345.071C185.727 337.662 185.864 316.118 179.283 309.943C175.169 311.178 167.628 314.883 163.515 325.449C162.219 329.658 161.301 333.975 160.773 338.348V338.759C157.893 362.91 164.886 392.001 181.751 392.001C199.301 392.001 206.157 360.303 202.318 335.74C201.481 336.464 200.407 336.855 199.301 336.838C199.576 329.84 197.519 319.96 194.091 315.02ZM249.622 306.787C220.691 306.787 220.828 391.864 249.622 391.864C278.415 391.864 278.415 306.787 249.622 306.787ZM-59.7048 306.787C-88.6357 306.787 -88.4985 391.864 -59.7048 391.864C-30.9112 391.864 -30.774 306.787 -59.7048 306.787Z" fill="#E45325"/>
<path d="M-49.147 372.927C-45.9434 372.933 -42.8386 371.817 -40.3718 369.771C-43.5254 382.395 -49.9697 391.864 -59.5676 391.864C-85.0706 391.864 -88.0871 325.174 -68.3428 309.943C-74.7871 335.191 -68.4799 372.927 -49.147 372.927ZM260.042 372.927C240.847 372.927 234.402 335.054 240.847 309.943C221.102 325.174 224.119 391.864 249.622 391.864C259.22 391.864 265.664 382.395 268.818 369.771C266.351 371.817 263.246 372.933 260.042 372.927ZM163.488 325.215C155.398 350.19 161.431 391.905 181.586 391.905C191.184 391.905 197.629 382.437 200.782 369.812C198.28 371.796 195.198 372.904 192.007 372.968C173.634 372.968 167.052 338.663 171.989 313.689C168.185 316.71 165.251 320.688 163.488 325.215ZM-18.3241 309.984C-38.0683 325.215 -35.0518 391.905 -9.54884 391.905C0.049057 391.905 6.49336 382.437 9.64696 369.812C7.14514 371.796 4.06285 372.904 0.871735 372.968C-18.2966 372.927 -24.7409 335.191 -18.2966 309.943L-18.3241 309.984Z" fill="#BE3A26"/>
<path d="M59.2816 330.526C57.7734 330.114 39.5374 285.38 39.5374 285.38C39.5374 285.38 52.2889 276.323 52.9744 273.579C49.2724 269.874 45.7075 262.464 45.7075 262.464C46.139 265.535 46.827 268.564 47.7642 271.52C47.7642 271.52 42.2796 269.05 40.4972 264.659L28.5684 281.675C28.5684 281.675 48.7239 328.056 48.5868 330.526C41.0456 328.879 34.0529 336.838 34.0529 336.838C48.7239 338.347 43.925 363.596 34.0529 360.852C41.0456 376.906 49.4095 367.438 50.0951 340.131C53.2487 342.327 64.3548 357.97 51.4662 360.852C63.395 382.67 76.4207 354.814 58.7332 338.896C67.9197 339.582 82.1795 350.697 71.2105 360.852C75.1867 371.28 83.0022 365.791 84.2362 357.97C86.0461 343.424 72.4719 333.819 59.2816 330.526Z" fill="#2D1E1C"/>
<path d="M191.349 304.454C187.647 299.102 182.163 299.102 176.404 302.533C163.79 302.944 155.974 301.298 117.034 306.375C117.034 306.375 116.76 303.356 116.486 299.102C113.195 299.514 109.904 299.651 106.477 299.788L110.042 317.902C120.462 317.49 151.861 310.08 166.943 310.08C161.459 315.98 153.095 331.898 160.91 338.759C162.144 317.902 173.936 311.617 179.283 309.943C184.549 316.31 185.728 337.799 186.002 345.071C195.326 345.071 193.269 321.881 190.938 312.138C192.125 312.938 193.188 313.909 194.092 315.02C197.519 319.823 198.726 329.922 199.302 336.838C209.997 336.838 203.251 304.728 191.349 304.454Z" fill="#2D1E1C"/>
<path d="M170.782 262.326C138.423 278.793 97.1525 279.205 118.268 238.45C116.623 240.2 115.067 242.032 113.606 243.939C117.445 230.354 129.1 218.141 139.932 209.771C134.605 212.474 129.474 215.546 124.575 218.964C142.263 194.127 159.676 201.812 167.903 166.271C161.458 189.325 135.407 204.693 112.235 210.868C90.1597 223.493 29.4187 209.085 9.81161 202.91C23.5229 201.812 28.5961 200.988 28.5961 200.988C14.3363 196.597 -1.43164 188.364 -17.0625 182.738C-16.3769 193.99 -13.7718 205.654 -9.38418 214.711C-11.7151 202.086 -9.38418 195.774 -9.38418 195.774C-9.38418 195.774 -4.85946 222.532 5.69823 238.038C1.58484 221.434 3.36731 215.808 3.36731 215.808C3.36731 215.808 11.8683 247.781 24.3456 258.759C22.6979 252.871 22.2319 246.715 22.9744 240.645C22.9744 240.645 25.3054 246.958 39.9764 258.759C36.2744 249.839 45.0496 252.995 51.9052 262.464C58.7609 271.932 62.8743 272.755 81.6587 269.05C67.9474 276.872 89.8855 282.361 104.008 280.577C93.8618 287.026 125.946 285.38 144.182 280.988C134.584 288.398 167.903 285.242 173.387 281.537C175.033 280.44 178.735 280.44 182.848 281.263C184.493 280.165 186.002 279.067 187.51 277.97C177.199 283.184 195.024 249.839 170.782 262.326Z" fill="#F2F2F2"/>
<path d="M137.326 294.162C111.686 304.042 72.7462 299.926 40.2504 286.89C40.0318 286.4 39.8485 285.896 39.702 285.38C39.702 285.38 52.4535 276.323 53.139 273.579C49.437 269.874 45.8721 262.464 45.8721 262.464C46.3036 265.535 46.9916 268.565 47.9287 271.521C47.9287 271.521 42.4442 269.051 40.6618 264.66L28.733 281.675C28.733 281.712 28.7474 281.746 28.7731 281.772C28.7988 281.798 28.8337 281.812 28.8701 281.812C16.1186 275.5 4.87532 267.816 -3.48856 259.171C-1.56898 264.385 0.0763702 269.462 0.899048 271.932C-4.58546 265.071 -26.6606 242.293 -35.0245 210.046C-35.0248 215.134 -34.7502 220.219 -34.2018 225.277C-39.3334 212.706 -42.5235 199.426 -43.6626 185.895C-44.2443 189.987 -44.5649 194.112 -44.6224 198.245C-48.0502 188.502 -49.5585 175.603 -49.8327 165.998V156.941C-50.8072 158.982 -51.6321 161.092 -52.3007 163.253C-52.4378 163.802 -52.5749 164.214 -52.7121 164.763V164.9C-52.8701 165.435 -52.9622 165.988 -52.9863 166.546C-54.4057 156.101 -54.1744 145.497 -52.3007 135.123C-23.2328 151.04 9.40004 171.075 29.5556 185.346C33.1206 187.816 -2.11743 175.878 1.4475 178.347C31.3381 198.519 62.5998 214.986 92.7646 214.025C99.4471 213.753 106.074 212.693 112.509 210.869C90.4337 223.493 29.6927 209.085 10.0856 202.91C23.7969 201.812 28.8701 200.989 28.8701 200.989C14.6103 196.598 -1.15765 188.365 -16.7885 182.739C-16.1029 193.991 -13.4978 205.655 -9.11018 214.711C-11.4411 202.087 -9.11018 195.775 -9.11018 195.775C-9.11018 195.775 -4.58546 222.533 5.97223 238.039C1.85884 221.435 3.6413 215.809 3.6413 215.809C3.6413 215.809 12.1423 247.781 24.6196 258.759C22.9719 252.871 22.5059 246.715 23.2484 240.646C23.2484 240.646 25.5794 246.958 40.2504 258.759C36.5484 249.84 45.3236 252.996 52.1792 262.464C59.0349 271.932 63.1483 272.756 81.9327 269.051C68.2215 276.872 90.1595 282.361 104.282 280.577C94.1358 287.027 126.22 285.38 144.456 280.989C134.858 288.399 168.177 285.243 173.661 281.538C175.307 280.44 179.009 280.44 183.122 281.263C169.548 290.32 152.409 297.044 130.334 300.2C130.059 300.063 134.858 297.867 137.326 294.162ZM69.8668 242.979C76.7224 245.86 85.6348 242.018 92.9018 232.275C88.0754 236.392 78.4775 241.881 69.8668 242.979ZM69.8668 264.934C74.94 266.581 81.6585 264.385 87.0059 258.759C81.7862 261.992 75.9479 264.096 69.8668 264.934ZM15.1588 211.322C13.5134 218.869 16.8041 228.337 24.3453 235.747C19.7799 228.254 16.6635 219.968 15.1588 211.322Z" fill="#B3B3B3"/>
<path d="M269.503 205.654C285.545 155.157 267.309 71.0403 109.492 75.7058C33.3948 40.0283 -49.2842 80.6458 -102.621 111.109C-76.0212 119.754 -4.99676 161.057 29.2814 185.208C32.8464 187.678 -2.39162 175.74 1.17332 178.21C31.0639 198.382 62.3256 214.848 92.4904 213.888C119.365 213.064 164.612 194.128 168.999 160.371C182.574 162.979 187.647 189.599 186.276 191.658C188.058 189.737 190.115 169.428 199.713 164.488C199.713 164.488 195.736 175.877 196.833 178.896C201.906 162.841 241.121 160.371 234.814 200.028C236.596 198.244 239.887 186.443 239.887 186.443C235.225 215.809 246.605 227.61 257.711 229.531C262.922 228.57 273.068 209.908 274.302 198.244C273.025 200.909 271.412 203.399 269.503 205.654Z" fill="#4E352E"/>
<path d="M-45.1709 90.5672C-30.7741 81.6478 19.5464 59.6924 71.6492 69.984C20.369 67.2396 -45.1709 90.5672 -45.1709 90.5672ZM109.492 75.7473C105.616 73.8677 101.633 72.2182 97.5636 70.8073C113.624 81.3414 128.118 94.0915 140.617 108.68C136.229 100.996 131.019 87.2739 121.695 75.6101C117.719 75.5689 113.606 75.5689 109.492 75.7061V75.7473Z" fill="#2D1E1C"/>
<path d="M122.793 193.716C64.1087 201.675 38.6057 184.796 40.9366 182.327C67.2623 196.323 114.978 193.167 122.793 193.716ZM25.4429 153.922C23.112 156.254 48.615 173.27 107.299 165.311C99.4838 164.762 51.9057 167.918 25.4429 153.922ZM152.958 166.546C155.7 167.644 168.452 154.333 151.724 125.242C152.272 129.222 162.556 152.824 152.958 166.546ZM258.123 143.356C230.975 101.229 187.51 97.5238 177.775 100.268C230.673 107.404 252.09 139.966 258.096 143.356H258.123Z" fill="#6D4D42"/>
<path d="M253.736 236.941C256.341 234.059 262.785 231.589 265.39 230.354C263.882 230.217 259.495 231.452 255.244 232.824C256.067 231.726 256.889 230.766 257.712 229.531C246.469 227.61 235.226 215.809 239.887 186.443C239.887 186.443 236.46 198.244 234.814 200.028C241.121 160.234 201.907 162.841 196.834 178.896C195.737 175.877 199.713 164.488 199.713 164.488C190.115 169.428 188.059 189.737 186.276 191.658C187.647 189.599 182.437 162.979 169 160.371C168.72 162.318 168.308 164.244 167.766 166.135C159.539 201.675 142.126 193.991 124.438 218.828C129.337 215.409 134.468 212.337 139.795 209.634C128.826 218.004 117.309 230.217 113.469 243.802C114.93 241.895 116.486 240.063 118.131 238.313C97.153 279.068 138.287 278.656 170.645 262.19C195.051 249.702 176.953 283.322 187.373 277.696C202.318 269.737 209.037 256.975 213.013 249.84C210.271 255.74 208.214 259.994 208.214 259.994C217.812 252.721 221.377 240.097 229.055 238.587C226.725 233.099 225.628 228.845 227.273 227.747C229.741 226.238 237.556 233.785 240.847 235.569C241.67 235.02 241.533 233.236 241.533 233.236C243.162 235.644 245.26 237.698 247.703 239.274C248.388 237.627 249.348 238.587 249.485 238.587C252.377 238.654 255.188 239.56 257.575 241.195C256.517 239.591 255.223 238.157 253.736 236.941Z" fill="#E45325"/>
<path d="M229.193 179.582C219.046 169.977 207.117 173.819 201.907 180.405C205.993 168.193 223.708 166.546 229.193 179.582ZM206.569 248.742C204.924 253.407 192.721 267.953 184.494 268.776C188.168 270.834 205.883 261.091 206.569 248.742ZM155.015 222.532C151.724 225.826 144.457 231.177 137.601 232.001C139.658 233.277 149.119 230.903 155.015 222.532ZM128.003 247.781C126.221 250.114 122.108 253.544 117.309 253.133C118.954 254.642 125.261 254.23 128.003 247.781ZM161.185 242.978C159.402 245.311 155.289 248.742 150.49 248.33C152.135 249.839 158.442 249.428 161.185 242.978ZM196.56 241.194C194.777 243.527 190.664 246.958 185.865 246.546C187.51 248.055 193.818 247.644 196.56 241.194ZM164.613 252.447C162.282 257.249 141.029 270.423 131.568 267.129C135.407 271.52 162.419 267.129 164.613 252.488V252.447Z" fill="#BE3A26"/>
<path d="M228.095 202.498C220.417 207.164 211.23 207.575 204.512 202.087C205.883 206.478 219.32 211.966 228.095 202.498Z" fill="#ED6D23"/>
<path d="M247.839 239.411C245.336 237.913 243.222 235.844 241.669 233.373C241.669 233.373 241.806 235.157 240.983 235.706C237.693 233.922 229.877 226.375 227.409 227.884C225.764 228.982 226.861 233.236 229.192 238.725C232.482 246.684 238.241 257.387 241.395 264.66C242.629 267.541 250.307 277.559 249.622 238.725C249.484 238.588 248.497 237.627 247.839 239.411Z" fill="black"/>
<path d="M215.618 204.968C223.947 204.968 230.7 198.21 230.7 189.874C230.7 181.537 223.947 174.78 215.618 174.78C207.288 174.78 200.535 181.537 200.535 189.874C200.535 198.21 207.288 204.968 215.618 204.968Z" fill="black"/>
<path d="M220.416 181.132C220.691 183.053 218.497 184.975 215.617 185.386C212.738 185.798 209.996 184.563 209.722 182.779C209.447 180.995 211.641 178.937 214.52 178.525C217.4 178.114 220.005 179.17 220.416 181.132ZM224.667 197.873C222.96 199.895 220.568 201.215 217.948 201.578C217.674 201.304 217.263 201.304 216.714 201.304C216.357 201.327 216.018 201.472 215.755 201.716C212.834 201.778 209.949 201.068 207.391 199.657C208.461 200.736 209.747 201.575 211.166 202.119C212.584 202.663 214.101 202.9 215.617 202.813C216.01 203.112 216.497 203.258 216.989 203.225C217.537 203.088 217.948 202.951 218.085 202.539C221.65 201.716 224.53 199.891 224.667 197.832V197.873Z" fill="white"/>
</svg>
