<?xml version="1.0" encoding="UTF-8" standalone="no"?>
<svg
   width="100"
   height="100"
   fill="none"
   viewBox="0 0 100 100"
   version="1.1"
   id="svg19"
   sodipodi:docname="logo.svg"
   inkscape:version="1.4.2 (ebf0e940d0, 2025-05-08)"
   xmlns:inkscape="http://www.inkscape.org/namespaces/inkscape"
   xmlns:sodipodi="http://sodipodi.sourceforge.net/DTD/sodipodi-0.dtd"
   xmlns="http://www.w3.org/2000/svg"
   xmlns:svg="http://www.w3.org/2000/svg">
  <defs
     id="defs19" />
  <sodipodi:namedview
     id="namedview19"
     pagecolor="#ffffff"
     bordercolor="#000000"
     borderopacity="0.25"
     inkscape:showpageshadow="2"
     inkscape:pageopacity="0.0"
     inkscape:pagecheckerboard="0"
     inkscape:deskcolor="#d1d1d1"
     inkscape:zoom="5.3580671"
     inkscape:cx="89.211275"
     inkscape:cy="114.40693"
     inkscape:window-width="3840"
     inkscape:window-height="2091"
     inkscape:window-x="0"
     inkscape:window-y="0"
     inkscape:window-maximized="1"
     inkscape:current-layer="svg19" />
  <ellipse
     style="fill:none;stroke:#ff8b00;stroke-width:9;stroke-dasharray:none;stroke-dashoffset:0;stroke-opacity:1"
     id="path20"
     cx="50"
     cy="50"
     rx="45.072224"
     ry="43.485832" />
  <g
     transform="matrix(0.13313729,-0.011648,0.011648,0.13313729,11.546302,0.63094477)"
     id="g3">
    <g
       transform="matrix(7.0563791,0.61735318,-0.61735318,7.0563791,-48.647003,57.251002)"
       id="g19">
      <path
         d="M 85.67,74.728 H 0.007 v 5.33 H 85.67 Z"
         fill="#4e352e"
         id="path4" />
      <path
         d="m 21.856,86.971 c -6.391,0 -6.421,-18.882 0,-18.882 6.421,0 6.421,18.882 0,18.882 z m 45.19,-17.055 c -0.2,-0.278 -0.46,-0.507 -0.761,-0.67 0.517,2.162 1.035,7.34 -1.035,7.34 -0.061,-1.645 -0.031,-6.426 -1.491,-7.797 -0.913,0.274 -2.587,1.096 -3.499,3.441 -0.288,0.934 -0.491,1.892 -0.609,2.863 v 0.091 c -0.639,5.36 0.913,11.817 4.656,11.817 3.895,0 5.417,-7.035 4.565,-12.487 a 1,1 0 0 1 -0.669,0.244 c 0.061,-1.553 -0.396,-3.746 -1.156,-4.842 z m 12.325,-1.827 c -6.421,0 -6.391,18.882 0,18.882 6.391,0 6.39,-18.882 0,-18.882 z m -68.652,0 c -6.421,0 -6.391,18.882 0,18.882 6.391,0 6.421,-18.882 0,-18.882 z"
         fill="#e45325"
         id="path5" />
      <path
         d="m 13.062,82.768 a 3.04,3.04 0 0 0 1.948,-0.7 c -0.7,2.802 -2.13,4.903 -4.26,4.903 -5.66,0 -6.33,-14.801 -1.948,-18.182 -1.43,5.604 -0.03,13.979 4.26,13.979 z m 68.622,0 c -4.26,0 -5.691,-8.406 -4.26,-13.979 -4.382,3.38 -3.713,18.182 1.948,18.182 2.13,0 3.56,-2.101 4.26,-4.903 a 3.04,3.04 0 0 1 -1.948,0.7 z M 60.255,72.179 c -1.796,5.543 -0.457,14.801 4.017,14.801 2.13,0 3.56,-2.101 4.26,-4.903 a 3.24,3.24 0 0 1 -1.948,0.701 c -4.078,0 -5.538,-7.614 -4.443,-13.157 a 6.09,6.09 0 0 0 -1.887,2.558 z M 19.904,68.798 c -4.382,3.381 -3.713,18.182 1.948,18.182 2.13,0 3.56,-2.101 4.26,-4.903 a 3.24,3.24 0 0 1 -1.948,0.701 C 19.91,82.769 18.48,74.394 19.91,68.79 l -0.006,0.009 z"
         fill="#be3a26"
         id="path6" />
      <path
         d="m 37.127,73.358 c -0.335,-0.091 -4.382,-10.02 -4.382,-10.02 0,0 2.83,-2.01 2.982,-2.619 -0.822,-0.822 -1.613,-2.467 -1.613,-2.467 a 12.33,12.33 0 0 0 0.457,2.01 c 0,0 -1.217,-0.548 -1.613,-1.523 l -2.648,3.777 c 0,0 4.473,10.294 4.443,10.842 -1.674,-0.365 -3.226,1.401 -3.226,1.401 3.256,0.335 2.191,5.939 0,5.33 1.552,3.563 3.408,1.462 3.56,-4.599 0.7,0.487 3.165,3.959 0.304,4.599 2.648,4.842 5.538,-1.34 1.613,-4.873 2.039,0.152 5.204,2.619 2.769,4.873 0.882,2.315 2.617,1.096 2.891,-0.639 0.402,-3.228 -2.611,-5.36 -5.538,-6.091 z m 29.311,-5.787 c -0.822,-1.188 -2.039,-1.188 -3.317,-0.426 -2.8,0.091 -4.534,-0.274 -13.177,0.853 0,0 -0.061,-0.67 -0.122,-1.614 -0.73,0.091 -1.461,0.122 -2.221,0.152 l 0.791,4.02 c 2.313,-0.091 9.282,-1.736 12.629,-1.736 -1.217,1.31 -3.074,4.842 -1.339,6.365 0.274,-4.629 2.891,-6.024 4.078,-6.395 1.169,1.413 1.43,6.182 1.491,7.796 2.069,0 1.613,-5.147 1.096,-7.309 0.264,0.178 0.499,0.393 0.7,0.64 0.761,1.066 1.029,3.307 1.156,4.842 2.374,0 0.876,-7.126 -1.765,-7.187 z"
         fill="#2d1e1c"
         id="path7" />
      <path
         d="m 61.873,58.221 c -7.182,3.655 -16.341,3.746 -11.655,-5.299 a 15.93,15.93 0 0 0 -1.035,1.218 c 0.852,-3.015 3.439,-5.726 5.843,-7.583 -1.182,0.6 -2.321,1.282 -3.408,2.04 3.926,-5.512 7.79,-3.807 9.616,-11.695 -1.43,5.117 -7.212,8.528 -12.355,9.898 -4.899,2.802 -18.38,-0.396 -22.732,-1.766 3.043,-0.244 4.169,-0.426 4.169,-0.426 -3.165,-0.975 -6.664,-2.802 -10.134,-4.051 0.152,2.497 0.73,5.086 1.704,7.096 -0.517,-2.802 0,-4.203 0,-4.203 0,0 1.004,5.939 3.347,9.38 -0.913,-3.685 -0.517,-4.934 -0.517,-4.934 0,0 1.887,7.096 4.656,9.532 -0.366,-1.307 -0.469,-2.673 -0.304,-4.02 0,0 0.517,1.401 3.773,4.02 -0.822,-1.98 1.126,-1.279 2.648,0.822 1.522,2.101 2.435,2.284 6.604,1.462 -3.043,1.736 1.826,2.954 4.96,2.558 -2.252,1.431 4.869,1.066 8.916,0.091 -2.13,1.645 5.264,0.944 6.482,0.122 0.365,-0.244 1.187,-0.244 2.1,-0.061 a 30.39,30.39 0 0 0 1.035,-0.731 c -2.288,1.157 1.668,-6.243 -3.713,-3.472 z"
         fill="#f2f2f2"
         id="path8" />
      <path
         d="m 54.448,65.287 c -5.691,2.193 -14.333,1.279 -21.545,-1.614 -0.048,-0.109 -0.089,-0.221 -0.122,-0.335 0,0 2.83,-2.01 2.982,-2.619 -0.822,-0.822 -1.613,-2.467 -1.613,-2.467 a 12.33,12.33 0 0 0 0.456,2.01 c 0,0 -1.217,-0.548 -1.613,-1.523 l -2.648,3.776 c 0,0.008 0.003,0.016 0.009,0.022 0.006,0.006 0.013,0.009 0.021,0.009 -2.83,-1.401 -5.325,-3.106 -7.182,-5.025 0.426,1.157 0.791,2.284 0.974,2.832 C 22.95,58.83 18.05,53.775 16.194,46.618 a 31.37,31.37 0 0 0 0.183,3.38 c -1.139,-2.79 -1.847,-5.737 -2.1,-8.741 a 21.6,21.6 0 0 0 -0.213,2.741 c -0.761,-2.162 -1.096,-5.025 -1.156,-7.157 v -2.01 a 10.36,10.36 0 0 0 -0.548,1.401 c -0.03,0.122 -0.061,0.213 -0.091,0.335 v 0.03 c -0.035,0.119 -0.056,0.242 -0.061,0.366 -0.315,-2.318 -0.264,-4.672 0.152,-6.974 6.451,3.533 13.694,7.979 18.167,11.147 0.791,0.548 -7.029,-2.101 -6.238,-1.553 6.634,4.477 13.572,8.132 20.267,7.918 1.483,-0.06 2.954,-0.296 4.382,-0.7 -4.899,2.802 -18.38,-0.396 -22.732,-1.766 3.043,-0.244 4.169,-0.426 4.169,-0.426 -3.165,-0.975 -6.664,-2.802 -10.133,-4.05 0.152,2.497 0.73,5.086 1.704,7.096 -0.517,-2.802 0,-4.203 0,-4.203 0,0 1.004,5.939 3.347,9.38 -0.913,-3.685 -0.517,-4.934 -0.517,-4.934 0,0 1.887,7.096 4.656,9.532 -0.366,-1.307 -0.469,-2.673 -0.304,-4.02 0,0 0.517,1.401 3.773,4.02 -0.822,-1.98 1.126,-1.279 2.648,0.822 1.522,2.101 2.435,2.284 6.604,1.462 -3.043,1.736 1.826,2.954 4.96,2.558 -2.252,1.431 4.869,1.066 8.916,0.091 -2.13,1.644 5.264,0.944 6.482,0.122 0.365,-0.244 1.187,-0.244 2.1,-0.061 -3.013,2.01 -6.817,3.502 -11.716,4.203 -0.061,-0.031 1.004,-0.518 1.552,-1.34 z M 39.476,53.927 c 1.522,0.64 3.5,-0.213 5.112,-2.376 -1.071,0.914 -3.201,2.132 -5.112,2.376 z m 0,4.873 c 1.126,0.365 2.617,-0.122 3.804,-1.37 -1.159,0.718 -2.454,1.184 -3.804,1.37 z M 27.334,46.901 c -0.365,1.675 0.365,3.776 2.039,5.421 a 15.54,15.54 0 0 1 -2.039,-5.421 z"
         fill="#b3b3b3"
         id="path9" />
      <path
         d="M 1.194,24.669 C 2.746,27.928 7.31,31.4 11.936,34.08 a 19.27,19.27 0 0 1 0.365,-4.081 C 7.767,27.493 3.653,25.452 1.194,24.669 Z M 12.392,2.153 C 8.406,-1.075 6.123,1.362 7.371,4.62 6.154,4.042 -0.237,-2.963 0.007,1.453 0.159,3.981 6.032,11.594 11.936,19.117 15.147,17.66 18.463,16.448 21.857,15.493 18.175,9.524 14.28,3.676 12.393,2.154 Z"
         fill="#2d1e1c"
         id="path10" />
      <path
         d="M 83.783,45.643 C 87.343,34.435 83.296,15.767 48.27,16.802 31.381,8.884 13.031,17.898 1.193,24.659 c 5.904,1.919 21.667,11.086 29.275,16.446 0.791,0.548 -7.03,-2.101 -6.238,-1.553 6.634,4.477 13.572,8.132 20.267,7.918 5.964,-0.183 16.007,-4.385 16.98,-11.878 3.013,0.579 4.139,6.487 3.834,6.944 0.396,-0.426 0.852,-4.934 2.982,-6.03 0,0 -0.882,2.528 -0.639,3.198 1.126,-3.563 9.829,-4.112 8.429,4.69 0.396,-0.396 1.126,-3.015 1.126,-3.015 -1.035,6.517 1.491,9.136 3.956,9.563 1.156,-0.213 3.408,-4.355 3.682,-6.944 a 7.69,7.69 0 0 1 -1.065,1.645 z"
         fill="#4e352e"
         id="path11" />
      <path
         d="M 13.944,20.1 C 17.139,18.12 28.308,13.248 39.871,15.532 28.49,14.923 13.944,20.1 13.944,20.1 Z M 48.27,16.811 a 24.33,24.33 0 0 0 -2.648,-1.096 45.3,45.3 0 0 1 9.555,8.406 c -0.974,-1.706 -2.13,-4.751 -4.199,-7.34 -0.883,-0.009 -1.795,-0.009 -2.708,0.021 z"
         fill="#2d1e1c"
         id="path12" />
      <path
         d="m 51.222,42.993 c -13.024,1.766 -18.685,-1.98 -18.167,-2.528 5.843,3.106 16.433,2.406 18.167,2.528 z M 29.616,34.161 c -0.517,0.518 5.143,4.294 18.167,2.528 -1.735,-0.122 -12.294,0.579 -18.167,-2.528 z m 28.301,2.802 c 0.609,0.244 3.439,-2.711 -0.274,-9.167 0.122,0.883 2.404,6.121 0.274,9.167 z m 23.341,-5.147 c -6.025,-9.35 -15.672,-10.172 -17.833,-9.563 11.74,1.584 16.494,8.811 17.826,9.563 h 0.006 z"
         fill="#6d4d42"
         id="path13" />
      <path
         d="m 80.284,52.587 c 0.578,-0.64 2.008,-1.188 2.587,-1.462 -0.335,-0.03 -1.309,0.244 -2.252,0.548 l 0.548,-0.731 c -2.495,-0.426 -4.991,-3.046 -3.956,-9.563 0,0 -0.761,2.619 -1.126,3.015 1.4,-8.832 -7.303,-8.253 -8.429,-4.69 -0.243,-0.67 0.639,-3.198 0.639,-3.198 -2.13,1.096 -2.587,5.604 -2.982,6.03 0.304,-0.457 -0.852,-6.365 -3.834,-6.944 -0.062,0.432 -0.154,0.86 -0.274,1.279 -1.826,7.888 -5.691,6.182 -9.616,11.695 a 28.47,28.47 0 0 1 3.408,-2.041 c -2.434,1.858 -4.991,4.568 -5.843,7.583 0.324,-0.423 0.67,-0.83 1.035,-1.218 -4.656,9.045 4.473,8.954 11.655,5.299 5.417,-2.771 1.4,4.69 3.713,3.441 3.317,-1.766 4.808,-4.599 5.691,-6.182 l -1.065,2.254 c 2.13,-1.614 2.921,-4.416 4.626,-4.751 -0.517,-1.218 -0.761,-2.162 -0.396,-2.406 0.548,-0.335 2.282,1.34 3.013,1.736 0.183,-0.122 0.152,-0.518 0.152,-0.518 0.362,0.535 0.827,0.99 1.369,1.34 0.152,-0.365 0.365,-0.152 0.396,-0.152 a 3.31,3.31 0 0 1 1.795,0.579 c -0.235,-0.356 -0.522,-0.674 -0.852,-0.944 z"
         fill="#e45325"
         id="path14" />
      <path
         d="m 74.837,39.857 c -2.252,-2.132 -4.899,-1.279 -6.056,0.183 0.907,-2.711 4.839,-3.076 6.056,-0.183 z m -5.021,15.349 c -0.365,1.035 -3.073,4.264 -4.899,4.446 0.816,0.457 4.747,-1.706 4.899,-4.446 z M 58.374,49.389 c -0.73,0.731 -2.343,1.919 -3.865,2.101 0.456,0.283 2.556,-0.244 3.865,-2.101 z m -5.995,5.604 c -0.396,0.518 -1.309,1.279 -2.374,1.188 0.365,0.335 1.765,0.244 2.374,-1.188 z m 7.364,-1.066 c -0.396,0.518 -1.309,1.279 -2.374,1.188 0.365,0.335 1.765,0.244 2.374,-1.188 z m 7.851,-0.396 c -0.396,0.518 -1.309,1.279 -2.374,1.188 0.365,0.335 1.765,0.244 2.374,-1.188 z m -7.09,2.497 c -0.517,1.066 -5.234,3.99 -7.334,3.259 0.852,0.974 6.847,0 7.334,-3.25 z"
         fill="#be3a26"
         id="path15" />
      <path
         d="m 74.593,44.943 c -1.704,1.035 -3.743,1.127 -5.234,-0.091 0.304,0.974 3.287,2.193 5.234,0.091 z"
         fill="#ed6d23"
         id="path16" />
      <path
         d="M 13.488,19.491 C 7.097,12.091 0.95,2.284 0.95,0.853 c 0,-0.009 4.93,7.909 12.538,18.638 z m 3.195,-4.842 C 16.622,13.735 12.453,7.644 8.284,3.107 13.366,9.746 16.683,14.64 16.683,14.64 Z"
         fill="#4e352e"
         id="path17" />
      <path
         d="m 78.975,53.135 a 4.11,4.11 0 0 1 -1.369,-1.34 c 0,0 0.03,0.396 -0.152,0.518 -0.73,-0.396 -2.465,-2.071 -3.013,-1.736 -0.365,0.244 -0.122,1.188 0.396,2.406 l 2.708,5.756 c 0.274,0.64 1.978,2.863 1.826,-5.756 -0.03,-0.03 -0.25,-0.244 -0.396,0.152 z m -7.151,-7.644 a 3.35,3.35 0 1 0 0,-6.7 3.35,3.35 0 1 0 0,6.7 z"
         fill="#000000"
         id="path18" />
      <path
         d="m 72.889,40.201 c 0.061,0.426 -0.426,0.853 -1.065,0.944 -0.639,0.091 -1.248,-0.183 -1.308,-0.579 -0.06,-0.396 0.426,-0.853 1.065,-0.944 0.639,-0.091 1.217,0.143 1.308,0.579 z m 0.943,3.715 a 2.38,2.38 0 0 1 -1.491,0.822 c -0.061,-0.061 -0.152,-0.061 -0.274,-0.061 -0.079,0.005 -0.155,0.037 -0.213,0.091 -0.648,0.014 -1.288,-0.144 -1.856,-0.457 a 2.38,2.38 0 0 0 1.826,0.701 c 0.087,0.066 0.195,0.099 0.304,0.091 0.122,-0.03 0.213,-0.061 0.243,-0.152 0.791,-0.183 1.43,-0.588 1.461,-1.045 v 0.009 z"
         fill="#ffffff"
         id="path19" />
    </g>
    <g
       id="g20"
       transform="rotate(68.288253,241.90279,381.95231)">
      <path
         d="m 359.119,100.798 c -2.739,-30.362 -22.195,-60.762 -51.2,-70.835 -20.569,-7.143 -52.185,-9.325 -71.507,2.938 -11.558,7.334 -18.553,21.151 -22.694,33.887 -4.448,13.677 -7.571,29.184 -7.36,43.629 0.019,1.159 2.323,18.797 2.291,18.81 0,0 73.03,-41.19 150.464,-28.429 z"
         fill="#ffb400"
         id="path1" />
      <path
         d="m 359.12,100.798 c 0,0 23.872,12.71 12.62,21.395 -11.252,8.685 -127.955,-9.081 -127.955,-9.081 0,0 52.864,-21.818 115.335,-12.314 z"
         fill="#ffd169"
         id="path2" />
      <path
         d="m 214.254,65.182 c 0,0 25.331,-24.64 52.025,-4.262 26.694,20.378 23.853,40.787 23.853,40.787 l 7.482,-1.159 c 0,0 7.68,-24.915 -23.872,-46.13 -31.552,-21.215 -52.403,-5.025 -52.403,-5.025 0,0 -6.311,8.525 -7.079,15.79 h -0.006 z m 69.191,-40.467 c 0,0 37.562,10.662 46.97,37.408 9.414,26.745 7.859,36.473 7.859,36.473 l 6.067,-0.115 c 0,0 2.496,-24.877 -11.936,-46.361 C 317.973,30.636 289.66,25.163 283.445,24.715 Z"
         fill="#ff8b00"
         id="path3" />
    </g>
  </g>
  <text
     xml:space="preserve"
     style="font-weight:500;font-size:3.752px;font-family:'Noto Sans';-inkscape-font-specification:'Noto Sans Medium';text-align:start;writing-mode:lr-tb;direction:ltr;text-anchor:start;opacity:1;mix-blend-mode:normal;fill:#ff0000;fill-opacity:1;stroke:none;stroke-width:0.156334;stroke-opacity:1"
     x="70.462296"
     y="-36.262669"
     id="text21"
     transform="matrix(0.77664041,0.7374889,-0.69555034,0.62711049,0,0)"><tspan
       sodipodi:role="line"
       id="tspan21"
       x="70.462296"
       y="-36.262669"
       style="fill:#ff0000;fill-opacity:1;stroke-width:0.156334">DEV</tspan></text>
</svg>
