<svg xmlns="http://www.w3.org/2000/svg" width="252" height="210" viewBox="0 0 252 210">
  <g id="_21_-_Cryptocurrency_investment" data-name="21 - Cryptocurrency investment" transform="translate(-312.845 -160.866)">
    <rect id="Rectangle_94" data-name="Rectangle 94" width="252" height="210" transform="translate(312.845 160.866)" fill="none"/>
    <g id="Group_891" data-name="Group 891" transform="translate(17.5 20.044)">
      <g id="background" transform="translate(307.345 141.032)">
        <g id="Group_342" data-name="Group 342" transform="translate(3.991 0)">
          <g id="Group_336" data-name="Group 336">
            <g id="Group_335" data-name="Group 335">
              <g id="Group_334" data-name="Group 334">
                <g id="Group_333" data-name="Group 333">
                  <g id="Group_332" data-name="Group 332">
                    <path id="Path_204" data-name="Path 204" d="M487.46,298a53.694,53.694,0,0,1-40.54-18.233,34.827,34.827,0,0,0-37.578-9.586,70.41,70.41,0,0,1-74.269-17.807,64.733,64.733,0,0,1-17.658-48.868c2.133-33.215,29.615-59.877,63.923-62.023,27.2-1.7,52.886,12.294,65.446,35.646a35.565,35.565,0,0,0,35.087,18.45,60.534,60.534,0,0,1,32.874,6.36h0c6.895,3.411,15.368,11.611,18.892,18.273,9.261,17.51,9.145,36.562-.317,52.263A53.62,53.62,0,0,1,487.46,298Zm-66.478-30.507A35.157,35.157,0,0,1,447.455,279.3a53.359,53.359,0,0,0,85.266-7.188c9.329-15.489,9.438-34.284.3-51.572-3.463-6.553-11.8-14.617-18.582-17.972a59.8,59.8,0,0,0-32.488-6.292,36.261,36.261,0,0,1-35.778-18.815c-12.427-23.11-37.856-36.96-64.779-35.276-33.95,2.121-61.151,28.5-63.26,61.36A64.032,64.032,0,0,0,335.6,251.888a69.705,69.705,0,0,0,73.522,17.626A35.657,35.657,0,0,1,420.982,267.493Z" transform="translate(-317.278 -141.344)" fill="#553e37"/>
                  </g>
                </g>
              </g>
            </g>
          </g>
          <g id="Group_341" data-name="Group 341" transform="translate(141.381 20.934)">
            <g id="Group_340" data-name="Group 340">
              <g id="Group_339" data-name="Group 339">
                <g id="Group_338" data-name="Group 338">
                  <g id="Group_337" data-name="Group 337">
                    <path id="Path_205" data-name="Path 205" d="M685.724,214.872a21.852,21.852,0,0,1-3.041-.217c-4.91-.7-9.261-3.033-11.644-6.24a8.5,8.5,0,0,1-1.788-6.4c.88-5.786,8.337-9.53,16.622-8.349,4.91.7,9.261,3.033,11.644,6.24a8.5,8.5,0,0,1,1.788,6.4h0C698.533,211.368,692.72,214.872,685.724,214.872Zm-2.913-20.72c-6.645,0-12.146,3.25-12.865,7.967a7.812,7.812,0,0,0,1.655,5.874c2.274,3.058,6.453,5.287,11.177,5.962,7.9,1.125,15-2.354,15.822-7.758l.35.052-.35-.052a7.812,7.812,0,0,0-1.655-5.874c-2.274-3.058-6.453-5.287-11.178-5.962A21.29,21.29,0,0,0,682.812,194.152Z" transform="translate(-669.165 -193.448)" fill="#d2c8bc"/>
                  </g>
                </g>
              </g>
            </g>
          </g>
        </g>
        <g id="Group_383" data-name="Group 383" transform="translate(0 137.204)">
          <g id="Group_347" data-name="Group 347">
            <g id="Group_346" data-name="Group 346">
              <g id="Group_345" data-name="Group 345">
                <g id="Group_344" data-name="Group 344">
                  <g id="Group_343" data-name="Group 343">
                    <path id="Path_206" data-name="Path 206" d="M375.513,523.244s7.975-10.1,2.125-19.936c0,0,5.316-11.431-5.316-18.876s-9.836,13.556-9.836,13.556-15.151,3.19-12.5,17.011l2.66,13.821s-39.873-51.3-42.532-41.468,2.66,13.821,2.66,13.821-12.226,7.445,0,13.026l12.226,5.581s-8.771,2.925-6.38,9.04,16.481,9.04,16.481,9.04c-8.345,1.892-22.094,5.227-22.6,6.911-.008.024-.181.635-.53,1.86H419.106s-1.86-20.471-17.011-16.216C402.095,530.42,390.93,513.939,375.513,523.244Z" transform="translate(-307.346 -482.835)" fill="#e5e5e4"/>
                  </g>
                </g>
              </g>
            </g>
          </g>
          <g id="Group_352" data-name="Group 352" transform="translate(53.169 12.562)">
            <g id="Group_351" data-name="Group 351">
              <g id="Group_350" data-name="Group 350">
                <g id="Group_349" data-name="Group 349">
                  <g id="Group_348" data-name="Group 348">
                    <path id="Path_207" data-name="Path 207" d="M440.166,548.569l-.486-.217c3.146-7.075,10.282-33.983,10.354-34.252l.514.137C450.476,514.506,443.328,541.453,440.166,548.569Z" transform="translate(-439.68 -514.1)" fill="#553e37"/>
                  </g>
                </g>
              </g>
            </g>
          </g>
          <g id="Group_357" data-name="Group 357" transform="translate(58.909 25.426)">
            <g id="Group_356" data-name="Group 356" transform="translate(0 0)">
              <g id="Group_355" data-name="Group 355" transform="translate(0)">
                <g id="Group_354" data-name="Group 354">
                  <g id="Group_353" data-name="Group 353">
                    <rect id="Rectangle_64" data-name="Rectangle 64" width="10.157" height="0.53" transform="translate(0 4.124) rotate(-23.953)" fill="#fff9ed"/>
                  </g>
                </g>
              </g>
            </g>
          </g>
          <g id="Group_362" data-name="Group 362" transform="translate(50.518 29.538)">
            <g id="Group_361" data-name="Group 361" transform="translate(0 0)">
              <g id="Group_360" data-name="Group 360">
                <g id="Group_359" data-name="Group 359">
                  <g id="Group_358" data-name="Group 358">
                    <rect id="Rectangle_65" data-name="Rectangle 65" width="0.53" height="12.363" transform="matrix(0.921, -0.39, 0.39, 0.921, 0, 0.207)" fill="#553e37"/>
                  </g>
                </g>
              </g>
            </g>
          </g>
          <g id="Group_367" data-name="Group 367" transform="translate(11.754 18.295)">
            <g id="Group_366" data-name="Group 366">
              <g id="Group_365" data-name="Group 365">
                <g id="Group_364" data-name="Group 364">
                  <g id="Group_363" data-name="Group 363">
                    <path id="Path_208" data-name="Path 208" d="M369.8,565.916c-5.243-7.863-32.922-36.887-33.2-37.181l.386-.366c.281.293,27.988,29.35,33.259,37.253Z" transform="translate(-336.6 -528.37)" fill="#553e37"/>
                  </g>
                </g>
              </g>
            </g>
          </g>
          <g id="Group_372" data-name="Group 372" transform="translate(6.621 24.332)">
            <g id="Group_371" data-name="Group 371" transform="translate(0 0)">
              <g id="Group_370" data-name="Group 370">
                <g id="Group_369" data-name="Group 369">
                  <g id="Group_368" data-name="Group 368">
                    <rect id="Rectangle_66" data-name="Rectangle 66" width="0.53" height="12.142" transform="translate(0 0.528) rotate(-84.975)" fill="#553e37"/>
                  </g>
                </g>
              </g>
            </g>
          </g>
          <g id="Group_377" data-name="Group 377" transform="translate(28.305 26.682)">
            <g id="Group_376" data-name="Group 376" transform="translate(0 0)">
              <g id="Group_375" data-name="Group 375" transform="translate(0)">
                <g id="Group_374" data-name="Group 374">
                  <g id="Group_373" data-name="Group 373">
                    <rect id="Rectangle_67" data-name="Rectangle 67" width="0.53" height="11.724" transform="translate(0 0.084) rotate(-9.108)" fill="#fff9ed"/>
                  </g>
                </g>
              </g>
            </g>
          </g>
          <g id="Group_382" data-name="Group 382" transform="translate(18.519 42.674)">
            <g id="Group_381" data-name="Group 381" transform="translate(0 0)">
              <g id="Group_380" data-name="Group 380" transform="translate(0)">
                <g id="Group_379" data-name="Group 379">
                  <g id="Group_378" data-name="Group 378">
                    <rect id="Rectangle_68" data-name="Rectangle 68" width="0.53" height="21.041" transform="translate(0 0.515) rotate(-76.101)" fill="#553e37"/>
                  </g>
                </g>
              </g>
            </g>
          </g>
        </g>
      </g>
      <g id="smartphone" transform="translate(402.175 142.119)">
        <g id="Group_385" data-name="Group 385" transform="translate(9.51 0.49)">
          <g id="Group_384" data-name="Group 384">
            <path id="Path_209" data-name="Path 209" d="M658.674,343.725h-81.1a10.539,10.539,0,0,1-10.539-10.539V155.809a10.539,10.539,0,0,1,10.539-10.539h81.1a10.539,10.539,0,0,1,10.539,10.539V333.19A10.536,10.536,0,0,1,658.674,343.725Z" transform="translate(-567.04 -145.27)" fill="#acacac"/>
          </g>
        </g>
        <g id="Group_388" data-name="Group 388">
          <g id="Group_386" data-name="Group 386" transform="translate(0.49 0.49)">
            <path id="Path_210" data-name="Path 210" d="M636.224,343.725h-81.1a10.539,10.539,0,0,1-10.539-10.539V155.809a10.539,10.539,0,0,1,10.539-10.539h81.1a10.539,10.539,0,0,1,10.539,10.539V333.19A10.536,10.536,0,0,1,636.224,343.725Z" transform="translate(-544.59 -145.27)" fill="#fff"/>
          </g>
          <g id="Group_387" data-name="Group 387">
            <path id="Path_211" data-name="Path 211" d="M635.494,343.485H554.4a11.042,11.042,0,0,1-11.029-11.029V155.079A11.042,11.042,0,0,1,554.4,144.05h81.1a11.042,11.042,0,0,1,11.029,11.029V332.46A11.038,11.038,0,0,1,635.494,343.485ZM554.4,145.03a10.06,10.06,0,0,0-10.049,10.049V332.46A10.06,10.06,0,0,0,554.4,342.509h81.1a10.06,10.06,0,0,0,10.049-10.049V155.079a10.06,10.06,0,0,0-10.049-10.049Z" transform="translate(-543.37 -144.05)" fill="#382a28"/>
          </g>
        </g>
        <g id="Group_390" data-name="Group 390" transform="translate(105.555 27.944)">
          <g id="Group_389" data-name="Group 389">
            <path id="Path_212" data-name="Path 212" d="M810.011,215.561v17.06H806.09v-17.06a1.961,1.961,0,0,1,3.921,0Z" transform="translate(-806.09 -213.6)" fill="#e5e5e4"/>
          </g>
        </g>
        <g id="Group_392" data-name="Group 392" transform="translate(105.555 50.106)">
          <g id="Group_391" data-name="Group 391">
            <path id="Path_213" data-name="Path 213" d="M806.09,268.76h3.921v22.158a1.961,1.961,0,1,1-3.921,0Z" transform="translate(-806.09 -268.76)" fill="#e5e5e4"/>
          </g>
        </g>
        <g id="Group_394" data-name="Group 394" transform="translate(105.604 87.56)">
          <g id="Group_393" data-name="Group 393">
            <path id="Path_214" data-name="Path 214" d="M808.171,395.906h0a1.961,1.961,0,0,1-1.961-1.961v-30a1.961,1.961,0,0,1,1.961-1.961h0a1.961,1.961,0,0,1,1.961,1.961v30A1.961,1.961,0,0,1,808.171,395.906Z" transform="translate(-806.21 -361.98)" fill="#e5e5e4"/>
          </g>
        </g>
        <g id="Group_396" data-name="Group 396" transform="translate(4.359 9.904)">
          <g id="Group_395" data-name="Group 395">
            <path id="Path_215" data-name="Path 215" d="M640.49,350.461h-77.4a8.877,8.877,0,0,1-8.867-8.867V177.567a8.877,8.877,0,0,1,8.867-8.867h77.4a8.877,8.877,0,0,1,8.867,8.867V341.6A8.876,8.876,0,0,1,640.49,350.461Zm-77.4-181.174a8.29,8.29,0,0,0-8.281,8.281V341.6a8.29,8.29,0,0,0,8.281,8.281h77.4a8.29,8.29,0,0,0,8.281-8.281V177.567a8.29,8.29,0,0,0-8.281-8.281Z" transform="translate(-554.22 -168.7)" fill="#382a28"/>
          </g>
        </g>
        <g id="Group_415" data-name="Group 415" transform="translate(9.852 83.482)">
          <g id="Group_398" data-name="Group 398">
            <g id="Group_397" data-name="Group 397">
              <path id="Path_216" data-name="Path 216" d="M567.89,351.83v56.462h82.618V351.83Zm82.272,56.121H568.235V352.176h81.931v55.775Z" transform="translate(-567.89 -351.83)" fill="#1a2e4f"/>
            </g>
          </g>
          <g id="Group_407" data-name="Group 407" transform="translate(0.173 10.611)">
            <g id="Group_400" data-name="Group 400">
              <g id="Group_399" data-name="Group 399">
                <rect id="Rectangle_69" data-name="Rectangle 69" width="82.445" height="0.346" fill="#1a2e4f"/>
              </g>
            </g>
            <g id="Group_402" data-name="Group 402" transform="translate(0 11.636)">
              <g id="Group_401" data-name="Group 401">
                <rect id="Rectangle_70" data-name="Rectangle 70" width="82.445" height="0.346" fill="#1a2e4f"/>
              </g>
            </g>
            <g id="Group_404" data-name="Group 404" transform="translate(0 23.263)">
              <g id="Group_403" data-name="Group 403">
                <rect id="Rectangle_71" data-name="Rectangle 71" width="82.445" height="0.346" fill="#1a2e4f"/>
              </g>
            </g>
            <g id="Group_406" data-name="Group 406" transform="translate(0 34.895)">
              <g id="Group_405" data-name="Group 405">
                <rect id="Rectangle_72" data-name="Rectangle 72" width="82.445" height="0.346" fill="#1a2e4f"/>
              </g>
            </g>
          </g>
          <g id="Group_408" data-name="Group 408" transform="translate(14.91 0.173)">
            <rect id="Rectangle_73" data-name="Rectangle 73" width="0.346" height="56.173" fill="#1a2e4f"/>
          </g>
          <g id="Group_409" data-name="Group 409" transform="translate(32.09 0.173)">
            <rect id="Rectangle_74" data-name="Rectangle 74" width="0.346" height="56.173" fill="#1a2e4f"/>
          </g>
          <g id="Group_410" data-name="Group 410" transform="translate(49.27 0.173)">
            <rect id="Rectangle_75" data-name="Rectangle 75" width="0.346" height="56.173" fill="#1a2949"/>
          </g>
          <g id="Group_411" data-name="Group 411" transform="translate(66.45 0.173)">
            <rect id="Rectangle_76" data-name="Rectangle 76" width="0.346" height="56.173" fill="#1a2e4f"/>
          </g>
          <g id="Group_414" data-name="Group 414" transform="translate(0.169 0.683)">
            <g id="Group_413" data-name="Group 413">
              <g id="Group_412" data-name="Group 412">
                <path id="Path_217" data-name="Path 217" d="M650.4,353.53v1.507l-.341.418L630.313,379.67l-5.545-14.657L613.51,395.7l-12.925-27.024-10.9,18.9H568.31v-.952h20.824l11.527-19.98L613.4,393.254l11.354-30.965,5.862,15.5,19.446-23.838Z" transform="translate(-568.31 -353.53)" fill="#da5724"/>
              </g>
            </g>
          </g>
        </g>
        <g id="Group_416" data-name="Group 416" transform="translate(45.831 19.249)">
          <rect id="Rectangle_77" data-name="Rectangle 77" width="10.659" height="52.85" fill="#382a28"/>
        </g>
        <g id="Group_417" data-name="Group 417" transform="translate(23.994 153.701)">
          <rect id="Rectangle_78" data-name="Rectangle 78" width="61.894" height="10.659" fill="#382a28"/>
        </g>
        <g id="Group_433" data-name="Group 433" transform="translate(24.074 148.55)">
          <g id="Group_422" data-name="Group 422" transform="translate(0 5.155)">
            <g id="Group_421" data-name="Group 421">
              <g id="Group_420" data-name="Group 420">
                <g id="Group_419" data-name="Group 419">
                  <g id="Group_418" data-name="Group 418">
                    <path id="Path_218" data-name="Path 218" d="M663.713,551.918a30.075,30.075,0,0,1-6.083,17.67,30.7,30.7,0,0,1-4.058,4.391,30.144,30.144,0,0,1-18.578,7.594c-.667.032-1.338.04-2.013.032a30.227,30.227,0,0,1-28.1-39.913,30.586,30.586,0,0,1,2.3-5.151,30.26,30.26,0,0,1,4.11-5.633c.008-.008.02-.024.032-.036a30.035,30.035,0,0,1,4.9-4.263h34.541a30.368,30.368,0,0,1,9.04,9.932A30.012,30.012,0,0,1,663.713,551.918Z" transform="translate(-603.288 -526.61)" fill="#feaf30"/>
                  </g>
                </g>
              </g>
            </g>
          </g>
          <g id="Group_427" data-name="Group 427" transform="translate(0.256 0)">
            <g id="Group_426" data-name="Group 426" transform="translate(0)">
              <g id="Group_425" data-name="Group 425">
                <g id="Group_424" data-name="Group 424">
                  <g id="Group_423" data-name="Group 423">
                    <circle id="Ellipse_25" data-name="Ellipse 25" cx="23.693" cy="23.693" r="23.693" transform="translate(0 14.903) rotate(-18.332)" fill="#feaf30"/>
                  </g>
                </g>
              </g>
            </g>
          </g>
          <g id="Group_432" data-name="Group 432" transform="translate(19.181 11.154)">
            <g id="Group_431" data-name="Group 431">
              <g id="Group_430" data-name="Group 430">
                <g id="Group_429" data-name="Group 429">
                  <g id="Group_428" data-name="Group 428">
                    <path id="Path_219" data-name="Path 219" d="M670.825,561.444A8.922,8.922,0,0,0,666.711,559l.008-.345c2.977-1.149,4.484-3.086,4.532-5.79a6.05,6.05,0,0,0-.8-3.258,5.53,5.53,0,0,0-2.121-1.937,6.727,6.727,0,0,0-1.41-.57l.028-1.623.064-3.773-3.363-.056-.064,3.833-.02,1.053c-.727-.064-1.519-.1-2.366-.121h-.153l.016-.936.068-3.877-3.363-.056-.068,3.933-.016.876-5.986-.1a.173.173,0,0,0-.2.2l-.02,1.057c0,.129.06.2.2.2l3.455.4a.177.177,0,0,1,.2.2l-.4,23.472a.179.179,0,0,1-.2.2l-3.471.261c-.137,0-.2.072-.2.217l-.02,1.053c0,.133.06.2.2.2l5.983.1-.088,5.155,3.363.056.088-5.155,1.093.02c.494.008.972,0,1.43-.012l-.088,5.2,3.363.056.1-5.669a7.921,7.921,0,0,0,4.942-2.989,7.3,7.3,0,0,0,1.366-4.142A6.682,6.682,0,0,0,670.825,561.444ZM662.2,548.362a7.65,7.65,0,0,1,1.326.173,5.892,5.892,0,0,1,2.459,1.085,3.8,3.8,0,0,1,.872.94,4.7,4.7,0,0,1,.683,2.7,5.109,5.109,0,0,1-.776,2.78,4.536,4.536,0,0,1-1.551,1.422,6.381,6.381,0,0,1-1.852.671,12.94,12.94,0,0,1-2.527.261c-.213,0-.434,0-.659,0l-1.258-.024a.176.176,0,0,1-.2-.2l.165-9.727a.175.175,0,0,1,.2-.193l1.559.024.362.02Zm4.3,22.54a7.785,7.785,0,0,1-3.383,1.029,15.417,15.417,0,0,1-1.868.072l-.655-.012-1.917-.032a.18.18,0,0,1-.2-.2l.2-11.635a.174.174,0,0,1,.2-.2l1.8.032a.587.587,0,0,1,.121.008,14.464,14.464,0,0,1,2.519.245,7.548,7.548,0,0,1,3.343,1.414,5.874,5.874,0,0,1,2.017,4.982A4.789,4.789,0,0,1,666.506,570.9Z" transform="translate(-651.029 -541.54)" fill="#fff"/>
                  </g>
                </g>
              </g>
            </g>
          </g>
        </g>
      </g>
      <g id="woman" transform="translate(322.253 140.822)">
        <g id="Group_435" data-name="Group 435" transform="translate(84.896 20.457)">
          <g id="Group_434" data-name="Group 434">
            <path id="Path_220" data-name="Path 220" d="M558.84,197.564a44.182,44.182,0,0,1,3.7-4.592c.8-.579,1.286-.434,1.579.225s-1.205,2.238-1.4,3.15.386.6.386.6,5.854-5.512,6.577-5.2a.693.693,0,0,1,.253,1.205c-.293.253-4.629,4.825-4.629,4.825s5.641-5.637,6.043-5.472.876.35.153,1.306-4.649,5.1-4.649,5.1,4.89-4.371,5.633-4.327.462.976.2,1.237-5.03,5.018-5.03,5.018,4.1-2.6,4.765-2.174a.484.484,0,0,1,.217.257c.185.566-1,1.418-1.551,1.836-2.652,2-1.908,2.362-4.17,3.873a12.676,12.676,0,0,1-4.653,2.077,11.871,11.871,0,0,1-3.5.193q-1.513-1.133-3.025-2.27A66.152,66.152,0,0,1,558.84,197.564Z" transform="translate(-555.75 -191.737)" fill="#da5724"/>
          </g>
        </g>
        <g id="Group_437" data-name="Group 437" transform="translate(92.224 25.966)">
          <g id="Group_436" data-name="Group 436">
            <path id="Path_221" data-name="Path 221" d="M574.5,210.85l-.4-.321c.876-1.1.221-3.921-.108-4.918l.486-.161C574.532,205.611,575.73,209.315,574.5,210.85Z" transform="translate(-573.99 -205.45)" fill="#cd7d6c"/>
          </g>
        </g>
        <g id="Group_439" data-name="Group 439" transform="translate(46.924 28.783)">
          <g id="Group_438" data-name="Group 438">
            <path id="Path_222" data-name="Path 222" d="M504.158,219.728c0,.06,0,.125,0,.2,0,.153-.008.317-.016.486a16.86,16.86,0,0,1-.3,2.358c-.374,1.892-1.655,6.573-9.94,13.552-5.749,4.845-8.63,7.268-12.005,7.706a14.048,14.048,0,0,1-8.092-1.543,24.6,24.6,0,0,1-5.448-3.789c-.418-.378-.816-.755-1.177-1.117a31.313,31.313,0,0,1-2.989-3.439c-.157-3.5-.486-7.312-1.057-11.378-.518-3.7-1.173-7.148-1.892-10.306.016,0,.028,0,.044.008a14.863,14.863,0,0,1,1.555.346c.4.112.836.249,1.282.418a14.55,14.55,0,0,1,1.736.8c.052.028.1.056.153.088a26.368,26.368,0,0,1,3.8,3.106,70.906,70.906,0,0,1,9.434,9.936q.639.814,1.209,1.587c.06.084.121.161.173.237,2.109-2.069,3.741-3.7,4.657-4.612,5.545-5.557,7.232-7.477,10.4-8.494a14.441,14.441,0,0,1,3.053-.611l.362.35.338-.382,0-.008s0,0,.012,0q.223-.012.422-.012,2.139,1.995,4.287,3.986C504.158,219.359,504.162,219.535,504.158,219.728Z" transform="translate(-461.24 -212.46)" fill="#553e37"/>
          </g>
        </g>
        <g id="Group_440" data-name="Group 440" transform="translate(48.527 29.136)">
          <path id="Path_223" data-name="Path 223" d="M468.77,231.167c-2.065-4.717-2.447-7.847-2.371-9.88a19.533,19.533,0,0,0-.94-7.308c-.092-.273-.173-.494-.229-.639.4.112.836.249,1.282.418a29.1,29.1,0,0,1,2.656,8.715A25.659,25.659,0,0,1,468.77,231.167Z" transform="translate(-465.23 -213.34)" fill="#382a28"/>
        </g>
        <g id="Group_443" data-name="Group 443" transform="translate(24.396 27.633)">
          <g id="Group_442" data-name="Group 442">
            <g id="Group_441" data-name="Group 441">
              <path id="Path_224" data-name="Path 224" d="M433.624,237.339c-.024,1.362-.084,2.684-.181,3.941-.342,4.387-1.129,7.959-2.459,9.59-6-2.443-15.432-.518-22.062-.514-1.511-6.191-2.117-9.233-2.174-12.037a26.722,26.722,0,0,1,.3-4.524l0-.044c.048-.333.092-.623.121-.88a35.283,35.283,0,0,0,.269-3.994,51.407,51.407,0,0,0-2.27-14.966,28,28,0,0,1,14.846-4.311,27.324,27.324,0,0,1,9.173,1.635C432.085,215.2,433.8,227.354,433.624,237.339Z" transform="translate(-405.17 -209.6)" fill="#553e37"/>
            </g>
          </g>
        </g>
        <g id="Group_446" data-name="Group 446" transform="translate(35.099 13.844)">
          <g id="Group_445" data-name="Group 445">
            <g id="Group_444" data-name="Group 444">
              <path id="Path_225" data-name="Path 225" d="M439.753,175.28q-.06,4.176-.121,8.357c-.02,1.326-.036,2.656-.056,3.982-.02,1.306-.036,2.612-.056,3.917a4.574,4.574,0,0,1-3.037,2.668,4.371,4.371,0,0,1-4.673-2.427v-16.5Z" transform="translate(-431.81 -175.28)" fill="#da5724"/>
            </g>
          </g>
        </g>
        <g id="Group_449" data-name="Group 449" transform="translate(38.832 21.089)">
          <g id="Group_448" data-name="Group 448">
            <g id="Group_447" data-name="Group 447">
              <path id="Path_226" data-name="Path 226" d="M445.186,194.423c-.02,1.326-.036,2.656-.056,3.982-3.576-1.012-4.03-5.095-4.03-5.095Z" transform="translate(-441.1 -193.31)" fill="#b8432a"/>
            </g>
          </g>
        </g>
        <g id="Group_452" data-name="Group 452" transform="translate(34.921 7.015)">
          <g id="Group_451" data-name="Group 451">
            <g id="Group_450" data-name="Group 450">
              <path id="Path_227" data-name="Path 227" d="M432.943,170.483s3.271,5.143,7.947,4.207.936-14.954.936-14.954-7.947-3.27-9.815,0S432.943,170.483,432.943,170.483Z" transform="translate(-431.367 -158.282)" fill="#da5724"/>
            </g>
          </g>
        </g>
        <g id="Group_456" data-name="Group 456" transform="translate(40.708 14.544)">
          <g id="Group_455" data-name="Group 455">
            <g id="Group_454" data-name="Group 454">
              <g id="Group_453" data-name="Group 453">
                <path id="Path_228" data-name="Path 228" d="M446.7,177.486a.466.466,0,1,1-.466-.466A.466.466,0,0,1,446.7,177.486Z" transform="translate(-445.77 -177.02)" fill="#322223"/>
              </g>
            </g>
          </g>
        </g>
        <g id="Group_460" data-name="Group 460" transform="translate(44.915 14.544)">
          <g id="Group_459" data-name="Group 459">
            <g id="Group_458" data-name="Group 458">
              <g id="Group_457" data-name="Group 457">
                <path id="Path_229" data-name="Path 229" d="M457.172,177.486a.466.466,0,1,1-.466-.466A.466.466,0,0,1,457.172,177.486Z" transform="translate(-456.24 -177.02)" fill="#322223"/>
              </g>
            </g>
          </g>
        </g>
        <g id="Group_464" data-name="Group 464" transform="translate(39.938 12.848)">
          <g id="Group_463" data-name="Group 463">
            <g id="Group_462" data-name="Group 462">
              <g id="Group_461" data-name="Group 461">
                <path id="Path_230" data-name="Path 230" d="M444.089,173.563a.234.234,0,0,1-.1-.446,3.223,3.223,0,0,1,1.924-.249.234.234,0,1,1-.129.45,2.806,2.806,0,0,0-1.6.225A.238.238,0,0,1,444.089,173.563Z" transform="translate(-443.853 -172.799)" fill="#322223"/>
              </g>
            </g>
          </g>
        </g>
        <g id="Group_468" data-name="Group 468" transform="translate(44.146 12.849)">
          <g id="Group_467" data-name="Group 467">
            <g id="Group_466" data-name="Group 466">
              <g id="Group_465" data-name="Group 465">
                <path id="Path_231" data-name="Path 231" d="M456.325,173.565a.259.259,0,0,1-.1-.02,2.8,2.8,0,0,0-1.6-.225.234.234,0,0,1-.129-.45,3.249,3.249,0,0,1,1.924.249.232.232,0,0,1,.112.309A.237.237,0,0,1,456.325,173.565Z" transform="translate(-454.327 -172.803)" fill="#322223"/>
              </g>
            </g>
          </g>
        </g>
        <g id="Group_472" data-name="Group 472" transform="translate(41.433 19.017)">
          <g id="Group_471" data-name="Group 471">
            <g id="Group_470" data-name="Group 470">
              <g id="Group_469" data-name="Group 469">
                <path id="Path_232" data-name="Path 232" d="M449.224,189.073a2.69,2.69,0,0,1-1.571-.554.2.2,0,1,1,.249-.321,2.167,2.167,0,0,0,1.7.43,1.941,1.941,0,0,0,.848-.422.2.2,0,1,1,.261.309,2.306,2.306,0,0,1-1.024.51A2.385,2.385,0,0,1,449.224,189.073Z" transform="translate(-447.575 -188.155)" fill="#322223"/>
              </g>
            </g>
          </g>
        </g>
        <g id="Group_476" data-name="Group 476" transform="translate(43.031 14.981)">
          <g id="Group_475" data-name="Group 475">
            <g id="Group_474" data-name="Group 474">
              <g id="Group_473" data-name="Group 473">
                <path id="Path_233" data-name="Path 233" d="M451.57,181.151l-.02-.406c1.109-.06,1.209-.3,1.217-.325.016-.06-.068-.185-.177-.346-.08-.121-.177-.257-.273-.434a4.237,4.237,0,0,1-.49-1.471l.4-.06a3.849,3.849,0,0,0,.442,1.33c.092.165.181.293.253.4.169.245.3.442.229.687C453.053,180.9,452.546,181.1,451.57,181.151Z" transform="translate(-451.55 -178.11)" fill="#322223"/>
              </g>
            </g>
          </g>
        </g>
        <g id="Group_479" data-name="Group 479" transform="translate(23.323 4.741)">
          <g id="Group_478" data-name="Group 478">
            <g id="Group_477" data-name="Group 477">
              <path id="Path_234" data-name="Path 234" d="M422.043,154.446a7.846,7.846,0,0,0-2.6-1.358,3.068,3.068,0,0,0-2.652.3c-.177.137-.35.289-.514.442l-.446.53c-.289.406-.575.812-.852,1.225l-.856,1.25a5.342,5.342,0,0,1-1.093,1.2,3.551,3.551,0,0,1-1.571.587,12.064,12.064,0,0,1-1.551.117c-1.037.012-2.041-.088-3.013-.129a4.026,4.026,0,0,0-2.684.675,5.434,5.434,0,0,0-1.663,2.366l-.044-.016a5.341,5.341,0,0,1,1.551-2.543,4.283,4.283,0,0,1,2.837-.848c1-.008,2,.1,3,.068a11.535,11.535,0,0,0,1.491-.129,3.14,3.14,0,0,0,1.37-.526,5.206,5.206,0,0,0,1.008-1.089l.864-1.225c.285-.41.579-.82.876-1.221l.494-.575a7.429,7.429,0,0,1,.595-.47,3.378,3.378,0,0,1,2.921-.225,7.49,7.49,0,0,1,2.559,1.559Z" transform="translate(-402.5 -152.623)" fill="#1a2949"/>
            </g>
          </g>
        </g>
        <g id="Group_482" data-name="Group 482" transform="translate(37.411 8.919)">
          <g id="Group_481" data-name="Group 481">
            <g id="Group_480" data-name="Group 480">
              <path id="Path_235" data-name="Path 235" d="M439.124,170.6l-.036.028a5.39,5.39,0,0,1-1.466-2.591,4.3,4.3,0,0,1,.643-2.893c.4-.723.86-1.41,1.266-2.125l.394.153c-.438.751-.912,1.446-1.342,2.146a4.024,4.024,0,0,0-.719,2.672A5.483,5.483,0,0,0,439.124,170.6Z" transform="translate(-437.562 -163.02)" fill="#382a28"/>
            </g>
          </g>
        </g>
        <g id="Group_485" data-name="Group 485" transform="translate(84.788 31.551)">
          <g id="Group_484" data-name="Group 484">
            <g id="Group_483" data-name="Group 483">
              <path id="Path_236" data-name="Path 236" d="M560.53,224.047c0,.153-.008.317-.016.486l-.253-.237-4.781-4.564.337-.382,4.717,4.5.1.1Z" transform="translate(-555.48 -219.35)" fill="#382a28"/>
            </g>
          </g>
        </g>
        <g id="Group_488" data-name="Group 488" transform="translate(3.05 64.794)">
          <g id="Group_487" data-name="Group 487">
            <g id="Group_486" data-name="Group 486">
              <path id="Path_237" data-name="Path 237" d="M403.03,431.676q-3.556-.4-7.116-.791a188.927,188.927,0,0,1-2.768-41.894c.064-1.33.137-2.644.225-3.949a83.357,83.357,0,0,0,.567-9.092c0-.816,0-1.6-.02-2.354a94,94,0,0,0-1.262-13.464c-.607-3.861-1.318-7.69-1.86-12.584-.153-1.374-.293-2.833-.414-4.4a139.788,139.788,0,0,1-.169-19.024v-.008c-.02-.249-.036-.506-.052-.763-1.555,5.669-3.857,14.191-6.605,24.685-.225.86-.454,1.736-.683,2.62-1.153,4.448-2.029,7.839-2.957,11.451-.86,3.347-1.776,6.882-3.013,11.611-.036.133-.072.269-.109.406l-.655,2.507c-2.21,8.405-6.027,20.949-8.682,30.15-1.085,3.753-2.467,8.65-4.026,14.5q-.916,3.411-1.9,7.236a6.5,6.5,0,0,1-1.254,1.426c-.1.08-.2.157-.3.233a5.64,5.64,0,0,1-3.982,1.1,5.906,5.906,0,0,1-3.954-2.37c.157-1.041.43-2.837.759-5.066,3.881-26.216,3.712-30.037,6.356-39.2,2.117-7.332,2.865-7.1,3.492-11.467.008-.052.016-.1.02-.153.691-4.954,1.121-14.552,1.627-18.418.036-.273.076-.55.121-.836.233-1.555.538-3.278.956-5.167.269-1.193.583-2.447.952-3.757.052-.181.028-.092.169-.6.418-1.466,1.495-5.263,2.732-10.073.595-2.31,1.089-4.351,1.732-7q1-4.116,1.864-7.951c1.434-6.352,2.6-12.1,3.548-17.136q10.462.187,20.917.39c1.286.028,2.571.048,3.853.076.956,5.9,2.238,14.307,3.5,24.444.683,5.5,1.338,10.8,1.916,16.047.526,4.753.984,9.462,1.334,14.215s.587,9.679.679,14.737c0,.3.012.6.012.9A271.687,271.687,0,0,1,403.03,431.676Z" transform="translate(-352.04 -302.09)" fill="#da5724"/>
            </g>
          </g>
        </g>
        <g id="Group_489" data-name="Group 489" transform="translate(15.428 110.633)">
          <path id="Path_238" data-name="Path 238" d="M401.991,416.285c-.225.86-.454,1.736-.683,2.62-1.153,4.448-2.029,7.839-2.957,11.451a122.222,122.222,0,0,1-15.5-8.333c.233-1.555.538-3.279.956-5.167C390.484,415.887,400.444,416.229,401.991,416.285Z" transform="translate(-382.85 -416.181)" fill="#b8432a"/>
        </g>
        <g id="Group_490" data-name="Group 490" transform="translate(41.809 105.747)">
          <path id="Path_239" data-name="Path 239" d="M465.485,415.583a15.544,15.544,0,0,1-7.746,5.235,15.375,15.375,0,0,1-7.369.285c-.607-3.861-1.318-7.69-1.86-12.584l15.754-4.5q.35,3.532.731,7.107Q465.236,413.363,465.485,415.583Z" transform="translate(-448.51 -404.02)" fill="#b8432a"/>
        </g>
        <g id="Group_504" data-name="Group 504" transform="translate(85.84 13.949)">
          <g id="Group_501" data-name="Group 501">
            <g id="Group_495" data-name="Group 495">
              <g id="Group_494" data-name="Group 494">
                <g id="Group_493" data-name="Group 493">
                  <g id="Group_492" data-name="Group 492">
                    <g id="Group_491" data-name="Group 491">
                      <path id="Path_240" data-name="Path 240" d="M608.82,184.688v40.523c-.341.358-.691.707-1.045,1.045a29.517,29.517,0,0,1-6.123,4.476,27.736,27.736,0,0,1-2.957,1.414,29.2,29.2,0,0,1-8.743,2.105c-.647.056-1.3.088-1.957.1a29.393,29.393,0,0,1-22.761-48.6c.008-.012.02-.024.028-.036a29.634,29.634,0,0,1,5.625-5.026,29.2,29.2,0,0,1,10.84-4.576,29.793,29.793,0,0,1,5.291-.567,29.378,29.378,0,0,1,21.8,9.145Z" transform="translate(-558.1 -175.54)" fill="#feaf30"/>
                    </g>
                  </g>
                </g>
              </g>
            </g>
            <g id="Group_500" data-name="Group 500" transform="translate(6.349 6.349)">
              <g id="Group_499" data-name="Group 499">
                <g id="Group_498" data-name="Group 498">
                  <g id="Group_497" data-name="Group 497">
                    <g id="Group_496" data-name="Group 496">
                      <path id="Path_241" data-name="Path 241" d="M618.274,205.58v17.642a23.059,23.059,0,1,1,0-17.642Z" transform="translate(-573.902 -191.342)" fill="#feaf30"/>
                    </g>
                  </g>
                </g>
              </g>
            </g>
          </g>
          <g id="Group_503" data-name="Group 503" transform="translate(18.643 9.289)">
            <g id="Group_502" data-name="Group 502">
              <path id="Path_242" data-name="Path 242" d="M625.4,221.441a8.071,8.071,0,0,0-1.808-2.8,9.906,9.906,0,0,0-3.041-2,32.093,32.093,0,0,0-3.994-1.177V203.943a5.465,5.465,0,0,1,3.074,1.655,6.8,6.8,0,0,1,1.474,3.6l4.13-.619a9.1,9.1,0,0,0-3.15-5.974,9.842,9.842,0,0,0-5.524-2.041V198.66H614.2v1.908a10.545,10.545,0,0,0-5.995,2.174,9.408,9.408,0,0,0-1.985,11.19,7.377,7.377,0,0,0,2.941,2.953,16.716,16.716,0,0,0,5.038,1.908v12.72a5.836,5.836,0,0,1-4.042-2.375,10.126,10.126,0,0,1-1.643-4.729l-4.018.755a11.146,11.146,0,0,0,1.587,5.263,8.447,8.447,0,0,0,3.238,3.118,14.793,14.793,0,0,0,4.874,1.342v4h2.354v-4.042a9.6,9.6,0,0,0,9.478-9.9A9.553,9.553,0,0,0,625.4,221.441Zm-11.2-6.481a7.9,7.9,0,0,1-3.873-2.2,5.544,5.544,0,0,1,.2-6.991,5.9,5.9,0,0,1,3.676-1.864V214.96Zm6.2,14.54a5.927,5.927,0,0,1-3.849,2.017V219.352a9.3,9.3,0,0,1,4.3,2.367,5.363,5.363,0,0,1,1.077,3.5A6.267,6.267,0,0,1,620.4,229.5Z" transform="translate(-604.5 -198.66)" fill="#fff"/>
            </g>
          </g>
        </g>
        <g id="Group_505" data-name="Group 505" transform="translate(10.571 60.463)">
          <path id="Path_243" data-name="Path 243" d="M421.738,343.811c-.434.193-.884.39-1.358.587a42.715,42.715,0,0,1-15.091,3.19c-.157,0-.313.008-.462.008a44.115,44.115,0,0,1-5.215-.225q.193-8.63.394-17.264c0-.145,0-.289.008-.434q.072-2.929.133-5.854c-.293,1.82-.583,3.648-.872,5.468-.024.137-.044.273-.068.41q-.8,5.026-1.6,10.057c-.084.526-.169,1.049-.253,1.575q-.452,2.82-.9,5.649a32.908,32.908,0,0,1-6.043.647c-.161,0-.325,0-.486,0h0a32.557,32.557,0,0,1-10.856-1.852c-.157-.056-.313-.112-.466-.165a33.192,33.192,0,0,1-7.835-4.166l3.307-10.47.129-.41,2.579-8.172.121-.378,1.824-5.778.149-.478,3.122-9.876.121-.386,2.857-9.052.161-.514.366-1.161,1.089-3.459h26.461a31.485,31.485,0,0,1,1.145,4.633c.028.125.056.257.08.386.008.036.016.076.024.117.482,2.427,1.029,5.5,1.6,8.907.024.153.052.309.08.466.221,1.326.446,2.7.671,4.094.04.237.076.47.117.707.309,1.924.619,3.9.928,5.886.024.133.044.265.064.4.125.824.253,1.643.378,2.463q.283,1.868.575,3.724c.024.145.044.293.068.438.08.518.157,1.037.237,1.551.02.133.044.265.06.394q.7,4.544,1.354,9c.02.129.04.261.06.39q.651,4.484,1.241,8.883A.262.262,0,0,1,421.738,343.811Z" transform="translate(-370.76 -291.31)" fill="#553e37"/>
        </g>
        <g id="Group_507" data-name="Group 507" transform="translate(13.873 63.326)">
          <g id="Group_506" data-name="Group 506">
            <path id="Path_244" data-name="Path 244" d="M383.785,320.013l-.149.478a6.619,6.619,0,0,1,1.125,4.452c-.064,1-.285,1.6-.679,1.82-.494.281-1.306-.012-2.274-.49l-.121.378c1.073.526,1.945.82,2.583.454.53-.293.812-.972.88-2.137A6.95,6.95,0,0,0,383.785,320.013Zm18,22.684c-.836-.2-1.909,1.41-4.066,4.8-.84,1.318-1.8,2.829-2.889,4.391.161,0,.325,0,.486,0,1.029-1.487,1.941-2.921,2.74-4.174,1.563-2.455,3.033-4.781,3.636-4.629.116.032.394.249.51,1.663.024.281.044.567.06.844.084-.526.169-1.049.253-1.575C402.388,343.2,402.155,342.79,401.789,342.7Zm19.032-33.091c-1.607,1.442-2.989,2.612-3.8,2.306-.51-.189-.852-1-1.029-2.395a17.332,17.332,0,0,0-1.077-3.937c-.53-1.458-.952-2.608-.41-3.4.53-.775,1.973-1.286,4.7-1.591-.024-.129-.052-.261-.08-.386-2.853.329-4.343.88-4.942,1.76-.655.96-.2,2.2.366,3.757a17.329,17.329,0,0,1,1.053,3.849c.2,1.6.607,2.467,1.286,2.72,1,.37,2.342-.719,4.022-2.21C420.87,309.916,420.841,309.759,420.821,309.607Zm.747,4.56c-.084.177-.157.354-.237.526-.783,1.752-1.458,3.262-2.636,3.54-.948.229-2.25-.342-3.974-1.736-1.033-.84-2.387-1.916-3.893-3.07.94-.667,1.6-1.941,1.2-4.315-1.109-6.661-10.567-9.976-16.658-10.579-.972-.1-3.885-.305-4.954.49a.971.971,0,0,0-.346.426,1.1,1.1,0,0,0-.024.735c.245.832,1.342,1.631,2.5,2.471,1.475,1.077,3.138,2.29,3.15,3.644,0,.775-.522,1.555-1.611,2.367a6.5,6.5,0,0,1-5.995,1.258c-.362-.068-.711-.133-1.057-.173l-.121.386c.354.032.715.1,1.1.177a6.919,6.919,0,0,0,6.308-1.334,3.534,3.534,0,0,0,1.772-2.688c-.012-1.555-1.768-2.829-3.311-3.958-1.358-.992-2.644-1.933-2.33-2.748.2-.534,1.816-.968,4.886-.663,5.966.591,15.236,3.809,16.312,10.249.325,1.961-.056,3.3-1.137,4-5.159-3.941-11.885-8.606-13.564-7.533-.4.261-.51.788-.317,1.575.864,3.447,8.755,7.642,12.793,6.806a4.089,4.089,0,0,0,1.057-.37c1.274.976,2.612,2.033,4.006,3.158,1.848,1.5,3.222,2.073,4.307,1.816,1.366-.329,2.077-1.908,2.9-3.749C421.645,314.637,421.609,314.4,421.569,314.167Zm-12.234-.534c-3.9.812-11.5-3.206-12.323-6.513-.153-.6-.1-.988.141-1.141a.823.823,0,0,1,.458-.113c1.683,0,6.288,2.776,12.511,7.513A3.231,3.231,0,0,1,409.334,313.632Zm-3.889,11.186c2.555-.426,5.38-1.109,8.152-1.788a82.612,82.612,0,0,1,9.08-1.872c-.02-.133-.04-.265-.064-.4a84.821,84.821,0,0,0-9.108,1.888c-2.849.691-5.758,1.4-8.361,1.82-6.039-7.043-9.406-10.125-11.5-9.691-.824.173-1.4.884-1.768,2.178-.755,2.672-1.157,4.379-.362,5.585.844,1.278,2.869,1.937,8.044,2.612A20.232,20.232,0,0,0,405,324.89c1.583,1.852,3.287,3.909,5.107,6.119,3.982,4.829,4.456,6.292,4.15,6.665-.591.739-4.974-1.495-9.325-3.745,0,.145,0,.289-.008.434,5.8,3.005,8.879,4.492,9.639,3.556.43-.53.273-1.8-4.15-7.168C408.579,328.538,406.936,326.562,405.445,324.818Zm-5.838-.064c-4.97-.647-7-1.286-7.762-2.435-.7-1.065-.309-2.7.414-5.259.325-1.133.8-1.76,1.471-1.9a1.6,1.6,0,0,1,.313-.032c2.061,0,5.745,3.688,10.651,9.406A18.933,18.933,0,0,1,399.607,324.754Zm-10.121,3.7c-1.245,1.205.121,4.375,1.848,8.393.45,1.041.912,2.113,1.346,3.2,1.221,3.053.948,4.058.5,4.367-1.286.884-5.934-2.158-12.439-8.144-.567-.522-1.109-1-1.635-1.446l-.129.41c.47.4.972.844,1.5,1.33,4.845,4.46,11.025,9.5,12.933,8.176.832-.575.711-2.154-.362-4.841-.434-1.089-.9-2.166-1.346-3.21-1.535-3.568-2.989-6.939-1.941-7.951.808-.783,3.086-.281,6.975,1.535,2.5,1.165,5.083,2.5,7.389,3.692.024-.137.044-.273.068-.41-2.278-1.173-4.817-2.487-7.288-3.636C392.789,327.992,390.435,327.53,389.487,328.45Zm34.449.884a10.573,10.573,0,0,1-4.99.189c-2.286-.418-3.632-1.306-3.592-1.756.028-.3.779-.639,2.808-.639a23.956,23.956,0,0,1,5.536.655c-.024-.145-.044-.293-.068-.438a24.9,24.9,0,0,0-5.468-.611c-2.061,0-3.142.337-3.2,1-.088.932,1.953,1.816,3.913,2.178a10.977,10.977,0,0,0,5.123-.181C423.979,329.6,423.955,329.467,423.935,329.334ZM426.651,348c-5.826,1.113-13.122,2.306-16.176-.149a3.858,3.858,0,0,1-1.414-3.1,4.275,4.275,0,0,1,1.093-3.21c1.941-2.033,6.272-2.117,10.462-2.206,1.623-.036,3.27-.072,4.793-.221-.02-.129-.04-.261-.06-.39-1.5.149-3.134.185-4.741.217-4.267.088-8.682.177-10.74,2.326a4.668,4.668,0,0,0-1.205,3.491,4.276,4.276,0,0,0,1.567,3.4c2.937,2.362,9.45,1.527,15.071.5.474-.193.924-.39,1.358-.587A.223.223,0,0,1,426.651,348Z" transform="translate(-378.98 -298.435)" fill="#fff9ed"/>
          </g>
        </g>
        <g id="Group_510" data-name="Group 510" transform="translate(40.636 78.105)">
          <g id="Group_509" data-name="Group 509">
            <g id="Group_508" data-name="Group 508">
              <path id="Path_245" data-name="Path 245" d="M446,344.541l-.41-.225c1.744-3.178,4.508-8.457,4.508-9.1h.466C450.564,336.188,446.47,343.69,446,344.541Z" transform="translate(-445.59 -335.22)" fill="#382a28"/>
            </g>
          </g>
        </g>
        <g id="Group_514" data-name="Group 514" transform="translate(18.402 64.746)">
          <g id="Group_513" data-name="Group 513">
            <g id="Group_512" data-name="Group 512">
              <g id="Group_511" data-name="Group 511">
                <path id="Path_246" data-name="Path 246" d="M403.758,302.095l-13.042,50.054c-.157-.056-.313-.113-.466-.165l13.034-50.013Z" transform="translate(-390.25 -301.97)" fill="#382a28"/>
              </g>
            </g>
          </g>
        </g>
        <g id="Group_518" data-name="Group 518" transform="translate(42.408 83.935)">
          <g id="Group_517" data-name="Group 517">
            <g id="Group_516" data-name="Group 516">
              <g id="Group_515" data-name="Group 515">
                <path id="Path_247" data-name="Path 247" d="M452.688,382.535c-.157,0-.313.008-.462.008-1.149-18.393-2.194-32.412-2.226-32.777l.466-.036C450.49,350.1,451.539,364.13,452.688,382.535Z" transform="translate(-450 -349.73)" fill="#382a28"/>
              </g>
            </g>
          </g>
        </g>
        <g id="Group_521" data-name="Group 521" transform="translate(27.851 65.923)">
          <g id="Group_520" data-name="Group 520">
            <g id="Group_519" data-name="Group 519">
              <path id="Path_248" data-name="Path 248" d="M414.059,316.881a.253.253,0,0,1-.149-.04l-.125-.064-.016-.161H414l.173-.153a.161.161,0,0,0-.1-.052h0c.052,0,.627-.072,4.01-2.326,4.034-2.688,3.178-9.056,3.17-9.12l.462-.064c.04.273.908,6.722-3.375,9.574C415.2,316.564,414.357,316.881,414.059,316.881Z" transform="translate(-413.77 -304.9)" fill="#382a28"/>
            </g>
          </g>
        </g>
        <g id="Group_522" data-name="Group 522" transform="translate(24.006 60.455)">
          <path id="Path_249" data-name="Path 249" d="M434.631,296.425H404.2l1.679-5.135h27.454A34.917,34.917,0,0,1,434.631,296.425Z" transform="translate(-404.2 -291.29)" fill="#382a28"/>
        </g>
        <g id="Group_523" data-name="Group 523" transform="translate(24.392)">
          <path id="Path_250" data-name="Path 250" d="M419.788,149.841c3.094,1.993,6.372,2.523,8.3,1.185a4.714,4.714,0,0,0,1.579-1.977c.044-.117.868-2.379-.394-3.556a3.332,3.332,0,0,0-4.347.394,4.588,4.588,0,0,0-.394-1.977c-.964-2.105-3.853-3.825-5.93-2.768a4.379,4.379,0,0,0-1.977,3.162,3.311,3.311,0,0,0-2.37,0,3.5,3.5,0,0,0-1.977,2.371h0c0,.012-.321,1.165.394,5.93,0,0-3.455-.044-5.532,1.579a5.237,5.237,0,0,0-1.977,3.556,5.609,5.609,0,0,0,5.533,5.533,5.668,5.668,0,0,0,5.139-4.347,9.078,9.078,0,0,1,0-2.768A10.271,10.271,0,0,1,419.788,149.841Z" transform="translate(-405.159 -140.822)" fill="#382a28"/>
        </g>
        <g id="Group_526" data-name="Group 526" transform="translate(33.693 15.48)">
          <g id="Group_525" data-name="Group 525">
            <g id="Group_524" data-name="Group 524">
              <path id="Path_251" data-name="Path 251" d="M431.114,180.752a1.4,1.4,0,1,1-1.4-1.4A1.4,1.4,0,0,1,431.114,180.752Z" transform="translate(-428.31 -179.35)" fill="#da5724"/>
            </g>
          </g>
        </g>
        <g id="Group_529" data-name="Group 529" transform="translate(34.21 15.983)">
          <g id="Group_528" data-name="Group 528">
            <g id="Group_527" data-name="Group 527">
              <path id="Path_252" data-name="Path 252" d="M430.482,182.148a.142.142,0,0,1-.068-.016c-.566-.241-.836-.5-.816-.792.028-.454.755-.687.9-.731a.176.176,0,1,1,.1.337c-.3.088-.643.281-.651.414,0,.032.02.2.6.45a.176.176,0,0,1,.092.229A.164.164,0,0,1,430.482,182.148Z" transform="translate(-429.597 -180.602)" fill="#322223"/>
            </g>
          </g>
        </g>
        <g id="Group_530" data-name="Group 530" transform="translate(26.272 46.911)">
          <path id="Path_253" data-name="Path 253" d="M436.418,266.041c-.024,1.362-.084,2.684-.181,3.941-12.065-.016-22.323-5.139-26.4-7.485l0-.044.39-4.874C416.771,259.721,430.8,264.31,436.418,266.041Z" transform="translate(-409.84 -257.58)" fill="#382a28"/>
        </g>
        <g id="Group_531" data-name="Group 531" transform="translate(33.192 24.018)">
          <path id="Path_254" data-name="Path 254" d="M427.359,206.154s-1.185-5.93,1.185-5.533-.394,2.37,8.3,1.977c0,0,1.9-.792,1.937,2.768S430.521,214.848,427.359,206.154Z" transform="translate(-427.062 -200.602)" fill="#553e37"/>
        </g>
        <g id="Group_532" data-name="Group 532" transform="translate(33.179 28.763)">
          <path id="Path_255" data-name="Path 255" d="M427.062,212.418a8.238,8.238,0,0,0,1.153,1.29,6.3,6.3,0,0,0,1.358,1,6.014,6.014,0,0,0,1.535.595,5.051,5.051,0,0,0,1.631.076,8.073,8.073,0,0,0,3.166-1.045c.245-.145.5-.277.743-.43s.486-.309.719-.478.482-.321.715-.494.466-.35.707-.522l.028.028a16.647,16.647,0,0,1-2.756,2.158,9.879,9.879,0,0,1-1.579.767,6.384,6.384,0,0,1-1.708.41,5.3,5.3,0,0,1-3.363-.8,7.1,7.1,0,0,1-2.383-2.535Z" transform="translate(-427.03 -212.41)" fill="#382a28"/>
        </g>
        <g id="Group_533" data-name="Group 533" transform="translate(29.623 31.551)">
          <path id="Path_256" data-name="Path 256" d="M451.295,228.6v.623l-13.174,4.287-3.821,1.246s-16.039-15.4-16.119-15.408L437.393,227l5.6,2.23,6.609-2.519Z" transform="translate(-418.18 -219.35)" fill="#382a28"/>
        </g>
        <g id="Group_534" data-name="Group 534" transform="translate(54.039 40.771)">
          <path id="Path_257" data-name="Path 257" d="M507.1,246.534a35.267,35.267,0,0,1-13.524,11.045,34.691,34.691,0,0,1-9.177,2.764,24.6,24.6,0,0,1-5.448-3.789c.092-5.207,10.016-8.891,20.551-12.8,3.122-1.157,6.308-2.158,7.509-.792C507.778,243.83,507.48,245.369,507.1,246.534Z" transform="translate(-478.95 -242.298)" fill="#382a28"/>
        </g>
        <g id="Group_536" data-name="Group 536" transform="translate(77.383 29.013)">
          <g id="Group_535" data-name="Group 535">
            <path id="Path_258" data-name="Path 258" d="M554.523,217.1c-.269.245-5.34,4.689-5.34,4.689s4.263-2.33,4.894-1.868a.519.519,0,0,1,.2.269c.149.579-1.085,1.354-1.663,1.736-2.776,1.828-2.057,2.234-4.412,3.6a12.612,12.612,0,0,1-4.777,1.776,11.9,11.9,0,0,1-3.5-.032c-.956-.816-1.917-1.639-2.877-2.455,0,0,1.539-3.367,3.086-5.954a2.643,2.643,0,0,1,2.266-1.479,10.5,10.5,0,0,0,2.146.426c.137,0,.249,0,.321,0,0,0,.349-.293.9-.731,1.74-1.4,5.464-4.311,6-4.03a.689.689,0,0,1,.177,1.217c-.289.217-4.3,3.941-4.862,4.468.651-.571,5.946-5.2,6.316-5.018.386.193.852.406.068,1.31-.731.844-4.412,4.271-4.914,4.745.566-.442,5.151-4,5.846-3.913C555.134,215.949,554.793,216.861,554.523,217.1Z" transform="translate(-537.05 -213.033)" fill="#da5724"/>
          </g>
        </g>
        <g id="Group_537" data-name="Group 537" transform="translate(17.969 30.31)">
          <path id="Path_259" data-name="Path 259" d="M394.813,216.708c2.772-1.487,6.549.952,12.25,4.347,3.813,2.27,9.458,5.545,16.658,9.394a46.015,46.015,0,0,1,14.93-6.043,43.925,43.925,0,0,1,11.909-.828q1.169,3.188,2.338,6.38a47.2,47.2,0,0,1-5.725,5.1,42.378,42.378,0,0,1-23.42,8.831c-6.224.285-10.494-1.045-17.353-3.182-8-2.491-15.2-4.845-16.818-10.679a11.9,11.9,0,0,1,.161-6.718c.008-.02.036-.108.076-.221A13.017,13.017,0,0,1,394.813,216.708Z" transform="translate(-389.174 -216.263)" fill="#553e37"/>
        </g>
        <g id="Group_538" data-name="Group 538" transform="translate(78.431 37.308)">
          <path id="Path_260" data-name="Path 260" d="M539.773,233.68a6.107,6.107,0,0,1,1.551,1.422,8.581,8.581,0,0,1,1.029,1.671,8.809,8.809,0,0,1,.639,1.856,6.111,6.111,0,0,1,.121,2.1l-.108.052c-.6-1.153-1.149-2.334-1.724-3.5-.538-1.185-1.109-2.354-1.619-3.552Z" transform="translate(-539.66 -233.68)" fill="#382a28"/>
        </g>
        <g id="Group_539" data-name="Group 539" transform="translate(3.046 135.728)">
          <path id="Path_261" data-name="Path 261" d="M376.9,479.331c-.036.133-.072.269-.108.406-.185.715-.378,1.458-.587,2.234-.024.092-.048.181-.072.273-.229.868-.474,1.784-.735,2.736q-.277,1.031-.591,2.121c-.068.253-.137.51-.213.767-2.186,7.782-5.034,17.208-7.148,24.525-1.085,3.753-2.467,8.65-4.026,14.5q-.916,3.411-1.9,7.236a6.5,6.5,0,0,1-1.254,1.426c-.1.08-.2.157-.3.233a5.64,5.64,0,0,1-3.982,1.1,5.905,5.905,0,0,1-3.954-2.371c.157-1.041.43-2.836.759-5.066,3.881-26.216,3.712-30.037,6.356-39.2.494-1.712.912-3.013,1.278-4.054.092-.269.181-.522.269-.763.277-.763.514-1.378.723-1.933a19.228,19.228,0,0,0,.8-2.455,22.133,22.133,0,0,0,.422-2.262c.008-.052.016-.1.02-.153C367.579,478.961,372.886,479.255,376.9,479.331Z" transform="translate(-352.03 -478.64)" fill="#acacac"/>
        </g>
        <g id="Group_540" data-name="Group 540" transform="translate(43.957 135.6)">
          <path id="Path_262" data-name="Path 262" d="M469.51,482.957c0,.8,0,1.583-.016,2.37,0,.635-.012,1.27-.024,1.9,0,.265-.008.53-.016.792a272.692,272.692,0,0,1-5.516,49.081q-3.556-.4-7.116-.791a188.926,188.926,0,0,1-2.768-41.894c.064-1.33.137-2.644.225-3.949.072-.872.141-1.6.209-2.29.024-.269.052-.53.076-.792.068-.659.12-1.314.169-2.061.04-.683.076-1.45.092-2.371.012-.482.016-1,.02-1.579,0-.816,0-1.6-.02-2.354,3.672-.048,8.871-.213,14.657-.7C469.506,479.875,469.518,481.422,469.51,482.957Z" transform="translate(-453.855 -478.32)" fill="#acacac"/>
        </g>
        <g id="Group_543" data-name="Group 543" transform="translate(0 197.853)">
          <g id="Group_542" data-name="Group 542">
            <g id="Group_541" data-name="Group 541">
              <path id="Path_263" data-name="Path 263" d="M344.554,635.794l-.1,1.3s23.038,1.378,25.244,1.117,4.58-2.7,4.685-4-1.655-.888-1.655-.888Z" transform="translate(-344.45 -633.264)" fill="#172949"/>
            </g>
          </g>
        </g>
        <g id="Group_546" data-name="Group 546" transform="translate(0.968 187.879)">
          <g id="Group_545" data-name="Group 545">
            <g id="Group_544" data-name="Group 544">
              <path id="Path_264" data-name="Path 264" d="M374.989,618.862a5.541,5.541,0,0,1-3.749,3.2,61.765,61.765,0,0,1-6.605-.117c-.129,0-.265-.008-.4-.016-1.772-.076-3.717-.169-5.649-.269-2.061-.1-4.1-.213-5.886-.317-3.371-.185-5.838-.333-5.838-.333a60.073,60.073,0,0,1,1.334-5.962c.277-1.085.555-2.129.775-2.965.285-1.073.482-1.788.482-1.788a13.949,13.949,0,0,1,6.842,1.848c-.3-1.772,2.913-3.7,2.913-3.7s.627,3.106,1.462,3.608c.04.024.117.064.217.121.217.112.559.281,1,.494.269.128.579.281.916.442.309.149.647.309,1,.478.313.149.635.305.976.466.325.153.659.317,1.008.478.591.277,1.2.57,1.812.856,1.828.86,3.676,1.732,5.066,2.383S374.989,618.862,374.989,618.862Z" transform="translate(-346.86 -608.44)" fill="#feaf30"/>
            </g>
          </g>
        </g>
        <g id="Group_550" data-name="Group 550" transform="translate(13.914 191.616)">
          <g id="Group_549" data-name="Group 549">
            <g id="Group_548" data-name="Group 548">
              <g id="Group_547" data-name="Group 547">
                <path id="Path_265" data-name="Path 265" d="M381.161,618.23l-1.089,1.495a.55.55,0,0,1-.486.225.538.538,0,0,1-.281-.1.547.547,0,0,1-.121-.763l.98-1.342C380.382,617.848,380.723,618.017,381.161,618.23Z" transform="translate(-379.08 -617.74)" fill="#553e37"/>
              </g>
            </g>
          </g>
        </g>
        <g id="Group_554" data-name="Group 554" transform="translate(15.862 192.552)">
          <g id="Group_553" data-name="Group 553">
            <g id="Group_552" data-name="Group 552">
              <g id="Group_551" data-name="Group 551">
                <path id="Path_266" data-name="Path 266" d="M385.987,620.548l-1.065,1.458a.55.55,0,0,1-.486.225.525.525,0,0,1-.281-.1.547.547,0,0,1-.121-.763l.944-1.294Z" transform="translate(-383.93 -620.07)" fill="#553e37"/>
              </g>
            </g>
          </g>
        </g>
        <g id="Group_558" data-name="Group 558" transform="translate(18.004 193.5)">
          <g id="Group_557" data-name="Group 557">
            <g id="Group_556" data-name="Group 556">
              <g id="Group_555" data-name="Group 555">
                <path id="Path_267" data-name="Path 267" d="M391.156,622.9l-.9,1.237a.55.55,0,0,1-.486.225.538.538,0,0,1-.281-.1.547.547,0,0,1-.12-.763l.779-1.069C390.477,622.579,390.811,622.739,391.156,622.9Z" transform="translate(-389.26 -622.43)" fill="#553e37"/>
              </g>
            </g>
          </g>
        </g>
        <g id="Group_559" data-name="Group 559" transform="translate(17.256 203.034)">
          <path id="Path_268" data-name="Path 268" d="M387.412,646.16h.016l-.028.016S387.408,646.164,387.412,646.16Z" transform="translate(-387.4 -646.16)" fill="#f84558"/>
        </g>
        <g id="Group_560" data-name="Group 560" transform="translate(10.161 191.596)">
          <path id="Path_269" data-name="Path 269" d="M378.973,625.533a6.925,6.925,0,0,1-.647,1.945c-.129,0-.265-.008-.4-.016a.3.3,0,0,0,.028-.048,6.422,6.422,0,0,0,.675-1.937,2.676,2.676,0,0,0-.358-1.965,2.707,2.707,0,0,0-.727-.707l-.848-.595c-2.278-1.555-4.612-3.029-6.955-4.488l.024-.032c1.2.679,2.395,1.374,3.584,2.073s2.354,1.45,3.512,2.206l.864.579a2.979,2.979,0,0,1,.828.779A3.04,3.04,0,0,1,378.973,625.533Z" transform="translate(-369.74 -617.69)" fill="#553e37"/>
        </g>
        <g id="Group_581" data-name="Group 581" transform="translate(42.685 187.879)">
          <g id="Group_563" data-name="Group 563" transform="translate(0 9.974)">
            <g id="Group_562" data-name="Group 562">
              <g id="Group_561" data-name="Group 561">
                <path id="Path_270" data-name="Path 270" d="M450.794,635.794l-.1,1.3s23.038,1.378,25.244,1.117,4.58-2.7,4.685-4-1.655-.888-1.655-.888Z" transform="translate(-450.69 -633.264)" fill="#172949"/>
              </g>
            </g>
          </g>
          <g id="Group_566" data-name="Group 566" transform="translate(0.968)">
            <g id="Group_565" data-name="Group 565">
              <g id="Group_564" data-name="Group 564">
                <path id="Path_271" data-name="Path 271" d="M481.229,618.862a5.541,5.541,0,0,1-3.749,3.2,61.767,61.767,0,0,1-6.605-.117c-.129,0-.265-.008-.4-.016-1.772-.076-3.716-.169-5.649-.269-2.061-.1-4.1-.213-5.886-.317-3.371-.185-5.838-.333-5.838-.333a60.046,60.046,0,0,1,1.334-5.962c.277-1.085.554-2.129.775-2.965.285-1.073.482-1.788.482-1.788a13.949,13.949,0,0,1,6.842,1.848c-.3-1.772,2.913-3.7,2.913-3.7s.627,3.106,1.462,3.608c.04.024.117.064.217.121.217.112.558.281,1,.494.269.128.579.281.916.442.309.149.647.309,1,.478.313.149.635.305.976.466.325.153.659.317,1.009.478.591.277,1.2.57,1.812.856,1.828.86,3.676,1.732,5.066,2.383S481.229,618.862,481.229,618.862Z" transform="translate(-453.1 -608.44)" fill="#feaf30"/>
              </g>
            </g>
          </g>
          <g id="Group_570" data-name="Group 570" transform="translate(13.914 3.737)">
            <g id="Group_569" data-name="Group 569">
              <g id="Group_568" data-name="Group 568">
                <g id="Group_567" data-name="Group 567">
                  <path id="Path_272" data-name="Path 272" d="M487.4,618.23l-1.089,1.495a.548.548,0,0,1-.888-.643l.98-1.342C486.622,617.848,486.963,618.017,487.4,618.23Z" transform="translate(-485.32 -617.74)" fill="#553e37"/>
                </g>
              </g>
            </g>
          </g>
          <g id="Group_574" data-name="Group 574" transform="translate(15.862 4.673)">
            <g id="Group_573" data-name="Group 573">
              <g id="Group_572" data-name="Group 572">
                <g id="Group_571" data-name="Group 571">
                  <path id="Path_273" data-name="Path 273" d="M492.227,620.548l-1.065,1.458a.55.55,0,0,1-.486.225.525.525,0,0,1-.281-.1.546.546,0,0,1-.121-.763l.944-1.294Z" transform="translate(-490.17 -620.07)" fill="#553e37"/>
                </g>
              </g>
            </g>
          </g>
          <g id="Group_578" data-name="Group 578" transform="translate(18.004 5.621)">
            <g id="Group_577" data-name="Group 577">
              <g id="Group_576" data-name="Group 576">
                <g id="Group_575" data-name="Group 575">
                  <path id="Path_274" data-name="Path 274" d="M497.4,622.9l-.9,1.237a.548.548,0,0,1-.888-.643l.779-1.069C496.713,622.579,497.051,622.739,497.4,622.9Z" transform="translate(-495.5 -622.43)" fill="#553e37"/>
                </g>
              </g>
            </g>
          </g>
          <g id="Group_579" data-name="Group 579" transform="translate(17.256 15.155)">
            <path id="Path_275" data-name="Path 275" d="M493.652,646.16h.016l-.028.016S493.648,646.164,493.652,646.16Z" transform="translate(-493.64 -646.16)" fill="#f84558"/>
          </g>
          <g id="Group_580" data-name="Group 580" transform="translate(10.161 3.716)">
            <path id="Path_276" data-name="Path 276" d="M485.213,625.533a6.926,6.926,0,0,1-.647,1.945c-.129,0-.265-.008-.4-.016a.3.3,0,0,0,.028-.048,6.421,6.421,0,0,0,.675-1.937,2.676,2.676,0,0,0-.358-1.965,2.707,2.707,0,0,0-.727-.707l-.848-.595c-2.278-1.555-4.612-3.029-6.955-4.488l.024-.032c1.2.679,2.395,1.374,3.584,2.073s2.354,1.45,3.512,2.206l.864.579a2.979,2.979,0,0,1,.828.779A3.04,3.04,0,0,1,485.213,625.533Z" transform="translate(-475.98 -617.69)" fill="#553e37"/>
          </g>
        </g>
        <g id="Group_583" data-name="Group 583" transform="translate(12.439 138.143)">
          <g id="Group_582" data-name="Group 582">
            <path id="Path_277" data-name="Path 277" d="M390.2,485.566c-.024.092-.048.181-.072.273-.229.868-.474,1.784-.735,2.736L375.41,487.1a19.251,19.251,0,0,0,.8-2.455Z" transform="translate(-375.41 -484.65)" fill="#382a28"/>
          </g>
        </g>
        <g id="Group_585" data-name="Group 585" transform="translate(44.839 140.236)">
          <g id="Group_584" data-name="Group 584">
            <path id="Path_278" data-name="Path 278" d="M470.823,489.86c0,.8,0,1.583-.016,2.37H456.05c.04-.683.076-1.45.092-2.37Z" transform="translate(-456.05 -489.86)" fill="#382a28"/>
          </g>
        </g>
        <g id="Group_587" data-name="Group 587" transform="translate(11.447 142.53)">
          <g id="Group_586" data-name="Group 586">
            <path id="Path_279" data-name="Path 279" d="M387.324,497.229c-.068.253-.137.51-.213.767l-14.171-1.663c.092-.269.181-.522.269-.763Z" transform="translate(-372.94 -495.57)" fill="#382a28"/>
          </g>
        </g>
        <g id="Group_589" data-name="Group 589" transform="translate(44.598 144.507)">
          <g id="Group_588" data-name="Group 588">
            <path id="Path_280" data-name="Path 280" d="M470.428,500.49c0,.265-.008.53-.016.791l-14.962.161c.024-.269.052-.53.076-.792Z" transform="translate(-455.45 -500.49)" fill="#382a28"/>
          </g>
        </g>
      </g>
    </g>
  </g>
</svg>
