<svg xmlns="http://www.w3.org/2000/svg" xmlns:xlink="http://www.w3.org/1999/xlink" width="252" height="210"><style><![CDATA[.B{fill:#fff}.C{fill:#acacac}.D{stroke-width:.1}.E{fill:#3b1e13}.F{fill:#553e37}.G{fill:#b8432a}.H{opacity:.3}.I{fill:#da5724}.J{fill:#372a28}.K{stroke:#3b1e13}.L{fill:#382a28}.M{fill:#feaf30}.N{stroke:#acacac}.O{stroke:#707070}]]></style><defs><clipPath id="A"><path d="M0 0h37.772v61.316H0z" class="C"/></clipPath><clipPath id="B"><path d="M0 0h31.561v39.784H0z" class="C"/></clipPath><clipPath id="C"><path d="M0 0h26.155v46.39H0z" class="C"/></clipPath><clipPath id="D"><path d="M0 0h39.301v32.603H0z" class="C"/></clipPath><clipPath id="E"><path d="M0 0h42.017v66.575H0z" class="C"/></clipPath><clipPath id="F"><path fill="none" d="M0 0h3.47v2.707H0z" class="D K"/></clipPath><clipPath id="G"><path fill="none" d="M0 0h3.349v2.761H0z" class="D K"/></clipPath><path id="H" d="M191.163 62.031c.006 1.37-.814 2.609-2.078 3.138s-2.722.243-3.693-.723-1.264-2.423-.741-3.69 1.758-2.093 3.128-2.093c.895-.002 1.755.352 2.39.983s.992 1.489.994 2.385"/><path id="I" d="M89.664 153.691h-4.958a.95.95 0 0 1-.948-.948v-.451c0-.252.1-.493.277-.671s.419-.278.671-.277h4.958c.252 0 .493.1.671.277s.278.419.277.671v.451a.95.95 0 0 1-.948.948"/><path id="J" d="M128.062 153.691h-4.957a.95.95 0 0 1-.948-.948v-.451c0-.252.1-.493.277-.671s.419-.278.671-.277h4.957c.252 0 .493.1.671.277s.278.419.277.671v.451a.95.95 0 0 1-.948.948"/></defs><path fill="transparent" d="M0 0h252v210H0z"/><path d="M123.712 162.922c-10.135 3.623-21 7.506-30 9.377-11.378 2.367-33.12 6.89-53.149-6.436a67.53 67.53 0 0 1-27.37-39.808C4.609 91.234 25.931 62.736 27.515 60.689c12.573-16.253 28.407-21.126 35.724-23.26 39.012-11.374 52.545 18.279 108.605 19.215 23.505.392 33.424-5.158 45.113 4.5 13.663 11.294 21.792 36.477 15.754 57.919-.916 3.251-4.329 14.827-14.242 23.351-19.784 17.013-39.19-.712-75.268 12.963-4.4 1.669-9.152 3.843-19.493 7.539" class="F"/><g clip-path="url(#A)" transform="translate(0 85.654)" class="C H"><path d="M32.682 61.315c-.933-1.522-22.824-37.4-20.139-49.036l.734.169c-2.616 11.337 19.82 48.1 20.047 48.473z"/><path d="M27.371 17.77a6.62 6.62 0 0 1-2.007 3.89c-3.434 3.495-9.992 4.916-9.992 4.916 1.715-3.728 4.241-7.027 7.393-9.655 2.749-2.16 4.977-2.436 4.606.848m-8.687 16.859l.428.061q-.164.158-.332.313a28.97 28.97 0 0 1-8.23 5.27c-4.372 1.816-7.72 1.652-5.846-1.8a6.93 6.93 0 0 1 3.713-3.049c3.773-1.493 8.791-.991 10.271-.8m3.323 7.733a28.86 28.86 0 0 1-7.521 5.123c-4.858 2.282-8.906 2.382-6.886-1.341a7.24 7.24 0 0 1 4.269-3.25c4.416-1.483 10.138-.532 10.138-.532m4.09 6.586a28.83 28.83 0 0 1-7.244 4.991c-4.98 2.409-9.222 2.585-7.164-1.208a7.14 7.14 0 0 1 4.094-3.19c4.438-1.568 10.314-.592 10.314-.592"/><path d="M15.235 26.852a28.87 28.87 0 0 1-8.02 5.35c-4.631 2.057-8.338 2.026-6.388-1.568a7.59 7.59 0 0 1 4.876-3.437 25.62 25.62 0 0 1 9.532-.345m15.241-.584c-.172 1.3-.741 2.516-1.629 3.481-2.895 3.324-8.68 4.912-10.067 5.253l-.3.071q.1-.223.207-.446c1.856-3.916 4.65-7.313 8.133-9.891 2.292-1.494 3.986-1.367 3.659 1.53m3.871 7.131a7.24 7.24 0 0 1-2.912 4.71c-3.563 2.9-9.087 4.1-9.087 4.1 1.725-3.751 4.272-7.067 7.453-9.7 2.722-2.117 4.914-2.365 4.546.9m3.382 6.206c-.3 2.622-2.387 4.578-4.742 5.973-2.274 1.28-4.717 2.234-7.257 2.833 1.491-3.213 3.571-6.118 6.132-8.565 3.286-3.087 6.293-4.016 5.867-.241m-15.751-29.34a6.18 6.18 0 0 1-1.389 3.265c-2.588 3.245-7.813 4.566-7.813 4.566a25.16 25.16 0 0 1 5.187-8.105c2.328-2.337 4.33-2.865 4.015.275m-5.3-8.065a16.93 16.93 0 0 1-1.091 5 25.77 25.77 0 0 1-2.768 5.539s-2.046-5.1-.724-9.09a6.17 6.17 0 0 1 1.82-2.785l.083-.071c1.9-1.593 2.726-.676 2.681 1.4M12.67 17.389c-2.446 1.874-5.206 3.299-8.151 4.206-3.491 1.019-5.779.532-3.767-2.147a6.46 6.46 0 0 1 3.222-2.224c3.851-1.276 8.7.166 8.7.166m3.114 32.143l3.07 4.4c-4.98 2.409-9.222 2.585-7.164-1.209a7.14 7.14 0 0 1 4.094-3.19"/><path d="M11.873 42.893l2.617 4.591c-4.858 2.282-8.906 2.382-6.886-1.341.954-1.59 2.482-2.754 4.269-3.25m-3.457-7.468l2.137 4.848c-4.372 1.816-7.72 1.652-5.846-1.8a6.93 6.93 0 0 1 3.709-3.046m-2.713-8.231l1.512 5.005c-4.631 2.057-8.338 2.027-6.388-1.568a7.59 7.59 0 0 1 4.876-3.437m-1.729-9.973q.191 2.223.545 4.372c-3.491 1.019-5.779.532-3.767-2.147a6.46 6.46 0 0 1 3.222-2.225m27.887 22.631c3.286-3.087 6.293-4.016 5.867-.241-.3 2.622-2.387 4.578-4.742 5.973l-1.125-5.732m-2.057-7.352c2.721-2.117 4.914-2.365 4.546.9a7.24 7.24 0 0 1-2.909 4.709l-1.634-5.605m-2.99-7.769c2.292-1.494 3.986-1.366 3.659 1.531-.172 1.301-.741 2.517-1.629 3.482l-2.03-5.012m-4.051-7.817c2.749-2.16 4.977-2.436 4.606.848a6.62 6.62 0 0 1-2.007 3.89l-2.6-4.739m-.784-6.647a6.18 6.18 0 0 1-1.389 3.265q-1.233-1.794-2.625-3.539c2.328-2.337 4.33-2.865 4.015.275"/></g><g clip-path="url(#B)" transform="translate(51.663 28.304)" class="C H"><path d="M31.19 39.643c-.965-.88-23.651-21.64-24.132-30.363l.55-.03c.468 8.5 23.718 29.772 23.953 29.986z"/><path d="M18.597 10.123a4.84 4.84 0 0 1-.619 3.142c-1.7 3.155-6.022 5.488-6.022 5.488a20.19 20.19 0 0 1 3.231-8.29c1.492-2.077 3-2.724 3.409-.341m-2.673 13.615l.313-.044q-.083.144-.169.287a21.2 21.2 0 0 1-4.711 5.379c-2.7 2.166-5.089 2.732-4.475-.076.295-1.172 1-2.201 1.986-2.9 2.348-1.817 5.977-2.485 7.056-2.65m3.909 4.758a21.11 21.11 0 0 1-4.243 5.131c-2.95 2.593-5.774 3.486-5.112.459a5.3 5.3 0 0 1 2.339-3.153c2.146-1.288 4.535-2.118 7.017-2.437m4.212 3.796a21.1 21.1 0 0 1-4.075 4.982c-3.009 2.706-5.955 3.693-5.28.608.331-1.268 1.126-2.366 2.228-3.075 2.17-1.335 4.6-2.193 7.128-2.515"/><path d="M11.915 18.974c-1.203 2.039-2.74 3.862-4.547 5.392-2.836 2.388-5.448 3.12-4.808.2a5.55 5.55 0 0 1 2.727-3.408 18.74 18.74 0 0 1 6.628-2.182m10.593-3.514a4.66 4.66 0 0 1-.436 2.778c-1.358 2.925-5.1 5.218-6.005 5.74l-.2.112q.025-.178.055-.356a19.27 19.27 0 0 1 3.7-8.606c1.306-1.516 2.523-1.772 2.883.331m4.175 4.223a5.3 5.3 0 0 1-1.088 3.9 18.47 18.47 0 0 1-5.553 4.728 20.14 20.14 0 0 1 3.264-8.334c1.482-2.042 2.972-2.662 3.377-.3m3.643 3.686c.326 1.9-.746 3.7-2.117 5.162a20.37 20.37 0 0 1-4.523 3.468c.394-2.561 1.265-5.026 2.567-7.267 1.681-2.839 3.605-4.1 4.074-1.364M13.282 5.953a4.53 4.53 0 0 1-.312 2.577c-1.158 2.807-4.561 4.8-4.561 4.8a18.41 18.41 0 0 1 2-6.752c1.161-2.116 2.46-2.895 2.877-.624M7.918 1.361c.273 1.226.358 2.487.252 3.739a18.86 18.86 0 0 1-.818 4.456S4.876 6.387 4.993 3.315A4.52 4.52 0 0 1 5.705.988l.044-.066c1.008-1.505 1.778-1.03 2.169.44m.269 11.484a19 19 0 0 1-4.872 4.614c-2.246 1.426-3.953 1.55-3.084-.743.36-.909.993-1.685 1.812-2.219a12.41 12.41 0 0 1 6.145-1.652m8.732 21.956l3.053 2.467c-3.01 2.706-5.955 3.693-5.28.608.331-1.268 1.126-2.366 2.228-3.075"/><path d="M12.816 30.927l2.773 2.694c-2.95 2.593-5.774 3.486-5.112.459a5.3 5.3 0 0 1 2.339-3.153m-3.949-4.54l2.489 2.972c-2.7 2.166-5.089 2.732-4.475-.076a5.07 5.07 0 0 1 1.986-2.9m-3.58-5.227l2.081 3.21c-2.836 2.388-5.448 3.121-4.808.2a5.55 5.55 0 0 1 2.727-3.408m-3.244-6.66q.586 1.523 1.272 2.962c-2.246 1.426-3.953 1.55-3.084-.743.36-.909.993-1.685 1.812-2.219m24.206 10.226c1.681-2.839 3.605-4.1 4.074-1.363.326 1.9-.746 3.7-2.117 5.163l-1.957-3.8m-2.945-4.744c1.482-2.042 2.972-2.662 3.377-.3a5.3 5.3 0 0 1-1.088 3.9l-2.289-3.607m-3.677-4.842c1.306-1.516 2.523-1.772 2.883.331a4.66 4.66 0 0 1-.436 2.778l-2.447-3.109m-4.44-4.668c1.492-2.078 3-2.724 3.409-.341a4.84 4.84 0 0 1-.619 3.142l-2.79-2.8m-1.905-4.511a4.53 4.53 0 0 1-.312 2.577q-1.232-1.01-2.565-1.953c1.161-2.116 2.46-2.895 2.877-.624"/></g><g clip-path="url(#C)" transform="translate(68.685 18)" class="C H"><path d="M19.492 46.396c-.471-1.218-11.488-29.928-8.02-37.947l.506.219c-3.379 7.813 7.914 37.233 8.028 37.529z"/><path d="M21.419 14.354c-.346 1.043-1.037 1.936-1.958 2.535-2.933 2.062-7.839 2.219-7.839 2.219a20.18 20.18 0 0 1 6.595-5.972c2.263-1.192 3.9-1.1 3.2 1.218m-8.474 10.984l.3.1q-.139.092-.28.181a21.19 21.19 0 0 1-6.618 2.706c-3.386.73-5.774.17-3.969-2.068a5.07 5.07 0 0 1 3.071-1.7c2.913-.576 6.458.447 7.5.782m1.367 6.002c-1.874 1.214-3.93 2.124-6.089 2.694-3.8 1-6.724.539-4.779-1.874a5.3 5.3 0 0 1 3.5-1.776 18.12 18.12 0 0 1 7.366.956m2.079 5.277a21.1 21.1 0 0 1-5.872 2.635c-3.9 1.076-6.978.643-5-1.816.863-.986 2.064-1.613 3.367-1.755 2.538-.225 5.095.094 7.5.935"/><path d="M11.487 19.287a21.13 21.13 0 0 1-6.477 2.792c-3.6.869-6.268.358-4.39-1.972a5.55 5.55 0 0 1 3.962-1.83 18.75 18.75 0 0 1 6.9 1.01m11.05 1.592a4.66 4.66 0 0 1-1.632 2.29c-2.522 2.01-6.9 2.389-7.938 2.452l-.228.011q.1-.148.208-.294a19.26 19.26 0 0 1 7.158-6.044c1.846-.772 3.049-.458 2.431 1.584m1.847 5.646a5.3 5.3 0 0 1-2.717 3 18.47 18.47 0 0 1-7.08 1.748 20.13 20.13 0 0 1 6.644-6c2.238-1.164 3.848-1.053 3.153 1.244m1.614 4.925c-.559 1.848-2.322 2.98-4.2 3.672a20.38 20.38 0 0 1-5.6 1.081 20.75 20.75 0 0 1 5.544-5.354c2.773-1.788 5.059-2.06 4.254.6"/><path d="M18.529 8.247a4.53 4.53 0 0 1-1.431 2.166c-2.291 1.994-6.225 2.255-6.225 2.255a18.41 18.41 0 0 1 4.8-5.148c1.984-1.374 3.494-1.49 2.853.728M15.78 1.744a12.39 12.39 0 0 1-1.446 3.458 18.85 18.85 0 0 1-2.723 3.621s-.8-3.942.679-6.637A4.52 4.52 0 0 1 13.967.422l.069-.04c1.575-.9 2.051-.127 1.744 1.363m-4.891 10.394c-2.008 1.026-4.182 1.687-6.421 1.951-2.647.272-4.229-.38-2.427-2.042a4.73 4.73 0 0 1 2.612-1.175 12.41 12.41 0 0 1 6.236 1.267M8.89 35.683l1.628 3.571c-3.9 1.076-6.978.643-5-1.815.863-.987 2.064-1.613 3.367-1.755"/><path d="M6.95 30.383l1.277 3.65c-3.8 1-6.724.538-4.778-1.874a5.3 5.3 0 0 1 3.5-1.776m-1.503-5.827l.9 3.771c-3.386.73-5.774.17-3.969-2.068.789-.914 1.878-1.517 3.071-1.7m-.866-6.282l.427 3.8c-3.6.869-6.268.357-4.39-1.972a5.55 5.55 0 0 1 3.962-1.83m.073-7.404q-.156 1.625-.185 3.218c-2.647.272-4.229-.38-2.427-2.043.728-.653 1.641-1.064 2.612-1.176m17.084 19.97c2.773-1.788 5.059-2.06 4.254.6-.559 1.848-2.322 2.98-4.2 3.672l-.053-4.273m-.514-5.563c2.238-1.164 3.849-1.053 3.153 1.244a5.3 5.3 0 0 1-2.717 3l-.436-4.249m-1.124-5.977c1.846-.772 3.049-.457 2.431 1.584a4.66 4.66 0 0 1-1.632 2.29l-.8-3.875m-1.883-6.154c2.264-1.192 3.9-1.1 3.2 1.218a4.84 4.84 0 0 1-1.958 2.535l-1.245-3.753m.315-4.892a4.53 4.53 0 0 1-1.431 2.166q-.651-1.453-1.422-2.894c1.984-1.374 3.494-1.49 2.853.728"/></g><g clip-path="url(#D)" transform="translate(83.052 34.989)" class="C H"><path d="M.928 32.253c.83-1.008 20.424-24.708 29.112-25.627l.058.548c-8.465.895-28.543 25.184-28.745 25.429z"/><path d="M29.78 18.192a4.84 4.84 0 0 1-3.169-.46c-3.236-1.542-5.784-5.738-5.784-5.738a20.18 20.18 0 0 1 8.441 2.811c2.15 1.386 2.872 2.861.512 3.388m-13.732-1.988l.06.311q-.148-.076-.3-.155a21.2 21.2 0 0 1-5.609-4.435c-2.3-2.591-2.984-4.946-.149-4.473 1.184.237 2.245.889 2.992 1.839 1.933 2.254 2.783 5.844 3 6.914m-4.546 4.143a21.11 21.11 0 0 1-5.338-3.98c-2.737-2.816-3.772-5.592-.715-5.083a5.3 5.3 0 0 1 3.267 2.178 18.12 18.12 0 0 1 2.786 6.885M7.917 24.75a21.1 21.1 0 0 1-5.18-3.82c-2.854-2.87-3.988-5.762-.873-5.243a5.23 5.23 0 0 1 3.183 2.071c1.443 2.1 2.421 4.484 2.87 6.992"/><path d="M20.601 11.964a21.13 21.13 0 0 1-5.614-4.271c-2.527-2.712-3.391-5.284-.439-4.792a5.55 5.55 0 0 1 3.541 2.552c1.237 1.994 2.089 4.202 2.512 6.51m4.042 10.404c-.942.191-1.92.086-2.8-.3-2.99-1.209-5.468-4.832-6.035-5.71l-.122-.193.358.037a19.27 19.27 0 0 1 8.781 3.266c1.58 1.229 1.9 2.431-.186 2.9m-4.003 4.382a5.3 5.3 0 0 1-3.952-.891 18.47 18.47 0 0 1-5-5.308 20.14 20.14 0 0 1 8.488 2.841c2.114 1.377 2.808 2.835.465 3.358m-3.494 3.82c-1.884.421-3.736-.559-5.262-1.855a20.36 20.36 0 0 1-3.691-4.343 20.74 20.74 0 0 1 7.387 2.2c2.919 1.537 4.279 3.395 1.566 4"/><path d="M33.679 12.676a4.53 4.53 0 0 1-2.589-.182c-2.862-1.016-5.022-4.315-5.022-4.315 2.366.106 4.69.668 6.843 1.654 2.171 1.053 3.015 2.311.768 2.842m4.313-5.589a12.38 12.38 0 0 1-3.722.439 18.85 18.85 0 0 1-4.491-.593S32.82 4.3 35.893 4.263c.826-.022 1.642.184 2.36.594l.069.041c1.554.931 1.118 1.724-.33 2.188m-11.456.846a19.01 19.01 0 0 1-4.853-4.634C20.145 1.126 19.936-.573 22.27.18c.926.314 1.733.908 2.307 1.7a12.41 12.41 0 0 1 1.959 6.054M5.047 17.757l-2.31 3.173c-2.854-2.87-3.988-5.762-.873-5.243 1.283.267 2.419 1.005 3.183 2.07"/><path d="M8.71 13.464l-2.551 2.905c-2.737-2.816-3.772-5.592-.715-5.083a5.3 5.3 0 0 1 3.267 2.178m4.336-4.172l-2.843 2.635c-2.3-2.591-2.984-4.945-.149-4.473 1.184.237 2.245.889 2.992 1.839m5.044-3.84l-3.1 2.24c-2.527-2.712-3.391-5.284-.439-4.792a5.55 5.55 0 0 1 3.541 2.552m6.484-3.571q-1.492.662-2.894 1.42c-1.538-2.172-1.746-3.87.587-3.117.926.314 1.733.908 2.307 1.7m-9 24.683c2.919 1.537 4.279 3.395 1.566 4-1.884.421-3.736-.558-5.262-1.855l3.7-2.145m4.59-3.179c2.113 1.378 2.808 2.835.465 3.358a5.3 5.3 0 0 1-3.952-.89l3.487-2.467m4.658-3.919c1.58 1.229 1.9 2.431-.186 2.9-.942.191-1.92.086-2.8-.3l2.982-2.6m4.444-4.667c2.15 1.386 2.872 2.861.512 3.388-1.078.211-2.196.048-3.17-.46l2.658-2.928m4.41-2.129a4.53 4.53 0 0 1-2.589-.182q.946-1.281 1.822-2.66c2.172 1.053 3.015 2.311.768 2.842"/></g><path d="M42.372 70.996l2.606.382a15.41 15.41 0 0 0-.723-6.637l-2.88.953-2.856-5.467 1.953-2.117a18.35 18.35 0 0 0-4.528-3.8l-1.516 2.991-1.438-.257a15.5 15.5 0 0 0-5.216-1.426l-.285-3.819a18.06 18.06 0 0 0-6.176.813l1.2 3.439a15.42 15.42 0 0 0-5.943 3.056l-2.654-2.111a19.5 19.5 0 0 0-3.622 4.712l2.5 2.059a15.49 15.49 0 0 0-1.719 5.994l-3.211.392a19.63 19.63 0 0 0 .725 6.6l3.255-.908a15.44 15.44 0 0 0 3.56 5.8l-2.177 3.149c1.348 1.393 2.909 2.562 4.625 3.463l1.681-3.584.042.006a15.49 15.49 0 0 0 6.678 1.595l.427 4.041a18.09 18.09 0 0 0 5.13-.875l-.664-3.828.444-.243c1.511-.544 2.928-1.32 4.2-2.3l1.338-.735 2.223 2.486a19.55 19.55 0 0 0 4.077-5.94l-2.475-1.595 1.428-6.286m-6.569.483a9.31 9.31 0 1 1-6.239-9.47c3.983 1.381 6.543 5.265 6.239 9.47m14.314 31.116l1.872.274c.177-1.608 0-3.235-.519-4.767l-2.069.684-2.051-3.926 1.4-1.521a13.18 13.18 0 0 0-3.252-2.73l-1.089 2.148-1.033-.185a11.15 11.15 0 0 0-3.746-1.024l-.2-2.743a12.97 12.97 0 0 0-4.436.584l.859 2.47c-1.567.412-3.024 1.163-4.269 2.2l-1.906-1.516c-1.035.989-1.911 2.13-2.6 3.385l1.795 1.479a11.13 11.13 0 0 0-1.234 4.3l-2.306.281a14.1 14.1 0 0 0 .521 4.742l2.338-.652a11.09 11.09 0 0 0 2.556 4.167l-1.564 2.262c.968 1 2.089 1.84 3.322 2.487l1.207-2.574h.03a11.13 11.13 0 0 0 4.8 1.145l.307 2.9c1.252-.031 2.493-.243 3.684-.629l-.477-2.749.319-.175a11.08 11.08 0 0 0 3.014-1.654l.961-.528 1.6 1.786a14.03 14.03 0 0 0 2.928-4.266l-1.778-1.146 1.026-4.515m-4.718.347c-.206 2.856-2.209 5.264-4.98 5.987s-5.695-.399-7.271-2.79-1.454-5.521.304-7.782 4.76-3.152 7.466-2.215a6.69 6.69 0 0 1 4.481 6.8" class="C"/><path d="M208.305 62.743v90.352c-.013 5.265-4.291 9.523-9.556 9.511H50.615c-5.265.012-9.543-4.246-9.556-9.511V62.743c.013-5.265 4.291-9.523 9.556-9.511h148.134c5.265-.012 9.543 4.246 9.556 9.511" fill="#e5e5e4"/><path d="M208.305 62.743v7.479H41.059v-7.479c.013-5.265 4.291-9.523 9.556-9.511h148.134c5.265-.012 9.543 4.246 9.556 9.511" class="G"/><g class="B"><use xlink:href="#H"/><use xlink:href="#H" x="-13.076"/><path d="M194.179 93.191h-25.662a7.11 7.11 0 0 1-7.107-7.107v-3.379a7.11 7.11 0 0 1 7.107-7.107h25.661a7.11 7.11 0 0 1 7.107 7.107v3.379a7.11 7.11 0 0 1-7.107 7.107m2.026 23.36h-29.712a5.58 5.58 0 0 1-5.571-5.571v-7.43a5.58 5.58 0 0 1 5.571-5.571h29.712a5.58 5.58 0 0 1 5.571 5.571v7.43a5.58 5.58 0 0 1-5.571 5.571m-29.712-17.593a4.6 4.6 0 0 0-4.592 4.592v7.43a4.6 4.6 0 0 0 4.592 4.592h29.712a4.6 4.6 0 0 0 4.592-4.592v-7.43a4.6 4.6 0 0 0-4.592-4.592zm29.251 41.637h-28.792a6.04 6.04 0 0 1-6.03-6.03v-6.517a6.04 6.04 0 0 1 6.03-6.03h28.792a6.04 6.04 0 0 1 6.029 6.03v6.513a6.04 6.04 0 0 1-6.029 6.03m-28.795-17.593c-2.788.003-5.047 2.262-5.05 5.05v6.513c.003 2.788 2.262 5.047 5.05 5.05h28.795c2.788-.003 5.047-2.262 5.05-5.05v-6.513c-.003-2.788-2.262-5.047-5.05-5.05zM66.329 153.691H55.465a.95.95 0 0 1-.948-.948v-.451a.95.95 0 0 1 .277-.671.94.94 0 0 1 .671-.277h10.864a.95.95 0 0 1 .671.277.94.94 0 0 1 .277.671v.451a.95.95 0 0 1-.948.948m14.887-.065H70.352c-.251 0-.492-.099-.67-.277a.95.95 0 0 1-.278-.67v-.451a.95.95 0 0 1 .277-.671.94.94 0 0 1 .671-.277h10.865a.95.95 0 0 1 .948.948v.451a.95.95 0 0 1-.948.947"/><use xlink:href="#I"/><path d="M104.727 153.691H93.863a.95.95 0 0 1-.671-.277.94.94 0 0 1-.277-.671v-.451a.95.95 0 0 1 .277-.671.94.94 0 0 1 .671-.277h10.865a.95.95 0 0 1 .671.277.94.94 0 0 1 .277.671v.451a.95.95 0 0 1-.948.948m14.886-.065h-10.865c-.251 0-.492-.099-.67-.277a.95.95 0 0 1-.278-.67v-.451a.95.95 0 0 1 .277-.671.94.94 0 0 1 .671-.277h10.865a.95.95 0 0 1 .671.277.94.94 0 0 1 .277.671v.451a.95.95 0 0 1-.278.67c-.178.178-.419.277-.67.277"/><use xlink:href="#J"/><path d="M142.958 153.691h-10.864a.95.95 0 0 1-.671-.277.94.94 0 0 1-.277-.671v-.451a.95.95 0 0 1 .277-.671.94.94 0 0 1 .671-.277h10.865a.95.95 0 0 1 .671.277.94.94 0 0 1 .277.671v.451a.95.95 0 0 1-.948.948m14.885-.065H146.98c-.251 0-.492-.099-.67-.277a.95.95 0 0 1-.278-.67v-.451a.95.95 0 0 1 .277-.671.94.94 0 0 1 .671-.277h10.865a.95.95 0 0 1 .948.948v.451a.95.95 0 0 1-.948.947"/><use xlink:href="#J" x="38.23"/><path d="M181.356 153.691h-10.865a.95.95 0 0 1-.948-.948v-.451a.95.95 0 0 1 .277-.671.94.94 0 0 1 .671-.277h10.865a.95.95 0 0 1 .671.277.94.94 0 0 1 .277.671v.451a.95.95 0 0 1-.948.948m14.886-.065h-10.865c-.251 0-.492-.099-.67-.277a.95.95 0 0 1-.278-.67v-.451a.95.95 0 0 1 .277-.671.94.94 0 0 1 .671-.277h10.865a.95.95 0 0 1 .948.948v.451a.95.95 0 0 1-.278.67c-.178.178-.419.277-.67.277"/><use xlink:href="#I" x="115.026"/><rect width="50.587" height="64.027" rx="8" x="102.688" y="75.734"/></g><rect width="48.72" height="64.027" rx="8" x="49.925" y="75.734" class="L"/><path d="M50.481 112.655v20.141a7.31 7.31 0 0 0 7.309 7.309h88.239a7.31 7.31 0 0 0 7.309-7.309v-18.478c-12.039-4.975-21.262-5.415-27.525-4.872-17.922 1.557-25.343 12.366-40.563 10.22-6.368-.9-6.563-3-17.384-5.11-5.471-1.066-12.022-2.344-17.384-1.9" fill="#e5e5e4"/><path d="M117.726 93.191a11.35 11.35 0 0 0 11.346 11.346 11.35 11.35 0 0 0 11.346-11.346 11.35 11.35 0 0 0-11.346-11.346c-3.009 0-5.895 1.195-8.023 3.323s-3.323 5.014-3.323 8.023" class="M"/><path d="M74.96 104.537a11.3 11.3 0 0 1-6.346-1.938 11.38 11.38 0 0 1-4.108-4.992c-1.565-3.699-1.055-7.95 1.34-11.175a11.37 11.37 0 0 1 5.668-4.055c-1.721.976-3.159 2.383-4.172 4.082-2.247 3.773-2.112 8.503.346 12.142a11.38 11.38 0 0 0 4.992 4.111 11.4 11.4 0 0 0 7.862.359c-1.702.964-3.626 1.469-5.582 1.466z" stroke="rgba(0,0,0,0)" class="G"/><path d="M50.481 125.36v8.384a6.36 6.36 0 0 0 6.361 6.361h90.071a6.36 6.36 0 0 0 6.361-6.361v-10.021c-5.362-.443-11.913.835-17.384 1.9-10.822 2.11-11.016 4.212-17.384 5.11-15.221 2.146-22.642-8.663-40.564-10.22-6.252-.543-15.454-.1-27.461 4.845" class="C"/><path d="M164.208 79.108h34.507v.979h-34.507zm-.001 4.748h34.559v.979h-34.559zm0 4.655h34.559v.979h-34.559z" fill="#4a3732"/><path d="M224.79 83.149h-10.3a3.1 3.1 0 0 1-3.088-3.088v-8.927a3.1 3.1 0 0 1 3.088-3.088h10.3a3.1 3.1 0 0 1 3.088 3.088v8.927a3.1 3.1 0 0 1-3.088 3.088" class="B"/><path d="M219.629 70.36c.713-.063 1.416.198 1.916.711a2.85 2.85 0 0 1 .606 1.912 3.25 3.25 0 0 1-.17 1.1 4.59 4.59 0 0 1-.412.867 5.09 5.09 0 0 1-.542.726 7.64 7.64 0 0 0-.542.674 4 4 0 0 0-.412.734 2.2 2.2 0 0 0-.17.882 2.14 2.14 0 0 0 .081.563h-1.132l-.057-.274a1.87 1.87 0 0 1-.024-.319c-.006-.337.046-.673.154-.993.099-.278.234-.542.4-.785q.242-.356.509-.682.267-.326.509-.689c.167-.251.302-.523.4-.808.109-.34.161-.695.153-1.052.022-.395-.083-.788-.3-1.119a1.41 1.41 0 0 0-1.989.007 1.86 1.86 0 0 0-.3 1.111v.919h-1.181V73a3.7 3.7 0 0 1 .146-1.074c.089-.306.243-.59.453-.83.215-.239.484-.425.784-.541a2.99 2.99 0 0 1 1.124-.193m.372 10.477h-1.2v-1.437h1.2z" fill="#ad9b9a"/><g clip-path="url(#E)" transform="translate(209.983 80.078)" class="C H"><path d="M4.789 66.575c1.076-1.634 26.327-40.171 23.8-53.014l-.81.16c2.466 12.513-23.414 52-23.676 52.4z"/><path d="M12.145 19.054c.176 1.636.903 3.164 2.062 4.333 3.639 3.95 10.773 5.739 10.773 5.739a30.24 30.24 0 0 0-7.759-10.839c-2.936-2.464-5.366-2.844-5.076.767m8.922 18.776l-.471.052q.174.179.352.355a31.76 31.76 0 0 0 8.83 6.065c4.726 2.144 8.4 2.083 6.469-1.767a7.6 7.6 0 0 0-3.956-3.469c-4.081-1.769-9.6-1.4-11.225-1.236m-3.916 8.352a31.63 31.63 0 0 0 8.06 5.878c5.242 2.672 9.674 2.924 7.592-1.226-.989-1.776-2.623-3.105-4.563-3.712-4.785-1.781-11.089-.94-11.089-.94m-4.714 7.068a31.61 31.61 0 0 0 7.76 5.724c5.371 2.815 10.013 3.158 7.891-1.071a7.83 7.83 0 0 0-4.373-3.64c-4.807-1.875-11.279-1.013-11.279-1.013"/><path d="M25.122 29.432a31.65 31.65 0 0 0 8.6 6.145c5 2.417 9.064 2.515 7.054-1.493a8.32 8.32 0 0 0-5.221-3.938 28.08 28.08 0 0 0-10.431-.714M8.443 28.254c.142 1.431.723 2.783 1.662 3.872 3.054 3.744 9.337 5.688 10.844 6.111l.33.089q-.1-.248-.211-.5c-2.085-4.758-5.721-9.14-8.561-11.124-2.458-1.717-4.319-1.638-4.063 1.548m-4.496 7.679c.271 2.086 1.358 3.979 3.024 5.263 3.8 3.3 9.811 4.809 9.811 4.809A30.17 30.17 0 0 0 8.96 35.109c-2.907-2.416-5.3-2.765-5.012.82m-3.925 6.69c.232 2.883 2.453 5.1 4.985 6.711a30.5 30.5 0 0 0 7.851 3.36 31.08 31.08 0 0 0-6.416-9.6c-3.492-3.5-6.753-4.623-6.419-.472M18.316 11.03a6.78 6.78 0 0 0 1.407 3.626c2.721 3.646 8.4 5.278 8.4 5.278a27.58 27.58 0 0 0-5.4-9.063c-2.468-2.642-4.643-3.292-4.408.159m6.092-8.646a18.56 18.56 0 0 0 1.019 5.522 28.25 28.25 0 0 0 2.837 6.166s2.422-5.518 1.115-9.933a6.76 6.76 0 0 0-1.9-3.115l-.088-.08c-2.021-1.812-2.963-.837-2.987 1.441m3.863 16.77a28.48 28.48 0 0 0 8.781 4.9c3.789 1.24 6.313.787 4.2-2.22a7.08 7.08 0 0 0-3.451-2.551c-4.175-1.534-9.533-.125-9.533-.125m-4.548 35.105l-3.519 4.711c5.371 2.815 10.013 3.157 7.891-1.071a7.83 7.83 0 0 0-4.373-3.64"/><path d="M28.239 47.121l-3.029 4.938c5.242 2.672 9.674 2.924 7.592-1.226-.989-1.776-2.623-3.105-4.563-3.712m4.053-8.055l-2.513 5.236c4.726 2.144 8.4 2.083 6.469-1.767a7.6 7.6 0 0 0-3.956-3.469m3.26-8.92l-1.833 5.431c5 2.417 9.064 2.514 7.054-1.493a8.32 8.32 0 0 0-5.221-3.938m2.247-10.866q-.288 2.429-.751 4.771c3.789 1.24 6.313.787 4.2-2.22a7.08 7.08 0 0 0-3.452-2.551M6.442 43.091c-3.492-3.5-6.753-4.622-6.419-.471.232 2.883 2.453 5.1 4.985 6.711l1.434-6.24m2.518-7.983c-2.907-2.416-5.3-2.765-5.012.82.271 2.086 1.358 3.979 3.024 5.263l1.988-6.083m3.544-8.402c-2.458-1.717-4.319-1.638-4.063 1.548a6.99 6.99 0 0 0 1.662 3.872l2.4-5.42m4.718-8.419c-2.936-2.464-5.366-2.844-5.076.767.176 1.636.903 3.164 2.062 4.333l3.014-5.1m1.095-7.257a6.78 6.78 0 0 0 1.407 3.626q1.414-1.922 3-3.785c-2.468-2.642-4.643-3.292-4.408.159"/></g><g class="M"><path d="M62.883 154.07a21.97 21.97 0 0 1-11.423 5.55c-5.209.887-10.558.421-15.536-1.351-8.655-3.293-15.349-10.334-18.2-19.144-.941-2.8-1.425-5.733-1.433-8.687 0-.416 0-1.037.039-1.8.177-3.74 1.15-10.907 6.743-14.162 3.261-1.9 8.155-2.5 11.63-.392a6.11 6.11 0 0 1 .922.673c1.838 1.637 1.9 3.989 6.061 10.535 4.052 6.371 6.087 7.436 7.412 7.889 2.456.84 3.352-.119 7.122-.017 1.191.032 9.673.26 12.317 4.484 2.707 4.326-1.143 12.131-5.65 16.424"/><path d="M62.886 154.069a21.97 21.97 0 0 1-11.423 5.55c-5.209.887-10.558.421-15.536-1.351-8.655-3.293-15.349-10.334-18.2-19.144 4.409-7.263 12.241-19.461 17.9-24.371 1.838 1.637 1.9 3.989 6.061 10.535 4.052 6.371 6.087 7.436 7.412 7.89 2.456.84 3.352-.119 7.122-.017 1.191.032 9.673.26 12.317 4.484 2.707 4.326-1.143 12.131-5.65 16.424"/></g><path d="M36.649 153.744h3.53v34.411h-3.53z" class="L"/><path d="M80.119 113.615l-.359-.285-2.6.992-1.292 8.426.363.263z" fill="#9b8786"/><path d="M77.557 114.635l-1.393 8.425 2.727-1.953 1.239-7.489z" class="E"/><path d="M74.368 120.245c.083-.186.292-.7.493-1.336.313-.983.385-1.549.625-1.571.183-.017.348.292.43.446a1.81 1.81 0 0 1 .118 1.308l.831-.639c1.606-1.343 2.493-2.759 2.85-2.566a.22.22 0 0 1 .07.071c.218.292-.089.858-.176 1.02a5.86 5.86 0 0 1-.88 1.09c.027.033.44-.42.809-.316a.55.55 0 0 1 .387.528c-.045.417-.825.717-.818.729a1.56 1.56 0 0 1 .642-.129c.143.015.272.092.352.211.114.224-.117.654-.634 1 .185-.141.365-.191.457-.122s.075.224.07.281c-.047.526-1.045 1.123-1.407 1.336l-2.814 1.546-1.393.6-1.079.362-1.264-1.678a4.54 4.54 0 0 0 2.331-2.168" class="B"/><path d="M59.504 132.376s5.2 1.3 5.76 2.044 2.416 3.53 1.858 3.344-1.858-2.6-1.858-2.6 1.858 2.6 1.487 2.973-2.044-2.229-2.044-2.229c.559.699 1.056 1.444 1.486 2.229a23.6 23.6 0 0 1-2.23-1.858l-1.486-.743s1.115 1.115.929 1.3c-.787.018-1.54-.324-2.044-.929-.186-.558-2.23-1.3-2.23-1.3z" fill="#e5855e"/><path d="M51.514 115.096s-9.1 13.936-8.733 15.237 13.192 6.5 15.98 6.132l2.23-4.088-8.175-4.459s6.689-7.433 5.388-10.22-2.973-4.088-6.689-2.6" fill="#475384"/><path d="M51.099 104.492s-4.508-1.155-5.18 2.268 2.918 3.317 4.807 2.1.373-4.363.373-4.363" class="F"/><path d="M59.38 109.734l-.6 1.285-.575 1.232-1.7 3.646-6.578-2.136 2.883-3.016 2.15-2.6 2.328.606.656.306z" class="B"/><path d="M58.78 111.018l-.575 1.232c-1.161-.255-2.143-1.023-2.67-2.088-.119-.314 1.736-1.32 1.75-1.408.1-.65.465-.066.656.306l.122.254z" class="C"/><g class="B"><path d="M63.867 108.956c-.022.059-.056.113-.1.158-.059.065-.112.134-.161.206l-.018.026a2.23 2.23 0 0 1-.212.326c-.063.071-.132.135-.207.193-.312.239-1.247 1.672-1.475 1.9-1.035 1.028-9.123-1.291-9.142-6.387-.011-2.919 2.644-6.113 5.768-6.181 2.6-.057 5.268 2.056 5.19 3.495-.258.919-.264 1.891-.018 2.813a.7.7 0 0 0 .043.113.84.84 0 0 0 .1.156c.164.21.128 2.114.251 2.782.034.132.029.271-.014.4"/><path d="M63.464 105.389l.782 1.155c.325.459.472.642.433.859-.071.4-.7.559-.843.594z" opacity=".928"/></g><path d="M62.382 105.481c-.01.266-.146.477-.306.471s-.281-.226-.271-.492.146-.477.305-.471.281.226.271.492m-1.364-.844a1.57 1.57 0 0 1 .471-.393 2.7 2.7 0 0 1 1.183-.346c.21-.014.421.012.621.076a.29.29 0 0 1-.06.26c-.145.159-.422.081-1.032.209-.264.055-.29.085-.561.133a3.6 3.6 0 0 1-.621.061" class="E"/><path d="M57.725 106.228s-.7-.714-.943-.283.349.812.349.812l.08-.094c-.274-.166-.41-.406-.352-.572a.28.28 0 0 1 .193-.18c.08-.016.148.023.281.1.096.058.185.125.268.2l.124.018" class="I"/><path d="M57.782 107.937l-.442-.016c-.03-.001-.058-.014-.078-.036s-.031-.051-.03-.08l.014-.392c.001-.03.014-.058.036-.078s.051-.031.08-.03l.442.016c.03.001.058.014.078.036s.031.051.03.08l-.014.392c-.001.03-.014.058-.036.078s-.051.031-.08.03" class="B"/><path d="M63.765 109.114a1.8 1.8 0 0 0-.161.206 1.8 1.8 0 0 1-.361.024c-.323-.008-.637-.113-.9-.3a.1.1 0 0 1 .017-.173.1.1 0 0 1 .1.01 1.5 1.5 0 0 0 1.214.22.1.1 0 0 1 .09.015" class="I"/><path d="M62.91 101.362c-.576.338-1.122.726-1.631 1.159-1.067.907-1.63 1.386-1.774 2.149-.169.892.423 1.169.119 2.074-.113.335-.234.416-.641 1.3l-.367.853c-.285.768-.219 1.482.151 3.787-.981-2.867-.7-4.215-.233-4.914a2.07 2.07 0 0 0 .46-1.258 1.89 1.89 0 0 0-.935-1.495c-.542-.32-1.42-.467-1.77-.047a.93.93 0 0 0-.173.709 5.84 5.84 0 0 0 .48 1.986 3.1 3.1 0 0 1-1.726 2c-1.669.487-3.676-1.68-4.391-3.583-.768-2.318-.213-4.869 1.448-6.659a6.87 6.87 0 0 1 5.966-2.208c2.254.465 4.132 2.015 5.016 4.14" class="F"/><path d="M76.783 186.982c.045.543-1.667 1.174-2.964 1.386a3.42 3.42 0 0 1-2.02-.018c-1.007-.433-.851-1.295-2.15-2.932-1-1.257-1.375-1.109-1.875-2.116a4.16 4.16 0 0 1-.373-2.869c.06-.239.168-.464.317-.661.293-.301.547-.637.758-1 1.007-1.924-.282-3.543.587-4.4a2.31 2.31 0 0 1 2.835.1c1.145 1.068-.389 2.878.2 6.549.183 1.149.446 3.129 1.669 4.389.185.192.391.363.613.51 1.163.769 2.371.611 2.409 1.063" stroke-width=".2" class="B N"/><g class="E"><path d="M67.302 181.311v6.842h1.075l.391-6.255z"/><path d="M76.783 186.982c.045.543-1.667 1.174-2.964 1.386a3.42 3.42 0 0 1-2.02-.018c-1.007-.433-.851-1.295-2.15-2.932-1-1.257-1.375-1.109-1.875-2.116-.463-.881-.596-1.899-.373-2.869.06-.239.168-.464.317-.661a1.7 1.7 0 0 1 1.54.563c.782 1.075 2.346 5.278 3.812 5.18a.91.91 0 0 1 1.3.4c1.163.769 2.371.611 2.409 1.063"/></g><path d="M96.405 159.47c.462.29-.06 2.038-.669 3.2a3.42 3.42 0 0 1-1.226 1.606c-.95.546-1.547-.1-3.636-.038-1.6.044-1.712.435-2.818.231a4.16 4.16 0 0 1-2.519-1.422c-.155-.192-.271-.413-.339-.65a5.1 5.1 0 0 0-.346-1.207c-.935-1.959-3-1.9-3.168-3.107a2.31 2.31 0 0 1 1.778-2.209c1.542-.276 2.07 2.038 5.357 3.771 1.029.543 2.771 1.52 4.513 1.3.265-.033.525-.095.776-.185 1.313-.469 1.911-1.531 2.3-1.29" class="B"/><g class="E"><path d="M86.182 163.656l5.475 4.1.645-.86-4.771-4.065z"/><path d="M96.404 159.47c.462.29-.06 2.038-.669 3.2a3.42 3.42 0 0 1-1.226 1.606c-.95.546-1.547-.1-3.636-.038-1.6.044-1.712.435-2.818.231a4.16 4.16 0 0 1-2.519-1.422c-.155-.192-.271-.413-.339-.65a1.7 1.7 0 0 1 1.374-.895c1.329.019 5.63 1.289 6.431.057a.91.91 0 0 1 1.1-.8c1.313-.469 1.911-1.531 2.3-1.29"/></g><path d="M72.882 177.899c-1.686 1.309-3.9 1.724-5.946 1.115q-2.034-8.746-3.9-17.838-.669-3.269-1.3-6.5l-3.748-2-1.827-.972q-8.732-4.649-17.466-9.3l2.23-11.334c6.776 1.1 20.61 4.415 27.279 15.294q.209.337.407.686c1.37 2.541 2.389 5.255 3.029 8.07.416 1.7.684 3.187.873 4.194 1.152 6.13 1.278 12.409.372 18.581" fill="#5b2018"/><path d="M71.637 155.124l-6.187-5.283-7.464 2.835q-.914-.485-1.827-.972v-2.421l9.29-4.459 2.752 1.544q.209.337.407.686a31.89 31.89 0 0 1 3.029 8.07" fill="#491914"/><g fill="#6c2e23"><path d="M41.852 155.044c2.334.85 5 .835 9.662-.743 1.351-.457 17.333-5.992 16.537-12.077-.3-2.257-2.771-3.612-3.345-3.9-2.875-1.451-5.877-.121-11.334 1.672a179.97 179.97 0 0 0-14.307 5.388c-.365.3-2.6 2.163-2.415 4.645.245 3.213 4.346 4.705 5.2 5.017"/><path d="M63.29 144.008c4.274 6.258 16.249 15.833 21.3 19.769l2.973-5.2c-4.626-5.622-9.088-10.79-13.378-15.608-1.362-1.53-3.972-4.381-7.8-4.831-.5-.059-3.653-.386-4.53 1.16-.162.286-.745 1.513 1.441 4.713m-32.266-8.848c-4.506 4.947-5.625 11.635-3.055 15.979 2.9 4.907 9.339 4.851 14.634 4.806 3.387-.029 5.5-1.253 7.473-2.2 8.088-3.9-19.052-18.581-19.052-18.581"/></g><g class="I"><path d="M58.946 123.828c-1.143 2.171-3.18 3.733-5.574 4.273q-.644 1.291-1.29 2.579-.474.951-.95 1.9l-1.477 2.954-.076.1c-1.906 2.582-4.499 4.576-7.484 5.754-2.379.872-4.907 1.266-7.438 1.159-2.912-.13-5.335-.985-6.007-2.5a3.58 3.58 0 0 1 .531-3.028c8.053-14.868 12.213-22.344 18.75-24.389 4.506-1.408 6.75-.423 7.254-.167 3.675 1.866 4.281 6.758 4.318 7.094a7.72 7.72 0 0 1-.557 4.274"/><path d="M76.784 123.457c-1.411 3.441-3.355 6.639-5.76 9.476-2.932 3.449-5.7 6.7-8.919 6.875-3.346.182-6.99-2.958-9.746-8.222h0l-.368-.721a37.61 37.61 0 0 1-2.521-6.849c.06-.351.132-.741.217-1.152.548-2.668 1.646-6.278 3.685-6.652 1.758-.323 3.967 1.808 6.146 5.652a44.83 44.83 0 0 1 2.215 4.541q.569 1.338 1.115 2.811l.128-.106 10.091-8.441 3.716 2.787"/></g><path d="M52.083 130.681q-.474.951-.949 1.9l-1.477 2.954-.076.1-.138-6.75.028-6.73zm10.894-1.57l-1.243 3.822v-6.527q.568 1.338 1.115 2.811l.128-.106" class="F"/><path d="M51.461 159.619c-5.209.886-10.558.421-15.536-1.351-12.154-4.387-19.679-16.745-19.636-27.83 0-.416 0-1.037.039-1.8 4.272 3.547 23.356 19.09 32.4 21.392a6.1 6.1 0 0 1 3.711 2.354c1.148 1.681.585 4.513-.977 7.237" class="M"/><path d="M48.448 187.686c0 1.693-4.492 3.066-10.034 3.066s-10.034-1.373-10.034-3.066 4.492-3.066 10.034-3.066 10.034 1.373 10.034 3.066" class="L"/><path d="M37.115 153.651a33.6 33.6 0 0 1-20.828-22.752c.164 10.965 7.648 23.043 19.633 27.369 4.977 1.772 10.326 2.237 15.535 1.351a11.55 11.55 0 0 0 1.539-4.29 35.24 35.24 0 0 1-15.88-1.678" fill="#fcbf81"/><path d="M162.478 114.628c.021.187.418.316 1.015.4-.291.041-.862.126-.876.3s.489.34.782.416c.38.087.772.108 1.159.06l.269-.007h.2c-.154-.003-.309.004-.462.023a.97.97 0 0 0-.321.089c-.014.006-.025.018-.03.033-.017.088.326.279.878.476l.839.257a11.18 11.18 0 0 0 2 .338 13.92 13.92 0 0 0 2.792-.162l2.5-.408c1.19-1.7 1.137-2.47.906-2.854-.441-.73-1.6-.2-3.685-1.022-1.512-.595-2.375-1.451-2.656-1.181-.184.177.012.715.207 1.01.181.269.449.469.758.566l-1.652.491-1.726.113-.562.007c-.275.001-.55-.018-.823-.055-.343-.091-.708-.028-1 .173-.045.044-.125.121-.121.188.009.142.4.293 1.725.414l.724.057 1.637.083c-.547.019-1.095.002-1.64-.05l-.734-.037-1.8-.066c-.151.1-.324.217-.309.348m2.646 1.172q.146 0 .288.012l.73.069.93.161a15.3 15.3 0 0 0-1.659-.227l-.289-.015" class="B D O"/><g class="G"><path d="M194.581 116.388c-.111.228-.24.447-.384.656-.893 1.284-2.44 1.942-4.829 2.241a83.6 83.6 0 0 1-11.92.005 126.99 126.99 0 0 1-5.281-.314q.06-2.957.119-5.912a81.45 81.45 0 0 1 7.566-2.286 38.76 38.76 0 0 1 6.221-1.117 19.56 19.56 0 0 1 5.522.289l.739.17c.855.158 1.626.615 2.176 1.289a5.1 5.1 0 0 1 .07 4.978"/><path d="M200.067 101.676c-.623 6.169-2.411 11.019-4.645 13.788a9.76 9.76 0 0 1-.841.924 5.25 5.25 0 0 1-3.3 1.641c-.489.023-.978-.039-1.446-.182a6.2 6.2 0 0 1-3.479-2.773 6.89 6.89 0 0 1-.281-5.413c.842-2.937 2.831-6.07 4.5-8.7a41.75 41.75 0 0 1 5.477-6.9q2.01 3.8 4.019 7.606"/></g><path d="M195.422 115.465c-.26.326-.541.634-.841.924-.111.228-.24.447-.384.656-.893 1.283-2.44 1.942-4.829 2.241l.466-1.438 2.5-7.726 2.587-7.99z" class="J"/><path d="M203.147 179.2q.116 3.889.233 7.777a7.25 7.25 0 0 1-4.193.774l-.919-9.054 4.88.5" class="B D N"/><path d="M190.658 190.114q.027.428 1.466.767a29.36 29.36 0 0 1 6.683.154l.214-.036c1.912-.382 3.364-.1 4.48-.3a1.9 1.9 0 0 0 .645-.228 2.42 2.42 0 0 0 .325-.759c.066-.271.1-.55.1-.829a3.48 3.48 0 0 0-1.2-2.559 2.65 2.65 0 0 1-2.694 1.053c-.61-.168-1.136-.557-1.476-1.091l-4.427 2.078q-4.163 1.005-4.116 1.745" class="J"/><path d="M190.662 190.114l.019.648a56.65 56.65 0 0 0 8.13.273l.214-.036c1.912-.382 3.364-.1 4.48-.3a1.9 1.9 0 0 0 .645-.228c.303-.165.523-.449.607-.783l-.282.024c-1.8.147-11.615.921-13.814.4" class="E"/><path d="M227.32 179.835l.883 7.73a7.25 7.25 0 0 1-4.114 1.122l-1.674-8.945 4.905.092" class="B D N"/><path d="M215.793 191.764q.062.424 1.525.642a29.37 29.37 0 0 1 6.673-.406l.211-.054c1.874-.54 3.344-.382 4.44-.67a1.9 1.9 0 0 0 .624-.281c.131-.245.219-.51.26-.784a3.52 3.52 0 0 0 .028-.834 3.48 3.48 0 0 0-1.409-2.449 2.65 2.65 0 0 1-2.6 1.275c-.622-.117-1.179-.46-1.562-.964l-4.237 2.442q-4.064 1.35-3.956 2.083" class="J"/><path d="M215.792 191.762l.073.644a56.68 56.68 0 0 0 8.124-.408q.113-.026.211-.054c1.874-.54 3.344-.382 4.44-.67a1.9 1.9 0 0 0 .624-.281c.288-.189.484-.491.54-.831l-.28.047c-1.777.3-11.5 1.89-13.732 1.553" class="E"/><path d="M198.648 124.765l-4.207 27.179 2.589 32.962h8.859v-29.223l5.983-26.807a23.14 23.14 0 0 0-13.224-4.111" class="F"/><path d="M207.338 140.595c-5.009 15.215-4.017 13.966-2.764 41.535l-7.544 2.776h8.859v-29.223l2.877-12.889z" class="J"/><path d="M204.796 127.149l5.177 27.383 9.895 30.086 9.607.288-6.616-31.582c-.375-3.941-.375-7.909 0-11.85.306-3.135.74-4.99.518-8-.223-2.882-.943-5.704-2.128-8.341-.009.005-3.845.476-16.453 2.013" class="F"/><path d="M223.659 130.348a24.06 24.06 0 0 1-13.66 3.074c-1.35-.103-2.688-.323-4-.656l-.528-.141-1.949-.634c-2.059-.77-4.004-1.817-5.781-3.112l-1.83-10.775-1.339-8.8c-.037-3.56.222-7.117.775-10.634.247-1.909.51-3.487.7-4.578a20.4 20.4 0 0 1 4.777-1.99 24.22 24.22 0 0 1 5.988-.709 13.62 13.62 0 0 1 6.95 1.746c.588.354 1.137.771 1.635 1.243 1.463 1.69 2.662 4.858 3.658 8.675.028.1.054.21.082.316.683 2.67 1.27 5.641 1.783 8.636.405 2.361.763 4.737 1.085 6.992l1.213 8.69.434 2.661" class="G"/><path d="M201.933 93.396a1.4 1.4 0 0 1 1.665-1.306 8.4 8.4 0 0 0 3.642-.9c-.43-.437-1.019-.68-1.632-.671-.963.057-3.635.419-4.337 1.569s.662 1.306.662 1.306" fill="#ad9b9a"/><path d="M204.943 88.769l1.967 3.472a2.83 2.83 0 0 1-.849 1.627c-.872.721-2.073.896-3.114.453-.382-.156-.729-.387-1.019-.68l.443-2.284.6-.6z" class="B"/><path d="M205.02 89.905l-.044.181c-.429 1.322-1.406 2.397-2.681 2.95h0l-.112-.091.194-1.59.6-.6c.404-.283.78-.605 1.122-.96l.1-.109.27.072.075.021.482.127" class="C"/><path d="M203.061 94.094l-1.133 2.548c-.751-.763-1.211-1.764-1.3-2.831a8.08 8.08 0 0 1 0-1.7l1.189-.736a2.76 2.76 0 0 0 1.246 2.718" class="F"/><path d="M197.198 87.885c.7 1.858 2.557 4.251 4.684 4.206 3.754-.079 5.975-7.7 5.274-8.182-.121-.083-.258.093-.6.188-2.152.592-4.179-4.787-6.469-4.065-1.98.624-2.8 2.928-2.988 3.445-.497 1.434-.461 2.999.1 4.409" class="B D O"/><path d="M197.177 85.877a1.39 1.39 0 0 1 .417-.46 1.99 1.99 0 0 1 .528-.274 1.92 1.92 0 0 1 .586-.11 1.4 1.4 0 0 1 .612.109c.035.104.023.218-.031.313-.124.188-.4.086-.982.223-.251.059-.273.095-.532.145a2.75 2.75 0 0 1-.6.056m6.02-1.578a1.4 1.4 0 0 0-.6-.17 1.99 1.99 0 0 0-.593.047 1.94 1.94 0 0 0-.555.217 1.4 1.4 0 0 0-.462.416c.026.107.095.197.192.249.205.094.386-.14.952-.331.245-.083.282-.064.527-.159a2.78 2.78 0 0 0 .537-.269" class="E"/><path d="M200.959 88.582c-.6-.25-.661-.428-.636-1.023-.012-.524-.062-1.046-.152-1.562l.23-.036a10.47 10.47 0 0 1 .155 1.616c-.021.51-.007.573.483.777z" class="I"/><path d="M201.947 85.896a.42.42 0 0 0 .498.32.42.42 0 1 0-.441-.637.42.42 0 0 0-.057.317m-3.643.907a.42.42 0 0 0 .498.32.42.42 0 1 0-.441-.637.42.42 0 0 0-.057.318"/><path d="M194.984 84.022c2.269 1.615 5.642.239 6.434-.121.579-.263 1.129-.586 1.642-.963a6.81 6.81 0 0 0 1.132 1.055c.476.473 1.149.692 1.812.588.228-.081.338-.222.51-.17.336.1.391.782.4.849a2.13 2.13 0 0 1-.623 1.529q-.155.9-.311 1.792c1.473-1.556 2.156-3.699 1.854-5.821a6.53 6.53 0 0 0-4.3-5.084c-1.407-.481-2.944-.409-4.3.2l-1.418.906c-.624.445-1.299.815-2.01 1.1-1.1.287-1.563-.165-2.01.236-.642.577-.209 1.97-.158 2.128a3.58 3.58 0 0 0 1.34 1.773" class="E"/><path d="M207.818 91.432a7.82 7.82 0 0 1-.155 1.319 7.17 7.17 0 0 1-1.318 2.928 7.06 7.06 0 0 1-1.7 1.586l-.007-.012-1.555-2.809-.05-.09v-.007h0l-.046-.082-.094-.17c.027 0 .077-.006.146-.014 1.208-.107 2.306-.748 2.991-1.749l.012-.021.111-.2c.087-.172.159-.351.214-.535q.029-.092.05-.182v-.017c.054-.222.088-.448.1-.676h0l.018.01h0l.362.2.819.463.087.048.015.009" class="F"/><path d="M202.236 90.327a1.21 1.21 0 0 1-1.1.118c-.32-.13-.573-.385-.7-.707h.043a2.85 2.85 0 0 0 .917-.2 2.89 2.89 0 0 0 1.022-.7l.188-.22a1.4 1.4 0 0 1-.366 1.721" class="I"/><path d="M200.746 89.909c-.1-.042-.192-.1-.272-.173.315-.016.624-.083.917-.2a2.89 2.89 0 0 0 1.023-.7c-.004.109-.024.216-.06.319-.103.269-.299.493-.552.631-.314.2-.702.249-1.056.133" class="B"/><g clip-path="url(#F)" transform="translate(200.581 84.619)" class="D K"><path d="M3.109 2.168a1.63 1.63 0 0 1-.578.413c-.163.063-.334.102-.508.118a1.61 1.61 0 0 1-.668-.071 1.47 1.47 0 0 1-.151-.061 1.28 1.28 0 0 1-.166-.1 2.08 2.08 0 0 1-.528-.52c-.218-.307-.39-.644-.51-1L.906.68l.762-.225.4-.117.762-.225.4-.117c.372.688.325 1.526-.12 2.168" fill="none"/></g><g clip-path="url(#G)" transform="translate(196.666 85.745)" opacity=".41" class="D K"><path d="M3.09 2.01a1.74 1.74 0 0 1-1.052.714l-.058.013c-.21.035-.425.03-.633-.016-.026-.005-.052-.012-.078-.02-.087-.025-.17-.058-.25-.1-.213-.118-.398-.28-.541-.477C.225 1.774.061 1.368 0 .941L.932.67l.761-.221.4-.118.761-.22.379-.109a2.98 2.98 0 0 1-.144 2.01" fill="none"/></g><g class="E"><path d="M199.998 86.39c-.033-.05-.035-.114-.007-.167s.067-.097.118-.128a.63.63 0 0 1 .295-.093.9.9 0 0 1 .288.022.88.88 0 0 1 .269.111h0c-.097.001-.188-.01-.278-.011h-.136a1.24 1.24 0 0 0-.136.008.76.76 0 0 0-.262.056.2.2 0 0 0-.141.2zm4.162-1.243c-.031 0-.056-.022-.061-.052s.013-.059.042-.069l2.382-.761c.032-.007.064.011.073.042s-.006.064-.036.076l-2.382.761"/><path d="M200.034 86.669c0 .219-.059.4-.132.4s-.132-.177-.132-.4.059-.4.132-.4.132.177.132.4m1.109-.389c.1.2.124.381.059.413s-.2-.1-.3-.3-.124-.381-.059-.413.2.1.3.3m2.919-.997l.545-.211-.061-.257-.616.072a.7.7 0 0 0 .132.4m-7.461 1.382l1.819-.56 1.828-.527 1.836-.5.921-.238.925-.225-.907.287-.911.274-1.828.526-1.836.5-1.846.463"/></g><path d="M223.224 127.686a24.68 24.68 0 0 1-8.467.775c-1.188-.132-5.282-.792-5.758-1.825s7.079-1.212 9.852-2.4c1.722-.738 2.679-3.358 3.16-5.24l1.213 8.69" fill="#3a3d2f"/><path d="M227.434 107.332s-1.76 5.883-3.963 11.283l-.083.2c-1.5 3.64-3.189 7.025-4.669 8.188-1.429 1.122-2.58.825-3.362-.115-.3-.375-.536-.797-.7-1.249a.99.99 0 0 1-.03-.082 6.61 6.61 0 0 1-.286-1.068 7.19 7.19 0 0 1-.1-1.738c.027-.738.233-1.459.6-2.1.131-.208.249-.424.353-.647l.2-.473a8.7 8.7 0 0 0 .471-2.3l.089-2a20.13 20.13 0 0 1 .37-3.9l.045-.239c.259-1.6.351-3.13-.266-4.177l-3.9-6.213 11.113 3.728 2.064 1.454z" class="J"/><path d="M210.389 97.203c-.022 1.885 1.27 3.488 7.04 7.878 8.3 6.313 10.51 6.714 12.186 6.06.611-.196 1.143-.581 1.521-1.1 1.853-2.777-2.418-9.013-6.441-12.462-2.693-2.193-5.931-3.614-9.369-4.11-1.869-.2-2.972.084-3.734.757a4.17 4.17 0 0 0-1.2 2.974" class="G"/><path d="M230.957 123.342l-24.516 7.584a7.11 7.11 0 0 1-8.889-4.69l-1-3.229a7.11 7.11 0 0 1 4.69-8.889l24.516-7.581a7.11 7.11 0 0 1 8.889 4.69l1 3.229a7.11 7.11 0 0 1-4.69 8.889" class="B"/><path d="M198.163 118.741l32.967-10.194.289.935-32.967 10.194zm1.403 4.536l33.017-10.21.289.935-33.017 10.21zm1.375 4.447l33.016-10.21.289.935-33.016 10.21z" fill="#4a3732"/><path d="M220.161 120.671l-1.292 1.292a21 21 0 0 1-2.1 1.939c-.717.472-1.341.7-1.292.969.032.176.336.275.485.323.263.08.545.08.808 0a1.87 1.87 0 0 0 .97-.646l-2.262 2.262c-1.431 1.532-1.529 1.844-1.454 1.939.043.055.15.043.323 0a5.12 5.12 0 0 0 2.1-1.293l1.131-.969-1.131 1.777c-.671 1.014-1.216 1.768-1.019 1.986.022.022.049.037.078.046.458.14 2.294-2.045 3.2-3.164-.652 1.321-1.364 2.932-1.037 3.151a.16.16 0 0 0 .068.023c.742.1 2.215-3.2 2.262-3.174s-.8 1.514-.485 1.777c.094.078.26.022.323 0 1-.344 1.86-2.774 2.262-3.878l1.454-3.716z" class="B D O"/><path d="M226.543 104.274c-.765.158-2.31.685-4.391 4.117a25.76 25.76 0 0 0-3.565 11.752 3.91 3.91 0 0 0 1.485 2.466 4.15 4.15 0 0 0 4.721-.15c1.313-1.888 5.985-8.741 7.163-13.406.272-.852.237-1.772-.1-2.6-.818-1.729-3.345-2.585-5.311-2.179" class="G"/><path d="M206.972 138.661c8.017 26.81 12.848 42.219 14.514 43.969s7.989 2.276 7.989 2.276l-9.607-.288-9.895-30.086z" fill="#705247"/></svg>
