<svg xmlns="http://www.w3.org/2000/svg" width="252" height="210" viewBox="0 0 252 210">
  <defs>
    <clipPath id="clip-path">
      <rect id="Rectangle_192" data-name="Rectangle 192" width="37.772" height="61.316" fill="#acacac"/>
    </clipPath>
    <clipPath id="clip-path-2">
      <rect id="Rectangle_193" data-name="Rectangle 193" width="31.561" height="39.784" fill="#acacac"/>
    </clipPath>
    <clipPath id="clip-path-3">
      <rect id="Rectangle_194" data-name="Rectangle 194" width="26.155" height="46.39" fill="#acacac"/>
    </clipPath>
    <clipPath id="clip-path-4">
      <rect id="Rectangle_195" data-name="Rectangle 195" width="39.301" height="32.603" fill="#acacac"/>
    </clipPath>
    <clipPath id="clip-path-5">
      <rect id="Rectangle_199" data-name="Rectangle 199" width="42.017" height="66.575" fill="#acacac"/>
    </clipPath>
    <clipPath id="clip-path-6">
      <rect id="Rectangle_201" data-name="Rectangle 201" width="3.47" height="2.707" fill="none" stroke="#3b1e13" stroke-width="0.1"/>
    </clipPath>
    <clipPath id="clip-path-7">
      <rect id="Rectangle_202" data-name="Rectangle 202" width="3.349" height="2.761" fill="none" stroke="#3b1e13" stroke-width="0.1"/>
    </clipPath>
  </defs>
  <g id="dark" transform="translate(-165 -690)">
    <rect id="Rectangle_213" data-name="Rectangle 213" width="252" height="210" transform="translate(165 690)" fill="transparent"/>
    <g id="Group_1716" data-name="Group 1716" transform="translate(165 -284.71)">
      <g id="Group_1717" data-name="Group 1717" transform="translate(0 992.71)">
        <g id="Group_1679" data-name="Group 1679" transform="translate(11.167 16.836)">
          <g id="Group_1718" data-name="Group 1718">
            <path id="Path_729" data-name="Path 729" d="M172.37,1210.991c-10.135,3.623-21,7.506-30,9.377-11.378,2.367-33.12,6.89-53.149-6.436a67.529,67.529,0,0,1-27.37-39.808c-8.584-34.821,12.738-63.319,14.322-65.366,12.573-16.253,28.407-21.126,35.724-23.26,39.012-11.374,52.545,18.279,108.605,19.215,23.505.392,33.424-5.158,45.113,4.5,13.663,11.294,21.792,36.477,15.754,57.919-.916,3.251-4.329,14.827-14.242,23.351-19.784,17.013-39.19-.712-75.268,12.963-4.4,1.669-9.152,3.843-19.493,7.539" transform="translate(-59.825 -1082.905)" fill="#553e37"/>
          </g>
        </g>
        <g id="Group_1704" data-name="Group 1704">
          <g id="Group_1719" data-name="Group 1719">
            <g id="Group_1684" data-name="Group 1684" transform="translate(0 67.654)" opacity="0.3">
              <g id="Group_1683" data-name="Group 1683">
                <g id="Group_1682" data-name="Group 1682" clip-path="url(#clip-path)">
                  <path id="Path_731" data-name="Path 731" d="M86.338,1469.956c-.933-1.522-22.824-37.4-20.139-49.036l.734.169c-2.616,11.337,19.82,48.1,20.047,48.473Z" transform="translate(-53.656 -1408.641)" fill="#acacac"/>
                  <path id="Path_732" data-name="Path 732" d="M94.351,1439.567a6.62,6.62,0,0,1-2.007,3.89c-3.434,3.495-9.992,4.916-9.992,4.916a27.586,27.586,0,0,1,7.393-9.655c2.749-2.16,4.977-2.436,4.606.848" transform="translate(-66.98 -1421.797)" fill="#acacac"/>
                  <path id="Path_733" data-name="Path 733" d="M36.867,1539.605c.275.036.428.061.428.061q-.164.158-.332.313a28.967,28.967,0,0,1-8.23,5.27c-4.372,1.816-7.72,1.652-5.846-1.8A6.932,6.932,0,0,1,26.6,1540.4c3.773-1.493,8.791-.991,10.271-.8" transform="translate(-18.183 -1504.977)" fill="#acacac"/>
                  <path id="Path_734" data-name="Path 734" d="M52.822,1580.738a28.858,28.858,0,0,1-7.521,5.123c-4.858,2.282-8.906,2.382-6.886-1.341a7.24,7.24,0,0,1,4.269-3.25c4.416-1.483,10.138-.532,10.138-.532" transform="translate(-30.811 -1538.382)" fill="#acacac"/>
                  <path id="Path_735" data-name="Path 735" d="M74.736,1616.021a28.831,28.831,0,0,1-7.244,4.991c-4.98,2.409-9.222,2.585-7.164-1.208a7.142,7.142,0,0,1,4.094-3.19c4.438-1.568,10.314-.592,10.314-.592" transform="translate(-48.635 -1567.079)" fill="#acacac"/>
                  <path id="Path_736" data-name="Path 736" d="M16.522,1497.679a28.872,28.872,0,0,1-8.02,5.35c-4.631,2.057-8.338,2.026-6.388-1.568a7.59,7.59,0,0,1,4.876-3.437,25.619,25.619,0,0,1,9.532-.345" transform="translate(-1.287 -1470.827)" fill="#acacac"/>
                  <path id="Path_737" data-name="Path 737" d="M110.984,1485.091a6.374,6.374,0,0,1-1.629,3.481c-2.895,3.324-8.68,4.912-10.067,5.253-.2.048-.3.071-.3.071q.1-.223.207-.446a26.336,26.336,0,0,1,8.133-9.891c2.292-1.494,3.986-1.367,3.659,1.53" transform="translate(-80.508 -1458.823)" fill="#acacac"/>
                  <path id="Path_738" data-name="Path 738" d="M131.734,1523.286a7.24,7.24,0,0,1-2.912,4.71c-3.563,2.9-9.087,4.1-9.087,4.1a27.523,27.523,0,0,1,7.453-9.7c2.722-2.117,4.914-2.365,4.546.9" transform="translate(-97.384 -1489.889)" fill="#acacac"/>
                  <path id="Path_739" data-name="Path 739" d="M149.853,1556.586c-.3,2.622-2.387,4.578-4.742,5.973a27.825,27.825,0,0,1-7.257,2.833,28.353,28.353,0,0,1,6.132-8.565c3.286-3.087,6.293-4.016,5.867-.241" transform="translate(-112.121 -1516.973)" fill="#acacac"/>
                  <path id="Path_740" data-name="Path 740" d="M77.66,1400.623a6.186,6.186,0,0,1-1.389,3.265c-2.588,3.245-7.813,4.566-7.813,4.566a25.161,25.161,0,0,1,5.187-8.105c2.328-2.337,4.33-2.865,4.015.275" transform="translate(-55.679 -1390.35)" fill="#acacac"/>
                  <path id="Path_741" data-name="Path 741" d="M67.456,1357.349a16.932,16.932,0,0,1-1.091,5,25.756,25.756,0,0,1-2.768,5.539s-2.046-5.1-.724-9.09a6.175,6.175,0,0,1,1.82-2.785l.083-.071c1.9-1.593,2.726-.676,2.681,1.4" transform="translate(-50.775 -1355.14)" fill="#acacac"/>
                  <path id="Path_742" data-name="Path 742" d="M12.67,1445.274a25.973,25.973,0,0,1-8.151,4.206c-3.491,1.019-5.779.532-3.767-2.147a6.459,6.459,0,0,1,3.222-2.224c3.851-1.276,8.7.166,8.7.166" transform="translate(0 -1427.885)" fill="#acacac"/>
                  <path id="Path_743" data-name="Path 743" d="M64.423,1620.5c1.082,1.659,2.125,3.132,3.07,4.4-4.98,2.409-9.222,2.585-7.164-1.209a7.141,7.141,0,0,1,4.094-3.19" transform="translate(-48.635 -1570.967)" fill="#acacac"/>
                  <path id="Path_744" data-name="Path 744" d="M42.684,1584.9c.864,1.635,1.746,3.168,2.617,4.591-4.858,2.282-8.906,2.382-6.886-1.341a7.237,7.237,0,0,1,4.269-3.25" transform="translate(-30.811 -1542.007)" fill="#acacac"/>
                  <path id="Path_745" data-name="Path 745" d="M26.6,1544.917c.674,1.687,1.393,3.305,2.137,4.848-4.372,1.816-7.72,1.652-5.846-1.8a6.932,6.932,0,0,1,3.709-3.046" transform="translate(-18.184 -1509.492)" fill="#acacac"/>
                  <path id="Path_746" data-name="Path 746" d="M6.99,1500.835c.446,1.719.955,3.389,1.512,5.005-4.631,2.057-8.338,2.027-6.388-1.568a7.588,7.588,0,0,1,4.876-3.437" transform="translate(-1.287 -1473.639)" fill="#acacac"/>
                  <path id="Path_747" data-name="Path 747" d="M3.974,1447.405q.191,2.223.545,4.372c-3.491,1.019-5.779.532-3.767-2.147a6.456,6.456,0,0,1,3.222-2.225" transform="translate(0 -1430.182)" fill="#acacac"/>
                  <path id="Path_748" data-name="Path 748" d="M170.7,1556.827c3.286-3.087,6.293-4.016,5.867-.241-.3,2.622-2.387,4.578-4.742,5.973-.222-1.423-.577-3.387-1.125-5.732" transform="translate(-138.839 -1516.973)" fill="#acacac"/>
                  <path id="Path_749" data-name="Path 749" d="M159.663,1522.391c2.721-2.117,4.914-2.365,4.546.9A7.239,7.239,0,0,1,161.3,1528c-.441-1.725-.979-3.611-1.634-5.605" transform="translate(-129.859 -1489.889)" fill="#acacac"/>
                  <path id="Path_750" data-name="Path 750" d="M143.663,1483.56c2.292-1.494,3.986-1.366,3.659,1.531a6.375,6.375,0,0,1-1.629,3.482c-.6-1.627-1.271-3.306-2.03-5.012" transform="translate(-116.846 -1458.823)" fill="#acacac"/>
                  <path id="Path_751" data-name="Path 751" d="M121.959,1438.719c2.749-2.16,4.977-2.436,4.606.848a6.619,6.619,0,0,1-2.007,3.89c-.788-1.576-1.652-3.161-2.6-4.739" transform="translate(-99.193 -1421.798)" fill="#acacac"/>
                  <path id="Path_752" data-name="Path 752" d="M100.261,1400.623a6.186,6.186,0,0,1-1.389,3.265q-1.233-1.794-2.625-3.539c2.328-2.337,4.33-2.865,4.015.275" transform="translate(-78.28 -1390.35)" fill="#acacac"/>
                </g>
              </g>
            </g>
            <g id="Group_1687" data-name="Group 1687" transform="translate(51.663 10.304)" opacity="0.3">
              <g id="Group_1686" data-name="Group 1686">
                <g id="Group_1685" data-name="Group 1685" clip-path="url(#clip-path-2)">
                  <path id="Path_753" data-name="Path 753" d="M338.709,1127.856c-.965-.88-23.651-21.64-24.132-30.363l.55-.03c.468,8.5,23.718,29.772,23.953,29.986Z" transform="translate(-307.519 -1088.213)" fill="#acacac"/>
                  <path id="Path_754" data-name="Path 754" d="M347.457,1095.5a4.843,4.843,0,0,1-.619,3.142c-1.7,3.155-6.022,5.488-6.022,5.488a20.184,20.184,0,0,1,3.231-8.29c1.492-2.077,3-2.724,3.409-.341" transform="translate(-328.86 -1085.377)" fill="#acacac"/>
                  <path id="Path_755" data-name="Path 755" d="M322.241,1174.878c.2-.031.313-.044.313-.044q-.083.144-.169.287a21.2,21.2,0,0,1-4.711,5.379c-2.7,2.166-5.089,2.732-4.475-.076a5.073,5.073,0,0,1,1.986-2.9c2.348-1.817,5.977-2.485,7.056-2.65" transform="translate(-306.318 -1151.141)" fill="#acacac"/>
                  <path id="Path_756" data-name="Path 756" d="M341.823,1200.539a21.109,21.109,0,0,1-4.243,5.131c-2.95,2.593-5.774,3.486-5.112.459a5.3,5.3,0,0,1,2.339-3.153,18.116,18.116,0,0,1,7.017-2.437" transform="translate(-321.991 -1172.048)" fill="#acacac"/>
                  <path id="Path_757" data-name="Path 757" d="M364.4,1220.875a21.1,21.1,0,0,1-4.075,4.982c-3.009,2.706-5.955,3.693-5.28.608a5.225,5.225,0,0,1,2.228-3.075,17.926,17.926,0,0,1,7.128-2.515" transform="translate(-340.355 -1188.588)" fill="#acacac"/>
                  <path id="Path_758" data-name="Path 758" d="M299.41,1149.554a21.127,21.127,0,0,1-4.547,5.392c-2.836,2.388-5.448,3.12-4.808.2a5.551,5.551,0,0,1,2.727-3.408,18.743,18.743,0,0,1,6.628-2.182" transform="translate(-287.495 -1130.58)" fill="#acacac"/>
                  <path id="Path_759" data-name="Path 759" d="M368.41,1124.106a4.663,4.663,0,0,1-.436,2.778c-1.358,2.925-5.1,5.218-6.005,5.74-.128.073-.2.112-.2.112q.025-.178.055-.356a19.269,19.269,0,0,1,3.7-8.606c1.306-1.516,2.523-1.772,2.883.331" transform="translate(-345.902 -1108.644)" fill="#acacac"/>
                  <path id="Path_760" data-name="Path 760" d="M390.764,1146.726a5.3,5.3,0,0,1-1.088,3.9,18.47,18.47,0,0,1-5.553,4.728,20.137,20.137,0,0,1,3.264-8.334c1.482-2.042,2.972-2.662,3.377-.3" transform="translate(-364.084 -1127.042)" fill="#acacac"/>
                  <path id="Path_761" data-name="Path 761" d="M410.274,1166.441c.326,1.9-.746,3.7-2.117,5.162a20.356,20.356,0,0,1-4.523,3.468,20.743,20.743,0,0,1,2.567-7.267c1.681-2.839,3.605-4.1,4.074-1.364" transform="translate(-379.951 -1143.077)" fill="#acacac"/>
                  <path id="Path_762" data-name="Path 762" d="M326.688,1073.8a4.526,4.526,0,0,1-.312,2.577c-1.158,2.807-4.561,4.8-4.561,4.8a18.406,18.406,0,0,1,2-6.752c1.161-2.116,2.46-2.895,2.877-.624" transform="translate(-313.406 -1067.847)" fill="#acacac"/>
                  <path id="Path_763" data-name="Path 763" d="M306.417,1049.273a12.394,12.394,0,0,1,.252,3.739,18.855,18.855,0,0,1-.818,4.456s-2.476-3.169-2.359-6.241a4.519,4.519,0,0,1,.712-2.327l.044-.066c1.008-1.505,1.778-1.03,2.169.44" transform="translate(-298.499 -1047.912)" fill="#acacac"/>
                  <path id="Path_764" data-name="Path 764" d="M284.952,1116.726a19,19,0,0,1-4.872,4.614c-2.246,1.426-3.953,1.55-3.084-.743a4.727,4.727,0,0,1,1.812-2.219,12.408,12.408,0,0,1,6.145-1.652" transform="translate(-276.765 -1103.88)" fill="#acacac"/>
                  <path id="Path_765" data-name="Path 765" d="M357.276,1234.347c1.1.946,2.131,1.769,3.053,2.467-3.01,2.706-5.955,3.693-5.28.608a5.226,5.226,0,0,1,2.228-3.075" transform="translate(-340.356 -1199.545)" fill="#acacac"/>
                  <path id="Path_766" data-name="Path 766" d="M334.807,1213.593c.94.973,1.871,1.872,2.773,2.694-2.95,2.593-5.774,3.486-5.112.459a5.3,5.3,0,0,1,2.339-3.153" transform="translate(-321.991 -1182.666)" fill="#acacac"/>
                  <path id="Path_767" data-name="Path 767" d="M315.185,1189.267c.817,1.048,1.651,2.039,2.489,2.972-2.7,2.166-5.089,2.732-4.475-.076a5.072,5.072,0,0,1,1.986-2.9" transform="translate(-306.318 -1162.88)" fill="#acacac"/>
                  <path id="Path_768" data-name="Path 768" d="M292.782,1161.243c.663,1.117,1.361,2.187,2.081,3.21-2.836,2.388-5.448,3.121-4.808.2a5.552,5.552,0,0,1,2.727-3.408" transform="translate(-287.495 -1140.087)" fill="#acacac"/>
                  <path id="Path_769" data-name="Path 769" d="M278.808,1125.579q.586,1.523,1.272,2.962c-2.246,1.426-3.953,1.55-3.084-.743a4.725,4.725,0,0,1,1.812-2.219" transform="translate(-276.765 -1111.081)" fill="#acacac"/>
                  <path id="Path_770" data-name="Path 770" d="M417.383,1167.8c1.681-2.839,3.605-4.1,4.074-1.363.326,1.9-.746,3.7-2.117,5.163-.446-.955-1.1-2.263-1.957-3.8" transform="translate(-391.134 -1143.076)" fill="#acacac"/>
                  <path id="Path_771" data-name="Path 771" d="M401.608,1147.021c1.482-2.042,2.972-2.662,3.377-.3a5.3,5.3,0,0,1-1.088,3.9c-.661-1.123-1.423-2.338-2.289-3.607" transform="translate(-378.304 -1127.041)" fill="#acacac"/>
                  <path id="Path_772" data-name="Path 772" d="M381.9,1123.775c1.306-1.516,2.523-1.772,2.883.331a4.663,4.663,0,0,1-.436,2.778c-.751-1.022-1.566-2.065-2.447-3.109" transform="translate(-362.273 -1108.644)" fill="#acacac"/>
                  <path id="Path_773" data-name="Path 773" d="M358.126,1095.839c1.492-2.078,3-2.724,3.409-.341a4.844,4.844,0,0,1-.619,3.142c-.874-.947-1.8-1.886-2.79-2.8" transform="translate(-342.939 -1085.376)" fill="#acacac"/>
                  <path id="Path_774" data-name="Path 774" d="M335.385,1073.8a4.526,4.526,0,0,1-.312,2.577q-1.232-1.01-2.565-1.953c1.161-2.116,2.46-2.895,2.877-.624" transform="translate(-322.103 -1067.847)" fill="#acacac"/>
                </g>
              </g>
            </g>
            <g id="Group_1690" data-name="Group 1690" transform="translate(68.685)" opacity="0.3">
              <g id="Group_1689" data-name="Group 1689">
                <g id="Group_1688" data-name="Group 1688" clip-path="url(#clip-path-3)">
                  <path id="Path_775" data-name="Path 775" d="M434.5,1075.9c-.471-1.218-11.488-29.928-8.02-37.947l.506.219c-3.379,7.813,7.914,37.233,8.028,37.529Z" transform="translate(-415.008 -1029.504)" fill="#acacac"/>
                  <path id="Path_776" data-name="Path 776" d="M440.014,1061.016a4.844,4.844,0,0,1-1.958,2.535c-2.933,2.062-7.839,2.219-7.839,2.219a20.179,20.179,0,0,1,6.595-5.972c2.263-1.192,3.9-1.1,3.2,1.218" transform="translate(-418.595 -1046.662)" fill="#acacac"/>
                  <path id="Path_777" data-name="Path 777" d="M388.551,1124.291c.193.062.3.1.3.1q-.139.092-.28.181a21.189,21.189,0,0,1-6.618,2.706c-3.386.73-5.774.17-3.969-2.068a5.071,5.071,0,0,1,3.071-1.7c2.913-.576,6.458.447,7.5.782" transform="translate(-375.608 -1098.953)" fill="#acacac"/>
                  <path id="Path_778" data-name="Path 778" d="M394.6,1156a21.113,21.113,0,0,1-6.089,2.694c-3.8,1-6.724.539-4.779-1.874a5.3,5.3,0,0,1,3.5-1.776,18.119,18.119,0,0,1,7.366.956" transform="translate(-380.286 -1124.659)" fill="#acacac"/>
                  <path id="Path_779" data-name="Path 779" d="M405.715,1184.281a21.1,21.1,0,0,1-5.872,2.635c-3.9,1.076-6.978.643-5-1.816a5.226,5.226,0,0,1,3.367-1.755,17.925,17.925,0,0,1,7.5.935" transform="translate(-389.324 -1147.663)" fill="#acacac"/>
                  <path id="Path_780" data-name="Path 780" d="M379.444,1091.434a21.128,21.128,0,0,1-6.477,2.792c-3.6.869-6.268.358-4.39-1.972a5.551,5.551,0,0,1,3.962-1.83,18.744,18.744,0,0,1,6.9,1.01" transform="translate(-367.957 -1072.147)" fill="#acacac"/>
                  <path id="Path_781" data-name="Path 781" d="M445.975,1095.971a4.662,4.662,0,0,1-1.632,2.29c-2.522,2.01-6.9,2.389-7.938,2.452-.147.009-.228.011-.228.011q.1-.148.208-.294a19.266,19.266,0,0,1,7.158-6.044c1.846-.772,3.049-.458,2.431,1.584" transform="translate(-423.443 -1075.092)" fill="#acacac"/>
                  <path id="Path_782" data-name="Path 782" d="M455.866,1126.2a5.3,5.3,0,0,1-2.717,3,18.468,18.468,0,0,1-7.08,1.748,20.136,20.136,0,0,1,6.644-6c2.238-1.164,3.848-1.053,3.153,1.244" transform="translate(-431.488 -1099.676)" fill="#acacac"/>
                  <path id="Path_783" data-name="Path 783" d="M464.509,1152.552c-.559,1.848-2.322,2.98-4.2,3.672a20.363,20.363,0,0,1-5.6,1.081,20.743,20.743,0,0,1,5.544-5.354c2.773-1.788,5.059-2.06,4.254.6" transform="translate(-438.517 -1121.111)" fill="#acacac"/>
                  <path id="Path_784" data-name="Path 784" d="M433.865,1029.392a4.524,4.524,0,0,1-1.431,2.166c-2.291,1.994-6.225,2.255-6.225,2.255a18.408,18.408,0,0,1,4.8-5.148c1.984-1.374,3.494-1.49,2.853.728" transform="translate(-415.336 -1021.145)" fill="#acacac"/>
                  <path id="Path_785" data-name="Path 785" d="M433.39,994.452a12.386,12.386,0,0,1-1.446,3.458,18.852,18.852,0,0,1-2.723,3.621s-.8-3.942.679-6.637a4.519,4.519,0,0,1,1.677-1.764l.069-.04c1.575-.9,2.051-.127,1.744,1.363" transform="translate(-417.61 -992.708)" fill="#acacac"/>
                  <path id="Path_786" data-name="Path 786" d="M384.384,1051.935a19.006,19.006,0,0,1-6.421,1.951c-2.647.272-4.229-.38-2.427-2.042a4.725,4.725,0,0,1,2.612-1.175,12.406,12.406,0,0,1,6.236,1.267" transform="translate(-373.495 -1039.796)" fill="#acacac"/>
                  <path id="Path_787" data-name="Path 787" d="M398.214,1183.868c.56,1.337,1.116,2.535,1.628,3.571-3.9,1.076-6.978.643-5-1.815a5.225,5.225,0,0,1,3.367-1.755" transform="translate(-389.324 -1148.185)" fill="#acacac"/>
                  <path id="Path_788" data-name="Path 788" d="M387.236,1155.476c.406,1.291.838,2.511,1.277,3.65-3.8,1-6.724.538-4.778-1.874a5.3,5.3,0,0,1,3.5-1.776" transform="translate(-380.286 -1125.093)" fill="#acacac"/>
                  <path id="Path_789" data-name="Path 789" d="M381.054,1124.26c.262,1.3.566,2.562.9,3.771-3.386.73-5.774.17-3.969-2.068a5.074,5.074,0,0,1,3.071-1.7" transform="translate(-375.608 -1099.704)" fill="#acacac"/>
                  <path id="Path_790" data-name="Path 790" d="M372.539,1090.621c.094,1.3.24,2.565.427,3.8-3.6.869-6.268.357-4.39-1.972a5.552,5.552,0,0,1,3.962-1.83" transform="translate(-367.957 -1072.344)" fill="#acacac"/>
                  <path id="Path_791" data-name="Path 791" d="M378.149,1050.948q-.156,1.625-.185,3.218c-2.647.272-4.229-.38-2.427-2.043a4.726,4.726,0,0,1,2.612-1.176" transform="translate(-373.495 -1040.077)" fill="#acacac"/>
                  <path id="Path_792" data-name="Path 792" d="M484.409,1151.951c2.773-1.788,5.059-2.06,4.254.6-.559,1.848-2.322,2.98-4.2,3.672.028-1.054.032-2.514-.053-4.273" transform="translate(-462.671 -1121.111)" fill="#acacac"/>
                  <path id="Path_793" data-name="Path 793" d="M481.662,1124.952c2.238-1.164,3.849-1.053,3.153,1.244a5.3,5.3,0,0,1-2.717,3c-.089-1.3-.228-2.728-.436-4.249" transform="translate(-460.437 -1099.676)" fill="#acacac"/>
                  <path id="Path_794" data-name="Path 794" d="M475.639,1094.386c1.846-.772,3.049-.457,2.431,1.584a4.663,4.663,0,0,1-1.632,2.29c-.215-1.25-.478-2.547-.8-3.875" transform="translate(-455.538 -1075.092)" fill="#acacac"/>
                  <path id="Path_795" data-name="Path 795" d="M465.547,1059.8c2.264-1.192,3.9-1.1,3.2,1.218a4.843,4.843,0,0,1-1.958,2.535c-.359-1.238-.771-2.493-1.245-3.753" transform="translate(-447.33 -1046.661)" fill="#acacac"/>
                  <path id="Path_796" data-name="Path 796" d="M454.791,1029.392a4.524,4.524,0,0,1-1.431,2.166q-.651-1.453-1.422-2.894c1.984-1.374,3.494-1.49,2.853.728" transform="translate(-436.262 -1021.145)" fill="#acacac"/>
                </g>
              </g>
            </g>
            <g id="Group_1693" data-name="Group 1693" transform="translate(83.052 16.989)" opacity="0.3">
              <g id="Group_1692" data-name="Group 1692">
                <g id="Group_1691" data-name="Group 1691" clip-path="url(#clip-path-4)">
                  <path id="Path_797" data-name="Path 797" d="M449.892,1144.842c.83-1.008,20.424-24.708,29.112-25.627l.058.548c-8.465.895-28.543,25.184-28.745,25.429Z" transform="translate(-448.964 -1112.589)" fill="#acacac"/>
                  <path id="Path_798" data-name="Path 798" d="M565.444,1154.169a4.841,4.841,0,0,1-3.169-.46c-3.236-1.542-5.784-5.738-5.784-5.738a20.18,20.18,0,0,1,8.441,2.811c2.15,1.386,2.872,2.861.512,3.388" transform="translate(-535.664 -1135.977)" fill="#acacac"/>
                  <path id="Path_799" data-name="Path 799" d="M496.657,1132.133c.041.2.06.311.06.311q-.148-.076-.3-.155a21.2,21.2,0,0,1-5.609-4.435c-2.3-2.591-2.984-4.946-.149-4.473a5.075,5.075,0,0,1,2.992,1.839c1.933,2.254,2.783,5.844,3,6.914" transform="translate(-480.609 -1115.928)" fill="#acacac"/>
                  <path id="Path_800" data-name="Path 800" d="M472.012,1152.98a21.11,21.11,0,0,1-5.338-3.98c-2.737-2.816-3.772-5.592-.715-5.083a5.3,5.3,0,0,1,3.267,2.178,18.119,18.119,0,0,1,2.786,6.885" transform="translate(-460.516 -1132.631)" fill="#acacac"/>
                  <path id="Path_801" data-name="Path 801" d="M452.836,1176.555a21.1,21.1,0,0,1-5.18-3.82c-2.854-2.87-3.988-5.762-.873-5.243a5.225,5.225,0,0,1,3.183,2.071,17.925,17.925,0,0,1,2.87,6.992" transform="translate(-444.919 -1151.805)" fill="#acacac"/>
                  <path id="Path_802" data-name="Path 802" d="M520.8,1108.06a21.128,21.128,0,0,1-5.614-4.271c-2.527-2.712-3.391-5.284-.439-4.792a5.552,5.552,0,0,1,3.541,2.552,18.746,18.746,0,0,1,2.512,6.51" transform="translate(-500.199 -1096.096)" fill="#acacac"/>
                  <path id="Path_803" data-name="Path 803" d="M537.926,1176.534a4.663,4.663,0,0,1-2.8-.3c-2.99-1.209-5.468-4.832-6.035-5.71-.08-.124-.122-.193-.122-.193.119.011.239.023.358.037a19.269,19.269,0,0,1,8.781,3.266c1.58,1.229,1.9,2.431-.186,2.9" transform="translate(-513.283 -1154.167)" fill="#acacac"/>
                  <path id="Path_804" data-name="Path 804" d="M516.458,1200a5.3,5.3,0,0,1-3.952-.891,18.468,18.468,0,0,1-5-5.308,20.139,20.139,0,0,1,8.488,2.841c2.114,1.377,2.808,2.835.465,3.358" transform="translate(-495.822 -1173.251)" fill="#acacac"/>
                  <path id="Path_805" data-name="Path 805" d="M497.748,1220.472c-1.884.421-3.736-.559-5.262-1.855a20.358,20.358,0,0,1-3.691-4.343,20.746,20.746,0,0,1,7.387,2.2c2.919,1.537,4.279,3.395,1.566,4" transform="translate(-480.605 -1189.903)" fill="#acacac"/>
                  <path id="Path_806" data-name="Path 806" d="M592.182,1132.03a4.525,4.525,0,0,1-2.589-.182c-2.862-1.016-5.022-4.315-5.022-4.315a18.407,18.407,0,0,1,6.843,1.654c2.171,1.053,3.015,2.311.768,2.842" transform="translate(-558.503 -1119.354)" fill="#acacac"/>
                  <path id="Path_807" data-name="Path 807" d="M612.664,1109.378a12.38,12.38,0,0,1-3.722.439,18.849,18.849,0,0,1-4.491-.593s3.041-2.632,6.114-2.669a4.517,4.517,0,0,1,2.36.594l.069.041c1.554.931,1.118,1.724-.33,2.188" transform="translate(-574.672 -1102.292)" fill="#acacac"/>
                  <path id="Path_808" data-name="Path 808" d="M560.871,1091.65a19.008,19.008,0,0,1-4.853-4.634c-1.538-2.172-1.747-3.871.587-3.118a4.725,4.725,0,0,1,2.307,1.7,12.407,12.407,0,0,1,1.959,6.054" transform="translate(-534.335 -1083.718)" fill="#acacac"/>
                  <path id="Path_809" data-name="Path 809" d="M449.966,1169.562c-.89,1.145-1.66,2.217-2.31,3.173-2.854-2.87-3.988-5.762-.873-5.243a5.226,5.226,0,0,1,3.183,2.07" transform="translate(-444.919 -1151.805)" fill="#acacac"/>
                  <path id="Path_810" data-name="Path 810" d="M469.226,1146.095c-.925.987-1.775,1.963-2.551,2.905-2.737-2.816-3.772-5.592-.715-5.083a5.3,5.3,0,0,1,3.267,2.178" transform="translate(-460.516 -1132.631)" fill="#acacac"/>
                  <path id="Path_811" data-name="Path 811" d="M493.656,1125.22c-1.006.868-1.954,1.752-2.843,2.635-2.3-2.591-2.984-4.945-.149-4.473a5.074,5.074,0,0,1,2.992,1.839" transform="translate(-480.609 -1115.928)" fill="#acacac"/>
                  <path id="Path_812" data-name="Path 812" d="M518.29,1101.549c-1.082.718-2.116,1.469-3.1,2.24-2.527-2.712-3.391-5.284-.439-4.792a5.551,5.551,0,0,1,3.541,2.552" transform="translate(-500.199 -1096.096)" fill="#acacac"/>
                  <path id="Path_813" data-name="Path 813" d="M558.912,1085.6q-1.492.662-2.894,1.42c-1.538-2.172-1.746-3.87.587-3.117a4.724,4.724,0,0,1,2.307,1.7" transform="translate(-534.335 -1083.718)" fill="#acacac"/>
                  <path id="Path_814" data-name="Path 814" d="M512.264,1226.049c2.919,1.537,4.279,3.395,1.566,4-1.884.421-3.736-.558-5.262-1.855.931-.494,2.205-1.207,3.7-2.145" transform="translate(-496.687 -1199.481)" fill="#acacac"/>
                  <path id="Path_815" data-name="Path 815" d="M537.782,1209.016c2.113,1.378,2.808,2.835.465,3.358a5.3,5.3,0,0,1-3.952-.89c1.088-.716,2.264-1.539,3.487-2.467" transform="translate(-517.611 -1185.627)" fill="#acacac"/>
                  <path id="Path_816" data-name="Path 816" d="M564.938,1188.027c1.58,1.229,1.9,2.431-.186,2.9a4.664,4.664,0,0,1-2.8-.3c.983-.8,1.983-1.667,2.982-2.6" transform="translate(-540.109 -1168.556)" fill="#acacac"/>
                  <path id="Path_817" data-name="Path 817" d="M590.135,1163.028c2.15,1.386,2.872,2.861.512,3.388a4.843,4.843,0,0,1-3.17-.46c.9-.921,1.793-1.9,2.658-2.928" transform="translate(-560.866 -1148.224)" fill="#acacac"/>
                  <path id="Path_818" data-name="Path 818" d="M614.062,1139.237a4.526,4.526,0,0,1-2.589-.182q.946-1.281,1.822-2.66c2.172,1.053,3.015,2.311.768,2.842" transform="translate(-580.383 -1126.562)" fill="#acacac"/>
                </g>
              </g>
            </g>
            <path id="Path_819" data-name="Path 819" d="M76.465,1192.886l2.606.382a15.414,15.414,0,0,0-.723-6.637l-2.88.953-2.856-5.467L74.565,1180a18.349,18.349,0,0,0-4.528-3.8l-1.516,2.991-1.438-.257a15.5,15.5,0,0,0-5.216-1.426l-.285-3.819a18.06,18.06,0,0,0-6.176.813l1.2,3.439a15.42,15.42,0,0,0-5.943,3.056l-2.654-2.111a19.5,19.5,0,0,0-3.622,4.712l2.5,2.059a15.491,15.491,0,0,0-1.719,5.994l-3.211.392a19.63,19.63,0,0,0,.725,6.6l3.255-.908a15.439,15.439,0,0,0,3.56,5.8l-2.177,3.149a18.226,18.226,0,0,0,4.625,3.463l1.681-3.584.042.006a15.49,15.49,0,0,0,6.678,1.595l.427,4.041a18.092,18.092,0,0,0,5.13-.875l-.664-3.828.444-.243a15.446,15.446,0,0,0,4.2-2.3l1.338-.735,2.223,2.486a19.552,19.552,0,0,0,4.077-5.94l-2.475-1.595,1.428-6.286m-6.569.483a9.309,9.309,0,1,1-6.239-9.47,9.313,9.313,0,0,1,6.239,9.47" transform="translate(-34.093 -1139.89)" fill="#acacac"/>
            <path id="Path_820" data-name="Path 820" d="M160.411,1385.771l1.872.274a11.066,11.066,0,0,0-.519-4.767l-2.069.684-2.051-3.926,1.4-1.521a13.182,13.182,0,0,0-3.252-2.73l-1.089,2.148-1.033-.185a11.148,11.148,0,0,0-3.746-1.024l-.2-2.743a12.973,12.973,0,0,0-4.436.584l.859,2.47a11.074,11.074,0,0,0-4.269,2.2l-1.906-1.516a14.007,14.007,0,0,0-2.6,3.385l1.795,1.479a11.129,11.129,0,0,0-1.234,4.3l-2.306.281a14.1,14.1,0,0,0,.521,4.742l2.338-.652a11.088,11.088,0,0,0,2.556,4.167l-1.564,2.262a13.093,13.093,0,0,0,3.322,2.487l1.207-2.574.03,0a11.131,11.131,0,0,0,4.8,1.145l.307,2.9a13.006,13.006,0,0,0,3.684-.629l-.477-2.749.319-.175a11.079,11.079,0,0,0,3.014-1.654l.961-.528,1.6,1.786a14.046,14.046,0,0,0,2.928-4.266l-1.778-1.146,1.026-4.515m-4.718.347a6.686,6.686,0,1,1-4.481-6.8,6.689,6.689,0,0,1,4.481,6.8" transform="translate(-110.285 -1301.173)" fill="#acacac"/>
            <path id="Path_821" data-name="Path 821" d="M387.206,1190.962v90.352a9.534,9.534,0,0,1-9.556,9.511H229.516a9.534,9.534,0,0,1-9.556-9.511v-90.352a9.534,9.534,0,0,1,9.556-9.511H377.65a9.534,9.534,0,0,1,9.556,9.511" transform="translate(-178.901 -1146.219)" fill="#e5e5e4"/>
            <path id="Path_822" data-name="Path 822" d="M387.206,1190.962v7.479H219.96v-7.479a9.534,9.534,0,0,1,9.556-9.511H377.65a9.534,9.534,0,0,1,9.556,9.511" transform="translate(-178.901 -1146.219)" fill="#b8432a"/>
            <path id="Path_823" data-name="Path 823" d="M994.605,1213.914a3.384,3.384,0,1,1-3.384-3.368,3.376,3.376,0,0,1,3.384,3.368" transform="translate(-803.442 -1169.883)" fill="#fff"/>
            <path id="Path_824" data-name="Path 824" d="M924.551,1213.914a3.384,3.384,0,1,1-3.384-3.368,3.376,3.376,0,0,1,3.384,3.368" transform="translate(-746.464 -1169.883)" fill="#fff"/>
            <path id="Path_825" data-name="Path 825" d="M897.469,1318.865H871.807a7.107,7.107,0,0,1-7.107-7.107v-3.379a7.107,7.107,0,0,1,7.107-7.107h25.661a7.107,7.107,0,0,1,7.107,7.107v3.379a7.107,7.107,0,0,1-7.107,7.107" transform="translate(-703.29 -1243.674)" fill="#fff"/>
            <path id="Path_826" data-name="Path 826" d="M897.361,1439.742H867.649a5.577,5.577,0,0,1-5.571-5.571v-7.43a5.578,5.578,0,0,1,5.571-5.571h29.712a5.578,5.578,0,0,1,5.571,5.571v7.43a5.577,5.577,0,0,1-5.571,5.571m-29.712-17.593a4.6,4.6,0,0,0-4.592,4.592v7.43a4.6,4.6,0,0,0,4.592,4.592h29.712a4.6,4.6,0,0,0,4.592-4.592v-7.43a4.6,4.6,0,0,0-4.592-4.592Z" transform="translate(-701.157 -1341.191)" fill="#fff"/>
            <path id="Path_827" data-name="Path 827" d="M896.9,1568.547H868.108a6.036,6.036,0,0,1-6.03-6.03V1556a6.036,6.036,0,0,1,6.03-6.03H896.9a6.036,6.036,0,0,1,6.029,6.03v6.513a6.036,6.036,0,0,1-6.029,6.03m-28.795-17.593a5.056,5.056,0,0,0-5.05,5.05v6.513a5.056,5.056,0,0,0,5.05,5.05H896.9a5.056,5.056,0,0,0,5.05-5.05V1556a5.056,5.056,0,0,0-5.05-5.05Z" transform="translate(-701.157 -1445.952)" fill="#fff"/>
            <path id="Path_828" data-name="Path 828" d="M303.87,1709.406H293.006a.948.948,0,0,1-.948-.948v-.451a.947.947,0,0,1,.948-.948H303.87a.947.947,0,0,1,.948.948v.451a.948.948,0,0,1-.948.948" transform="translate(-237.541 -1573.715)" fill="#fff"/>
            <path id="Path_829" data-name="Path 829" d="M383.619,1709.057H372.755a.947.947,0,0,1-.948-.947v-.451a.947.947,0,0,1,.948-.948h10.865a.948.948,0,0,1,.948.948v.451a.948.948,0,0,1-.948.947" transform="translate(-302.403 -1573.431)" fill="#fff"/>
            <path id="Path_830" data-name="Path 830" d="M454.613,1709.406h-4.958a.948.948,0,0,1-.948-.948v-.451a.947.947,0,0,1,.948-.948h4.958a.947.947,0,0,1,.948.948v.451a.948.948,0,0,1-.948.948" transform="translate(-364.949 -1573.715)" fill="#fff"/>
            <path id="Path_831" data-name="Path 831" d="M509.572,1709.406H498.708a.947.947,0,0,1-.948-.948v-.451a.947.947,0,0,1,.948-.948h10.865a.947.947,0,0,1,.948.948v.451a.948.948,0,0,1-.948.948" transform="translate(-404.845 -1573.715)" fill="#fff"/>
            <path id="Path_832" data-name="Path 832" d="M589.321,1709.057H578.456a.947.947,0,0,1-.948-.947v-.451a.947.947,0,0,1,.948-.948h10.865a.947.947,0,0,1,.948.948v.451a.947.947,0,0,1-.948.947" transform="translate(-469.707 -1573.431)" fill="#fff"/>
            <path id="Path_833" data-name="Path 833" d="M660.315,1709.406h-4.957a.948.948,0,0,1-.948-.948v-.451a.947.947,0,0,1,.948-.948h4.957a.947.947,0,0,1,.948.948v.451a.948.948,0,0,1-.948.948" transform="translate(-532.253 -1573.715)" fill="#fff"/>
            <path id="Path_834" data-name="Path 834" d="M714.379,1709.406H703.515a.947.947,0,0,1-.948-.948v-.451a.947.947,0,0,1,.948-.948h10.865a.947.947,0,0,1,.948.948v.451a.948.948,0,0,1-.948.948" transform="translate(-571.421 -1573.715)" fill="#fff"/>
            <path id="Path_835" data-name="Path 835" d="M794.128,1709.057H783.264a.947.947,0,0,1-.948-.947v-.451a.947.947,0,0,1,.948-.948h10.865a.948.948,0,0,1,.948.948v.451a.948.948,0,0,1-.948.947" transform="translate(-636.284 -1573.431)" fill="#fff"/>
            <path id="Path_836" data-name="Path 836" d="M865.122,1709.406h-4.957a.948.948,0,0,1-.948-.948v-.451a.947.947,0,0,1,.948-.948h4.957a.947.947,0,0,1,.948.948v.451a.948.948,0,0,1-.948.948" transform="translate(-698.83 -1573.715)" fill="#fff"/>
            <path id="Path_837" data-name="Path 837" d="M920.081,1709.406H909.216a.948.948,0,0,1-.948-.948v-.451a.947.947,0,0,1,.948-.948h10.865a.947.947,0,0,1,.948.948v.451a.948.948,0,0,1-.948.948" transform="translate(-738.725 -1573.715)" fill="#fff"/>
            <path id="Path_838" data-name="Path 838" d="M999.831,1709.057H988.966a.947.947,0,0,1-.948-.947v-.451a.947.947,0,0,1,.948-.948h10.865a.948.948,0,0,1,.948.948v.451a.947.947,0,0,1-.948.947" transform="translate(-803.589 -1573.431)" fill="#fff"/>
            <path id="Path_839" data-name="Path 839" d="M1070.824,1709.406h-4.958a.948.948,0,0,1-.948-.948v-.451a.947.947,0,0,1,.948-.948h4.958a.947.947,0,0,1,.948.948v.451a.948.948,0,0,1-.948.948" transform="translate(-866.134 -1573.715)" fill="#fff"/>
            <rect id="Rectangle_211" data-name="Rectangle 211" width="50.587" height="64.027" rx="8" transform="translate(102.688 57.734)" fill="#fff"/>
            <rect id="Rectangle_212" data-name="Rectangle 212" width="48.72" height="64.027" rx="8" transform="translate(49.925 57.734)" fill="#382a28"/>
            <path id="Path_841" data-name="Path 841" d="M270.435,1485.026v20.141a7.309,7.309,0,0,0,7.309,7.309h88.239a7.309,7.309,0,0,0,7.309-7.309v-18.478c-12.039-4.975-21.262-5.415-27.525-4.872-17.922,1.557-25.343,12.366-40.563,10.22-6.368-.9-6.563-3-17.384-5.11-5.471-1.066-12.022-2.344-17.384-1.9" transform="translate(-219.954 -1390.371)" fill="#e5e5e4"/>
            <path id="Path_842" data-name="Path 842" d="M411.763,1346.082a11.346,11.346,0,1,0,11.346-11.346,11.346,11.346,0,0,0-11.346,11.346" transform="translate(-294.037 -1270.891)" fill="#feaf30"/>
            <path id="Subtraction_2" data-name="Subtraction 2" d="M11.346,22.16A11.3,11.3,0,0,1,5,20.222,11.381,11.381,0,0,1,.892,15.23,11.336,11.336,0,0,1,2.232,4.055,11.368,11.368,0,0,1,7.9,0,11.406,11.406,0,0,0,3.728,4.082a11.333,11.333,0,0,0,.346,12.142,11.381,11.381,0,0,0,4.992,4.111,11.4,11.4,0,0,0,7.862.359,11.294,11.294,0,0,1-5.582,1.466Z" transform="translate(63.614 64.377)" fill="#b8432a" stroke="rgba(0,0,0,0)" stroke-width="1"/>
            <path id="Path_843" data-name="Path 843" d="M270.436,1545.957v8.384a6.361,6.361,0,0,0,6.361,6.361h90.071a6.361,6.361,0,0,0,6.361-6.361V1544.32c-5.362-.443-11.913.835-17.384,1.9-10.822,2.11-11.016,4.212-17.384,5.11-15.221,2.146-22.642-8.663-40.564-10.22-6.252-.543-15.454-.1-27.461,4.845" transform="translate(-219.955 -1438.597)" fill="#acacac"/>
            <rect id="Rectangle_196" data-name="Rectangle 196" width="34.507" height="0.979" transform="translate(164.208 61.108)" fill="#4a3732"/>
            <rect id="Rectangle_197" data-name="Rectangle 197" width="34.559" height="0.979" transform="translate(164.207 65.856)" fill="#4a3732"/>
            <rect id="Rectangle_198" data-name="Rectangle 198" width="34.559" height="0.979" transform="translate(164.207 70.511)" fill="#4a3732"/>
            <path id="Path_844" data-name="Path 844" d="M1145.88,1275.921h-10.3a3.1,3.1,0,0,1-3.088-3.088v-8.927a3.1,3.1,0,0,1,3.088-3.088h10.3a3.1,3.1,0,0,1,3.088,3.088v8.927a3.1,3.1,0,0,1-3.088,3.088" transform="translate(-921.09 -1210.772)" fill="#fff"/>
            <path id="Path_845" data-name="Path 845" d="M1165.665,1273.209a2.384,2.384,0,0,1,1.916.711,2.849,2.849,0,0,1,.606,1.912,3.248,3.248,0,0,1-.17,1.1,4.589,4.589,0,0,1-.412.867,5.088,5.088,0,0,1-.542.726,7.641,7.641,0,0,0-.542.674,4,4,0,0,0-.412.734,2.2,2.2,0,0,0-.17.882,2.139,2.139,0,0,0,.081.563h-1.132c-.022-.089-.04-.18-.057-.274a1.869,1.869,0,0,1-.024-.319,2.936,2.936,0,0,1,.154-.993,3.445,3.445,0,0,1,.4-.785q.242-.356.509-.682t.509-.689a3.514,3.514,0,0,0,.4-.808,3.227,3.227,0,0,0,.153-1.052,1.856,1.856,0,0,0-.3-1.119,1.408,1.408,0,0,0-1.989.007,1.861,1.861,0,0,0-.3,1.111v.919h-1.181v-.845a3.7,3.7,0,0,1,.146-1.074,2.194,2.194,0,0,1,.453-.83,2.047,2.047,0,0,1,.784-.541,2.991,2.991,0,0,1,1.124-.193m.372,10.477h-1.2v-1.437h1.2Z" transform="translate(-946.036 -1220.849)" fill="#ad9b9a"/>
            <g id="Group_1696" data-name="Group 1696" transform="translate(209.983 62.078)" opacity="0.3">
              <g id="Group_1695" data-name="Group 1695">
                <g id="Group_1694" data-name="Group 1694" clip-path="url(#clip-path-5)">
                  <path id="Path_846" data-name="Path 846" d="M1147.564,1450.933c1.076-1.634,26.327-40.171,23.8-53.014l-.81.16c2.466,12.513-23.414,52-23.676,52.4Z" transform="translate(-1142.775 -1384.358)" fill="#acacac"/>
                  <path id="Path_847" data-name="Path 847" d="M1189.87,1415.736a7.256,7.256,0,0,0,2.062,4.333c3.639,3.95,10.773,5.739,10.773,5.739a30.238,30.238,0,0,0-7.759-10.839c-2.936-2.464-5.366-2.844-5.076.767" transform="translate(-1177.725 -1396.682)" fill="#acacac"/>
                  <path id="Path_848" data-name="Path 848" d="M1235.719,1527.295c-.3.03-.471.052-.471.052q.174.179.352.355a31.758,31.758,0,0,0,8.83,6.065c4.726,2.144,8.4,2.083,6.469-1.767a7.6,7.6,0,0,0-3.956-3.469c-4.081-1.769-9.6-1.4-11.225-1.236" transform="translate(-1214.652 -1489.465)" fill="#acacac"/>
                  <path id="Path_849" data-name="Path 849" d="M1216.786,1571.8a31.628,31.628,0,0,0,8.06,5.878c5.242,2.672,9.674,2.924,7.592-1.226a7.935,7.935,0,0,0-4.563-3.712c-4.785-1.781-11.089-.94-11.089-.94" transform="translate(-1199.636 -1525.618)" fill="#acacac"/>
                  <path id="Path_850" data-name="Path 850" d="M1191.531,1609.68a31.611,31.611,0,0,0,7.76,5.724c5.371,2.815,10.013,3.158,7.891-1.071a7.829,7.829,0,0,0-4.373-3.64c-4.807-1.875-11.279-1.013-11.279-1.013" transform="translate(-1179.095 -1556.43)" fill="#acacac"/>
                  <path id="Path_851" data-name="Path 851" d="M1259.491,1482.079a31.65,31.65,0,0,0,8.6,6.145c5,2.417,9.064,2.515,7.054-1.493a8.318,8.318,0,0,0-5.221-3.938,28.082,28.082,0,0,0-10.431-.714" transform="translate(-1234.369 -1452.647)" fill="#acacac"/>
                  <path id="Path_852" data-name="Path 852" d="M1170.039,1465.024a6.986,6.986,0,0,0,1.662,3.872c3.054,3.744,9.337,5.688,10.844,6.111.213.06.33.089.33.089q-.1-.248-.211-.5c-2.085-4.758-5.721-9.14-8.561-11.124-2.458-1.717-4.319-1.638-4.063,1.548" transform="translate(-1161.596 -1436.77)" fill="#acacac"/>
                  <path id="Path_853" data-name="Path 853" d="M1145.957,1506.139a7.935,7.935,0,0,0,3.024,5.263c3.8,3.3,9.811,4.809,9.811,4.809a30.173,30.173,0,0,0-7.823-10.892c-2.907-2.416-5.3-2.765-5.012.82" transform="translate(-1142.009 -1470.21)" fill="#acacac"/>
                  <path id="Path_854" data-name="Path 854" d="M1124.93,1541.982c.232,2.883,2.453,5.1,4.985,6.711a30.5,30.5,0,0,0,7.851,3.36,31.082,31.082,0,0,0-6.416-9.6c-3.492-3.5-6.753-4.623-6.419-.472" transform="translate(-1124.907 -1499.363)" fill="#acacac"/>
                  <path id="Path_855" data-name="Path 855" d="M1222.956,1374.041a6.781,6.781,0,0,0,1.407,3.626c2.721,3.646,8.4,5.278,8.4,5.278a27.579,27.579,0,0,0-5.4-9.063c-2.468-2.642-4.643-3.292-4.408.159" transform="translate(-1204.64 -1363.011)" fill="#acacac"/>
                  <path id="Path_856" data-name="Path 856" d="M1255.659,1327.65a18.564,18.564,0,0,0,1.019,5.522,28.249,28.249,0,0,0,2.837,6.166s2.422-5.518,1.115-9.933a6.767,6.767,0,0,0-1.9-3.115l-.088-.08c-2.021-1.812-2.963-.837-2.987,1.441" transform="translate(-1231.252 -1325.266)" fill="#acacac"/>
                  <path id="Path_857" data-name="Path 857" d="M1276.335,1425.313a28.479,28.479,0,0,0,8.781,4.9c3.789,1.24,6.313.787,4.2-2.22a7.08,7.08,0,0,0-3.451-2.551c-4.175-1.534-9.533-.125-9.533-.125" transform="translate(-1248.069 -1406.158)" fill="#acacac"/>
                  <path id="Path_858" data-name="Path 858" d="M1236.623,1615.969c-1.244,1.78-2.438,3.357-3.519,4.711,5.371,2.815,10.013,3.157,7.891-1.071a7.829,7.829,0,0,0-4.373-3.64" transform="translate(-1212.908 -1561.705)" fill="#acacac"/>
                  <path id="Path_859" data-name="Path 859" d="M1262.992,1577.7c-1,1.761-2.024,3.41-3.029,4.938,5.242,2.672,9.674,2.924,7.592-1.226a7.935,7.935,0,0,0-4.563-3.712" transform="translate(-1234.753 -1530.579)" fill="#acacac"/>
                  <path id="Path_860" data-name="Path 860" d="M1286.955,1534.552c-.8,1.824-1.642,3.572-2.513,5.236,4.726,2.144,8.4,2.083,6.469-1.767a7.6,7.6,0,0,0-3.956-3.469" transform="translate(-1254.663 -1495.486)" fill="#acacac"/>
                  <path id="Path_861" data-name="Path 861" d="M1307.381,1486.769c-.549,1.867-1.166,3.679-1.833,5.431,5,2.417,9.064,2.514,7.054-1.493a8.318,8.318,0,0,0-5.221-3.938" transform="translate(-1271.829 -1456.623)" fill="#acacac"/>
                  <path id="Path_862" data-name="Path 862" d="M1324.131,1428.557q-.288,2.429-.751,4.771c3.789,1.24,6.313.787,4.2-2.22a7.08,7.08,0,0,0-3.452-2.551" transform="translate(-1286.332 -1409.277)" fill="#acacac"/>
                  <path id="Path_863" data-name="Path 863" d="M1131.349,1542.454c-3.492-3.5-6.753-4.622-6.419-.471.232,2.883,2.453,5.1,4.985,6.711.293-1.552.752-3.691,1.434-6.24" transform="translate(-1124.907 -1499.363)" fill="#acacac"/>
                  <path id="Path_864" data-name="Path 864" d="M1150.969,1505.318c-2.907-2.416-5.3-2.765-5.012.82a7.937,7.937,0,0,0,3.024,5.263c.544-1.875,1.2-3.922,1.988-6.083" transform="translate(-1142.009 -1470.21)" fill="#acacac"/>
                  <path id="Path_865" data-name="Path 865" d="M1174.1,1463.476c-2.458-1.717-4.319-1.638-4.063,1.548a6.988,6.988,0,0,0,1.662,3.872c.712-1.761,1.509-3.577,2.4-5.42" transform="translate(-1161.596 -1436.77)" fill="#acacac"/>
                  <path id="Path_866" data-name="Path 866" d="M1194.946,1414.969c-2.936-2.464-5.366-2.844-5.076.767a7.255,7.255,0,0,0,2.062,4.333c.919-1.7,1.922-3.405,3.014-5.1" transform="translate(-1177.725 -1396.682)" fill="#acacac"/>
                  <path id="Path_867" data-name="Path 867" d="M1222.956,1374.041a6.781,6.781,0,0,0,1.407,3.626q1.414-1.922,3-3.785c-2.468-2.642-4.643-3.292-4.408.159" transform="translate(-1204.64 -1363.011)" fill="#acacac"/>
                </g>
              </g>
            </g>
            <path id="Path_868" data-name="Path 868" d="M133.854,1541.622a21.972,21.972,0,0,1-11.423,5.55,30.874,30.874,0,0,1-15.536-1.351,30.545,30.545,0,0,1-18.2-19.144,27.484,27.484,0,0,1-1.433-8.687c0-.416,0-1.037.039-1.8.177-3.74,1.15-10.907,6.743-14.162,3.261-1.9,8.155-2.5,11.63-.392a6.109,6.109,0,0,1,.922.673c1.838,1.637,1.9,3.989,6.061,10.535,4.052,6.371,6.087,7.436,7.412,7.889,2.456.84,3.352-.119,7.122-.017,1.191.032,9.673.26,12.317,4.484,2.707,4.326-1.143,12.131-5.65,16.424" transform="translate(-70.971 -1405.552)" fill="#feaf30"/>
            <path id="Path_869" data-name="Path 869" d="M140.1,1550.35a21.97,21.97,0,0,1-11.423,5.55,30.873,30.873,0,0,1-15.536-1.351,30.545,30.545,0,0,1-18.2-19.144c4.409-7.263,12.241-19.461,17.9-24.371,1.838,1.637,1.9,3.989,6.061,10.535,4.052,6.371,6.087,7.436,7.412,7.89,2.456.84,3.352-.119,7.122-.017,1.191.032,9.673.26,12.317,4.484,2.707,4.326-1.143,12.131-5.65,16.424" transform="translate(-77.214 -1414.281)" fill="#feaf30"/>
            <rect id="Rectangle_200" data-name="Rectangle 200" width="3.53" height="34.411" transform="translate(36.649 135.744)" fill="#382a28"/>
            <path id="Path_870" data-name="Path 870" d="M410.673,1503.7l-.359-.285-2.6.992-1.292,8.426.363.263Z" transform="translate(-330.554 -1408.085)" fill="#9b8786"/>
            <path id="Path_871" data-name="Path 871" d="M409.413,1505.965l-1.393,8.425,2.727-1.953,1.239-7.489Z" transform="translate(-331.856 -1409.33)" fill="#3b1e13"/>
            <path id="Path_872" data-name="Path 872" d="M388.242,1521.388c.083-.186.292-.7.493-1.336.313-.983.385-1.549.625-1.571.183-.017.348.292.43.446a1.81,1.81,0,0,1,.118,1.308c.164-.116.47-.337.831-.639,1.606-1.343,2.493-2.759,2.85-2.566a.219.219,0,0,1,.07.071c.218.292-.089.858-.176,1.02a5.858,5.858,0,0,1-.88,1.09c.027.033.44-.42.809-.316a.552.552,0,0,1,.387.528c-.045.417-.825.717-.818.729s.008,0,.008,0a1.5,1.5,0,0,1,.634-.129.484.484,0,0,1,.352.211c.114.224-.117.654-.634,1,.185-.141.365-.191.457-.122s.075.224.07.281c-.047.526-1.045,1.123-1.407,1.336-1.216.714-1.843,1.081-2.814,1.546-.444.212-.87.4-1.393.6-.433.163-.8.281-1.079.362l-1.264-1.678a4.539,4.539,0,0,0,2.331-2.168" transform="translate(-313.874 -1419.143)" fill="#fff"/>
            <path id="Path_873" data-name="Path 873" d="M317.152,1605.439s5.2,1.3,5.76,2.044,2.416,3.53,1.858,3.344-1.858-2.6-1.858-2.6,1.858,2.6,1.487,2.973-2.044-2.229-2.044-2.229a15.486,15.486,0,0,1,1.486,2.229,23.6,23.6,0,0,1-2.23-1.858l-1.486-.743s1.115,1.115.929,1.3a2.587,2.587,0,0,1-2.044-.929c-.186-.558-2.23-1.3-2.23-1.3Z" transform="translate(-257.648 -1491.063)" fill="#e5855e"/>
            <path id="Path_874" data-name="Path 874" d="M237.87,1510.157s-9.1,13.936-8.733,15.237,13.192,6.5,15.98,6.132l2.23-4.088-8.175-4.459s6.689-7.433,5.388-10.22-2.973-4.088-6.689-2.6" transform="translate(-186.356 -1413.061)" fill="#475384"/>
            <path id="Path_875" data-name="Path 875" d="M250.815,1455.243s-4.508-1.155-5.18,2.268,2.918,3.317,4.807,2.1.373-4.363.373-4.363" transform="translate(-199.716 -1368.751)" fill="#553e37"/>
            <path id="Path_876" data-name="Path 876" d="M276.909,1477.234l-.6,1.285-.575,1.232-1.7,3.646-6.578-2.136c.935-.9,1.9-1.907,2.883-3.016.782-.885,1.5-1.755,2.15-2.6l2.328.606.656.306Z" transform="translate(-217.529 -1385.5)" fill="#fff"/>
            <path id="Path_877" data-name="Path 877" d="M300.73,1479.885l-.575,1.232a3.917,3.917,0,0,1-2.67-2.088c-.119-.314,1.736-1.32,1.75-1.408.1-.65.465-.066.656.306.073.142.122.254.122.254Z" transform="translate(-241.95 -1386.867)" fill="#acacac"/>
            <path id="Path_878" data-name="Path 878" d="M292.833,1437.449a.437.437,0,0,1-.1.158,1.816,1.816,0,0,0-.161.206l-.018.026a2.231,2.231,0,0,1-.212.326,1.535,1.535,0,0,1-.207.193c-.312.239-1.247,1.672-1.475,1.9-1.035,1.028-9.123-1.291-9.142-6.387-.011-2.919,2.644-6.113,5.768-6.181,2.6-.057,5.268,2.056,5.19,3.495a5.323,5.323,0,0,0-.018,2.813.7.7,0,0,0,.043.113.842.842,0,0,0,.1.156c.164.21.128,2.114.251,2.782a.715.715,0,0,1-.014.4" transform="translate(-228.966 -1346.493)" fill="#fff"/>
            <path id="Path_879" data-name="Path 879" d="M339.984,1460.867c.318.49.588.881.782,1.155.325.459.472.642.433.859-.071.4-.7.559-.843.594Z" transform="translate(-276.52 -1373.478)" fill="#fff" opacity="0.928"/>
            <path id="Path_880" data-name="Path 880" d="M331.675,1459.214c-.01.266-.146.477-.306.471s-.281-.226-.271-.492.146-.477.305-.471.281.226.271.492" transform="translate(-269.293 -1371.733)" fill="#3b1e13"/>
            <path id="Path_881" data-name="Path 881" d="M326.877,1453.609a1.569,1.569,0,0,1,.471-.393,2.7,2.7,0,0,1,1.183-.346,1.673,1.673,0,0,1,.621.076.288.288,0,0,1-.06.26c-.145.159-.422.081-1.032.209-.264.055-.29.085-.561.133a3.6,3.6,0,0,1-.621.061" transform="translate(-265.86 -1366.972)" fill="#3b1e13"/>
            <path id="Path_882" data-name="Path 882" d="M304.88,1463.524s-.7-.714-.943-.283.349.812.349.812l.08-.094c-.274-.166-.41-.406-.352-.572a.281.281,0,0,1,.193-.18c.08-.016.148.023.281.1a1.743,1.743,0,0,1,.268.2l.124.018" transform="translate(-247.155 -1375.296)" fill="#da5724"/>
            <path id="Path_883" data-name="Path 883" d="M307.146,1471.761l-.442-.016a.112.112,0,0,1-.108-.116l.014-.392a.112.112,0,0,1,.116-.108l.442.016a.112.112,0,0,1,.108.116l-.014.392a.112.112,0,0,1-.116.108" transform="translate(-249.364 -1381.824)" fill="#fff"/>
            <path id="Path_884" data-name="Path 884" d="M335.224,1479.715a1.8,1.8,0,0,0-.161.206,1.8,1.8,0,0,1-.361.024,1.624,1.624,0,0,1-.9-.3.1.1,0,1,1,.117-.163,1.5,1.5,0,0,0,1.214.22.1.1,0,0,1,.09.015" transform="translate(-271.459 -1388.601)" fill="#da5724"/>
            <path id="Path_885" data-name="Path 885" d="M281.284,1420.894a11.513,11.513,0,0,0-1.631,1.159c-1.067.907-1.63,1.386-1.774,2.149-.169.892.423,1.169.119,2.074-.113.335-.234.416-.641,1.3-.046.1-.266.58-.367.853-.285.768-.219,1.482.151,3.787-.981-2.867-.7-4.215-.233-4.914a2.069,2.069,0,0,0,.46-1.258,1.892,1.892,0,0,0-.935-1.495c-.542-.32-1.42-.467-1.77-.047a.928.928,0,0,0-.173.709,5.839,5.839,0,0,0,.48,1.986,3.1,3.1,0,0,1-1.726,2c-1.669.487-3.676-1.68-4.391-3.583a6.694,6.694,0,0,1,1.448-6.659,6.872,6.872,0,0,1,5.966-2.208,6.956,6.956,0,0,1,5.016,4.14" transform="translate(-218.374 -1337.532)" fill="#553e37"/>
            <path id="Path_886" data-name="Path 886" d="M369.927,1841.118c.045.543-1.667,1.174-2.964,1.386a3.419,3.419,0,0,1-2.02-.018c-1.007-.433-.851-1.295-2.15-2.932-1-1.257-1.375-1.109-1.875-2.116a4.162,4.162,0,0,1-.373-2.869,1.847,1.847,0,0,1,.317-.661,5.105,5.105,0,0,0,.758-1c1.007-1.924-.282-3.543.587-4.4a2.309,2.309,0,0,1,2.835.1c1.145,1.068-.389,2.878.2,6.549.183,1.149.446,3.129,1.669,4.389a3.664,3.664,0,0,0,.613.51c1.163.769,2.371.611,2.409,1.063" transform="translate(-293.144 -1672.136)" fill="#fff" stroke="#acacac" stroke-width="0.2"/>
            <path id="Path_887" data-name="Path 887" d="M360.548,1867.6v6.842h1.075l.391-6.255Z" transform="translate(-293.246 -1704.289)" fill="#3b1e13"/>
            <path id="Path_888" data-name="Path 888" d="M369.927,1866.539c.045.543-1.667,1.174-2.964,1.386a3.42,3.42,0,0,1-2.02-.018c-1.007-.433-.851-1.295-2.15-2.932-1-1.257-1.375-1.109-1.875-2.116a4.163,4.163,0,0,1-.373-2.869,1.846,1.846,0,0,1,.317-.661,1.7,1.7,0,0,1,1.54.563c.782,1.075,2.346,5.278,3.812,5.18a.91.91,0,0,1,1.3.4c1.163.769,2.371.611,2.409,1.063" transform="translate(-293.144 -1697.557)" fill="#3b1e13"/>
            <path id="Path_889" data-name="Path 889" d="M452.272,1734.832c.462.29-.06,2.038-.669,3.2a3.42,3.42,0,0,1-1.226,1.606c-.95.546-1.547-.1-3.636-.038-1.6.044-1.712.435-2.818.231a4.161,4.161,0,0,1-2.519-1.422,1.847,1.847,0,0,1-.339-.65,5.1,5.1,0,0,0-.346-1.207c-.935-1.959-3-1.9-3.168-3.107a2.309,2.309,0,0,1,1.778-2.209c1.542-.276,2.07,2.038,5.357,3.771,1.029.543,2.771,1.52,4.513,1.3a3.667,3.667,0,0,0,.776-.185c1.313-.469,1.911-1.531,2.3-1.29" transform="translate(-355.867 -1593.362)" fill="#fff"/>
            <path id="Path_890" data-name="Path 890" d="M461.691,1769.433l5.475,4.1.645-.86-4.771-4.065Z" transform="translate(-375.509 -1623.777)" fill="#3b1e13"/>
            <path id="Path_891" data-name="Path 891" d="M467.626,1750.431c.462.29-.06,2.038-.669,3.2a3.421,3.421,0,0,1-1.226,1.606c-.95.546-1.547-.1-3.636-.038-1.6.044-1.712.435-2.818.231a4.161,4.161,0,0,1-2.519-1.422,1.845,1.845,0,0,1-.339-.65,1.7,1.7,0,0,1,1.374-.895c1.329.019,5.63,1.289,6.431.057a.91.91,0,0,1,1.1-.8c1.313-.469,1.911-1.531,2.3-1.29" transform="translate(-371.222 -1608.961)" fill="#3b1e13"/>
            <path id="Path_892" data-name="Path 892" d="M241.475,1645.295a6.615,6.615,0,0,1-5.946,1.115q-2.034-8.746-3.9-17.838-.669-3.269-1.3-6.5l-3.748-2-1.827-.972q-8.732-4.649-17.466-9.3l2.23-11.334c6.776,1.1,20.61,4.415,27.279,15.294q.209.337.407.686a31.893,31.893,0,0,1,3.029,8.07c.416,1.7.684,3.187.873,4.194a56.336,56.336,0,0,1,.372,18.581" transform="translate(-168.593 -1485.396)" fill="#5b2018"/>
            <path id="Path_893" data-name="Path 893" d="M316.332,1682.43l-6.187-5.283-7.464,2.835q-.914-.485-1.827-.972v-2.421l9.29-4.459,2.752,1.544q.209.337.407.686a31.889,31.889,0,0,1,3.029,8.07" transform="translate(-244.695 -1545.306)" fill="#491914"/>
            <path id="Path_894" data-name="Path 894" d="M201.49,1651.323c2.334.85,5,.835,9.662-.743,1.351-.457,17.333-5.992,16.537-12.077-.3-2.257-2.771-3.612-3.345-3.9-2.875-1.451-5.877-.121-11.334,1.672-3.782,1.242-8.668,2.989-14.307,5.388-.365.3-2.6,2.163-2.415,4.645.245,3.213,4.346,4.705,5.2,5.017" transform="translate(-159.638 -1514.279)" fill="#6c2e23"/>
            <path id="Path_895" data-name="Path 895" d="M331.934,1641.869c4.274,6.258,16.249,15.833,21.3,19.769l2.973-5.2c-4.626-5.622-9.088-10.79-13.378-15.608-1.362-1.53-3.972-4.381-7.8-4.831-.5-.059-3.653-.386-4.53,1.16-.162.286-.745,1.513,1.441,4.713" transform="translate(-268.644 -1515.861)" fill="#6c2e23"/>
            <path id="Path_896" data-name="Path 896" d="M147,1620.37c-4.506,4.947-5.625,11.635-3.055,15.979,2.9,4.907,9.339,4.851,14.634,4.806,3.387-.029,5.5-1.253,7.473-2.2,8.088-3.9-19.052-18.581-19.052-18.581" transform="translate(-115.97 -1503.207)" fill="#6c2e23"/>
            <path id="Path_897" data-name="Path 897" d="M183.015,1507.618a8.387,8.387,0,0,1-5.574,4.273q-.644,1.291-1.29,2.579-.474.951-.95,1.9l-1.477,2.954-.076.1a17.115,17.115,0,0,1-7.484,5.754,19.237,19.237,0,0,1-7.438,1.159c-2.912-.13-5.335-.985-6.007-2.5a3.581,3.581,0,0,1,.531-3.028c8.053-14.868,12.213-22.344,18.75-24.389,4.506-1.408,6.75-.423,7.254-.167,3.675,1.866,4.281,6.758,4.318,7.094a7.722,7.722,0,0,1-.557,4.274" transform="translate(-124.069 -1401.79)" fill="#da5724"/>
            <path id="Path_898" data-name="Path 898" d="M292.333,1525.945a35.463,35.463,0,0,1-5.76,9.476c-2.932,3.449-5.7,6.7-8.919,6.875-3.346.182-6.99-2.958-9.746-8.222v0c-.125-.236-.247-.475-.368-.721a37.612,37.612,0,0,1-2.521-6.849c.06-.351.132-.741.217-1.152.548-2.668,1.646-6.278,3.685-6.652,1.758-.323,3.967,1.808,6.146,5.652,0,0,0,0,0,0a44.828,44.828,0,0,1,2.215,4.541q.569,1.338,1.115,2.811l.128-.106,10.091-8.441,3.716,2.787" transform="translate(-215.549 -1420.488)" fill="#da5724"/>
            <path id="Path_900" data-name="Path 900" d="M267.5,1559.216q-.474.951-.949,1.9l-1.477,2.954c-.024.034-.05.067-.076.1-.091-1.839-.126-4.374-.138-6.75-.013-3.541.028-6.73.028-6.73Z" transform="translate(-215.417 -1446.535)" fill="#553e37"/>
            <path id="Path_901" data-name="Path 901" d="M331.959,1576.162l-1.243,3.822v-6.527q.568,1.338,1.115,2.811l.128-.106" transform="translate(-268.982 -1465.051)" fill="#553e37"/>
            <path id="Path_902" data-name="Path 902" d="M122.432,1616.385a30.875,30.875,0,0,1-15.536-1.351c-12.154-4.387-19.679-16.745-19.636-27.83,0-.416,0-1.037.039-1.8,4.272,3.547,23.356,19.09,32.4,21.392a6.1,6.1,0,0,1,3.711,2.354c1.148,1.681.585,4.513-.977,7.237" transform="translate(-70.971 -1474.766)" fill="#feaf30"/>
            <path id="Path_903" data-name="Path 903" d="M172.109,1888.382c0,1.693-4.492,3.066-10.034,3.066s-10.034-1.373-10.034-3.066,4.492-3.066,10.034-3.066,10.034,1.373,10.034,3.066" transform="translate(-123.661 -1718.696)" fill="#382a28"/>
            <path id="Path_904" data-name="Path 904" d="M108.1,1620.281a33.6,33.6,0,0,1-20.828-22.752c.164,10.965,7.648,23.043,19.633,27.369a30.874,30.874,0,0,0,15.535,1.351,11.552,11.552,0,0,0,1.539-4.29,35.241,35.241,0,0,1-15.88-1.678" transform="translate(-70.985 -1484.63)" fill="#fcbf81"/>
            <path id="Path_905" data-name="Path 905" d="M870.416,1496.009c.021.187.418.316,1.015.4-.291.041-.862.126-.876.3s.489.34.782.416a3.347,3.347,0,0,0,1.159.06c.083,0,.172-.006.269-.007h.2a3.276,3.276,0,0,0-.462.023.971.971,0,0,0-.321.089.052.052,0,0,0-.03.033c-.017.088.326.279.878.476.243.087.528.175.839.257a11.178,11.178,0,0,0,2,.338,13.919,13.919,0,0,0,2.792-.162c1.037-.121,1.893-.28,2.5-.408,1.19-1.7,1.137-2.47.906-2.854-.441-.73-1.6-.2-3.685-1.022-1.512-.595-2.375-1.451-2.656-1.181-.184.177.012.715.207,1.01a1.434,1.434,0,0,0,.758.566l-1.652.491c-.685.062-1.255.1-1.726.113-.206.006-.392.009-.562.007a5.953,5.953,0,0,1-.823-.055,1.214,1.214,0,0,0-1,.173c-.045.044-.125.121-.121.188.009.142.4.293,1.725.414.216.02.456.039.724.057.461.031,1,.059,1.637.083a12.727,12.727,0,0,1-1.64-.05l-.734-.037c-.925-.047-1.772-.087-1.8-.066-.151.1-.324.217-.309.348m2.646,1.172q.146,0,.288.012c.262.015.51.04.73.069.526.068.9.153.93.161a15.3,15.3,0,0,0-1.659-.227c-.1-.007-.2-.012-.289-.015" transform="translate(-707.938 -1399.381)" fill="#fff" stroke="#707070" stroke-width="0.1"/>
            <path id="Path_906" data-name="Path 906" d="M874.3,1505.038c.216.02.456.039.724.057.019-.251.037-.524.052-.785q-.308.01-.562.007a5.974,5.974,0,0,1-.823-.055,1.213,1.213,0,0,0-1,.173c-.045.044-.125.121-.121.188.009.141.4.292,1.725.413" transform="translate(-709.691 -1408.746)" fill="none"/>
            <path id="Path_907" data-name="Path 907" d="M870.415,1508.818c.021.187.418.316,1.015.4-.291.041-.862.125-.876.3s.489.34.782.416a3.361,3.361,0,0,0,1.159.06c.083,0,.172-.006.269-.007.069,0,.137,0,.2,0a3.238,3.238,0,0,0-.462.023.967.967,0,0,0-.321.088.052.052,0,0,0-.03.033c-.017.088.326.279.878.476.243.087.527.175.839.257a6.185,6.185,0,0,1-.523-.861v0a1.262,1.262,0,0,1-.167-.679c.029-.173.056-.444.08-.75l-.735-.037c-.925-.047-1.772-.087-1.8-.066-.151.1-.324.217-.309.348" transform="translate(-707.937 -1412.19)" fill="none"/>
            <path id="Path_908" data-name="Path 908" d="M944.739,1490.157a5.007,5.007,0,0,1-.384.656c-.893,1.284-2.44,1.942-4.829,2.241a83.6,83.6,0,0,1-11.92.005c-2.16-.083-3.971-.209-5.281-.314q.06-2.957.119-5.912c3.053-1.086,5.657-1.809,7.566-2.286a38.761,38.761,0,0,1,6.221-1.117,19.558,19.558,0,0,1,5.522.289c.26.053.507.108.739.17a3.667,3.667,0,0,1,2.176,1.289,5.1,5.1,0,0,1,.07,4.978" transform="translate(-750.158 -1391.769)" fill="#b8432a"/>
            <path id="Path_909" data-name="Path 909" d="M1009.026,1407.835c-.623,6.169-2.411,11.019-4.645,13.788a9.761,9.761,0,0,1-.841.924,5.25,5.25,0,0,1-3.3,1.641,4.263,4.263,0,0,1-1.446-.182,6.2,6.2,0,0,1-3.479-2.773,6.888,6.888,0,0,1-.281-5.413c.842-2.937,2.831-6.07,4.5-8.7a41.752,41.752,0,0,1,5.477-6.9q2.01,3.8,4.019,7.606" transform="translate(-808.959 -1324.159)" fill="#b8432a"/>
            <path id="Path_910" data-name="Path 910" d="M1020.524,1456.749a9.765,9.765,0,0,1-.841.924,5.005,5.005,0,0,1-.384.656c-.893,1.283-2.44,1.942-4.829,2.241l.466-1.438,2.5-7.726,2.587-7.99Z" transform="translate(-825.102 -1359.284)" fill="#372a28"/>
            <path id="Path_911" data-name="Path 911" d="M1067.026,1854.088q.116,3.889.233,7.777a7.249,7.249,0,0,1-4.193.774l-.919-9.054,4.88.5" transform="translate(-863.879 -1692.888)" fill="#fff" stroke="#acacac" stroke-width="0.1"/>
            <path id="Path_912" data-name="Path 912" d="M1021.4,1898.089q.027.428,1.466.767a29.362,29.362,0,0,1,6.683.154c.077-.011.148-.023.214-.036,1.912-.382,3.364-.1,4.48-.3a1.9,1.9,0,0,0,.645-.228,2.422,2.422,0,0,0,.325-.759,3.517,3.517,0,0,0,.1-.829,3.48,3.48,0,0,0-1.2-2.559,2.648,2.648,0,0,1-2.694,1.053,2.553,2.553,0,0,1-1.476-1.091l-4.427,2.078q-4.163,1.005-4.116,1.745" transform="translate(-830.742 -1725.975)" fill="#372a28"/>
            <path id="Path_913" data-name="Path 913" d="M1021.406,1912.911l.019.648a56.652,56.652,0,0,0,8.13.273c.077-.011.148-.023.214-.036,1.912-.382,3.364-.1,4.48-.3a1.9,1.9,0,0,0,.645-.228,1.235,1.235,0,0,0,.607-.783l-.282.024c-1.8.147-11.615.921-13.814.4" transform="translate(-830.744 -1740.797)" fill="#3b1e13"/>
            <path id="Path_914" data-name="Path 914" d="M1196.414,1859.3l.883,7.73a7.252,7.252,0,0,1-4.114,1.122l-1.674-8.945,4.905.092" transform="translate(-969.094 -1697.465)" fill="#fff" stroke="#acacac" stroke-width="0.1"/>
            <path id="Path_915" data-name="Path 915" d="M1156.019,1902.5q.062.424,1.525.642a29.37,29.37,0,0,1,6.673-.406c.075-.017.146-.036.211-.054,1.874-.54,3.344-.382,4.44-.67a1.9,1.9,0,0,0,.624-.281,2.423,2.423,0,0,0,.26-.784,3.522,3.522,0,0,0,.028-.834,3.479,3.479,0,0,0-1.409-2.449,2.648,2.648,0,0,1-2.6,1.275,2.554,2.554,0,0,1-1.562-.964l-4.237,2.442q-4.064,1.35-3.956,2.083" transform="translate(-940.226 -1728.736)" fill="#372a28"/>
            <path id="Path_916" data-name="Path 916" d="M1156.031,1916.6l.073.644a56.678,56.678,0,0,0,8.124-.408q.113-.026.211-.054c1.874-.54,3.344-.382,4.44-.67a1.9,1.9,0,0,0,.624-.281,1.235,1.235,0,0,0,.54-.831l-.28.047c-1.777.3-11.5,1.89-13.732,1.553" transform="translate(-940.239 -1742.838)" fill="#3b1e13"/>
            <path id="Path_917" data-name="Path 917" d="M1045.857,1564.662l-4.207,27.179,2.589,32.962h8.859V1595.58l5.983-26.807a23.138,23.138,0,0,0-13.224-4.111" transform="translate(-847.209 -1457.897)" fill="#553e37"/>
            <path id="Path_918" data-name="Path 918" d="M1065.826,1649.469c-5.009,15.215-4.017,13.966-2.764,41.535l-7.544,2.776h8.859v-29.223l2.877-12.889Z" transform="translate(-858.488 -1526.874)" fill="#372a28"/>
            <path id="Path_919" data-name="Path 919" d="M1097.122,1568.668l5.177,27.383,9.895,30.086,9.607.288-6.616-31.582a62.514,62.514,0,0,1,0-11.85c.306-3.135.74-4.99.518-8a25.044,25.044,0,0,0-2.128-8.341c-.009.005-3.845.476-16.453,2.013" transform="translate(-892.326 -1459.519)" fill="#553e37"/>
            <path id="Path_920" data-name="Path 920" d="M1071.352,1424.826a24.061,24.061,0,0,1-13.66,3.074,23.505,23.505,0,0,1-4-.656c-.178-.045-.354-.092-.528-.141l-1.949-.634a24.223,24.223,0,0,1-5.781-3.112c-.722-4.416-1.357-8.088-1.83-10.775-1.087-6.164-1.27-6.832-1.339-8.8a64.146,64.146,0,0,1,.775-10.634c.247-1.909.51-3.487.7-4.578a20.4,20.4,0,0,1,4.777-1.99,24.221,24.221,0,0,1,5.988-.709,13.618,13.618,0,0,1,6.95,1.746,9.463,9.463,0,0,1,1.635,1.243c1.463,1.69,2.662,4.858,3.658,8.675.028.1.054.21.082.316.683,2.67,1.27,5.641,1.783,8.636.405,2.361.763,4.737,1.085,6.992.47,3.3.864,6.333,1.213,8.69.152,1.029.3,1.927.434,2.661" transform="translate(-847.693 -1312.478)" fill="#b8432a"/>
            <path id="Path_921" data-name="Path 921" d="M1078.027,1384.1a1.4,1.4,0,0,1,1.665-1.306,8.4,8.4,0,0,0,3.642-.9,2.244,2.244,0,0,0-1.632-.671c-.963.057-3.635.419-4.337,1.569s.662,1.306.662,1.306" transform="translate(-876.094 -1308.704)" fill="#ad9b9a"/>
            <path id="Path_922" data-name="Path 922" d="M1084.773,1371.83l1.967,3.472a2.831,2.831,0,0,1-.849,1.627,3.027,3.027,0,0,1-3.114.453,3.067,3.067,0,0,1-1.019-.68l.443-2.284.6-.6Z" transform="translate(-879.83 -1301.061)" fill="#fff"/>
            <path id="Path_923" data-name="Path 923" d="M1085.936,1376.961c-.008.039-.021.1-.044.181a4.846,4.846,0,0,1-2.681,2.95l0,0-.112-.091.194-1.59.6-.6a7.726,7.726,0,0,0,1.122-.96c.037-.038.069-.074.1-.109l.27.072.075.021.482.127" transform="translate(-880.916 -1305.056)" fill="#acacac"/>
            <path id="Path_924" data-name="Path 924" d="M1077.106,1388.513l-1.133,2.548a4.575,4.575,0,0,1-1.3-2.831,8.078,8.078,0,0,1,0-1.7l1.189-.736a2.762,2.762,0,0,0,1.246,2.718" transform="translate(-874.045 -1312.419)" fill="#553e37"/>
            <path id="Path_925" data-name="Path 925" d="M1054.434,1332.6c.7,1.858,2.557,4.251,4.684,4.206,3.754-.079,5.975-7.7,5.274-8.182-.121-.083-.258.093-.6.188-2.152.592-4.179-4.787-6.469-4.065-1.98.624-2.8,2.928-2.988,3.445a6.327,6.327,0,0,0,.1,4.409" transform="translate(-857.236 -1262.715)" fill="#fff" stroke="#707070" stroke-width="0.1"/>
            <path id="Path_926" data-name="Path 926" d="M1056.306,1352.651a1.392,1.392,0,0,1,.417-.46,1.992,1.992,0,0,1,.528-.274,1.933,1.933,0,0,1,.586-.11,1.4,1.4,0,0,1,.612.109.386.386,0,0,1-.031.313c-.124.188-.4.086-.982.223-.251.059-.273.095-.532.145a2.737,2.737,0,0,1-.6.056" transform="translate(-859.129 -1284.774)" fill="#3b1e13"/>
            <path id="Path_927" data-name="Path 927" d="M1078.922,1347.131a1.4,1.4,0,0,0-.6-.17,1.989,1.989,0,0,0-.593.047,1.942,1.942,0,0,0-.555.217,1.4,1.4,0,0,0-.462.416.385.385,0,0,0,.192.249c.205.094.386-.14.952-.331.245-.083.282-.064.527-.159a2.736,2.736,0,0,0,.537-.269" transform="translate(-875.727 -1280.83)" fill="#3b1e13"/>
            <path id="Path_928" data-name="Path 928" d="M1073.131,1359.405c-.6-.25-.661-.428-.636-1.023a10.477,10.477,0,0,0-.152-1.562l.23-.036a10.47,10.47,0,0,1,.155,1.616c-.021.51-.007.573.483.777Z" transform="translate(-872.172 -1288.823)" fill="#da5724"/>
            <path id="Path_929" data-name="Path 929" d="M1081.8,1354.236a.419.419,0,1,0,.323-.5.419.419,0,0,0-.323.5" transform="translate(-879.853 -1286.34)"/>
            <path id="Path_930" data-name="Path 930" d="M1062.305,1359.093a.419.419,0,1,0,.323-.5.418.418,0,0,0-.323.5" transform="translate(-864.001 -1290.29)"/>
            <path id="Path_931" data-name="Path 931" d="M1037.893,1317.328c2.269,1.615,5.642.239,6.434-.121a9.206,9.206,0,0,0,1.642-.963,6.811,6.811,0,0,0,1.132,1.055,2.107,2.107,0,0,0,1.812.588c.228-.081.338-.222.51-.17.336.1.391.782.4.849a2.131,2.131,0,0,1-.623,1.529q-.155.9-.311,1.792a7.027,7.027,0,0,0,1.854-5.821,6.532,6.532,0,0,0-4.3-5.084,5.866,5.866,0,0,0-4.3.2c-.26.149-.411.28-1.418.906a9.625,9.625,0,0,1-2.01,1.1c-1.1.287-1.563-.165-2.01.236-.642.577-.209,1.97-.158,2.128a3.58,3.58,0,0,0,1.34,1.773" transform="translate(-842.909 -1251.306)" fill="#3b1e13"/>
            <path id="Path_932" data-name="Path 932" d="M1091.843,1382.89a7.822,7.822,0,0,1-.155,1.319,7.169,7.169,0,0,1-1.318,2.928,7.061,7.061,0,0,1-1.7,1.586l-.007-.012-1.555-2.809-.05-.09,0-.007h0l-.046-.082-.094-.17c.027,0,.077-.006.146-.014a4.057,4.057,0,0,0,2.991-1.749l.012-.021c.04-.068.078-.135.111-.2a3.275,3.275,0,0,0,.214-.535q.029-.092.05-.182l0-.017a3.707,3.707,0,0,0,.1-.676v0l.018.01h0l.362.2.819.463.087.048.015.009" transform="translate(-884.025 -1309.458)" fill="#553e37"/>
            <path id="Path_933" data-name="Path 933" d="M1075.54,1372.679a1.208,1.208,0,0,1-1.1.118,1.263,1.263,0,0,1-.7-.707l.043,0a2.852,2.852,0,0,0,.917-.2,2.892,2.892,0,0,0,1.022-.7c.078-.083.141-.159.188-.22a1.4,1.4,0,0,1-.366,1.721" transform="translate(-873.304 -1300.352)" fill="#da5724"/>
            <path id="Path_934" data-name="Path 934" d="M1074.24,1373.219a.957.957,0,0,1-.272-.173,2.857,2.857,0,0,0,.917-.2,2.892,2.892,0,0,0,1.023-.7,1.086,1.086,0,0,1-.06.319,1.217,1.217,0,0,1-.552.631,1.243,1.243,0,0,1-1.056.133" transform="translate(-873.494 -1301.31)" fill="#fff"/>
            <g id="Group_1699" data-name="Group 1699" transform="translate(200.581 66.619)">
              <g id="Group_1698" data-name="Group 1698">
                <g id="Group_1697" data-name="Group 1697" clip-path="url(#clip-path-6)">
                  <path id="Path_935" data-name="Path 935" d="M1077.645,1351.769a1.63,1.63,0,0,1-.578.413,1.885,1.885,0,0,1-.508.118,1.611,1.611,0,0,1-.668-.071,1.468,1.468,0,0,1-.151-.061,1.282,1.282,0,0,1-.166-.1,2.08,2.08,0,0,1-.528-.52,3.865,3.865,0,0,1-.51-1l.906-.267.762-.225.4-.117.762-.225.4-.117a2.074,2.074,0,0,1-.12,2.168" transform="translate(-1074.536 -1349.601)" fill="none" stroke="#3b1e13" stroke-width="0.1"/>
                </g>
              </g>
            </g>
            <g id="Group_1702" data-name="Group 1702" transform="translate(196.666 67.745)" opacity="0.41">
              <g id="Group_1701" data-name="Group 1701">
                <g id="Group_1700" data-name="Group 1700" clip-path="url(#clip-path-7)">
                  <path id="Path_936" data-name="Path 936" d="M1056.658,1357.638a1.742,1.742,0,0,1-1.052.714l-.058.013a1.663,1.663,0,0,1-.633-.016c-.026-.005-.052-.012-.078-.02a1.306,1.306,0,0,1-.25-.1,1.663,1.663,0,0,1-.541-.477,2.654,2.654,0,0,1-.478-1.183l.932-.271.761-.221.4-.118.761-.22.379-.109a2.98,2.98,0,0,1-.144,2.01" transform="translate(-1053.568 -1355.628)" fill="none" stroke="#3b1e13" stroke-width="0.1"/>
                </g>
              </g>
            </g>
            <path id="Path_937" data-name="Path 937" d="M1071.3,1357.38a.164.164,0,0,1-.007-.167.314.314,0,0,1,.118-.128.636.636,0,0,1,.295-.093.916.916,0,0,1,.288.022.793.793,0,0,1,.269.111h0a.006.006,0,0,1,0,.009.007.007,0,0,1-.006,0c-.091-.008-.182-.019-.272-.02-.046,0-.091,0-.136,0a1.147,1.147,0,0,0-.136.008.784.784,0,0,0-.262.056.2.2,0,0,0-.141.2.006.006,0,0,1-.005.007.006.006,0,0,1-.006,0Z" transform="translate(-871.302 -1288.99)" fill="#3b1e13"/>
            <path id="Path_938" data-name="Path 938" d="M1093.443,1348.568a.062.062,0,0,1-.019-.121l2.382-.761a.062.062,0,0,1,.037.118l-2.382.761a.063.063,0,0,1-.019,0" transform="translate(-889.283 -1281.421)" fill="#3b1e13"/>
            <path id="Path_939" data-name="Path 939" d="M1070.462,1358.854c0,.219-.059.4-.132.4s-.132-.177-.132-.4.059-.4.132-.4.132.177.132.4" transform="translate(-870.428 -1290.185)" fill="#3b1e13"/>
            <path id="Path_940" data-name="Path 940" d="M1076.109,1357.187c.1.2.124.381.059.413s-.2-.1-.3-.3-.124-.381-.059-.413.2.1.3.3" transform="translate(-874.966 -1288.907)" fill="#3b1e13"/>
            <path id="Path_941" data-name="Path 941" d="M1092.614,1351.113l.545-.211-.061-.257-.616.072a.7.7,0,0,0,.132.4" transform="translate(-888.552 -1283.83)" fill="#3b1e13"/>
          </g>
        </g>
        <g id="Group_1714" data-name="Group 1714" transform="translate(196.235 66.622)">
          <g id="Group_1720" data-name="Group 1720">
            <path id="Path_946" data-name="Path 946" d="M1053.221,1351.662c.6-.2,1.211-.38,1.819-.56s1.219-.35,1.828-.527,1.223-.337,1.836-.5l.921-.238c.308-.075.615-.154.925-.225-.3.1-.6.191-.907.287l-.911.274c-.608.181-1.219.351-1.828.526s-1.223.337-1.836.5-1.228.319-1.846.463" transform="translate(-1052.855 -1349.615)" fill="#3b1e13"/>
            <path id="Path_947" data-name="Path 947" d="M1133.771,1542.453a24.678,24.678,0,0,1-8.467.775c-1.188-.132-5.282-.792-5.758-1.825s7.079-1.212,9.852-2.4c1.722-.738,2.679-3.358,3.16-5.24.47,3.3.863,6.333,1.213,8.69" transform="translate(-1106.782 -1499.389)" fill="#3a3d2f"/>
            <path id="Path_948" data-name="Path 948" d="M1152.037,1442.4s-1.76,5.883-3.963,11.283c-.029.067-.057.136-.083.2-1.5,3.64-3.189,7.025-4.669,8.188-1.429,1.122-2.58.825-3.362-.115a4.415,4.415,0,0,1-.7-1.249c-.011-.026-.021-.054-.03-.082a6.609,6.609,0,0,1-.286-1.068,7.188,7.188,0,0,1-.1-1.738,4.554,4.554,0,0,1,.6-2.1,5.816,5.816,0,0,0,.353-.647c.073-.156.139-.313.2-.473a8.7,8.7,0,0,0,.471-2.3c.055-.647.071-1.315.089-2a20.132,20.132,0,0,1,.37-3.9c.017-.081.033-.161.045-.239.259-1.6.351-3.13-.266-4.177-.786-1.333-3.9-6.213-3.9-6.213l11.113,3.728,2.064,1.454Z" transform="translate(-1120.838 -1419.69)" fill="#372a28"/>
            <path id="Path_949" data-name="Path 949" d="M1127.082,1400.487c-.022,1.885,1.27,3.488,7.04,7.878,8.3,6.313,10.51,6.714,12.186,6.06a3.027,3.027,0,0,0,1.521-1.1c1.853-2.777-2.418-9.013-6.441-12.462a19.177,19.177,0,0,0-9.369-4.11c-1.869-.2-2.972.084-3.734.757a4.171,4.171,0,0,0-1.2,2.974" transform="translate(-1112.928 -1387.906)" fill="#b8432a"/>
            <path id="Path_950" data-name="Path 950" d="M1085.983,1482.416,1061.467,1490a7.107,7.107,0,0,1-8.889-4.69l-1-3.229a7.107,7.107,0,0,1,4.69-8.889l24.516-7.581a7.107,7.107,0,0,1,8.889,4.69l1,3.229a7.107,7.107,0,0,1-4.69,8.889" transform="translate(-1051.261 -1443.696)" fill="#fff"/>
            <rect id="Rectangle_208" data-name="Rectangle 208" width="34.507" height="0.979" transform="translate(1.928 34.119) rotate(-17.183)" fill="#4a3732"/>
            <rect id="Rectangle_209" data-name="Rectangle 209" width="34.56" height="0.979" transform="translate(3.331 38.655) rotate(-17.183)" fill="#4a3732"/>
            <rect id="Rectangle_210" data-name="Rectangle 210" width="34.559" height="0.979" transform="translate(4.706 43.102) rotate(-17.183)" fill="#4a3732"/>
            <path id="Path_951" data-name="Path 951" d="M1152.6,1542.733c-.526.538-.971.979-1.292,1.292a21,21,0,0,1-2.1,1.939c-.717.472-1.341.7-1.292.969.032.176.336.275.485.323a1.393,1.393,0,0,0,.808,0,1.869,1.869,0,0,0,.97-.646c-.958.9-1.717,1.679-2.262,2.262-1.431,1.532-1.529,1.844-1.454,1.939.043.055.15.043.323,0a5.119,5.119,0,0,0,2.1-1.293c.2-.169.592-.51,1.131-.969-.459.75-.851,1.354-1.131,1.777-.671,1.014-1.216,1.768-1.019,1.986a.182.182,0,0,0,.078.046c.458.14,2.294-2.045,3.2-3.164-.652,1.321-1.364,2.932-1.037,3.151a.16.16,0,0,0,.068.023c.742.1,2.215-3.2,2.262-3.174s-.8,1.514-.485,1.777c.094.078.26.022.323,0,1-.344,1.86-2.774,2.262-3.878.322-.885.8-2.164,1.454-3.716Z" transform="translate(-1128.674 -1506.684)" fill="#fff" stroke="#707070" stroke-width="0.1"/>
            <path id="Path_952" data-name="Path 952" d="M1178.958,1454.457c-.765.158-2.31.685-4.391,4.117a25.758,25.758,0,0,0-3.565,11.752,3.909,3.909,0,0,0,1.485,2.466,4.15,4.15,0,0,0,4.721-.15c1.313-1.888,5.985-8.741,7.163-13.406a3.815,3.815,0,0,0-.1-2.6c-.818-1.729-3.345-2.585-5.311-2.179" transform="translate(-1148.65 -1434.805)" fill="#b8432a"/>
            <path id="Path_953" data-name="Path 953" d="M1108.783,1639.112c8.017,26.81,12.848,42.219,14.514,43.969s7.989,2.276,7.989,2.276l-9.607-.288-9.895-30.086Z" transform="translate(-1098.046 -1585.073)" fill="#705247"/>
          </g>
        </g>
      </g>
    </g>
  </g>
</svg>
