<svg xmlns="http://www.w3.org/2000/svg" width="252" height="210" viewBox="0 0 252 210">
  <g id="support" transform="translate(-178.296 -65.784)">
    <rect id="Rectangle_93" data-name="Rectangle 93" width="252" height="210" transform="translate(178.296 65.784)" fill="none"/>
    <g id="Group_326" data-name="Group 326" transform="translate(178.296 67.784)">
      <g id="background_3" transform="translate(0 0)">
        <g id="Group_94" data-name="Group 94" transform="translate(68.354 41.517)">
          <g id="Group_59" data-name="Group 59">
            <g id="Group_58" data-name="Group 58">
              <g id="Group_57" data-name="Group 57">
                <g id="Group_56" data-name="Group 56">
                  <g id="Group_55" data-name="Group 55">
                    <g id="Group_54" data-name="Group 54">
                      <g id="Group_52" data-name="Group 52" transform="translate(0.366 0.293)">
                        <path id="Path_93" data-name="Path 93" d="M420.475,203.322a17.332,17.332,0,0,1,3.623,10.1,19.563,19.563,0,0,1-.235,3.422,18.452,18.452,0,0,1-1.308,4.26,16.978,16.978,0,0,1-4.294,5.77,9.654,9.654,0,0,1-.906.738,17.3,17.3,0,0,1-24.288-3.153,17.9,17.9,0,0,1-2.583-4.7,17.257,17.257,0,0,1-.973-7.112v-.034a17.651,17.651,0,0,1,.872-4.361,16.94,16.94,0,0,1,3.522-5.971,15.473,15.473,0,0,1,2.315-2.113A17.277,17.277,0,0,1,420.475,203.322Z" transform="translate(-389.467 -196.568)" fill="#fff"/>
                      </g>
                      <g id="Group_53" data-name="Group 53">
                        <path id="Path_94" data-name="Path 94" d="M406.029,230.954a17.721,17.721,0,0,1-13.989-6.877,17.373,17.373,0,0,1-2.617-4.764,17.762,17.762,0,0,1-1.006-7.246v-.034a16.5,16.5,0,0,1,.906-4.428,16.852,16.852,0,0,1,3.589-6.072,20.766,20.766,0,0,1,2.348-2.18,17.671,17.671,0,0,1,24.757,3.22h0a17.454,17.454,0,0,1,3.187,6.709,18.46,18.46,0,0,1,.47,3.589,20.108,20.108,0,0,1-.235,3.489,18.224,18.224,0,0,1-1.342,4.361,17.9,17.9,0,0,1-4.361,5.871c-.3.268-.6.5-.906.738a17.539,17.539,0,0,1-6.24,3.086,16.193,16.193,0,0,1-3.791.57A5.943,5.943,0,0,0,406.029,230.954ZM406,196.334a16.812,16.812,0,0,0-10.332,3.522,18.977,18.977,0,0,0-2.248,2.08,17.3,17.3,0,0,0-3.455,5.871,16.884,16.884,0,0,0-.872,4.26h-.335l.335.034a17.031,17.031,0,0,0,.973,6.978,17.537,17.537,0,0,0,2.516,4.6,17.011,17.011,0,0,0,14.19,6.609,18.514,18.514,0,0,0,3.623-.537,17.024,17.024,0,0,0,6-2.952c.3-.235.6-.47.872-.7a16.234,16.234,0,0,0,4.193-5.669,16.819,16.819,0,0,0,1.275-4.193,16.137,16.137,0,0,0,.235-3.355,17.093,17.093,0,0,0-.436-3.455,16.614,16.614,0,0,0-3.086-6.441h0A16.848,16.848,0,0,0,406,196.334Z" transform="translate(-388.375 -195.694)" fill="#252362"/>
                      </g>
                    </g>
                  </g>
                </g>
              </g>
            </g>
          </g>
          <g id="Group_67" data-name="Group 67" transform="translate(2.441 2.389)">
            <g id="Group_66" data-name="Group 66" transform="translate(0)">
              <g id="Group_65" data-name="Group 65" transform="translate(0)">
                <g id="Group_64" data-name="Group 64">
                  <g id="Group_63" data-name="Group 63">
                    <g id="Group_62" data-name="Group 62">
                      <g id="Group_60" data-name="Group 60">
                        <circle id="Ellipse_13" data-name="Ellipse 13" cx="13.586" cy="13.586" r="13.586" transform="translate(0 26.947) rotate(-82.617)" fill="#fff"/>
                      </g>
                      <g id="Group_61" data-name="Group 61" transform="translate(1.28 1.292)">
                        <path id="Path_95" data-name="Path 95" d="M413.4,234.488a13.914,13.914,0,1,1,11-22.409h0a13.9,13.9,0,0,1-11,22.409Zm0-27.139a13.233,13.233,0,1,0,10.5,5.166h0A13.243,13.243,0,0,0,413.4,207.349Z" transform="translate(-399.467 -206.667)" fill="#252362"/>
                      </g>
                    </g>
                  </g>
                </g>
              </g>
            </g>
          </g>
          <g id="Group_93" data-name="Group 93" transform="translate(10.575 7.671)">
            <g id="Group_72" data-name="Group 72">
              <g id="Group_71" data-name="Group 71">
                <g id="Group_70" data-name="Group 70">
                  <g id="Group_68" data-name="Group 68" transform="translate(0.436 0.416)">
                    <path id="Path_96" data-name="Path 96" d="M434.115,225.268l-2.516,5.6v.034l-.906,1.979-8.387.939h0L421.2,219.8Z" transform="translate(-421.2 -219.8)" fill="#77cbd8"/>
                  </g>
                  <g id="Group_69" data-name="Group 69">
                    <path id="Path_97" data-name="Path 97" d="M421.443,233.435a.438.438,0,0,1-.436-.4L419.9,219.01a.481.481,0,0,1,.168-.369.357.357,0,0,1,.4-.034l12.915,5.468a.405.405,0,0,1,.235.235.572.572,0,0,1,0,.335l-3.422,7.615a.4.4,0,0,1-.335.235l-8.353.939Zm-.6-13.788,1.006,12.882,7.682-.872,3.153-7.011Z" transform="translate(-419.9 -218.561)" fill="#252362"/>
                  </g>
                </g>
              </g>
            </g>
            <g id="Group_77" data-name="Group 77" transform="translate(1.711 6.232)">
              <g id="Group_76" data-name="Group 76">
                <g id="Group_75" data-name="Group 75">
                  <g id="Group_73" data-name="Group 73" transform="translate(0.436 0.457)">
                    <path id="Path_98" data-name="Path 98" d="M438.075,238.5l.134,12.513c-3.958-1.375-7.951-2.751-11.909-4.126l8.387-.805h.067C435.861,243.565,436.968,241.05,438.075,238.5Z" transform="translate(-426.3 -238.5)" fill="#77cbd8"/>
                  </g>
                  <g id="Group_74" data-name="Group 74">
                    <path id="Path_99" data-name="Path 99" d="M437.345,250.544a.2.2,0,0,1-.134-.034L425.3,246.384a.475.475,0,0,1-.3-.47.4.4,0,0,1,.369-.369l8.185-.772,3.254-7.38a.363.363,0,0,1,.47-.235.4.4,0,0,1,.335.4l.134,12.513a.413.413,0,0,1-.168.335A.253.253,0,0,1,437.345,250.544Zm-9.9-4.294,9.494,3.254-.1-9.93-2.55,5.8a.533.533,0,0,1-.335.268Z" transform="translate(-425 -237.138)" fill="#252362"/>
                  </g>
                </g>
              </g>
            </g>
            <g id="Group_82" data-name="Group 82" transform="translate(10.084 6.266)">
              <g id="Group_81" data-name="Group 81">
                <g id="Group_80" data-name="Group 80">
                  <g id="Group_78" data-name="Group 78" transform="translate(0.416 0.423)">
                    <path id="Path_100" data-name="Path 100" d="M451.267,246.115c1.107-2.55,2.248-5.065,3.355-7.615l.134,12.513-3.556-4.9Z" transform="translate(-451.2 -238.5)" fill="#77cbd8"/>
                  </g>
                  <g id="Group_79" data-name="Group 79">
                    <path id="Path_101" data-name="Path 101" d="M453.932,250.61a.413.413,0,0,1-.335-.168l-3.556-4.9a.412.412,0,0,1-.034-.436.335.335,0,0,1,.134-.168l3.288-7.447a.363.363,0,0,1,.47-.235.4.4,0,0,1,.335.4l.134,12.513a.372.372,0,0,1-.3.4A.2.2,0,0,1,453.932,250.61Zm-3.019-5.334,2.583,3.556-.1-9.192Z" transform="translate(-449.961 -237.238)" fill="#252362"/>
                  </g>
                </g>
              </g>
            </g>
            <g id="Group_87" data-name="Group 87" transform="translate(0.025 0.02)">
              <g id="Group_86" data-name="Group 86">
                <g id="Group_85" data-name="Group 85">
                  <g id="Group_83" data-name="Group 83" transform="translate(0.411 0.395)">
                    <path id="Path_102" data-name="Path 102" d="M434.115,225.268l-3.422,7.615L421.2,219.8Z" transform="translate(-421.2 -219.8)" fill="#77cbd8"/>
                  </g>
                  <g id="Group_84" data-name="Group 84">
                    <path id="Path_103" data-name="Path 103" d="M429.88,232.536a.413.413,0,0,1-.335-.168l-9.494-13.083a.456.456,0,0,1,0-.5.483.483,0,0,1,.5-.134l12.915,5.468a.405.405,0,0,1,.235.235.572.572,0,0,1,0,.335l-3.422,7.615a.4.4,0,0,1-.335.235Zm-8.252-12.513,8.152,11.238,2.952-6.542Z" transform="translate(-419.975 -218.622)" fill="#252362"/>
                  </g>
                </g>
              </g>
            </g>
            <g id="Group_92" data-name="Group 92" transform="translate(1.124 5.473)">
              <g id="Group_91" data-name="Group 91">
                <g id="Group_90" data-name="Group 90">
                  <g id="Group_88" data-name="Group 88" transform="translate(0.419 0.411)">
                    <path id="Path_104" data-name="Path 104" d="M436.308,236.1l-2.516,5.6v.034l-.906,1.979-8.387.939h0l3.992-6.978Z" transform="translate(-424.5 -236.1)" fill="#77cbd8"/>
                  </g>
                  <g id="Group_89" data-name="Group 89">
                    <path id="Path_105" data-name="Path 105" d="M423.669,244.276a.385.385,0,0,1-.369-.2.5.5,0,0,1,0-.436l3.992-7.011a.488.488,0,0,1,.3-.2l7.816-1.543a.363.363,0,0,1,.4.168.422.422,0,0,1,.067.436l-3.422,7.615a.4.4,0,0,1-.335.235l-8.353.939Zm4.26-7.045-3.455,6.105,7.313-.805,2.986-6.642Z" transform="translate(-423.25 -234.875)" fill="#252362"/>
                  </g>
                </g>
              </g>
            </g>
          </g>
        </g>
        <g id="Group_110" data-name="Group 110" transform="translate(119.197 14.782)">
          <g id="Group_99" data-name="Group 99" transform="translate(0 0)">
            <g id="Group_98" data-name="Group 98">
              <g id="Group_97" data-name="Group 97">
                <g id="Group_95" data-name="Group 95">
                  <circle id="Ellipse_14" data-name="Ellipse 14" cx="11.573" cy="11.573" r="11.573" transform="matrix(0.995, -0.102, 0.102, 0.995, 0, 2.361)" fill="#77cbd8"/>
                </g>
                <g id="Group_96" data-name="Group 96" transform="translate(0.674 0.645)">
                  <path id="Path_106" data-name="Path 106" d="M558.165,137.8a11.662,11.662,0,0,1-5.468-1.342,11.933,11.933,0,0,1-5.938-7.011,11.988,11.988,0,1,1,22.073,1.778h0a11.933,11.933,0,0,1-7.011,5.938A9.773,9.773,0,0,1,558.165,137.8Zm.034-23.113a11.133,11.133,0,1,0,9.863,16.236h0a11.141,11.141,0,0,0-4.831-15A10.736,10.736,0,0,0,558.2,114.686Z" transform="translate(-546.183 -113.771)" fill="#252362"/>
                </g>
              </g>
            </g>
          </g>
          <g id="Group_104" data-name="Group 104" transform="translate(0.699 0.705)">
            <g id="Group_103" data-name="Group 103" transform="translate(0 0)">
              <g id="Group_102" data-name="Group 102">
                <g id="Group_100" data-name="Group 100">
                  <circle id="Ellipse_15" data-name="Ellipse 15" cx="8.521" cy="8.521" r="8.521" transform="translate(0 13.216) rotate(-50.853)" fill="#77cbd8"/>
                </g>
                <g id="Group_101" data-name="Group 101" transform="translate(2.999 3.001)">
                  <path id="Path_107" data-name="Path 107" d="M564.155,140.846a8.89,8.89,0,0,1-4.093-1.006,9,9,0,0,1-4.428-5.233,8.844,8.844,0,0,1,.57-6.843,9,9,0,0,1,5.233-4.428,8.845,8.845,0,0,1,6.843.57,9,9,0,0,1,4.428,5.233,8.844,8.844,0,0,1-.57,6.843,9,9,0,0,1-5.233,4.428A8.434,8.434,0,0,1,564.155,140.846Zm.034-17.075a7.851,7.851,0,0,0-2.482.4,8.114,8.114,0,1,0,6.172.5A8,8,0,0,0,564.189,123.771Z" transform="translate(-555.197 -122.897)" fill="#252362"/>
                </g>
              </g>
            </g>
          </g>
          <g id="Group_109" data-name="Group 109" transform="translate(6.135 5.217)">
            <g id="Group_108" data-name="Group 108">
              <g id="Group_107" data-name="Group 107">
                <g id="Group_105" data-name="Group 105" transform="translate(0.349 0.369)">
                  <path id="Path_108" data-name="Path 108" d="M567.626,137.759l2.08-2.617,4.126-.5,1.107-1.577-3.992.537L574,129.775l-2.482-1.275-4.5,5.6-1.644.2-1.208,1.51,1.61-.2-2.281,2.851,7.816,3.992,1.644-1.979Z" transform="translate(-563.5 -128.5)" fill="#fff"/>
                </g>
                <g id="Group_106" data-name="Group 106">
                  <path id="Path_109" data-name="Path 109" d="M570.626,142.06a.3.3,0,0,1-.168-.034L562.642,138a.252.252,0,0,1-.168-.235.261.261,0,0,1,.067-.268l1.744-2.181-.772.1a.294.294,0,0,1-.335-.168.3.3,0,0,1,.034-.369l1.208-1.51a.54.54,0,0,1,.235-.134l1.51-.2,4.428-5.5a.32.32,0,0,1,.4-.1l2.482,1.275a.252.252,0,0,1,.168.235.261.261,0,0,1-.067.268l-2.549,3.153,3.187-.4a.341.341,0,0,1,.335.168.305.305,0,0,1-.034.369l-1.141,1.543a.339.339,0,0,1-.235.134l-3.958.5-1.744,2.181,4.965,2.55a.252.252,0,0,1,.168.235.261.261,0,0,1-.067.268l-1.61,1.979A.276.276,0,0,1,570.626,142.06Zm-7.28-4.462,7.212,3.69,1.174-1.443-4.965-2.55a.252.252,0,0,1-.168-.235.261.261,0,0,1,.067-.268l2.113-2.617a.541.541,0,0,1,.235-.134l3.958-.5.57-.805-3.22.4a.341.341,0,0,1-.335-.168.3.3,0,0,1,.033-.369l2.784-3.489-1.879-.973-4.327,5.367a.541.541,0,0,1-.235.134l-1.51.2-.6.772.805-.1a.341.341,0,0,1,.335.168.3.3,0,0,1-.033.369Z" transform="translate(-562.461 -127.4)" fill="#252362"/>
                </g>
              </g>
            </g>
          </g>
        </g>
        <g id="Group_126" data-name="Group 126" transform="translate(176.548 134.187)">
          <g id="Group_115" data-name="Group 115" transform="translate(0 0)">
            <g id="Group_114" data-name="Group 114" transform="translate(0)">
              <g id="Group_113" data-name="Group 113">
                <g id="Group_111" data-name="Group 111">
                  <circle id="Ellipse_16" data-name="Ellipse 16" cx="11.573" cy="11.573" r="11.573" transform="matrix(0.378, -0.926, 0.926, 0.378, 0, 21.427)" fill="#77cbd8"/>
                </g>
                <g id="Group_112" data-name="Group 112" transform="translate(3.073 3.083)">
                  <path id="Path_110" data-name="Path 110" d="M741.708,513.984a12.62,12.62,0,0,1-3.992-.671,12,12,0,1,1,14.794-16.5h0a11.894,11.894,0,0,1,.5,9.158,11.992,11.992,0,0,1-11.305,8.018Zm-.034-23.113a10.676,10.676,0,0,0-4.8,1.107,11.151,11.151,0,1,0,14.861,5.233h0A11.1,11.1,0,0,0,741.675,490.871Z" transform="translate(-729.698 -489.998)" fill="#252362"/>
                </g>
              </g>
            </g>
          </g>
          <g id="Group_120" data-name="Group 120" transform="translate(3.689 3.682)">
            <g id="Group_119" data-name="Group 119" transform="translate(0 0)">
              <g id="Group_118" data-name="Group 118" transform="translate(0)">
                <g id="Group_116" data-name="Group 116">
                  <circle id="Ellipse_17" data-name="Ellipse 17" cx="8.521" cy="8.521" r="8.521" transform="translate(0 15.32) rotate(-64.029)" fill="#77cbd8"/>
                </g>
                <g id="Group_117" data-name="Group 117" transform="translate(2.428 2.47)">
                  <path id="Path_111" data-name="Path 111" d="M747.736,517.046a9.148,9.148,0,0,1-2.986-.5,8.944,8.944,0,0,1-.906-16.5,8.82,8.82,0,0,1,6.843-.369,8.944,8.944,0,0,1,.906,16.5A9.123,9.123,0,0,1,747.736,517.046Zm0-17.075a7.934,7.934,0,0,0-3.489.805,8.145,8.145,0,1,0,6.206-.335A8.574,8.574,0,0,0,747.736,499.971Z" transform="translate(-738.769 -499.149)" fill="#252362"/>
                </g>
              </g>
            </g>
          </g>
          <g id="Group_125" data-name="Group 125" transform="translate(10.211 7.822)">
            <g id="Group_124" data-name="Group 124">
              <g id="Group_123" data-name="Group 123">
                <g id="Group_121" data-name="Group 121" transform="translate(0.31 0.294)">
                  <path id="Path_112" data-name="Path 112" d="M756.9,514.93l-.805-3.254,2.08-3.589-.537-1.845-2.046,3.489L754.416,505l-2.516,1.208,1.711,6.978-.805,1.443.47,1.845.805-1.375.906,3.522,7.917-3.791-.6-2.516Z" transform="translate(-751.9 -505)" fill="#fff"/>
                </g>
                <g id="Group_122" data-name="Group 122">
                  <path id="Path_113" data-name="Path 113" d="M754.371,518.374a.2.2,0,0,1-.134-.034.252.252,0,0,1-.168-.235l-.671-2.717-.4.671a.341.341,0,0,1-.335.168.384.384,0,0,1-.268-.235l-.47-1.879a.276.276,0,0,1,.033-.235l.738-1.308-1.711-6.843a.318.318,0,0,1,.168-.369l2.516-1.208a.465.465,0,0,1,.3,0,.252.252,0,0,1,.168.235l.973,3.925,1.61-2.784a.413.413,0,0,1,.335-.168.285.285,0,0,1,.268.235l.537,1.845a.357.357,0,0,1-.034.268l-2.013,3.455.671,2.717,5.032-2.415a.466.466,0,0,1,.3,0,.252.252,0,0,1,.168.235l.6,2.482a.318.318,0,0,1-.168.369l-7.917,3.791A.2.2,0,0,1,754.371,518.374Zm-.906-4.193h.034a.364.364,0,0,1,.268.268l.772,3.12,7.313-3.522-.436-1.812-5.032,2.415a.465.465,0,0,1-.3,0,.252.252,0,0,1-.168-.235l-.805-3.254a.276.276,0,0,1,.034-.235l2.013-3.455-.268-.939-1.61,2.818a.341.341,0,0,1-.335.168.384.384,0,0,1-.268-.235l-1.073-4.327-1.912.906,1.677,6.709a.276.276,0,0,1-.034.235l-.738,1.308.235.939.4-.7A.215.215,0,0,1,753.465,514.18Z" transform="translate(-750.974 -504.125)" fill="#252362"/>
                </g>
              </g>
            </g>
          </g>
        </g>
        <g id="Group_145" data-name="Group 145" transform="translate(178.389 9.447)">
          <g id="Group_132" data-name="Group 132">
            <g id="Group_131" data-name="Group 131">
              <g id="Group_130" data-name="Group 130">
                <g id="Group_129" data-name="Group 129">
                  <g id="Group_127" data-name="Group 127" transform="translate(0.433 0.399)">
                    <path id="Path_114" data-name="Path 114" d="M755.49,117.384a14.639,14.639,0,0,1-3.522,5.032,15.168,15.168,0,0,1-2.382,1.778,15.544,15.544,0,0,1-2.617,1.241,13.725,13.725,0,0,1-3.656.805,14.811,14.811,0,0,1-6-.738c-.3-.1-.6-.235-.906-.335a14.751,14.751,0,0,1-4.764-3.22,13.793,13.793,0,0,1-1.946-2.482,14.567,14.567,0,0,1,6.038-20.9h.034a14.576,14.576,0,0,1,9.393-1.107,14.646,14.646,0,0,1,10.332,19.927Z" transform="translate(-727.469 -97.134)" fill="#ffaf30"/>
                  </g>
                  <g id="Group_128" data-name="Group 128">
                    <path id="Path_115" data-name="Path 115" d="M741.18,125.987a15.093,15.093,0,0,1-4.864-.805c-.3-.1-.637-.235-.939-.369a15.019,15.019,0,0,1-6.911-5.871,14.985,14.985,0,0,1-1.107-13.788,15.469,15.469,0,0,1,2.415-3.958,14.727,14.727,0,0,1,4.931-3.791h.034A17.313,17.313,0,0,1,738.4,96.2a15.075,15.075,0,0,1,6,.1,17.7,17.7,0,0,1,2.583.805A14.993,14.993,0,0,1,755,116.728h0a15.037,15.037,0,0,1-6.072,7.011,15.146,15.146,0,0,1-2.684,1.275,14.45,14.45,0,0,1-3.791.839A5.129,5.129,0,0,1,741.18,125.987Zm-6.273-28.179.2.4a14.268,14.268,0,0,0-4.663,3.556,14.173,14.173,0,0,0-1.208,16.706,13.167,13.167,0,0,0,1.912,2.415,13.953,13.953,0,0,0,4.6,3.12c.3.134.6.235.872.335a14.353,14.353,0,0,0,5.837.7,13.021,13.021,0,0,0,3.556-.805,14.44,14.44,0,0,0,2.516-1.208,13.085,13.085,0,0,0,2.315-1.744,13.82,13.82,0,0,0,3.388-4.9,14.105,14.105,0,0,0-7.581-18.484,12.953,12.953,0,0,0-2.449-.772,14.026,14.026,0,0,0-5.669-.067,14.4,14.4,0,0,0-3.455,1.141Z" transform="translate(-726.177 -95.944)" fill="#553e37"/>
                  </g>
                </g>
              </g>
            </g>
          </g>
          <g id="Group_138" data-name="Group 138" transform="translate(0.122 0.093)">
            <g id="Group_137" data-name="Group 137" transform="translate(0)">
              <g id="Group_136" data-name="Group 136">
                <g id="Group_135" data-name="Group 135">
                  <g id="Group_133" data-name="Group 133">
                    <circle id="Ellipse_18" data-name="Ellipse 18" cx="11.439" cy="11.439" r="11.439" transform="translate(0 8.662) rotate(-22.246)" fill="#ffaf30"/>
                  </g>
                  <g id="Group_134" data-name="Group 134" transform="translate(3.055 3.051)">
                    <path id="Path_116" data-name="Path 116" d="M747.475,129.061a11.457,11.457,0,0,1-4.562-.939,11.863,11.863,0,1,1,15.532-6.34h0A11.938,11.938,0,0,1,747.475,129.061Zm.034-22.845a11.066,11.066,0,0,0-10.165,6.743,11,11,0,1,0,14.425-5.9A11.333,11.333,0,0,0,747.508,106.216Z" transform="translate(-735.65 -105.316)" fill="#553e37"/>
                  </g>
                </g>
              </g>
            </g>
          </g>
          <g id="Group_144" data-name="Group 144" transform="translate(7.363 5.495)">
            <g id="Group_143" data-name="Group 143">
              <g id="Group_142" data-name="Group 142">
                <g id="Group_141" data-name="Group 141">
                  <g id="Group_139" data-name="Group 139" transform="translate(0.347 0.294)">
                    <path id="Path_117" data-name="Path 117" d="M760.211,124.505a4.334,4.334,0,0,0-1.409-1.845l.067-.168a2.94,2.94,0,0,0,3.053-1.778,3.009,3.009,0,0,0,.235-1.61,2.668,2.668,0,0,0-.6-1.241,2.62,2.62,0,0,0-.537-.5l1.006-2.415-1.51-.637-.906,2.181c-.3-.168-.671-.3-1.04-.47l-.067-.034.906-2.147-1.51-.637-.906,2.147-2.65-1.107c-.067-.034-.1,0-.134.067l-.2.47c-.034.067,0,.1.067.134l1.476.805c.067.034.067.067.067.134l-4.361,10.433c-.034.067-.067.067-.134.067l-1.61-.5c-.067-.034-.1,0-.134.067l-.2.47c-.034.067,0,.1.067.134l2.65,1.107-.973,2.281,1.51.637.973-2.281.47.2c.235.1.436.168.637.235l-.973,2.315,1.51.637,1.073-2.516a3.709,3.709,0,0,0,2.751-.47,3.3,3.3,0,0,0,1.342-1.61A3.355,3.355,0,0,0,760.211,124.505Zm-1.543-7.414c.2.1.4.2.57.3a2.679,2.679,0,0,1,.906.939,2.9,2.9,0,0,1,.235.57,2.646,2.646,0,0,1-1.006,2.449,2.3,2.3,0,0,1-.939.369,3.009,3.009,0,0,1-.939-.034,6.339,6.339,0,0,1-1.174-.335,1.193,1.193,0,0,1-.3-.134l-.57-.235c-.067-.034-.067-.067-.067-.134l1.812-4.327c.034-.067.067-.067.134-.067l.7.3.168.067Zm-2.08,10.869a3.91,3.91,0,0,1-1.711-.134,5.117,5.117,0,0,1-.839-.3l-.3-.134-.839-.369c-.067-.034-.067-.067-.034-.134l2.181-5.166c.034-.067.067-.067.134-.067l.805.335c.033,0,.033,0,.067.034a6.41,6.41,0,0,1,1.073.57,3.649,3.649,0,0,1,1.241,1.241,2.7,2.7,0,0,1,0,2.583A2.385,2.385,0,0,1,756.588,127.96Z" transform="translate(-749.161 -113.2)" fill="#fff"/>
                  </g>
                  <g id="Group_140" data-name="Group 140">
                    <path id="Path_118" data-name="Path 118" d="M754.356,131.37a.2.2,0,0,1-.134-.034l-1.51-.637a.4.4,0,0,1-.168-.168.287.287,0,0,1,0-.235l.839-2.013c-.1-.034-.235-.1-.336-.134l-.2-.067-.839,1.979a.333.333,0,0,1-.436.168l-1.51-.637a.4.4,0,0,1-.168-.168.286.286,0,0,1,0-.235l.839-1.979-2.348-1.006a.517.517,0,0,1-.235-.235.544.544,0,0,1,0-.335l.2-.47a.483.483,0,0,1,.2-.235.568.568,0,0,1,.335,0l1.409.436,4.227-10.064-1.308-.7a.4.4,0,0,1-.2-.537l.2-.47a.517.517,0,0,1,.235-.235.384.384,0,0,1,.335,0l2.348,1.006.772-1.845a.333.333,0,0,1,.436-.168l1.51.637a.4.4,0,0,1,.168.168.287.287,0,0,1,0,.235l-.772,1.845c.168.067.335.168.5.235l.772-1.845a.4.4,0,0,1,.168-.168.287.287,0,0,1,.235,0l1.51.637a.333.333,0,0,1,.168.436l-.906,2.181a4.566,4.566,0,0,1,.4.4,3.018,3.018,0,0,1,.671,1.409,3.324,3.324,0,0,1-.235,1.778,3.1,3.1,0,0,1-2.784,1.946,4.456,4.456,0,0,1,1.04,1.577,3.64,3.64,0,0,1,0,2.784,3.74,3.74,0,0,1-1.476,1.744,4,4,0,0,1-2.717.537l-.973,2.281A.255.255,0,0,1,754.356,131.37Zm-1.073-1.141.906.369.939-2.214a.369.369,0,0,1,.335-.2,3.41,3.41,0,0,0,2.516-.4,3.316,3.316,0,0,0,1.241-1.476,2.986,2.986,0,0,0,0-2.281h0a4.05,4.05,0,0,0-1.308-1.711.318.318,0,0,1-.1-.369l.067-.168a.322.322,0,0,1,.3-.2A2.582,2.582,0,0,0,760.931,120a2.752,2.752,0,0,0,.2-1.442,2.419,2.419,0,0,0-.537-1.107,6.143,6.143,0,0,0-.47-.47.318.318,0,0,1-.1-.369l.872-2.113-.906-.369-.772,1.879a.344.344,0,0,1-.2.168.371.371,0,0,1-.268,0c-.3-.168-.637-.3-1.006-.47l-.067-.034a.333.333,0,0,1-.168-.436l.772-1.845-.906-.369-.772,1.845a.333.333,0,0,1-.436.168l-2.449-1.04-.034.067,1.308.7q.2.1.2.2a.569.569,0,0,1,0,.335l-4.361,10.433a.408.408,0,0,1-.537.235l-1.409-.436-.034.067,2.449,1.04a.333.333,0,0,1,.168.436l-.839,1.979.906.369.839-1.979a.333.333,0,0,1,.436-.168l.47.2a4.893,4.893,0,0,0,.637.235.344.344,0,0,1,.2.168.368.368,0,0,1,0,.268Zm2.113-2.482a4.783,4.783,0,0,1-1.308-.2,5.418,5.418,0,0,1-.872-.3l-1.141-.47a.42.42,0,0,1-.235-.537l2.181-5.166a.42.42,0,0,1,.537-.235l.805.335c.034,0,.034.034.067.034a6.813,6.813,0,0,1,1.107.57,3.934,3.934,0,0,1,1.342,1.342,3.216,3.216,0,0,1,.034,2.885,2.648,2.648,0,0,1-1.979,1.744H755.4Zm.5-.369Zm-3.355-1.141.939.4c.3.134.57.2.805.3a3.657,3.657,0,0,0,1.543.134h0a2.069,2.069,0,0,0,1.51-1.342,2.546,2.546,0,0,0,0-2.315,3.287,3.287,0,0,0-1.141-1.107,6.014,6.014,0,0,0-1.04-.537h-.033l-.6-.268Zm4.8-4.764a4.11,4.11,0,0,1-.637-.067,5.106,5.106,0,0,1-1.241-.369,1.193,1.193,0,0,1-.3-.134l-.57-.235a.405.405,0,0,1-.235-.235.569.569,0,0,1,0-.335l1.811-4.327a.405.405,0,0,1,.235-.235.568.568,0,0,1,.335,0l.872.369.537.235a4.871,4.871,0,0,1,.6.335,2.977,2.977,0,0,1,1.006,1.04,2.339,2.339,0,0,1,.268.671,2.443,2.443,0,0,1-.2,1.51,2.615,2.615,0,0,1-.973,1.241,2,2,0,0,1-1.073.4A.6.6,0,0,1,757.342,121.474Zm-2.281-1.275.336.134a2.3,2.3,0,0,1,.268.1,5.8,5.8,0,0,0,1.107.335,2.409,2.409,0,0,0,.839.034,1.679,1.679,0,0,0,.805-.3,2.267,2.267,0,0,0,.738-.973,2.024,2.024,0,0,0,.168-1.141,1.939,1.939,0,0,0-.168-.47,2.632,2.632,0,0,0-.805-.805c-.168-.1-.335-.2-.537-.3h0l-.671-.3-.47-.2Zm1.443-3.992Z" transform="translate(-748.125 -112.323)" fill="#553e37"/>
                  </g>
                </g>
              </g>
            </g>
          </g>
        </g>
        <g id="Group_164" data-name="Group 164" transform="translate(77.181)">
          <g id="Group_151" data-name="Group 151" transform="translate(0.373 0.401)">
            <g id="Group_150" data-name="Group 150">
              <g id="Group_149" data-name="Group 149">
                <g id="Group_148" data-name="Group 148">
                  <g id="Group_146" data-name="Group 146" transform="translate(0.451 0.444)">
                    <path id="Path_119" data-name="Path 119" d="M436.612,78.018a9.728,9.728,0,0,1-.034,4.059,9.546,9.546,0,0,1-.637,1.879,8.156,8.156,0,0,1-.973,1.644,9.707,9.707,0,0,1-1.711,1.812,9.467,9.467,0,0,1-3.556,1.845,3.563,3.563,0,0,1-.637.134,9.021,9.021,0,0,1-3.791,0,8.03,8.03,0,0,1-1.979-.637,9.555,9.555,0,0,1-5.569-6.911,9.976,9.976,0,0,1-.134-2.986,9.368,9.368,0,0,1,1.241-3.791h0a9.455,9.455,0,0,1,1.51-1.946,9.117,9.117,0,0,1,3.22-2.113,12.247,12.247,0,0,1,1.677-.5A9.614,9.614,0,0,1,436.612,78.018Z" transform="translate(-417.536 -70.304)" fill="#ffaf30"/>
                  </g>
                  <g id="Group_147" data-name="Group 147">
                    <path id="Path_120" data-name="Path 120" d="M426.259,89.147a9.581,9.581,0,0,1-1.946-.2,9.4,9.4,0,0,1-2.08-.671,10.185,10.185,0,0,1-5.837-7.212,9.76,9.76,0,0,1-.134-3.12,10.222,10.222,0,0,1,1.308-3.958,9.5,9.5,0,0,1,1.577-2.046,10.077,10.077,0,0,1,3.355-2.214,10.49,10.49,0,0,1,1.744-.537,10.09,10.09,0,0,1,11.875,12.077,10.275,10.275,0,0,1-.671,1.946,8.8,8.8,0,0,1-1.006,1.711,9.45,9.45,0,0,1-1.778,1.879,9.846,9.846,0,0,1-3.724,1.912c-.2.067-.436.1-.637.168A7.151,7.151,0,0,1,426.259,89.147Zm.034-19.289a8.633,8.633,0,0,0-1.845.2,9.724,9.724,0,0,0-1.61.47,9.359,9.359,0,0,0-3.086,2.046,8.749,8.749,0,0,0-1.442,1.879,8.9,8.9,0,0,0-1.208,3.657,9.063,9.063,0,0,0,.134,2.851,9.272,9.272,0,0,0,5.334,6.609,9.074,9.074,0,0,0,1.912.6,9.4,9.4,0,0,0,3.623,0c.2-.034.4-.1.6-.134A9.318,9.318,0,0,0,432.1,86.3a7.969,7.969,0,0,0,1.61-1.744,7.388,7.388,0,0,0,.906-1.577,8.551,8.551,0,0,0,.6-1.778,8.954,8.954,0,0,0,.034-3.891h0a9.05,9.05,0,0,0-3.958-5.837A8.233,8.233,0,0,0,426.292,69.858Z" transform="translate(-416.192 -68.979)" fill="#553e37"/>
                  </g>
                </g>
              </g>
            </g>
          </g>
          <g id="Group_157" data-name="Group 157" transform="translate(0)">
            <g id="Group_156" data-name="Group 156">
              <g id="Group_155" data-name="Group 155">
                <g id="Group_154" data-name="Group 154">
                  <g id="Group_152" data-name="Group 152">
                    <circle id="Ellipse_19" data-name="Ellipse 19" cx="7.548" cy="7.548" r="7.548" transform="translate(0 12.594) rotate(-56.539)" fill="#ffaf30"/>
                  </g>
                  <g id="Group_153" data-name="Group 153" transform="translate(2.458 2.496)">
                    <path id="Path_121" data-name="Path 121" d="M430.388,91.217a8,8,0,1,1,7.85-9.594h0A7.994,7.994,0,0,1,432,91.05,8.747,8.747,0,0,1,430.388,91.217Zm.034-15.129a7.22,7.22,0,0,0-1.442.134,7.138,7.138,0,1,0,8.42,5.569h0A7.155,7.155,0,0,0,430.422,76.088Z" transform="translate(-422.406 -75.224)" fill="#553e37"/>
                  </g>
                </g>
              </g>
            </g>
          </g>
          <g id="Group_163" data-name="Group 163" transform="translate(5.865 3.991)">
            <g id="Group_162" data-name="Group 162">
              <g id="Group_161" data-name="Group 161">
                <g id="Group_160" data-name="Group 160">
                  <g id="Group_158" data-name="Group 158" transform="translate(0.368 0.375)">
                    <path id="Path_122" data-name="Path 122" d="M440.684,86.671a2.733,2.733,0,0,0-1.443-.47l-.034-.1a1.97,1.97,0,0,0,1.006-2.113,1.722,1.722,0,0,0-1.275-1.442,1.979,1.979,0,0,0-.47-.067l-.335-1.677-1.04.2.3,1.543a6.941,6.941,0,0,0-.738.134h-.034l-.3-1.51-1.04.2.3,1.51-1.879.369c-.034,0-.067.034-.034.067l.067.335c0,.034.034.067.067.034l1.107-.1c.034,0,.067,0,.067.034l1.51,7.347c0,.034,0,.067-.034.067l-1.073.335c-.034,0-.067.034-.034.067l.067.335c0,.034.034.067.067.034l1.879-.369.335,1.61,1.04-.2-.336-1.61.336-.067c.168-.034.3-.067.436-.1l.335,1.61,1.04-.2L440.18,90.7a2.63,2.63,0,0,0,1.342-1.275,2.174,2.174,0,0,0,.134-1.375A2.247,2.247,0,0,0,440.684,86.671Zm-3.589-3.489a1.912,1.912,0,0,1,.436-.034,2.2,2.2,0,0,1,.839.168,1.205,1.205,0,0,1,.335.235,1.53,1.53,0,0,1,.4.805,1.638,1.638,0,0,1-.034.906,1.192,1.192,0,0,1-.369.537,1.638,1.638,0,0,1-.537.335,3.428,3.428,0,0,1-.772.268c-.067,0-.134.034-.2.034l-.4.067c-.034,0-.067,0-.067-.034l-.637-3.053c0-.034,0-.067.034-.067l.5-.1.1-.034Zm2.919,6.709a2.981,2.981,0,0,1-.973.57c-.168.067-.369.1-.57.168l-.2.034-.6.134c-.034,0-.067,0-.067-.067l-.738-3.623c0-.034,0-.067.034-.067l.57-.1h.034a3.76,3.76,0,0,1,.805-.1,2.891,2.891,0,0,1,1.141.2,1.811,1.811,0,0,1,.973,1.409A1.57,1.57,0,0,1,440.013,89.891Z" transform="translate(-433.659 -80.8)" fill="#fff"/>
                  </g>
                  <g id="Group_159" data-name="Group 159">
                    <path id="Path_123" data-name="Path 123" d="M436.9,92.636a.256.256,0,0,1-.168-.067.276.276,0,0,1-.134-.2l-.268-1.308-1.543.3a.435.435,0,0,1-.47-.3l-.067-.335a.411.411,0,0,1,.268-.47l.839-.235-1.409-6.877-.872.1a.361.361,0,0,1-.268-.067.388.388,0,0,1-.168-.235l-.067-.335a.342.342,0,0,1,.067-.3.388.388,0,0,1,.235-.168l1.543-.3-.235-1.174a.308.308,0,0,1,.268-.369l1.04-.2a.293.293,0,0,1,.369.235L436.1,81.5c.067,0,.1-.034.168-.034l-.235-1.208a.293.293,0,0,1,.235-.369l1.04-.2a.308.308,0,0,1,.369.268l.3,1.442a.979.979,0,0,1,.3.067,1.985,1.985,0,0,1,.939.537,2.493,2.493,0,0,1,.57,1.107,2.156,2.156,0,0,1-.671,2.046,3.2,3.2,0,0,1,.973.436,2.535,2.535,0,0,1,.906,3.153,2.667,2.667,0,0,1-1.275,1.308l.3,1.543a.308.308,0,0,1-.268.369l-1.04.2a.3.3,0,0,1-.235-.034.276.276,0,0,1-.134-.2l-.268-1.308c-.034,0-.1.034-.134.034h-.034l.268,1.308a.308.308,0,0,1-.268.369l-1.04.2C436.935,92.636,436.935,92.636,436.9,92.636Zm-.335-2.248a.256.256,0,0,1,.168.067.276.276,0,0,1,.134.2l.268,1.308.4-.1-.268-1.308a.271.271,0,0,1,.1-.3l-.436.1a.435.435,0,0,1-.47-.3l-.738-3.623a.342.342,0,0,1,.067-.3l.034-.034a.033.033,0,0,1-.034-.034.388.388,0,0,1-.168-.235l-.637-3.053a.342.342,0,0,1,.067-.3.388.388,0,0,1,.235-.168l.436-.1c-.034,0-.034-.034-.067-.034a.276.276,0,0,1-.134-.2l-.235-1.174-.4.1.235,1.174a.308.308,0,0,1-.268.369l-.57.1a.292.292,0,0,1,.2.268L436,90.154a.342.342,0,0,1-.067.3l-.034.034.537-.1Zm1.879-.4c.034,0,.1.034.134.034a.276.276,0,0,1,.134.2l.268,1.308.4-.1-.3-1.442a.337.337,0,0,1,.168-.369,2.241,2.241,0,0,0,1.174-1.107,2.12,2.12,0,0,0,.134-1.208,1.8,1.8,0,0,0-.805-1.174h0a2.423,2.423,0,0,0-1.275-.436.318.318,0,0,1-.3-.268l-.034-.1v-.1h0a4.71,4.71,0,0,1-.6.4c-.034,0-.034.034-.067.034h.067a2.887,2.887,0,0,1,1.275.235,2.182,2.182,0,0,1,1.141,1.644,1.825,1.825,0,0,1-.47,1.778h0A1.885,1.885,0,0,1,438.444,89.986Zm-3.556.671Zm1.577-4.126.637,3.12.537-.1c.2-.034.369-.1.537-.134a2.369,2.369,0,0,0,.872-.47,1.232,1.232,0,0,0,.3-1.208,1.5,1.5,0,0,0-.805-1.174,1.81,1.81,0,0,0-.973-.168,2.992,2.992,0,0,0-.738.1H436.8Zm2.818,2.617ZM436.2,86.6Zm.1-.939Zm-.335-.2Zm-.235-2.583.5,2.516.134-.034c.067,0,.134-.034.2-.034a3.466,3.466,0,0,0,.7-.235,1.379,1.379,0,0,0,.436-.268,1.277,1.277,0,0,0,.3-.436,1.348,1.348,0,0,0,.034-.738,1.611,1.611,0,0,0-.3-.637,1.019,1.019,0,0,0-.235-.168,1.556,1.556,0,0,0-.7-.134,1.5,1.5,0,0,0-.369.034h0Zm1.107-.805a2.251,2.251,0,0,1,.939.2,1.277,1.277,0,0,1,.436.3,2.068,2.068,0,0,1,.5.973,2.036,2.036,0,0,1-.067,1.107,1.568,1.568,0,0,1-.168.335,1.566,1.566,0,0,0,.738-1.677,1.53,1.53,0,0,0-.4-.805,1.457,1.457,0,0,0-.637-.369,1.251,1.251,0,0,0-.4-.067.318.318,0,0,1-.3-.268l-.268-1.375-.4.1.235,1.208a.279.279,0,0,1-.067.268.18.18,0,0,1-.134.1h0C436.8,82.069,436.834,82.069,436.834,82.069Zm-1.375.872Zm-2.449-.1Zm3.355-.4Z" transform="translate(-432.561 -79.681)" fill="#553e37"/>
                  </g>
                </g>
              </g>
            </g>
          </g>
        </g>
        <g id="Group_183" data-name="Group 183" transform="translate(117.245 170.394)">
          <g id="Group_170" data-name="Group 170" transform="translate(0 0.008)">
            <g id="Group_169" data-name="Group 169">
              <g id="Group_168" data-name="Group 168">
                <g id="Group_167" data-name="Group 167">
                  <g id="Group_165" data-name="Group 165" transform="translate(0.46 0.453)">
                    <path id="Path_124" data-name="Path 124" d="M564.567,611.678a12.473,12.473,0,0,1-2.952,4.562,13.959,13.959,0,0,1-2.046,1.677,11.963,11.963,0,0,1-2.248,1.174,13.4,13.4,0,0,1-3.22.839,12.107,12.107,0,0,1-5.334-.47,7.562,7.562,0,0,1-.805-.268,13.114,13.114,0,0,1-4.294-2.684,15.463,15.463,0,0,1-1.811-2.113,12.86,12.86,0,0,1-1.409-11.808,12.442,12.442,0,0,1,1.946-3.455,13.026,13.026,0,0,1,4.126-3.422h.034a12.391,12.391,0,0,1,3.12-1.141,12.744,12.744,0,0,1,5.166-.1,11.308,11.308,0,0,1,2.248.637A12.841,12.841,0,0,1,564.567,611.678Z" transform="translate(-539.613 -594.251)" fill="#ffaf30"/>
                  </g>
                  <g id="Group_166" data-name="Group 166">
                    <path id="Path_125" data-name="Path 125" d="M551.578,619.57a13.772,13.772,0,0,1-3.858-.57,8.4,8.4,0,0,1-.839-.3,13.7,13.7,0,0,1-4.462-2.784,13.125,13.125,0,0,1-1.879-2.214,13.333,13.333,0,0,1-1.443-12.177,13.928,13.928,0,0,1,2.013-3.589,13.107,13.107,0,0,1,4.26-3.522,12.827,12.827,0,0,1,3.221-1.174,13.606,13.606,0,0,1,5.334-.134,13.923,13.923,0,0,1,2.315.637,13.329,13.329,0,0,1,4.73,21.906,13.091,13.091,0,0,1-2.113,1.711,11.944,11.944,0,0,1-2.348,1.208,12.773,12.773,0,0,1-3.321.872A8.235,8.235,0,0,1,551.578,619.57Zm.033-25.8a12.567,12.567,0,0,0-2.751.3,11.847,11.847,0,0,0-2.986,1.107h-.034a12.561,12.561,0,0,0-3.992,3.288,11.8,11.8,0,0,0-1.879,3.355,12.629,12.629,0,0,0,1.342,11.406,12.783,12.783,0,0,0,1.744,2.046,12.207,12.207,0,0,0,4.16,2.583c.268.1.537.2.772.268a12.228,12.228,0,0,0,5.166.436,12.558,12.558,0,0,0,3.12-.805,12.223,12.223,0,0,0,2.181-1.141,12.987,12.987,0,0,0,1.979-1.61,12.743,12.743,0,0,0,2.851-4.395h0a12.479,12.479,0,0,0-11.674-16.84Z" transform="translate(-538.241 -592.901)" fill="#553e37"/>
                  </g>
                </g>
              </g>
            </g>
          </g>
          <g id="Group_176" data-name="Group 176" transform="translate(0.003 0)">
            <g id="Group_175" data-name="Group 175" transform="translate(0)">
              <g id="Group_174" data-name="Group 174">
                <g id="Group_173" data-name="Group 173">
                  <g id="Group_171" data-name="Group 171">
                    <circle id="Ellipse_20" data-name="Ellipse 20" cx="10.097" cy="10.097" r="10.097" transform="translate(0 8.328) rotate(-24.356)" fill="#ffaf30"/>
                  </g>
                  <g id="Group_172" data-name="Group 172" transform="translate(2.796 2.787)">
                    <path id="Path_126" data-name="Path 126" d="M557.157,622.291a11.047,11.047,0,0,1-3.724-.671,10.563,10.563,0,1,1,8.051-.268A10.267,10.267,0,0,1,557.157,622.291Zm-.034-20.229a9.846,9.846,0,0,0-3.992.872,9.684,9.684,0,1,0,13.049,12.244h0a9.679,9.679,0,0,0-5.636-12.479A9.974,9.974,0,0,0,557.124,602.062Z" transform="translate(-546.585 -601.185)" fill="#553e37"/>
                  </g>
                </g>
              </g>
            </g>
          </g>
          <g id="Group_182" data-name="Group 182" transform="translate(6.69 4.817)">
            <g id="Group_181" data-name="Group 181">
              <g id="Group_180" data-name="Group 180">
                <g id="Group_179" data-name="Group 179">
                  <g id="Group_177" data-name="Group 177" transform="translate(0.36 0.39)">
                    <path id="Path_127" data-name="Path 127" d="M568.934,618.263a3.688,3.688,0,0,0-1.308-1.577l.067-.134a2.6,2.6,0,0,0,2.65-1.677,2.32,2.32,0,0,0,.134-1.409,2.245,2.245,0,0,0-.57-1.073,5.972,5.972,0,0,0-.47-.436l.805-2.147-1.342-.5-.738,1.946c-.268-.134-.6-.268-.939-.4l-.067-.034.738-1.912-1.342-.5-.738,1.912-2.382-.906c-.067-.034-.1,0-.1.067l-.168.436c-.034.067,0,.1.034.1l1.342.671c.067.034.067.067.067.1l-3.522,9.359c-.033.067-.067.067-.1.034l-1.443-.4c-.067-.034-.1,0-.1.067l-.168.436c-.034.067,0,.1.034.1l2.382.906-.772,2.046,1.342.5.772-2.046.436.168c.2.067.4.134.57.2l-.772,2.08,1.342.5.839-2.248a3.342,3.342,0,0,0,2.415-.5A3.1,3.1,0,0,0,569,620.51,2.761,2.761,0,0,0,568.934,618.263Zm-1.61-6.508a2.4,2.4,0,0,1,.5.268,2.154,2.154,0,0,1,.839.805,1.582,1.582,0,0,1,.2.5,2.065,2.065,0,0,1-.1,1.174,2.268,2.268,0,0,1-.7,1.006,1.707,1.707,0,0,1-.839.336,3.5,3.5,0,0,1-.839,0,4.759,4.759,0,0,1-1.04-.268c-.1-.034-.168-.067-.268-.1l-.5-.2c-.067-.034-.067-.067-.034-.1l1.476-3.891c.034-.067.067-.067.1-.034l.637.235.134.067Zm-1.476,9.695a3.355,3.355,0,0,1-1.51-.067c-.235-.067-.5-.134-.772-.235l-.268-.1-.772-.3c-.067-.033-.067-.067-.034-.1l1.744-4.663c.034-.067.067-.067.1-.034l.7.268a.033.033,0,0,1,.034.034,5.263,5.263,0,0,1,.973.47,3.472,3.472,0,0,1,1.141,1.04,2.456,2.456,0,0,1,.1,2.281A2.03,2.03,0,0,1,565.848,621.449Z" transform="translate(-559.259 -608.4)" fill="#fff"/>
                  </g>
                  <g id="Group_178" data-name="Group 178">
                    <path id="Path_128" data-name="Path 128" d="M563.892,624.266a.123.123,0,0,1-.1-.034l-1.342-.5a.312.312,0,0,1-.2-.4l.671-1.744c-.1-.034-.168-.067-.268-.1l-.134-.034-.671,1.744a.4.4,0,0,1-.168.168.286.286,0,0,1-.235,0l-1.342-.5a.312.312,0,0,1-.2-.4l.671-1.744-2.113-.805a.385.385,0,0,1-.235-.537l.168-.436a.391.391,0,0,1,.5-.268L560.1,619l3.388-8.957-1.141-.57a.3.3,0,0,1-.2-.2.465.465,0,0,1,0-.3l.168-.436a.384.384,0,0,1,.537-.235l2.08.771.6-1.61a.312.312,0,0,1,.4-.2l1.342.5a.4.4,0,0,1,.168.168.286.286,0,0,1,0,.235l-.6,1.677c.134.067.268.1.4.168l.6-1.644a.4.4,0,0,1,.168-.168.286.286,0,0,1,.235,0l1.342.5a.4.4,0,0,1,.168.168.286.286,0,0,1,0,.235l-.738,1.946a3.165,3.165,0,0,1,.335.335,2.6,2.6,0,0,1,.637,1.241,3.027,3.027,0,0,1-.168,1.61,2.829,2.829,0,0,1-2.348,1.845,4.07,4.07,0,0,1,.939,1.308,3.265,3.265,0,0,1-1.174,4.093,3.667,3.667,0,0,1-2.382.57l-.772,2.046a.4.4,0,0,1-.168.168Zm-.939-1.006.738.268.738-1.946a.319.319,0,0,1,.335-.2,3,3,0,0,0,2.18-.436,2.84,2.84,0,0,0,1.04-1.308,2.538,2.538,0,0,0-.067-1.979h0a3.3,3.3,0,0,0-1.208-1.443.278.278,0,0,1-.1-.369l.067-.134a.293.293,0,0,1,.3-.2,2.239,2.239,0,0,0,2.348-1.476,2.3,2.3,0,0,0,.134-1.241,2.355,2.355,0,0,0-.5-.939,1.585,1.585,0,0,0-.436-.369.278.278,0,0,1-.1-.369l.7-1.845-.738-.268-.637,1.644a.344.344,0,0,1-.168.2.368.368,0,0,1-.268,0,5.656,5.656,0,0,0-.906-.369l-.067-.034a.4.4,0,0,1-.168-.168.287.287,0,0,1,0-.235l.6-1.61-.738-.268-.6,1.61a.312.312,0,0,1-.4.2l-2.113-.805,1.073.537a.3.3,0,0,1,.2.2.466.466,0,0,1,0,.3l-3.522,9.359a.4.4,0,0,1-.5.235l-1.208-.335,2.147.805a.4.4,0,0,1,.168.168.286.286,0,0,1,0,.235l-.671,1.744.738.268.671-1.744a.4.4,0,0,1,.168-.168.286.286,0,0,1,.235,0l.436.168c.2.067.369.134.57.2a.343.343,0,0,1,.2.168.367.367,0,0,1,0,.268Zm-.2-14.056Zm1.812,11.842a3.85,3.85,0,0,1-1.04-.134c-.235-.067-.5-.134-.805-.235l-1.04-.4a.355.355,0,0,1-.235-.2.466.466,0,0,1,0-.3l1.744-4.663a.355.355,0,0,1,.2-.235.466.466,0,0,1,.3,0l.7.268c.034,0,.034,0,.067.034a7,7,0,0,1,1.006.47,3.239,3.239,0,0,1,1.241,1.174,2.878,2.878,0,0,1,.134,2.583,2.3,2.3,0,0,1-1.711,1.61h0C565,621.012,564.8,621.046,564.563,621.046Zm.57-.369Zm-2.986-.939.805.3c.268.1.5.168.738.235a2.8,2.8,0,0,0,1.375.067,1.675,1.675,0,0,0,1.241-1.208,2.206,2.206,0,0,0-.067-2.013,2.874,2.874,0,0,0-1.04-.939,4.907,4.907,0,0,0-.939-.436h-.033l-.5-.2Zm1.375-4.26Zm.3-.168Zm2.281.134a2.222,2.222,0,0,1-.47-.033,5.276,5.276,0,0,1-1.107-.268c-.1-.034-.168-.067-.268-.1l-.5-.2a.355.355,0,0,1-.235-.2.466.466,0,0,1,0-.3L565,610.445a.355.355,0,0,1,.2-.235.465.465,0,0,1,.3,0l.772.3.47.2a3.063,3.063,0,0,1,.57.3,2.947,2.947,0,0,1,.939.872,2.382,2.382,0,0,1,.268.6,2.214,2.214,0,0,1-.134,1.375,2.687,2.687,0,0,1-.805,1.141,2.3,2.3,0,0,1-.973.4C566.442,615.41,566.274,615.444,566.106,615.444Zm-1.912-1.141.268.1c.1.034.168.067.268.1a4.3,4.3,0,0,0,1.006.235,2.7,2.7,0,0,0,.738,0,1.335,1.335,0,0,0,.7-.3,1.7,1.7,0,0,0,.6-.872,1.79,1.79,0,0,0,.1-1.006,2.049,2.049,0,0,0-.168-.4,1.8,1.8,0,0,0-.738-.671,2.054,2.054,0,0,0-.47-.235h0l-.6-.268-.4-.134Zm1.073-3.489Z" transform="translate(-558.184 -607.237)" fill="#553e37"/>
                  </g>
                </g>
              </g>
            </g>
          </g>
        </g>
        <g id="Group_185" data-name="Group 185" transform="translate(36.039 37.302)">
          <g id="Group_184" data-name="Group 184">
            <path id="Path_129" data-name="Path 129" d="M286.758,232.645a.361.361,0,0,1-.335-.268,55.523,55.523,0,0,1,5.032-33.479A53.342,53.342,0,0,1,303.5,183.131a.333.333,0,0,1,.436.5A52.8,52.8,0,0,0,292.058,199.2a54.894,54.894,0,0,0-4.965,33.077.314.314,0,0,1-.268.369Z" transform="translate(-285.727 -183.045)" fill="#553e37"/>
          </g>
        </g>
        <g id="Group_187" data-name="Group 187" transform="translate(19.201 34.507)">
          <g id="Group_186" data-name="Group 186">
            <path id="Path_130" data-name="Path 130" d="M236.294,211.836a.357.357,0,0,1-.335-.3,51.238,51.238,0,0,1,3.053-25.327,41.753,41.753,0,0,1,7.28-11.942.333.333,0,0,1,.5.436,40.425,40.425,0,0,0-7.179,11.741,50.5,50.5,0,0,0-2.986,24.992.333.333,0,0,1-.3.369A.033.033,0,0,1,236.294,211.836Z" transform="translate(-235.534 -174.145)" fill="#553e37"/>
          </g>
        </g>
        <g id="Group_192" data-name="Group 192" transform="translate(35.143 95.962)">
          <g id="Group_191" data-name="Group 191">
            <g id="Group_190" data-name="Group 190">
              <path id="Path_132" data-name="Path 132" d="M310.142,481.736a81.412,81.412,0,0,0-2.113-21.872,170.163,170.163,0,0,0-6.709-21.4c-2.684-7.112-5.6-14.123-8.319-21.2a175.618,175.618,0,0,1-6.877-21.335,80.392,80.392,0,0,1-2.382-21.906c.034-.906.1-1.812.168-2.717.034-.4-.6-.4-.637,0a77.066,77.066,0,0,0,1.577,21.839,147.849,147.849,0,0,0,6.441,21.369c2.65,7.112,5.569,14.123,8.286,21.2a185.492,185.492,0,0,1,7.112,21.369,85.122,85.122,0,0,1,2.919,21.939q0,1.359-.1,2.717c-.034.4.637.4.637,0Z" transform="translate(-283.056 -371)" fill="#553e37"/>
            </g>
          </g>
        </g>
        <g id="Group_195" data-name="Group 195" transform="translate(28.086 86.634)">
          <g id="Group_194" data-name="Group 194">
            <g id="Group_193" data-name="Group 193">
              <path id="Path_133" data-name="Path 133" d="M275.43,361.344a24.663,24.663,0,0,0-2.482-13.486c-.839-1.677-2.08-4.26-4.16-4.629-2.113-.369-2.952,2.214-3.455,3.791-2.717,8.823,1.845,18.081-.6,26.938-.6,2.214-1.476,4.327-2.08,6.508a11.191,11.191,0,0,0-.369,5.938A7.39,7.39,0,0,0,265.6,390.6a42.994,42.994,0,0,1,4.462,2.751,4.893,4.893,0,0,1,1.912,4.16A9.546,9.546,0,0,1,270.4,401.7c-1.51,2.617-3.791,5.233-4.026,8.353a5.522,5.522,0,0,0,1.174,3.925,8.671,8.671,0,0,0,3.321,2.382c2.684,1.208,5.871,1.744,8.152,3.657a5.734,5.734,0,0,1,2.046,4.764c-.1,2.382-1.073,4.6-1.443,6.944a11.675,11.675,0,0,0,3.69,10.3,11.42,11.42,0,0,0,10.3,3.153,11.9,11.9,0,0,0,7.682-6.273,11.516,11.516,0,0,0,.537-9.9c-1.711-3.891-5.267-6.508-7.816-9.8-5.166-6.743-3.958-15.733-4.428-23.65-.235-3.925-.839-7.917-2.818-11.406-1.946-3.422-5.2-5.8-7.447-8.99a9.539,9.539,0,0,1-1.912-4.965c-.034-.4-.671-.436-.637,0,.2,3.757,2.885,6.575,5.334,9.158a30.348,30.348,0,0,1,3.657,4.361,18.5,18.5,0,0,1,2.281,5.367c1.946,7.682.2,15.8,2.147,23.482a20.561,20.561,0,0,0,2.08,5.2,27.8,27.8,0,0,0,3.858,4.8c2.617,2.784,5.569,5.736,5.9,9.762a12,12,0,0,1-3.556,9.292,9.96,9.96,0,0,1-9.8,2.717,12.167,12.167,0,0,1-7.984-7.481,10.639,10.639,0,0,1-.268-5.971c.47-2.147,1.275-4.26,1.308-6.508a6.308,6.308,0,0,0-1.811-4.529,10.639,10.639,0,0,0-3.589-2.18c-2.549-1.073-5.669-1.61-7.716-3.589a5.077,5.077,0,0,1-1.61-3.724,9.514,9.514,0,0,1,1.342-4.126c1.443-2.583,3.69-5.065,4.193-8.085a5.418,5.418,0,0,0-.805-3.992,10.531,10.531,0,0,0-3.757-2.986,12.045,12.045,0,0,1-4.227-3.187,7.468,7.468,0,0,1-.839-5.8,50.776,50.776,0,0,1,1.879-6.206,24.452,24.452,0,0,0,1.308-6.407c.268-4.428-.537-8.823-.839-13.217a27.76,27.76,0,0,1,.168-6.676,16.627,16.627,0,0,1,.772-3.086c.3-.906.7-2.181,1.61-2.617,1.073-.537,2.181.436,2.818,1.208a15.021,15.021,0,0,1,1.744,2.885,24.059,24.059,0,0,1,2.181,6.575,23.382,23.382,0,0,1,.235,6.676c-.067.47.6.47.637.034Z" transform="translate(-262.018 -343.194)" fill="#553e37"/>
            </g>
          </g>
        </g>
        <g id="Group_198" data-name="Group 198" transform="translate(4.06 113.113)">
          <g id="Group_197" data-name="Group 197">
            <g id="Group_196" data-name="Group 196">
              <path id="Path_134" data-name="Path 134" d="M221.127,452.571c-1.006-5.8-4.462-10.8-8.252-15.163-2.046-2.382-4.227-4.629-6.441-6.843-2.315-2.315-4.663-4.6-7.078-6.81-2.717-2.516-5.535-4.931-8.387-7.313-.335-.268-.772.2-.47.47,5.032,4.16,9.9,8.554,14.526,13.15q3.371,3.321,6.542,6.843a52.718,52.718,0,0,1,5.334,6.911,25.485,25.485,0,0,1,3.589,8.923.33.33,0,1,0,.637-.168Z" transform="translate(-190.398 -416.361)" fill="#553e37"/>
            </g>
          </g>
        </g>
        <g id="Group_201" data-name="Group 201" transform="translate(0 105.842)">
          <g id="Group_200" data-name="Group 200">
            <g id="Group_199" data-name="Group 199">
              <path id="Path_135" data-name="Path 135" d="M190.34,405.7a12.776,12.776,0,0,0-5.435-4.9,4.642,4.642,0,0,0-5.5,1.476,6.879,6.879,0,0,0-.939,5.367,9.952,9.952,0,0,0,3.589,5.435c1.946,1.677,4.227,2.919,6.206,4.6,1.912,1.644,3.757,3.891,3.925,6.508.168,2.717-1.946,4.73-2.214,7.313-.235,2.348,1.174,4.5,2.885,5.971,1.912,1.677,4.26,2.583,6.542,3.623s4.6,2.248,6,4.395c2.717,4.126,1.476,9.695-.5,13.855-1.04,2.181-2.684,4.428-1.879,6.978a7.324,7.324,0,0,0,4.093,4.093,26.444,26.444,0,0,0,6.24,1.711c2.08.436,4.361,1.006,6,2.449a5.231,5.231,0,0,1,1.677,2.784,9.008,9.008,0,0,1-.335,4.327c-.637,2.382-1.644,4.7-1.375,7.212a4.725,4.725,0,0,0,3.925,4.462c2.482.369,4.73-1.006,6.34-2.784a25.246,25.246,0,0,0,2.281-3.086c.235-.335-.335-.671-.57-.335-1.375,2.08-2.952,4.428-5.4,5.267a5,5,0,0,1-3.489.034,3.73,3.73,0,0,1-2.147-2.348c-1.61-4.831,3.388-9.594.939-14.324-1.979-3.791-6.978-4.059-10.634-4.931a11.751,11.751,0,0,1-5.6-2.751,4.625,4.625,0,0,1-1.375-2.415,5.777,5.777,0,0,1,.738-3.724c.537-1.107,1.141-2.147,1.61-3.288a20.479,20.479,0,0,0,1.141-3.422,15.475,15.475,0,0,0,.3-6.676,9.7,9.7,0,0,0-3.321-5.6,26.727,26.727,0,0,0-6.407-3.422,13.927,13.927,0,0,1-5.8-4.193,5.88,5.88,0,0,1-1.208-3.12,7.768,7.768,0,0,1,1.006-3.657,9.651,9.651,0,0,0,1.174-3.422,6.543,6.543,0,0,0-.57-3.388,13.787,13.787,0,0,0-4.629-5.468c-3.489-2.617-8.454-5.066-8.688-10-.067-1.778.47-3.757,2.08-4.7,2.214-1.308,4.663,0,6.307,1.543a17.573,17.573,0,0,1,2.415,2.818c.268.4.839.067.6-.268Z" transform="translate(-178.296 -400.453)" fill="#553e37"/>
            </g>
          </g>
        </g>
        <g id="Group_204" data-name="Group 204" transform="translate(195.516 120.727)">
          <g id="Group_203" data-name="Group 203">
            <g id="Group_202" data-name="Group 202">
              <path id="Path_136" data-name="Path 136" d="M782.664,529.454a125.053,125.053,0,0,1,9.863-16.4c3.657-5.267,7.581-10.332,11.406-15.465,3.791-5.066,7.514-10.165,10.835-15.532a94.9,94.9,0,0,0,8.387-16.706,60.542,60.542,0,0,0,3.925-17.88c.034-.772.067-1.543.067-2.315a.319.319,0,1,0-.637,0,56.945,56.945,0,0,1-3.22,18.048,90.069,90.069,0,0,1-8.018,16.84c-3.22,5.4-6.877,10.5-10.6,15.566-3.791,5.1-7.682,10.131-11.372,15.331a137.563,137.563,0,0,0-10.064,16.1c-.369.7-.738,1.409-1.074,2.147-.268.3.3.637.5.268Z" transform="translate(-782.09 -444.825)" fill="#553e37"/>
            </g>
          </g>
        </g>
        <g id="Group_207" data-name="Group 207" transform="translate(208.159 107.178)">
          <g id="Group_206" data-name="Group 206">
            <g id="Group_205" data-name="Group 205">
              <path id="Path_137" data-name="Path 137" d="M821.194,473.059c-1.711-2.65.034-5.8,2.013-7.749,2.248-2.147,5.334-3.12,7.951-4.73a11.464,11.464,0,0,0,3.321-2.885,10.326,10.326,0,0,0,1.845-4.26c.637-3.22.168-6.542.034-9.8-.067-1.61-.067-3.455.906-4.8a7.191,7.191,0,0,1,1.979-1.644,13.091,13.091,0,0,0,1.711-1.342c2.08-2.08,2.885-5.065,3.086-7.917.268-3.522-.47-7.011-.637-10.5-.168-3.388.2-6.978,2.583-9.594,1.811-2.013,4.764-3.489,7.447-2.281,2.818,1.308,3.858,4.663,4.7,7.414,1.107,3.589,2.181,7.514,1.241,11.272-.738,3.086-2.751,5.7-3.891,8.655a7.9,7.9,0,0,0-.6,4.026,5.886,5.886,0,0,0,2.08,3.589,36.616,36.616,0,0,1,3.522,2.885,6.411,6.411,0,0,1,1.543,3.958,11.04,11.04,0,0,1-3.288,8.051c-2.415,2.449-5.535,4.059-8.487,5.77a24.523,24.523,0,0,0-7.38,5.971,12.027,12.027,0,0,0-2.046,4.026,12.471,12.471,0,0,0-.1,4.73,12.044,12.044,0,0,1,.1,5.133c-.5,1.711-1.979,2.684-3.422,3.589-3.288,2.013-6.676,3.891-10.131,5.569-1.677.805-3.355,1.577-5.065,2.315-.369.168-.067.738.335.57a114.784,114.784,0,0,0,10.6-5.2c1.711-.939,3.388-1.912,5.032-2.952a6.937,6.937,0,0,0,3.22-3.489,10.647,10.647,0,0,0,.034-4.931,13.216,13.216,0,0,1,0-5.133c.839-3.187,3.321-5.7,5.9-7.548,5.233-3.757,12.513-5.938,14.794-12.647.906-2.684.839-5.871-1.107-8.118a34.244,34.244,0,0,0-3.623-2.986,5.079,5.079,0,0,1-1.946-3.891,10.292,10.292,0,0,1,1.174-4.327c.7-1.476,1.51-2.885,2.214-4.395a14.547,14.547,0,0,0,1.442-4.864,19.063,19.063,0,0,0-.436-5.669,44.609,44.609,0,0,0-1.51-5.4,15.316,15.316,0,0,0-1.879-4.126,6.834,6.834,0,0,0-3.254-2.65,5.937,5.937,0,0,0-3.958.034,9.778,9.778,0,0,0-5.8,5.938c-1.275,3.657-.671,7.682-.3,11.406.336,3.22.5,6.508-.537,9.594a9.425,9.425,0,0,1-2.315,3.791c-1.174,1.107-2.784,1.677-3.69,3.053a8.307,8.307,0,0,0-.939,4.764c.034,1.711.2,3.422.268,5.133.1,3.288-.168,6.843-2.482,9.393-2.181,2.348-5.334,3.455-8.051,5-2.516,1.442-4.931,3.757-5.5,6.709a5.19,5.19,0,0,0,.671,3.791c.3.4.872.067.637-.3Z" transform="translate(-819.778 -404.434)" fill="#553e37"/>
            </g>
          </g>
        </g>
      </g>
      <g id="woman_2" transform="translate(31.971 29.305)">
        <g id="Group_223" data-name="Group 223" transform="translate(12.01 137.638)">
          <g id="Group_210" data-name="Group 210" transform="translate(18.551 0)">
            <g id="Group_208" data-name="Group 208" transform="translate(0.369 0.338)">
              <path id="Path_138" data-name="Path 138" d="M383.647,583.6,365.8,597.32c3.22,1.778,6.474,3.556,9.695,5.334,6.441-4.629,12.848-9.225,19.289-13.855Z" transform="translate(-365.8 -583.6)" fill="#fff"/>
            </g>
            <g id="Group_209" data-name="Group 209">
              <path id="Path_139" data-name="Path 139" d="M374.73,602.319a.3.3,0,0,1-.168-.034l-9.695-5.334a.342.342,0,0,1-.168-.268.364.364,0,0,1,.134-.3l17.847-13.72a.308.308,0,0,1,.335-.034l11.137,5.2a.522.522,0,0,1,.2.268.327.327,0,0,1-.134.3l-19.289,13.855C374.9,602.319,374.8,602.319,374.73,602.319Zm-9.091-5.7,9.058,5L393.349,588.2l-10.433-4.864Z" transform="translate(-364.7 -582.591)" fill="#553e37"/>
            </g>
          </g>
          <g id="Group_213" data-name="Group 213" transform="translate(0.839 11.174)">
            <g id="Group_211" data-name="Group 211" transform="translate(0.335 0.369)">
              <path id="Path_140" data-name="Path 140" d="M333.9,617l-20.866,7.447-.134,3.858,31.567,1.074.335-9.494C344.769,619.851,336.416,626.259,333.9,617Z" transform="translate(-312.9 -617)" fill="#da5724"/>
            </g>
            <g id="Group_212" data-name="Group 212">
              <path id="Path_141" data-name="Path 141" d="M344.071,628.949,311.9,627.876l.134-4.361.2-.067L333.4,615.9l.1.336c.671,2.482,1.845,4.026,3.455,4.562,3.086,1.04,6.911-1.845,6.944-1.879l.5-.4Zm-31.534-1.677,30.93,1.04.3-8.588c-1.208.805-4.26,2.516-7.011,1.61-1.744-.6-3.019-2.147-3.757-4.663l-20.363,7.246Z" transform="translate(-311.9 -615.9)" fill="#553e37"/>
            </g>
          </g>
          <g id="Group_216" data-name="Group 216" transform="translate(0 21.271)">
            <g id="Group_214" data-name="Group 214" transform="translate(0.202 0.172)">
              <rect id="Rectangle_54" data-name="Rectangle 54" width="33.278" height="2.382" transform="matrix(0.999, 0.034, -0.034, 0.999, 0.08, 0)" fill="#553e37"/>
            </g>
            <g id="Group_215" data-name="Group 215">
              <path id="Path_142" data-name="Path 142" d="M342.98,649.858l-33.58-1.141.1-2.717,33.58,1.141Zm-33.211-1.443,32.909,1.107.067-2.08-32.909-1.107Z" transform="translate(-309.4 -646)" fill="#553e37"/>
            </g>
          </g>
          <g id="Group_218" data-name="Group 218" transform="translate(13.519 6.094)">
            <g id="Group_217" data-name="Group 217">
              <path id="Path_143" data-name="Path 143" d="M357.617,606.675h-.067c-1.308-.369-7.883-2.382-7.85-4.227,0-.637.738-1.107,2.181-1.443,2.08-.5,3.657-.235,4.7.7,1.744,1.61,1.275,4.629,1.275,4.764a.285.285,0,0,1-.1.168C357.717,606.675,357.684,606.675,357.617,606.675Zm-3.791-5.435a7.458,7.458,0,0,0-1.811.235c-1.577.369-1.812.772-1.812,1.006-.034,1.073,4.294,2.784,7.212,3.657.067-.772.1-2.885-1.141-4.059A3.4,3.4,0,0,0,353.826,601.24Z" transform="translate(-349.7 -600.756)" fill="#553e37"/>
            </g>
          </g>
          <g id="Group_220" data-name="Group 220" transform="translate(20.411 11.216)">
            <g id="Group_219" data-name="Group 219">
              <path id="Path_144" data-name="Path 144" d="M373.047,624.638a2.509,2.509,0,0,1-1.644-.57c-2.113-1.845-.7-7.581-.637-7.85a.335.335,0,0,1,.134-.168.214.214,0,0,1,.2,0c.268.134,6.307,3.086,6.206,5.77-.034.973-.805,1.744-2.315,2.348A4.561,4.561,0,0,1,373.047,624.638Zm-1.879-7.984c-.268,1.174-1.107,5.636.537,7.078.671.6,1.711.6,3.12.034q1.962-.805,2.013-1.912C376.9,619.942,373.014,617.56,371.169,616.654Z" transform="translate(-370.244 -616.025)" fill="#553e37"/>
            </g>
          </g>
          <g id="Group_222" data-name="Group 222" transform="translate(11.245 11.765)">
            <g id="Group_221" data-name="Group 221">
              <path id="Path_145" data-name="Path 145" d="M345.7,625.491a8.53,8.53,0,0,1-2.617-.4.234.234,0,0,1,.168-.436c.034,0,3.321,1.107,5.569-.5,1.543-1.107,2.583-3.556,3.086-5.066a9.511,9.511,0,0,1-5.435,3.22.237.237,0,1,1-.067-.47c3.657-.6,5.9-4.026,5.938-4.059a.271.271,0,0,1,.3-.1.228.228,0,0,1,.134.268c-.034.2-1.241,4.864-3.657,6.575A5.878,5.878,0,0,1,345.7,625.491Z" transform="translate(-342.922 -617.662)" fill="#553e37"/>
            </g>
          </g>
        </g>
        <g id="Group_239" data-name="Group 239" transform="translate(0 76.852)">
          <g id="Group_226" data-name="Group 226" transform="translate(20.094)">
            <g id="Group_224" data-name="Group 224" transform="translate(0.335 0.338)">
              <path id="Path_146" data-name="Path 146" d="M354.594,402.4,334.5,412.565c2.851,2.348,5.7,4.7,8.521,7.045,7.179-3.355,14.358-6.676,21.537-10.03Z" transform="translate(-334.5 -402.4)" fill="#fff"/>
            </g>
            <g id="Group_225" data-name="Group 225">
              <path id="Path_147" data-name="Path 147" d="M342.356,419.274a.36.36,0,0,1-.2-.067l-8.521-7.045a.327.327,0,0,1-.134-.3.342.342,0,0,1,.168-.268l20.094-10.165a.309.309,0,0,1,.335.034l9.963,7.179a.364.364,0,0,1,.134.3.292.292,0,0,1-.2.268l-21.537,10.03C342.457,419.274,342.39,419.274,342.356,419.274Zm-7.917-7.313,7.984,6.575,20.832-9.695L353.93,402.1Z" transform="translate(-333.5 -401.391)" fill="#553e37"/>
            </g>
          </g>
          <g id="Group_229" data-name="Group 229" transform="translate(0.973 8.255)">
            <g id="Group_227" data-name="Group 227" transform="translate(0.403 0.369)">
              <path id="Path_148" data-name="Path 148" d="M300.411,427.1l-21.872,3.422-.839,3.757,30.8,6.944,2.08-9.292S301.182,436.661,300.411,427.1Z" transform="translate(-277.7 -427.1)" fill="#da5724"/>
            </g>
            <g id="Group_228" data-name="Group 228">
              <path id="Path_149" data-name="Path 149" d="M307.9,440.827l-31.4-7.078.973-4.26L299.882,426l.034.335c.2,2.549,1.04,4.294,2.549,5.133,2.851,1.61,7.112-.5,7.179-.537l.57-.3Zm-30.661-7.514,30.192,6.81,1.879-8.387c-1.342.537-4.663,1.677-7.179.268-1.61-.906-2.55-2.684-2.818-5.267l-21.369,3.321Z" transform="translate(-276.5 -426)" fill="#553e37"/>
            </g>
          </g>
          <g id="Group_232" data-name="Group 232" transform="translate(0 14.092)">
            <g id="Group_230" data-name="Group 230" transform="translate(0.21 0.172)">
              <rect id="Rectangle_55" data-name="Rectangle 55" width="33.278" height="2.382" transform="translate(0.523 0) rotate(12.685)" fill="#553e37"/>
            </g>
            <g id="Group_231" data-name="Group 231">
              <path id="Path_150" data-name="Path 150" d="M306.375,453.43,273.6,446.05l.6-2.65,32.775,7.38ZM274,445.815l32.137,7.246.47-2.013L274.472,443.8Z" transform="translate(-273.6 -443.4)" fill="#553e37"/>
            </g>
          </g>
          <g id="Group_234" data-name="Group 234" transform="translate(16.318 2.306)">
            <g id="Group_233" data-name="Group 233">
              <path id="Path_151" data-name="Path 151" d="M329.273,414.919a.123.123,0,0,1-.1-.034c-1.208-.637-7.313-3.824-6.911-5.6q.2-.906,2.415-1.006c2.147-.1,3.623.436,4.462,1.577,1.409,1.912.4,4.8.369,4.931-.034.067-.067.134-.134.134Zm-4.126-6.173h-.436c-1.61.067-1.912.436-1.979.637-.235,1.073,3.69,3.522,6.407,4.931.2-.738.637-2.818-.369-4.193A4.33,4.33,0,0,0,325.147,408.746Z" transform="translate(-322.243 -408.264)" fill="#553e37"/>
            </g>
          </g>
          <g id="Group_236" data-name="Group 236" transform="translate(21.454 8.141)">
            <g id="Group_235" data-name="Group 235">
              <path id="Path_152" data-name="Path 152" d="M340.42,434.562a2.624,2.624,0,0,1-2.248-.939c-1.744-2.214.738-7.581.839-7.816a.335.335,0,0,1,.168-.134.222.222,0,0,1,.2.034c.235.168,5.6,4.193,5.032,6.843-.2.939-1.107,1.577-2.717,1.879A9.175,9.175,0,0,1,340.42,434.562Zm-1.073-8.286c-.47,1.107-2.147,5.3-.772,7.045.537.7,1.577.906,3.053.637q2.063-.4,2.315-1.51C344.345,430.6,340.957,427.518,339.347,426.276Z" transform="translate(-337.553 -425.659)" fill="#553e37"/>
            </g>
          </g>
          <g id="Group_238" data-name="Group 238" transform="translate(11.949 8.578)">
            <g id="Group_237" data-name="Group 237">
              <path id="Path_153" data-name="Path 153" d="M313.171,433.549a8.943,8.943,0,0,1-3.824-1.006.248.248,0,1,1,.235-.436c.034.034,3.053,1.677,5.569.537,1.711-.772,3.187-3.019,3.992-4.395A9.669,9.669,0,0,1,313.2,430.4a.235.235,0,1,1,0-.47h.168a9.974,9.974,0,0,0,6.407-2.885.212.212,0,0,1,.3-.034.219.219,0,0,1,.067.3c-.1.2-2.113,4.529-4.831,5.77A4.971,4.971,0,0,1,313.171,433.549Z" transform="translate(-309.22 -426.961)" fill="#553e37"/>
            </g>
          </g>
        </g>
        <g id="Group_242" data-name="Group 242" transform="translate(97.151 35.015)">
          <g id="Group_240" data-name="Group 240" transform="translate(0.306 0.377)">
            <path id="Path_154" data-name="Path 154" d="M577.983,283.771a.753.753,0,0,1,.034-.537c.2-.369.805-.436,1.04-.436h.067a28.828,28.828,0,0,0,3.824-.772s-1.912.2-3.589.4c-.839.1-1.644.2-2.08.235a1.846,1.846,0,0,1-1.644-.436.723.723,0,0,1-.1-.537c.134-1.006,4.026-1.409,5.971-1.543-2.046-.1-7.045.805-6.911-.939.034-.47.906-.772,2.18-1.006a56.263,56.263,0,0,1,7.816-.4c.7.4,1.409.839,2.113,1.241.2,3.153-1.241,3.824-2.382,4.327a11.331,11.331,0,0,1-3.288.939C579.492,284.476,578.151,284.274,577.983,283.771Z" transform="translate(-574.592 -277.8)" fill="#fff"/>
          </g>
          <g id="Group_241" data-name="Group 241">
            <path id="Path_155" data-name="Path 155" d="M579.357,283.931c-1.073,0-2.08-.2-2.315-.805h0a1.075,1.075,0,0,1,.067-.839c.034-.034.034-.067.067-.1l-.436.067c-.436.067-1.51.1-1.946-.6a1.321,1.321,0,0,1-.168-.772c.034-.2.1-.637,1.275-1.04a3.149,3.149,0,0,1-1.912-.6.978.978,0,0,1-.3-.839c.034-.637.805-1.04,2.482-1.308a50.649,50.649,0,0,1,7.883-.4.251.251,0,0,1,.168.034l2.113,1.241a.342.342,0,0,1,.168.268c.2,3.388-1.409,4.126-2.55,4.663a11.354,11.354,0,0,1-3.388.939A4.9,4.9,0,0,1,579.357,283.931Zm-1.677-1.04c.067.168.973.5,2.784.3a11.183,11.183,0,0,0,3.187-.906c1.073-.5,2.281-1.073,2.181-3.824l-1.879-1.107a55.671,55.671,0,0,0-7.682.4c-1.812.3-1.912.671-1.912.671a.468.468,0,0,0,.1.3c.57.57,2.784.436,4.395.335.772-.034,1.51-.1,2.08-.067a.361.361,0,0,1,.335.335.331.331,0,0,1-.3.335c-5.468.436-5.669,1.241-5.669,1.275a.412.412,0,0,0,.067.3c.168.268.772.335,1.308.268l5.636-.637a.332.332,0,0,1,.369.268.357.357,0,0,1-.268.4,28.265,28.265,0,0,1-3.891.772h-.067c-.168,0-.637.067-.772.268A.857.857,0,0,0,577.68,282.891Z" transform="translate(-573.681 -276.677)" fill="#553e37"/>
          </g>
        </g>
        <g id="Group_245" data-name="Group 245" transform="translate(180.053 10.266)">
          <g id="Group_243" data-name="Group 243" transform="translate(0.248 0.223)">
            <path id="Path_156" data-name="Path 156" d="M858.294,234.542a23.119,23.119,0,0,1-1.073,3.254,12.356,12.356,0,0,1-6.307.2c-4.395-1.073-4.764-4.126-9.561-5.871-4.059-1.476-6-.1-7.816-2.181a6.156,6.156,0,0,1-1.308-5.435,4.933,4.933,0,0,1,1.073-1.946c1.342-1.577,1.812-6.206-1.073-18.719a7.458,7.458,0,0,1,3.053-.2c3.791.57,6.575,4.26,9.8,8.688,1.61,2.181,2.08,3.556,3.925,4.562,1.308.738,1.879.537,4.126,1.51,2.147.939,3.422,1.476,4.361,2.617a3.729,3.729,0,0,1,.805,2.516,22.841,22.841,0,0,1-4.931-2.315,48.73,48.73,0,0,0,5.032,3.288c.067.839.168,1.946.335,3.388a11.58,11.58,0,0,1-2.986-1.241l3.153,2.516A24.235,24.235,0,0,1,858.294,234.542Z" transform="translate(-832.041 -203.569)" fill="#382a28"/>
          </g>
          <g id="Group_244" data-name="Group 244">
            <path id="Path_157" data-name="Path 157" d="M853.073,238.092a10.4,10.4,0,0,1-2.717-.335,10.256,10.256,0,0,1-4.8-2.818,13.145,13.145,0,0,0-4.8-3.053,13.853,13.853,0,0,0-4.227-.805c-1.443-.1-2.617-.2-3.69-1.409a6.3,6.3,0,0,1-1.342-5.636,5.271,5.271,0,0,1,1.107-2.013l.034-.034c1.644-1.946,1.275-8.185-1.141-18.518l-.034-.2.168-.067a7.626,7.626,0,0,1,3.12-.235c3.958.57,6.843,4.562,9.93,8.789.4.57.772,1.107,1.073,1.577a7.636,7.636,0,0,0,2.784,2.952,5.5,5.5,0,0,0,1.677.637,15.985,15.985,0,0,1,2.415.872c2.147.939,3.455,1.51,4.428,2.65a4.064,4.064,0,0,1,.839,2.65l.034.3-.3-.1c-.537-.2-1.308-.47-2.113-.805.805.537,1.644,1.073,2.348,1.442l.1.034v.1c.1.939.168,1.979.336,3.388l.034.3-.268-.067a9.819,9.819,0,0,1-1.409-.47l1.812,1.442v.1a20.553,20.553,0,0,1-.537,5.367h0a18.948,18.948,0,0,1-1.107,3.288l-.034.1-.1.034A12.481,12.481,0,0,1,853.073,238.092Zm-21.134-34.519c2.415,10.534,2.751,16.639,1.006,18.685l-.034.034a4.659,4.659,0,0,0-1.006,1.845,5.969,5.969,0,0,0,1.275,5.267c.973,1.107,2.013,1.174,3.422,1.275a14.815,14.815,0,0,1,4.327.839,13.857,13.857,0,0,1,4.9,3.12,9.782,9.782,0,0,0,4.629,2.717,11.865,11.865,0,0,0,6.105-.2,19.841,19.841,0,0,0,1.577-8.319l-3.086-2.449.235-.335a11.838,11.838,0,0,0,2.65,1.141c-.134-1.208-.235-2.147-.3-2.986a53.886,53.886,0,0,1-4.931-3.254l.235-.335a21.743,21.743,0,0,0,4.6,2.181,3.229,3.229,0,0,0-.738-2.113c-.906-1.073-2.113-1.61-4.26-2.55a19.33,19.33,0,0,0-2.382-.839,6.313,6.313,0,0,1-1.778-.7,8.081,8.081,0,0,1-2.918-3.086c-.3-.47-.637-.973-1.074-1.543-3.019-4.16-5.871-8.085-9.661-8.621A8.787,8.787,0,0,0,831.938,203.573Z" transform="translate(-831.302 -202.904)" fill="#553e37"/>
          </g>
        </g>
        <g id="Group_248" data-name="Group 248" transform="translate(29.781 48.954)">
          <g id="Group_246" data-name="Group 246" transform="translate(0.406 0.299)">
            <path id="Path_158" data-name="Path 158" d="M493.584,354.07a43.543,43.543,0,0,1-10.869,16.3c-4.227,3.925-8.789,6.407-23.919,11.976-7.145,2.617-16.4,5.8-27.407,9.125q-20.983,17.411-41.966,34.788a22.6,22.6,0,0,1-7.816-4.361,23.077,23.077,0,0,1-7.38-12.848q22.644-17.511,45.254-35.022,21.084-10.014,42.2-20.027a176.675,176.675,0,0,0-25.663-10c-2.952-.906-5.871-1.677-8.689-2.382q-28.179,10.316-56.324,20.665a19.327,19.327,0,0,1-5.233-6.307,19.933,19.933,0,0,1-2.181-9.561l58.84-26.334a10.841,10.841,0,0,1,7.816-.436L470.3,332.366c3.858,3.086,7.883,6.508,11.976,10.332C486.372,346.59,490.162,350.414,493.584,354.07Z" transform="translate(-363.588 -319.123)" fill="#fff"/>
          </g>
          <g id="Group_247" data-name="Group 247">
            <path id="Path_159" data-name="Path 159" d="M388.584,426.071h-.1a22.072,22.072,0,0,1-7.951-4.428,23.543,23.543,0,0,1-7.514-13.016.4.4,0,0,1,.134-.369l45.254-35.022c.034,0,.034-.034.067-.034L460,353.511a177.193,177.193,0,0,0-24.925-9.661c-2.818-.839-5.7-1.644-8.588-2.348l-56.257,20.6a.32.32,0,0,1-.335-.067,19.873,19.873,0,0,1-5.3-6.407,20.1,20.1,0,0,1-2.214-9.762.34.34,0,0,1,.2-.3l58.84-26.334a11.311,11.311,0,0,1,8.051-.47l40.054,12.714c.034,0,.067.034.1.067,4.093,3.288,8.152,6.776,12.01,10.332,3.925,3.623,7.783,7.447,11.406,11.372a.306.306,0,0,1,.067.369,43.338,43.338,0,0,1-10.97,16.438c-4.093,3.791-8.32,6.273-24.053,12.043-8.957,3.254-18.149,6.34-27.374,9.125l-41.933,34.754A.239.239,0,0,1,388.584,426.071Zm-14.828-17.411A22.728,22.728,0,0,0,381,421.073a21.873,21.873,0,0,0,7.514,4.227l41.832-34.687a.174.174,0,0,1,.134-.067c9.225-2.784,18.451-5.871,27.374-9.125,15.6-5.7,19.792-8.185,23.818-11.875a42.943,42.943,0,0,0,10.7-15.968c-3.589-3.858-7.38-7.615-11.238-11.171-3.824-3.556-7.85-7.011-11.909-10.265l-39.987-12.714a10.481,10.481,0,0,0-7.548.436l-58.605,26.267a18.978,18.978,0,0,0,2.147,9.158,19.3,19.3,0,0,0,4.965,6.072l56.123-20.6a.214.214,0,0,1,.2,0c2.919.738,5.837,1.543,8.722,2.382a180.73,180.73,0,0,1,25.73,10.03.38.38,0,0,1,0,.671L418.809,373.84Z" transform="translate(-362.377 -318.23)" fill="#553e37"/>
          </g>
        </g>
        <g id="Group_251" data-name="Group 251" transform="translate(94.54 32.898)">
          <g id="Group_249" data-name="Group 249" transform="translate(0.416 0.329)">
            <path id="Path_160" data-name="Path 160" d="M633.668,276.8c-9.728,2.885-21,4.965-21,4.965-7.85-1.577-15.733-3.12-23.583-4.7v.1h-.034c-1.375-.805-2.751-1.61-4.16-2.449-.7-.4-1.409-.839-2.113-1.241l-2.751-1.61a13.624,13.624,0,0,0-4.864-.47c-1.107.1-3.053.268-3.355,1.275a1.146,1.146,0,0,0,.168.973c.47.6,1.443.268,2.986.268a8.8,8.8,0,0,1,.906.034,7.7,7.7,0,0,1,3.288,1.006,7.8,7.8,0,0,1,2.717,2.65,10.906,10.906,0,0,0-3.958.235,1.948,1.948,0,0,0-.4.335.461.461,0,0,0-.1.134,1.932,1.932,0,0,0-.134.235.59.59,0,0,0-.034.2c0,.537.939.906,2.046,1.308.335.1.7.235,1.04.369,3.12,1.073,2.583,1.308,4.629,1.879a18.715,18.715,0,0,0,3.623.6v.168s17.847,10.567,23.214,9.661c5.4-.906,26.7-7.145,26.7-7.145l8.554-8.152C646.986,277.337,643.4,273.915,633.668,276.8Z" transform="translate(-571.762 -271.349)" fill="#fff"/>
          </g>
          <g id="Group_250" data-name="Group 250">
            <path id="Path_161" data-name="Path 161" d="M610.2,292.451c-6.173,0-22.006-9.359-22.711-9.762-.067-.034-.1-.1-.134-.134a18.847,18.847,0,0,1-3.388-.6,8.373,8.373,0,0,1-1.912-.738,15.932,15.932,0,0,0-2.717-1.141c-.2-.067-.4-.134-.57-.2l-.47-.168c-1.241-.436-2.281-.839-2.315-1.644a1.426,1.426,0,0,1,.067-.369.792.792,0,0,1,.2-.3c.067-.067.1-.134.134-.168a5.012,5.012,0,0,1,.436-.369,9.057,9.057,0,0,1,3.455-.335A7.353,7.353,0,0,0,578.1,274.6a7.678,7.678,0,0,0-3.12-.939,7.583,7.583,0,0,0-.872-.034c-.47,0-.839.034-1.208.067-.906.067-1.644.1-2.08-.47a1.52,1.52,0,0,1-.235-1.308c.369-1.241,2.449-1.409,3.69-1.51a14.192,14.192,0,0,1,5,.5c.034,0,.067.034.1.034l8.789,5.166h.134l23.516,4.663c.973-.168,11.674-2.214,20.9-4.931,9.829-2.885,13.519.5,13.687.637a.408.408,0,0,1,0,.537l-8.554,8.152a.732.732,0,0,1-.168.1c-.2.067-21.369,6.24-26.736,7.145C610.738,292.418,610.469,292.451,610.2,292.451Zm-22.107-10.3c1.979,1.141,17.88,10.332,22.778,9.494,5.133-.872,25.059-6.676,26.569-7.112l8.152-7.783c-1.04-.7-4.831-2.549-12.647-.235l-.1-.369.1.369c-9.628,2.851-20.933,4.965-21.034,4.965h-.134l-23.348-4.629a.356.356,0,0,1-.268.034h-.034c-.034,0-.067-.034-.1-.034l-8.957-5.3a12.507,12.507,0,0,0-4.7-.436c-.906.067-2.818.235-3.053,1.006a.75.75,0,0,0,.1.637c.2.268.6.235,1.443.168.369-.034.772-.067,1.241-.067h.067a8.175,8.175,0,0,1,.906.034,8.057,8.057,0,0,1,3.422,1.04,8.308,8.308,0,0,1,2.851,2.751.428.428,0,0,1,0,.4.294.294,0,0,1-.335.168,12.808,12.808,0,0,0-3.724.168c-.034.034-.2.168-.335.3a.258.258,0,0,0-.067.1.461.461,0,0,1-.1.134v.067c0,.335,1.342.805,1.812.939l.47.168.6.2a20.6,20.6,0,0,1,2.851,1.174,6.874,6.874,0,0,0,1.778.7,17.576,17.576,0,0,0,3.522.6.414.414,0,0,1,.268.134C588.027,282.018,588.06,282.086,588.094,282.153Z" transform="translate(-570.523 -270.367)" fill="#553e37"/>
          </g>
        </g>
        <g id="Group_254" data-name="Group 254" transform="translate(143.338 36.571)">
          <g id="Group_252" data-name="Group 252" transform="translate(0.47 0.343)">
            <path id="Path_162" data-name="Path 162" d="M746.709,285.211s-3.321-7.28-24.388,1.342l-3.22,11.808s19.39-3.12,21.134-5.166C741.945,291.183,746.709,285.211,746.709,285.211Z" transform="translate(-719.1 -282.34)" fill="#da5724"/>
          </g>
          <g id="Group_253" data-name="Group 253">
            <path id="Path_163" data-name="Path 163" d="M717.7,298.118l3.388-12.479.168-.067c21.134-8.655,24.69-1.476,24.824-1.174l.1.2-.134.168c-.034.067-4.764,6-6.474,8.018-1.778,2.08-19.356,4.965-21.335,5.267Zm3.958-12.01-3.019,11.137c7.749-1.275,19.222-3.589,20.4-4.965,1.543-1.812,5.5-6.776,6.307-7.816a6.206,6.206,0,0,0-4.059-2.214C738.2,281.647,732.293,281.781,721.658,286.109Z" transform="translate(-717.7 -281.317)" fill="#553e37"/>
          </g>
        </g>
        <g id="Group_257" data-name="Group 257" transform="translate(125.54 37.605)">
          <g id="Group_255" data-name="Group 255" transform="translate(0.738 0.369)">
            <path id="Path_164" data-name="Path 164" d="M690.96,296.335a51.533,51.533,0,0,1-4.126,6.173,27.244,27.244,0,0,1-1.778,2.147C679.856,309.62,671,310.76,671,310.76l25.965,24.556c1.107-.805,2.818-1.979,4.864-3.388,12.781-8.823,16.27-10.567,19.591-13.284,4.26-3.455,9.494-9.494,12.915-20.765a47.48,47.48,0,0,0-12.58-8.756,48.431,48.431,0,0,0-10.7-3.623C696.663,290.767,692.235,294.155,690.96,296.335Z" transform="translate(-671 -285.5)" fill="#da5724"/>
          </g>
          <g id="Group_256" data-name="Group 256">
            <path id="Path_165" data-name="Path 165" d="M695.5,335.055l-26.7-25.26.7-.1c.1,0,8.789-1.208,13.855-6.038.168-.168.772-.906,1.744-2.113a50.7,50.7,0,0,0,4.026-6l.1-.168c1.778-3.053,8.454-6.642,20.329-10.936l.1-.034.1.034a48.449,48.449,0,0,1,10.768,3.623,47.135,47.135,0,0,1,12.647,8.823l.134.134-.067.2c-2.784,9.125-7.179,16.169-13.05,20.933a73.9,73.9,0,0,1-6.374,4.428c-2.919,1.912-6.911,4.5-13.251,8.89-1.644,1.141-3.254,2.281-4.864,3.388Zm-25.227-24.791,25.26,23.885c1.543-1.073,3.086-2.18,4.663-3.254,6.34-4.361,10.332-6.978,13.251-8.89a65.338,65.338,0,0,0,6.307-4.395c5.7-4.629,10-11.506,12.748-20.4a46.77,46.77,0,0,0-22.879-12.11c-11.506,4.16-18.216,7.716-19.893,10.6l-.1.134a50.381,50.381,0,0,1-4.059,6.072c-.872,1.107-1.577,1.979-1.812,2.214C679.4,308.419,672.49,309.9,670.276,310.264Z" transform="translate(-668.8 -284.4)" fill="#553e37"/>
          </g>
        </g>
        <g id="Group_260" data-name="Group 260" transform="translate(150.413 60.487)">
          <g id="Group_258" data-name="Group 258" transform="translate(0.372 0.365)">
            <path id="Path_166" data-name="Path 166" d="M743.9,358.965s-2.717-4.73-4.093-5.166c-1.409-.436-1.308.6-.3,1.778C740.474,356.785,742.286,359.032,743.9,358.965Z" transform="translate(-738.745 -353.698)" fill="#fff"/>
          </g>
          <g id="Group_259" data-name="Group 259">
            <path id="Path_167" data-name="Path 167" d="M743.093,358.578c-1.711,0-3.455-2.08-4.5-3.355l-.134-.134c-.738-.906-1.006-1.677-.7-2.147.168-.235.537-.47,1.375-.235,1.476.47,4.026,4.831,4.294,5.334a.3.3,0,0,1,0,.335.489.489,0,0,1-.3.2Zm-4.562-5.233a.2.2,0,0,0-.134.034c-.034.067.034.537.637,1.275l.134.134c.772.939,2.113,2.549,3.321,2.986-1.073-1.778-2.684-4.093-3.522-4.327A.933.933,0,0,0,738.53,353.345Z" transform="translate(-737.637 -352.61)" fill="#553e37"/>
          </g>
        </g>
        <g id="Group_267" data-name="Group 267" transform="translate(108.128)">
          <g id="Group_263" data-name="Group 263">
            <g id="Group_261" data-name="Group 261" transform="translate(0.201 0.268)">
              <path id="Path_168" data-name="Path 168" d="M636.632,219.729q9.812-12.379,19.625-24.791Q641.664,184.019,627.1,173.1c-5.5,7.581-11,15.2-16.5,22.778Q623.633,207.8,636.632,219.729Z" transform="translate(-610.6 -173.1)" fill="#382a28"/>
            </g>
            <g id="Group_262" data-name="Group 262">
              <path id="Path_169" data-name="Path 169" d="M636.267,219.466l-.134-.134L610,195.38l16.706-23.08.134.1,29.286,21.939Zm-25.8-24.153,25.73,23.617,19.39-24.489-28.85-21.6Z" transform="translate(-610 -172.3)" fill="#553e37"/>
            </g>
          </g>
          <g id="Group_266" data-name="Group 266" transform="translate(0.034 22.61)">
            <g id="Group_264" data-name="Group 264" transform="translate(0.201 0.47)">
              <path id="Path_170" data-name="Path 170" d="M636.7,264.918c1.677,7.179,3.355,14.324,5.032,21.5q-14.945-15-29.856-29.99c-.4-5.1-.772-10.232-1.174-15.331Z" transform="translate(-610.7 -241.1)" fill="#382a28"/>
            </g>
            <g id="Group_265" data-name="Group 265">
              <path id="Path_171" data-name="Path 171" d="M641.667,286.061l-30.359-30.494V255.5L610.1,239.7l26.4,24.187ZM611.643,255.4,641,284.887l-4.864-20.832L610.5,240.572Z" transform="translate(-610.1 -239.7)" fill="#553e37"/>
            </g>
          </g>
        </g>
        <g id="Group_270" data-name="Group 270" transform="translate(138.435 49.351)">
          <g id="Group_268" data-name="Group 268" transform="translate(0.339 0.41)">
            <path id="Path_172" data-name="Path 172" d="M709.238,330.554c1.073-.268,6.441-1.275,7.38-.436s7.716,7.179,7.716,7.179a7.2,7.2,0,0,1,1.51,2.382q8.756,1.812,17.478,3.623c.5-1.811,2.919-10.1,5.6-17.008.57-1.442,1.744-4.26,4.059-5.233a6.851,6.851,0,0,1,5.367.268,7.99,7.99,0,0,1,1.51,1.006c3.287,3.12-4.294,20.6-4.294,20.6-3.455,7.951-5.233,11.943-7.917,13.184-5.267,2.482-11.573-.939-15.733-3.187a33.872,33.872,0,0,1-9.292-7.481v-.034a15.719,15.719,0,0,1-2.382-1.308,12.953,12.953,0,0,1-2.818-4.126s-6.474,1.811-6.307-.2c.067-.906,1.275-1.476,2.583-1.812-1.912.2-3.958.2-4.026-.637-.134-1.342.537-1.409.771-1.375-.5-.1-3.12-.7-1.375-2.784l5.636-.805s-6.038.335-6.34-.537C708.131,331.023,708.165,330.822,709.238,330.554Z" transform="translate(-708.248 -320.636)" fill="#fff"/>
          </g>
          <g id="Group_269" data-name="Group 269">
            <path id="Path_173" data-name="Path 173" d="M742.952,356.545c-4.294,0-8.689-2.382-11.842-4.093a33.748,33.748,0,0,1-9.393-7.548c-.168-.067-.3-.168-.47-.235a10.474,10.474,0,0,1-1.879-1.073,11.919,11.919,0,0,1-2.751-3.958c-1.275.335-4.965,1.208-6.105.268a1.027,1.027,0,0,1-.369-.906,1.754,1.754,0,0,1,.872-1.308,3.319,3.319,0,0,1-1.979-.47.811.811,0,0,1-.335-.637,1.937,1.937,0,0,1,.2-1.308,2.108,2.108,0,0,1-1.308-1.141,2.132,2.132,0,0,1,.57-1.979.54.54,0,0,1,.235-.134l.839-.134c-1.409-.134-1.744-.436-1.845-.738a1.607,1.607,0,0,1-.067-1.174c.168-.335.57-.47,1.174-.637h0c.067,0,6.441-1.442,7.716-.335.939.839,7.447,6.944,7.749,7.212a7.723,7.723,0,0,1,1.51,2.315l16.974,3.522c.906-3.187,3.086-10.5,5.5-16.74.47-1.208,1.711-4.361,4.227-5.435a7.124,7.124,0,0,1,5.669.268,8.294,8.294,0,0,1,1.577,1.073c1.476,1.409,1.208,5.367-.805,11.842-1.476,4.73-3.355,9.125-3.388,9.158-3.388,7.749-5.233,12.043-8.085,13.385A9.222,9.222,0,0,1,742.952,356.545Zm-20.631-12.01a33.463,33.463,0,0,0,9.125,7.313c4.093,2.214,10.3,5.569,15.4,3.153,2.482-1.174,4.16-4.831,7.716-13.016,2.08-4.8,6.911-17.78,4.361-20.195a6.51,6.51,0,0,0-1.409-.939,6.445,6.445,0,0,0-5.1-.235c-2.248.939-3.422,3.891-3.858,5.032-2.482,6.407-4.73,14.022-5.6,16.974a.333.333,0,0,1-.4.235l-17.478-3.623A.375.375,0,0,1,724.8,339a6.386,6.386,0,0,0-1.409-2.248c-.067-.067-6.776-6.34-7.716-7.179-.671-.6-5.3.067-7.078.5h0a1.688,1.688,0,0,0-.7.268,2.256,2.256,0,0,0,.1.6c.369.369,3.388.47,5.971.3a.372.372,0,0,1,.067.738l-5.5.772c-.369.47-.5.872-.369,1.174.168.5,1.006.805,1.644.939a.372.372,0,0,1,.3.4.347.347,0,0,1-.4.3.319.319,0,0,0-.235.067c-.067.067-.2.268-.134.906,0,.034.034.067.1.134.2.168.906.47,3.556.2a.347.347,0,0,1,.4.3.34.34,0,0,1-.268.4c-1.443.369-2.281.906-2.315,1.51a.41.41,0,0,0,.1.3c.738.6,3.925.034,5.77-.47a.4.4,0,0,1,.436.2,12.2,12.2,0,0,0,2.717,3.992,10.174,10.174,0,0,0,1.711.939c.2.1.4.2.57.3A.213.213,0,0,1,722.321,344.535Zm-14.257-13.553Z" transform="translate(-707.238 -319.413)" fill="#553e37"/>
          </g>
        </g>
        <g id="Group_273" data-name="Group 273" transform="translate(170.995 48.609)">
          <g id="Group_271" data-name="Group 271" transform="translate(0.403 0.335)">
            <path id="Path_174" data-name="Path 174" d="M821.77,318.2a9.487,9.487,0,0,1,5.032,4.931c1.208,3.019.268,6.105-.939,9.326a84.685,84.685,0,0,1-11.506,20.262q-4.428-6.491-8.856-13.016a102.529,102.529,0,0,0,5.6-10.332c2.415-5.133,3.522-8.521,6.844-10.232A8.114,8.114,0,0,1,821.77,318.2Z" transform="translate(-805.5 -318.2)" fill="#da5724"/>
          </g>
          <g id="Group_272" data-name="Group 272">
            <path id="Path_175" data-name="Path 175" d="M813.525,352.558,804.3,339.005l.1-.168a110.427,110.427,0,0,0,5.6-10.3c.369-.772.7-1.51,1.04-2.214,1.778-3.858,3.053-6.676,5.971-8.152a9.342,9.342,0,0,1,3.992-.973h.067l.067.034a9.785,9.785,0,0,1,5.2,5.1c1.275,3.22.235,6.474-.939,9.561a85.618,85.618,0,0,1-11.573,20.329Zm-8.454-13.553,8.487,12.446a85.461,85.461,0,0,0,11.2-19.792c1.141-2.952,2.147-6.072.939-9.091a9.012,9.012,0,0,0-4.8-4.7,8.73,8.73,0,0,0-3.623.872c-2.684,1.375-3.891,3.958-5.669,7.85-.335.7-.671,1.443-1.04,2.214A100.6,100.6,0,0,1,805.072,339.005Z" transform="translate(-804.3 -317.2)" fill="#553e37"/>
          </g>
        </g>
        <g id="Group_276" data-name="Group 276" transform="translate(169.377 67.831)">
          <g id="Group_274" data-name="Group 274" transform="translate(0.296 0.356)">
            <path id="Path_176" data-name="Path 176" d="M814.327,387.249,805,376.212a1.894,1.894,0,0,0-2.885.034l-1.241,1.409a2.023,2.023,0,0,0-.168,2.482l8.185,11.54a1.87,1.87,0,0,0,2.717.335l2.348-1.912A1.984,1.984,0,0,0,814.327,387.249Z" transform="translate(-800.357 -375.562)" fill="#da5724"/>
          </g>
          <g id="Group_275" data-name="Group 275">
            <path id="Path_177" data-name="Path 177" d="M809.85,392.045a.929.929,0,0,1-.3-.034,2.19,2.19,0,0,1-1.476-.872l-8.185-11.54a2.371,2.371,0,0,1,.168-2.885l1.241-1.409a2.374,2.374,0,0,1,1.744-.805,2.018,2.018,0,0,1,1.61.772l9.326,11.037a2.146,2.146,0,0,1,.5,1.677,2.423,2.423,0,0,1-.872,1.644l-2.348,1.912A2.2,2.2,0,0,1,809.85,392.045Zm-6.81-16.874a1.662,1.662,0,0,0-1.241.57l-1.241,1.409a1.72,1.72,0,0,0-.134,2.08l8.185,11.54a1.4,1.4,0,0,0,1.04.6A1.569,1.569,0,0,0,810.89,391l2.348-1.912a1.681,1.681,0,0,0,.268-2.382l-9.326-11.037a1.785,1.785,0,0,0-1.141-.5Z" transform="translate(-799.476 -374.5)" fill="#553e37"/>
          </g>
        </g>
        <g id="Group_279" data-name="Group 279" transform="translate(171.016 10.501)">
          <g id="Group_277" data-name="Group 277" transform="translate(0.198 0.235)">
            <path id="Path_178" data-name="Path 178" d="M808.826,210.876a3.214,3.214,0,0,1-3.422-1.342,3.019,3.019,0,0,1,.939-4.16,2.953,2.953,0,0,1,3.623.939,4.171,4.171,0,0,1,2.315-1.845,4.745,4.745,0,0,1,3.958.839,4.366,4.366,0,0,1,1.778,1.979,3.781,3.781,0,0,1,.268,1.442,6.117,6.117,0,0,1,4.126,1.476,6.43,6.43,0,0,1,1.879,4.663c.134,4.562-4.26,9.728-8.252,9.494C812.012,224.127,807.551,218.424,808.826,210.876Z" transform="translate(-804.951 -204.301)" fill="#382a28"/>
          </g>
          <g id="Group_278" data-name="Group 278">
            <path id="Path_179" data-name="Path 179" d="M815.882,224.132h-.268a7.229,7.229,0,0,1-4.965-2.952,13.452,13.452,0,0,1-2.482-10.466,3.354,3.354,0,0,1-3.321-1.51,3.55,3.55,0,0,1-.369-2.684,2.868,2.868,0,0,1,1.409-1.811,3.187,3.187,0,0,1,3.724.772,4.583,4.583,0,0,1,2.248-1.711,4.918,4.918,0,0,1,4.126.872,4.552,4.552,0,0,1,1.845,2.113,4.119,4.119,0,0,1,.268,1.275,5.9,5.9,0,0,1,6,6.307,10.473,10.473,0,0,1-3.321,7.414A7.2,7.2,0,0,1,815.882,224.132ZM808.7,210.109l-.067.335a13.194,13.194,0,0,0,2.348,10.433,5.794,5.794,0,0,0,9.494.6,10.109,10.109,0,0,0,3.187-7.078,6.26,6.26,0,0,0-1.811-4.5,5.93,5.93,0,0,0-3.958-1.409h-.235v-.235a3.53,3.53,0,0,0-.235-1.342,3.766,3.766,0,0,0-1.677-1.879,4.458,4.458,0,0,0-3.757-.805,4.026,4.026,0,0,0-2.181,1.744l-.168.268-.2-.268a2.734,2.734,0,0,0-3.355-.872,2.45,2.45,0,0,0-1.174,1.51,3.084,3.084,0,0,0,.3,2.315,3.012,3.012,0,0,0,3.187,1.241Z" transform="translate(-804.363 -203.602)" fill="#553e37"/>
          </g>
        </g>
        <g id="Group_282" data-name="Group 282" transform="translate(164.655 15.926)">
          <g id="Group_280" data-name="Group 280" transform="translate(0.369 0.423)">
            <path id="Path_180" data-name="Path 180" d="M793.981,226.056a27.563,27.563,0,0,0,2.449-4.093,5.554,5.554,0,0,1,4.328-.738c1.476.436,3.153,1.845,2.952,2.449h0a12.585,12.585,0,0,1,.034,1.979,12.742,12.742,0,0,1-.839,3.824c1.61-1.443,3.623-1.476,4.562-.57.973.973.436,2.717.4,2.818a3.872,3.872,0,0,1-3.086,2.55L799.516,249a4.371,4.371,0,0,1-7.078,1.778h0v.034l-5.938,4.764,4.328-9.225h.034a4.9,4.9,0,0,1,.168-.671l2.751-7.749a5.08,5.08,0,0,1-1.308-.5,5.48,5.48,0,0,1-2.181-2.516,5.054,5.054,0,0,1-.067-3.153C790.794,229.511,792.069,228.706,793.981,226.056Z" transform="translate(-786.5 -221.036)" fill="#fff"/>
          </g>
          <g id="Group_281" data-name="Group 281">
            <path id="Path_181" data-name="Path 181" d="M785.769,255.108a.621.621,0,0,1-.235-.067.4.4,0,0,1-.1-.47l4.328-9.225c0-.034.034-.034.034-.067a2.828,2.828,0,0,1,.168-.57l2.617-7.38a6.523,6.523,0,0,1-1.006-.436,5.941,5.941,0,0,1-2.348-2.717,5.854,5.854,0,0,1-.1-3.388A8.652,8.652,0,0,1,791.3,227c.47-.57,1.006-1.208,1.61-2.046h0a32.138,32.138,0,0,0,2.449-4.026.589.589,0,0,1,.134-.168,5.845,5.845,0,0,1,4.629-.772,5.959,5.959,0,0,1,3.12,2.248,1,1,0,0,1,.1.6,13,13,0,0,1,.034,1.979,13.419,13.419,0,0,1-.5,2.818,3.5,3.5,0,0,1,4.093.168c1.107,1.107.57,2.986.5,3.187a4.191,4.191,0,0,1-3.187,2.751l-5.166,14.526a4.763,4.763,0,0,1-3.422,3.053,4.57,4.57,0,0,1-4.026-.939l-5.669,4.6A.253.253,0,0,1,785.769,255.108Zm4.6-9.292-3.556,7.615,4.562-3.69a.6.6,0,0,1,.235-.168.322.322,0,0,1,.335.1h0a3.8,3.8,0,0,0,3.589.973,3.945,3.945,0,0,0,2.885-2.583l5.267-14.727a.376.376,0,0,1,.268-.235,3.581,3.581,0,0,0,2.818-2.281s.5-1.61-.336-2.449c-.771-.772-2.583-.738-4.026.57a.406.406,0,0,1-.47.034.367.367,0,0,1-.134-.436,13.06,13.06,0,0,0,.839-3.69,12.127,12.127,0,0,0-.033-1.912.3.3,0,0,1,.033-.168,4.853,4.853,0,0,0-2.717-1.979,5.007,5.007,0,0,0-3.925.637,28.977,28.977,0,0,1-2.449,4.059c-.6.839-1.141,1.51-1.644,2.08a7.868,7.868,0,0,0-2.013,3.489,4.914,4.914,0,0,0,.067,2.952,5.173,5.173,0,0,0,2.013,2.348,4.759,4.759,0,0,0,1.208.47.355.355,0,0,1,.235.2.326.326,0,0,1,.034.3l-2.751,7.749a2.6,2.6,0,0,0-.168.6C790.5,245.681,790.432,245.782,790.365,245.815Z" transform="translate(-785.4 -219.775)" fill="#553e37"/>
          </g>
        </g>
        <g id="Group_285" data-name="Group 285" transform="translate(171.13 32.842)">
          <g id="Group_283" data-name="Group 283" transform="translate(0.335 0.201)">
            <path id="Path_182" data-name="Path 182" d="M806.572,270.968l-.872,2.415a23.569,23.569,0,0,0,5.6-2.583A5.966,5.966,0,0,1,806.572,270.968Z" transform="translate(-805.7 -270.8)" fill="#553e37"/>
          </g>
          <g id="Group_284" data-name="Group 284">
            <path id="Path_183" data-name="Path 183" d="M804.7,273.32l1.073-3.053.2.067a5.7,5.7,0,0,0,4.562-.134l.235.4a24.136,24.136,0,0,1-5.669,2.617Zm1.375-2.482-.637,1.778a22.367,22.367,0,0,0,3.388-1.442A7.362,7.362,0,0,1,806.075,270.837Z" transform="translate(-804.7 -270.2)" fill="#553e37"/>
          </g>
        </g>
        <g id="Group_287" data-name="Group 287" transform="translate(171.923 20.564)">
          <g id="Group_286" data-name="Group 286">
            <path id="Path_184" data-name="Path 184" d="M807.882,238.967a1.74,1.74,0,0,1-.805-1.006.822.822,0,0,1,.168-.671c.436-.57,3.153-3.556,3.254-3.69l.5.47c-.033.034-2.784,3.12-3.22,3.657a.254.254,0,0,0-.034.134c.034.2.335.436.5.537Z" transform="translate(-807.065 -233.6)" fill="#252362"/>
          </g>
        </g>
        <g id="Group_289" data-name="Group 289" transform="translate(157.615 48.804)">
          <g id="Group_288" data-name="Group 288">
            <path id="Path_185" data-name="Path 185" d="M761.19,329.6a.476.476,0,0,1-.2-.067.33.33,0,0,1-.1-.47c4.663-7.078,8.387-9.46,8.521-9.561a.123.123,0,0,1,.1-.034l8.051-1.677a.342.342,0,0,1,.134.671l-7.984,1.644c-.47.3-3.992,2.818-8.286,9.326A.215.215,0,0,1,761.19,329.6Z" transform="translate(-760.831 -317.781)" fill="#553e37"/>
          </g>
        </g>
        <g id="Group_291" data-name="Group 291" transform="translate(151.288 42.147)">
          <g id="Group_290" data-name="Group 290">
            <path id="Path_186" data-name="Path 186" d="M741.135,304.5a.3.3,0,0,1-.235-.1.324.324,0,0,1,0-.47c2.617-2.751,10.735-5.837,11.07-5.971a.34.34,0,1,1,.235.637c-.067.034-8.319,3.153-10.835,5.8A.261.261,0,0,1,741.135,304.5Z" transform="translate(-740.8 -297.937)" fill="#553e37"/>
          </g>
        </g>
        <g id="Group_293" data-name="Group 293" transform="translate(186.212 56.923)">
          <g id="Group_292" data-name="Group 292">
            <path id="Path_187" data-name="Path 187" d="M850.008,353.63a.3.3,0,0,1-.168-.034.339.339,0,0,1-.134-.47,50.072,50.072,0,0,0,4.327-10.869.342.342,0,0,1,.671.134,50.577,50.577,0,0,1-4.395,11.037A.359.359,0,0,1,850.008,353.63Z" transform="translate(-849.659 -341.985)" fill="#553e37"/>
          </g>
        </g>
        <g id="Group_295" data-name="Group 295" transform="translate(164.657 60.533)">
          <g id="Group_294" data-name="Group 294">
            <path id="Path_188" data-name="Path 188" d="M782.7,357.192a.251.251,0,0,1-.168-.034.839.839,0,0,1-.671-.671c-.336-1.141-.47-2.684.268-3.12.3-.168.805-.268,1.577.436a12.1,12.1,0,0,0,1.409,1.073,27.425,27.425,0,0,0,1.912-2.013.333.333,0,0,1,.5.436c-.268.3-1.006,1.141-1.845,1.946.7.47,1.174.805,1.174,1.275a.353.353,0,1,1-.7-.034,4.076,4.076,0,0,0-.973-.738.033.033,0,0,1-.034-.034A4.34,4.34,0,0,1,782.7,357.192Zm-.134-3.254c-.034,0-.067,0-.067.034-.235.134-.369,1.073.034,2.348a.248.248,0,0,0,.134.2c.335.067,1.073-.4,1.912-1.107a16.278,16.278,0,0,1-1.342-1.04C782.939,354.072,782.7,353.938,782.57,353.938Z" transform="translate(-781.595 -352.745)" fill="#553e37"/>
          </g>
        </g>
        <g id="Group_297" data-name="Group 297" transform="translate(179.289 56.299)">
          <g id="Group_296" data-name="Group 296">
            <path id="Path_189" data-name="Path 189" d="M831.33,346.389a.513.513,0,0,1-.335-.134c-.1-.1-.3-.3-.034-1.342a4.112,4.112,0,0,0-1.443.4.353.353,0,0,1-.3-.637,4.979,4.979,0,0,1,1.946-.47,32.435,32.435,0,0,1,1.744-3.891.353.353,0,0,1,.637.3c-.637,1.241-1.241,2.65-1.644,3.69a1.278,1.278,0,0,1,.671.47c.134.235.268.805-.738,1.443A.885.885,0,0,1,831.33,346.389Zm.168-.57Zm.168-.839a4.589,4.589,0,0,0-.168.637c.4-.268.47-.436.436-.5A.468.468,0,0,0,831.666,344.98Z" transform="translate(-829.023 -340.123)" fill="#553e37"/>
          </g>
        </g>
        <g id="Group_299" data-name="Group 299" transform="translate(171.027 69.508)">
          <g id="Group_298" data-name="Group 298">
            <path id="Path_190" data-name="Path 190" d="M812.011,389.094a.477.477,0,0,1-.2-.067c-.3-.2-7.548-5.267-7.414-9.192a.353.353,0,0,1,.7.034c-.134,3.556,7.045,8.554,7.112,8.621a.336.336,0,0,1,.1.47A.41.41,0,0,1,812.011,389.094Z" transform="translate(-804.395 -379.5)" fill="#553e37"/>
          </g>
        </g>
        <g id="Group_301" data-name="Group 301" transform="translate(149.552 49.308)">
          <g id="Group_300" data-name="Group 300">
            <path id="Path_191" data-name="Path 191" d="M735.026,321.438a.355.355,0,0,1-.268-.57l1.342-1.476a.333.333,0,1,1,.5.436l-1.342,1.476A.225.225,0,0,1,735.026,321.438Z" transform="translate(-734.686 -319.286)" fill="#553e37"/>
          </g>
        </g>
        <g id="Group_303" data-name="Group 303" transform="translate(181.209 46.175)">
          <g id="Group_302" data-name="Group 302">
            <path id="Path_192" data-name="Path 192" d="M836.776,312.111a.363.363,0,0,1-.235-.1l-1.677-1.476a.333.333,0,1,1,.436-.5l1.677,1.476a.326.326,0,0,1,.034.47A.225.225,0,0,1,836.776,312.111Z" transform="translate(-834.745 -309.945)" fill="#553e37"/>
          </g>
        </g>
        <g id="Group_305" data-name="Group 305" transform="translate(148.571 77.768)">
          <g id="Group_304" data-name="Group 304">
            <path id="Path_193" data-name="Path 193" d="M738.423,410.858a.2.2,0,0,1-.134-.034,12.8,12.8,0,0,1-6.24-6.206.353.353,0,0,1,.637-.3,12.294,12.294,0,0,0,5.871,5.871.348.348,0,0,1-.134.671Z" transform="translate(-732.023 -404.123)" fill="#553e37"/>
          </g>
        </g>
        <g id="Group_307" data-name="Group 307" transform="translate(31.045 65.784)">
          <g id="Group_306" data-name="Group 306">
            <path id="Path_194" data-name="Path 194" d="M372.052,390.775a.293.293,0,0,1-.3-.2.322.322,0,0,1,.2-.436c7.548-3.086,14.324-5.837,20.195-8.252,7.682-3.12,13.72-5.6,17.981-7.347.034,0,3.589-1.476,9.158-3.288,8.923-2.885,11.573-2.851,12.546-2.851,3.22.034,5.468.906,8.621,2.113.6.235,1.208.47,1.879.7,6.542,2.449,13.217,5.1,19.792,7.85a.34.34,0,0,1-.235.637c-6.575-2.751-13.251-5.367-19.792-7.816-.671-.235-1.308-.5-1.879-.738-3.086-1.174-5.3-2.046-8.387-2.08-.973,0-3.522-.034-12.345,2.818-5.535,1.778-9.091,3.254-9.125,3.254-4.26,1.744-10.3,4.227-17.981,7.347-5.871,2.382-12.68,5.166-20.195,8.252A.2.2,0,0,1,372.052,390.775Z" transform="translate(-371.725 -368.4)" fill="#553e37"/>
          </g>
        </g>
        <g id="Group_309" data-name="Group 309" transform="translate(45.43 83.867)">
          <g id="Group_308" data-name="Group 308">
            <path id="Path_195" data-name="Path 195" d="M419,491.542a.305.305,0,0,1-.268-.134.324.324,0,0,1,.034-.47c1.778-1.51,43.61-37.27,46.227-38.578a41.066,41.066,0,0,1,4.629-1.443c13.15-3.858,48.105-14.157,56.593-28.447a.345.345,0,0,1,.6.335c-8.621,14.492-43.744,24.858-56.962,28.749-2.382.7-4.093,1.208-4.5,1.409-2.55,1.275-45.657,38.109-46.093,38.478A.671.671,0,0,1,419,491.542Z" transform="translate(-418.645 -422.303)" fill="#553e37"/>
          </g>
        </g>
        <g id="Group_311" data-name="Group 311" transform="translate(33.767 68.898)">
          <g id="Group_310" data-name="Group 310">
            <path id="Path_196" data-name="Path 196" d="M378.351,386.711a.322.322,0,0,1-.3-.2.386.386,0,0,1,.168-.47c.637-.3,15.733-7.716,18.518-8.353a.342.342,0,1,1,.134.671c-2.717.6-18.216,8.219-18.383,8.286A.134.134,0,0,1,378.351,386.711Z" transform="translate(-378.023 -377.681)" fill="#553e37"/>
          </g>
        </g>
        <g id="Group_313" data-name="Group 313" transform="translate(53.618 67.34)">
          <g id="Group_312" data-name="Group 312">
            <path id="Path_197" data-name="Path 197" d="M439.294,374.568a.4.4,0,0,1-.335-.235.349.349,0,0,1,.2-.436l2.281-.839a.34.34,0,1,1,.235.637l-2.281.839A.123.123,0,0,1,439.294,374.568Z" transform="translate(-438.937 -373.037)" fill="#553e37"/>
          </g>
        </g>
        <g id="Group_315" data-name="Group 315" transform="translate(53.465 116.929)">
          <g id="Group_314" data-name="Group 314">
            <path id="Path_198" data-name="Path 198" d="M439.243,536.1a.3.3,0,0,1-.235-.1.3.3,0,0,1,.034-.47c.5-.47,12.278-11.372,17.679-14.626a.345.345,0,0,1,.335.6c-5.334,3.22-17.444,14.425-17.578,14.526A.623.623,0,0,1,439.243,536.1Z" transform="translate(-438.911 -520.859)" fill="#553e37"/>
          </g>
        </g>
        <g id="Group_317" data-name="Group 317" transform="translate(72.309 112.816)">
          <g id="Group_316" data-name="Group 316">
            <path id="Path_199" data-name="Path 199" d="M496.935,512.324a.3.3,0,0,1-.235-.1.324.324,0,0,1,0-.47l3.053-3.053a.332.332,0,0,1,.47.47l-3.053,3.053A.363.363,0,0,1,496.935,512.324Z" transform="translate(-496.6 -508.6)" fill="#553e37"/>
          </g>
        </g>
        <g id="Group_319" data-name="Group 319" transform="translate(101.114 90.818)">
          <g id="Group_318" data-name="Group 318">
            <path id="Path_200" data-name="Path 200" d="M586.351,450.463a.322.322,0,0,1-.3-.2.386.386,0,0,1,.168-.47l13.922-6.743a.353.353,0,1,1,.3.637l-13.922,6.743A.3.3,0,0,1,586.351,450.463Z" transform="translate(-586.023 -443.023)" fill="#553e37"/>
          </g>
        </g>
        <g id="Group_321" data-name="Group 321" transform="translate(100.03 54.29)">
          <g id="Group_320" data-name="Group 320">
            <path id="Path_201" data-name="Path 201" d="M598.089,339.593h-.1c-.134-.034-13.72-4.361-15.029-4.8a.34.34,0,0,1,.235-.637c1.275.436,14.861,4.73,15,4.8a.384.384,0,0,1,.235.436A.353.353,0,0,1,598.089,339.593Z" transform="translate(-582.737 -334.137)" fill="#553e37"/>
          </g>
        </g>
        <g id="Group_323" data-name="Group 323" transform="translate(116.677 59.974)">
          <g id="Group_322" data-name="Group 322" transform="translate(0)">
            <path id="Path_202" data-name="Path 202" d="M635.9,352.4h-.1l-2.181-.637a.35.35,0,0,1,.2-.671l2.18.637a.384.384,0,0,1,.235.436A.4.4,0,0,1,635.9,352.4Z" transform="translate(-633.381 -351.081)" fill="#553e37"/>
          </g>
        </g>
        <g id="Group_325" data-name="Group 325" transform="translate(116.002 88.441)">
          <g id="Group_324" data-name="Group 324" transform="translate(0)">
            <path id="Path_203" data-name="Path 203" d="M631.694,437.7a.348.348,0,0,1-.134-.671l2.818-1.073a.34.34,0,1,1,.235.637l-2.818,1.074C631.794,437.7,631.761,437.7,631.694,437.7Z" transform="translate(-631.337 -435.937)" fill="#553e37"/>
          </g>
        </g>
      </g>
    </g>
  </g>
</svg>
