<svg xmlns="http://www.w3.org/2000/svg" width="252" height="210" viewBox="0 0 252 210">
  <g id="sync" transform="translate(-1060 -924)">
    <rect id="Rectangle_96" data-name="Rectangle 96" width="252" height="210" transform="translate(1060 924)" fill="none"/>
    <g id="_28_-_Girl_suffering_internet" data-name="28 - Girl suffering internet" transform="translate(789 756.582)">
      <g id="Background" transform="translate(271 261.325)">
        <g id="Group_1468" data-name="Group 1468" transform="translate(8.826 57.141)">
          <path id="Path_621" data-name="Path 621" d="M385.791,568.315c1.048-7.516-2.5-13.733-7.254-15.056a9.88,9.88,0,0,0-7.258,1.238c-.222-.625-2.133-5.734-7.254-7.254a10.644,10.644,0,0,0-5.875,0,11.061,11.061,0,0,0-5.871,4.145c2.137-4.435.742-9.5-2.762-11.745a8.843,8.843,0,0,0-8.983,0,6.818,6.818,0,0,0-6.911-1.726,7.2,7.2,0,0,0-4.492,4.834,9.794,9.794,0,0,0-16.926,7.947,12.022,12.022,0,0,0-17.7,15.632Z" transform="translate(-292.89 -537.599)" fill="#553e37"/>
        </g>
        <g id="Group_1469" data-name="Group 1469" transform="translate(0 84.317)">
          <path id="Path_622" data-name="Path 622" d="M521.23,608.83H272.77a1.77,1.77,0,0,1-1.77-1.77v-.29a1.77,1.77,0,0,1,1.77-1.77H521.23a1.77,1.77,0,0,1,1.77,1.77v.29A1.772,1.772,0,0,1,521.23,608.83Z" transform="translate(-271 -605)" fill="#553e37"/>
        </g>
        <g id="Group_1501" data-name="Group 1501" transform="translate(2.103 0)">
          <g id="Group_1470" data-name="Group 1470" transform="translate(4.911 33.321)">
            <ellipse id="Ellipse_41" data-name="Ellipse 41" cx="4.338" cy="9.399" rx="4.338" ry="9.399" transform="translate(0 8.337) rotate(-73.901)" fill="#553e37"/>
          </g>
          <g id="Group_1471" data-name="Group 1471" transform="translate(24.547 23.376)">
            <ellipse id="Ellipse_42" data-name="Ellipse 42" cx="9.399" cy="4.338" rx="9.399" ry="4.338" transform="translate(0 14.479) rotate(-50.38)" fill="#553e37"/>
          </g>
          <g id="Group_1472" data-name="Group 1472" transform="translate(0 16.82)">
            <ellipse id="Ellipse_43" data-name="Ellipse 43" cx="4.338" cy="9.399" rx="4.338" ry="9.399" transform="translate(0 8.391) rotate(-75.233)" fill="#553e37"/>
          </g>
          <g id="Group_1473" data-name="Group 1473" transform="translate(9.594)">
            <ellipse id="Ellipse_44" data-name="Ellipse 44" cx="4.338" cy="9.399" rx="4.338" ry="9.399" transform="matrix(0.969, -0.248, 0.248, 0.969, 0, 2.149)" fill="#553e37"/>
          </g>
          <g id="Group_1474" data-name="Group 1474" transform="translate(21.858 10.221)">
            <path id="Path_623" data-name="Path 623" d="M342.3,421.23a12.35,12.35,0,0,1-11.665,14.741A12.35,12.35,0,0,1,342.3,421.23Z" transform="translate(-330.426 -421.23)" fill="#553e37"/>
          </g>
          <g id="Group_1475" data-name="Group 1475" transform="translate(14.53 6.823)">
            <rect id="Rectangle_145" data-name="Rectangle 145" width="0.427" height="61.238" transform="translate(0 0.126) rotate(-17.212)" fill="#382a28"/>
          </g>
          <g id="Group_1476" data-name="Group 1476" transform="translate(7.542 15.793)">
            <path id="Path_624" data-name="Path 624" d="M308.189,446.065l-13.269-4.419.133-.407,13,4.326L317.1,435.05l.323.282Z" transform="translate(-294.92 -435.05)" fill="#382a28"/>
          </g>
          <g id="Group_1477" data-name="Group 1477" transform="translate(9.699 31.812)">
            <path id="Path_625" data-name="Path 625" d="M316.664,486.626l-16.394-4.314.109-.411,16.108,4.234,8.225-11.354.351.254Z" transform="translate(-300.27 -474.78)" fill="#382a28"/>
          </g>
          <g id="Group_1478" data-name="Group 1478" transform="translate(11.224 24.504)">
            <rect id="Rectangle_146" data-name="Rectangle 146" width="3.967" height="0.431" transform="translate(0 1.175) rotate(-17.223)" fill="#382a28"/>
          </g>
          <g id="Group_1479" data-name="Group 1479" transform="translate(14.517 22.225)">
            <rect id="Rectangle_147" data-name="Rectangle 147" width="0.427" height="3.488" transform="translate(0 0.252) rotate(-36.12)" fill="#382a28"/>
          </g>
          <g id="Group_1480" data-name="Group 1480" transform="translate(9.66 20.591)">
            <rect id="Rectangle_148" data-name="Rectangle 148" width="0.427" height="3.488" transform="translate(0 0.252) rotate(-36.12)" fill="#382a28"/>
          </g>
          <g id="Group_1481" data-name="Group 1481" transform="translate(25.023 20.017)">
            <rect id="Rectangle_149" data-name="Rectangle 149" width="3.967" height="0.431" transform="matrix(0.963, -0.271, 0.271, 0.963, 0, 1.073)" fill="#382a28"/>
          </g>
          <g id="Group_1482" data-name="Group 1482" transform="translate(23.731 19.111)">
            <rect id="Rectangle_150" data-name="Rectangle 150" width="3.488" height="0.427" transform="matrix(0.055, -0.998, 0.998, 0.055, 0, 3.482)" fill="#382a28"/>
          </g>
          <g id="Group_1483" data-name="Group 1483" transform="translate(26.916 15.092)">
            <rect id="Rectangle_151" data-name="Rectangle 151" width="3.492" height="0.427" transform="matrix(0.055, -0.998, 0.998, 0.055, 0, 3.486)" fill="#382a28"/>
          </g>
          <g id="Group_1484" data-name="Group 1484" transform="translate(17.903 42.036)">
            <rect id="Rectangle_152" data-name="Rectangle 152" width="3.79" height="0.431" transform="translate(0 1.651) rotate(-25.817)" fill="#382a28"/>
          </g>
          <g id="Group_1485" data-name="Group 1485" transform="translate(11.123 40.237)">
            <rect id="Rectangle_153" data-name="Rectangle 153" width="3.79" height="0.431" transform="matrix(0.9, -0.435, 0.435, 0.9, 0, 1.65)" fill="#382a28"/>
          </g>
          <g id="Group_1486" data-name="Group 1486" transform="translate(15.472 37.587)">
            <rect id="Rectangle_154" data-name="Rectangle 154" width="0.427" height="3.984" transform="translate(0 0.195) rotate(-27.167)" fill="#382a28"/>
          </g>
          <g id="Group_1487" data-name="Group 1487" transform="translate(29.082 37.577)">
            <rect id="Rectangle_155" data-name="Rectangle 155" width="3.79" height="0.431" transform="translate(0 0.976) rotate(-14.927)" fill="#382a28"/>
          </g>
          <g id="Group_1488" data-name="Group 1488" transform="translate(33.04 32.532)">
            <rect id="Rectangle_156" data-name="Rectangle 156" width="3.79" height="0.431" transform="translate(0 0.976) rotate(-14.927)" fill="#382a28"/>
          </g>
          <g id="Group_1489" data-name="Group 1489" transform="translate(29.72 32.529)">
            <rect id="Rectangle_157" data-name="Rectangle 157" width="0.427" height="3.984" transform="translate(0 0.1) rotate(-13.568)" fill="#382a28"/>
          </g>
          <g id="Group_1490" data-name="Group 1490" transform="translate(9.268 47.928)">
            <ellipse id="Ellipse_45" data-name="Ellipse 45" cx="4.338" cy="9.399" rx="4.338" ry="9.399" transform="translate(0 8.337) rotate(-73.901)" fill="#553e37"/>
          </g>
          <g id="Group_1491" data-name="Group 1491" transform="translate(32.082 40.751)">
            <path id="Path_626" data-name="Path 626" d="M367.931,496.95a12.355,12.355,0,0,0-11.987,14.483,12.356,12.356,0,0,0,11.987-14.483Z" transform="translate(-355.784 -496.95)" fill="#553e37"/>
          </g>
          <g id="Group_1492" data-name="Group 1492" transform="translate(14.058 46.42)">
            <path id="Path_627" data-name="Path 627" d="M327.474,522.852l-16.394-4.31.109-.415,16.108,4.238,8.229-11.354.347.25Z" transform="translate(-311.08 -511.01)" fill="#382a28"/>
          </g>
          <g id="Group_1493" data-name="Group 1493" transform="translate(22.261 56.641)">
            <rect id="Rectangle_158" data-name="Rectangle 158" width="3.79" height="0.431" transform="translate(0 1.651) rotate(-25.817)" fill="#382a28"/>
          </g>
          <g id="Group_1494" data-name="Group 1494" transform="translate(15.481 54.841)">
            <rect id="Rectangle_159" data-name="Rectangle 159" width="3.79" height="0.431" transform="matrix(0.9, -0.435, 0.435, 0.9, 0, 1.65)" fill="#382a28"/>
          </g>
          <g id="Group_1495" data-name="Group 1495" transform="translate(19.814 52.196)">
            <rect id="Rectangle_160" data-name="Rectangle 160" width="0.427" height="3.984" transform="translate(0 0.195) rotate(-27.162)" fill="#382a28"/>
          </g>
          <g id="Group_1496" data-name="Group 1496" transform="translate(33.44 52.181)">
            <rect id="Rectangle_161" data-name="Rectangle 161" width="3.79" height="0.431" transform="translate(0 0.976) rotate(-14.927)" fill="#382a28"/>
          </g>
          <g id="Group_1497" data-name="Group 1497" transform="translate(37.4 47.141)">
            <rect id="Rectangle_162" data-name="Rectangle 162" width="3.79" height="0.431" transform="translate(0 0.976) rotate(-14.927)" fill="#382a28"/>
          </g>
          <g id="Group_1498" data-name="Group 1498" transform="translate(34.068 47.145)">
            <rect id="Rectangle_163" data-name="Rectangle 163" width="0.427" height="3.984" transform="translate(0 0.1) rotate(-13.568)" fill="#382a28"/>
          </g>
          <g id="Group_1499" data-name="Group 1499" transform="translate(15.781 8.021)">
            <rect id="Rectangle_164" data-name="Rectangle 164" width="2.943" height="0.431" transform="translate(0 2.828) rotate(-73.925)" fill="#382a28"/>
          </g>
          <g id="Group_1500" data-name="Group 1500" transform="translate(13.26 11.423)">
            <rect id="Rectangle_165" data-name="Rectangle 165" width="0.431" height="4.613" transform="matrix(0.606, -0.795, 0.795, 0.606, 0, 0.343)" fill="#382a28"/>
          </g>
        </g>
        <g id="Group_1512" data-name="Group 1512" transform="translate(75.856 102.413)">
          <path id="Path_631" data-name="Path 631" d="M494.562,660.614H459.641a4.572,4.572,0,0,1,6.842-5.75,3.728,3.728,0,0,1,6.443-3.024,2.733,2.733,0,0,1,1.71-1.839,2.6,2.6,0,0,1,2.629.657,3.359,3.359,0,0,1,3.419,0,3.5,3.5,0,0,1,1.052,4.467,4.223,4.223,0,0,1,2.234-1.577,4.055,4.055,0,0,1,2.234,0,4.525,4.525,0,0,1,2.762,2.762,3.757,3.757,0,0,1,2.762-.472C493.333,656.287,494.578,658.195,494.562,660.614Z" transform="translate(-459.135 -649.881)" fill="#553e37"/>
        </g>
        <g id="Group_1513" data-name="Group 1513" transform="translate(56.242 110.521)">
          <path id="Path_632" data-name="Path 632" d="M450.427,672.615H411.079a.589.589,0,0,1-.589-.589v-1.448a.589.589,0,0,1,.589-.589h39.348a.589.589,0,0,1,.589.589v1.448A.587.587,0,0,1,450.427,672.615Z" transform="translate(-410.49 -669.99)" fill="#553e37"/>
        </g>
      </g>
      <g id="girl" transform="translate(311.038 170.418)">
        <g id="Group_1518" data-name="Group 1518" transform="translate(28.679 125.241)">
          <g id="Group_1515" data-name="Group 1515">
            <g id="Group_1514" data-name="Group 1514">
              <path id="Path_633" data-name="Path 633" d="M457.259,488.844a2.846,2.846,0,0,1-.117.661l-12.116,41.542a2.467,2.467,0,0,1-.528.976,1.59,1.59,0,0,1-.117.117,1.547,1.547,0,0,1-1,.435c-1.206.044-2.149-1.427-1.911-2.988l7.084-46.622c.266-1.762,1.839-2.516,2.931-1.411l3.3,3.334,1.016,1.028.71.718A2.909,2.909,0,0,1,457.259,488.844Z" transform="translate(-441.428 -481.037)" fill="#825c5c"/>
            </g>
          </g>
          <g id="Group_1517" data-name="Group 1517" transform="translate(3.069 3.529)">
            <g id="Group_1516" data-name="Group 1516">
              <path id="Path_634" data-name="Path 634" d="M461.8,494.068a2.849,2.849,0,0,1-.117.661l-12.116,41.542a2.467,2.467,0,0,1-.528.976L459.261,491.6a4.394,4.394,0,0,0,.069-1.488c-.012-.109-.028-.218-.048-.323l1.068,1.351.778.984A3.7,3.7,0,0,1,461.8,494.068Z" transform="translate(-449.04 -489.79)" fill="#825c5c"/>
            </g>
          </g>
        </g>
        <g id="Group_1519" data-name="Group 1519" transform="translate(121.271 17.663)">
          <path id="Path_635" data-name="Path 635" d="M676.031,228.013c-1.863-.726-2.685-2.556-3.488-4.351-.649-1.456-2.04-4.56-1.218-6.866a3.479,3.479,0,0,1,.689-1.165c1.673-1.867,4.85-1.367,5.371-1.278,2.326,2.556,4.3,4.834,5.907,6.737.794.935,1.238,1.48,1.242,2.266.012,1.746-2.169,3.81-4.661,4.621A5.768,5.768,0,0,1,676.031,228.013Z" transform="translate(-671.073 -214.225)" fill="#382a28"/>
        </g>
        <g id="Group_1520" data-name="Group 1520" transform="translate(121.271 19.392)">
          <path id="Path_636" data-name="Path 636" d="M676.031,230.571c-1.863-.726-2.685-2.556-3.488-4.35-.649-1.456-2.04-4.56-1.218-6.867,1.822-1.238,3.657-1.577,3.508,2.3-.189,4.871,2.891,7.512,5.036,8.882A5.757,5.757,0,0,1,676.031,230.571Z" transform="translate(-671.073 -218.512)" fill="#553e37"/>
        </g>
        <g id="Group_1530" data-name="Group 1530" transform="translate(19.462 151.527)">
          <g id="Group_1521" data-name="Group 1521" transform="translate(12.362)">
            <path id="Path_637" data-name="Path 637" d="M459.1,546.23l-.431,4.1-.109,1.052-.238,2.25-.5,4.738L457.7,559.6l-.367,3.476-.4,3.8-.125,1.185-.431,4.109v0l-.157,1.472a2.849,2.849,0,0,1-.258.609,2.672,2.672,0,0,1-.23.343v0a3.841,3.841,0,0,1-.27.294,1.468,1.468,0,0,1-.145.125c-.04.032-.081.065-.125.1s-.065.044-.1.065-.089.056-.133.081l-.02.012c-.044.024-.093.044-.137.065a1.339,1.339,0,0,1-.23.089.59.59,0,0,1-.113.032,1.2,1.2,0,0,1-.234.044,1.314,1.314,0,0,1-.177.012,1.345,1.345,0,0,1-.286-.028c-.048-.012-.1-.024-.145-.04a1.521,1.521,0,0,1-.286-.129,2.033,2.033,0,0,1-.56-.512c-.036-.044-.069-.093-.1-.141a2.537,2.537,0,0,1-.278-.6.015.015,0,0,0,0-.012,2.647,2.647,0,0,1-.117-1,.037.037,0,0,1,0-.02.535.535,0,0,1,.012-.113,1.23,1.23,0,0,1,.024-.169.12.12,0,0,1,.008-.04,1.667,1.667,0,0,1,.044-.194.876.876,0,0,1,.028-.1c.024-.077.052-.157.085-.238q-.448-3.133-.891-6.258v0c-.133-.948-.27-1.9-.4-2.847-.137-.968-.278-1.939-.415-2.9q-.145-1.07-.3-2.145c-.25-1.77-.5-3.548-.754-5.318-.052-.387-.109-.774-.161-1.157-.032-.23-.065-.46-.1-.7-.077-.52-.153-1.04-.226-1.564Z" transform="translate(-449.23 -546.23)" fill="#fff"/>
          </g>
          <g id="Group_1522" data-name="Group 1522" transform="translate(14.721 19.696)">
            <path id="Path_638" data-name="Path 638" d="M455.124,595.37l.847,5.963a2.408,2.408,0,0,0,1.286,3.306,2.361,2.361,0,0,0,2.455-1.843l.589-5.58.125-1.185-5.346-.952C455.1,595.173,455.108,595.273,455.124,595.37Z" transform="translate(-455.08 -595.08)" fill="#f8f8f8"/>
          </g>
          <g id="Group_1523" data-name="Group 1523" transform="translate(0.688 25.926)">
            <path id="Path_639" data-name="Path 639" d="M421.109,619.485h22.107l-4.125-8.955-.238,0c-.169,1.726-1.052,2.992-2.093,3.161a1.542,1.542,0,0,1-1.294-.318c-.645-.657-.109-1.911-.778-2.443a1.048,1.048,0,0,0-.673-.193c-1.036.573-2.032,1.056-2.951,1.472-.189.085-.379.169-.564.254-.415.181-.815.351-1.193.512-.117.044-.234.093-.347.141-.456.185-.879.363-1.27.524-.21.093-.415.177-.609.27-.141.06-.278.121-.407.181-3.157,1.484-6.145,2.972-6.322,3.351C419.984,618.263,421.109,619.485,421.109,619.485Z" transform="translate(-420.277 -610.53)" fill="#382a28"/>
          </g>
          <g id="Group_1524" data-name="Group 1524" transform="translate(0 33.252)">
            <path id="Path_640" data-name="Path 640" d="M442.2,628.7q-11.618.206-23.24.407a1.068,1.068,0,0,0-.387.814,1.082,1.082,0,0,0,.387.815H442.2a1.588,1.588,0,0,0,.387-1.222A1.5,1.5,0,0,0,442.2,628.7Z" transform="translate(-418.57 -628.7)" fill="#372a28"/>
          </g>
          <g id="Group_1525" data-name="Group 1525" transform="translate(10.915 27.611)">
            <path id="Path_641" data-name="Path 641" d="M445.64,614.964c0,.008,0,.012.008.02.274.48.508.98.814,1.439a15.265,15.265,0,0,0,.976,1.347.408.408,0,0,0,.633-.516.04.04,0,0,1-.016-.02,13.145,13.145,0,0,1-1-1.214c-.314-.419-.56-.871-.847-1.31C446.015,614.795,445.825,614.879,445.64,614.964Z" transform="translate(-445.64 -614.71)" fill="#f8f8f8"/>
          </g>
          <g id="Group_1526" data-name="Group 1526" transform="translate(9.374 28.381)">
            <path id="Path_642" data-name="Path 642" d="M441.82,616.757c.109.375.218.754.363,1.121a14.929,14.929,0,0,0,.681,1.516.408.408,0,1,0,.726-.371c-.012-.02-.024-.04-.036-.056a13.893,13.893,0,0,1-.867-1.326c-.194-.331-.359-.677-.52-1.02C442.05,616.66,441.937,616.709,441.82,616.757Z" transform="translate(-441.82 -616.62)" fill="#f8f8f8"/>
          </g>
          <g id="Group_1527" data-name="Group 1527" transform="translate(14.721 19.688)">
            <path id="Path_643" data-name="Path 643" d="M455.08,595.06c.012.1.028.2.044.3L460.3,597.2l.125-1.185Z" transform="translate(-455.08 -595.06)" fill="#e5e5e4"/>
          </g>
          <g id="Group_1528" data-name="Group 1528" transform="translate(7.495 29.043)">
            <path id="Path_644" data-name="Path 644" d="M437.16,618.53c.044.117.093.238.145.355a15.428,15.428,0,0,0,.742,1.484.41.41,0,0,0,.556.153.4.4,0,0,0,.149-.556.084.084,0,0,0-.016-.024,14.277,14.277,0,0,1-.806-1.355c-.056-.1-.109-.214-.161-.327C437.559,618.357,437.353,618.441,437.16,618.53Z" transform="translate(-437.16 -618.26)" fill="#f8f8f8"/>
          </g>
          <g id="Group_1529" data-name="Group 1529" transform="translate(12.588 4.101)">
            <path id="Path_645" data-name="Path 645" d="M459.007,556.4l-.109,1.052-.238,2.25-.5,4.738-.129,1.226c-2.363.173-4.975.379-6.931.573-.1-.714-.2-1.427-.3-2.145-.25-1.77-.5-3.548-.754-5.318-.052-.387-.109-.774-.161-1.157-.032-.23-.064-.46-.1-.7Z" transform="translate(-449.79 -556.4)" fill="#f5938c"/>
          </g>
        </g>
        <g id="Group_1540" data-name="Group 1540" transform="translate(21.882 172.163)">
          <g id="Group_1531" data-name="Group 1531" transform="translate(14.698)">
            <path id="Path_646" data-name="Path 646" d="M479.118,598.914l-1.843,3-.319.516-1.734,2.831-2.5,4.056-.645,1.052-1.222,1.984-2.609,4.25-.573.931-.052.085-1.665,2.709-.71,1.149-.568.923c-.069.077-.141.145-.214.214a.107.107,0,0,0-.024.02,2.058,2.058,0,0,1-.214.169.04.04,0,0,1-.02.016,2.215,2.215,0,0,1-.206.133.358.358,0,0,1-.069.036,1.114,1.114,0,0,1-.185.093,1.847,1.847,0,0,1-.246.1c-.048.016-.1.032-.149.044,0,0-.012,0-.024,0a2.826,2.826,0,0,1-.472.081,2,2,0,0,1-.718-.076,1.417,1.417,0,0,1-.468-.234,1.494,1.494,0,0,1-.274-.278,1.532,1.532,0,0,1-.109-.173,1.366,1.366,0,0,1-.093-.19c-.028-.064-.052-.133-.077-.2a2.408,2.408,0,0,1-.069-1.069c.008-.044.016-.089.024-.129a1.926,1.926,0,0,1,.069-.262c.012-.044.028-.089.044-.133.024-.069.052-.141.085-.21s.081-.157.129-.238a1.778,1.778,0,0,1,.121-.185c.016-.024.032-.044.048-.065.044-.06.093-.121.141-.177.008,0,.012-.012.016-.016.064-.073.137-.141.21-.21q.925-2.945,1.851-5.887c.012-.049.028-.1.044-.145q.387-1.222.774-2.451c.327-1.028.649-2.06.972-3.089.222-.689.435-1.375.653-2.064.306-.964.609-1.931.919-2.9.347-1.113.7-2.23,1.052-3.339.073-.222.141-.443.214-.669.153-.5.31-1,.472-1.508Z" transform="translate(-461.024 -597.41)" fill="#fff"/>
          </g>
          <g id="Group_1532" data-name="Group 1532" transform="translate(14.701 16.023)">
            <path id="Path_647" data-name="Path 647" d="M463.755,637.436q-.907,2.873-1.81,5.742a2.409,2.409,0,0,0-.266,3.536,2.359,2.359,0,0,0,3.008-.6l2.939-4.782.625-1.016-4.411-3.165C463.812,637.243,463.78,637.339,463.755,637.436Z" transform="translate(-461.03 -637.15)" fill="#f8f8f8"/>
          </g>
          <g id="Group_1533" data-name="Group 1533" transform="translate(0.688 22.628)">
            <path id="Path_648" data-name="Path 648" d="M427.109,662.485h22.107l-4.125-8.955-.238,0c-.169,1.726-1.052,2.992-2.093,3.161a1.542,1.542,0,0,1-1.294-.319c-.645-.657-.109-1.911-.778-2.443a1.048,1.048,0,0,0-.673-.194c-1.036.573-2.032,1.056-2.951,1.472-.19.085-.379.169-.564.254-.415.181-.814.351-1.193.512-.117.044-.234.093-.347.141-.456.185-.879.363-1.27.524-.21.093-.415.177-.609.27-.141.061-.278.121-.407.181-3.157,1.484-6.145,2.972-6.322,3.351C425.984,661.263,427.109,662.485,427.109,662.485Z" transform="translate(-426.277 -653.53)" fill="#382a28"/>
          </g>
          <g id="Group_1534" data-name="Group 1534" transform="translate(0 29.954)">
            <path id="Path_649" data-name="Path 649" d="M448.2,671.7q-11.618.206-23.24.407a1.069,1.069,0,0,0-.387.815,1.082,1.082,0,0,0,.387.815H448.2a1.588,1.588,0,0,0,.387-1.222A1.5,1.5,0,0,0,448.2,671.7Z" transform="translate(-424.57 -671.7)" fill="#372a28"/>
          </g>
          <g id="Group_1535" data-name="Group 1535" transform="translate(10.915 24.313)">
            <path id="Path_650" data-name="Path 650" d="M451.64,657.964c0,.008,0,.012.008.02.274.48.508.98.814,1.439a15.265,15.265,0,0,0,.976,1.347.408.408,0,0,0,.633-.516.041.041,0,0,1-.016-.02,13.16,13.16,0,0,1-1-1.214c-.314-.419-.56-.871-.847-1.31C452.015,657.795,451.825,657.879,451.64,657.964Z" transform="translate(-451.64 -657.71)" fill="#f8f8f8"/>
          </g>
          <g id="Group_1536" data-name="Group 1536" transform="translate(9.374 25.083)">
            <path id="Path_651" data-name="Path 651" d="M447.82,659.757c.109.375.218.754.363,1.121a14.912,14.912,0,0,0,.681,1.516.407.407,0,1,0,.726-.371c-.012-.02-.024-.04-.036-.057a13.894,13.894,0,0,1-.867-1.326c-.194-.331-.359-.677-.52-1.02C448.05,659.66,447.937,659.709,447.82,659.757Z" transform="translate(-447.82 -659.62)" fill="#f8f8f8"/>
          </g>
          <g id="Group_1537" data-name="Group 1537" transform="translate(17.426 16.019)">
            <path id="Path_652" data-name="Path 652" d="M467.879,637.14c-.028.093-.06.189-.089.286l3.875,3.9.625-1.016Z" transform="translate(-467.79 -637.14)" fill="#e5e5e4"/>
          </g>
          <g id="Group_1538" data-name="Group 1538" transform="translate(7.495 25.744)">
            <path id="Path_653" data-name="Path 653" d="M443.16,661.53c.044.117.093.238.145.355a15.427,15.427,0,0,0,.742,1.484.41.41,0,0,0,.556.153.405.405,0,0,0,.149-.556.083.083,0,0,0-.016-.024,14.271,14.271,0,0,1-.806-1.355c-.056-.1-.109-.214-.161-.327C443.559,661.357,443.354,661.441,443.16,661.53Z" transform="translate(-443.16 -661.26)" fill="#f8f8f8"/>
          </g>
          <g id="Group_1539" data-name="Group 1539" transform="translate(19.257 1.508)">
            <path id="Path_654" data-name="Path 654" d="M483.7,604.658l-1.734,2.83-2.5,4.056-.645,1.052c-2.205-.863-4.649-1.806-6.5-2.476.222-.689.435-1.375.653-2.064.306-.964.609-1.931.919-2.9.347-1.113.7-2.23,1.052-3.339.073-.222.141-.444.214-.669l7.588,3.117Z" transform="translate(-472.33 -601.15)" fill="#f5938c"/>
          </g>
        </g>
        <g id="Group_1545" data-name="Group 1545" transform="translate(137.31 121.636)">
          <g id="Group_1542" data-name="Group 1542">
            <g id="Group_1541" data-name="Group 1541">
              <path id="Path_655" data-name="Path 655" d="M710.87,479.29a3.6,3.6,0,0,0,0,.722l4.633,46.017a2.758,2.758,0,0,0,.351,1.121c.028.048.06.1.093.145a1.5,1.5,0,0,0,.911.625c1.185.238,2.375-1.173,2.415-2.867l1.23-50.61c.044-1.911-1.371-2.964-2.645-1.964L714,475.5l-1.185.931-.827.649A3.267,3.267,0,0,0,710.87,479.29Z" transform="translate(-710.85 -472.096)" fill="#705247"/>
            </g>
          </g>
          <g id="Group_1544" data-name="Group 1544" transform="translate(0 3.058)">
            <g id="Group_1543" data-name="Group 1543">
              <path id="Path_656" data-name="Path 656" d="M710.87,483.817a3.6,3.6,0,0,0,0,.722l4.633,46.017a2.758,2.758,0,0,0,.351,1.121l-2.04-50.073a5.16,5.16,0,0,1,.194-1.589c.032-.113.069-.226.1-.335l-1.294,1.266-.943.923A4.257,4.257,0,0,0,710.87,483.817Z" transform="translate(-710.85 -479.68)" fill="#705247"/>
            </g>
          </g>
        </g>
        <g id="Group_1550" data-name="Group 1550" transform="translate(93.361 122.443)">
          <g id="Group_1547" data-name="Group 1547">
            <g id="Group_1546" data-name="Group 1546">
              <path id="Path_657" data-name="Path 657" d="M601.87,481.29a3.593,3.593,0,0,0,0,.722l4.633,46.017a2.76,2.76,0,0,0,.351,1.121c.028.048.06.1.093.145a1.5,1.5,0,0,0,.911.625c1.185.238,2.375-1.173,2.415-2.867l1.23-50.61c.044-1.911-1.371-2.964-2.645-1.964L605,477.5l-1.185.931-.827.649A3.267,3.267,0,0,0,601.87,481.29Z" transform="translate(-601.85 -474.096)" fill="#705247"/>
            </g>
          </g>
          <g id="Group_1549" data-name="Group 1549" transform="translate(0 3.058)">
            <g id="Group_1548" data-name="Group 1548">
              <path id="Path_658" data-name="Path 658" d="M601.87,485.817a3.592,3.592,0,0,0,0,.722l4.633,46.017a2.759,2.759,0,0,0,.351,1.121l-2.04-50.073a5.157,5.157,0,0,1,.194-1.589c.032-.113.069-.226.1-.335l-1.294,1.266-.943.923A4.258,4.258,0,0,0,601.87,485.817Z" transform="translate(-601.85 -481.68)" fill="#705247"/>
            </g>
          </g>
        </g>
        <g id="Group_1552" data-name="Group 1552" transform="translate(24.689 28.244)">
          <g id="Group_1551" data-name="Group 1551">
            <path id="Path_659" data-name="Path 659" d="M571.966,289.3c-2.73,4.988-13.8,30.01-20.015,37.477s-52.384,31.627-65.335,30.042c-10.3-1.262-33.679-7.983-45.412-18.463-.109-.1-.21-.189-.315-.286a26.809,26.809,0,0,1-6.008-8.516c-6.3-12.8-1.951-25.434-1.012-27.962a11.64,11.64,0,0,1,1.96-3.907,8.606,8.606,0,0,1,3.351-2.375c4.572-1.867,11.185-.746,18.2-.117,7.338.657,37.01,3.6,36.28-4.818-.617-7.117-2.423-14.547-8.552-25.422s-10.975-21.438.161-23.962,9.443,4.8,30.849,7.371,37.546,2.226,41.824.972,14.422-1.323,15.132,2.665S574.7,284.3,571.966,289.3Z" transform="translate(-431.533 -240.467)" fill="#e5e5e4"/>
          </g>
        </g>
        <g id="Group_1554" data-name="Group 1554" transform="translate(29.95 112.425)">
          <g id="Group_1553" data-name="Group 1553">
            <path id="Path_660" data-name="Path 660" d="M444.58,455.04s29.276,23.1,60.581,16.6l-8.633-15.055-48.271-7.338Z" transform="translate(-444.58 -449.25)" fill="#c9c0c7"/>
          </g>
        </g>
        <g id="Group_1556" data-name="Group 1556" transform="translate(96.623 75.369)">
          <g id="Group_1555" data-name="Group 1555">
            <path id="Path_661" data-name="Path 661" d="M609.94,357.6a109.178,109.178,0,0,1,13.58-.1q6.707.321,13.326,1c4.419.456,8.81.964,13.2,1.54,4.411.573,8.749,1.218,13.334,1.637a32.753,32.753,0,0,1-3.27,1.173c-1.113.294-2.242.544-3.383.778q-1.7.266-3.411.48c-1.141.137-2.278.2-3.419.274a87.432,87.432,0,0,1-13.6-.387,108.381,108.381,0,0,1-13.362-2.21A72.355,72.355,0,0,1,609.94,357.6Z" transform="translate(-609.94 -357.345)" fill="#dbd2d8"/>
          </g>
        </g>
        <g id="Group_1557" data-name="Group 1557" transform="translate(70.439 44.587)">
          <path id="Path_662" data-name="Path 662" d="M569.192,281q-3.224,13.306-6.451,26.611L545,319.707l8.87,3.629q9.272-4.034,18.547-8.064,2.824-16.529,5.645-33.062Z" transform="translate(-545 -281)" fill="#e5e5e4"/>
        </g>
        <g id="Group_1558" data-name="Group 1558" transform="translate(78.906 36.619)">
          <path id="Path_663" data-name="Path 663" d="M593.014,276.465l-7.258,21.773q-5.431-1.772-10.862-3.548l-8.895-2.9q8.745-13.348,17.487-26.7L588,261.24q1.639,4.971,3.274,9.935Q592.143,273.818,593.014,276.465Z" transform="translate(-566 -261.24)" fill="#feaf30"/>
        </g>
        <g id="Group_1559" data-name="Group 1559" transform="translate(87.801 44.587)">
          <path id="Path_664" data-name="Path 664" d="M606.18,288.258l-7.258,21.773q-5.431-1.772-10.862-3.548L601.745,281l2.693,1.968Q605.309,285.611,606.18,288.258Z" transform="translate(-588.06 -281)" fill="#f9a71f"/>
        </g>
        <g id="Group_1561" data-name="Group 1561" transform="translate(35.228 103.31)">
          <g id="Group_1560" data-name="Group 1560">
            <path id="Path_665" data-name="Path 665" d="M458.069,442.822c-.472-2.246-.964-6.375,1.306-9.717,2.972-4.375,8.987-4.98,12.088-5.141,20.128-1.06,37.889.024,42.969-.379,35.074-2.774,44.687,1.081,45.666,5.048,1.621,6.56-23.644,21.257-48.469,24a81.342,81.342,0,0,1-23.3-.6A74.566,74.566,0,0,1,458.069,442.822Z" transform="translate(-457.67 -426.643)" fill="#dbd2d8"/>
          </g>
        </g>
        <g id="Group_1563" data-name="Group 1563" transform="translate(24.689 83.08)">
          <g id="Group_1562" data-name="Group 1562">
            <path id="Path_666" data-name="Path 666" d="M440.89,419.229a26.809,26.809,0,0,1-6.008-8.516c-6.3-12.8-1.951-25.434-1.012-27.962a11.638,11.638,0,0,1,1.96-3.907,8.606,8.606,0,0,1,3.351-2.375c.161.306.319.637.472,1C442.962,385.449,443.934,408.694,440.89,419.229Z" transform="translate(-431.533 -376.47)" fill="#acacac"/>
          </g>
        </g>
        <g id="Group_1564" data-name="Group 1564" transform="translate(40.167 176.663)">
          <path id="Path_667" data-name="Path 667" d="M482.584,608.57l-.318.516-1.734,2.83-2.5,4.056-.645,1.052-1.222,1.984-6.25-1.371c.327-1.028.649-2.06.972-3.088.222-.69.435-1.375.653-2.064.306-.964.609-1.931.919-2.9l8.854-.891Z" transform="translate(-469.92 -608.57)" fill="#fff"/>
        </g>
        <g id="Group_1565" data-name="Group 1565" transform="translate(32.308 156.68)">
          <path id="Path_668" data-name="Path 668" d="M459.28,559.01l-.238,2.25-.5,4.737-.129,1.226-.367,3.476H451.9c-.137-.968-.278-1.939-.415-2.9-.1-.714-.2-1.427-.3-2.145-.25-1.77-.5-3.548-.754-5.318Z" transform="translate(-450.43 -559.01)" fill="#fff"/>
        </g>
        <g id="Group_1567" data-name="Group 1567" transform="translate(74.311 31.045)">
          <g id="Group_1566" data-name="Group 1566">
            <path id="Path_669" data-name="Path 669" d="M554.9,249.811s-1.488,3.552,2.246,11.314,9.447,26.369,10.9,24.107S562.3,236.481,554.9,249.811Z" transform="translate(-554.604 -247.413)" fill="#acacac"/>
          </g>
        </g>
        <g id="Group_1568" data-name="Group 1568" transform="translate(29.865 89.092)">
          <path id="Path_670" data-name="Path 670" d="M515.7,408.468a19.435,19.435,0,0,1-3.3,8.7l-4.407.726q-16.692,2.752-33.385,5.5c-.02.056-.044.117-.064.173q-8.413,22.142-16.83,44.283-6.671-.218-13.338-.443,4.784-30.966,9.56-61.936a6.2,6.2,0,0,1,4.947-5.141l45.961-8.951a16.643,16.643,0,0,1,8.891,7.116,15.217,15.217,0,0,1,1.7,4.379A16.849,16.849,0,0,1,515.7,408.468Z" transform="translate(-444.37 -391.38)" fill="#ca4d26"/>
        </g>
        <g id="Group_1569" data-name="Group 1569" transform="translate(38.183 92.205)">
          <path id="Path_671" data-name="Path 671" d="M565.526,419.316l-1.25,7.35-42.1,8.576-5.915,1.206q-19.783,28.075-39.566,56.154-2.468-.683-4.935-1.363L465,489.376q13.106-32.8,26.208-65.613a7.349,7.349,0,0,1,3.689-4l28.768-13.777,14.378-6.887,25.664,5.746Z" transform="translate(-465 -399.1)" fill="#da5724"/>
        </g>
        <g id="Group_1570" data-name="Group 1570" transform="translate(95.22 33.7)">
          <path id="Path_672" data-name="Path 672" d="M652.7,266.81,647.425,290.3q-.012,7.457-.024,14.91-14.013-.375-28.022-.754l-12.919-1.693.419-15.043.754-26.95,2.714-2.314a10.307,10.307,0,0,1,4.084-2.125l8.048-2.238c.109-.028.218-.06.327-.089h10.886l2.484.266c1.04.113,2.077.222,3.117.335q2.843.3,5.689.609,2.951,4.433,5.9,8.87C651.489,264.991,652.094,265.9,652.7,266.81Z" transform="translate(-606.46 -254)" fill="#feaf30"/>
        </g>
        <g id="Group_1571" data-name="Group 1571" transform="translate(98.26 43.78)">
          <path id="Path_673" data-name="Path 673" d="M657.2,281.73l-5.274,23.486q-.012,7.457-.024,14.91l-37.094-18.95q-.405-5.643-.806-11.29l32.256,7.258L649.55,279h5.834C655.989,279.911,656.594,280.818,657.2,281.73Z" transform="translate(-614 -279)" fill="#f9a71f"/>
        </g>
        <g id="Group_1572" data-name="Group 1572" transform="translate(86.168 78.072)">
          <path id="Path_674" data-name="Path 674" d="M636.551,398.4l-30.329-7.959-11.528-5.371q-5.34-4.675-10.685-9.346l10.459-10.8,37.764-.875,2.5,19.878Z" transform="translate(-584.01 -364.05)" fill="#da5724"/>
        </g>
        <g id="Group_1573" data-name="Group 1573" transform="translate(105.352 0)">
          <path id="Path_675" data-name="Path 675" d="M646.271,196.457c-5.842-9.665-10.5-16.483-11.584-16.914a5.774,5.774,0,0,0-.814-.25,5.56,5.56,0,0,0-2.282,0,12.856,12.856,0,0,1,2.4-5.463c.109-.145.23-.286.355-.427a9.265,9.265,0,0,1,2.266-1.871,8.823,8.823,0,0,1,2.621-1.016,15.074,15.074,0,0,1,11.08,3.3c3.855,3.282,7.121,9.895,4.419,15.793C652.46,194.583,647.254,196.175,646.271,196.457Z" transform="translate(-631.59 -170.418)" fill="#382a28"/>
        </g>
        <g id="Group_1574" data-name="Group 1574" transform="translate(112.662 18.463)">
          <path id="Path_676" data-name="Path 676" d="M661.139,233.112a10,10,0,0,1-11.419,1.826V217.581l9.592-1.371q.611,5.673,1.23,11.35C660.743,229.411,660.937,231.261,661.139,233.112Z" transform="translate(-649.72 -216.21)" fill="#fff"/>
        </g>
        <g id="Group_1575" data-name="Group 1575" transform="translate(112.662 18.463)">
          <path id="Path_677" data-name="Path 677" d="M660.542,227.564l-10.822,2.794V217.581l9.592-1.371Q659.923,221.883,660.542,227.564Z" transform="translate(-649.72 -216.21)" fill="#fff"/>
        </g>
        <g id="Group_1576" data-name="Group 1576" transform="translate(102.055 15.307)">
          <rect id="Rectangle_167" data-name="Rectangle 167" width="6.935" height="0.403" transform="matrix(0.961, -0.275, 0.275, 0.961, 0, 1.911)" fill="#372a28"/>
        </g>
        <g id="Group_1577" data-name="Group 1577" transform="translate(104.892 6.479)">
          <path id="Path_678" data-name="Path 678" d="M647.356,199.387a17.737,17.737,0,0,1-.254,2.2c-.069.419-.145.766-.2,1a14.765,14.765,0,0,1-1.371,3.653c-1.855,3.1-6.83,5.326-10.048,3.653-1.189-.617-1.758-1.56-2.742-3.2a18.17,18.17,0,0,1-2.161-7.383c-.028-.4-.056-.879-.056-.879-.036-.693-.061-1.443-.069-2.246a62.009,62.009,0,0,1,.456-8.221,10.809,10.809,0,0,1,6.85-1.371c4.806.71,7.25,4.649,7.766,5.479A12.7,12.7,0,0,1,647.356,199.387Z" transform="translate(-630.45 -186.488)" fill="#fff"/>
        </g>
        <g id="Group_1578" data-name="Group 1578" transform="translate(113.013 15.758)">
          <path id="Path_679" data-name="Path 679" d="M651.977,209.887a.738.738,0,1,1-1-.3A.738.738,0,0,1,651.977,209.887Z" transform="translate(-650.59 -209.5)" fill="#3d3936"/>
        </g>
        <g id="Group_1579" data-name="Group 1579" transform="translate(105.703 15.758)">
          <path id="Path_680" data-name="Path 680" d="M633.847,209.887a.738.738,0,1,1-1-.3A.738.738,0,0,1,633.847,209.887Z" transform="translate(-632.46 -209.5)" fill="#3d3936"/>
        </g>
        <g id="Group_1580" data-name="Group 1580" transform="translate(107.561 15.891)">
          <path id="Path_681" data-name="Path 681" d="M639.174,216.515c-.746-.077-1.7-.327-2.012-1.052-.246-.577.036-1.153.363-1.818l.1-.2a21.416,21.416,0,0,0,1.355-3.617l.44.121a22.33,22.33,0,0,1-1.383,3.693l-.1.2c-.29.589-.516,1.052-.355,1.435.234.548,1.129.722,1.641.774Z" transform="translate(-637.069 -209.83)" fill="#e5e5e4"/>
        </g>
        <g id="Group_1581" data-name="Group 1581" transform="translate(111.144 12.639)">
          <path id="Path_682" data-name="Path 682" d="M650.481,202.908h-.036l-4.185-.46a.343.343,0,1,1,.077-.681l4.185.46a.341.341,0,0,1,.3.379A.351.351,0,0,1,650.481,202.908Z" transform="translate(-645.955 -201.765)" fill="#74584d"/>
        </g>
        <g id="Group_1582" data-name="Group 1582" transform="translate(103.82 12.31)">
          <path id="Path_683" data-name="Path 683" d="M628.132,201.837a.343.343,0,0,1-.016-.685l4.205-.2a.348.348,0,0,1,.359.327.343.343,0,0,1-.327.359l-4.205.2Z" transform="translate(-627.789 -200.949)" fill="#74584d"/>
        </g>
        <g id="Group_1583" data-name="Group 1583" transform="translate(108.654 23.528)">
          <path id="Path_684" data-name="Path 684" d="M640.933,230.33a2.16,2.16,0,0,1-1.153-.266l.25-.383c.012.008,1.3.79,3.859-.911l.254.379A5.9,5.9,0,0,1,640.933,230.33Z" transform="translate(-639.78 -228.77)" fill="#da5724"/>
        </g>
        <g id="Group_1584" data-name="Group 1584" transform="translate(112.138 18.427)">
          <path id="Path_685" data-name="Path 685" d="M648.73,217h3.77a.313.313,0,0,0,.31-.31v-.258a.313.313,0,0,0-.31-.31h-3.77a.313.313,0,0,0-.31.31v.258A.311.311,0,0,0,648.73,217Z" transform="translate(-648.42 -216.12)" fill="#e5e5e4"/>
        </g>
        <g id="Group_1585" data-name="Group 1585" transform="translate(104.961 18.423)">
          <path id="Path_686" data-name="Path 686" d="M633.047,216.424v.254a.308.308,0,0,1-.31.31h-2.06c-.02-.282-.036-.577-.056-.879h2.117A.317.317,0,0,1,633.047,216.424Z" transform="translate(-630.62 -216.11)" fill="#e5e5e4"/>
        </g>
        <g id="Group_1586" data-name="Group 1586" transform="translate(95.941 53.328)">
          <path id="Path_687" data-name="Path 687" d="M651.066,307.7c-15.265-4.27-34.949-3.516-42.707-3l-.109-1.609c7.838-.528,27.74-1.286,43.247,3.052Z" transform="translate(-608.25 -302.68)" fill="#fff"/>
        </g>
        <g id="Group_1587" data-name="Group 1587" transform="translate(109.691 4.785)">
          <path id="Path_688" data-name="Path 688" d="M642.35,183.984c5.238,7.092,9.463,8.124,11.193,8.33.488.056,2.875.339,3.2-.456.242-.6-.863-1.331-2.012-2.778-2.266-2.855-1.693-4.673-3.012-5.9C650.559,182.1,648.083,181.609,642.35,183.984Z" transform="translate(-642.35 -182.285)" fill="#382a28"/>
        </g>
        <g id="Group_1588" data-name="Group 1588" transform="translate(103.351 2.906)">
          <path id="Path_689" data-name="Path 689" d="M634.111,179.937s-.226.415-.593,1.044c-.1.165-.2.343-.315.528-.407.685-.923,1.512-1.476,2.331-1.238,1.826-2.673,3.588-3.56,3.532-1.823-.129-2.738-6.064,1.375-8.806a6.838,6.838,0,0,1,.7-.419,4.472,4.472,0,0,1,1.141-.448,1.892,1.892,0,0,1,2.04.6A3.428,3.428,0,0,1,634.111,179.937Z" transform="translate(-626.627 -177.625)" fill="#382a28"/>
        </g>
        <g id="Group_1589" data-name="Group 1589" transform="translate(109.747 14.177)">
          <path id="Path_690" data-name="Path 690" d="M646.091,212.781a3.6,3.6,0,1,1,3.6-3.6A3.607,3.607,0,0,1,646.091,212.781Zm0-6.395a2.794,2.794,0,1,0,2.794,2.794A2.8,2.8,0,0,0,646.091,206.386Z" transform="translate(-642.49 -205.58)" fill="#372a28"/>
        </g>
        <g id="Group_1590" data-name="Group 1590" transform="translate(101.526 14.177)">
          <path id="Path_691" data-name="Path 691" d="M625.7,212.781a3.6,3.6,0,1,1,3.6-3.6A3.607,3.607,0,0,1,625.7,212.781Zm0-6.395a2.794,2.794,0,1,0,2.794,2.794A2.8,2.8,0,0,0,625.7,206.386Z" transform="translate(-622.1 -205.58)" fill="#372a28"/>
        </g>
        <g id="Group_1591" data-name="Group 1591" transform="translate(108.13 16.973)">
          <path id="Path_692" data-name="Path 692" d="M640.355,213.464c-.415-.415-.782-.6-1.048-.536-.306.073-.444.456-.444.46l-.383-.129a1.14,1.14,0,0,1,.734-.722c.419-.1.9.117,1.427.645Z" transform="translate(-638.48 -212.514)" fill="#3d3936"/>
        </g>
        <g id="Group_1592" data-name="Group 1592" transform="translate(109.92 21.205)">
          <path id="Path_693" data-name="Path 693" d="M654.54,223.381c-.068.419-.145.766-.2,1a14.769,14.769,0,0,1-1.371,3.653c-1.855,3.1-6.83,5.326-10.048,3.653,10.963-1.371,11.419-8.677,11.419-8.677C654.407,223.135,654.476,223.256,654.54,223.381Z" transform="translate(-642.92 -223.01)" fill="#e5e5e4"/>
        </g>
        <g id="Group_1593" data-name="Group 1593" transform="translate(116.216 14.391)">
          <rect id="Rectangle_168" data-name="Rectangle 168" width="6.935" height="0.403" transform="matrix(0.961, -0.275, 0.275, 0.961, 0, 1.911)" fill="#372a28"/>
        </g>
        <g id="Group_1594" data-name="Group 1594" transform="translate(119.516 14.732)">
          <path id="Path_694" data-name="Path 694" d="M666.772,209.034s1.52-2.205,3.226-2.072a2.429,2.429,0,0,1,1.161.439,3.426,3.426,0,0,1-.8,5.746,2.8,2.8,0,0,1-1.8.2C667.353,212.969,666.494,211.2,666.772,209.034Z" transform="translate(-666.72 -206.956)" fill="#fff"/>
        </g>
        <g id="Group_1595" data-name="Group 1595" transform="translate(120.867 15.757)">
          <path id="Path_695" data-name="Path 695" d="M672.058,213.761l-.133-.435a1.816,1.816,0,0,0,1.149-1.024,2.03,2.03,0,0,0-.161-1.786.955.955,0,0,0-.645-.532,3.036,3.036,0,0,0-1.931.6l-.266-.371a3.442,3.442,0,0,1,2.3-.669,1.419,1.419,0,0,1,.948.766,2.527,2.527,0,0,1,.177,2.177A2.294,2.294,0,0,1,672.058,213.761Z" transform="translate(-670.07 -209.498)" fill="#e5e5e4"/>
        </g>
        <g id="Group_1596" data-name="Group 1596" transform="translate(109.953 32.894)">
          <path id="Path_696" data-name="Path 696" d="M659.128,254.822A19.338,19.338,0,0,1,643,256.435l1.286-3.54.327-.9h12.668l.222.339.48.734.375.573Z" transform="translate(-643 -252)" fill="#feaf30"/>
        </g>
        <g id="Group_1597" data-name="Group 1597" transform="translate(106.324 43.78)">
          <path id="Path_697" data-name="Path 697" d="M677.142,308.03q-.405,4.639-.806,9.274a5.038,5.038,0,0,1-1.21,2.016c-1.778,1.786-4.943,2.056-8.064.806q-4.512-2.637-9.02-5.282Q646.019,307.811,634,300.773l2.419-6.854q10,4.288,20,8.572s0,0,.008,0l8.217,3.52c-.153-1.415-.31-2.835-.464-4.25l-2.359-21.555,12.5-1.21,2.169,22.3Z" transform="translate(-634 -279)" fill="#fff"/>
        </g>
        <g id="Group_1598" data-name="Group 1598" transform="translate(128.75 66.085)">
          <path id="Path_698" data-name="Path 698" d="M710.336,341.045q-.405,4.639-.806,9.274a5.039,5.039,0,0,1-1.21,2.016c-1.778,1.786-4.943,2.056-8.064.806q-4.512-2.637-9.02-5.282c11.354,2.653,11.391.113,11.036-2.379-.347-2.427-9.955-8.354-12.652-9.971l8.217,3.52c-.153-1.415-.31-2.835-.464-4.25l12.31-.46Z" transform="translate(-689.62 -334.32)" fill="#fff"/>
        </g>
        <g id="Group_1599" data-name="Group 1599" transform="translate(133.741 34.853)">
          <path id="Path_699" data-name="Path 699" d="M702.093,256.86l5.169,2.27a18.658,18.658,0,0,1,11.007,14.7l3.085,23.813L702,291.188Z" transform="translate(-702 -256.86)" fill="#feaf30"/>
        </g>
        <g id="Group_1600" data-name="Group 1600" transform="translate(112.662 33.233)">
          <path id="Path_700" data-name="Path 700" d="M665.11,253.908l-2.742.238-12.648,1.1,9.507-1.939,2.286-.468.48.734C663.034,253.687,664.07,253.8,665.11,253.908Z" transform="translate(-649.72 -252.84)" fill="#f9a71f"/>
        </g>
        <g id="Group_1607" data-name="Group 1607" transform="translate(87.369 54.808)">
          <g id="Group_1601" data-name="Group 1601">
            <path id="Path_701" data-name="Path 701" d="M596.945,309.987l.431-.165-4.846,4.846c-.234,1.617-.46,3.23-.694,4.846.46-.234.923-.46,1.387-.694.46-1.153.923-2.31,1.383-3.464l4.653-2.661c.064-.04.129-.073.194-.109l-3.464,3.463c-.234,1.153-.46,2.31-.694,3.464h.694c.46-.694.923-1.383,1.387-2.076,1.286-1.068,2.56-2.133,3.846-3.2l.04-.04c.089-.073.182-.145.27-.222l-2.77,3.455-.988,2.75.79.02.194,0,2.076-2.77,2.77-.694,4.157,2.77c.323-.161.637-.323.96-.484.548-.27,1.1-.544,1.641-.818l.04-.016s0,0,.012,0l2.891-1.447q-.689-2.77-1.383-5.54a.561.561,0,0,1-.1-.04q-6.87-2.4-13.745-4.81l-9.729,5.475-.012,0c-.448.25-.891.5-1.343.754.46.234.923.46,1.383.693C591.236,312.184,594.086,311.084,596.945,309.987Z" transform="translate(-586.99 -306.35)" fill="#fff"/>
          </g>
          <g id="Group_1602" data-name="Group 1602" transform="translate(11.58 9.423)">
            <path id="Path_702" data-name="Path 702" d="M615.71,334.147l.194,0,2.076-2.77,2.77-.693,4.157,2.77c.879-.444,1.766-.879,2.649-1.322l-3.064-.2-3.322-2.218-3.879,1.661Z" transform="translate(-615.71 -329.72)" fill="#e5e5e4"/>
          </g>
          <g id="Group_1603" data-name="Group 1603" transform="translate(8.516 7.846)">
            <path id="Path_703" data-name="Path 703" d="M608.11,331.128h.488c.46-.693.923-1.383,1.387-2.076,1.286-1.069,2.56-2.133,3.847-3.2l.04-.04-4.439,2.685Z" transform="translate(-608.11 -325.81)" fill="#e5e5e4"/>
          </g>
          <g id="Group_1604" data-name="Group 1604" transform="translate(6.234 6.096)">
            <path id="Path_704" data-name="Path 704" d="M602.45,327.845c.46-1.153.923-2.31,1.383-3.464l4.653-2.661.331-.25-4.988,2.218Z" transform="translate(-602.45 -321.47)" fill="#e5e5e4"/>
          </g>
          <g id="Group_1605" data-name="Group 1605" transform="translate(0 3.326)">
            <path id="Path_705" data-name="Path 705" d="M586.99,317.511c.46.234.923.46,1.383.694q4.288-1.645,8.572-3.3l.431-.306-9.036,2.149-.012,0C587.885,317.007,587.441,317.265,586.99,317.511Z" transform="translate(-586.99 -314.6)" fill="#e5e5e4"/>
          </g>
          <g id="Group_1606" data-name="Group 1606" transform="translate(21.47 9.431)">
            <path id="Path_706" data-name="Path 706" d="M640.24,332.506l.266.488c.548-.27,1.1-.544,1.641-.818.012,0,.016.012.028.016l.012-.032.827-2.419-1.951,1.951Z" transform="translate(-640.24 -329.74)" fill="#e5e5e4"/>
          </g>
        </g>
        <g id="Group_1626" data-name="Group 1626" transform="translate(0 35.825)">
          <g id="Group_1610" data-name="Group 1610">
            <g id="Group_1609" data-name="Group 1609">
              <g id="Group_1608" data-name="Group 1608">
                <path id="Path_707" data-name="Path 707" d="M472.77,296.861,484.9,324.766a.338.338,0,0,0,.294.218h43.683c.262,0,.423-.359.286-.637l-13.568-27.905a.328.328,0,0,0-.286-.2H473.064C472.814,296.244,472.649,296.583,472.77,296.861Z" transform="translate(-431.43 -281.334)" fill="#3d3936"/>
                <path id="Path_727" data-name="Path 727" d="M241.085,153.69l7.5.448q-2.159-2.77-4.322-5.536l-.96,1.54a10.575,10.575,0,0,1,3.705-18.975l.339-2.468a12.946,12.946,0,0,0-5.3,23.45Q241.565,152.924,241.085,153.69Z" transform="translate(-236.434 -127.72)" fill="#553e37"/>
                <path id="Path_728" data-name="Path 728" d="M449.269,126.718l-7.5-.448q2.159,2.77,4.322,5.536l.96-1.54a10.575,10.575,0,0,1-3.705,18.975l-.339,2.468a12.946,12.946,0,0,0,5.3-23.45C448.628,127.742,448.947,127.23,449.269,126.718Z" transform="translate(-422.684 -126.27)" fill="#553e37"/>
              </g>
            </g>
          </g>
          <g id="Group_1613" data-name="Group 1613" transform="translate(112.767 40.711)">
            <g id="Group_1612" data-name="Group 1612">
              <g id="Group_1611" data-name="Group 1611">
                <path id="Path_708" data-name="Path 708" d="M655.976,363.183l-1.052-2.943h-4.338l-.6,3.1Z" transform="translate(-649.98 -360.24)" fill="#22201f"/>
              </g>
            </g>
          </g>
          <g id="Group_1616" data-name="Group 1616" transform="translate(107.457 40.735)">
            <g id="Group_1615" data-name="Group 1615">
              <g id="Group_1614" data-name="Group 1614">
                <path id="Path_709" data-name="Path 709" d="M642.806,363.243l-1.052-2.943h-4.338l-.6,3.1Z" transform="translate(-636.81 -360.3)" fill="#22201f"/>
              </g>
            </g>
          </g>
          <g id="Group_1619" data-name="Group 1619" transform="translate(101.905 40.735)">
            <g id="Group_1618" data-name="Group 1618">
              <g id="Group_1617" data-name="Group 1617">
                <path id="Path_710" data-name="Path 710" d="M629.035,363.243l-1.052-2.943h-4.339l-.6,3.1Z" transform="translate(-623.04 -360.3)" fill="#22201f"/>
              </g>
            </g>
          </g>
          <g id="Group_1622" data-name="Group 1622" transform="translate(96.514 40.735)">
            <g id="Group_1621" data-name="Group 1621">
              <g id="Group_1620" data-name="Group 1620">
                <path id="Path_711" data-name="Path 711" d="M615.665,363.243l-1.052-2.943h-4.338l-.6,3.1Z" transform="translate(-609.67 -360.3)" fill="#22201f"/>
              </g>
            </g>
          </g>
          <g id="Group_1625" data-name="Group 1625" transform="translate(53.513 43.02)">
            <g id="Group_1624" data-name="Group 1624">
              <g id="Group_1623" data-name="Group 1623">
                <rect id="Rectangle_169" data-name="Rectangle 169" width="67.322" height="4.234" transform="translate(67.322 4.234) rotate(180)" fill="#3d3936"/>
              </g>
            </g>
          </g>
        </g>
        <g id="Group_1633" data-name="Group 1633" transform="translate(56.4 73.383)">
          <g id="Group_1627" data-name="Group 1627">
            <path id="Path_712" data-name="Path 712" d="M510.18,365.141l3.371.266,4.274,2.165,15.152-1.806,1.371-3.052.21-.476-8.8-.956-2.589-5.479-.1-.218-1.31.157,2.012,5.762-.02-.028-4.867-7.395-1.318.157-.125-.149-1.423-1.669-.556.262-1.347.633,3.842,9.8-.323-.468-.008-.012-5.33-7.766-.548.363-.693.456,3.456,7.165.3.637-3.471.411Z" transform="translate(-510.18 -352.42)" fill="#fff"/>
          </g>
          <g id="Group_1628" data-name="Group 1628" transform="translate(12.991 3.383)">
            <path id="Path_713" data-name="Path 713" d="M542.4,360.81l2.077,5.762,7,1.444,2.1-.294.21-.476-8.8-.956Z" transform="translate(-542.4 -360.81)" fill="#e5e5e4"/>
          </g>
          <g id="Group_1629" data-name="Group 1629" transform="translate(7.862 1.661)">
            <path id="Path_714" data-name="Path 714" d="M529.68,356.641l6.149,8.08-.419-.758-.02-.028-4.867-7.395Z" transform="translate(-529.68 -356.54)" fill="#e5e5e4"/>
          </g>
          <g id="Group_1630" data-name="Group 1630" transform="translate(5.282)">
            <path id="Path_715" data-name="Path 715" d="M523.28,352.682l4.238,10.112-2.258-8.705-1.423-1.669Z" transform="translate(-523.28 -352.42)" fill="#e5e5e4"/>
          </g>
          <g id="Group_1631" data-name="Group 1631" transform="translate(1.568 2.447)">
            <path id="Path_716" data-name="Path 716" d="M514.07,358.853l6.334,8.326-.448-.911-.008-.012-5.33-7.766Z" transform="translate(-514.07 -358.49)" fill="#e5e5e4"/>
          </g>
          <g id="Group_1632" data-name="Group 1632" transform="translate(0 10.431)">
            <path id="Path_717" data-name="Path 717" d="M510.18,380.58l3.371.266,4.274,2.165,1.29-.153L516.736,382l-2.226-3.714.3.637-3.471.411Z" transform="translate(-510.18 -378.29)" fill="#e5e5e4"/>
          </g>
        </g>
        <g id="Group_1634" data-name="Group 1634" transform="translate(44.941 124.199)" opacity="0.53">
          <path id="Path_718" data-name="Path 718" d="M532.66,481.494l-.484,1.1-5.915,1.206q-19.783,28.075-39.566,56.154-2.468-.683-4.935-1.363l44.9-60.145Z" transform="translate(-481.76 -478.45)" fill="#c43d49"/>
        </g>
        <g id="Group_1635" data-name="Group 1635" transform="translate(44.864 106.103)">
          <path id="Path_719" data-name="Path 719" d="M481.921,512.065l-.351-.2,32.885-57.944a7.674,7.674,0,0,1,2.77-2.818l29.736-17.535.206.347-29.736,17.535a7.276,7.276,0,0,0-2.625,2.669Z" transform="translate(-481.57 -433.57)" fill="#fff"/>
        </g>
        <g id="Group_1637" data-name="Group 1637" transform="translate(85.664 25.967)">
          <g id="Group_1636" data-name="Group 1636">
            <path id="Path_720" data-name="Path 720" d="M657.32,309.517c-2.27,5.157-3.746,10.362-5.754,15.33-3.411,8.451-8.358,16.225-21.353,21.934-20.644,9.064-46.32,13.83-47.453,2.274,0,0,.032-1.73.383-4.528.044-.339.089-.693.141-1.06.879-6.189,3.222-16.451,9.423-25.18,6.459-9.092,10.842-14.007,16.269-16.519a26.128,26.128,0,0,1,9.084-2.173c9.491-.778,26.232-.113,29.45-2.52a1.077,1.077,0,0,0,.524-1.1c-.718-3.71-1.423-48.074.476-53.085,1.121-2.955,4.262-7.1,8.048-7.923,2.633-.573,5.58.464,8.366,4.633C671.73,249.746,663.452,295.594,657.32,309.517Z" transform="translate(-582.76 -234.82)" fill="#e5e5e4"/>
          </g>
        </g>
        <g id="Group_1639" data-name="Group 1639" transform="translate(86.051 92.786)">
          <g id="Group_1638" data-name="Group 1638">
            <path id="Path_721" data-name="Path 721" d="M613.246,404.738c-.177,6.794-19.809,46.307-27.41,42.743-.939-.44-1.762-1.572-2.117-4.048.758-6.024,3-16.995,9.568-26.244,6.459-9.092,10.842-14.007,16.269-16.519a3.153,3.153,0,0,1,2.48.274C613.323,401.823,613.266,403.911,613.246,404.738Z" transform="translate(-583.72 -400.541)" fill="#acacac"/>
          </g>
        </g>
        <g id="Group_1641" data-name="Group 1641" transform="translate(85.668 115.993)">
          <g id="Group_1640" data-name="Group 1640">
            <path id="Path_722" data-name="Path 722" d="M651.576,458.1c-3.411,8.451-8.358,16.225-21.354,21.934-20.644,9.064-46.32,13.83-47.453,2.274,0,0,.032-1.73.383-4.528.044-.339.089-.693.141-1.06,11.036.685,30.889.718,46.324-5.875C641.625,465.716,648.121,461.2,651.576,458.1Z" transform="translate(-582.77 -458.1)" fill="#acacac"/>
          </g>
        </g>
        <g id="Group_1643" data-name="Group 1643" transform="translate(150.205 26.108)">
          <g id="Group_1642" data-name="Group 1642">
            <path id="Path_723" data-name="Path 723" d="M752.891,241.924s-3.375,51.432-4.923,53.876c-.9,1.415-3,1.8-4.915,1.48a1.077,1.077,0,0,0,.524-1.1c-.718-3.709-1.423-48.074.476-53.085,1.121-2.955,4.262-7.1,8.048-7.923A17.244,17.244,0,0,1,752.891,241.924Z" transform="translate(-742.831 -235.17)" fill="#acacac"/>
          </g>
        </g>
      </g>
      <g id="flower" transform="translate(420.701 218.894)">
        <g id="Group_1675" data-name="Group 1675" transform="translate(0 0)">
          <g id="Group_1644" data-name="Group 1644" transform="translate(44.349 36.954)">
            <rect id="Rectangle_170" data-name="Rectangle 170" width="73.362" height="0.524" transform="translate(0 73.355) rotate(-89.049)" fill="#382a28"/>
          </g>
          <g id="Group_1650" data-name="Group 1650" transform="translate(32.612)">
            <g id="Group_1645" data-name="Group 1645" transform="translate(0)">
              <ellipse id="Ellipse_46" data-name="Ellipse 46" cx="9.205" cy="18.874" rx="9.205" ry="18.874" transform="matrix(0.996, -0.088, 0.088, 0.996, 0, 1.615)" fill="#553e37"/>
            </g>
            <g id="Group_1646" data-name="Group 1646" transform="translate(11.42 16.55)">
              <rect id="Rectangle_171" data-name="Rectangle 171" width="0.52" height="28.615" transform="translate(0 0.027) rotate(-3.021)" fill="#382a28"/>
            </g>
            <g id="Group_1647" data-name="Group 1647" transform="translate(7.524 28.48)">
              <rect id="Rectangle_172" data-name="Rectangle 172" width="0.52" height="7.37" transform="matrix(0.692, -0.722, 0.722, 0.692, 0, 0.376)" fill="#382a28"/>
            </g>
            <g id="Group_1648" data-name="Group 1648" transform="translate(6.321 15.649)">
              <rect id="Rectangle_173" data-name="Rectangle 173" width="0.52" height="7.37" transform="matrix(0.692, -0.722, 0.722, 0.692, 0, 0.376)" fill="#382a28"/>
            </g>
            <g id="Group_1649" data-name="Group 1649" transform="translate(12.41 21.553)">
              <rect id="Rectangle_174" data-name="Rectangle 174" width="8.729" height="0.52" transform="matrix(0.696, -0.718, 0.718, 0.696, 0, 6.27)" fill="#382a28"/>
            </g>
          </g>
          <g id="Group_1656" data-name="Group 1656" transform="translate(41.735 24.237)">
            <g id="Group_1651" data-name="Group 1651" transform="translate(0 0)">
              <ellipse id="Ellipse_47" data-name="Ellipse 47" cx="18.874" cy="9.205" rx="18.874" ry="9.205" transform="matrix(0.86, -0.511, 0.511, 0.86, 0, 19.285)" fill="#553e37"/>
            </g>
            <g id="Group_1652" data-name="Group 1652" transform="translate(3.722 16.782)">
              <path id="Path_724" data-name="Path 724" d="M755.27,403.92l-.25-.46,5.5-3.016,14.717-8.064.254.456Z" transform="translate(-755.02 -392.38)" fill="#382a28"/>
            </g>
            <g id="Group_1653" data-name="Group 1653" transform="translate(8.894 18.588)">
              <rect id="Rectangle_175" data-name="Rectangle 175" width="7.37" height="0.52" transform="translate(0 7.009) rotate(-71.976)" fill="#382a28"/>
            </g>
            <g id="Group_1654" data-name="Group 1654" transform="translate(19.937 11.944)">
              <rect id="Rectangle_176" data-name="Rectangle 176" width="7.37" height="0.52" transform="translate(0 7.009) rotate(-71.976)" fill="#382a28"/>
            </g>
            <g id="Group_1655" data-name="Group 1655" transform="translate(14.101 22.543)">
              <rect id="Rectangle_177" data-name="Rectangle 177" width="0.52" height="8.729" transform="translate(0 0.494) rotate(-71.634)" fill="#382a28"/>
            </g>
          </g>
          <g id="Group_1662" data-name="Group 1662" transform="translate(7.805 27.878)">
            <g id="Group_1657" data-name="Group 1657" transform="translate(0 0)">
              <ellipse id="Ellipse_48" data-name="Ellipse 48" cx="9.205" cy="18.874" rx="9.205" ry="18.874" transform="translate(0 16.869) rotate(-66.391)" fill="#553e37"/>
            </g>
            <g id="Group_1658" data-name="Group 1658" transform="translate(17.725 15.624)">
              <path id="Path_725" data-name="Path 725" d="M725.72,407l-.161-.069L705.6,399.024l.194-.484,20.132,7.979Z" transform="translate(-705.6 -398.54)" fill="#382a28"/>
            </g>
            <g id="Group_1659" data-name="Group 1659" transform="translate(30.325 15.817)">
              <rect id="Rectangle_178" data-name="Rectangle 178" width="0.52" height="7.37" transform="translate(0 0.221) rotate(-25.163)" fill="#382a28"/>
            </g>
            <g id="Group_1660" data-name="Group 1660" transform="translate(18.543 10.593)">
              <rect id="Rectangle_179" data-name="Rectangle 179" width="0.52" height="7.37" transform="translate(0 0.221) rotate(-25.163)" fill="#382a28"/>
            </g>
            <g id="Group_1661" data-name="Group 1661" transform="translate(20.354 20.149)">
              <rect id="Rectangle_180" data-name="Rectangle 180" width="8.729" height="0.52" transform="translate(0 3.755) rotate(-25.481)" fill="#382a28"/>
            </g>
          </g>
          <g id="Group_1668" data-name="Group 1668" transform="translate(40.556 43.526)">
            <g id="Group_1663" data-name="Group 1663" transform="translate(0 0)">
              <ellipse id="Ellipse_49" data-name="Ellipse 49" cx="22.563" cy="11.003" rx="22.563" ry="11.003" transform="matrix(0.86, -0.511, 0.511, 0.86, 0, 23.055)" fill="#553e37"/>
            </g>
            <g id="Group_1664" data-name="Group 1664" transform="translate(4.364 19.88)">
              <rect id="Rectangle_181" data-name="Rectangle 181" width="27.559" height="1.044" transform="translate(0 13.239) rotate(-28.71)" fill="#382a28"/>
            </g>
            <g id="Group_1665" data-name="Group 1665" transform="translate(10.458 22.152)">
              <rect id="Rectangle_182" data-name="Rectangle 182" width="8.81" height="1.044" transform="translate(0 8.376) rotate(-71.947)" fill="#382a28"/>
            </g>
            <g id="Group_1666" data-name="Group 1666" transform="translate(23.648 14.198)">
              <rect id="Rectangle_183" data-name="Rectangle 183" width="8.81" height="1.044" transform="translate(0 8.376) rotate(-71.947)" fill="#382a28"/>
            </g>
            <g id="Group_1667" data-name="Group 1667" transform="translate(16.789 26.748)">
              <rect id="Rectangle_184" data-name="Rectangle 184" width="1.044" height="10.435" transform="translate(0 0.991) rotate(-71.634)" fill="#382a28"/>
            </g>
          </g>
          <g id="Group_1674" data-name="Group 1674" transform="translate(0 47.882)">
            <g id="Group_1669" data-name="Group 1669" transform="translate(0 0)">
              <ellipse id="Ellipse_50" data-name="Ellipse 50" cx="11.003" cy="22.563" rx="11.003" ry="22.563" transform="translate(0 20.165) rotate(-66.391)" fill="#553e37"/>
            </g>
            <g id="Group_1670" data-name="Group 1670" transform="translate(21.107 18.486)">
              <path id="Path_726" data-name="Path 726" d="M718.689,465.745l-5.4-2.137-18.656-7.391.383-.968,24.063,9.524Z" transform="translate(-694.63 -455.25)" fill="#382a28"/>
            </g>
            <g id="Group_1671" data-name="Group 1671" transform="translate(36.056 18.823)">
              <rect id="Rectangle_185" data-name="Rectangle 185" width="1.044" height="8.81" transform="translate(0 0.444) rotate(-25.163)" fill="#382a28"/>
            </g>
            <g id="Group_1672" data-name="Group 1672" transform="translate(21.976 12.579)">
              <rect id="Rectangle_186" data-name="Rectangle 186" width="1.044" height="8.81" transform="translate(0 0.444) rotate(-25.163)" fill="#382a28"/>
            </g>
            <g id="Group_1673" data-name="Group 1673" transform="translate(24.254 23.913)">
              <rect id="Rectangle_187" data-name="Rectangle 187" width="10.435" height="1.044" transform="translate(0 4.486) rotate(-25.461)" fill="#382a28"/>
            </g>
          </g>
        </g>
        <g id="Group_1676" data-name="Group 1676" transform="translate(33.542 85.375)">
          <rect id="Rectangle_188" data-name="Rectangle 188" width="21.898" height="43.332" fill="#553e37"/>
        </g>
        <g id="Group_1677" data-name="Group 1677" transform="translate(36.122 89.028)">
          <rect id="Rectangle_189" data-name="Rectangle 189" width="17.229" height="2.089" fill="#382a28"/>
        </g>
      </g>
    </g>
  </g>
</svg>
