<svg xmlns="http://www.w3.org/2000/svg" xmlns:xlink="http://www.w3.org/1999/xlink" width="252" height="210"><style><![CDATA[.B{fill:#382a28}.C{fill:#553e37}.D{fill:#fff}.E{fill:#e5e5e4}.F{fill:#f8f8f8}.G{fill:#372a28}.H{fill:#feaf30}.I{fill:#3d3936}.J{fill:#f9a71f}.K{fill:#acacac}.L{fill:#da5724}]]></style><g class="C"><path d="M101.727 181.764c1.048-7.516-2.5-13.733-7.254-15.056a9.88 9.88 0 0 0-7.258 1.238c-.222-.625-2.133-5.734-7.254-7.254-1.92-.551-3.955-.551-5.875 0a11.06 11.06 0 0 0-5.871 4.145c2.137-4.435.742-9.5-2.762-11.745-2.771-1.634-6.212-1.634-8.983 0a6.82 6.82 0 0 0-6.911-1.726 7.2 7.2 0 0 0-4.492 4.834c-2.894-3.16-7.507-4.072-11.386-2.251s-6.124 5.953-5.54 10.198c-4.563-3.527-10.988-3.317-15.311.5s-5.325 10.168-2.389 15.132z"/><path d="M250.23 182.054H1.77a1.77 1.77 0 0 1-1.77-1.77v-.29a1.77 1.77 0 0 1 1.77-1.77h248.46a1.77 1.77 0 0 1 1.77 1.77v.29a1.77 1.77 0 0 1-1.77 1.77z"/><ellipse cx="4.338" cy="9.399" rx="4.338" ry="9.399" transform="matrix(.277298 -.960784 .960784 .277298 7.014 135.565)"/><ellipse cx="9.399" cy="4.338" rx="9.399" ry="4.338" transform="matrix(.637693 -.770291 .770291 .637693 26.65 131.762)"/><ellipse cx="4.338" cy="9.399" rx="4.338" ry="9.399" transform="matrix(.254889 -.96697 .96697 .254889 2.103 119.118)"/><ellipse cx="4.338" cy="9.399" rx="4.338" ry="9.399" transform="matrix(.969 -.248 .248 .969 11.697 96.056)"/><path d="M35.835 104.128a12.35 12.35 0 0 1-11.665 14.741 12.35 12.35 0 0 1 11.665-14.741z"/></g><g class="B"><path d="M16.633 100.856l.408-.126 18.121 58.496-.408.126z"/><path d="M22.914 120.715l-13.269-4.419.133-.407 13 4.326 9.047-10.515.323.282zm5.282 16.85l-16.394-4.314.109-.411 16.108 4.234 8.225-11.354.351.254z"/><path d="M13.327 119.586l3.789-1.175.128.412-3.789 1.175zm3.293-3.202l.345-.252 2.056 2.818-.345.252zm-4.857-1.634l.345-.252 2.056 2.818-.345.252zm15.363.247l3.82-1.075.117.415-3.82 1.075zm-1.292 1.503l.192-3.481.426.023-.192 3.481zm3.185-4.015l.192-3.485.426.023-.192 3.485zm-9.013 25.109l3.412-1.651.188.388-3.412 1.651zm-6.78-1.8l3.411-1.649.187.388-3.411 1.649zm4.349-4.105l.38-.195 1.819 3.544-.38.195zm13.61.771l3.662-.976.111.416-3.662.976zm3.958-5.045l3.662-.976.111.416-3.662.976zm-3.32-.879l.415-.1.935 3.873-.415.1z"/></g><g class="C"><ellipse cx="4.338" cy="9.399" rx="4.338" ry="9.399" transform="matrix(.277298 -.960784 .960784 .277298 11.371 150.172)"/><path d="M46.332 134.658c-3.617.054-7.028 1.69-9.335 4.476s-3.276 6.444-2.652 10.007c3.617-.054 7.028-1.69 9.334-4.476s3.276-6.444 2.653-10.007z"/></g><g class="B"><path d="M32.555 152.169l-16.394-4.31.109-.415 16.108 4.238 8.229-11.354.347.25z"/><path d="M24.364 152.199l3.412-1.651.188.388-3.412 1.651zm-6.78-1.801l3.411-1.649.187.388-3.411 1.649zm4.333-4.1l.38-.195 1.819 3.545-.38.195zm13.626.766l3.662-.976.111.416-3.662.976zm3.96-5.04l3.662-.976.111.416-3.662.976zm-3.332-.872l.415-.1.935 3.873-.415.1zm-18.287-36.396l.815-2.828.414.119-.815 2.828zm-2.521.917l.261-.343 3.667 2.795-.261.343z"/></g><g class="C"><path d="M111.283 207.053H76.362a4.57 4.57 0 0 1 6.842-5.75 3.73 3.73 0 0 1 6.443-3.024c.238-.854.875-1.54 1.71-1.839a2.6 2.6 0 0 1 2.629.657 3.36 3.36 0 0 1 3.419 0 3.5 3.5 0 0 1 1.052 4.467c.549-.759 1.335-1.314 2.234-1.577.73-.209 1.504-.209 2.234 0 1.291.455 2.307 1.471 2.762 2.762.825-.508 1.815-.677 2.762-.472 1.605.449 2.85 2.357 2.834 4.776z"/><path d="M96.179 207.053H56.831a.59.59 0 0 1-.589-.589v-1.448a.59.59 0 0 1 .589-.589h39.348a.59.59 0 0 1 .589.589v1.448c.001.156-.061.307-.172.417s-.261.172-.417.172z"/></g><g fill="#825c5c"><path d="M84.548 136.048c-.013.224-.052.446-.117.661l-12.116 41.542c-.1.361-.28.695-.528.976a1.59 1.59 0 0 1-.117.117c-.269.262-.625.416-1 .435-1.206.044-2.149-1.427-1.911-2.988l7.084-46.622c.266-1.762 1.839-2.516 2.931-1.411l3.3 3.334 1.016 1.028.71.718a2.91 2.91 0 0 1 .748 2.21z"/><path d="M84.546 136.048a2.85 2.85 0 0 1-.117.661l-12.116 41.542c-.1.361-.28.695-.528.976l10.222-45.647c.108-.488.131-.992.069-1.488l-.048-.323 1.068 1.351.778.984a3.7 3.7 0 0 1 .672 1.944z"/></g><path d="M166.267 34.451c-1.863-.726-2.685-2.556-3.488-4.351-.649-1.456-2.04-4.56-1.218-6.866a3.48 3.48 0 0 1 .689-1.165c1.673-1.867 4.85-1.367 5.371-1.278l5.907 6.737c.794.935 1.238 1.48 1.242 2.266.012 1.746-2.169 3.81-4.661 4.621a5.77 5.77 0 0 1-3.842.036z" class="B"/><path d="M166.267 34.451c-1.863-.726-2.685-2.556-3.488-4.35-.649-1.456-2.04-4.56-1.218-6.867 1.822-1.238 3.657-1.577 3.508 2.3-.189 4.871 2.891 7.512 5.036 8.882-1.238.45-2.592.463-3.838.035z" class="C"/><path d="M81.732 154.527l-.431 4.1-.109 1.052-.238 2.25-.5 4.738-.122 1.23-.367 3.476-.4 3.8-.125 1.185-.431 4.109h0l-.157 1.472a2.85 2.85 0 0 1-.258.609 2.67 2.67 0 0 1-.23.343h0a3.84 3.84 0 0 1-.27.294 1.47 1.47 0 0 1-.145.125l-.125.1c-.044.035-.065.044-.1.065l-.133.081-.02.012c-.044.024-.093.044-.137.065a1.34 1.34 0 0 1-.23.089.59.59 0 0 1-.113.032 1.2 1.2 0 0 1-.234.044c-.059.008-.118.012-.177.012-.096.001-.192-.008-.286-.028l-.145-.04a1.52 1.52 0 0 1-.286-.129c-.217-.134-.407-.308-.56-.512a1.56 1.56 0 0 1-.1-.141c-.118-.187-.212-.389-.278-.6a2.74 2.74 0 0 1-.117-1.012c0-.058.004-.096.012-.133a1.23 1.23 0 0 1 .024-.169.12.12 0 0 1 .008-.04c.011-.065.025-.13.044-.194.007-.034.017-.067.028-.1l.085-.238q-.448-3.133-.891-6.258h0l-.4-2.847-.415-2.9q-.145-1.07-.3-2.145l-.754-5.318-.161-1.157-.1-.7-.226-1.564z" class="D"/><path d="M74.265 174.513l.847 5.963a2.41 2.41 0 0 0 1.286 3.306 2.36 2.36 0 0 0 2.455-1.843l.589-5.58.125-1.185-5.346-.952c.02.094.028.194.044.291z" class="F"/><path d="M61.02 189.408h22.107l-4.125-8.955h-.238c-.169 1.726-1.052 2.992-2.093 3.161a1.54 1.54 0 0 1-1.294-.318c-.645-.657-.109-1.911-.778-2.443a1.05 1.05 0 0 0-.673-.193l-2.951 1.472-.564.254-1.193.512-.347.141-1.27.524-.609.27-.407.181-6.322 3.351c-.368.821.757 2.043.757 2.043z" class="B"/><path d="M83.13 187.779q-11.618.206-23.24.407a1.07 1.07 0 0 0-.387.814 1.08 1.08 0 0 0 .387.815h23.24a1.59 1.59 0 0 0 .387-1.222 1.5 1.5 0 0 0-.387-.814z" class="G"/><path d="M70.415 182.392c0 .008 0 .012.008.02l.814 1.439a15.33 15.33 0 0 0 .976 1.347.41.41 0 0 0 .574.058.41.41 0 0 0 .059-.574.04.04 0 0 1-.016-.02 13.21 13.21 0 0 1-1-1.214c-.314-.419-.56-.871-.847-1.31l-.568.254zm-1.541.653l.363 1.121a14.93 14.93 0 0 0 .681 1.516.41.41 0 0 0 .716.047.41.41 0 0 0 .01-.418l-.036-.056c-.314-.425-.603-.868-.867-1.326-.194-.331-.359-.677-.52-1.02-.117.039-.23.088-.347.136z" class="F"/><path d="M74.221 174.215l.044.3 5.176 1.84.125-1.185z" class="E"/><path d="M66.995 183.84l.145.355a15.43 15.43 0 0 0 .742 1.484.41.41 0 0 0 .556.153.4.4 0 0 0 .149-.556c-.004-.009-.009-.017-.016-.024-.293-.436-.562-.889-.806-1.355-.056-.1-.109-.214-.161-.327l-.609.27z" class="F"/><path d="M81.305 158.628l-.109 1.052-.238 2.25-.5 4.738-.129 1.226-6.931.573-.3-2.145-.754-5.318-.161-1.157-.1-.7z" fill="#f5938c"/><path d="M94.712 176.667l-1.843 3-.319.516-1.734 2.831-2.5 4.056-.645 1.052-1.222 1.984-2.609 4.25-.573.931-.052.085-1.665 2.709-.71 1.149-.568.923c-.069.077-.141.145-.214.214-.009.005-.017.012-.024.02a2.06 2.06 0 0 1-.214.169.04.04 0 0 1-.02.016c-.066.048-.135.093-.206.133-.022.014-.045.027-.069.036-.059.037-.121.068-.185.093-.079.039-.162.073-.246.1l-.149.044h-.024c-.155.04-.313.067-.472.081a2 2 0 0 1-.718-.076c-.169-.048-.328-.128-.468-.234-.103-.08-.195-.174-.274-.278a1.53 1.53 0 0 1-.109-.173c-.036-.061-.067-.124-.093-.19l-.077-.2a2.41 2.41 0 0 1-.069-1.069l.024-.129c.017-.089.04-.176.069-.262.012-.044.028-.089.044-.133a2.05 2.05 0 0 1 .085-.21c.033-.069.081-.157.129-.238a1.78 1.78 0 0 1 .121-.185l.048-.065.141-.177c.008 0 .012-.012.016-.016.064-.073.137-.141.21-.21q.925-2.945 1.851-5.887c.012-.049.028-.1.044-.145q.387-1.222.774-2.451l.972-3.089.653-2.064.919-2.9 1.052-3.339.214-.669.472-1.508z" class="D"/><path d="M79.346 191.472q-.907 2.873-1.81 5.742a2.41 2.41 0 0 0-.266 3.536 2.36 2.36 0 0 0 3.008-.6l2.939-4.782.625-1.016-4.411-3.165-.085.285z" class="F"/><path d="M63.44 206.746h22.107l-4.125-8.955h-.238c-.169 1.726-1.052 2.992-2.093 3.161a1.54 1.54 0 0 1-1.294-.319c-.645-.657-.109-1.911-.778-2.443a1.05 1.05 0 0 0-.673-.194l-2.951 1.472-.564.254-1.193.512-.347.141-1.27.524-.609.27-.407.181-6.322 3.351c-.368.823.757 2.045.757 2.045z" class="B"/><path d="M85.55 205.117q-11.618.206-23.24.407a1.07 1.07 0 0 0-.387.815 1.08 1.08 0 0 0 .387.815h23.24a1.59 1.59 0 0 0 .387-1.222 1.5 1.5 0 0 0-.387-.815z" class="G"/><path d="M72.835 199.73c0 .008 0 .012.008.02l.814 1.439a15.33 15.33 0 0 0 .976 1.347.41.41 0 0 0 .574.058.41.41 0 0 0 .059-.574c-.007-.005-.013-.012-.016-.02a13.16 13.16 0 0 1-1-1.214c-.314-.419-.56-.871-.847-1.31l-.568.254zm-1.541.653l.363 1.121a14.91 14.91 0 0 0 .681 1.516.41.41 0 0 0 .548.178.41.41 0 0 0 .178-.548l-.036-.057c-.314-.425-.603-.868-.867-1.326-.194-.331-.359-.677-.52-1.02l-.347.137z" class="F"/><path d="M79.435 191.182l-.089.286 3.875 3.9.625-1.016z" class="E"/><path d="M69.415 201.177l.145.355c.221.508.468 1.003.742 1.484a.41.41 0 0 0 .556.153c.094-.054.162-.142.19-.247s.013-.216-.041-.309c-.004-.009-.009-.017-.016-.024a14.27 14.27 0 0 1-.806-1.355c-.056-.1-.109-.214-.161-.327l-.609.27z" class="F"/><path d="M92.547 180.179l-1.734 2.83-2.5 4.056-.645 1.052-6.5-2.476.653-2.064.919-2.9 1.052-3.339.214-.669 7.588 3.117z" fill="#f5938c"/><g fill="#705247"><path d="M177.368 131.83a3.6 3.6 0 0 0 0 .722l4.633 46.017a2.76 2.76 0 0 0 .351 1.121l.093.145a1.5 1.5 0 0 0 .911.625c1.185.238 2.375-1.173 2.415-2.867l1.23-50.61c.044-1.911-1.371-2.964-2.645-1.964l-3.858 3.021-1.185.931-.827.649c-.648.561-1.05 1.355-1.118 2.21z"/><path d="M177.368 131.831a3.6 3.6 0 0 0 0 .722l4.633 46.017a2.76 2.76 0 0 0 .351 1.121l-2.04-50.073a5.16 5.16 0 0 1 .194-1.589l.1-.335-1.294 1.266-.943.923c-.498.551-.843 1.222-1.001 1.948zm-43.949.806a3.63 3.63 0 0 0 0 .722l4.633 46.017a2.76 2.76 0 0 0 .351 1.121l.093.145a1.5 1.5 0 0 0 .911.625c1.185.238 2.375-1.173 2.415-2.867l1.23-50.61c.044-1.911-1.371-2.964-2.645-1.964l-3.858 3.021-1.185.931-.827.649c-.648.561-1.05 1.355-1.118 2.21z"/><path d="M133.419 132.638a3.59 3.59 0 0 0 0 .722l4.633 46.017a2.76 2.76 0 0 0 .351 1.121l-2.04-50.073c-.018-.537.047-1.073.194-1.589l.1-.335-1.294 1.266-.943.923a4.26 4.26 0 0 0-1.001 1.948z"/></g><path d="M205.16 80.077c-2.73 4.988-13.8 30.01-20.015 37.477s-52.384 31.627-65.335 30.042c-10.3-1.262-33.679-7.983-45.412-18.463l-.315-.286a26.81 26.81 0 0 1-6.008-8.516c-6.3-12.8-1.951-25.434-1.012-27.962a11.64 11.64 0 0 1 1.96-3.907c.909-1.051 2.059-1.865 3.351-2.375 4.572-1.867 11.185-.746 18.2-.117 7.338.657 37.01 3.6 36.28-4.818-.617-7.117-2.423-14.547-8.552-25.422s-10.975-21.438.161-23.962 9.443 4.8 30.849 7.371 37.546 2.226 41.824.972 14.422-1.323 15.132 2.665 1.626 32.301-1.108 37.301z" class="E"/><path d="M69.988 121.215s29.276 23.1 60.581 16.6l-8.633-15.055-48.271-7.338z" fill="#c9c0c7"/><path d="M136.661 78.624a109.18 109.18 0 0 1 13.58-.1q6.707.321 13.326 1l13.2 1.54c4.411.573 8.749 1.218 13.334 1.637-1.068.449-2.16.84-3.27 1.173-1.113.294-2.242.544-3.383.778q-1.7.266-3.411.48c-1.141.137-2.278.2-3.419.274a87.43 87.43 0 0 1-13.6-.387 108.38 108.38 0 0 1-13.362-2.21c-4.454-.982-8.805-2.384-12.995-4.185z" fill="#dbd2d8"/><path d="M134.669 47.587q-3.224 13.306-6.451 26.611l-17.741 12.096 8.87 3.629q9.272-4.034 18.547-8.064 2.824-16.529 5.645-33.062z" class="E"/><path d="M145.958 54.844L138.7 76.617q-5.431-1.772-10.862-3.548l-8.895-2.9q8.745-13.348 17.487-26.7l4.514-3.85q1.639 4.971 3.274 9.935.869 2.643 1.74 5.29z" class="H"/><path d="M145.959 54.845l-7.258 21.773q-5.431-1.772-10.862-3.548l13.685-25.483 2.693 1.968q.871 2.643 1.742 5.29z" class="J"/><path d="M75.665 122.489c-.472-2.246-.964-6.375 1.306-9.717 2.972-4.375 8.987-4.98 12.088-5.141 20.128-1.06 37.889.024 42.969-.379 35.074-2.774 44.687 1.081 45.666 5.048 1.621 6.56-23.644 21.257-48.469 24a81.34 81.34 0 0 1-23.3-.6c-10.947-2.087-21.287-6.601-30.26-13.211z" fill="#dbd2d8"/><path d="M74.084 128.839a26.81 26.81 0 0 1-6.008-8.516c-6.3-12.8-1.951-25.434-1.012-27.962a11.64 11.64 0 0 1 1.96-3.907c.909-1.051 2.059-1.865 3.351-2.375.161.306.319.637.472 1 3.309 7.98 4.281 31.225 1.237 41.76z" class="K"/><path d="M92.869 179.663l-.318.516-1.734 2.83-2.5 4.056-.645 1.052-1.222 1.984-6.25-1.371.972-3.088.653-2.064.919-2.9 8.854-.891zM81.196 159.68l-.238 2.25-.5 4.737-.129 1.226-.367 3.476h-6.146l-.415-2.9-.3-2.145-.754-5.318z" class="D"/><path d="M114.645 36.443s-1.488 3.552 2.246 11.314 9.447 26.369 10.9 24.107-5.746-48.751-13.146-35.421z" class="K"/><path d="M141.233 109.18c-.379 3.124-1.512 6.11-3.3 8.7l-4.407.726q-16.692 2.752-33.385 5.5l-.064.173q-8.413 22.142-16.83 44.283-6.671-.218-13.338-.443 4.784-30.966 9.56-61.936a6.2 6.2 0 0 1 4.947-5.141l45.961-8.951c3.708 1.253 6.856 3.772 8.891 7.116.79 1.363 1.363 2.84 1.7 4.379a16.85 16.85 0 0 1 .265 5.594z" fill="#ca4d26"/><path d="M178.747 115.421l-1.25 7.35-42.1 8.576-5.915 1.206q-19.783 28.075-39.566 56.154-2.468-.683-4.935-1.363l-6.76-1.863q13.106-32.8 26.208-65.613a7.35 7.35 0 0 1 3.689-4l28.768-13.777 14.378-6.887 25.664 5.746z" class="L"/><path d="M181.498 49.51L176.223 73q-.012 7.457-.024 14.91-14.013-.375-28.022-.754l-12.919-1.693.419-15.043.754-26.95 2.714-2.314c1.184-1.007 2.58-1.734 4.084-2.125l8.048-2.238.327-.089h10.886l2.484.266 3.117.335q2.843.3 5.689.609 2.951 4.433 5.9 8.87l1.818 2.726z" class="H"/><path d="M181.498 49.51l-5.274 23.486q-.012 7.457-.024 14.91l-37.094-18.95q-.405-5.643-.806-11.29l32.256 7.258 3.292-18.144h5.834l1.816 2.73z" class="J"/><path d="M178.747 115.422l-30.329-7.959-11.528-5.371q-5.34-4.675-10.685-9.346l10.459-10.8 37.764-.875 2.5 19.878z" class="L"/><path d="M160.071 29.039c-5.842-9.665-10.5-16.483-11.584-16.914-.265-.103-.537-.187-.814-.25a5.56 5.56 0 0 0-2.282 0c.36-1.984 1.183-3.855 2.4-5.463a6.92 6.92 0 0 1 .355-.427c.651-.74 1.416-1.372 2.266-1.871.814-.477 1.699-.82 2.621-1.016 3.985-.416 7.972.771 11.08 3.3 3.855 3.282 7.121 9.895 4.419 15.793-2.272 4.974-7.478 6.566-8.461 6.848z" class="B"/><g class="D"><path d="M164.119 38.365a10 10 0 0 1-11.419 1.826V22.834l9.592-1.371q.611 5.673 1.23 11.35l.597 5.552z"/><path d="M163.522 32.817L152.7 35.611V22.834l9.592-1.371q.611 5.673 1.23 11.354z"/></g><path d="M142.093 20.218l6.665-1.907.111.387-6.665 1.907z" class="G"/><path d="M161.836 22.378c-.039.738-.124 1.473-.254 2.2l-.2 1c-.293 1.273-.754 2.501-1.371 3.653-1.855 3.1-6.83 5.326-10.048 3.653-1.189-.617-1.758-1.56-2.742-3.2a18.17 18.17 0 0 1-2.161-7.383l-.056-.879c-.036-.693-.061-1.443-.069-2.246a62.01 62.01 0 0 1 .456-8.221 10.81 10.81 0 0 1 6.85-1.371c4.806.71 7.25 4.649 7.766 5.479a12.7 12.7 0 0 1 1.829 7.315z" class="D"/><path d="M154.438 19.145a.74.74 0 0 1-.3.999.74.74 0 1 1-.138-1.357.74.74 0 0 1 .438.357zm-7.31 0a.74.74 0 0 1-.3.999.74.74 0 1 1-.138-1.357.74.74 0 0 1 .438.357z" class="I"/><path d="M149.704 25.576c-.746-.077-1.7-.327-2.012-1.052-.246-.577.036-1.153.363-1.818l.1-.2c.56-1.162 1.013-2.373 1.355-3.617l.44.121a22.33 22.33 0 0 1-1.383 3.693l-.1.2c-.29.589-.516 1.052-.355 1.435.234.548 1.129.722 1.641.774z" class="E"/><path d="M155.708 16.782h-.036l-4.185-.46c-.126-.009-.237-.086-.289-.201a.34.34 0 0 1 .04-.349c.077-.1.202-.151.326-.131l4.185.46a.34.34 0 0 1 .3.379.35.35 0 0 1-.341.302zm-11.507-.584c-.183-.005-.33-.152-.334-.335s.136-.337.318-.35l4.205-.2c.189-.006.348.139.359.327.004.091-.028.18-.089.247s-.147.108-.238.112l-4.205.2z" fill="#74584d"/><path d="M149.845 28.088a2.16 2.16 0 0 1-1.153-.266l.25-.383c.012.008 1.3.79 3.859-.911l.254.379a5.9 5.9 0 0 1-3.21 1.181z" class="L"/><path d="M152.486 22.307h3.77c.171-.002.308-.139.31-.31v-.258c-.002-.171-.139-.308-.31-.31h-3.77c-.171.002-.308.139-.31.31v.258a.31.31 0 0 0 .31.31zm-5.06-.57v.254c.001.082-.032.162-.09.22s-.137.091-.22.09h-2.06l-.056-.879h2.117c.171.004.308.144.309.315z" class="E"/><path d="M178.795 61.348c-15.265-4.27-34.949-3.516-42.707-3l-.109-1.609c7.838-.528 27.74-1.286 43.247 3.052z" class="D"/><g class="B"><path d="M149.729 9.484c5.238 7.092 9.463 8.124 11.193 8.33.488.056 2.875.339 3.2-.456.242-.6-.863-1.331-2.012-2.778-2.266-2.855-1.693-4.673-3.012-5.9-1.16-1.08-3.636-1.571-9.369.804z"/><path d="M150.873 8.218l-.593 1.044-.315.528-1.476 2.331c-1.238 1.826-2.673 3.588-3.56 3.532-1.823-.129-2.738-6.064 1.375-8.806a6.84 6.84 0 0 1 .7-.419 4.47 4.47 0 0 1 1.141-.448 1.89 1.89 0 0 1 2.04.6 3.43 3.43 0 0 1 .688 1.638z"/></g><g class="G"><use xlink:href="#B"/><use xlink:href="#B" x="-8.222"/></g><path d="M150.043 20.923c-.415-.415-.782-.6-1.048-.536-.306.073-.444.456-.444.46l-.383-.129a1.14 1.14 0 0 1 .734-.722c.419-.1.9.117 1.427.645z" class="I"/><path d="M161.578 24.576l-.2 1a14.77 14.77 0 0 1-1.371 3.653c-1.855 3.1-6.83 5.326-10.048 3.653 10.963-1.371 11.419-8.677 11.419-8.677l.2.371z" class="E"/><path d="M156.254 19.302l6.665-1.907.111.387-6.665 1.907z" class="G"/><path d="M159.606 19.81s1.52-2.205 3.226-2.072a2.43 2.43 0 0 1 1.161.439c.902.759 1.35 1.927 1.188 3.094s-.913 2.169-1.988 2.652a2.8 2.8 0 0 1-1.8.2c-1.206-.378-2.065-2.147-1.787-4.313z" class="D"/><path d="M162.893 23.02l-.133-.435c.516-.154.937-.529 1.149-1.024a2.03 2.03 0 0 0-.161-1.786c-.122-.267-.36-.463-.645-.532-.693-.027-1.375.185-1.931.6l-.266-.371a3.44 3.44 0 0 1 2.3-.669 1.42 1.42 0 0 1 .948.766c.386.661.451 1.462.177 2.177-.27.615-.795 1.08-1.438 1.274z" class="E"/><path d="M166.119 38.716a19.34 19.34 0 0 1-16.128 1.613l1.286-3.54.327-.9h12.668l.222.339.48.734.375.573z" class="H"/><g class="D"><path d="M189.504 75.81q-.405 4.639-.806 9.274a5.04 5.04 0 0 1-1.21 2.016c-1.778 1.786-4.943 2.056-8.064.806q-4.512-2.637-9.02-5.282-12.023-7.033-24.042-14.071l2.419-6.854q10 4.288 20 8.572l8.225 3.52-.464-4.25-2.359-21.555 12.5-1.21 2.169 22.3z"/><path d="M189.504 75.81q-.405 4.639-.806 9.274a5.04 5.04 0 0 1-1.21 2.016c-1.778 1.786-4.943 2.056-8.064.806q-4.512-2.637-9.02-5.282c11.354 2.653 11.391.113 11.036-2.379-.347-2.427-9.955-8.354-12.652-9.971l8.217 3.52-.464-4.25 12.31-.46z"/></g><path d="M173.872 37.853l5.169 2.27a18.66 18.66 0 0 1 11.007 14.7l3.085 23.813-19.354-6.455z" class="H"/><path d="M168.09 37.301l-2.742.238-12.648 1.1 9.507-1.939 2.286-.468.48.734 3.117.335z" class="J"/><path d="M137.362 61.445l.431-.165-4.846 4.846-.694 4.846 1.387-.694 1.383-3.464 4.653-2.661.194-.109-3.464 3.463-.694 3.464h.694l1.387-2.076 3.846-3.2.04-.04.27-.222-2.77 3.455-.988 2.75.79.02h.194l2.076-2.77 2.77-.694 4.157 2.77.96-.484 1.641-.818.04-.016 2.903-1.447q-.689-2.77-1.383-5.54a.56.56 0 0 1-.1-.04q-6.87-2.4-13.745-4.81l-9.729 5.475h-.012l-1.343.754 1.383.693 8.569-3.286z" class="D"/><g class="E"><path d="M138.987 71.658h.194l2.076-2.77 2.77-.693 4.157 2.77 2.649-1.322-3.064-.2-3.322-2.218-3.879 1.661zm-3.064-.686h.488l1.387-2.076 3.847-3.2.04-.04-4.439 2.685zm-2.282-.693l1.383-3.464 4.653-2.661.331-.25-4.988 2.218zm-6.234-6.234l1.383.694q4.288-1.645 8.572-3.3l.431-.306-9.036 2.149h-.012l-1.338.763z"/><path d="M148.877 70.005l.266.488 1.641-.818c.012 0 .016.012.028.016l.012-.032.827-2.419-1.951 1.951z"/></g><path d="M81.378 54.352l12.13 27.905c.047.124.162.209.294.218h43.683c.262 0 .423-.359.286-.637l-13.568-27.905c-.049-.116-.16-.194-.286-.2H81.672c-.25.002-.415.341-.294.619z" class="I"/><path d="M44.689 64.795l7.5.448q-2.159-2.77-4.322-5.536l-.96 1.54c-3.427-2.397-5.119-6.588-4.318-10.692s3.946-7.351 8.023-8.283l.339-2.468c-5.228.833-9.422 4.766-10.589 9.931s.928 10.518 5.289 13.519q-.482.775-.962 1.541zm21.934-25.522l-7.5-.448q2.159 2.77 4.322 5.536l.96-1.54c3.427 2.397 5.119 6.588 4.318 10.692s-3.946 7.351-8.023 8.283l-.339 2.468c5.228-.833 9.422-4.766 10.589-9.931s-.928-10.518-5.289-13.519l.962-1.541z" class="C"/><g fill="#22201f"><path d="M158.801 82.479l-1.052-2.943h-4.338l-.6 3.1z"/><path d="M153.491 82.503l-1.052-2.943h-4.338l-.6 3.1z"/><path d="M147.938 82.503l-1.052-2.943h-4.339l-.6 3.1z"/><path d="M142.547 82.503l-1.052-2.943h-4.338l-.6 3.1z"/></g><path d="M160.873 86.079H93.551v-4.234h67.322z" class="I"/><path d="M96.438 89.104l3.371.266 4.274 2.165 15.152-1.806 1.371-3.052.21-.476-8.8-.956-2.589-5.479-.1-.218-1.31.157 2.012 5.762-.02-.028-4.867-7.395-1.318.157-.125-.149-1.423-1.669-.556.262-1.347.633 3.842 9.8-.323-.468-.008-.012-5.33-7.766-.548.363-.693.456 3.456 7.165.3.637-3.471.411z" class="D"/><path d="M109.429 79.766l2.077 5.762 7 1.444 2.1-.294.21-.476-8.8-.956zm-5.129-1.621l6.149 8.08-.419-.758-.02-.028-4.867-7.395zm-2.58-1.5l4.238 10.112-2.258-8.705-1.423-1.669zm-3.714 2.548l6.334 8.326-.448-.911-.008-.012-5.33-7.766zm-1.568 9.911l3.371.266 4.274 2.165 1.29-.153-2.379-.858-2.226-3.714.3.637-3.471.411z" class="E"/><path d="M135.879 130.243l-.484 1.1-5.915 1.206q-19.783 28.075-39.566 56.154-2.468-.683-4.935-1.363l44.9-60.145z" fill="#c43d49" opacity=".53"/><path d="M85.253 187.598l-.351-.2 32.885-57.944c.662-1.165 1.617-2.137 2.77-2.818l29.736-17.535.206.347-29.736 17.535c-1.093.645-1.998 1.566-2.625 2.669z" class="D"/><path d="M200.262 103.664c-2.27 5.157-3.746 10.362-5.754 15.33-3.411 8.451-8.358 16.225-21.353 21.934-20.644 9.064-46.32 13.83-47.453 2.274 0 0 .032-1.73.383-4.528l.141-1.06c.879-6.189 3.222-16.451 9.423-25.18 6.459-9.092 10.842-14.007 16.269-16.519a26.13 26.13 0 0 1 9.084-2.173c9.491-.778 26.232-.113 29.45-2.52.385-.223.593-.66.524-1.1-.718-3.71-1.423-48.074.476-53.085 1.121-2.955 4.262-7.1 8.048-7.923 2.633-.573 5.58.464 8.366 4.633 6.806 10.146-1.472 55.994-7.604 69.917z" class="E"/><g class="K"><path d="M155.615 99.983c-.177 6.794-19.809 46.307-27.41 42.743-.939-.44-1.762-1.572-2.117-4.048.758-6.024 3-16.995 9.568-26.244 6.459-9.092 10.842-14.007 16.269-16.519.829-.254 1.726-.154 2.48.274 1.287.879 1.23 2.967 1.21 3.794z"/><path d="M194.512 118.993c-3.411 8.451-8.358 16.225-21.354 21.934-20.644 9.064-46.32 13.83-47.453 2.274 0 0 .032-1.73.383-4.528l.141-1.06c11.036.685 30.889.718 46.324-5.875 12.008-5.129 18.504-9.645 21.959-12.745zm5.791-83.131s-3.375 51.432-4.923 53.876c-.9 1.415-3 1.8-4.915 1.48a1.08 1.08 0 0 0 .524-1.1c-.718-3.709-1.423-48.074.476-53.085 1.121-2.955 4.262-7.1 8.048-7.923.709 2.176.977 4.471.79 6.752z"/></g><path d="M194.05 161.785l1.218-73.352.524.009-1.218 73.352z" class="B"/><ellipse cx="9.205" cy="18.874" rx="9.205" ry="18.874" transform="matrix(.996 -.088 .088 .996 182.313 53.091)" class="C"/><g class="B"><path d="M193.733 68.053l.519-.027 1.508 28.575-.519.027z"/><path d="M189.837 80.332l.36-.375 5.321 5.1-.36.375zm-1.203-12.831l.36-.375 5.321 5.1-.36.375zm6.089 11.798l6.075-6.267.373.362-6.075 6.267z"/></g><ellipse cx="18.874" cy="9.205" rx="18.874" ry="9.205" transform="matrix(.86 -.511 .511 .86 191.436 94.998)" class="C"/><g class="B"><path d="M195.408 104.035l-.25-.46 5.5-3.016 14.717-8.064.254.456z"/><path d="M200.33 101.31l2.28-7.008.494.161-2.28 7.008zm11.043-6.644l2.28-7.008.494.161-2.28 7.008zm-5.836 4.084l.164-.494 8.284 2.75-.164.494z"/></g><ellipse cx="9.205" cy="18.874" rx="9.205" ry="18.874" transform="matrix(.400493 -.9163 .9163 .400493 157.506 96.223)" class="C"/><g class="B"><path d="M195.351 103.438l-.161-.069-19.959-7.907.194-.484 20.132 7.979z"/><path d="M187.831 95.392l.471-.221 3.134 6.671-.471.221zm-11.782-5.224l.471-.221 3.134 6.671-.471.221zm1.811 13.09l7.88-3.755.224.469-7.88 3.755z"/></g><ellipse cx="22.563" cy="11.003" rx="22.563" ry="11.003" transform="matrix(.86 -.511 .511 .86 190.257 118.057)" class="C"/><g class="B"><path d="M194.621 128.121l24.171-13.239.502.916-24.171 13.239z"/><path d="M200.715 125.53l2.73-8.376.993.324-2.73 8.376zm13.19-7.954l2.73-8.376.993.324-2.73 8.376zm-6.859 5.165l.329-.991 9.903 3.288-.329.991z"/></g><ellipse cx="11.003" cy="22.563" rx="11.003" ry="22.563" transform="matrix(.400493 -.9163 .9163 .400493 149.701 119.523)" class="C"/><g class="B"><path d="M194.867 128.339l-5.4-2.137-18.656-7.391.383-.968 24.063 9.524z"/><path d="M185.757 118.625l.945-.444 3.746 7.974-.945.444zm-14.08-6.244l.945-.444 3.746 7.974-.945.444zm2.278 15.376l9.422-4.486.449.943-9.422 4.486z"/></g><path d="M183.243 136.851h21.898v43.332h-21.898z" class="C"/><path d="M185.823 140.504h17.229v2.089h-17.229z" class="B"/><defs ><path id="B" d="M153.386 24.378a3.6 3.6 0 1 1 0-7.2 3.6 3.6 0 0 1 3.6 3.6 3.61 3.61 0 0 1-3.6 3.6zm0-6.395c-1.13 0-2.149.681-2.581 1.725s-.193 2.246.606 3.045 2.001 1.038 3.045.606 1.725-1.451 1.725-2.581a2.8 2.8 0 0 0-2.794-2.794z"/></defs></svg>
