<svg xmlns="http://www.w3.org/2000/svg" xmlns:xlink="http://www.w3.org/1999/xlink" width="252" height="210"><style><![CDATA[.B{fill:#382a28}.C{fill:#da5724}.D{fill:#705247}.E{fill:#f2e6d6}.F{fill:#553e37}.G{fill:#b8432a}]]></style><path d="M46.884 118.204l2.39-.281c-.111-.718-.278-1.427-.5-2.119-.4-1.262-.977-2.461-1.714-3.562l-2.317 1.523q-1.908-2.074-3.813-4.145l1.222-2.33c-1.497-1.02-3.151-1.79-4.895-2.28l-.629 3-1.329.114a14.15 14.15 0 0 0-4.938-.023l-1.155-3.3a16.48 16.48 0 0 0-5.256 2.18l1.868 2.749c-1.788 1.021-3.33 2.42-4.52 4.1l-2.839-1.235c-.945 1.556-1.646 3.247-2.079 5.015l2.692 1.225a14.07 14.07 0 0 0-.315 3.917 14.67 14.67 0 0 0 .218 1.774l-2.739 1.1c.406 1.995 1.15 3.906 2.2 5.651q1.326-.788 2.655-1.57c1.168 1.743 2.71 3.203 4.513 4.275l-1.175 3.294c1.518.911 3.173 1.572 4.9 1.959l.633-3.559h.037c2.077.41 4.22.351 6.271-.174l1.332 3.462a16.6 16.6 0 0 0 4.319-1.985l-1.493-3.217.335-.321a14.11 14.11 0 0 0 3.157-3.027l1.008-.964 2.551 1.667a17.9 17.9 0 0 0 2.19-6.2l-2.561-.82q-.113-2.955-.224-5.893zm-5.681 1.982a8.5 8.5 0 0 1-13.991 7.958 8.5 8.5 0 0 1 6.244-14.835 8.5 8.5 0 0 1 7.747 6.877z" class="D"/><path d="M24.768 169.166c2.173-3.278 6.157-4.2 8.718-2.652 2.675 1.617 2.7 5.26 2.7 5.437 3.539-1.55 7.011-.787 8.293 1.249.571.987.739 2.156.469 3.264 2.279-2.291 5.82-2.75 8.607-1.115 1.767 1.286 2.85 3.31 2.939 5.494H3s.931-10.221 8.494-8.1c0 .013 5.574-8.224 13.274-3.577zm177.148-5.189s-5.4-6.84-1.439-13.5c0 0-3.6-7.737 3.6-12.779s6.659 9.177 6.659 9.177 10.258 2.159 8.457 11.517l-1.8 9.357s26.994-34.734 28.8-28.076-1.8 9.357-1.8 9.357 8.279 5.039 0 8.818l-8.279 3.78s5.939 1.979 4.319 6.12-11.159 6.12-11.159 6.12c5.648 1.282 14.955 3.539 15.3 4.68 0 .017.124.432.362 1.259h-72.535s1.259-13.857 11.517-10.978c0 .006 7.559-11.152 17.998-4.852z" fill="#e5e5e4"/><g fill="#fff9ed"><path d="M211.739 168.461c-2.139-4.818-6.98-23.057-7.027-23.241l.348-.09c.05.184 4.881 18.4 7.011 23.188z"/><path d="M201.752 154.155l.145-.327 6.286 2.79-.145.327zm8.525 10.169l3.273-7.704.329.14-3.273 7.704zm7.354 10.103l-.3-.2c3.565-5.35 22.327-25.022 22.515-25.22l.261.248c-.189.196-18.924 19.841-22.476 25.172z"/><path d="M235.379 153.823l8.186-.715.031.361-8.186.715zm-8.093 8.695l1.255-7.835.357.057-1.255 7.835zm-5.684 6.419l13.824-3.427.087.351-13.824 3.427z"/></g><path d="M173.492 181.386H53.804c-5.889 0-10.683-5.126-10.683-11.43V69.677c0-6.3 4.791-11.43 10.683-11.43h119.688c5.889 0 10.683 5.126 10.683 11.43v100.28c0 6.3-4.794 11.429-10.683 11.429zM53.804 59.027c-5.464 0-9.906 4.781-9.906 10.653v100.277c0 5.876 4.446 10.653 9.906 10.653h119.688c5.464 0 9.906-4.781 9.906-10.653V69.677c0-5.876-4.446-10.653-9.906-10.653z" fill="#372a28"/><path d="M183.786 69.676v2.427H43.509v-2.427c0-6.1 4.61-11.041 10.295-11.041h119.688c5.684 0 10.294 4.945 10.294 11.041z" class="C"/><g fill="#fff"><use xlink:href="#B"/><use xlink:href="#B" x="11.925"/><use xlink:href="#B" x="23.854"/></g><g fill="#e5e5e4"><use xlink:href="#C"/><use xlink:href="#C" y="-40.596"/><path d="M50.389 90.38h35.578v19.431H50.389zm44.635 0h35.578v19.431H95.024zm44.634 0h35.578v19.431h-35.578zm-89.269 47.909h35.578v30.399H50.389zm44.635 0h35.578v30.399H95.024zm44.634 0h35.578v30.399h-35.578z"/></g><path d="M134.188 122.802v.04c-.027 2.066-1.714 3.723-3.78 3.713H57.896a4.32 4.32 0 0 1-4.319-4.319v-.6a4.32 4.32 0 0 1 4.319-4.319h72.238a3.75 3.75 0 0 1 3.555 2.5c.331.96.5 1.969.499 2.985z" class="C"/><g fill="#1b2e4e"><path d="M103.638 129.705h.452v3.174h1.553v.382h-2.005zm2.29 1.766c0-1.138.626-1.831 1.52-1.831s1.52.693 1.52 1.831-.626 1.858-1.52 1.858-1.52-.718-1.52-1.858zm2.571 0c0-.887-.419-1.433-1.051-1.433s-1.055.546-1.055 1.433.418 1.46 1.055 1.46 1.051-.575 1.051-1.46zm1.912-1.766h.512l1.2 3.559h-.479l-.619-1.985-.355-1.2h-.023l-.352 1.2-.626 1.985h-.462zm-.573 2.113h1.637v.362h-1.637zm2.766-2.113h.891a1.78 1.78 0 0 1 1.688 1.769 1.78 1.78 0 0 1-1.668 1.787h-.911zm.857 3.187c.83 0 1.245-.522 1.245-1.419s-.415-1.4-1.245-1.4h-.405v2.816zm2.477-3.187h.452v3.559h-.452zm1.426 0h.469l1.291 2.24.385.737h.02l-.057-1.132v-1.845h.428v3.559h-.469l-1.289-2.24-.385-.733h-.02l.057 1.112v1.861h-.429zm3.301 1.781a1.65 1.65 0 0 1 1.634-1.848 1.38 1.38 0 0 1 1.024.439l-.248.295a1 1 0 0 0-.767-.335c-.716 0-1.178.549-1.178 1.436s.422 1.453 1.182 1.453a.96.96 0 0 0 .639-.208v-.924h-.753v-.375h1.167v1.5a1.52 1.52 0 0 1-1.095.412c-.469-.001-.914-.205-1.221-.558a1.63 1.63 0 0 1-.384-1.287z"/><use xlink:href="#D"/><use xlink:href="#D" x="1.349"/><path d="M126.782 132.989c.009-.176.157-.312.332-.306s.314.152.311.328-.147.317-.323.316c-.088 0-.172-.036-.233-.1s-.092-.15-.088-.238z"/></g><g fill="#fff"><path d="M64.546 82.419a2.3 2.3 0 0 1-1.151-4.289 2.3 2.3 0 0 1 3.156 3.124c-.406.725-1.174 1.172-2.005 1.165zm.007-3.646a1.3 1.3 0 0 0-.358.05c-.344.093-.636.321-.81.633a1.34 1.34 0 0 0-.127 1.021c.093.344.321.636.633.81.646.364 1.464.138 1.831-.506h0a1.34 1.34 0 0 0 .127-1.021c-.093-.344-.321-.636-.633-.81a1.34 1.34 0 0 0-.67-.177z"/><path d="M62.134 84.783l-.355-.2c-.211-.12-.315-.325-.231-.452l1.691-2.554c.077-.117.3-.124.5-.01h0c.2.114.3.3.244.432q-.668 1.376-1.336 2.755c-.074.133-.302.146-.513.029z"/><circle cx="48.106" cy="157.338" r="27.098"/></g><path d="M48.106 184.979a27.64 27.64 0 0 1-19.544-47.184 27.64 27.64 0 0 1 47.184 19.544c-.018 15.258-12.382 27.622-27.64 27.64zm0-54.2c-10.741 0-20.424 6.47-24.535 16.393s-1.838 21.346 5.757 28.94 19.017 9.867 28.94 5.757 16.393-13.794 16.393-24.535c-.018-14.659-11.897-26.537-26.556-26.552z" class="B"/><path d="M32.957 142.487c2.715-2.489 5.955-4.335 9.481-5.4a23.64 23.64 0 0 1 5.594-.961 22.29 22.29 0 0 1 5.805.482 21.54 21.54 0 0 1 5.614 2.062 22.43 22.43 0 0 1 4.948 3.592 25.5 25.5 0 0 1 3.884 4.777 28.01 28.01 0 0 1 1.507 2.705c.462.95.864 1.927 1.205 2.926l-7.714 1.962c-.1-.735-.249-1.463-.445-2.179a19.7 19.7 0 0 0-.72-2.176 18.91 18.91 0 0 0-2.179-4.051 16.84 16.84 0 0 0-3.177-3.375 17.13 17.13 0 0 0-4.091-2.441 18.87 18.87 0 0 0-4.751-1.3c-1.684-.229-3.389-.254-5.079-.074a23.62 23.62 0 0 0-9.882 3.451zm36.508 15.889l-21.858-2.7c-.32-.04-.644.022-.927.177l-2.307 1.272a1.53 1.53 0 0 0-.792 1.367c.01.567.331 1.083.836 1.341l2.354 1.2a1.53 1.53 0 0 0 .894.154z" class="C"/><circle cx="47.651" cy="158.29" r="1.413" class="E"/><path d="M193.6 35.836q1.376-.869 2.752-1.734a19.03 19.03 0 0 0-6.01-5.651q-.969 1.6-1.938 3.207-3.535-1.421-7.071-2.839l.134-3.555a22.67 22.67 0 0 0-7.305.067l.978 4.024-1.557.914c-2.166.587-4.212 1.551-6.043 2.849l-3.335-3.358a22.31 22.31 0 0 0-5.146 5.722l3.884 2.27a19.03 19.03 0 0 0-3.127 7.64l-4.188.147a24.18 24.18 0 0 0 .382 7.332q2-.035 4-.074c.58 2.53 1.669 4.915 3.2 7.011q-1.351 1.471-2.7 2.946c1.661 2.199 3.684 4.099 5.983 5.618q1.165-1.733 2.327-3.465a19.04 19.04 0 0 0 8 2.588l.485 4.7a22.51 22.51 0 0 0 7.124-.462l-1.3-4.714.044-.027a19 19 0 0 0 4.523-1.791 18.76 18.76 0 0 0 3.027-2.072l3.646 3.452a22.43 22.43 0 0 0 4.115-4.942l-3.7-3.06.221-.586a19.06 19.06 0 0 0 2.092-5.531l.666-1.764 4.084.549c.237-2.983-.082-5.985-.941-8.852l-3.606.489zm-5.782 5.728a11.5 11.5 0 1 1-13.462-3.884 11.51 11.51 0 0 1 13.463 3.884zm-30.453 22.07l2.39-.281a13.88 13.88 0 0 0-.5-2.119c-.4-1.262-.977-2.461-1.714-3.562l-2.317 1.523q-1.908-2.074-3.813-4.145l1.222-2.33a16.72 16.72 0 0 0-4.895-2.28l-.629 3-1.329.114a14.15 14.15 0 0 0-4.938-.023l-1.155-3.3c-1.865.416-3.644 1.153-5.256 2.179l1.868 2.749c-1.788 1.021-3.33 2.42-4.52 4.1l-2.839-1.235a17.82 17.82 0 0 0-2.079 5.015l2.692 1.225a14.07 14.07 0 0 0-.315 3.917 14.7 14.7 0 0 0 .218 1.774l-2.739 1.1c.406 1.995 1.15 3.906 2.2 5.651q1.326-.788 2.655-1.57c1.168 1.743 2.71 3.203 4.513 4.275l-1.175 3.294a16.61 16.61 0 0 0 4.9 1.958l.633-3.559h.037a14.2 14.2 0 0 0 6.271-.174l1.333 3.462a16.6 16.6 0 0 0 4.319-1.985l-1.493-3.217.335-.321a14.13 14.13 0 0 0 3.157-3.027l1.008-.964 2.551 1.667a17.9 17.9 0 0 0 2.19-6.2l-2.561-.82q-.114-2.953-.225-5.891zm-5.681 1.982a8.5 8.5 0 1 1-7.747-6.877 8.5 8.5 0 0 1 7.747 6.877z" class="D"/><path d="M220.148 97.655q-.11 2.782-.221 5.558l-2.066.479-.616.11-.857.134-2.153.291c-.011.001-.022.001-.033 0l-.613.074h-.007a19.62 19.62 0 0 1-5.882-.023l-.763-.184c-1.021-.277-1.966-.783-2.762-1.48-.134-.117-.261-.241-.385-.372l-.308-.341a12.94 12.94 0 0 1-1.895-3.207c-.355-.828-.66-1.676-.914-2.541l-.094-.328-.187-.716-.137-.6-.6-2.966-.506-2.323-.2-.887-.154-.666-.311-1.366-.419-2.056-.13-.636-.3-1.473-.408-2-.516-2.534.512.077.629.131c.691.159 1.368.371 2.025.636l.134.057.522.231c1.122.587 2.145 1.347 3.033 2.25.291.32.546.672.76 1.048l.318.556.342.656.311.649.268.589.275.636.984 2.588.2.593.526 1.671.181.6.067.234.218.787 1.055 4.513.02.1.6.077.177.023.653.084 4.774.623.71.094q2.078.28 4.143.55z" class="F"/><path d="M203.619 87.923c-.2-.817.76-2.163 1.945-3.442l.275.636c-1.034 1.138-1.741 2.156-1.617 2.655.117.465 1.436.181 2.4-.023l.2-.044.2.593-.275.057c-1.403.304-2.863.612-3.128-.432zm8.377 11.305c-1.54 1.543-3.636 1.6-5.323 1.644-1.125.03-2.1.057-2.427.539-.182.376-.208.809-.074 1.205-.134-.117-.261-.241-.385-.372l-.308-.341a1.57 1.57 0 0 1 .255-.84c.505-.743 1.627-.773 2.923-.81 1.573-.044 3.535-.1 4.9-1.463.86-.86.867-1.132.844-1.2-.064-.2-.874-.345-1.527-.462a9.4 9.4 0 0 1-5.738-2.672c-.914-1.024-1.269-1.8-1.108-2.431.2-.807 1.165-1.152 2.183-1.52a11.22 11.22 0 0 0 1.343-.542l.181.6a13.19 13.19 0 0 1-1.316.522c-.857.311-1.667.6-1.791 1.088-.1.405.224 1.034.971 1.865.934 1.009 2.141 1.724 3.475 2.059l.79.2 1.115.214c1.1.2 1.835.328 2.009.887.146.454-.145.98-.992 1.83zm1.065 2.907c.461.659.855 1.362 1.175 2.1-.011.001-.022.001-.033 0l-.613.074c-.286-.635-.632-1.242-1.034-1.811-.221-.375-.596-.633-1.025-.706-.9-.1-1.985.867-3.036 1.8l-.8.69-.763-.184a20.33 20.33 0 0 0 1.148-.971c1.152-1.024 2.347-2.082 3.515-1.952a2.09 2.09 0 0 1 1.466.96zm4.804 1.561l-.616.11a14.6 14.6 0 0 0-1.584-5.943l-.365-.844.71.094.218.5a15.42 15.42 0 0 1 1.637 6.083z" class="G"/><path d="M200.372 179.819l-.023.964s17.051.11 18.665-.167 3.274-2.169 3.3-3.134-1.255-.589-1.255-.589z"/><g class="E"><path d="M202.515 171.476l.117-4.627 6.619-.5-.1 4.115-.9 3.438z"/><path d="M221.675 177.14a4.08 4.08 0 0 1-2.638 2.508c-.472.147-4.757.194-9.029.2h-.322-4.356l-4.319-.017a43.95 43.95 0 0 1 .753-4.449l.455-2.22.285-1.339c1.773-.082 3.536.297 5.119 1.1-.288-1.292 2.005-2.842 2.005-2.842s.586 2.266 1.219 2.6l.167.08.753.325.693.291.76.311.736.308.763.311 1.369.562a1 1 0 0 0 .107.044l3.726 1.517 1.754.71z"/></g><path d="M210.851 172.684c.3.161 2.752 1.168 5.243 2.19h0c-.221.318-.496.594-.813.817-.981.619-3.214-.08-5.119-1.095-1.453-.773-5.9-1.249-7.938-1.433l.285-1.339a10.32 10.32 0 0 1 5.119 1.095c-.288-1.3 2-2.846 2-2.846s.586 2.273 1.223 2.611z"/><path d="M205.29 180.626l-5.075-.023a49.58 49.58 0 0 1 .88-5.109c.563-.052 1.13.032 1.654.244 1.956.81 3.231 3.458 2.541 4.888z" fill="#1b2e4e"/><path d="M221.678 177.201c-.426 1.221-1.402 2.17-2.635 2.561-.472.151-4.757.194-9.029.2.539-.793 1.738-1.57 4.359-1.691 5.625-.251 5.932.569 4.972-.68-.86-1.118-3.08-1.369-3.15-2.675l3.726 1.557z"/><g fill="#fff"><path d="M211.769 173.085l-.747 1.145a.4.4 0 0 1-.348.184c-.075-.003-.148-.026-.211-.067a.4.4 0 0 1-.117-.559l.67-1.028.753.325z"/><use xlink:href="#E"/><path d="M214.721 174.312l-.616.948a.4.4 0 0 1-.348.184c-.075-.003-.148-.026-.211-.067a.4.4 0 0 1-.117-.559l.532-.82.76.314z"/></g><path d="M216.044 145.975a102.89 102.89 0 0 1-4.831 21.5l-4.108-.184c-.134 0-.268-.01-.405-.017a.69.69 0 0 0-.084 0q-2.39-.11-4.777-.214l-1.5-.067.984-5.049 3.01-15.434 1.8-9.237q-1.979-2.873-3.961-5.748l-8.728-12.675q-2.476-3.6-4.952-7.188 1.481-1.677 2.966-3.355l1.878-2.126q2.17-2.456 4.336-4.908c3.7 6.271 6.83 11.229 8.939 14.5 6.12 9.485 8.567 12.414 9.665 18.119.709 3.653.394 6.516-.232 12.083z" class="D"/><g class="B"><path d="M211.571 135.965c-.214 3.03-3.753 26.6-4.469 31.33-.134 0-.268-.01-.405-.017a.69.69 0 0 0-.084 0l4.473-31.343c.188-2.608-10.717-18.819-16.509-27.028l.4-.278c.685.975 16.838 23.908 16.594 27.336z"/><path d="M202.176 131.532l-8.728-12.674-1.982-10.543-.552-2.926 2.427.8 1.969.65s6.043 16.567 6.866 24.693zm4.527 35.746q-2.431-.11-4.861-.214l-.516-5.116 3.01-15.434 2.367 20.764z"/></g><path d="M195.38 180.009l-.024.964s17.051.11 18.665-.167 3.274-2.169 3.3-3.134-1.255-.589-1.255-.589z"/><g class="E"><path d="M197.513 172.023l.1-3.914 6.615-.4-.087 3.482-.887 2.9z"/><path d="M216.683 177.335a4.08 4.08 0 0 1-2.638 2.508c-.472.147-4.757.194-9.029.2h-.321-4.356l-4.319-.017a43.9 43.9 0 0 1 .753-4.449l.455-2.22.285-1.339c1.773-.082 3.536.297 5.119 1.1-.288-1.292 2.005-2.842 2.005-2.842s.586 2.267 1.219 2.6l.167.08.753.325.693.291.76.311.737.308.763.311 1.369.563a1.04 1.04 0 0 0 .107.044l3.726 1.517 1.752.709z"/></g><path d="M205.86 172.879c.3.161 2.752 1.168 5.243 2.19h0a3.3 3.3 0 0 1-.814.817c-.981.619-3.214-.08-5.119-1.095-1.453-.773-5.9-1.249-7.938-1.433l.285-1.339a10.32 10.32 0 0 1 5.119 1.095c-.288-1.3 2-2.846 2-2.846s.587 2.273 1.224 2.611zm-5.562 7.94l-5.075-.023a49.58 49.58 0 0 1 .88-5.109 3.54 3.54 0 0 1 1.654.244c1.952.807 3.231 3.456 2.541 4.888z"/><path d="M216.686 177.396c-.426 1.221-1.402 2.17-2.635 2.561-.472.151-4.757.194-9.029.2.539-.793 1.738-1.57 4.359-1.691 5.625-.251 5.933.569 4.972-.68-.86-1.118-3.08-1.369-3.15-2.675l3.726 1.557z"/><g fill="#fff"><path d="M206.777 173.281l-.747 1.145a.4.4 0 0 1-.348.184.41.41 0 0 1-.211-.067.4.4 0 0 1-.117-.559l.67-1.028.753.325z"/><use xlink:href="#E" x="-4.992" y="0.19"/><path d="M209.73 174.506l-.616.947a.4.4 0 0 1-.348.184c-.075-.003-.148-.026-.211-.067a.4.4 0 0 1-.117-.559l.532-.82.76.315z"/></g><path d="M201.582 136.554l-1.051-4.784-3.505-16.719-1.2-6.04-.154-.177q-.542-3.053-1.085-6.1l-11.326-1.691a7.61 7.61 0 0 0-2.856 3.78c-.4 1.165-.656 2.819.308 6.127.737 2.497 1.832 4.874 3.251 7.057q2.456 9.034 4.908 18.069c1.312 4.828 2.554 9.92 4.078 16.669 1.553 6.88 2.708 12.739 3.529 17.155a7.93 7.93 0 0 0 8.939-1.446c-1.182-17.049-2.628-26.41-3.836-31.9z" class="D"/><g class="B"><path d="M185.895 106.899l.47-.108 14.689 63.786-.47.108z"/><path d="M200.815 106.513c-14.985 7.164-21.253-.643-21.253-.643v-2.658l2.939-.352 15.179-1.821 1.359 2.374.509.887z"/><path d="M199.548 104.297c-1.162 1-3.743 2.538-8.631 2.538a29.99 29.99 0 0 1-11.356-2.461v-1.162l2.939-.352 16.539.552z"/></g><path d="M223.318 103.471l-4.135-.5a4.32 4.32 0 0 1-.3-3.023c.539-1.326 5.129 1.091 5.129 1.091z" class="C"/><path d="M203.255 99.134a30.63 30.63 0 0 1-2.852-6.214c-.121-4.212.117-9.143.254-11.457a15.5 15.5 0 0 1 .717.251c1.439 3.78 4.624 13.329 1.881 17.42z" class="B"/><path d="M201.989 95.208l-.01.435v.154l-.007.161c-.034.925-.163 1.844-.385 2.742a12.93 12.93 0 0 1-.522 1.617 13.49 13.49 0 0 1-1.369 2.6l-.562.783c-1.147.572-2.341 1.042-3.569 1.406-1.941.577-3.954.875-5.979.887l-1.838-.077-.455-.04c-1.366-.146-2.713-.427-4.024-.837l-.814-.271a21.6 21.6 0 0 1-3.371-1.547 15.61 15.61 0 0 1-1.229-3.566c-.106-.493-.186-.992-.241-1.493q-.025-.246-.04-.462a19.98 19.98 0 0 1 .154-3.843c.128-1.134.325-2.258.589-3.368l.057-.244.814-3.428c.004-.013.006-.026.007-.04h0l.666-2.852.147-.643 1.306-5.755.144-.653.094-.418.01-.05 2.648-.5.733-.094c1.011-.11 2.026-.165 3.043-.164l1.239.033a26.79 26.79 0 0 1 5.537.86l2.437.763.64.244 2.173.964 1.051.549.171 4.031.034.643.037.639.281 3.984.04.526.094 1.165c0 .033.007.067.007.1l.2 2.822.057 1.46.005.777z" class="F"/><path d="M194.777 72.374l-.311 2.645c-2.31-.921-2.33-3.666-2.33-3.666z" fill="#cd7d6c"/><path d="M199.013 103.289c-2.936 1.784-3.827 1.205-4.771.589a3.42 3.42 0 0 0-2.113-.72c-.673.023-.984.107-1.155.311a.68.68 0 0 0-.107.576c.043.321.117.86-2.3 1.647a7.52 7.52 0 0 1-.824.218c-1.568.262-3.178.111-4.67-.439-1.463-.428-2.729-.8-3.77.355l.462.412c.743-.827 1.587-.629 3.134-.174a9.13 9.13 0 0 0 5.859.214l.824-.295c1.888-.753 1.982-1.409 1.895-2.026 0-.03-.01-.07-.013-.1.222-.063.452-.092.683-.087.637.002 1.254.22 1.751.619.485.37 1.056.611 1.66.7 1.228-.364 2.422-.835 3.569-1.406l.562-.783-.676.389zm3.351-11.179a17.57 17.57 0 0 0-.646-2.072 5.37 5.37 0 0 0-.559-1.1c-.14-.208-.308-.397-.5-.559a3.84 3.84 0 0 0-1.808-.7.35.35 0 0 1-.057-.013c-1.116-.215-2.195-.594-3.2-1.125-.944-.486-1.912-.923-2.9-1.312-.931-.375-1.667-.676-1.721-.968-.074-.405.984-1.393 1.383-1.764l.743-.683c.78-.713.991-.9.9-1.209-.084-.271-.348-.311-.75-.372-1.268-.166-2.475-.645-3.512-1.393l-2.775-1.724c-.709-.378-1.383-.819-2.012-1.319l-.733.094c.693.735 1.519 1.332 2.434 1.761l2.735 1.7c1.118.797 2.413 1.309 3.773 1.493l.064.01-.536.5-.743.686c-1.276 1.192-1.671 1.781-1.57 2.33.117.626.86.931 2.1 1.43a30.74 30.74 0 0 1 2.846 1.289 12.28 12.28 0 0 0 3.415 1.2l.228.05a2.91 2.91 0 0 1 1.316.526 1.9 1.9 0 0 1 .188.181 8.12 8.12 0 0 1 1.312 3.227l.164.693c.3 1.4.224 2 .063 2.243-.02.029-.043.056-.07.08-.251.218-.83.077-1.53-.177l-1.014-.405-1.975-.747c-1.369-.429-1.6-.894-1.694-1.095a.44.44 0 0 0-.311-.285c-.208-.037-.328.077-.616.358l-1.189 1.081c-1.051.9-1.835 1.486-2.25 1.433-.3-.04-.586-.465-1.018-1.108l-.619-.891c-.516-.843-.743-1.832-.646-2.816l.023-.934c.222-2.031-.127-4.083-1.008-5.926a13.16 13.16 0 0 0-.887-1.47c-.409-.598-.92-1.12-1.51-1.54-.485-.365-.666-.5-.666-1.6.047-.807-.36-1.572-1.055-1.985-.773-.386-1.654-.501-2.5-.325a8.23 8.23 0 0 0-1.671.445h0c-.284.289-.522.62-.706.981a8.95 8.95 0 0 1 2.236-.773 3.45 3.45 0 0 1 2.337.208c.503.303.792.864.747 1.45 0 1.346.315 1.644.914 2.092a7.18 7.18 0 0 1 2.22 2.806l.214.435h0 0a8.76 8.76 0 0 1 .737 3.395h0l-.017 1.774c-.05 1.53-.1 2.98.743 4.135l.6.87c.526.783.874 1.3 1.45 1.379.653.09 1.436-.462 2.742-1.577l1.215-1.1.047-.047a3.24 3.24 0 0 0 1.955 1.212c.666.208 1.3.472 1.925.726l1.44.549a3.83 3.83 0 0 0 .576.147 1.66 1.66 0 0 0 .817-.02 1.03 1.03 0 0 0 .358-.2 1.07 1.07 0 0 0 .271-.372c.249-.588.168-1.617-.26-3.263zm-11.061 4.587a13.09 13.09 0 0 0-4.878-2.193c-1.945-.536-2.966-.887-3.06-2.337-.08-1.185.787-1.7 1.624-2.206.639-.382 1.239-.743 1.309-1.389.06-.559-.3-1.168-1.168-1.985-1.855-1.738-1.958-1.8-2.33-1.821-.144-.007-.445-.023-1.851-.9l-.937-.6-1.343-.941.094.837 1.1.747.76.479c1.54.964 1.888.984 2.143 1 .141.007.275.09 1.942 1.651.686.643 1.014 1.138.981 1.466s-.489.609-1.011.924c-.857.512-2.029 1.215-1.925 2.779.131 1.958 1.7 2.39 3.515 2.893a12.43 12.43 0 0 1 4.664 2.082c.569.445 1.172 1.071.813 1.547-.005.007-.01.014-.017.02-.817 1.024-4.711 1.1-6.083.107a2.13 2.13 0 0 1-.191-.154 7.87 7.87 0 0 1-1.527-2.166c-.606-1.1-1.185-2.136-2.153-2.394a1.87 1.87 0 0 0-.83-.023c-.367.078-.717.221-1.034.422a3.72 3.72 0 0 0-1.6 3.556 5.06 5.06 0 0 0 .365 1.614 17.27 17.27 0 0 1-1.061-1.563 14.2 14.2 0 0 0 .241 1.493c.365.516.837 1.118 1.453 1.838l.137.157c.867 1.163 1.88 2.211 3.013 3.117a1.7 1.7 0 0 0 .813.271 4.76 4.76 0 0 0 2.213-.787l.813-.415a2.08 2.08 0 0 0 1.389-1.871 2.54 2.54 0 0 0-1.607-2.1 3.77 3.77 0 0 0-4.044.549 1.58 1.58 0 0 1-1.674.385 3.2 3.2 0 0 1-1.432-2.73 3.12 3.12 0 0 1 1.3-2.986c.295-.194.631-.319.981-.365.134-.014.27-.003.4.034.716.191 1.229 1.115 1.771 2.1l.763 1.292h0c.301.471.683.886 1.128 1.225 1.681 1.215 5.976 1.055 6.96-.258.113-.146.187-.318.218-.5.078-.448-.116-1.097-1.151-1.901zm-11.2 4.66a2.15 2.15 0 0 0 2.313-.469 3.17 3.17 0 0 1 3.391-.472 1.93 1.93 0 0 1 1.249 1.55c.007.509-.358.964-1.048 1.309l-.82.419c-1.249.649-1.707.86-2.25.616-.64-.285-1.433-1.205-3-3.037a1.27 1.27 0 0 0 .166.083zm21.162-17.633a10.14 10.14 0 0 1-2.283.506 6.62 6.62 0 0 1-.917.013 1.26 1.26 0 0 1-.911-.331c-.341-.368-.261-.927-.134-1.855l.208-1.925c.052-.817.052-1.637 0-2.454 0-.08-.007-.161-.013-.244 0-.047-.007-.094-.013-.144l.639.244.017.275a20.93 20.93 0 0 1-.218 4.326c-.094.673-.167 1.207-.027 1.353.095.072.209.113.328.117a5.63 5.63 0 0 0 1.008 0c.781-.087 1.55-.265 2.29-.529z" class="G"/><g class="C"><path d="M215.046 91.631c.039.086.039.185 0 .271-.167.285-.991.087-1.363 0l-3.957-.931a12.3 12.3 0 0 1 1.232.914c.231.184.42.414.556.676a1.37 1.37 0 0 1 .067.4c.028.166-.022.336-.134.462a.45.45 0 0 1-.4.067.92.92 0 0 1 .264.727.93.93 0 0 1-.4.663c.071.221.046.461-.067.663a.95.95 0 0 1-.663.331c-1.356.275-2.036.408-2.32.067a.5.5 0 0 1-.134-.331c.037-.211.171-.392.362-.489a4.04 4.04 0 0 1 1.493-.505 13.7 13.7 0 0 1-3.355-.281l-1-.254c-1.6-.472-2.819-.83-3.271-1.908a3.52 3.52 0 0 1 .546-3l3.077.2 2.1.07c1.475.146 2.934.42 4.362.817.95.233 2.771.688 3.005 1.371z"/><path d="M204.416 89.452a9.12 9.12 0 0 1 1.908-.817c.415-.124.295-.057 1.091-.271 1.065-.288 1.466-.459 1.634-.271.096.169.096.377 0 .546-.208.452-1.014.77-1.152.9l-.087.08a1.14 1.14 0 0 0-.124.117c-.27.262-1.63 1.353-3.27-.284z"/></g><path d="M239.941 83.661l-6.411 14.751c-.024.066-.084.112-.154.117h-23.088c-.137 0-.224-.187-.151-.335l7.171-14.751c.026-.062.084-.103.151-.107h22.327c.131-.003.218.177.155.325z" class="B"/><g class="D"><path d="M199.016 98.525l.559-1.553h2.29l.321 1.637z"/><path d="M201.825 98.538l.556-1.553h2.293l.318 1.637z"/><path d="M204.757 98.538l.559-1.553h2.29l.321 1.637z"/><path d="M207.606 98.538l.559-1.553h2.29l.321 1.637z"/></g><path d="M197.921 98.194h35.582v2.236h-35.582zm3.804-8.056l-13.71 1.959-1.885-12.893 3.817 8.544.968 1.691 10.67-1.088q.074.944.14 1.787zm.26 4.285c-3.254.941-12.009 2.973-15.9-1.115-2.173-2.298-4.477-4.468-6.9-6.5l-.814 3.428c-.02.084-.04.161-.057.248.79 3.833 2.444 8.7 5.842 9.829 4.714 1.57 14.376-2.816 17.824-4.516z" class="B"/><path d="M203.961 94.755l-1.363.629-.619.261-.827.331-.482.181c-.02.007-.04.017-.064.023l-.931.331-.546.181-3.016.947-.924.271-2.742.7-.733.147a13.06 13.06 0 0 1-6.277-.047c-.453-.141-.889-.332-1.3-.569h0c-.25-.142-.488-.303-.713-.482a8.03 8.03 0 0 1-2.189-2.862l-.04-.08-.218-.482-.047-.1a16.77 16.77 0 0 1-.673-1.945l-.164-.6a41.9 41.9 0 0 1-.907-4.811h0l-.435-3.6-.094-.837-.067-.606v-.013c-.08-.327-.119-.663-.117-1a5.3 5.3 0 0 1 .6-2.427c.173-.336.391-.646.649-.921l.057-.06h0a3.1 3.1 0 0 1 .693-.526 2.66 2.66 0 0 1 .295-.144c.249-.101.512-.166.78-.191 1.209-.011 2.384.398 3.324 1.158a2.01 2.01 0 0 1 .191.161 4.4 4.4 0 0 1 .462.472h0c.825 1.23 1.39 2.615 1.661 4.071l.341 1.336.208.86h0 0l.737 3.395h0l.174.894q.065.346.131.7l.2 1.142.077-.01 1.982-.278.737-.1 7.034-.984.331-.047 1.215-.171a.85.85 0 0 0 .09-.013l.706-.1.469-.064.271-.04.727-.1.134-.02.084.181.365.9a12.17 12.17 0 0 1 .516 1.821l.144.844c.056.413.089.828.1 1.245.023.382.016.733.003 1.048z" class="F"/><path d="M220.045 101.35s.348-4.875.867-4.429.3 3.853.3 3.853.07-5.337.83-4.911.392 5.059.392 5.059l.241-.02.442-3.669c.037-.539.09-1.567.593-1.741.077-.027.16-.034.241-.02.355.09.6 1.225.188 5.558l.482-.037s.589-4.891 1.091-4.69.114 4.6.114 4.6c-.033.177-.007.224.02.241.234.141 1.349-1.825 2.056-1.614a.45.45 0 0 1 .261.221c.107.238-.141.432-.408 1-.285.606-.248.914-.629 1.259-.067.06-.127.1-.194.151a6.49 6.49 0 0 1-1.9.981 3.6 3.6 0 0 1-2.411.187c-.04-.013-.087-.033-.181-.07-1.245-.516-2.226-.934-2.377-1.667-.014-.08-.02-.161-.018-.242z" class="C"/><path d="M180.262 92.18l-.164-.6c2.739-1.055 5.6-2.337 5.745-3.559.07-.6.137-1.416-.094-1.671-.171-.184-.623-.171-1.256-.147a12.06 12.06 0 0 1-3.582-.321c-.623-.157-1.466-.439-1.607-1.1-.184-.88 1-1.8 2.508-2.973a15.77 15.77 0 0 0 3.057-2.816c.207-.295.134-.432.1-.482-.368-.67-2.585-1.008-5.246-1.138l.057-.06h0a3.1 3.1 0 0 1 .693-.526c1.582.001 3.146.337 4.59.984a1.28 1.28 0 0 1 .445.445c.006.009.01.019.013.03h0a1.02 1.02 0 0 1-.161 1.112c-.924 1.12-1.993 2.111-3.18 2.946-1.118.867-2.384 1.855-2.28 2.354.03.134.214.392 1.148.626a11.48 11.48 0 0 0 3.415.3c.8-.023 1.369-.044 1.731.348.325.355.4.961.255 2.163-.177 1.571-3.107 2.905-6.187 4.085zm8.513-2.668a35.44 35.44 0 0 1-7.536 5.283l-.04-.08-.218-.482a34.62 34.62 0 0 0 7.4-5.193l.278-.234q.065.347.131.7zm10.549 6.193l1.282.472-.931.331-.579-.228c-1.4-.556-1.627-.649-2.98 1.353l-.7 1.061-.519-.338.295-.449c1.852-2.807 2.244-2.955 4.132-2.202zm4.644-2.006a22.48 22.48 0 0 0-2.544-3.16 2.32 2.32 0 0 0-1.714-.954c-.79.067-1.43 1.035-2 1.885-.536.814-1 1.513-1.634 1.617a1.02 1.02 0 0 1-.824-.244c-.663-.516-1.175-.054-2.471 1.389a13.31 13.31 0 0 1-4.868 3.82c-.817.331-1.416.485-1.687.134-.345-.452.144-1.135 1.6-3.05a32 32 0 0 0 3.2-4.781l.737-.1a30.19 30.19 0 0 1-3.448 5.263 14.83 14.83 0 0 0-1.553 2.25 3.69 3.69 0 0 0 .911-.288c1.814-.835 3.405-2.089 4.64-3.659 1.145-1.279 2.136-2.384 3.314-1.466a.43.43 0 0 0 .345.121c.362-.06.8-.716 1.215-1.346a6.22 6.22 0 0 1 1.61-1.861 1.9 1.9 0 0 1 .844-.3c.237-.019.475.009.7.084a3.74 3.74 0 0 1 1.513 1.061 27.5 27.5 0 0 1 1.989 2.344 10.92 10.92 0 0 1 .125 1.241z" class="G"/><path d="M194.624 78.137c-.5 1.152-2.387 1.888-3.927 1.446a4.06 4.06 0 0 1-2.712-3.944l1.239.033a26.79 26.79 0 0 1 5.537.86c.092.538.045 1.09-.137 1.605zm-6.412-14.577c-.177.512-1.158 3.455.254 5.842.499.83 1.22 1.504 2.082 1.945 3.884 1.972 1.577-6.127 1.577-6.127q-1.953-.828-3.913-1.66z" class="B"/><g class="C"><path d="M195.434 66.821q-.3 2.461-.589 4.918l-.281 2.344-.275 2.307a2.93 2.93 0 0 1-2.183 1.366 3.04 3.04 0 0 1-2.963-1.751l1-9.729z"/><path d="M190.871 68.394a.94.94 0 0 1-1.031.837.94.94 0 0 1-.837-1.031.94.94 0 0 1 1.031-.837.94.94 0 0 1 .837 1.031z"/><path d="M190.71 69.948s1.825 3.646 5 3.345 1.651-9.89 1.651-9.89-5.062-2.725-6.532-.673-.119 7.218-.119 7.218z"/></g><path d="M194.42 67.503c-.019.172-.173.296-.345.277s-.296-.173-.278-.345.173-.296.344-.278a.31.31 0 0 1 .278.345zm2.799.288c-.019.172-.173.296-.345.277s-.296-.173-.278-.345.173-.296.344-.278.296.173.278.345zm-3.68-1.322a.15.15 0 0 1-.131-.1c-.014-.04-.011-.084.007-.121s.052-.066.093-.079a2.18 2.18 0 0 1 1.3-.034c.076.035.111.124.08.201s-.118.117-.197.09a1.88 1.88 0 0 0-1.081.04.23.23 0 0 1-.071.003zm3.974.411a.2.2 0 0 1-.064-.02 1.88 1.88 0 0 0-1.051-.258c-.085.015-.166-.042-.181-.127s.042-.166.127-.181a2.17 2.17 0 0 1 1.266.3c.065.037.094.115.07.186s-.096.114-.17.102zm-2.36 2.722l.013-.271c.743.037.827-.114.834-.131.017-.04-.034-.131-.094-.241a3.25 3.25 0 0 1-.154-.308 2.85 2.85 0 0 1-.224-1.014l.271-.01a2.54 2.54 0 0 0 .2.917l.141.285c.094.177.171.315.107.472-.09.238-.438.335-1.094.301zm-5.259-.873c.047.005.092-.019.114-.06.03-.058.009-.129-.047-.161-.372-.208-.375-.318-.372-.341.013-.09.254-.194.462-.231.059-.017.096-.075.084-.136s-.067-.102-.128-.095c-.1.017-.6.124-.649.425-.03.194.127.385.489.583.015.008.03.014.047.016z" fill="#322223"/><g class="B"><path d="M189.725 67.176l.9.408c.964-1.27 1.743-2.671 2.313-4.161l.9.221 1.245.315c.583.134 2.169.352 2.635-.288.539-.743-.288-2.846-1.861-3.308-.782-.182-1.604-.032-2.273.412-.32-.394-.752-.682-1.239-.827-1.537-.412-3.455.947-4.041 2.678a4.3 4.3 0 0 0 1.421 4.55z"/><path d="M190.983 65.642s.479 2.628 1.2 3.345 4.2.649 5.447 1.041l.05.629c.017.318.017.636 0 .954a2.98 2.98 0 0 1-.954 2.149 2.63 2.63 0 0 1-1.2.479 4.12 4.12 0 0 1-1.433 0c-1.7-.341-2.769-2.648-2.866-2.866-.482-1.075-.716-5.256-.716-5.256h0z"/></g><path d="M196.003 70.42c-.751.123-1.521-.049-2.149-.479 0 .05.02.733.479.954.231.085.485.085.716 0a3.47 3.47 0 0 0 .954-.475z" fill="#fff9ed"/><defs ><path id="B" d="M59.837 64.986a2.31 2.31 0 1 1-4.62 0 2.31 2.31 0 0 1 3.943-1.633 2.31 2.31 0 0 1 .677 1.633z"/><path id="C" d="M172.475 121.636v.6a4.32 4.32 0 0 1-4.319 4.319H57.896a4.32 4.32 0 0 1-4.319-4.319v-.6a4.32 4.32 0 0 1 4.319-4.319h110.26a4.32 4.32 0 0 1 4.319 4.319z"/><path id="D" d="M124.08 132.989c.009-.176.157-.312.332-.306s.314.152.311.328-.147.317-.323.316c-.088-.001-.171-.038-.232-.101s-.093-.149-.089-.237z"/><path id="E" d="M213.225 173.692l-.73 1.118a.4.4 0 0 1-.348.184c-.075-.003-.148-.026-.211-.067a.4.4 0 0 1-.117-.559l.646-.991.76.315z"/></defs></svg>
