<svg xmlns="http://www.w3.org/2000/svg" width="252" height="210" viewBox="0 0 252 210">
  <g id="trades" transform="translate(-261.34 -117.013)">
    <rect id="Rectangle_95" data-name="Rectangle 95" width="252" height="210" transform="translate(261.34 117.013)" fill="none"/>
    <g id="Group_894" data-name="Group 894" transform="translate(51 25)">
      <g id="background" transform="translate(213.34 117.013)">
        <g id="Group_601" data-name="Group 601" transform="translate(13.241 79.796)">
          <g id="Group_600" data-name="Group 600">
            <g id="Group_599" data-name="Group 599">
              <g id="Group_598" data-name="Group 598">
                <path id="Path_281" data-name="Path 281" d="M283.533,368.768l2.39-.281a13.866,13.866,0,0,0-.5-2.119,14.033,14.033,0,0,0-1.714-3.562c-.77.509-1.543,1.014-2.317,1.523q-1.908-2.074-3.813-4.145l1.222-2.33a16.716,16.716,0,0,0-4.895-2.28l-.629,3-1.329.114a14.151,14.151,0,0,0-4.938-.023l-1.155-3.3a16.481,16.481,0,0,0-5.256,2.18l1.868,2.749a14.115,14.115,0,0,0-4.52,4.1l-2.839-1.235a17.817,17.817,0,0,0-2.079,5.015l2.692,1.225a14.068,14.068,0,0,0-.315,3.917,14.669,14.669,0,0,0,.218,1.774l-2.739,1.1a17.887,17.887,0,0,0,2.2,5.651q1.326-.788,2.655-1.57a14.116,14.116,0,0,0,4.513,4.275l-1.175,3.294a16.574,16.574,0,0,0,4.9,1.959l.633-3.559.037,0a14.194,14.194,0,0,0,6.271-.174l1.332,3.462a16.6,16.6,0,0,0,4.319-1.985l-1.493-3.217.335-.321a14.112,14.112,0,0,0,3.157-3.027l1.008-.964,2.551,1.667a17.9,17.9,0,0,0,2.19-6.2l-2.561-.82Q283.644,371.706,283.533,368.768Zm-5.681,1.982a8.5,8.5,0,1,1-7.747-6.877A8.5,8.5,0,0,1,277.852,370.75Z" transform="translate(-252.89 -355.36)" fill="#705247"/>
              </g>
            </g>
          </g>
        </g>
        <g id="Group_610" data-name="Group 610" transform="translate(0 140.784)">
          <g id="Group_609" data-name="Group 609">
            <g id="Group_608" data-name="Group 608">
              <g id="Group_607" data-name="Group 607">
                <g id="Group_606" data-name="Group 606">
                  <g id="Group_605" data-name="Group 605">
                    <g id="Group_604" data-name="Group 604">
                      <g id="Group_603" data-name="Group 603">
                        <g id="Group_602" data-name="Group 602">
                          <path id="Path_282" data-name="Path 282" d="M235.108,540.91c2.173-3.278,6.157-4.2,8.718-2.652,2.675,1.617,2.7,5.26,2.7,5.437,3.539-1.55,7.011-.787,8.293,1.249a4.425,4.425,0,0,1,.469,3.264,7.084,7.084,0,0,1,8.607-1.115,7.157,7.157,0,0,1,2.939,5.494H213.34s.931-10.221,8.494-8.1C221.834,544.5,227.408,536.263,235.108,540.91Z" transform="translate(-213.34 -537.528)" fill="#e5e5e4"/>
                        </g>
                      </g>
                    </g>
                  </g>
                </g>
              </g>
            </g>
          </g>
        </g>
        <g id="Group_675" data-name="Group 675" transform="translate(169.401 111.619)">
          <g id="Group_618" data-name="Group 618">
            <g id="Group_617" data-name="Group 617">
              <g id="Group_616" data-name="Group 616">
                <g id="Group_615" data-name="Group 615">
                  <g id="Group_614" data-name="Group 614">
                    <g id="Group_613" data-name="Group 613">
                      <g id="Group_612" data-name="Group 612">
                        <g id="Group_611" data-name="Group 611">
                          <path id="Path_283" data-name="Path 283" d="M748.845,477.77s-5.4-6.84-1.439-13.5c0,0-3.6-7.737,3.6-12.779s6.659,9.177,6.659,9.177,10.258,2.159,8.457,11.517l-1.8,9.357s26.994-34.734,28.8-28.076-1.8,9.357-1.8,9.357,8.279,5.039,0,8.818l-8.279,3.78s5.939,1.979,4.319,6.12-11.159,6.12-11.159,6.12c5.648,1.282,14.955,3.539,15.3,4.68,0,.017.124.432.362,1.259H719.33s1.259-13.857,11.517-10.978C730.847,482.628,738.406,471.47,748.845,477.77Z" transform="translate(-719.33 -450.412)" fill="#e5e5e4"/>
                        </g>
                      </g>
                    </g>
                  </g>
                </g>
              </g>
            </g>
          </g>
          <g id="Group_626" data-name="Group 626" transform="translate(32.311 8.51)">
            <g id="Group_625" data-name="Group 625">
              <g id="Group_624" data-name="Group 624">
                <g id="Group_623" data-name="Group 623">
                  <g id="Group_622" data-name="Group 622">
                    <g id="Group_621" data-name="Group 621">
                      <g id="Group_620" data-name="Group 620">
                        <g id="Group_619" data-name="Group 619">
                          <path id="Path_284" data-name="Path 284" d="M822.867,499.162c-2.139-4.818-6.98-23.057-7.027-23.241l.348-.09c.05.184,4.881,18.4,7.011,23.188Z" transform="translate(-815.84 -475.83)" fill="#fff9ed"/>
                        </g>
                      </g>
                    </g>
                  </g>
                </g>
              </g>
            </g>
          </g>
          <g id="Group_634" data-name="Group 634" transform="translate(29.351 17.209)">
            <g id="Group_633" data-name="Group 633" transform="translate(0 0)">
              <g id="Group_632" data-name="Group 632" transform="translate(0)">
                <g id="Group_631" data-name="Group 631">
                  <g id="Group_630" data-name="Group 630">
                    <g id="Group_629" data-name="Group 629">
                      <g id="Group_628" data-name="Group 628">
                        <g id="Group_627" data-name="Group 627">
                          <rect id="Rectangle_80" data-name="Rectangle 80" width="0.358" height="6.877" transform="translate(0 0.327) rotate(-66.065)" fill="#fff9ed"/>
                        </g>
                      </g>
                    </g>
                  </g>
                </g>
              </g>
            </g>
          </g>
          <g id="Group_642" data-name="Group 642" transform="translate(37.876 20.001)">
            <g id="Group_641" data-name="Group 641" transform="translate(0 0)">
              <g id="Group_640" data-name="Group 640">
                <g id="Group_639" data-name="Group 639">
                  <g id="Group_638" data-name="Group 638">
                    <g id="Group_637" data-name="Group 637">
                      <g id="Group_636" data-name="Group 636">
                        <g id="Group_635" data-name="Group 635">
                          <rect id="Rectangle_81" data-name="Rectangle 81" width="8.37" height="0.358" transform="translate(0 7.704) rotate(-66.983)" fill="#fff9ed"/>
                        </g>
                      </g>
                    </g>
                  </g>
                </g>
              </g>
            </g>
          </g>
          <g id="Group_650" data-name="Group 650" transform="translate(44.932 12.387)">
            <g id="Group_649" data-name="Group 649">
              <g id="Group_648" data-name="Group 648">
                <g id="Group_647" data-name="Group 647">
                  <g id="Group_646" data-name="Group 646">
                    <g id="Group_645" data-name="Group 645">
                      <g id="Group_644" data-name="Group 644">
                        <g id="Group_643" data-name="Group 643">
                          <path id="Path_285" data-name="Path 285" d="M853.838,512.831l-.3-.2c3.565-5.35,22.327-25.022,22.515-25.22l.261.248C876.125,487.855,857.39,507.5,853.838,512.831Z" transform="translate(-853.54 -487.41)" fill="#fff9ed"/>
                        </g>
                      </g>
                    </g>
                  </g>
                </g>
              </g>
            </g>
          </g>
          <g id="Group_658" data-name="Group 658" transform="translate(62.978 16.486)">
            <g id="Group_657" data-name="Group 657" transform="translate(0 0)">
              <g id="Group_656" data-name="Group 656" transform="translate(0)">
                <g id="Group_655" data-name="Group 655">
                  <g id="Group_654" data-name="Group 654">
                    <g id="Group_653" data-name="Group 653">
                      <g id="Group_652" data-name="Group 652">
                        <g id="Group_651" data-name="Group 651">
                          <rect id="Rectangle_82" data-name="Rectangle 82" width="8.219" height="0.362" transform="matrix(0.996, -0.087, 0.087, 0.996, 0, 0.718)" fill="#fff9ed"/>
                        </g>
                      </g>
                    </g>
                  </g>
                </g>
              </g>
            </g>
          </g>
          <g id="Group_666" data-name="Group 666" transform="translate(54.885 18.064)">
            <g id="Group_665" data-name="Group 665" transform="translate(0 0)">
              <g id="Group_664" data-name="Group 664" transform="translate(0)">
                <g id="Group_663" data-name="Group 663">
                  <g id="Group_662" data-name="Group 662">
                    <g id="Group_661" data-name="Group 661">
                      <g id="Group_660" data-name="Group 660">
                        <g id="Group_659" data-name="Group 659">
                          <rect id="Rectangle_83" data-name="Rectangle 83" width="7.935" height="0.362" transform="translate(0 7.835) rotate(-80.898)" fill="#fff9ed"/>
                        </g>
                      </g>
                    </g>
                  </g>
                </g>
              </g>
            </g>
          </g>
          <g id="Group_674" data-name="Group 674" transform="translate(49.201 28.891)">
            <g id="Group_673" data-name="Group 673" transform="translate(0 0)">
              <g id="Group_672" data-name="Group 672">
                <g id="Group_671" data-name="Group 671">
                  <g id="Group_670" data-name="Group 670">
                    <g id="Group_669" data-name="Group 669">
                      <g id="Group_668" data-name="Group 668">
                        <g id="Group_667" data-name="Group 667">
                          <rect id="Rectangle_84" data-name="Rectangle 84" width="14.242" height="0.362" transform="translate(0 3.427) rotate(-13.922)" fill="#fff9ed"/>
                        </g>
                      </g>
                    </g>
                  </g>
                </g>
              </g>
            </g>
          </g>
        </g>
        <g id="Group_696" data-name="Group 696" transform="translate(40.121 33.247)">
          <g id="Group_676" data-name="Group 676">
            <path id="Path_286" data-name="Path 286" d="M474.617,228.521V328.8c0,6.1-4.61,11.041-10.295,11.041H344.635c-5.685,0-10.295-4.945-10.295-11.041V228.521c0-6.1,4.61-11.041,10.295-11.041H464.323C470.007,217.48,474.617,222.425,474.617,228.521Z" transform="translate(-333.952 -217.092)" fill="none"/>
            <path id="Path_287" data-name="Path 287" d="M463.551,339.459H343.863c-5.889,0-10.683-5.126-10.683-11.43V227.75c0-6.3,4.791-11.43,10.683-11.43H463.551c5.889,0,10.683,5.126,10.683,11.43V328.03C474.234,334.33,469.44,339.459,463.551,339.459ZM343.863,217.1c-5.464,0-9.906,4.781-9.906,10.653V328.03c0,5.876,4.446,10.653,9.906,10.653H463.551c5.464,0,9.906-4.781,9.906-10.653V227.75c0-5.876-4.446-10.653-9.906-10.653Z" transform="translate(-333.18 -216.32)" fill="#372a28"/>
          </g>
          <g id="Group_677" data-name="Group 677" transform="translate(0.388 0.388)">
            <path id="Path_288" data-name="Path 288" d="M474.617,228.521v2.427H334.34v-2.427c0-6.1,4.61-11.041,10.295-11.041H464.323C470.007,217.48,474.617,222.425,474.617,228.521Z" transform="translate(-334.34 -217.48)" fill="#da5724"/>
          </g>
          <g id="Group_678" data-name="Group 678" transform="translate(12.096 4.429)">
            <path id="Path_289" data-name="Path 289" d="M373.93,231.86a2.31,2.31,0,1,1-2.31-2.31A2.31,2.31,0,0,1,373.93,231.86Z" transform="translate(-369.31 -229.55)" fill="#fff"/>
          </g>
          <g id="Group_679" data-name="Group 679" transform="translate(24.021 4.429)">
            <path id="Path_290" data-name="Path 290" d="M409.55,231.86a2.31,2.31,0,1,1-2.31-2.31A2.31,2.31,0,0,1,409.55,231.86Z" transform="translate(-404.93 -229.55)" fill="#fff"/>
          </g>
          <g id="Group_680" data-name="Group 680" transform="translate(35.95 4.429)">
            <path id="Path_291" data-name="Path 291" d="M445.18,231.86a2.31,2.31,0,1,1-2.31-2.31A2.31,2.31,0,0,1,445.18,231.86Z" transform="translate(-440.56 -229.55)" fill="#fff"/>
          </g>
          <g id="Group_681" data-name="Group 681" transform="translate(10.456 59.07)">
            <path id="Path_292" data-name="Path 292" d="M483.308,397.079v.6a4.319,4.319,0,0,1-4.319,4.319H368.729a4.319,4.319,0,0,1-4.319-4.319v-.6a4.319,4.319,0,0,1,4.319-4.319h110.26A4.319,4.319,0,0,1,483.308,397.079Z" transform="translate(-364.41 -392.76)" fill="#e5e5e4"/>
          </g>
          <g id="Group_682" data-name="Group 682" transform="translate(10.456 18.474)">
            <path id="Path_293" data-name="Path 293" d="M483.308,275.819v.6a4.319,4.319,0,0,1-4.319,4.319H368.729a4.319,4.319,0,0,1-4.319-4.319v-.6a4.319,4.319,0,0,1,4.319-4.319h110.26A4.321,4.321,0,0,1,483.308,275.819Z" transform="translate(-364.41 -271.5)" fill="#e5e5e4"/>
          </g>
          <g id="Group_683" data-name="Group 683" transform="translate(7.268 32.133)">
            <rect id="Rectangle_85" data-name="Rectangle 85" width="35.578" height="19.431" fill="#e5e5e4"/>
          </g>
          <g id="Group_684" data-name="Group 684" transform="translate(51.903 32.133)">
            <rect id="Rectangle_86" data-name="Rectangle 86" width="35.578" height="19.431" fill="#e5e5e4"/>
          </g>
          <g id="Group_685" data-name="Group 685" transform="translate(96.537 32.133)">
            <rect id="Rectangle_87" data-name="Rectangle 87" width="35.578" height="19.431" fill="#e5e5e4"/>
          </g>
          <g id="Group_686" data-name="Group 686" transform="translate(7.268 80.042)">
            <rect id="Rectangle_88" data-name="Rectangle 88" width="35.578" height="30.399" fill="#e5e5e4"/>
          </g>
          <g id="Group_687" data-name="Group 687" transform="translate(51.903 80.042)">
            <rect id="Rectangle_89" data-name="Rectangle 89" width="35.578" height="30.399" fill="#e5e5e4"/>
          </g>
          <g id="Group_688" data-name="Group 688" transform="translate(96.537 80.042)">
            <rect id="Rectangle_90" data-name="Rectangle 90" width="35.578" height="30.399" fill="#e5e5e4"/>
          </g>
          <g id="Group_689" data-name="Group 689" transform="translate(10.456 59.074)">
            <path id="Path_294" data-name="Path 294" d="M445.021,398.251v.04a3.762,3.762,0,0,1-3.78,3.713H368.729a4.319,4.319,0,0,1-4.319-4.319v-.6a4.319,4.319,0,0,1,4.319-4.319h72.238a3.748,3.748,0,0,1,3.555,2.5A9.126,9.126,0,0,1,445.021,398.251Z" transform="translate(-364.41 -392.77)" fill="#da5724"/>
          </g>
          <g id="Group_690" data-name="Group 690" transform="translate(60.517 71.391)">
            <path id="Path_295" data-name="Path 295" d="M513.94,429.76h.452v3.174h1.553v.382H513.94Z" transform="translate(-513.94 -429.693)" fill="#1b2e4e"/>
            <path id="Path_296" data-name="Path 296" d="M520.78,431.4c0-1.138.626-1.831,1.52-1.831s1.52.693,1.52,1.831-.626,1.858-1.52,1.858S520.78,432.54,520.78,431.4Zm2.571,0c0-.887-.419-1.433-1.051-1.433s-1.055.546-1.055,1.433.418,1.46,1.055,1.46S523.351,432.285,523.351,431.4Z" transform="translate(-518.49 -429.567)" fill="#1b2e4e"/>
            <path id="Path_297" data-name="Path 297" d="M531.782,429.76h.512l1.2,3.559h-.479l-.619-1.985c-.127-.4-.241-.787-.355-1.2h-.023c-.111.412-.224.8-.352,1.2l-.626,1.985h-.462Zm-.573,2.113h1.637v.362h-1.637Z" transform="translate(-525.009 -429.693)" fill="#1b2e4e"/>
            <path id="Path_298" data-name="Path 298" d="M540.72,429.76h.891a1.781,1.781,0,0,1,.02,3.556h-.911Zm.857,3.187c.83,0,1.245-.522,1.245-1.419s-.415-1.4-1.245-1.4h-.405v2.816Z" transform="translate(-531.754 -429.693)" fill="#1b2e4e"/>
            <path id="Path_299" data-name="Path 299" d="M550.68,429.76h.452v3.559h-.452Z" transform="translate(-538.38 -429.693)" fill="#1b2e4e"/>
            <path id="Path_300" data-name="Path 300" d="M554.94,429.76h.469L556.7,432l.385.737h.02c-.023-.358-.057-.76-.057-1.132V429.76h.428v3.559h-.469l-1.289-2.24-.385-.733h-.02c.023.362.057.74.057,1.112v1.861h-.429Z" transform="translate(-541.214 -429.693)" fill="#1b2e4e"/>
            <path id="Path_301" data-name="Path 301" d="M564.8,431.408a1.652,1.652,0,0,1,1.634-1.848,1.381,1.381,0,0,1,1.024.439l-.248.295a1,1,0,0,0-.767-.335c-.716,0-1.178.549-1.178,1.436s.422,1.453,1.182,1.453a.964.964,0,0,0,.639-.208v-.924h-.753v-.375H567.5v1.5a1.518,1.518,0,0,1-1.095.412A1.624,1.624,0,0,1,564.8,431.408Z" transform="translate(-547.773 -429.56)" fill="#1b2e4e"/>
            <path id="Path_302" data-name="Path 302" d="M575,438.885a.322.322,0,1,1,.321.338A.325.325,0,0,1,575,438.885Z" transform="translate(-554.558 -435.534)" fill="#1b2e4e"/>
            <path id="Path_303" data-name="Path 303" d="M579.03,438.885a.322.322,0,1,1,.321.338A.325.325,0,0,1,579.03,438.885Z" transform="translate(-557.239 -435.534)" fill="#1b2e4e"/>
            <path id="Path_304" data-name="Path 304" d="M583.07,438.885a.322.322,0,1,1,.321.338A.322.322,0,0,1,583.07,438.885Z" transform="translate(-559.926 -435.534)" fill="#1b2e4e"/>
          </g>
          <g id="Group_695" data-name="Group 695" transform="translate(18.398 19.568)">
            <g id="Group_692" data-name="Group 692" transform="translate(0.725)">
              <g id="Group_691" data-name="Group 691">
                <path id="Path_305" data-name="Path 305" d="M392.6,279.372a2.3,2.3,0,1,1,2.005-1.165A2.276,2.276,0,0,1,392.6,279.372Zm.007-3.646a1.3,1.3,0,0,0-.358.05,1.323,1.323,0,0,0-.81.633,1.341,1.341,0,0,0-.127,1.021,1.323,1.323,0,0,0,.633.81,1.346,1.346,0,0,0,1.831-.506h0a1.341,1.341,0,0,0,.127-1.021,1.323,1.323,0,0,0-.633-.81A1.339,1.339,0,0,0,392.6,275.726Z" transform="translate(-390.298 -274.768)" fill="#fff"/>
              </g>
            </g>
            <g id="Group_694" data-name="Group 694" transform="translate(0 3.669)">
              <g id="Group_693" data-name="Group 693">
                <path id="Path_306" data-name="Path 306" d="M388.748,289.025l-.355-.2c-.211-.12-.315-.325-.231-.452l1.691-2.554c.077-.117.3-.124.5-.01h0c.2.114.3.3.244.432q-.668,1.376-1.336,2.755C389.187,289.129,388.959,289.142,388.748,289.025Z" transform="translate(-388.133 -285.726)" fill="#fff"/>
              </g>
            </g>
          </g>
        </g>
        <g id="Group_702" data-name="Group 702" transform="translate(17.466 104.698)">
          <g id="Group_697" data-name="Group 697">
            <circle id="Ellipse_26" data-name="Ellipse 26" cx="27.098" cy="27.098" r="27.098" transform="translate(0.542 0.542)" fill="#fff"/>
            <path id="Path_307" data-name="Path 307" d="M293.15,485.021a27.64,27.64,0,1,1,27.64-27.64A27.673,27.673,0,0,1,293.15,485.021Zm0-54.2a26.556,26.556,0,1,0,26.556,26.556A26.584,26.584,0,0,0,293.15,430.825Z" transform="translate(-265.51 -429.74)" fill="#382a28"/>
          </g>
          <g id="Group_698" data-name="Group 698" transform="translate(12.491 6.401)">
            <path id="Path_308" data-name="Path 308" d="M302.82,455.248a24.515,24.515,0,0,1,9.481-5.4,23.64,23.64,0,0,1,5.594-.961,22.289,22.289,0,0,1,5.805.482,21.567,21.567,0,0,1,5.614,2.062,22.431,22.431,0,0,1,4.948,3.592,25.5,25.5,0,0,1,3.884,4.777,28.012,28.012,0,0,1,1.507,2.705,25.624,25.624,0,0,1,1.205,2.926l-7.714,1.962a16.907,16.907,0,0,0-.445-2.179,19.7,19.7,0,0,0-.72-2.176,18.912,18.912,0,0,0-2.179-4.051,16.842,16.842,0,0,0-3.177-3.375,17.132,17.132,0,0,0-4.091-2.441,18.853,18.853,0,0,0-4.751-1.3,21.094,21.094,0,0,0-5.079-.074A23.626,23.626,0,0,0,302.82,455.248Z" transform="translate(-302.82 -448.86)" fill="#da5724"/>
          </g>
          <g id="Group_701" data-name="Group 701" transform="translate(23.114 25.965)">
            <g id="Group_699" data-name="Group 699">
              <path id="Path_309" data-name="Path 309" d="M360.436,510.008l-21.858-2.7a1.536,1.536,0,0,0-.927.177c-.77.425-1.54.847-2.307,1.272a1.533,1.533,0,0,0,.044,2.708c.783.4,1.57.8,2.354,1.2a1.527,1.527,0,0,0,.894.154Z" transform="translate(-334.551 -507.295)" fill="#da5724"/>
            </g>
            <g id="Group_700" data-name="Group 700" transform="translate(2.658 1.214)">
              <circle id="Ellipse_27" data-name="Ellipse 27" cx="1.413" cy="1.413" r="1.413" fill="#f2e6d6"/>
            </g>
          </g>
        </g>
        <g id="Group_711" data-name="Group 711" transform="translate(123.722)">
          <g id="Group_706" data-name="Group 706" transform="translate(28.784)">
            <g id="Group_705" data-name="Group 705">
              <g id="Group_704" data-name="Group 704">
                <g id="Group_703" data-name="Group 703">
                  <path id="Path_310" data-name="Path 310" d="M706.959,127.849q1.376-.869,2.752-1.734a19.029,19.029,0,0,0-6.01-5.651q-.969,1.6-1.938,3.207-3.535-1.421-7.071-2.839l.134-3.555a22.67,22.67,0,0,0-7.305.067l.978,4.024-1.557.914a19.077,19.077,0,0,0-6.043,2.849l-3.335-3.358a22.327,22.327,0,0,0-5.146,5.722l3.884,2.27a19.033,19.033,0,0,0-3.127,7.64l-4.188.147a24.178,24.178,0,0,0,.382,7.332q2-.035,4-.074a19.136,19.136,0,0,0,3.2,7.011q-1.351,1.471-2.7,2.946a24.254,24.254,0,0,0,5.983,5.618q1.165-1.733,2.327-3.465a19.04,19.04,0,0,0,8,2.588l.485,4.7a22.526,22.526,0,0,0,7.124-.462l-1.3-4.714.044-.027a19,19,0,0,0,4.523-1.791,18.793,18.793,0,0,0,3.027-2.072l3.646,3.452a22.443,22.443,0,0,0,4.115-4.942l-3.7-3.06.221-.586a19.062,19.062,0,0,0,2.092-5.531l.666-1.764,4.084.549a24.176,24.176,0,0,0-.941-8.852l-3.606.489Zm-5.782,5.728a11.5,11.5,0,1,1-13.462-3.884A11.508,11.508,0,0,1,701.178,133.577Z" transform="translate(-668.865 -117.013)" fill="#705247"/>
                </g>
              </g>
            </g>
          </g>
          <g id="Group_710" data-name="Group 710" transform="translate(0 25.226)">
            <g id="Group_709" data-name="Group 709">
              <g id="Group_708" data-name="Group 708">
                <g id="Group_707" data-name="Group 707">
                  <path id="Path_311" data-name="Path 311" d="M613.533,205.768l2.39-.281a13.853,13.853,0,0,0-.5-2.119,14.035,14.035,0,0,0-1.714-3.562c-.77.509-1.543,1.014-2.317,1.523q-1.908-2.074-3.813-4.145l1.222-2.33a16.718,16.718,0,0,0-4.895-2.28l-.629,3-1.329.114a14.152,14.152,0,0,0-4.938-.023l-1.155-3.3a16.483,16.483,0,0,0-5.256,2.179l1.868,2.749a14.114,14.114,0,0,0-4.52,4.1l-2.839-1.235a17.818,17.818,0,0,0-2.079,5.015l2.692,1.225a14.068,14.068,0,0,0-.315,3.917,14.7,14.7,0,0,0,.218,1.774l-2.739,1.1a17.885,17.885,0,0,0,2.2,5.651q1.326-.788,2.655-1.57a14.117,14.117,0,0,0,4.513,4.275l-1.175,3.294a16.611,16.611,0,0,0,4.9,1.958l.633-3.559.037,0a14.2,14.2,0,0,0,6.271-.174l1.333,3.462a16.6,16.6,0,0,0,4.319-1.985l-1.493-3.217.335-.321a14.113,14.113,0,0,0,3.157-3.027l1.008-.964,2.551,1.667a17.9,17.9,0,0,0,2.19-6.2l-2.561-.82Q613.644,208.706,613.533,205.768Zm-5.681,1.982a8.5,8.5,0,1,1-7.747-6.877A8.5,8.5,0,0,1,607.852,207.75Z" transform="translate(-582.89 -192.36)" fill="#705247"/>
                </g>
              </g>
            </g>
          </g>
        </g>
      </g>
      <g id="man" transform="translate(387.871 151.886)">
        <g id="Group_713" data-name="Group 713" transform="translate(19.182 17.731)">
          <g id="Group_712" data-name="Group 712">
            <path id="Path_312" data-name="Path 312" d="M815.385,294.191q-.11,2.782-.221,5.558c-.539.147-1.239.321-2.066.479-.2.037-.4.074-.616.11-.274.047-.559.094-.857.134-.716.1-1.44.2-2.153.291a.125.125,0,0,1-.033,0c-.2.023-.409.05-.613.074h-.007a19.621,19.621,0,0,1-5.882-.023c-.261-.05-.516-.11-.763-.184a6.963,6.963,0,0,1-2.762-1.48c-.134-.117-.261-.241-.385-.372-.1-.11-.207-.224-.308-.341a12.938,12.938,0,0,1-1.895-3.207,22.517,22.517,0,0,1-.914-2.541c-.03-.114-.064-.224-.094-.328-.077-.275-.141-.516-.187-.716-.08-.321-.124-.532-.137-.6-.124-.569-.218-1.148-.6-2.966-.171-.8-.342-1.6-.506-2.323-.067-.311-.134-.609-.2-.887-.057-.238-.1-.462-.154-.666-.187-.83-.311-1.366-.311-1.366l-.419-2.056-.13-.636-.3-1.473-.408-2-.516-2.534s.191.02.512.077c.174.033.385.074.629.131a13.526,13.526,0,0,1,2.025.636c.044.02.087.033.134.057.171.07.348.147.522.231a12.153,12.153,0,0,1,3.033,2.25,5.847,5.847,0,0,1,.76,1.048c.1.171.208.355.318.556s.224.422.342.656c.1.2.208.418.311.649.09.188.177.385.268.589s.184.419.275.636c.321.77.656,1.637.984,2.588.067.191.134.392.2.593.177.532.355,1.088.526,1.671.064.2.121.4.181.6.023.077.047.157.067.234.074.258.147.522.218.787.375,1.393.733,2.9,1.055,4.513.007.03.013.064.02.1.2.027.4.05.6.077.06.007.117.013.177.023,0,0,0,0,.007,0l.646.084c1.59.208,3.184.418,4.774.623.238.033.472.064.71.094Q813.32,293.921,815.385,294.191Z" transform="translate(-791.95 -274.14)" fill="#553e37"/>
          </g>
        </g>
        <g id="Group_718" data-name="Group 718" transform="translate(25.948 24.608)">
          <g id="Group_714" data-name="Group 714" transform="translate(0.113)">
            <path id="Path_313" data-name="Path 313" d="M812.525,298.122c-.2-.817.76-2.163,1.945-3.442.09.2.184.418.275.636-1.034,1.138-1.741,2.156-1.617,2.655.117.465,1.436.181,2.4-.023l.2-.044c.067.191.134.392.2.593-.094.02-.187.04-.275.057C814.25,298.858,812.79,299.166,812.525,298.122Z" transform="translate(-812.498 -294.68)" fill="#b8432a"/>
          </g>
          <g id="Group_715" data-name="Group 715" transform="translate(0 5.487)">
            <path id="Path_314" data-name="Path 314" d="M820.677,320.33c-1.54,1.543-3.636,1.6-5.323,1.644-1.125.03-2.1.057-2.427.539a1.594,1.594,0,0,0-.074,1.205c-.134-.117-.261-.241-.385-.372-.1-.111-.208-.224-.308-.341a1.569,1.569,0,0,1,.255-.84c.505-.743,1.627-.773,2.923-.81,1.573-.044,3.535-.1,4.9-1.463.86-.86.867-1.132.844-1.2-.064-.2-.874-.345-1.527-.462a9.4,9.4,0,0,1-5.738-2.672c-.914-1.024-1.269-1.8-1.108-2.431.2-.807,1.165-1.152,2.183-1.52a11.221,11.221,0,0,0,1.343-.542c.064.2.121.4.181.6a13.267,13.267,0,0,1-1.316.522c-.857.311-1.667.6-1.791,1.088-.1.405.224,1.034.971,1.865a7.085,7.085,0,0,0,3.475,2.059c.268.077.532.144.79.2,0,0,0,0,.007,0,.388.084.763.151,1.108.214,1.1.2,1.835.328,2.009.887C821.815,318.954,821.524,319.48,820.677,320.33Z" transform="translate(-812.16 -311.07)" fill="#b8432a"/>
          </g>
          <g id="Group_716" data-name="Group 716" transform="translate(3.455 16.682)">
            <path id="Path_315" data-name="Path 315" d="M828.607,345.479a11.973,11.973,0,0,1,1.175,2.1.126.126,0,0,1-.033,0c-.2.023-.408.05-.613.074a10.935,10.935,0,0,0-1.034-1.811,1.476,1.476,0,0,0-1.025-.706c-.9-.1-1.985.867-3.036,1.8-.268.238-.532.472-.8.69-.261-.05-.516-.11-.763-.184.375-.285.763-.629,1.148-.971,1.152-1.024,2.347-2.082,3.515-1.952A2.092,2.092,0,0,1,828.607,345.479Z" transform="translate(-822.48 -344.507)" fill="#b8432a"/>
          </g>
          <g id="Group_717" data-name="Group 717" transform="translate(11.821 12.535)">
            <path id="Path_316" data-name="Path 316" d="M850.035,338.8c-.2.037-.4.074-.616.11a14.6,14.6,0,0,0-1.584-5.943c-.147-.325-.271-.6-.365-.844.238.033.472.064.71.094.07.161.147.331.218.5A15.419,15.419,0,0,1,850.035,338.8Z" transform="translate(-847.47 -332.12)" fill="#b8432a"/>
          </g>
        </g>
        <g id="Group_749" data-name="Group 749" transform="translate(22.684 106.477)">
          <g id="Group_721" data-name="Group 721" transform="translate(0.134 10.471)">
            <g id="Group_720" data-name="Group 720">
              <g id="Group_719" data-name="Group 719">
                <path id="Path_317" data-name="Path 317" d="M802.833,573.494l-.023.964s17.051.11,18.665-.167,3.274-2.169,3.3-3.134-1.255-.589-1.255-.589Z" transform="translate(-802.81 -570.496)"/>
              </g>
            </g>
          </g>
          <g id="Group_724" data-name="Group 724" transform="translate(2.3)">
            <g id="Group_723" data-name="Group 723">
              <g id="Group_722" data-name="Group 722">
                <path id="Path_318" data-name="Path 318" d="M809.28,544.346l.117-4.627,6.619-.5-.1,4.115-.9,3.438Z" transform="translate(-809.28 -539.22)" fill="#f2e6d6"/>
              </g>
            </g>
          </g>
          <g id="Group_727" data-name="Group 727" transform="translate(0.797 3.733)">
            <g id="Group_726" data-name="Group 726">
              <g id="Group_725" data-name="Group 725">
                <path id="Path_319" data-name="Path 319" d="M825.453,557.427a4.08,4.08,0,0,1-2.638,2.508c-.472.147-4.757.194-9.029.2h-.322c-1.523.007-3.03,0-4.356,0-2.491-.007-4.319-.017-4.319-.017a43.948,43.948,0,0,1,.753-4.449c.164-.814.325-1.594.455-2.22.167-.8.285-1.339.285-1.339a10.264,10.264,0,0,1,5.119,1.1c-.288-1.292,2.005-2.842,2.005-2.842s.586,2.266,1.219,2.6l.167.08c.161.074.422.184.753.325.2.087.439.181.693.291.234.1.489.2.76.311.238.1.482.2.736.308l.763.311c.445.181.907.372,1.369.562a1,1,0,0,0,.107.044c1.349.552,2.7,1.1,3.726,1.517C824.75,557.146,825.453,557.427,825.453,557.427Z" transform="translate(-804.79 -550.37)" fill="#f2e6d6"/>
              </g>
            </g>
          </g>
          <g id="Group_730" data-name="Group 730" transform="translate(2.009 3.726)">
            <g id="Group_729" data-name="Group 729">
              <g id="Group_728" data-name="Group 728">
                <path id="Path_320" data-name="Path 320" d="M817.037,552.958c.3.161,2.752,1.168,5.243,2.19v0a3.305,3.305,0,0,1-.813.817c-.981.619-3.214-.08-5.119-1.095-1.453-.773-5.9-1.249-7.938-1.433.167-.8.285-1.339.285-1.339a10.32,10.32,0,0,1,5.119,1.095c-.288-1.3,2-2.846,2-2.846S816.4,552.62,817.037,552.958Z" transform="translate(-808.41 -550.35)"/>
              </g>
            </g>
          </g>
          <g id="Group_733" data-name="Group 733" transform="translate(0 9.131)">
            <g id="Group_732" data-name="Group 732">
              <g id="Group_731" data-name="Group 731">
                <path id="Path_321" data-name="Path 321" d="M807.485,571.638c-2.929-.007-5.075-.023-5.075-.023a49.578,49.578,0,0,1,.88-5.109,3.547,3.547,0,0,1,1.654.244C806.9,567.56,808.175,570.208,807.485,571.638Z" transform="translate(-802.41 -566.493)" fill="#1b2e4e"/>
              </g>
            </g>
          </g>
          <g id="Group_736" data-name="Group 736" transform="translate(9.799 8.564)">
            <g id="Group_735" data-name="Group 735">
              <g id="Group_734" data-name="Group 734">
                <path id="Path_322" data-name="Path 322" d="M843.344,567.087a4.105,4.105,0,0,1-2.635,2.561c-.472.151-4.757.194-9.029.2.539-.793,1.738-1.57,4.359-1.691,5.625-.251,5.932.569,4.972-.68-.86-1.118-3.08-1.369-3.15-2.675,1.349.566,2.7,1.128,3.726,1.557Z" transform="translate(-831.68 -564.8)"/>
              </g>
            </g>
          </g>
          <g id="Group_740" data-name="Group 740" transform="translate(10.064 6.415)">
            <g id="Group_739" data-name="Group 739">
              <g id="Group_738" data-name="Group 738">
                <g id="Group_737" data-name="Group 737">
                  <path id="Path_323" data-name="Path 323" d="M833.96,558.7l-.747,1.145a.4.4,0,0,1-.348.184.414.414,0,0,1-.211-.067.4.4,0,0,1-.117-.559l.67-1.028C833.371,558.454,833.629,558.564,833.96,558.7Z" transform="translate(-832.47 -558.38)" fill="#fff"/>
                </g>
              </g>
            </g>
          </g>
          <g id="Group_744" data-name="Group 744" transform="translate(11.537 7.027)">
            <g id="Group_743" data-name="Group 743">
              <g id="Group_742" data-name="Group 742">
                <g id="Group_741" data-name="Group 741">
                  <path id="Path_324" data-name="Path 324" d="M838.343,560.525l-.73,1.118a.4.4,0,0,1-.348.184.413.413,0,0,1-.211-.067.4.4,0,0,1-.117-.559l.646-.991C837.818,560.31,838.072,560.414,838.343,560.525Z" transform="translate(-836.87 -560.21)" fill="#fff"/>
                </g>
              </g>
            </g>
          </g>
          <g id="Group_748" data-name="Group 748" transform="translate(13.147 7.647)">
            <g id="Group_747" data-name="Group 747">
              <g id="Group_746" data-name="Group 746">
                <g id="Group_745" data-name="Group 745">
                  <path id="Path_325" data-name="Path 325" d="M843.039,562.375l-.616.948a.4.4,0,0,1-.348.184.413.413,0,0,1-.211-.067.4.4,0,0,1-.117-.559l.532-.82C842.527,562.164,842.782,562.268,843.039,562.375Z" transform="translate(-841.68 -562.06)" fill="#fff"/>
                </g>
              </g>
            </g>
          </g>
        </g>
        <g id="Group_751" data-name="Group 751" transform="translate(10.963 41.401)">
          <g id="Group_750" data-name="Group 750">
            <path id="Path_326" data-name="Path 326" d="M794.95,389.541a102.889,102.889,0,0,1-4.831,21.5c-1.366-.06-2.739-.121-4.108-.184-.134,0-.268-.01-.405-.017a.692.692,0,0,0-.084,0q-2.39-.11-4.777-.214c-.5-.023-1-.047-1.5-.067l.984-5.049,3.01-15.434,1.8-9.237q-1.979-2.873-3.961-5.748l-8.728-12.675q-2.476-3.6-4.952-7.188,1.481-1.677,2.966-3.355c.626-.706,1.252-1.419,1.878-2.126q2.17-2.456,4.336-4.908c3.7,6.271,6.83,11.229,8.939,14.5,6.12,9.485,8.567,12.414,9.665,18.119C795.891,381.111,795.576,383.974,794.95,389.541Z" transform="translate(-767.4 -344.84)" fill="#705247"/>
          </g>
        </g>
        <g id="Group_754" data-name="Group 754" transform="translate(17.046 48.753)">
          <g id="Group_753" data-name="Group 753">
            <g id="Group_752" data-name="Group 752">
              <path id="Path_327" data-name="Path 327" d="M802.564,394.139c-.214,3.03-3.753,26.6-4.469,31.33-.134,0-.268-.01-.405-.017a.691.691,0,0,0-.084,0c.693-4.6,4.259-28.32,4.473-31.343.188-2.608-10.717-18.819-16.509-27.028l.4-.278C786.655,367.778,802.808,390.711,802.564,394.139Z" transform="translate(-785.57 -366.8)" fill="#382a28"/>
            </g>
          </g>
        </g>
        <g id="Group_756" data-name="Group 756" transform="translate(13.383 45.515)">
          <g id="Group_755" data-name="Group 755">
            <path id="Path_328" data-name="Path 328" d="M785.892,383.274,777.164,370.6l-1.982-10.543-.552-2.926,2.427.8,1.969.65S785.069,375.148,785.892,383.274Z" transform="translate(-774.63 -357.13)" fill="#382a28"/>
          </g>
        </g>
        <g id="Group_758" data-name="Group 758" transform="translate(23.792 86.641)">
          <g id="Group_757" data-name="Group 757">
            <path id="Path_329" data-name="Path 329" d="M811.1,500.734q-2.431-.11-4.861-.214l-.516-5.116,3.01-15.434S810.538,494.276,811.1,500.734Z" transform="translate(-805.72 -479.97)" fill="#382a28"/>
          </g>
        </g>
        <g id="Group_789" data-name="Group 789" transform="translate(17.692 107.84)">
          <g id="Group_761" data-name="Group 761" transform="translate(0.134 9.299)">
            <g id="Group_760" data-name="Group 760">
              <g id="Group_759" data-name="Group 759">
                <path id="Path_330" data-name="Path 330" d="M787.923,574.063l-.024.964s17.051.11,18.665-.167,3.274-2.169,3.3-3.134-1.255-.589-1.255-.589Z" transform="translate(-787.9 -571.066)"/>
              </g>
            </g>
          </g>
          <g id="Group_764" data-name="Group 764" transform="translate(2.29)">
            <g id="Group_763" data-name="Group 763">
              <g id="Group_762" data-name="Group 762">
                <path id="Path_331" data-name="Path 331" d="M794.34,547.6l.1-3.914,6.615-.4-.087,3.482-.887,2.9Z" transform="translate(-794.34 -543.29)" fill="#f2e6d6"/>
              </g>
            </g>
          </g>
          <g id="Group_767" data-name="Group 767" transform="translate(0.797 2.565)">
            <g id="Group_766" data-name="Group 766">
              <g id="Group_765" data-name="Group 765">
                <path id="Path_332" data-name="Path 332" d="M810.543,558.007a4.08,4.08,0,0,1-2.638,2.508c-.472.147-4.757.194-9.029.2h-.321c-1.523.007-3.03,0-4.356,0-2.491-.007-4.319-.017-4.319-.017a43.9,43.9,0,0,1,.753-4.449c.161-.814.325-1.594.455-2.22.167-.8.285-1.339.285-1.339a10.263,10.263,0,0,1,5.119,1.1c-.288-1.292,2.005-2.842,2.005-2.842s.586,2.267,1.219,2.6l.167.08c.161.074.422.184.753.325.2.087.439.181.693.291.234.1.489.2.76.311.238.1.482.2.737.308l.763.311c.445.181.907.372,1.369.563a1.039,1.039,0,0,0,.107.044c1.349.552,2.7,1.1,3.726,1.517C809.84,557.723,810.543,558.007,810.543,558.007Z" transform="translate(-789.88 -550.95)" fill="#f2e6d6"/>
              </g>
            </g>
          </g>
          <g id="Group_770" data-name="Group 770" transform="translate(2.009 2.558)">
            <g id="Group_769" data-name="Group 769">
              <g id="Group_768" data-name="Group 768">
                <path id="Path_333" data-name="Path 333" d="M802.128,553.538c.3.161,2.752,1.168,5.243,2.19v0a3.3,3.3,0,0,1-.814.817c-.981.619-3.214-.08-5.119-1.095-1.453-.773-5.9-1.249-7.938-1.433.167-.8.285-1.339.285-1.339a10.319,10.319,0,0,1,5.119,1.095c-.288-1.3,2-2.846,2-2.846S801.491,553.2,802.128,553.538Z" transform="translate(-793.5 -550.93)"/>
              </g>
            </g>
          </g>
          <g id="Group_773" data-name="Group 773" transform="translate(0 7.962)">
            <g id="Group_772" data-name="Group 772">
              <g id="Group_771" data-name="Group 771">
                <path id="Path_334" data-name="Path 334" d="M792.575,572.217c-2.929-.007-5.075-.023-5.075-.023a49.578,49.578,0,0,1,.88-5.109,3.546,3.546,0,0,1,1.654.244C791.986,568.136,793.265,570.785,792.575,572.217Z" transform="translate(-787.5 -567.073)"/>
              </g>
            </g>
          </g>
          <g id="Group_776" data-name="Group 776" transform="translate(9.799 7.396)">
            <g id="Group_775" data-name="Group 775">
              <g id="Group_774" data-name="Group 774">
                <path id="Path_335" data-name="Path 335" d="M828.434,567.667a4.106,4.106,0,0,1-2.635,2.561c-.472.151-4.757.194-9.029.2.539-.793,1.738-1.57,4.359-1.691,5.625-.251,5.933.569,4.972-.68-.86-1.118-3.08-1.369-3.15-2.675,1.349.566,2.7,1.128,3.726,1.557Z" transform="translate(-816.77 -565.38)"/>
              </g>
            </g>
          </g>
          <g id="Group_780" data-name="Group 780" transform="translate(10.064 5.243)">
            <g id="Group_779" data-name="Group 779">
              <g id="Group_778" data-name="Group 778">
                <g id="Group_777" data-name="Group 777">
                  <path id="Path_336" data-name="Path 336" d="M819.05,559.275l-.747,1.145a.4.4,0,0,1-.348.184.411.411,0,0,1-.211-.067.4.4,0,0,1-.117-.559l.67-1.028C818.461,559.024,818.719,559.134,819.05,559.275Z" transform="translate(-817.56 -558.95)" fill="#fff"/>
                </g>
              </g>
            </g>
          </g>
          <g id="Group_784" data-name="Group 784" transform="translate(11.537 5.859)">
            <g id="Group_783" data-name="Group 783">
              <g id="Group_782" data-name="Group 782">
                <g id="Group_781" data-name="Group 781">
                  <path id="Path_337" data-name="Path 337" d="M823.433,561.1l-.73,1.118a.4.4,0,0,1-.348.184.413.413,0,0,1-.211-.067.4.4,0,0,1-.117-.559l.646-.991C822.908,560.887,823.162,560.994,823.433,561.1Z" transform="translate(-821.96 -560.79)" fill="#fff"/>
                </g>
              </g>
            </g>
          </g>
          <g id="Group_788" data-name="Group 788" transform="translate(13.147 6.478)">
            <g id="Group_787" data-name="Group 787">
              <g id="Group_786" data-name="Group 786">
                <g id="Group_785" data-name="Group 785">
                  <path id="Path_338" data-name="Path 338" d="M828.13,562.955l-.616.947a.4.4,0,0,1-.348.184.413.413,0,0,1-.211-.067.4.4,0,0,1-.117-.559l.532-.82C827.617,562.74,827.868,562.848,828.13,562.955Z" transform="translate(-826.77 -562.64)" fill="#fff"/>
                </g>
              </g>
            </g>
          </g>
        </g>
        <g id="Group_791" data-name="Group 791" transform="translate(2.514 41.166)">
          <g id="Group_790" data-name="Group 790">
            <path id="Path_339" data-name="Path 339" d="M763.7,379.655c-.1-.459-.489-2.193-1.051-4.784-.84-3.863-2.086-9.679-3.505-16.719-.512-2.538-.924-4.637-1.2-6.04-.037-.043-.09-.107-.154-.177q-.542-3.053-1.085-6.1l-11.326-1.691a7.612,7.612,0,0,0-2.856,3.78c-.4,1.165-.656,2.819.308,6.127a26.967,26.967,0,0,0,3.251,7.057q2.456,9.034,4.908,18.069c1.312,4.828,2.554,9.92,4.078,16.669,1.553,6.88,2.708,12.739,3.529,17.155a7.93,7.93,0,0,0,8.939-1.446C766.354,394.506,764.908,385.145,763.7,379.655Z" transform="translate(-742.163 -344.14)" fill="#705247"/>
          </g>
        </g>
        <g id="Group_793" data-name="Group 793" transform="translate(8.364 46.918)">
          <g id="Group_792" data-name="Group 792" transform="translate(0 0)">
            <rect id="Rectangle_91" data-name="Rectangle 91" width="0.482" height="65.455" transform="translate(0 0.108) rotate(-12.968)" fill="#382a28"/>
          </g>
        </g>
        <g id="Group_795" data-name="Group 795" transform="translate(2.031 41.166)">
          <g id="Group_794" data-name="Group 794">
            <path id="Path_340" data-name="Path 340" d="M761.973,349.614c-14.985,7.164-21.253-.643-21.253-.643v-2.658l2.939-.352,15.179-1.821,1.359,2.374.509.887Z" transform="translate(-740.72 -344.14)" fill="#382a28"/>
          </g>
        </g>
        <g id="Group_797" data-name="Group 797" transform="translate(2.027 42.988)">
          <g id="Group_796" data-name="Group 796">
            <path id="Path_341" data-name="Path 341" d="M760.7,351.016c-1.162,1-3.743,2.538-8.631,2.538a29.988,29.988,0,0,1-11.356-2.461v-1.162l2.939-.352,16.539.552Z" transform="translate(-740.71 -349.58)" fill="#382a28"/>
          </g>
        </g>
        <g id="Group_799" data-name="Group 799" transform="translate(41.174 39.678)">
          <g id="Group_798" data-name="Group 798">
            <path id="Path_342" data-name="Path 342" d="M862.253,343.613l-4.135-.5a4.32,4.32,0,0,1-.3-3.023c.539-1.326,5.129,1.091,5.129,1.091Z" transform="translate(-857.64 -339.693)" fill="#da5724"/>
          </g>
        </g>
        <g id="Group_801" data-name="Group 801" transform="translate(22.838 21.591)">
          <g id="Group_800" data-name="Group 800">
            <path id="Path_343" data-name="Path 343" d="M805.757,303.34a30.631,30.631,0,0,1-2.852-6.214c-.121-4.212.117-9.143.254-11.457.234.077.472.157.717.251C805.315,289.7,808.5,299.249,805.757,303.34Z" transform="translate(-802.871 -285.67)" fill="#382a28"/>
          </g>
        </g>
        <g id="Group_803" data-name="Group 803" transform="translate(0 15.773)">
          <g id="Group_802" data-name="Group 802">
            <path id="Path_344" data-name="Path 344" d="M759.113,287.852c0,.147,0,.295-.01.435,0,.05,0,.1,0,.154s0,.107-.007.161a13.526,13.526,0,0,1-.385,2.742,12.929,12.929,0,0,1-.522,1.617,13.489,13.489,0,0,1-1.369,2.6c-.171.254-.355.516-.562.783a22.035,22.035,0,0,1-3.569,1.406,21.435,21.435,0,0,1-5.979.887c-.593,0-1.205-.02-1.838-.077-.151-.01-.3-.023-.455-.04a20.923,20.923,0,0,1-4.024-.837c-.281-.087-.552-.181-.814-.271a21.6,21.6,0,0,1-3.371-1.547,15.61,15.61,0,0,1-1.229-3.566,14.843,14.843,0,0,1-.241-1.493q-.025-.246-.04-.462a19.981,19.981,0,0,1,.154-3.843,28.166,28.166,0,0,1,.589-3.368c.02-.084.04-.164.057-.244.244-1.021.516-2.156.814-3.428a.167.167,0,0,0,.007-.04v0c.208-.884.429-1.831.666-2.852.05-.211.1-.425.147-.643.4-1.714.83-3.626,1.306-5.755.047-.214.1-.432.144-.653.03-.137.064-.278.094-.418l.01-.05a26.889,26.889,0,0,1,2.648-.5c.241-.034.482-.064.733-.094a27.794,27.794,0,0,1,3.043-.164c.405,0,.817.013,1.239.033a26.792,26.792,0,0,1,5.537.86c.874.231,1.687.489,2.437.763.218.08.432.161.64.244.81.318,1.537.649,2.173.964.382.187.733.375,1.051.549.047,1.53.107,2.889.171,4.031.01.224.023.435.034.643.013.224.023.439.037.639.09,1.48.188,2.8.281,3.984.013.177.027.355.04.526.033.4.064.79.094,1.165,0,.033.007.067.007.1.084,1.041.154,1.969.2,2.822,0,0,0,0,0,0,.03.512.047,1,.057,1.46C759.116,287.336,759.12,287.6,759.113,287.852Z" transform="translate(-734.655 -268.29)" fill="#553e37"/>
          </g>
        </g>
        <g id="Group_806" data-name="Group 806" transform="translate(14.605 11.48)">
          <g id="Group_805" data-name="Group 805">
            <g id="Group_804" data-name="Group 804">
              <path id="Path_345" data-name="Path 345" d="M780.921,256.491c-.1.881-.208,1.764-.311,2.645-2.31-.921-2.33-3.666-2.33-3.666Z" transform="translate(-778.28 -255.47)" fill="#cd7d6c"/>
            </g>
          </g>
        </g>
        <g id="Group_808" data-name="Group 808" transform="translate(0.082 15.923)">
          <g id="Group_807" data-name="Group 807">
            <path id="Path_346" data-name="Path 346" d="M756.3,296.233c-2.936,1.784-3.827,1.205-4.771.589a3.42,3.42,0,0,0-2.113-.72c-.673.023-.984.107-1.155.311a.678.678,0,0,0-.107.576c.043.321.117.86-2.3,1.647a7.518,7.518,0,0,1-.824.218,9.144,9.144,0,0,1-4.67-.439c-1.463-.428-2.729-.8-3.77.355l.462.412c.743-.827,1.587-.629,3.134-.174a9.129,9.129,0,0,0,5.859.214c.3-.1.579-.2.824-.295,1.888-.753,1.982-1.409,1.895-2.026,0-.03-.01-.07-.013-.1a2.325,2.325,0,0,1,.683-.087,2.814,2.814,0,0,1,1.751.619,3.594,3.594,0,0,0,1.66.7,22.044,22.044,0,0,0,3.569-1.406c.208-.268.392-.529.562-.783C756.762,295.962,756.534,296.086,756.3,296.233Zm3.351-11.179a17.57,17.57,0,0,0-.646-2.072,5.369,5.369,0,0,0-.559-1.1,2.735,2.735,0,0,0-.5-.559,3.838,3.838,0,0,0-1.808-.7.349.349,0,0,1-.057-.013,11.494,11.494,0,0,1-3.2-1.125,31.713,31.713,0,0,0-2.9-1.312c-.931-.375-1.667-.676-1.721-.968-.074-.405.984-1.393,1.383-1.764.288-.271.536-.5.743-.683.78-.713.991-.9.9-1.209-.084-.271-.348-.311-.75-.372a7.723,7.723,0,0,1-3.512-1.393c-1.018-.7-1.952-1.242-2.775-1.724a13.233,13.233,0,0,1-2.012-1.319c-.251.03-.5.057-.733.094a8.037,8.037,0,0,0,2.434,1.761c.814.475,1.738,1.014,2.735,1.7a8.456,8.456,0,0,0,3.773,1.493l.064.01c-.134.134-.328.308-.536.5s-.452.415-.743.686c-1.276,1.192-1.671,1.781-1.57,2.33.117.626.86.931,2.1,1.43a30.74,30.74,0,0,1,2.846,1.289,12.281,12.281,0,0,0,3.415,1.2l.228.05a2.909,2.909,0,0,1,1.316.526,1.9,1.9,0,0,1,.188.181,8.12,8.12,0,0,1,1.312,3.227c.064.251.121.482.164.693,0,0,0,0,0,0,.3,1.4.224,2,.063,2.243a.424.424,0,0,1-.07.08c-.251.218-.83.077-1.53-.177-.318-.117-.663-.261-1.014-.405-.6-.251-1.282-.532-1.975-.747-1.369-.429-1.6-.894-1.694-1.095a.44.44,0,0,0-.311-.285c-.208-.037-.328.077-.616.358-.214.208-.576.559-1.189,1.081-1.051.9-1.835,1.486-2.25,1.433-.3-.04-.586-.465-1.018-1.108-.177-.261-.375-.559-.619-.891a4.547,4.547,0,0,1-.646-2.816c0-.3.013-.613.023-.934a10.967,10.967,0,0,0-1.008-5.926,13.16,13.16,0,0,0-.887-1.47,6.156,6.156,0,0,0-1.51-1.54c-.485-.365-.666-.5-.666-1.6a2.164,2.164,0,0,0-1.055-1.985,3.845,3.845,0,0,0-2.5-.325,8.232,8.232,0,0,0-1.671.445l0,0a4.007,4.007,0,0,0-.706.981,8.952,8.952,0,0,1,2.236-.773,3.45,3.45,0,0,1,2.337.208,1.553,1.553,0,0,1,.747,1.45c0,1.346.315,1.644.914,2.092a7.178,7.178,0,0,1,2.22,2.806c.077.147.147.291.214.435a0,0,0,0,0,0,0v0a8.759,8.759,0,0,1,.737,3.395v0c.023.613,0,1.209-.017,1.774-.05,1.53-.1,2.98.743,4.135.234.321.429.613.6.87.526.783.874,1.3,1.45,1.379.653.09,1.436-.462,2.742-1.577.623-.536.994-.894,1.215-1.1l.047-.047a3.242,3.242,0,0,0,1.955,1.212c.666.208,1.3.472,1.925.726.522.218,1.008.415,1.44.549a3.831,3.831,0,0,0,.576.147,1.66,1.66,0,0,0,.817-.02,1.029,1.029,0,0,0,.358-.2,1.07,1.07,0,0,0,.271-.372C760.157,287.729,760.076,286.7,759.648,285.054Zm-11.061,4.587a13.088,13.088,0,0,0-4.878-2.193c-1.945-.536-2.966-.887-3.06-2.337-.08-1.185.787-1.7,1.624-2.206.639-.382,1.239-.743,1.309-1.389.06-.559-.3-1.168-1.168-1.985-1.855-1.738-1.958-1.8-2.33-1.821-.144-.007-.445-.023-1.851-.9-.315-.2-.629-.4-.937-.6-.479-.315-.937-.629-1.343-.941.03.281.06.559.094.837.345.251.716.5,1.1.747.248.161.5.318.76.479,1.54.964,1.888.984,2.143,1,.141.007.275.09,1.942,1.651.686.643,1.014,1.138.981,1.466s-.489.609-1.011.924c-.857.512-2.029,1.215-1.925,2.779.131,1.958,1.7,2.39,3.515,2.893a12.429,12.429,0,0,1,4.664,2.082c.569.445,1.172,1.071.813,1.547a.087.087,0,0,1-.017.02c-.817,1.024-4.711,1.1-6.083.107a2.131,2.131,0,0,1-.191-.154,7.872,7.872,0,0,1-1.527-2.166c-.606-1.1-1.185-2.136-2.153-2.394a1.87,1.87,0,0,0-.83-.023,3.157,3.157,0,0,0-1.034.422,3.719,3.719,0,0,0-1.6,3.556,5.058,5.058,0,0,0,.365,1.614,17.271,17.271,0,0,1-1.061-1.563,14.2,14.2,0,0,0,.241,1.493c.365.516.837,1.118,1.453,1.838l.137.157a16.986,16.986,0,0,0,3.013,3.117,1.7,1.7,0,0,0,.813.271,4.761,4.761,0,0,0,2.213-.787c.244-.127.512-.265.813-.415a2.078,2.078,0,0,0,1.389-1.871,2.538,2.538,0,0,0-1.607-2.1,3.772,3.772,0,0,0-4.044.549,1.582,1.582,0,0,1-1.674.385A3.2,3.2,0,0,1,736.216,291a3.12,3.12,0,0,1,1.3-2.986,2.343,2.343,0,0,1,.981-.365,1.057,1.057,0,0,1,.4.034c.716.191,1.229,1.115,1.771,2.1.244.439.489.884.763,1.292a0,0,0,0,1,0,0,4.767,4.767,0,0,0,1.128,1.225c1.681,1.215,5.976,1.055,6.96-.258a1.125,1.125,0,0,0,.218-.5C749.815,291.094,749.621,290.445,748.586,289.641Zm-11.2,4.66a2.148,2.148,0,0,0,2.313-.469,3.169,3.169,0,0,1,3.391-.472,1.93,1.93,0,0,1,1.249,1.55c.007.509-.358.964-1.048,1.309-.3.151-.576.291-.82.419-1.249.649-1.707.86-2.25.616-.64-.285-1.433-1.205-3-3.037A1.27,1.27,0,0,0,737.391,294.3Zm21.162-17.633a10.141,10.141,0,0,1-2.283.506,6.621,6.621,0,0,1-.917.013,1.262,1.262,0,0,1-.911-.331c-.341-.368-.261-.927-.134-1.855.067-.5.161-1.138.208-1.925a19.315,19.315,0,0,0,0-2.454c0-.08-.007-.161-.013-.244,0-.047-.007-.094-.013-.144.218.08.432.161.639.244.007.094.013.184.017.275a20.932,20.932,0,0,1-.218,4.326.01.01,0,0,0,0,.007c-.094.666-.167,1.2-.027,1.346a.573.573,0,0,0,.328.117,5.628,5.628,0,0,0,1.008,0,10.147,10.147,0,0,0,2.29-.529Z" transform="translate(-734.9 -268.74)" fill="#b8432a"/>
          </g>
        </g>
        <g id="Group_815" data-name="Group 815" transform="translate(24.26 28.141)">
          <g id="Group_811" data-name="Group 811" transform="translate(0 1.16)">
            <g id="Group_810" data-name="Group 810">
              <g id="Group_809" data-name="Group 809">
                <path id="Path_347" data-name="Path 347" d="M820.373,311.157a.326.326,0,0,1,0,.271c-.167.285-.991.087-1.363,0-1.071-.254-2.387-.559-3.957-.931a12.3,12.3,0,0,1,1.232.914,2.107,2.107,0,0,1,.556.676,1.372,1.372,0,0,1,.067.4.557.557,0,0,1-.134.462.451.451,0,0,1-.4.067.92.92,0,0,1,.264.727.93.93,0,0,1-.4.663.835.835,0,0,1-.067.663.948.948,0,0,1-.663.331c-1.356.275-2.036.408-2.32.067a.5.5,0,0,1-.134-.331.683.683,0,0,1,.362-.489,4.039,4.039,0,0,1,1.493-.505,13.7,13.7,0,0,1-3.355-.281c-.378-.08-.713-.167-1-.254-1.6-.472-2.819-.83-3.271-1.908a3.52,3.52,0,0,1,.546-3c.71.064,1.774.147,3.077.2,1.359.06,1.389.02,2.1.07a25.753,25.753,0,0,1,4.362.817C818.318,310.019,820.139,310.474,820.373,311.157Z" transform="translate(-807.118 -308.7)" fill="#da5724"/>
              </g>
            </g>
          </g>
          <g id="Group_814" data-name="Group 814" transform="translate(2.625)">
            <g id="Group_813" data-name="Group 813">
              <g id="Group_812" data-name="Group 812">
                <path id="Path_348" data-name="Path 348" d="M814.96,306.673a9.122,9.122,0,0,1,1.908-.817c.415-.124.295-.057,1.091-.271,1.065-.288,1.466-.459,1.634-.271a.556.556,0,0,1,0,.546c-.208.452-1.014.77-1.152.9l-.087.08a1.139,1.139,0,0,0-.124.117C817.96,307.219,816.6,308.31,814.96,306.673Z" transform="translate(-814.96 -305.235)" fill="#da5724"/>
              </g>
            </g>
          </g>
        </g>
        <g id="Group_834" data-name="Group 834" transform="translate(20.39 23.463)">
          <g id="Group_818" data-name="Group 818" transform="translate(12.19)">
            <g id="Group_817" data-name="Group 817">
              <g id="Group_816" data-name="Group 816">
                <path id="Path_349" data-name="Path 349" d="M861.8,291.585l-6.411,14.751a.177.177,0,0,1-.154.117H832.147c-.137,0-.224-.187-.151-.335l7.171-14.751a.175.175,0,0,1,.151-.107h22.327C861.776,291.257,861.863,291.437,861.8,291.585Z" transform="translate(-831.97 -291.26)" fill="#382a28"/>
              </g>
            </g>
          </g>
          <g id="Group_821" data-name="Group 821" transform="translate(1.095 13.636)">
            <g id="Group_820" data-name="Group 820">
              <g id="Group_819" data-name="Group 819">
                <path id="Path_350" data-name="Path 350" d="M798.83,333.543l.559-1.553h2.29l.321,1.637Z" transform="translate(-798.83 -331.99)" fill="#705247"/>
              </g>
            </g>
          </g>
          <g id="Group_824" data-name="Group 824" transform="translate(3.904 13.649)">
            <g id="Group_823" data-name="Group 823">
              <g id="Group_822" data-name="Group 822">
                <path id="Path_351" data-name="Path 351" d="M807.22,333.583l.556-1.553h2.293l.318,1.637Z" transform="translate(-807.22 -332.03)" fill="#705247"/>
              </g>
            </g>
          </g>
          <g id="Group_827" data-name="Group 827" transform="translate(6.836 13.649)">
            <g id="Group_826" data-name="Group 826">
              <g id="Group_825" data-name="Group 825">
                <path id="Path_352" data-name="Path 352" d="M815.98,333.583l.559-1.553h2.29l.321,1.637Z" transform="translate(-815.98 -332.03)" fill="#705247"/>
              </g>
            </g>
          </g>
          <g id="Group_830" data-name="Group 830" transform="translate(9.685 13.649)">
            <g id="Group_829" data-name="Group 829">
              <g id="Group_828" data-name="Group 828">
                <path id="Path_353" data-name="Path 353" d="M824.49,333.583l.559-1.553h2.29l.321,1.637Z" transform="translate(-824.49 -332.03)" fill="#705247"/>
              </g>
            </g>
          </g>
          <g id="Group_833" data-name="Group 833" transform="translate(0 14.858)">
            <g id="Group_832" data-name="Group 832">
              <g id="Group_831" data-name="Group 831">
                <rect id="Rectangle_92" data-name="Rectangle 92" width="35.582" height="2.236" fill="#382a28"/>
              </g>
            </g>
          </g>
        </g>
        <g id="Group_839" data-name="Group 839" transform="translate(0.778 19.331)">
          <g id="Group_836" data-name="Group 836" transform="translate(7.821)">
            <g id="Group_835" data-name="Group 835">
              <path id="Path_354" data-name="Path 354" d="M775.935,289.854l-13.71,1.959L760.34,278.92s2.852,6.853,3.817,8.544l.968,1.691,10.67-1.088Q775.869,289.011,775.935,289.854Z" transform="translate(-760.34 -278.92)" fill="#382a28"/>
            </g>
          </g>
          <g id="Group_838" data-name="Group 838" transform="translate(0 7.606)">
            <g id="Group_837" data-name="Group 837">
              <path id="Path_355" data-name="Path 355" d="M760.656,309.253c-3.254.941-12.009,2.973-15.9-1.115a82.177,82.177,0,0,0-6.9-6.5c-.3,1.272-.569,2.407-.814,3.428-.02.084-.04.161-.057.248.79,3.833,2.444,8.7,5.842,9.829,4.714,1.57,14.376-2.816,17.824-4.516Z" transform="translate(-736.98 -301.64)" fill="#382a28"/>
            </g>
          </g>
        </g>
        <g id="Group_842" data-name="Group 842" transform="translate(0.942 16.557)">
          <g id="Group_841" data-name="Group 841">
            <g id="Group_840" data-name="Group 840">
              <path id="Path_356" data-name="Path 356" d="M762.958,288.958c-.388.188-.844.4-1.363.629-.2.084-.4.174-.619.261-.261.111-.539.218-.827.331-.157.064-.315.121-.482.181-.02.007-.04.017-.064.023-.3.11-.609.221-.931.331-.177.06-.358.121-.546.181-.984.315-2,.639-3.016.947-.308.094-.616.187-.924.271-.917.261-1.838.5-2.742.7-.244.05-.489.1-.733.147a13.06,13.06,0,0,1-6.277-.047,6.424,6.424,0,0,1-1.3-.569,0,0,0,0,0,0,0,5.564,5.564,0,0,1-.713-.482A8.031,8.031,0,0,1,740.232,289l-.04-.08c-.074-.157-.147-.318-.218-.482-.017-.037-.03-.07-.047-.1a16.771,16.771,0,0,1-.673-1.945c-.057-.2-.114-.4-.164-.6a41.9,41.9,0,0,1-.907-4.811v0c-.161-1.165-.3-2.37-.435-3.6-.034-.278-.064-.556-.094-.837-.023-.2-.044-.4-.067-.606v-.013a4.136,4.136,0,0,1-.117-1,5.3,5.3,0,0,1,.6-2.427,4.075,4.075,0,0,1,.649-.921c.02-.02.04-.04.057-.06l0,0a3.1,3.1,0,0,1,.693-.526,2.658,2.658,0,0,1,.295-.144,2.766,2.766,0,0,1,.78-.191,5.215,5.215,0,0,1,3.324,1.158c.067.05.127.1.191.161a4.4,4.4,0,0,1,.462.472,0,0,0,0,1,0,0,10.886,10.886,0,0,1,1.661,4.071c.11.408.224.85.341,1.336.067.271.137.559.208.86a0,0,0,0,0,0,0v0c.234.988.485,2.126.737,3.395v0c.057.291.117.589.174.894q.065.346.131.7c.067.372.134.753.2,1.142l.077-.01c.663-.094,1.319-.187,1.982-.278.244-.034.492-.067.737-.1l7.034-.984c.11-.017.221-.03.331-.047l1.215-.171a.848.848,0,0,0,.09-.013l.706-.1c.154-.02.311-.044.469-.064l.271-.04.727-.1.134-.02c.027.057.057.117.084.181.121.268.248.569.365.9a12.17,12.17,0,0,1,.516,1.821c.06.288.107.572.144.844a11.464,11.464,0,0,1,.1,1.245C762.978,288.292,762.971,288.643,762.958,288.958Z" transform="translate(-737.47 -270.633)" fill="#553e37"/>
            </g>
          </g>
        </g>
        <g id="Group_844" data-name="Group 844" transform="translate(42.512 35.591)">
          <g id="Group_843" data-name="Group 843">
            <path id="Path_357" data-name="Path 357" d="M861.637,333.374s.348-4.875.867-4.429.3,3.853.3,3.853.07-5.337.83-4.911.392,5.059.392,5.059l.241-.02c.268-1.634.385-2.829.442-3.669.037-.539.09-1.567.593-1.741a.485.485,0,0,1,.241-.02c.355.09.6,1.225.188,5.558l.482-.037s.589-4.891,1.091-4.69.114,4.6.114,4.6c-.033.177-.007.224.02.241.234.141,1.349-1.825,2.056-1.614a.449.449,0,0,1,.261.221c.107.238-.141.432-.408,1-.285.606-.248.914-.629,1.259-.067.06-.127.1-.194.151a6.49,6.49,0,0,1-1.9.981,3.6,3.6,0,0,1-2.411.187c-.04-.013-.087-.033-.181-.07-1.245-.516-2.226-.934-2.377-1.667A1.236,1.236,0,0,1,861.637,333.374Z" transform="translate(-861.635 -327.488)" fill="#da5724"/>
          </g>
        </g>
        <g id="Group_849" data-name="Group 849" transform="translate(1.754 16.907)">
          <g id="Group_845" data-name="Group 845">
            <path id="Path_358" data-name="Path 358" d="M740.87,287.08c-.057-.2-.114-.4-.164-.6,2.739-1.055,5.6-2.337,5.745-3.559.07-.6.137-1.416-.094-1.671-.171-.184-.623-.171-1.256-.147a12.059,12.059,0,0,1-3.582-.321c-.623-.157-1.466-.439-1.607-1.1-.184-.88,1-1.8,2.508-2.973a15.77,15.77,0,0,0,3.057-2.816c.207-.295.134-.432.1-.482-.368-.67-2.585-1.008-5.246-1.138.02-.02.04-.04.057-.06l0,0a3.1,3.1,0,0,1,.693-.526,11.244,11.244,0,0,1,4.59.984,1.283,1.283,0,0,1,.445.445.112.112,0,0,1,.013.03,0,0,0,0,1,0,0,1.019,1.019,0,0,1-.161,1.112,16.237,16.237,0,0,1-3.18,2.946c-1.118.867-2.384,1.855-2.28,2.354.03.134.214.392,1.148.626a11.482,11.482,0,0,0,3.415.3c.8-.023,1.369-.044,1.731.348.325.355.4.961.255,2.163C746.88,284.566,743.95,285.9,740.87,287.08Z" transform="translate(-739.893 -271.68)" fill="#b8432a"/>
          </g>
          <g id="Group_846" data-name="Group 846" transform="translate(1.696 12.026)">
            <path id="Path_359" data-name="Path 359" d="M752.754,308.306a35.438,35.438,0,0,1-7.536,5.283l-.04-.08c-.074-.157-.147-.318-.218-.482a34.62,34.62,0,0,0,7.4-5.193c.094-.08.187-.161.278-.234q.065.347.131.7A.012.012,0,0,0,752.754,308.306Z" transform="translate(-744.96 -307.6)" fill="#b8432a"/>
          </g>
          <g id="Group_847" data-name="Group 847" transform="translate(15.613 18.537)">
            <path id="Path_360" data-name="Path 360" d="M790.956,327.437c.352.141.77.3,1.282.472-.3.11-.609.221-.931.331-.214-.084-.405-.157-.579-.228-1.4-.556-1.627-.649-2.98,1.353-.208.3-.435.656-.7,1.061l-.519-.338c.1-.157.2-.3.295-.449C788.676,326.832,789.068,326.684,790.956,327.437Z" transform="translate(-786.53 -327.049)" fill="#b8432a"/>
          </g>
          <g id="Group_848" data-name="Group 848" transform="translate(6.84 12.18)">
            <path id="Path_361" data-name="Path 361" d="M778.167,312.8a22.482,22.482,0,0,0-2.544-3.16,2.321,2.321,0,0,0-1.714-.954c-.79.067-1.43,1.035-2,1.885-.536.814-1,1.513-1.634,1.617a1.022,1.022,0,0,1-.824-.244c-.663-.516-1.175-.054-2.471,1.389a13.317,13.317,0,0,1-4.868,3.82c-.817.331-1.416.485-1.687.134-.345-.452.144-1.135,1.6-3.05a32,32,0,0,0,3.2-4.781c.244-.033.492-.067.737-.1a30.189,30.189,0,0,1-3.448,5.263,14.823,14.823,0,0,0-1.553,2.25,3.676,3.676,0,0,0,.911-.288,12.625,12.625,0,0,0,4.64-3.659c1.145-1.279,2.136-2.384,3.314-1.466a.431.431,0,0,0,.345.121c.362-.06.8-.716,1.215-1.346a6.22,6.22,0,0,1,1.61-1.861,1.9,1.9,0,0,1,.844-.3,1.764,1.764,0,0,1,.7.084,3.739,3.739,0,0,1,1.513,1.061,27.5,27.5,0,0,1,1.989,2.344A10.92,10.92,0,0,1,778.167,312.8Z" transform="translate(-760.324 -308.061)" fill="#b8432a"/>
          </g>
        </g>
        <g id="Group_850" data-name="Group 850" transform="translate(10.454 15.766)">
          <path id="Path_362" data-name="Path 362" d="M772.519,270.768c-.5,1.152-2.387,1.888-3.927,1.446a4.057,4.057,0,0,1-2.712-3.944c.405,0,.817.013,1.239.033a26.79,26.79,0,0,1,5.537.86A3.206,3.206,0,0,1,772.519,270.768Z" transform="translate(-765.88 -268.27)" fill="#382a28"/>
        </g>
        <g id="Group_853" data-name="Group 853" transform="translate(10.185 3.687)">
          <g id="Group_852" data-name="Group 852">
            <g id="Group_851" data-name="Group 851">
              <path id="Path_363" data-name="Path 363" d="M765.573,232.19c-.177.512-1.158,3.455.254,5.842a5.184,5.184,0,0,0,2.082,1.945c3.884,1.972,1.577-6.127,1.577-6.127Q767.533,233.022,765.573,232.19Z" transform="translate(-765.077 -232.19)" fill="#382a28"/>
            </g>
          </g>
        </g>
        <g id="Group_856" data-name="Group 856" transform="translate(11.612 6.402)">
          <g id="Group_855" data-name="Group 855">
            <g id="Group_854" data-name="Group 854">
              <path id="Path_364" data-name="Path 364" d="M775.631,240.846q-.3,2.461-.589,4.918c-.094.78-.188,1.563-.281,2.344s-.184,1.537-.275,2.307a2.929,2.929,0,0,1-2.183,1.366,3.039,3.039,0,0,1-2.963-1.751l1-9.729Z" transform="translate(-769.34 -240.3)" fill="#da5724"/>
            </g>
          </g>
        </g>
        <g id="Group_859" data-name="Group 859" transform="translate(11.467 7.485)">
          <g id="Group_858" data-name="Group 858">
            <g id="Group_857" data-name="Group 857">
              <path id="Path_365" data-name="Path 365" d="M770.778,244.571a.939.939,0,1,1-.837-1.031A.94.94,0,0,1,770.778,244.571Z" transform="translate(-768.905 -243.535)" fill="#da5724"/>
            </g>
          </g>
        </g>
        <g id="Group_862" data-name="Group 862" transform="translate(12.611 2.091)">
          <g id="Group_861" data-name="Group 861">
            <g id="Group_860" data-name="Group 860">
              <path id="Path_366" data-name="Path 366" d="M772.892,235.408s1.825,3.646,5,3.345,1.651-9.89,1.651-9.89-5.062-2.725-6.532-.673S772.892,235.408,772.892,235.408Z" transform="translate(-772.324 -227.424)" fill="#da5724"/>
            </g>
          </g>
        </g>
        <g id="Group_866" data-name="Group 866" transform="translate(16.264 7.283)">
          <g id="Group_865" data-name="Group 865">
            <g id="Group_864" data-name="Group 864">
              <g id="Group_863" data-name="Group 863">
                <path id="Path_367" data-name="Path 367" d="M783.859,243.281a.313.313,0,1,1-.278-.345A.311.311,0,0,1,783.859,243.281Z" transform="translate(-783.234 -242.934)" fill="#322223"/>
              </g>
            </g>
          </g>
        </g>
        <g id="Group_870" data-name="Group 870" transform="translate(19.063 7.571)">
          <g id="Group_869" data-name="Group 869">
            <g id="Group_868" data-name="Group 868">
              <g id="Group_867" data-name="Group 867">
                <path id="Path_368" data-name="Path 368" d="M792.219,244.141a.313.313,0,1,1-.278-.345A.314.314,0,0,1,792.219,244.141Z" transform="translate(-791.594 -243.794)" fill="#322223"/>
              </g>
            </g>
          </g>
        </g>
        <g id="Group_874" data-name="Group 874" transform="translate(15.873 6.17)">
          <g id="Group_873" data-name="Group 873">
            <g id="Group_872" data-name="Group 872">
              <g id="Group_871" data-name="Group 871">
                <path id="Path_369" data-name="Path 369" d="M782.2,240.035a.151.151,0,0,1-.131-.1.155.155,0,0,1,.1-.2,2.178,2.178,0,0,1,1.3-.034.157.157,0,0,1-.117.291,1.879,1.879,0,0,0-1.081.04A.231.231,0,0,1,782.2,240.035Z" transform="translate(-782.065 -239.609)" fill="#322223"/>
              </g>
            </g>
          </g>
        </g>
        <g id="Group_878" data-name="Group 878" transform="translate(18.684 6.405)">
          <g id="Group_877" data-name="Group 877">
            <g id="Group_876" data-name="Group 876">
              <g id="Group_875" data-name="Group 875">
                <path id="Path_370" data-name="Path 370" d="M791.762,240.912a.2.2,0,0,1-.064-.02,1.883,1.883,0,0,0-1.051-.258.156.156,0,0,1-.054-.308,2.173,2.173,0,0,1,1.266.3.155.155,0,0,1-.1.288Z" transform="translate(-790.464 -240.31)" fill="#322223"/>
              </g>
            </g>
          </g>
        </g>
        <g id="Group_882" data-name="Group 882" transform="translate(17.622 7.754)">
          <g id="Group_881" data-name="Group 881">
            <g id="Group_880" data-name="Group 880">
              <g id="Group_879" data-name="Group 879">
                <path id="Path_371" data-name="Path 371" d="M787.29,246.315l.013-.271c.743.037.827-.114.834-.131.017-.04-.034-.131-.094-.241a3.25,3.25,0,0,1-.154-.308,2.853,2.853,0,0,1-.224-1.014l.271-.01a2.547,2.547,0,0,0,.2.917c.05.114.1.208.141.285.094.177.171.315.107.472C788.294,246.252,787.946,246.349,787.29,246.315Z" transform="translate(-787.29 -244.34)" fill="#322223"/>
              </g>
            </g>
          </g>
        </g>
        <g id="Group_885" data-name="Group 885" transform="translate(11.823 7.829)">
          <g id="Group_884" data-name="Group 884">
            <g id="Group_883" data-name="Group 883">
              <path id="Path_372" data-name="Path 372" d="M770.509,245.59a.115.115,0,0,0,.114-.06.121.121,0,0,0-.047-.161c-.372-.208-.375-.318-.372-.341.013-.09.254-.194.462-.231a.118.118,0,0,0-.044-.231c-.1.017-.6.124-.649.425-.03.194.127.385.489.583A.132.132,0,0,0,770.509,245.59Z" transform="translate(-769.969 -244.563)" fill="#322223"/>
            </g>
          </g>
        </g>
        <g id="Group_888" data-name="Group 888" transform="translate(10.581)">
          <g id="Group_887" data-name="Group 887">
            <g id="Group_886" data-name="Group 886">
              <path id="Path_373" data-name="Path 373" d="M767.874,228.481l.9.408a16.836,16.836,0,0,0,2.313-4.161c.231.057.536.131.9.221.857.214,1.091.278,1.245.315.583.134,2.169.352,2.635-.288.539-.743-.288-2.846-1.861-3.308a2.915,2.915,0,0,0-2.273.412,2.524,2.524,0,0,0-1.239-.827c-1.537-.412-3.455.947-4.041,2.678A4.3,4.3,0,0,0,767.874,228.481Z" transform="translate(-766.261 -221.178)" fill="#382a28"/>
            </g>
          </g>
        </g>
        <g id="Group_889" data-name="Group 889" transform="translate(12.982 5.769)">
          <path id="Path_374" data-name="Path 374" d="M773.9,238.41s.479,2.628,1.2,3.345,4.2.649,5.447,1.041c.017.147.037.365.05.629a8.847,8.847,0,0,1,0,.954,2.982,2.982,0,0,1-.954,2.149,2.629,2.629,0,0,1-1.2.479,4.122,4.122,0,0,1-1.433,0c-1.7-.341-2.769-2.648-2.866-2.866-.482-1.075-.716-5.256-.716-5.256h0Z" transform="translate(-773.43 -238.41)" fill="#382a28"/>
        </g>
        <g id="Group_890" data-name="Group 890" transform="translate(16.323 10.068)">
          <path id="Path_375" data-name="Path 375" d="M785.559,251.729a2.956,2.956,0,0,1-2.149-.479c0,.05.02.733.479.954a1.034,1.034,0,0,0,.716,0,3.471,3.471,0,0,0,.954-.475Z" transform="translate(-783.41 -251.25)" fill="#fff9ed"/>
        </g>
      </g>
    </g>
  </g>
</svg>
