<svg xmlns="http://www.w3.org/2000/svg" xmlns:xlink="http://www.w3.org/1999/xlink" width="252" height="210"><style><![CDATA[.B{fill:#553e37}.C{fill:#382a28}.D{fill:#da5724}.E{fill:#feaf30}.F{fill:#fff9ed}]]></style><path d="M186.173 156.866c-15.513.064-30.295-6.584-40.54-18.233a34.83 34.83 0 0 0-37.578-9.586c-26.105 9.173-55.162 2.206-74.269-17.807-12.452-13.109-18.855-30.827-17.658-48.868C18.261 29.157 45.743 2.495 80.051.349c27.2-1.7 52.886 12.294 65.446 35.646 6.866 12.702 20.73 19.993 35.087 18.45 11.338-1.013 22.732 1.191 32.874 6.36h0c6.895 3.411 15.368 11.611 18.892 18.273 9.261 17.51 9.145 36.562-.317 52.263a53.62 53.62 0 0 1-45.86 25.525zm-66.478-30.507c10.112-.055 19.757 4.247 26.473 11.807a53.36 53.36 0 0 0 85.266-7.188c9.329-15.489 9.438-34.284.3-51.572-3.463-6.553-11.8-14.617-18.582-17.972a59.8 59.8 0 0 0-32.488-6.292c-14.64 1.574-28.778-5.861-35.778-18.815-12.427-23.11-37.856-36.96-64.779-35.276-33.95 2.121-61.151 28.5-63.26 61.36a64.03 64.03 0 0 0 17.466 48.343 69.71 69.71 0 0 0 73.522 17.626c3.81-1.341 7.821-2.024 11.86-2.021z" class="B"/><path d="M173.931 42.568a21.85 21.85 0 0 1-3.041-.217c-4.91-.7-9.261-3.033-11.644-6.24a8.5 8.5 0 0 1-1.788-6.4c.88-5.786 8.337-9.53 16.622-8.349 4.91.7 9.261 3.033 11.644 6.24a8.5 8.5 0 0 1 1.788 6.4h0c-.772 5.062-6.585 8.566-13.581 8.566zm-2.913-20.72c-6.645 0-12.146 3.25-12.865 7.967a7.81 7.81 0 0 0 1.655 5.874c2.274 3.058 6.453 5.287 11.177 5.962 7.9 1.125 15-2.354 15.822-7.758l.35.052-.35-.052a7.81 7.81 0 0 0-1.655-5.874c-2.274-3.058-6.453-5.287-11.178-5.962a21.29 21.29 0 0 0-2.955-.209z" fill="#d2c8bc"/><path d="M80.167 177.823s7.975-10.1 2.125-19.936c0 0 5.316-11.431-5.316-18.876s-9.836 13.556-9.836 13.556-15.151 3.19-12.5 17.011l2.66 13.821s-39.873-51.3-42.532-41.468 2.66 13.821 2.66 13.821-12.226 7.445 0 13.026l12.226 5.581s-8.771 2.925-6.38 9.04 16.481 9.04 16.481 9.04c-8.345 1.892-22.094 5.227-22.6 6.911-.008.024-.181.635-.53 1.86H123.76s-1.86-20.471-17.011-16.216c0 .005-11.165-16.476-26.582-7.171z" fill="#e5e5e4"/><path d="M65.655 184.445l-.486-.217c3.146-7.075 10.282-33.983 10.354-34.252l.514.137c-.072.269-7.22 27.216-10.382 34.332z" class="B"/><path d="M70.909 166.964l9.282-4.124.215.484-9.282 4.124z" class="F"/><g class="B"><path d="M62.518 167.159l.488-.207 4.822 11.386-.488.207zm-5.564 26.096c-5.243-7.863-32.922-36.887-33.2-37.181l.386-.366c.281.293 27.988 29.35 33.259 37.253z"/><path d="M18.621 162.274l.046-.528 12.095 1.064-.046.528z"/></g><path d="M40.305 164.18l.523-.084 1.856 11.576-.523.084z" class="F"/><path d="M30.519 180.603l.127-.514 20.425 5.054-.127.514z" class="B"/><use xlink:href="#B" fill="#acacac"/><use xlink:href="#B" x="-9.02" fill="#fff"/><path d="M198.954 200.732H117.86c-6.088-.007-11.022-4.941-11.029-11.029V12.326c.007-6.088 4.941-11.022 11.029-11.029h81.1c6.088.007 11.022 4.941 11.029 11.029v177.381a11.04 11.04 0 0 1-11.035 11.025zM117.86 2.277c-5.547.006-10.043 4.502-10.049 10.049v177.381c.006 5.547 4.502 10.043 10.049 10.049h81.1c5.547-.006 10.043-4.502 10.049-10.049V12.326c-.006-5.547-4.502-10.043-10.049-10.049z" class="C"/><path d="M216.306 31.202v17.06h-3.921v-17.06a1.96 1.96 0 0 1 1.961-1.917 1.96 1.96 0 0 1 1.961 1.917zm-3.921 20.201h3.921v22.158a1.96 1.96 0 0 1-2.954 1.735 1.96 1.96 0 0 1-.967-1.735zm2.01 71.38h0a1.96 1.96 0 0 1-1.961-1.961v-30a1.96 1.96 0 0 1 1.961-1.961h0a1.96 1.96 0 0 1 1.961 1.961v30a1.96 1.96 0 0 1-1.961 1.961z" fill="#e5e5e4"/><path d="M197.459 192.962h-77.4a8.88 8.88 0 0 1-8.867-8.867V20.068a8.88 8.88 0 0 1 8.867-8.867h77.4a8.88 8.88 0 0 1 8.867 8.867v164.033a8.88 8.88 0 0 1-8.867 8.861zm-77.4-181.174a8.29 8.29 0 0 0-8.281 8.281v164.032a8.29 8.29 0 0 0 8.281 8.281h77.4a8.29 8.29 0 0 0 8.281-8.281V20.068a8.29 8.29 0 0 0-8.281-8.281z" class="C"/><g fill="#1a2e4f"><path d="M116.682 84.779v56.462H199.3V84.779zm82.272 56.121h-81.927V85.125h81.931V140.9z"/><path d="M116.855 95.39H199.3v.346h-82.445zm0 11.636H199.3v.346h-82.445zm0 11.627H199.3v.346h-82.445zm0 11.632H199.3v.346h-82.445z"/><path d="M131.592 84.952h.346v56.173h-.346zm17.18 0h.346v56.173h-.346z"/></g><path fill="#1a2949" d="M165.952 84.952h.346v56.173h-.346z"/><path fill="#1a2e4f" d="M183.132 84.952h.346v56.173h-.346z"/><path d="M198.941 85.462v1.507l-.341.418-19.746 24.215-5.545-14.657-11.258 30.687-12.925-27.024-10.9 18.9h-21.375v-.952h20.824l11.527-19.98 12.739 26.61 11.354-30.965 5.862 15.5 19.446-23.838z" class="D"/><path d="M152.661 20.546h10.659v52.85h-10.659zm-21.837 134.452h61.894v10.659h-61.894z" class="C"/><g class="E"><path d="M191.329 180.31c-.1 6.387-2.23 12.575-6.083 17.67a30.7 30.7 0 0 1-4.058 4.391c-5.143 4.579-11.7 7.259-18.578 7.594-.667.032-1.338.04-2.013.032-9.646-.17-18.631-4.933-24.185-12.821s-7.008-17.954-3.915-27.092c.606-1.784 1.376-3.509 2.3-5.151a30.26 30.26 0 0 1 4.11-5.633c.008-.008.02-.024.032-.036 1.474-1.594 3.117-3.023 4.9-4.263h34.541a30.37 30.37 0 0 1 9.04 9.932 30.01 30.01 0 0 1 3.909 15.377z"/><circle cx="23.693" cy="23.693" r="23.693" transform="matrix(.94925 -.314523 .314523 .94925 131.16 164.75)"/></g><path d="M169.881 180.905a8.92 8.92 0 0 0-4.114-2.444l.008-.345c2.977-1.149 4.484-3.086 4.532-5.79a6.05 6.05 0 0 0-.8-3.258 5.53 5.53 0 0 0-2.121-1.937c-.447-.243-.92-.434-1.41-.57l.028-1.623.064-3.773-3.363-.056-.064 3.833-.02 1.053-2.366-.121h-.153l.016-.936.068-3.877-3.363-.056-.068 3.933-.016.876-5.986-.1c-.055-.01-.112.008-.152.048s-.058.096-.048.152l-.02 1.057c0 .129.06.2.2.2l3.455.4c.055-.008.111.011.15.05s.058.095.05.15l-.4 23.472c.007.055-.012.11-.051.149s-.094.058-.149.051l-3.471.261c-.137 0-.2.072-.2.217l-.02 1.053c0 .133.06.2.2.2l5.983.1-.088 5.155 3.363.056.088-5.155 1.093.02 1.43-.012-.088 5.2 3.363.056.1-5.669a7.92 7.92 0 0 0 4.942-2.989 7.3 7.3 0 0 0 1.366-4.142 6.68 6.68 0 0 0-1.968-4.889zm-8.625-13.082a7.65 7.65 0 0 1 1.326.173 5.89 5.89 0 0 1 2.459 1.085 3.8 3.8 0 0 1 .872.94 4.7 4.7 0 0 1 .683 2.7 5.11 5.11 0 0 1-.776 2.78c-.398.589-.93 1.076-1.551 1.422a6.38 6.38 0 0 1-1.852.671 12.94 12.94 0 0 1-2.527.261h-.659l-1.258-.024c-.055.008-.111-.01-.15-.05s-.058-.095-.05-.15l.165-9.727c-.006-.054.013-.108.052-.146s.094-.055.148-.047l1.559.024.362.02zm4.3 22.54c-1.034.598-2.191.95-3.383 1.029-.621.062-1.244.086-1.868.072l-.655-.012-1.917-.032a.18.18 0 0 1-.2-.2l.2-11.635c-.009-.055.009-.112.049-.151s.096-.058.151-.049l1.8.032c.041-.002.081.001.121.008.845.008 1.688.09 2.519.245a7.55 7.55 0 0 1 3.343 1.414c1.437 1.238 2.188 3.093 2.017 4.982a4.79 4.79 0 0 1-2.171 4.295z" fill="#fff"/><path d="M114.894 26.284a44.18 44.18 0 0 1 3.7-4.592c.8-.579 1.286-.434 1.579.225s-1.205 2.238-1.4 3.15.386.6.386.6 5.854-5.512 6.577-5.2c.25.069.44.272.493.525s-.039.516-.24.68c-.293.253-4.629 4.825-4.629 4.825l6.043-5.472c.402.165.876.35.153 1.306s-4.649 5.1-4.649 5.1 4.89-4.371 5.633-4.327.462.976.2 1.237l-5.03 5.018s4.1-2.6 4.765-2.174c.101.057.178.148.217.257.185.566-1 1.418-1.551 1.836-2.652 2-1.908 2.362-4.17 3.873-1.394 1-2.977 1.707-4.653 2.077a11.87 11.87 0 0 1-3.5.193q-1.513-1.133-3.025-2.27a66.15 66.15 0 0 1 3.101-6.867z" class="D"/><path d="M119.642 31.366l-.4-.321c.876-1.1.221-3.921-.108-4.918l.486-.161c.054.161 1.252 3.865.022 5.4z" fill="#cd7d6c"/><path d="M116.75 36.051v.2l-.016.486a16.86 16.86 0 0 1-.3 2.358c-.374 1.892-1.655 6.573-9.94 13.552-5.749 4.845-8.63 7.268-12.005 7.706a14.05 14.05 0 0 1-8.092-1.543 24.6 24.6 0 0 1-5.448-3.789 31.75 31.75 0 0 1-1.177-1.117c-1.079-1.072-2.078-2.222-2.989-3.439-.157-3.5-.486-7.312-1.057-11.378-.518-3.7-1.173-7.148-1.892-10.306.016 0 .028 0 .044.008.524.087 1.043.203 1.555.346.4.112.836.249 1.282.418a14.55 14.55 0 0 1 1.736.8 3.5 3.5 0 0 1 .153.088 26.37 26.37 0 0 1 3.8 3.106c3.458 3 6.617 6.327 9.434 9.936q.639.814 1.209 1.587l.173.237 4.657-4.612c5.545-5.557 7.232-7.477 10.4-8.494a14.44 14.44 0 0 1 3.053-.611l.362.35.338-.382v-.008q.235-.012.434-.012 2.139 1.995 4.287 3.986l-.001.527z" class="B"/><path d="M78.975 46.963c-2.065-4.717-2.447-7.847-2.371-9.88.153-2.474-.166-4.954-.94-7.308-.092-.273-.173-.494-.229-.639.4.112.836.249 1.282.418a29.1 29.1 0 0 1 2.656 8.715 25.66 25.66 0 0 1-.398 8.694z" class="C"/><path d="M79.758 55.372l-.181 3.941c-.342 4.387-1.129 7.959-2.459 9.59-6-2.443-15.432-.518-22.062-.514-1.511-6.191-2.117-9.233-2.174-12.037a26.72 26.72 0 0 1 .3-4.524v-.044l.121-.88c.165-1.325.255-2.659.269-3.994-.014-5.073-.779-10.117-2.27-14.966a28 28 0 0 1 14.846-4.311c3.129.016 6.231.569 9.173 1.635 2.898 3.965 4.613 16.119 4.437 26.104z" class="B"/><path d="M69.95 13.844q-.06 4.176-.121 8.357l-.056 3.982-.056 3.917c-.543 1.313-1.665 2.299-3.037 2.668a4.37 4.37 0 0 1-4.673-2.427v-16.5z" class="D"/><path d="M69.826 22.202l-.056 3.982c-3.576-1.012-4.03-5.095-4.03-5.095z" fill="#b8432a"/><path d="M63.405 19.216s3.271 5.143 7.947 4.207.936-14.954.936-14.954-7.947-3.27-9.815 0 .932 10.747.932 10.747z" class="D"/><g fill="#322223"><use xlink:href="#C"/><use xlink:href="#C" x="4.209"/><path d="M67.082 13.612c-.11 0-.205-.076-.229-.183s.03-.217.129-.263c.601-.279 1.272-.366 1.924-.249.08.023.142.087.163.168a.23.23 0 0 1-.065.225c-.061.058-.147.08-.227.057a2.81 2.81 0 0 0-1.6.225c-.03.013-.062.02-.095.02zm5.97-.001a.26.26 0 0 1-.1-.02 2.8 2.8 0 0 0-1.6-.225c-.124.036-.254-.036-.289-.161s.036-.254.16-.289a3.25 3.25 0 0 1 1.924.249.23.23 0 0 1 .12.131c.021.058.018.122-.008.178-.038.081-.118.134-.207.137zm-3.062 6.324a2.69 2.69 0 0 1-1.571-.554c-.089-.069-.105-.196-.036-.285s.196-.105.285-.036c.481.376 1.098.533 1.7.43a1.94 1.94 0 0 0 .848-.422c.085-.072.213-.061.285.024s.061.213-.024.285c-.293.253-.645.429-1.024.51-.152.031-.307.047-.463.048zm-.031-1.913l-.02-.406c1.109-.06 1.209-.3 1.217-.325.016-.06-.068-.185-.177-.346l-.273-.434a4.24 4.24 0 0 1-.49-1.471l.4-.06a3.85 3.85 0 0 0 .442 1.33c.092.165.181.293.253.4.169.245.3.442.229.687-.098.374-.605.574-1.581.625z"/></g><path d="M69.774 6.564c-.774-.612-1.656-1.073-2.6-1.358a3.07 3.07 0 0 0-2.652.3c-.177.137-.35.289-.514.442l-.446.53-.852 1.225-.856 1.25a5.34 5.34 0 0 1-1.093 1.2 3.55 3.55 0 0 1-1.571.587c-.514.072-1.032.111-1.551.117-1.037.012-2.041-.088-3.013-.129-.946-.099-1.897.14-2.684.675-.758.624-1.333 1.442-1.663 2.366l-.044-.016a5.34 5.34 0 0 1 1.551-2.543c.815-.611 1.821-.912 2.837-.848l3 .068c.499-.011.997-.054 1.491-.129a3.14 3.14 0 0 0 1.37-.526c.386-.313.726-.68 1.008-1.089l.864-1.225.876-1.221.494-.575a7.43 7.43 0 0 1 .595-.47 3.38 3.38 0 0 1 2.921-.225 7.49 7.49 0 0 1 2.559 1.559z" fill="#1a2949"/><path d="M65.881 16.499l-.036.028a5.39 5.39 0 0 1-1.466-2.591 4.3 4.3 0 0 1 .643-2.893l1.266-2.125.394.153-1.342 2.146a4.02 4.02 0 0 0-.719 2.672c.178.967.614 1.869 1.26 2.61zm50.865 19.749l-.016.486-.253-.237-4.781-4.564.337-.382 4.717 4.5.1.1z" class="C"/><path d="M80.948 194.38q-3.556-.4-7.116-.791c-2.476-13.818-3.405-27.87-2.768-41.894l.225-3.949c.355-3.018.544-6.053.567-9.092l-.02-2.354a94 94 0 0 0-1.262-13.464c-.607-3.861-1.318-7.69-1.86-12.584-.153-1.374-.293-2.833-.414-4.4a139.79 139.79 0 0 1-.169-19.024v-.008l-.052-.763-6.605 24.685-.683 2.62-2.957 11.451-3.013 11.611-.109.406-.655 2.507c-2.21 8.405-6.027 20.949-8.682 30.15l-4.026 14.5q-.916 3.411-1.9 7.236a6.5 6.5 0 0 1-1.254 1.426l-.3.233a5.64 5.64 0 0 1-3.982 1.1c-1.585-.222-3.011-1.077-3.954-2.37l.759-5.066c3.881-26.216 3.712-30.037 6.356-39.2 2.117-7.332 2.865-7.1 3.492-11.467.008-.052.016-.1.02-.153.691-4.954 1.121-14.552 1.627-18.418l.121-.836c.233-1.555.538-3.278.956-5.167a73.38 73.38 0 0 1 .952-3.757c.052-.181.028-.092.169-.6l2.732-10.073 1.732-7q1-4.116 1.864-7.951c1.434-6.352 2.6-12.1 3.548-17.136q10.462.187 20.917.39l3.853.076c.956 5.9 2.238 14.307 3.5 24.444l1.916 16.047c.526 4.753.984 9.462 1.334 14.215a266.94 266.94 0 0 1 .679 14.737l.012.9c.291 19.738-1.57 39.448-5.55 58.783z" class="D"/><path d="M61.477 110.737l-.683 2.62-2.957 11.451a122.22 122.22 0 0 1-15.5-8.333 75.68 75.68 0 0 1 .956-5.167c6.677-.969 16.637-.627 18.184-.571zm24.215 6.573c-1.984 2.499-4.688 4.326-7.746 5.235-2.397.691-4.926.789-7.369.285-.607-3.861-1.318-7.69-1.86-12.584l15.754-4.5q.35 3.532.731 7.107.241 2.237.49 4.457z" fill="#b8432a"/><g class="E"><path d="M163.468 23.097V63.62l-1.045 1.045c-1.84 1.749-3.898 3.254-6.123 4.476-.957.529-1.944 1.001-2.957 1.414a29.2 29.2 0 0 1-8.743 2.105l-1.957.1c-11.59.203-22.217-6.424-27.134-16.922s-3.204-22.905 4.373-31.678c.008-.012.02-.024.028-.036 1.653-1.908 3.544-3.597 5.625-5.026a29.2 29.2 0 0 1 10.84-4.576c1.743-.346 3.514-.536 5.291-.567a29.38 29.38 0 0 1 21.8 9.145z"/><path d="M163.469 34.536v17.642a23.06 23.06 0 0 1-44.364-8.821 23.06 23.06 0 0 1 44.364-8.821z"/></g><path d="M152.291 46.019a8.07 8.07 0 0 0-1.808-2.8c-.881-.849-1.913-1.527-3.041-2-1.304-.478-2.639-.872-3.994-1.177V28.521c1.178.201 2.258.782 3.074 1.655a6.8 6.8 0 0 1 1.474 3.6l4.13-.619a9.1 9.1 0 0 0-3.15-5.974 9.84 9.84 0 0 0-5.524-2.041v-1.904h-2.361v1.908c-2.175.089-4.269.848-5.995 2.174a9.41 9.41 0 0 0-1.985 11.19c.676 1.247 1.697 2.272 2.941 2.953 1.565.904 3.267 1.549 5.038 1.908v12.72c-1.62-.192-3.086-1.053-4.042-2.375-.935-1.414-1.5-3.04-1.643-4.729l-4.018.755c.081 1.859.627 3.669 1.587 5.263.778 1.313 1.897 2.39 3.238 3.118 1.536.724 3.184 1.178 4.874 1.342v4h2.354v-4.042a9.6 9.6 0 0 0 9.478-9.9c.012-1.197-.2-2.386-.627-3.504zm-11.2-6.481a7.9 7.9 0 0 1-3.873-2.2c-1.597-2.084-1.514-5.002.2-6.991a5.9 5.9 0 0 1 3.676-1.864v11.055zm6.2 14.54c-.981 1.135-2.357 1.856-3.849 2.017V43.93a9.3 9.3 0 0 1 4.3 2.367c.759 1.004 1.14 2.243 1.077 3.5.044 1.568-.501 3.096-1.528 4.281z" fill="#fff"/><path d="M88.457 112.964l-1.358.587c-4.795 1.97-9.909 3.051-15.091 3.19-.157 0-.313.008-.462.008-1.741.028-3.483-.047-5.215-.225q.193-8.63.394-17.264c0-.145 0-.289.008-.434q.072-2.929.133-5.854l-.872 5.468-.068.41q-.8 5.026-1.6 10.057l-.253 1.575q-.452 2.82-.9 5.649a32.91 32.91 0 0 1-6.043.647h-.486 0c-3.698.004-7.369-.623-10.856-1.852l-.466-.165a33.19 33.19 0 0 1-7.835-4.166l3.307-10.47.129-.41 2.579-8.172.121-.378 1.824-5.778.149-.478 3.122-9.876.121-.386 2.857-9.052.161-.514.366-1.161 1.089-3.459h26.461c.498 1.513.881 3.062 1.145 4.633.028.125.056.257.08.386a4.73 4.73 0 0 1 .024.117c.482 2.427 1.029 5.5 1.6 8.907l.08.466.671 4.094.117.707.928 5.886c.024.133.044.265.064.4l.378 2.463q.283 1.868.575 3.724l.068.438.237 1.551.06.394q.7 4.544 1.354 9l.06.39q.651 4.484 1.241 8.883c.003.021.004.043.002.064z" class="B"/><path d="M45.586 84.904l-.149.478a6.62 6.62 0 0 1 1.125 4.452c-.064 1-.285 1.6-.679 1.82-.494.281-1.306-.012-2.274-.49l-.121.378c1.073.526 1.945.82 2.583.454.53-.293.812-.972.88-2.137a6.95 6.95 0 0 0-1.365-4.955zm18 22.684c-.836-.2-1.909 1.41-4.066 4.8l-2.889 4.391h.486l2.74-4.174c1.563-2.455 3.033-4.781 3.636-4.629.116.032.394.249.51 1.663l.06.844.253-1.575c-.127-.817-.36-1.227-.726-1.317zm19.032-33.091c-1.607 1.442-2.989 2.612-3.8 2.306-.51-.189-.852-1-1.029-2.395a17.33 17.33 0 0 0-1.077-3.937c-.53-1.458-.952-2.608-.41-3.4.53-.775 1.973-1.286 4.7-1.591l-.08-.386c-2.853.329-4.343.88-4.942 1.76-.655.96-.2 2.2.366 3.757a17.33 17.33 0 0 1 1.053 3.849c.2 1.6.607 2.467 1.286 2.72 1 .37 2.342-.719 4.022-2.21l-.085-.472zm.747 4.56l-.237.526c-.783 1.752-1.458 3.262-2.636 3.54-.948.229-2.25-.342-3.974-1.736l-3.893-3.07c.94-.667 1.6-1.941 1.2-4.315-1.109-6.661-10.567-9.976-16.658-10.579-.972-.1-3.885-.305-4.954.49a.97.97 0 0 0-.346.426 1.1 1.1 0 0 0-.024.735c.245.832 1.342 1.631 2.5 2.471 1.475 1.077 3.138 2.29 3.15 3.644 0 .775-.522 1.555-1.611 2.367a6.5 6.5 0 0 1-5.995 1.258c-.362-.068-.711-.133-1.057-.173l-.121.386c.354.032.715.1 1.1.177a6.92 6.92 0 0 0 6.308-1.334c.988-.559 1.647-1.559 1.772-2.688-.012-1.555-1.768-2.829-3.311-3.958-1.358-.992-2.644-1.933-2.33-2.748.2-.534 1.816-.968 4.886-.663 5.966.591 15.236 3.809 16.312 10.249.325 1.961-.056 3.3-1.137 4-5.159-3.941-11.885-8.606-13.564-7.533-.4.261-.51.788-.317 1.575.864 3.447 8.755 7.642 12.793 6.806a4.09 4.09 0 0 0 1.057-.37l4.006 3.158c1.848 1.5 3.222 2.073 4.307 1.816 1.366-.329 2.077-1.908 2.9-3.749-.045-.237-.081-.474-.121-.707zm-12.234-.534c-3.9.812-11.5-3.206-12.323-6.513-.153-.6-.1-.988.141-1.141.138-.082.298-.121.458-.113 1.683 0 6.288 2.776 12.511 7.513a3.23 3.23 0 0 1-.783.254zm-3.889 11.186c2.555-.426 5.38-1.109 8.152-1.788a82.61 82.61 0 0 1 9.08-1.872l-.064-.4a84.82 84.82 0 0 0-9.108 1.888c-2.849.691-5.758 1.4-8.361 1.82-6.039-7.043-9.406-10.125-11.5-9.691-.824.173-1.4.884-1.768 2.178-.755 2.672-1.157 4.379-.362 5.585.844 1.278 2.869 1.937 8.044 2.612a20.23 20.23 0 0 0 5.446-.26l5.107 6.119c3.982 4.829 4.456 6.292 4.15 6.665-.591.739-4.974-1.495-9.325-3.745 0 .145 0 .289-.008.434 5.8 3.005 8.879 4.492 9.639 3.556.43-.53.273-1.8-4.15-7.168l-4.968-5.933zm-5.838-.064c-4.97-.647-7-1.286-7.762-2.435-.7-1.065-.309-2.7.414-5.259.325-1.133.8-1.76 1.471-1.9a1.6 1.6 0 0 1 .313-.032c2.061 0 5.745 3.688 10.651 9.406-1.677.302-3.386.376-5.083.22zm-10.121 3.7c-1.245 1.205.121 4.375 1.848 8.393l1.346 3.2c1.221 3.053.948 4.058.5 4.367-1.286.884-5.934-2.158-12.439-8.144a53.31 53.31 0 0 0-1.635-1.446l-.129.41c.47.4.972.844 1.5 1.33 4.845 4.46 11.025 9.5 12.933 8.176.832-.575.711-2.154-.362-4.841-.434-1.089-.9-2.166-1.346-3.21-1.535-3.568-2.989-6.939-1.941-7.951.808-.783 3.086-.281 6.975 1.535 2.5 1.165 5.083 2.5 7.389 3.692l.068-.41-7.288-3.636c-4.112-1.927-6.466-2.389-7.414-1.469zm34.449.884c-1.624.461-3.335.525-4.99.189-2.286-.418-3.632-1.306-3.592-1.756.028-.3.779-.639 2.808-.639 1.865.002 3.722.222 5.536.655l-.068-.438a24.9 24.9 0 0 0-5.468-.611c-2.061 0-3.142.337-3.2 1-.088.932 1.953 1.816 3.913 2.178 1.698.345 3.454.283 5.123-.181-.014-.135-.038-.268-.058-.401zm2.72 18.662c-5.826 1.113-13.122 2.306-16.176-.149a3.86 3.86 0 0 1-1.414-3.1c-.094-1.175.302-2.336 1.093-3.21 1.941-2.033 6.272-2.117 10.462-2.206 1.623-.036 3.27-.072 4.793-.221l-.06-.39c-1.5.149-3.134.185-4.741.217-4.267.088-8.682.177-10.74 2.326a4.67 4.67 0 0 0-1.205 3.491c-.028 1.314.55 2.568 1.567 3.4 2.937 2.362 9.45 1.527 15.071.5.474-.193.924-.39 1.358-.587-.006-.023-.009-.047-.008-.071z" class="F"/><g class="C"><path d="M67.954 87.426l-.41-.225c1.744-3.178 4.508-8.457 4.508-9.1h.466c0 .972-4.094 8.474-4.564 9.325zm-9.136-22.555l-13.042 50.054-.466-.165 13.034-50.013z"/><path d="M72.004 116.74l-.462.008-2.226-32.777.466-.036 2.222 32.805zM55.048 77.904c-.053.003-.105-.011-.149-.04l-.125-.064-.016-.161h.231l.173-.153a.16.16 0 0 0-.1-.052h0c.052 0 .627-.072 4.01-2.326 4.034-2.688 3.178-9.056 3.17-9.12l.462-.064c.04.273.908 6.722-3.375 9.574-3.14 2.089-3.983 2.406-4.281 2.406zM81.345 65.59H50.914l1.679-5.135h27.454a34.91 34.91 0 0 1 1.298 5.135zM65.929 9.019c3.094 1.993 6.372 2.523 8.3 1.185.697-.503 1.243-1.186 1.579-1.977.044-.117.868-2.379-.394-3.556a3.33 3.33 0 0 0-4.347.394 4.59 4.59 0 0 0-.394-1.977C69.709.983 66.82-.737 64.743.32a4.38 4.38 0 0 0-1.977 3.162 3.31 3.31 0 0 0-2.37 0 3.5 3.5 0 0 0-1.977 2.371h0c0 .012-.321 1.165.394 5.93 0 0-3.455-.044-5.532 1.579a5.24 5.24 0 0 0-1.977 3.556 5.61 5.61 0 0 0 5.533 5.533 5.67 5.67 0 0 0 5.139-4.347 9.08 9.08 0 0 1 0-2.768 10.27 10.27 0 0 1 3.953-6.317z"/></g><path d="M63.405 16.882a1.4 1.4 0 0 1-2.39.99 1.4 1.4 0 0 1 .99-2.39 1.4 1.4 0 0 1 1.4 1.4z" class="D"/><path d="M62.003 17.529c-.024 0-.047-.005-.068-.016-.566-.241-.836-.5-.816-.792.028-.454.755-.687.9-.731.061-.022.13-.008.178.036s.068.111.052.174-.066.112-.129.127c-.3.088-.643.281-.651.414 0 .032.02.2.6.45.088.038.129.14.092.229-.024.066-.087.11-.157.109z" fill="#322223"/><path d="M79.758 55.372l-.181 3.941c-12.065-.016-22.323-5.139-26.4-7.485v-.044l.39-4.874 26.191 8.462z" class="C"/><path d="M60.397 29.57s-1.185-5.93 1.185-5.533-.394 2.37 8.3 1.977c0 0 1.9-.792 1.937 2.768s-8.26 9.482-11.422.788z" class="B"/><path d="M60.119 28.771a8.24 8.24 0 0 0 1.153 1.29 6.3 6.3 0 0 0 1.358 1 6 6 0 0 0 1.535.595 5.05 5.05 0 0 0 1.631.076c1.117-.124 2.195-.48 3.166-1.045l.743-.43.719-.478.715-.494.707-.522.028.028a16.62 16.62 0 0 1-2.756 2.158 9.88 9.88 0 0 1-1.579.767 6.36 6.36 0 0 1-1.708.41 5.3 5.3 0 0 1-3.363-.8 7.1 7.1 0 0 1-2.383-2.535zm29.527 12.03v.623l-13.174 4.287-3.821 1.246-16.119-15.408 19.212 7.652 5.6 2.23 6.609-2.519zm19.451 4.206c-3.511 4.757-8.161 8.555-13.524 11.045a34.69 34.69 0 0 1-9.177 2.764 24.6 24.6 0 0 1-5.448-3.789c.092-5.207 10.016-8.891 20.551-12.8 3.122-1.157 6.308-2.158 7.509-.792.767.868.469 2.407.089 3.572z" class="C"/><path d="M121.764 33.08l-5.34 4.689s4.263-2.33 4.894-1.868a.52.52 0 0 1 .2.269c.149.579-1.085 1.354-1.663 1.736-2.776 1.828-2.057 2.234-4.412 3.6a12.61 12.61 0 0 1-4.777 1.776 11.9 11.9 0 0 1-3.5-.032l-2.877-2.455 3.086-5.954c.427-.872 1.296-1.439 2.266-1.479a10.5 10.5 0 0 0 2.146.426h.321l.9-.731c1.74-1.4 5.464-4.311 6-4.03a.69.69 0 0 1 .177 1.217c-.289.217-4.3 3.941-4.862 4.468l6.316-5.018c.386.193.852.406.068 1.31-.731.844-4.412 4.271-4.914 4.745.566-.442 5.151-4 5.846-3.913.736.093.395 1.005.125 1.244z" class="D"/><path d="M50.516 30.755c2.772-1.487 6.549.952 12.25 4.347a413.82 413.82 0 0 0 16.658 9.394c4.583-2.876 9.637-4.922 14.93-6.043 3.913-.817 7.92-1.095 11.909-.828q1.169 3.188 2.338 6.38a47.2 47.2 0 0 1-5.725 5.1 42.38 42.38 0 0 1-23.42 8.831c-6.224.285-10.494-1.045-17.353-3.182-8-2.491-15.2-4.845-16.818-10.679a11.9 11.9 0 0 1 .161-6.718c.008-.02.036-.108.076-.221.943-2.604 2.693-4.839 4.994-6.381z" class="B"/><path d="M105.452 37.308c.595.381 1.12.862 1.551 1.422a8.58 8.58 0 0 1 1.029 1.671 8.81 8.81 0 0 1 .639 1.856 6.11 6.11 0 0 1 .121 2.1l-.108.052-1.724-3.5-1.619-3.552z" class="C"/><path d="M54.824 136.419l-.108.406-.587 2.234-.072.273-.735 2.736q-.277 1.031-.591 2.121l-.213.767-7.148 24.525-4.026 14.5q-.916 3.411-1.9 7.236a6.5 6.5 0 0 1-1.254 1.426l-.3.233a5.64 5.64 0 0 1-3.982 1.1c-1.585-.222-3.012-1.078-3.954-2.371l.759-5.066c3.881-26.216 3.712-30.037 6.356-39.2.494-1.712.912-3.013 1.278-4.054l.269-.763.723-1.933a19.23 19.23 0 0 0 .8-2.455c.18-.746.321-1.501.422-2.262.008-.052.016-.1.02-.153 4.922.33 10.229.624 14.243.7zm31.696 3.818l-.016 2.37-.024 1.9-.016.792a272.69 272.69 0 0 1-5.516 49.081q-3.556-.4-7.116-.791c-2.476-13.818-3.405-27.87-2.768-41.894l.225-3.949.209-2.29.076-.792c.068-.659.12-1.314.169-2.061a56.2 56.2 0 0 0 .092-2.371l.02-1.579-.02-2.354c3.672-.048 8.871-.213 14.657-.7l.028 4.638z" fill="#acacac"/><path d="M27.012 200.383l-.1 1.3s23.038 1.378 25.244 1.117 4.58-2.7 4.685-4-1.655-.888-1.655-.888z" fill="#172949"/><path d="M56.005 198.301a5.54 5.54 0 0 1-3.749 3.2c-2.202.079-4.407.04-6.605-.117a6.89 6.89 0 0 1-.4-.016l-5.649-.269-5.886-.317-5.838-.333c.343-2.009.788-3.999 1.334-5.962l.775-2.965.482-1.788a13.95 13.95 0 0 1 6.842 1.848c-.3-1.772 2.913-3.7 2.913-3.7s.627 3.106 1.462 3.608l.217.121 1 .494.916.442 1 .478.976.466 1.008.478 1.812.856 5.066 2.383 2.324 1.093z" class="E"/><path d="M42.903 192.106l-1.089 1.495a.55.55 0 0 1-.486.225.54.54 0 0 1-.281-.1c-.244-.178-.298-.519-.121-.763l.98-1.342.997.485zm1.924.924l-1.065 1.458a.55.55 0 0 1-.486.225.52.52 0 0 1-.281-.1c-.244-.178-.298-.519-.121-.763l.944-1.294zm1.981.94l-.9 1.237a.55.55 0 0 1-.486.225.54.54 0 0 1-.281-.1.55.55 0 0 1-.12-.763l.779-1.069 1.008.47z" class="B"/><path d="M44.176 203.034h.016l-.028.016z" fill="#f84558"/><use xlink:href="#D" class="B"/><path d="M69.697 200.383l-.1 1.3s23.038 1.378 25.244 1.117 4.58-2.7 4.685-4-1.655-.888-1.655-.888z" fill="#172949"/><path d="M98.69 198.301a5.54 5.54 0 0 1-3.749 3.2c-2.202.079-4.407.04-6.605-.117a6.89 6.89 0 0 1-.4-.016l-5.649-.269-5.886-.317-5.838-.333c.343-2.009.788-3.999 1.334-5.962l.775-2.965.482-1.788a13.95 13.95 0 0 1 6.842 1.848c-.3-1.772 2.913-3.7 2.913-3.7s.627 3.106 1.462 3.608l.217.121 1 .494.916.442 1 .478.976.466 1.009.478 1.812.856 5.066 2.383 2.323 1.093z" class="E"/><path d="M85.587 192.106l-1.089 1.495a.55.55 0 0 1-.766.122.55.55 0 0 1-.123-.765l.98-1.342.997.49zm1.925.924l-1.065 1.458a.55.55 0 0 1-.486.225.52.52 0 0 1-.281-.1.55.55 0 0 1-.219-.356c-.023-.143.012-.289.098-.407l.944-1.294zm1.985.94l-.9 1.237a.55.55 0 0 1-.765.122.55.55 0 0 1-.123-.765l.779-1.069 1.009.475z" class="B"/><path d="M86.861 203.034h.016l-.028.016z" fill="#f84558"/><use xlink:href="#D" x="42.685" y="-0.001" class="B"/><path d="M54.137 139.059l-.072.273-.735 2.736-13.983-1.475a19.25 19.25 0 0 0 .8-2.455zm32.383 1.177l-.016 2.37H71.747l.092-2.37zm-33.781 3.953l-.213.767-14.171-1.663.269-.763zm33.745.318l-.016.791-14.962.161.076-.792z" class="C"/><defs ><path id="B" d="M207.974 200.242h-81.1a10.54 10.54 0 0 1-10.539-10.539V12.326a10.54 10.54 0 0 1 10.539-10.539h81.1a10.54 10.54 0 0 1 10.539 10.539v177.381c0 2.795-1.111 5.475-3.087 7.45s-4.657 3.085-7.452 3.085z"/><path id="C" d="M68.546 15.01c0 .257-.209.466-.466.466s-.466-.209-.466-.466.209-.466.466-.466c.124 0 .242.049.33.136s.136.206.136.33z"/><path id="D" d="M46.302 199.439c-.118.677-.336 1.332-.647 1.945a6.89 6.89 0 0 1-.4-.016.3.3 0 0 0 .028-.048 6.42 6.42 0 0 0 .675-1.937c.139-.677.01-1.381-.358-1.965-.196-.279-.442-.519-.727-.707l-.848-.595-6.955-4.488.024-.032 3.584 2.073 3.512 2.206.864.579a2.98 2.98 0 0 1 .828.779 3.04 3.04 0 0 1 .42 2.206z"/></defs></svg>
