<svg xmlns="http://www.w3.org/2000/svg" width="659" height="320" fill="none"><path fill-rule="evenodd" d="M166.977 44.799c3.915-7.168 8.45-15.47 23.71-26.577C223.36-5.602 312.708-4.24 373.013 11.792c37.862 9.031 60.255 22.025 75.952 31.134 18.901 10.968 28.092 16.301 42.886 2.296C522.055 16.628 696.06 30.04 651.848 78.309c-7.213 7.864-20.904 12.853-34.697 17.879-25.972 9.463-52.305 19.058-36.437 48.228 3.164 5.823 6.72 11.775 10.31 17.783 25.702 43.021 53.121 88.914-49.051 110.958-54.689 11.785-81.808-2.73-99.836-12.38-14.775-7.908-23.444-12.548-36.179 3.238-6.891 9.127-18.179 19.566-35.057 31.704-45.21 32.543-193.465 39.079-222.773-25.054-5.516-12.066-4.971-24.591-4.458-36.355 1.065-24.478 1.988-45.661-52.132-52.558-109.594-13.889-126.586-70.532-18.084-94.973 80.489-18.117 85.799-27.839 93.523-41.98zm157.626 129.368c8.561 4.498 16.115 9.674 22.802 15.231-8.527-4.678-16.468-9.644-22.802-15.231z" fill="#b3b8db"/><path d="M171.683 276.12c29.328 0 53.102-23.774 53.102-53.101s-23.774-53.101-53.102-53.101-53.101 23.774-53.101 53.101 23.774 53.101 53.101 53.101z" fill="#000"/><path d="M125.777 249.717c-6.936 11.209-9.501 19.861-6.096 23.418 7.017 7.338 36.736-9.707 66.366-38.058s47.962-57.294 40.946-64.623c-3.781-3.951-14.132-.831-27.512 7.311l-4.675-2.565c19.191-12.612 34.877-17.769 40.472-11.923 8.867 9.259-10.994 42.643-44.342 74.561s-67.572 50.286-76.439 41.017c-4.907-5.13-1.01-17.661 9.117-33.24l2.163 4.102z" fill="#fff"/><g fill="#000"><path d="M121.345 282.18c-3.253 0-5.819-.858-7.544-2.663-5.13-5.363-1.93-17.59 9.01-34.43.188-.286.51-.465.849-.438.34.018.653.215.805.51l2.163 4.111c.16.304.143.662-.036.957-6.865 11.092-9.135 19.199-6.221 22.247 3.012 3.146 11.593 1.027 23.525-5.819 12.469-7.151 27.199-18.609 41.473-32.276 31.677-30.318 46.728-57.186 40.919-63.264-3.236-3.387-13.077-.59-26.314 7.464-.295.178-.662.187-.965.017l-4.675-2.565a.97.97 0 0 1-.501-.804c-.009-.34.152-.653.429-.84 20.665-13.586 35.86-17.877 41.697-11.79 4.612 4.818 2.404 15.454-6.212 29.943-8.42 14.158-21.97 30.488-38.166 45.978-27.932 26.751-55.828 43.653-70.236 43.662zm2.19-34.662c-9.421 14.873-12.54 26.287-8.339 30.667 8.339 8.715 42.715-10.082 75.08-41.053 16.071-15.382 29.505-31.56 37.844-45.575 8.018-13.479 10.377-23.552 6.471-27.628-4.853-5.077-19.315-.787-37.897 11.191l2.779 1.519c14.239-8.581 24.249-11.021 28.236-6.864 8.375 8.75-14.256 40.418-40.973 65.99-14.39 13.764-29.245 25.33-41.848 32.552-9.17 5.256-21.094 10.467-25.876 5.479-4.558-4.764.492-15.641 5.685-24.124l-1.162-2.154z"/><circle cx="169.219" cy="145.581" r="5.645"/><circle cx="368.82" cy="259.244" r="5.645"/></g><circle cx="245.853" cy="71.687" r="47.993" stroke="#000" stroke-width=".548"/><g fill="#000"><circle cx="479.992" cy="101.328" r="4"/><circle cx="273.34" cy="241.891" r="5.645"/><circle cx="36.356" cy="110.424" r="5.645"/><circle cx="91.281" cy="153.812" r="2"/><circle cx="290.883" cy="267.475" r="2"/><circle cx="394.078" cy="40.446" r="2"/><circle cx="639.875" cy="59.686" r="2"/><circle cx="391.076" cy="29.646" r="3.002"/><circle cx="612.965" cy="57.686" r="6"/><circle cx="624.965" cy="71.595" r="4"/><circle cx="584.113" cy="213.395" r="8"/><circle cx="248.133" cy="204.521" r="4"/><circle cx="576.113" cy="237.891" r="4"/></g><path d="M474.44 39.333c-5.716-1.539-11.798-1.392-17.441.44l-85.077 26.967s26.527 14.729 49.537 40.304c3.371 3.81 9.379 3.59 12.604-.293l44.627-54.007c3.884-4.69 1.612-11.798-4.25-13.41z" fill="#020302"/><path d="M380.999 46.221C325.966 15.956 274.304 4.745 228.212 9.801c-40.597 4.397-62.874 18.54-62.874 18.54s-3.884 26.381 12.897 64.339c18.686 42.355 52.542 82.586 105.596 116.221 35.907 22.79 70.201 29.678 88.595 31.73 8.207.952 16.268-3.078 20.518-10.186l59.356-98.927c4.324-7.182 4.03-16.268-.806-23.083-10.845-15.169-33.342-41.769-70.495-62.214z" fill="#ffb00d"/><g fill="#020302"><path d="M381.148 45.928C335.715 20.939 291.454 8.262 249.685 8.262c-7.255 0-14.436.366-21.471 1.172-40.231 4.397-62.801 18.466-63.094 18.613l-.146.073v.147c-.074.293-3.738 26.894 12.897 64.486 20.152 45.507 55.692 84.711 105.742 116.441 36.347 23.083 71.228 29.825 88.741 31.73.806.073 1.612.147 2.419.147 7.547 0 14.582-4.031 18.466-10.479l59.356-98.928c4.397-7.327 4.031-16.561-.879-23.522-10.259-14.29-32.903-41.55-70.568-62.214zm70.714 85.37l-59.356 98.927c-3.737 6.229-10.552 10.113-17.88 10.113-.733 0-1.539-.074-2.272-.147-17.44-1.978-52.175-8.647-88.448-31.656-49.903-31.657-85.37-70.715-105.449-116.075-15.828-35.834-13.117-61.628-12.824-63.973 1.979-1.172 24.256-14.216 62.581-18.393 7.035-.733 14.216-1.172 21.397-1.172 41.696 0 85.81 12.604 131.17 37.519 37.519 20.591 60.09 47.705 70.275 62.067 4.763 6.815 5.057 15.755.806 22.79z"/><path d="M250.268 41.604c-17.587 18.613-39.424 50.929-43.088 99.147l.732.074c3.664-47.925 25.355-80.095 42.869-98.634 18.979-20.078 37.372-28.945 37.592-29.092l-.293-.659c-.22.073-18.686 8.94-37.812 29.165zm41.703 18.1c-20.884 22.057-46.605 60.309-51.002 117.32l.733.074c4.323-56.792 30.044-94.897 50.782-116.881 22.497-23.816 44.261-34.295 44.481-34.441l-.293-.66c-.22.147-22.131 10.699-44.701 34.588zm46.163 25.868c-13.997 14.802-25.575 31.51-34.295 49.61-10.919 22.643-17.514 47.632-19.566 74.159l.733.073c4.617-59.943 31.657-100.173 53.567-123.329 23.743-25.135 46.753-36.2 46.973-36.347l-.294-.66c-.219.147-23.302 11.285-47.118 36.493z"/></g><path d="M446.362 106.09c-15.169-2.271-42.942 25.575-63.167 63.387-16.194 30.191-22.35 58.037-15.095 67.783 1.539 1.979 3.517 3.225 6.082 3.591 15.169 2.272 42.942-25.575 63.167-63.387 16.195-30.191 22.35-58.037 15.095-67.783-1.538-1.979-3.59-3.224-6.082-3.591z" fill="#fff"/><path d="M446.437 105.724l-1.832-.147c-15.755 0-42.282 27.407-61.701 63.68-16.268 30.338-22.424 58.33-15.096 68.223 1.539 2.052 3.664 3.371 6.302 3.737.587.074 1.173.147 1.832.147 15.755 0 42.282-27.407 61.702-63.68 16.268-30.338 22.423-58.33 15.095-68.223-1.612-2.052-3.737-3.298-6.302-3.737zm-9.453 71.594c-19.346 36.126-45.58 63.313-61.042 63.313-.586 0-1.172-.073-1.685-.146-2.418-.367-4.397-1.539-5.789-3.445-7.182-9.599-.953-37.372 15.095-67.417 19.346-36.053 45.58-63.313 61.042-63.313.586 0 1.172.073 1.685.147 2.419.366 4.397 1.538 5.79 3.444 7.254 9.599 1.025 37.372-15.096 67.417z" fill="#231d24"/><path d="M443.655 113.198c-11.872-1.172-36.493 24.915-54.96 58.184s-23.816 61.188-11.944 62.361 36.493-24.915 54.959-58.184c18.54-33.269 23.889-61.189 11.945-62.361z" fill="#fff"/><g fill="#231d24"><path d="M443.732 112.832c-12.091-1.173-36.713 24.915-55.326 58.403-14.729 26.601-21.544 50.417-16.854 59.357 1.099 2.125 2.858 3.37 5.203 3.59.293 0 .513.074.806.074 12.384 0 36.346-25.648 54.519-58.477 14.73-26.601 21.545-50.417 16.855-59.357-1.099-2.198-2.858-3.371-5.203-3.59zm-12.311 62.58c-18.1 32.683-42.942 59.137-54.593 58.037-2.052-.219-3.591-1.245-4.617-3.151-4.47-8.573 2.418-32.682 16.855-58.623 17.733-32.023 41.915-58.037 53.86-58.037h.733c2.051.22 3.59 1.245 4.616 3.151 4.47 8.5-2.418 32.609-16.854 58.623z"/><path d="M401.297 151.45c-4.25 6.229-8.427 12.897-12.311 19.932l-2.271 4.25 13.117 3.005 11.358-16.195-.513-.879-9.38-10.113z"/></g><path d="M409.801 161.343c-1.905-.513-5.715 2.858-8.5 7.547s-3.517 8.941-1.685 9.527c1.905.513 5.715-2.858 8.5-7.548s3.517-8.94 1.685-9.526z" fill="#fff"/><path d="M409.878 161.05c-2.052-.587-6.009 2.784-8.94 7.694-2.198 3.737-3.224 7.255-2.565 9.013.22.513.587.88 1.1 1.026.146.073.366.073.513.073 2.198 0 5.715-3.297 8.353-7.767 2.199-3.737 3.225-7.255 2.565-9.014-.146-.586-.513-.952-1.026-1.025zm-2.125 9.599c-2.931 4.983-6.595 7.768-8.061 7.401-.293-.073-.513-.293-.586-.586-.586-1.465.44-4.91 2.492-8.354 2.784-4.616 6.082-7.401 7.767-7.401.147 0 .22 0 .293.073.294.074.513.293.587.587.586 1.392-.44 4.836-2.492 8.28z" fill="#231d24"/><g fill="#020302"><path d="M349.853 223.63c-33.562-7.694-59.283-23.816-59.283-23.816l17.661 87.496c1.172 5.789 3.957 11.138 8.06 15.462 4.177 4.397 11.505 2.931 13.777-2.711l25.648-65.219c1.832-4.763-.953-10.039-5.863-11.212z"/><path d="M349.932 223.264c-33.123-7.621-58.917-23.596-59.137-23.743l-.733-.44 17.807 88.302c1.173 5.862 4.031 11.285 8.208 15.609 1.685 1.685 3.883 2.638 6.228 2.638 3.591 0 6.815-2.199 8.134-5.496l25.648-65.219c.953-2.345.806-4.983-.366-7.255-1.246-2.198-3.371-3.81-5.789-4.396zm5.422 11.431l-25.647 65.219c-1.173 3.078-4.104 5.056-7.402 5.056-2.198 0-4.176-.879-5.715-2.418-4.031-4.25-6.815-9.526-7.988-15.242l-17.514-86.69c4.397 2.638 28.506 16.488 58.697 23.376 2.272.513 4.104 1.979 5.203 4.031s1.173 4.47.366 6.668z"/></g><mask id="A" maskUnits="userSpaceOnUse" x="202" y="32" width="98" height="97" mask-type="alpha"><circle cx="251.142" cy="80.319" r="48.267" fill="#020302"/></mask><g mask="url(#A)"><circle cx="251.142" cy="80.319" r="48.767" fill="#f1f2f8" stroke="#000"/><path d="M248.922 141.095c.47.211 14.449-7.352 14.449-7.352s-1.354-4.966-.955-5.807c1.715-.168 4.169-1.307 4.169-1.307s-1.591 1.439-2.414 1.872c0 0 1.911.518 3.281-.226l-.517 6.818s-14.811 7.58-15.292 8.237c2.263 1.157 2.38 4.641 2.38 4.641-4.047-2.682-8.097 4.74-5.013 6.105-5.131 2.62-5.282-1.534.244-8.62-1.26-.1-7.352 1.556-4.674 4.981-7.59 3.055-5.089-6.748 2.735-7.099-2.481-1.745-8.429-1.899-7.758 2.974-3.189 1.821-4.032-1.207-2.713-3.454 2.583-4.07 8.042-3.676 12.078-1.763z" fill="#2d1e1c"/><path d="M234.797 100.468c4.795 10.947 15.209 19.674 18.345 4.902a23.66 23.66 0 0 1 .04 2.369c1.859-4.255 1.444-9.795.435-14.186 0 0 1.446 3.29 1.988 5.546.685-10.009-5.35-11.694-.023-22.448-3.173 7.207.246 16.557 4.853 22.968 2.98 7.821 21.442 16.849 27.72 19.375-3.26-3.143-4.378-4.413-4.378-4.413 4.544 1.863 10.275 3.065 15.426 4.9-2.523 2.717-5.621 5.138-8.628 6.524 3.228-2.722 3.953-4.814 3.953-4.814s-6.737 5.857-12.66 7.593c4.512-3.361 5.233-5.164 5.233-5.164s-8.837 6.352-14.303 6.536c2.559-1.695 4.13-4.319 4.13-4.319s-1.911 1.118-8.107 1.053c2.804-1.494-.088-2.525-3.809-1.55s-4.939.324-8.944-4.542c1.855 4.853-4.872 1.665-8.093-1.739 1.235 3.759-6.584-3.363-10.307-8.289.895 3.889-6.923-3.875-7.545-5.963-.189-.622-1.131-1.396-2.35-2.046a45.12 45.12 0 0 1-.498-1.811c1.528 3.474 3.954-8.727 7.522-.482z" fill="#f2f2f2"/><path d="M236.668 115.551c4.461 7.869 15.228 14.958 26.217 18.433.305-.158.454-.269.454-.269s-1.353-4.967-.955-5.807c1.716-.169 4.17-1.308 4.17-1.308s-1.591 1.439-2.414 1.873c0 0 1.911.518 3.281-.226l-.517 6.818s-.029.035-.064.006c4.562 1.06 9.027 1.455 12.959 1.005-1.576.924-3.055 1.871-3.78 2.327 2.828-.598 13.199-1.777 22.059-8.227-1.34 1.703-3.389 3.7-3.389 3.7 4.301-2.25 8.064-5.41 10.629-8.035-.44.749-1.812 2.776-2.334 3.34 2.906-1.76 5.982-4.724 8.058-7.109l.085-.105.43-.523.086-.105.029-.034 1.26-1.535c-.163.625-.377 1.384-.69 2.12-.079.168-.13.301-.21.47l-.029.035c-.079.168-.159.336-.274.475 2.997-2.795 5.165-5.863 6.386-8.131-10.719-2.027-23.203-3.752-31.311-4.335-1.422-.117 10.035 4.211 8.613 4.094-11.816-1.117-23.207-3.463-30.681-10.009-1.472-1.267-2.952-2.95-4.365-4.928 2.981 7.822 21.443 16.85 27.72 19.376-3.259-3.143-4.378-4.413-4.378-4.413 4.545 1.863 10.275 3.065 15.427 4.9-2.524 2.717-5.622 5.138-8.629 6.524 3.229-2.723 3.954-4.814 3.954-4.814s-6.738 5.857-12.661 7.593c4.513-3.362 5.234-5.164 5.234-5.164s-8.838 6.352-14.304 6.536c2.56-1.695 4.13-4.319 4.13-4.319s-1.91 1.118-8.107 1.053c2.804-1.494-.087-2.525-3.808-1.551s-4.939.325-8.945-4.541c1.856 4.853-4.872 1.664-8.092-1.74 1.235 3.76-6.584-3.362-10.307-8.288.895 3.889-6.923-3.875-7.545-5.963-.19-.623-1.132-1.396-2.35-2.046 1.563 5.138 4.52 10.428 9.477 15.843.099.022-.664-1.538-.519-2.996zm27.849 1.082c-2.346-.699-3.811-3.538-3.626-7.533.361 2.049 1.657 5.45 3.626 7.533zm-4.584 5.582c-1.634-.641-2.885-2.603-3.071-5.151.42 1.338 1.575 3.63 3.071 5.151zm25.12-2.21c-1.157 2.263-3.971 3.982-7.436 4.29 1.897-.603 5.168-2.239 7.436-4.29z" fill="#b3b3b3"/><path d="M221.512 65.435c6.46-16.189 28.66-33.763 67.838.395 26.809 6.829 39.365 34.428 46.575 53.316-8.572-3.359-35.265-7.698-49.028-8.72-1.422-.117 10.035 4.21 8.613 4.093-11.816-1.117-23.208-3.462-30.682-10.009-6.665-5.824-14.223-20.091-8.293-29.589-3.997-2.173-10.846 3.534-10.927 4.344-.052-.861 3.664-6.453 2.254-9.715 0 0-1.366 3.726-2.275 4.264 2.06-5.141-7.401-13.962-14.075-2.563-.081-.826 1.545-4.514 1.545-4.514-4.944 8.439-10.303 9.062-13.53 7.23-1.125-1.333.19-8.197 2.311-11.42a11.37 11.37 0 0 0-.326 2.886z" fill="#4e362f"/><path d="M325.611 101.912c-1.801-5.276-10.02-21.371-25.425-29.64 13.62 10.016 25.425 29.64 25.425 29.64zm-36.256-36.081a36.07 36.07 0 0 1 4.066 1.236c-7.681-.817-14.387-.191-18.86.633 2.721-1.037 6.911-3.437 11.718-4.454l3.076 2.584z" fill="#2d1e1c"/><path d="M261.339 93.052c13.269 14.285 23.281 15.322 23.204 14.207-9.62-1.942-21.101-12.713-23.204-14.207zm33.075 10.223c.106 1.08-9.934.078-23.203-14.207 2.103 1.493 13.549 12.237 23.203 14.207zm-35.077-23.432c-.927-.294-1.393-6.342 8.936-10.242-.97.897-8.514 4.749-8.936 10.242zm-21.915-27.867c15.701-5.037 27.533 3.102 29.437 5.833-14.955-9.244-27.186-5.445-29.437-5.833z" fill="#6d4e43"/><path d="M218.998 76.683c-.062-1.277-1.186-3.251-1.591-4.109.413.28 1.271 1.511 2.066 2.748l.06-1.353c3.261 1.861 8.586 1.21 13.53-7.23 0 0-1.592 3.716-1.545 4.513 6.702-11.434 16.135-2.578 14.074 2.563.909-.538 2.275-4.264 2.275-4.264 1.411 3.261-2.305 8.854-2.253 9.714.081-.81 6.964-6.489 10.927-4.344-.331.546-.628 1.12-.889 1.723-5.327 10.754.708 12.438.023 22.448-.542-2.256-1.988-5.546-1.988-5.546 1.043 4.42 1.424 9.93-.435 14.186.03-.676.012-1.509-.04-2.369-3.171 14.743-13.551 6.045-18.346-4.902-3.602-8.274-6.016 4.054-7.493.447-2.14-5.146-1.186-9.794-.708-12.439l-.899 3.584c-.923-3.854.805-7.808-.833-9.796 1.739-.908 2.906-1.761 2.717-2.383-.313-.899-3.877-.614-5.087-.848-.095-.311.313-.736.313-.736-.877.214-1.916.413-2.831.246.17-.562-.275-.518-.31-.547-.999-.704-1.596-.902-2.602-1.027.305-.158 1.067-.233 1.865-.279z" fill="#e55426"/><path d="M237.217 67.229c4.587-.322 6.82 3.147 6.77 5.91 1.503-3.964-2.653-8.078-6.77-5.91zm-8.682 22.308c-.555 1.53-.487 7.777 1.434 9.705-1.372-.25-3.838-6.422-1.434-9.705zm18.588 4.108c.15 1.525.881 4.404 2.454 6.045-.781-.116-2.701-2.685-2.454-6.045zm1.601 12.062c-.033.965.297 2.697 1.604 3.595-.734.04-2.252-1.382-1.604-3.595zm-7.439-8.153c-.034.965.297 2.697 1.604 3.595-.734.039-2.253-1.383-1.604-3.595zm-8.628-7.844c-.033.965.297 2.697 1.604 3.595-.734.04-2.252-1.382-1.604-3.595zm5.779 9.535c-.409 1.708 2.248 9.497 5.342 10.637-1.893.314-7.849-6.446-5.342-10.637z" fill="#be3b27"/><path d="M232.711 73.284c.979 2.79 3.231 4.814 6.086 4.823-1.266.83-5.83-.582-6.086-4.823z" fill="#ed6e24"/><path d="M219.978 78.543c.886.202 1.925.003 2.831-.246 0 0-.408.425-.313.736 1.21.234 4.774-.052 5.087.848.189.623-.978 1.475-2.717 2.383l-8.519 4.043c-.916.475-4.96 1.417 3.321-8.312.064-.006.508-.05.31.547zm15.39-2.024c-2.119-1.74-2.426-4.869-.686-6.988s4.869-2.427 6.989-.686 2.426 4.869.686 6.988a4.97 4.97 0 0 1-6.989.686z" fill="#030304"/><path d="M239.134 69.447c-.471.431-.314 1.378.333 2.084.681.735 1.602.965 2.044.569.471-.431.314-1.378-.333-2.084-.618-.741-1.538-.971-2.044-.569zm-4.576 3.368c-.005.931.393 1.725.935 2.346.128-.012.232.074.372.188a.52.52 0 0 1 .158.305c.872.716 1.91 1.16 2.558 1.224-1.011.163-1.985-.286-2.752-.916-.127.012-.296-.067-.435-.182-.111-.149-.187-.27-.136-.404-.735-.954-1.095-2.009-.7-2.561z" fill="#fff"/><circle cx="251.142" cy="80.319" r="47.867" stroke="#000" stroke-width=".8"/></g><path fill-rule="evenodd" d="M514.709 239.146c8.43-13.402-48.92-64.656-62.327-73.092s-31.106-4.406-39.535 8.996c-8.436 13.407-4.407 31.105 8.995 39.54s84.432 37.958 92.867 24.556zM412 174.517c-8.729 13.875-4.56 32.19 9.309 40.92 6.802 4.281 27.999 13.8 48.516 20.57 10.265 3.387 20.425 6.108 28.575 7.135 4.07.512 7.698.611 10.61.129 2.892-.478 5.268-1.562 6.546-3.592h0c1.277-2.031 1.226-4.641.406-7.455-.827-2.834-2.485-6.061-4.709-9.508-4.453-6.902-11.302-14.883-18.798-22.672-14.981-15.566-32.736-30.555-39.541-34.836-13.869-8.729-32.19-4.56-40.914 9.309z" fill="#000"/><path d="M452.382 166.054c-13.402-8.435-31.105-4.406-39.535 8.996s-4.407 31.105 8.995 39.54 84.433 37.958 92.868 24.556c8.429-13.402-48.921-64.656-62.328-73.092z" fill="#ea1835"/><g stroke="#231d24" stroke-width=".8"><path d="M425.83 203.935h0a17.53 17.53 0 0 0 24.174-5.502c5.156-8.196 2.695-19.019-5.501-24.174s-19.019-2.695-24.175 5.501-2.694 19.019 5.502 24.175z" fill="#f89f11"/><path d="M432.28 177.663c-3.803-2.391-8.826-1.249-11.222 2.554s-1.249 8.825 2.554 11.221 8.825 1.25 11.221-2.553c2.391-3.803 1.25-8.826-2.553-11.222z" fill="#fff"/></g><path d="M570.131 171.961h0c12.179-5.145 21.644-15.453 25.651-28.182 1.353-4.304 2.084-8.884 2.084-13.636 0-4.969-.798-9.75-2.274-14.223l-.02-.061v-.002c-5.988-18.061-23.014-31.09-43.081-31.09-.621 0-1.241.014-1.855.038h0c-13.038.523-24.659 6.549-32.608 15.818a45.2 45.2 0 0 0-10.913 29.52 45.73 45.73 0 0 0 .595 7.375l-.394.065.394-.065c3.525 21.553 22.231 38 44.781 38a45.2 45.2 0 0 0 17.64-3.557z" fill="#fff" stroke="#000" stroke-width=".8"/><path d="M595.971 115.792v.002c-1.769 1.498-4.04 2.383-6.342 2.206-2.221-.169-4.294-1.272-5.96-2.752-1.107-.985-2.424-2.242-3.831-1.775-1.136.378-1.627 1.75-1.58 2.945s.481 2.353.515 3.551c.073 2.658-2.115 5.187-4.755 5.499-1.871.22-3.874-.528-5.599.232-1.698.749-2.506 2.724-2.706 4.57s.036 3.733-.344 5.549c-.432 2.058-1.748 3.988-3.669 4.839s-4.427.425-5.731-1.225c-1.666-2.11-.96-5.189.048-7.681 1.143-2.82 2.576-5.522 4.272-8.048 1.165-1.737 2.488-3.462 2.907-5.511s-.412-4.547-2.397-5.212c-2.294-.767-4.978 1.175-7.131.071-1.295-.663-1.862-2.181-2.315-3.562l-2.328-7.076c-.797-2.424-1.605-4.949-1.279-7.48.432-3.339 2.142-6.464 2.738-9.817l.134-.712a46.44 46.44 0 0 1 1.871-.039c20.268 0 37.459 13.174 43.482 31.425zm.194 28.107c-4.042 12.841-13.59 23.241-25.876 28.43l-1.646-10.142c-.269-1.646-.426-3.612.84-4.695 1.056-.902 2.635-.749 3.976-.394s2.736.865 4.079.514c1.536-.4 2.588-1.848 3.138-3.339s.736-3.095 1.273-4.591c1.088-3.043 3.694-5.498 6.796-6.404 2.208-.644 5.351-.631 7.42.621zm-72.785-35.864c-.585 1.732-2.494 2.659-3.391 4.25-.956 1.695-.61 3.849-1.343 5.651-.74 1.816-2.472 3.046-3.396 4.775-.981 1.842-.947 4.049-.683 6.118s.738 4.143.542 6.221c-.084.906-.367 1.9-1.147 2.365-.952.566-2.144.111-3.228-.107-.983-.198-2.217.088-3.418.275a46.08 46.08 0 0 1-.601-7.44 45.6 45.6 0 0 1 11.009-29.78c1.536.555 2.916 1.543 4.029 2.745 1.236 1.334 2.207 3.207 1.627 4.927z" fill="#000"/></svg>
