<svg xmlns="http://www.w3.org/2000/svg" width="579" height="322" fill="none"><path d="M125.176 45.201c0 24.963-20.237 45.201-45.201 45.201S34.774 70.164 34.774 45.201 55.011 0 79.975 0s45.201 20.237 45.201 45.201z" fill="#d0d5dd"/><path d="M447.129 20.078c-24.795 30.127 2.215 37.643-64.074 62.552-59.303 22.3-50.016 73.982 9.883 86.654 43.796 9.317 21.642 47.209 30.93 81.125 16.018 58.514 97.049 52.551 121.758 22.859 62.711-75.286-15.763-78.951-30.759-121.563-15.081-42.613 54.02-50.874 63.563-96.158 9.458-45.221-102.161-70.938-131.301-35.469z" fill="#f1f2f8"/><g fill="#020302"><path d="M417.664 299.139c9.717-10.337 21.217-28.139 21.077-54.461l-.709.021c.211 26.06-11.254 43.731-20.871 53.954-10.405 11.068-21.009 16.037-21.157 16.068l.253.63c.149-.031 10.853-5.114 21.407-16.212zm4.323-42.491l-.674-.11c-3.949 26.636-21.154 35.536-21.303 35.567l.319.647c.167-.096 17.669-9.057 21.658-36.104zm-81.72-204.225a28.47 28.47 0 0 0-16.16.407l-78.834 24.988s24.581 13.648 45.902 37.346c3.123 3.531 8.691 3.327 11.679-.272l41.351-50.043c3.599-4.346 1.494-10.932-3.938-12.426z"/><path d="M340.333 52.152c-5.364-1.426-11.068-1.29-16.296.407l-79.58 25.191.679.407c.272.136 24.784 13.92 45.765 37.277 1.494 1.698 3.667 2.648 5.976 2.648 2.444 0 4.685-1.086 6.247-2.919l41.351-50.043c1.766-2.105 2.309-4.957 1.494-7.605s-2.92-4.685-5.636-5.364zM344 64.577l-41.352 50.043c-1.426 1.698-3.463 2.717-5.703 2.717-2.105 0-4.075-.883-5.433-2.445-19.148-21.321-41.215-34.697-45.29-37.074l78.087-24.716c5.16-1.63 10.728-1.765 15.956-.34a7.46 7.46 0 0 1 5.161 4.889c.679 2.377.136 5.025-1.426 6.926z"/></g><path d="M253.689 58.806c-50.993-28.043-98.864-38.432-141.573-33.747-37.618 4.074-58.26 17.179-58.26 17.179s-3.599 24.444 11.951 59.617c17.315 39.247 48.685 76.525 97.845 107.691 33.272 21.117 65.05 27.5 82.093 29.401 7.605.883 15.074-2.852 19.012-9.438l55-91.666c4.006-6.655 3.735-15.074-.747-21.389-10.049-14.056-30.895-38.704-65.321-57.648z" fill="#ffb00d"/><g fill="#020302"><path d="M253.827 58.534c-42.098-23.154-83.111-34.901-121.814-34.901-6.722 0-13.377.34-19.895 1.086-37.278 4.074-58.191 17.111-58.463 17.247l-.136.068v.136c-.068.272-3.463 24.92 11.951 59.753 18.673 42.167 51.605 78.494 97.981 107.895 33.679 21.389 66 27.636 82.228 29.401.747.068 1.494.136 2.241.136 6.994 0 13.512-3.735 17.111-9.71l55-91.667c4.074-6.79 3.734-15.345-.815-21.796-9.506-13.24-30.488-38.5-65.389-57.648zm65.525 79.105l-55 91.666a19.38 19.38 0 0 1-16.568 9.371c-.679 0-1.426-.068-2.105-.136-16.16-1.833-48.345-8.012-81.956-29.333-46.241-29.334-79.105-65.525-97.71-107.556C51.346 68.448 53.859 44.547 54.13 42.374c1.833-1.087 22.475-13.173 57.988-17.043 6.518-.679 13.173-1.086 19.827-1.086 38.636 0 79.512 11.679 121.543 34.765 34.765 19.08 55.679 44.203 65.117 57.513 4.413 6.315 4.685 14.598.747 21.117z"/><path d="M132.551 54.528c-16.296 17.247-36.531 47.191-39.926 91.87l.679.068c3.395-44.407 23.494-74.216 39.722-91.395 17.587-18.605 34.63-26.821 34.833-26.957l-.271-.611c-.204.068-17.315 8.284-35.037 27.025zM171.193 71.3c-19.352 20.438-43.185 55.882-47.259 108.709l.679.068c4.006-52.623 27.839-87.932 47.055-108.302 20.846-22.068 41.012-31.778 41.216-31.914l-.272-.611c-.203.136-20.506 9.914-41.419 32.049zm42.777 23.969c-12.969 13.716-23.698 29.197-31.778 45.969-10.117 20.981-16.228 44.135-18.13 68.716l.68.068c4.277-55.544 29.333-92.821 49.635-114.278 22-23.29 43.321-33.543 43.525-33.679l-.272-.611c-.204.136-21.592 10.457-43.66 33.815z"/></g><path d="M314.256 114.281c-14.055-2.105-39.79 23.698-58.53 58.735-15.007 27.975-20.71 53.777-13.988 62.808 1.426 1.833 3.259 2.988 5.636 3.327 14.055 2.105 39.79-23.697 58.53-58.734 15.007-27.975 20.71-53.778 13.988-62.809-1.426-1.833-3.327-2.987-5.636-3.327z" fill="#fff"/><path d="M314.324 113.942l-1.697-.136c-14.599 0-39.179 25.395-57.173 59.006-15.074 28.111-20.777 54.049-13.987 63.216 1.426 1.901 3.395 3.123 5.839 3.463.543.068 1.087.136 1.698.136 14.598 0 39.179-25.395 57.172-59.007 15.074-28.111 20.778-54.049 13.988-63.215-1.494-1.902-3.463-3.056-5.84-3.463zm-8.759 66.339c-17.926 33.475-42.234 58.667-56.561 58.667-.544 0-1.087-.068-1.562-.136-2.241-.34-4.074-1.426-5.364-3.192-6.655-8.895-.883-34.629 13.987-62.469 17.926-33.407 42.235-58.666 56.562-58.666.543 0 1.086.068 1.562.136 2.24.339 4.074 1.426 5.364 3.191 6.722 8.895.95 34.63-13.988 62.469z" fill="#231d24"/><path d="M311.746 120.867c-11-1.086-33.815 23.087-50.926 53.914s-22.068 56.697-11.068 57.784 33.815-23.087 50.926-53.914c17.179-30.827 22.135-56.697 11.068-57.784z" fill="#fff"/><path d="M311.815 120.528c-11.204-1.087-34.018 23.086-51.265 54.117-13.648 24.648-19.963 46.716-15.618 55 1.019 1.969 2.649 3.123 4.821 3.327.272 0 .476.068.747.068 11.476 0 33.679-23.765 50.519-54.185 13.648-24.648 19.963-46.716 15.617-55-1.019-2.037-2.648-3.123-4.821-3.327zm-11.407 57.987c-16.772 30.284-39.79 54.797-50.587 53.778-1.901-.204-3.327-1.154-4.277-2.92-4.142-7.944 2.24-30.284 15.617-54.321 16.432-29.672 38.839-53.777 49.907-53.777h.679c1.901.203 3.327 1.154 4.278 2.919 4.142 7.877-2.241 30.216-15.617 54.321z" fill="#231d24"/><path d="M394.992 206.694c9.913-6.111 16.5-17.043 16.5-29.537 0-19.148-15.482-34.629-34.63-34.629-14.87 0-27.568 9.37-32.456 22.543 0-.407.068-.883.068-1.29 0-13.444-10.933-24.377-24.377-24.377-9.167 0-17.111 5.025-21.321 12.494-3.055-2.58-6.994-4.21-11.271-4.21-9.575 0-17.315 7.741-17.315 17.315 0 2.037.339 4.006 1.018 5.84-9.234 2.512-16.024 10.932-16.024 20.981 0 12.019 9.709 21.728 21.728 21.728.747 0 1.426-.067 2.105-.135a27.41 27.41 0 0 0 6.247 10.932c1.697 17.043 16.092 30.284 33.611 30.284 3.395 0 6.654-.476 9.71-1.426 5.092 18.129 21.728 31.506 41.487 31.506 23.833 0 43.117-19.284 43.117-43.117-.135-14.328-7.265-27.093-18.197-34.902zm-46.784-2.104c-3.938-6.994-10.185-12.426-17.79-15.21-.611-.951-1.29-1.834-1.969-2.648 6.247-2.309 11.339-7.13 13.987-13.241a33.68 33.68 0 0 0-.203 3.734c0 9.846 4.074 18.673 10.66 24.988-1.629.679-3.191 1.494-4.685 2.377z" fill="#fff"/><path d="M395.607 206.694c10.185-6.45 16.228-17.45 16.228-29.537 0-19.283-15.685-34.969-34.969-34.969-13.92 0-26.617 8.42-32.117 21.05-.272-13.377-11.272-24.241-24.716-24.241-8.827 0-16.976 4.685-21.389 12.29-3.124-2.58-7.13-4.006-11.204-4.006-9.778 0-17.654 7.944-17.654 17.654 0 1.902.339 3.803.951 5.636-9.371 2.716-15.889 11.407-15.889 21.185 0 12.154 9.913 22.068 22.068 22.068.611 0 1.222 0 1.901-.068 1.222 3.938 3.327 7.673 6.111 10.728 1.833 17.383 16.364 30.488 33.882 30.488 3.192 0 6.383-.475 9.507-1.358 5.296 18.537 22.407 31.438 41.759 31.438 23.969 0 43.456-19.487 43.456-43.456-.135-13.649-6.79-26.686-17.925-34.902zm-25.599 77.815c-19.08 0-36.056-12.833-41.148-31.234l-.068-.34-.34.068a33.14 33.14 0 0 1-9.642 1.426c-17.246 0-31.506-12.901-33.271-30.012v-.136l-.068-.068c-2.784-3.124-4.957-6.858-6.111-10.864l-.068-.272h-.272c-.679.068-1.425.136-2.104.136a21.39 21.39 0 0 1-21.389-21.389c0-9.642 6.45-18.13 15.753-20.642l.339-.068-.136-.339c-.679-1.834-1.018-3.803-1.018-5.772 0-9.37 7.605-16.975 16.975-16.975 4.074 0 8.013 1.426 11.068 4.074l.34.272.203-.34c4.278-7.605 12.29-12.358 20.982-12.358 13.24 0 24.037 10.796 24.037 24.037 0 .407 0 .883-.068 1.29l-.136 2.241.747-2.105c4.957-13.377 17.926-22.339 32.185-22.339 18.944 0 34.29 15.413 34.29 34.29 0 12.018-6.111 22.882-16.296 29.197l-.408.272.408.271c11.203 8.013 17.926 21.05 17.926 34.766 0 23.765-19.148 42.913-42.71 42.913zm-27.434-107.351c0-1.223.068-2.445.204-3.667l.204-2.241-.883 2.037a23.9 23.9 0 0 1-13.784 13.037l-.475.136.339.339c.679.815 1.358 1.698 1.969 2.649l.068.067.136.068c7.469 2.784 13.716 8.081 17.587 15.074l.135.272.272-.204a42.6 42.6 0 0 1 4.617-2.376l.476-.204-.34-.339c-6.79-6.383-10.525-15.21-10.525-24.648zm5.772 26.956c-3.938-6.926-10.253-12.222-17.722-15.006l-1.63-2.241c5.568-2.172 10.117-6.314 12.901-11.543-.068.611-.068 1.29-.068 1.901 0 9.439 3.667 18.266 10.457 24.92a35.44 35.44 0 0 0-3.938 1.969z" fill="#020302"/><path d="M345.63 189.651c-6.519-3.734-14.531-2.376-19.556 2.784l26.957 15.617c2.037-6.925-.883-14.598-7.401-18.401z" fill="#fff"/><g fill="#020302"><path d="M345.764 189.38a16.38 16.38 0 0 0-19.963 2.851l.475.476c5.025-5.229 12.833-6.315 19.148-2.716s9.303 11.068 7.266 18.061l.679.204c2.105-7.333-1.019-15.074-7.605-18.876z"/><path d="M302.238 196.645a29.28 29.28 0 0 0-12.494 30.623l.679-.135c-2.444-11.611 2.309-23.358 12.223-29.877 9.234-6.111 21.253-6.383 30.691-.611l.339-.611c-9.709-5.907-22-5.636-31.438.611zm102.127-26.481c1.018 4.006 1.086 8.148.271 12.222-3.055 15.142-17.79 24.987-32.932 21.932-7.333-1.494-13.648-5.704-17.79-11.951s-5.636-13.716-4.142-21.049c.679-3.463 2.037-6.722 3.938-9.71l-.543-.339c-1.969 3.055-3.327 6.382-4.006 9.913-1.494 7.537 0 15.142 4.278 21.525s10.728 10.728 18.265 12.222c1.901.407 3.803.543 5.636.543 13.377 0 25.395-9.438 28.111-23.018.815-4.21.747-8.42-.272-12.562l-.814.272z"/><path d="M376.12 204.997c-9.778-1.698-19.692.543-27.84 6.247s-13.512 14.259-15.21 24.105l.679.135a36.49 36.49 0 0 1 14.939-23.629c8.012-5.636 17.654-7.809 27.296-6.111a36.49 36.49 0 0 1 23.629 14.938c5.635 7.944 7.809 17.654 6.111 27.296l.679.136c1.698-9.778-.543-19.691-6.246-27.839-5.704-8.216-14.26-13.581-24.037-15.278zm-90.172-26.21c-3.191-1.698-6.79-2.037-10.253-.951l.204.679c3.259-1.018 6.722-.679 9.71.883s5.228 4.278 6.247 7.537c.747 2.445.747 5.025 0 7.469l.679.204c.747-2.58.747-5.296 0-7.877-1.087-3.463-3.463-6.246-6.587-7.944z"/></g><path d="M272.501 156.312c-3.939 5.771-7.809 11.95-11.408 18.469l-2.105 3.938 12.155 2.784 10.524-15.006-.475-.815-8.691-9.37z" fill="#231d24"/><path d="M280.374 165.478c-1.765-.475-5.296 2.649-7.876 6.994s-3.259 8.284-1.562 8.827c1.766.476 5.297-2.648 7.877-6.993s3.259-8.284 1.561-8.828z" fill="#fff"/><path d="M280.445 165.207c-1.901-.543-5.568 2.58-8.284 7.129-2.037 3.463-2.987 6.723-2.376 8.352.203.476.543.815 1.018.951.136.068.34.068.475.068 2.038 0 5.297-3.056 7.741-7.198 2.037-3.463 2.988-6.722 2.377-8.352-.136-.543-.476-.882-.951-.95zm-1.969 8.895c-2.716 4.617-6.111 7.197-7.469 6.858-.272-.068-.475-.272-.543-.543-.544-1.358.407-4.55 2.308-7.741 2.581-4.278 5.636-6.858 7.198-6.858.136 0 .204 0 .271.068.272.068.476.271.544.543.543 1.29-.408 4.482-2.309 7.673z" fill="#231d24"/><g fill="#020302"><path d="M224.83 223.194c-31.098-7.129-54.932-22.068-54.932-22.068l16.365 81.074a29.22 29.22 0 0 0 7.469 14.327c3.87 4.075 10.66 2.716 12.765-2.512l23.766-60.432c1.697-4.413-.883-9.302-5.433-10.389z"/><path d="M224.901 222.855c-30.691-7.062-54.593-21.864-54.796-22l-.679-.408 16.5 81.821c1.086 5.432 3.734 10.457 7.605 14.463 1.561 1.562 3.598 2.445 5.771 2.445a8.13 8.13 0 0 0 7.537-5.093l23.766-60.432c.882-2.173.747-4.617-.34-6.722-1.154-2.037-3.123-3.531-5.364-4.074zm5.025 10.592l-23.766 60.432c-1.086 2.852-3.802 4.685-6.858 4.685-2.037 0-3.87-.814-5.296-2.24-3.735-3.938-6.315-8.827-7.401-14.124l-16.229-80.327c4.074 2.445 26.414 15.278 54.389 21.661 2.105.475 3.803 1.833 4.821 3.734s1.087 4.142.34 6.179z"/></g><path d="M276.51 158.145c-.883 1.358-1.494 2.852-1.833 4.55-1.426 7.061 3.191 13.987 10.253 15.413s13.987-3.191 15.413-10.253c.408-1.969.34-3.87-.136-5.704l-23.697-4.006z" fill="#fff"/><path d="M299.868 162.151c.476 1.834.476 3.735.136 5.568-.679 3.327-2.58 6.179-5.432 8.081s-6.247 2.58-9.574 1.901c-6.858-1.358-11.34-8.08-9.982-15.006.34-1.562.883-3.056 1.766-4.414l-.543-.339c-.883 1.425-1.562 2.987-1.902 4.617-1.425 7.265 3.26 14.327 10.525 15.821.883.203 1.766.271 2.648.271a13.17 13.17 0 0 0 7.401-2.24c2.988-1.97 5.025-5.025 5.704-8.556.408-1.969.34-3.938-.136-5.839l-.611.135z" fill="#020302"/><path d="M92.637 254.531a12.08 12.08 0 0 1-24.16 0c0-6.672 5.408-12.08 12.08-12.08s12.08 5.408 12.08 12.08zm-52.754-52.942c0 10.847-8.794 19.641-19.641 19.641S.6 212.436.6 201.589s8.794-19.641 19.641-19.641 19.641 8.794 19.641 19.641z" fill="#fff"/><mask id="A" maskUnits="userSpaceOnUse" x="88" y="45" width="91" height="91" mask-type="alpha"><circle cx="133.361" cy="90.402" r="44.724" fill="#020302"/></mask><g mask="url(#A)"><circle cx="133.361" cy="90.402" r="44.724" fill="#f1f2f8"/><path d="M131.308 146.717c.436.195 13.388-6.812 13.388-6.812s-1.254-4.602-.885-5.381c1.59-.156 3.863-1.212 3.863-1.212s-1.473 1.334-2.236 1.735c0 0 1.77.48 3.04-.209l-.479 6.318s-13.724 7.023-14.169 7.631c2.096 1.072 2.205 4.301 2.205 4.301-3.751-2.485-7.504 4.392-4.645 5.657-4.755 2.428-4.895-1.422.226-7.987-1.168-.093-6.812 1.442-4.331 4.616-7.033 2.83-4.715-6.254 2.533-6.579-2.298-1.617-7.81-1.759-7.188 2.756-2.955 1.687-3.736-1.119-2.513-3.2 2.393-3.772 7.451-3.406 11.191-1.634z" fill="#2d1e1c"/><path d="M118.221 109.072c4.443 10.143 14.093 18.23 16.999 4.542.049.797.065 1.568.037 2.195 1.723-3.943 1.338-9.076.404-13.145 0 0 1.339 3.048 1.841 5.139.635-9.275-4.957-10.836-.021-20.801-2.94 6.678.228 15.342 4.497 21.283 2.762 7.247 19.868 15.612 25.685 17.953-3.02-2.913-4.057-4.089-4.057-4.089 4.211 1.726 9.521 2.84 14.295 4.54-2.339 2.518-5.209 4.761-7.995 6.045 2.991-2.522 3.663-4.46 3.663-4.46s-6.243 5.427-11.731 7.036c4.181-3.115 4.849-4.786 4.849-4.786s-8.189 5.886-13.254 6.056c2.372-1.57 3.827-4.001 3.827-4.001s-1.77 1.036-7.512.975c2.598-1.384-.081-2.339-3.528-1.436s-4.577.301-8.289-4.209c1.719 4.497-4.514 1.543-7.498-1.611 1.144 3.483-6.101-3.116-9.551-7.681.829 3.604-6.415-3.59-6.991-5.524-.176-.578-1.048-1.294-2.177-1.897-.176-.577-.319-1.127-.462-1.678 1.415 3.219 3.663-8.086 6.969-.446z" fill="#f2f2f2"/><path d="M119.953 123.048c4.134 7.291 14.11 13.86 24.292 17.08.283-.147.422-.25.422-.25s-1.255-4.602-.885-5.381c1.589-.156 3.863-1.211 3.863-1.211s-1.474 1.333-2.237 1.735c0 0 1.771.48 3.041-.209l-.48 6.317s-.026.033-.059.006c4.228.982 8.365 1.348 12.009.931-1.462.857-2.832 1.734-3.503 2.157 2.62-.555 12.23-1.647 20.44-7.624-1.242 1.578-3.14 3.429-3.14 3.429 3.985-2.085 7.472-5.013 9.848-7.446-.407.694-1.679 2.572-2.163 3.095 2.693-1.631 5.544-4.377 7.467-6.587l.079-.097.398-.485.08-.097.027-.032 1.168-1.422c-.152.579-.35 1.282-.64 1.964-.073.156-.121.28-.195.436l-.026.032c-.074.156-.148.312-.254.441 2.777-2.591 4.786-5.433 5.917-7.535-9.932-1.878-21.5-3.476-29.013-4.016-1.318-.109 9.299 3.901 7.981 3.793-10.949-1.035-21.504-3.209-28.43-9.275-1.363-1.173-2.735-2.733-4.044-4.565 2.762 7.247 19.869 15.612 25.686 17.953-3.02-2.913-4.057-4.089-4.057-4.089 4.211 1.726 9.521 2.84 14.294 4.54-2.338 2.518-5.208 4.761-7.995 6.045 2.992-2.522 3.663-4.46 3.663-4.46s-6.242 5.427-11.731 7.036c4.182-3.115 4.85-4.786 4.85-4.786s-8.189 5.886-13.254 6.056c2.372-1.57 3.827-4.001 3.827-4.001s-1.771 1.036-7.512.975c2.598-1.384-.081-2.339-3.529-1.436s-4.577.301-8.288-4.209c1.719 4.497-4.515 1.543-7.499-1.611 1.145 3.483-6.101-3.116-9.55-7.681.829 3.604-6.415-3.59-6.992-5.524-.175-.578-1.048-1.294-2.177-1.897 1.448 4.762 4.188 9.664 8.782 14.681.091.02-.616-1.426-.481-2.776zm25.805 1.003c-2.174-.649-3.532-3.279-3.36-6.981.335 1.899 1.536 5.05 3.36 6.981zm-4.247 5.171c-1.515-.594-2.674-2.412-2.846-4.772.389 1.239 1.459 3.363 2.846 4.772zm23.276-2.047c-1.072 2.096-3.68 3.69-6.891 3.975 1.758-.559 4.789-2.075 6.891-3.975z" fill="#b3b3b3"/><path d="M105.911 76.61c5.986-15.001 26.557-31.285 62.859.366 24.842 6.328 36.476 31.902 43.157 49.404-7.943-3.113-32.677-7.134-45.429-8.081-1.319-.108 9.298 3.902 7.98 3.793-10.949-1.035-21.504-3.208-28.43-9.274-6.176-5.397-13.18-18.617-7.684-27.418-3.704-2.014-10.05 3.275-10.125 4.025-.049-.798 3.395-5.98 2.088-9.001 0 0-1.266 3.453-2.108 3.951 1.909-4.764-6.857-12.938-13.042-2.375-.075-.765 1.432-4.182 1.432-4.182-4.581 7.82-9.547 8.396-12.537 6.699-1.042-1.235.176-7.595 2.141-10.582a10.53 10.53 0 0 0-.302 2.675z" fill="#4e362f"/><path d="M202.37 110.409c-1.669-4.888-9.285-19.801-23.559-27.464 12.62 9.281 23.559 27.464 23.559 27.464zm-33.595-33.433a33.5 33.5 0 0 1 3.768 1.146c-7.118-.757-13.331-.177-17.476.587 2.521-.961 6.403-3.184 10.858-4.127l2.85 2.395z" fill="#2d1e1c"/><path d="M142.813 102.2c12.295 13.236 21.572 14.197 21.5 13.164-8.913-1.799-19.551-11.78-21.5-13.164zm30.648 9.473c.098 1-9.206.071-21.501-13.164 1.949 1.384 12.555 11.338 21.501 13.164zM140.957 89.96c-.858-.272-1.29-5.876 8.281-9.491-.899.831-7.889 4.4-8.281 9.491zm-20.306-25.822c14.549-4.668 25.513 2.874 27.277 5.405-13.858-8.565-25.191-5.045-27.277-5.405z" fill="#6d4e43"/><path d="M103.579 87.033c-.057-1.183-1.098-3.013-1.473-3.808.382.26 1.177 1.4 1.914 2.546l.055-1.254c3.022 1.724 7.956 1.121 12.537-6.699 0 0-1.474 3.444-1.432 4.182 6.211-10.595 14.952-2.389 13.042 2.375.842-.499 2.108-3.951 2.108-3.951 1.307 3.022-2.136 8.204-2.088 9.001.075-.75 6.453-6.012 10.125-4.025-.307.506-.582 1.038-.824 1.597-4.935 9.965.656 11.525.021 20.8-.502-2.09-1.841-5.139-1.841-5.139.966 4.096 1.319 9.202-.404 13.145a21.62 21.62 0 0 0-.037-2.195c-2.938 13.661-12.556 5.601-16.999-4.542-3.338-7.666-5.574 3.757-6.943.414-1.983-4.768-1.099-9.075-.656-11.526l-.833 3.322c-.856-3.572.746-7.236-.772-9.078 1.611-.842 2.693-1.631 2.517-2.209-.29-.833-3.592-.569-4.713-.785-.088-.289.29-.682.29-.682-.813.199-1.776.382-2.623.228.157-.521-.255-.48-.287-.507-.926-.652-1.479-.835-2.412-.952.283-.147.989-.216 1.728-.259z" fill="#e55426"/><path d="M120.461 78.272c4.25-.298 6.319 2.916 6.273 5.476 1.393-3.673-2.458-7.485-6.273-5.476zm-8.045 20.671c-.514 1.418-.451 7.207 1.329 8.993-1.271-.231-3.556-5.951-1.329-8.993zm17.224 3.807c.139 1.413.817 4.081 2.274 5.602-.724-.108-2.503-2.489-2.274-5.602zm1.484 11.177c-.031.895.275 2.499 1.486 3.331-.68.037-2.087-1.281-1.486-3.331zm-6.894-7.555c-.031.895.275 2.499 1.486 3.331-.679.037-2.087-1.281-1.486-3.331zm-7.994-7.269c-.031.895.275 2.499 1.486 3.331-.68.037-2.087-1.281-1.486-3.331zm5.355 8.836c-.38 1.582 2.082 8.8 4.95 9.856-1.755.291-7.273-5.973-4.95-9.856z" fill="#be3b27"/><path d="M116.286 83.883c.908 2.585 2.994 4.461 5.64 4.469-1.173.769-5.402-.54-5.64-4.469z" fill="#ed6e24"/><path d="M104.488 88.756c.821.187 1.783.003 2.622-.228 0 0-.377.394-.289.682 1.121.217 4.423-.048 4.713.785.175.577-.906 1.367-2.517 2.209l-7.894 3.747c-.848.44-4.596 1.313 3.077-7.702.059-.006.471-.046.288.507zm14.261-1.876a4.6 4.6 0 0 1-.636-6.476c1.613-1.964 4.512-2.248 6.476-.636a4.6 4.6 0 0 1 .636 6.475c-1.613 1.964-4.512 2.248-6.476.636z" fill="#030304"/><path d="M122.235 80.327c-.436.4-.29 1.277.309 1.931.631.681 1.484.894 1.894.527.436-.399.291-1.277-.308-1.931-.573-.687-1.426-.9-1.895-.527zm-4.24 3.121c-.004.862.365 1.599.867 2.173.118-.012.215.068.344.174a.48.48 0 0 1 .147.283c.808.664 1.77 1.074 2.37 1.134-.936.151-1.839-.265-2.55-.849-.118.012-.274-.062-.403-.168-.103-.138-.173-.251-.126-.374-.681-.884-1.015-1.862-.649-2.373z" fill="#fff"/><circle cx="133.361" cy="90.402" r="44.47" stroke="#000" stroke-width=".508"/></g></svg>
