<svg xmlns="http://www.w3.org/2000/svg" width="252" height="210"><style><![CDATA[.B{fill:#553e37}.C{fill:#fff}.D{fill:#252362}.E{fill:#77cbd8}.F{fill:#ffaf30}.G{fill:#da5724}.H{fill:#382a28}]]></style><path d="M99.728 50.564a17.33 17.33 0 0 1 3.623 10.1c.022 1.145-.057 2.29-.235 3.422a18.45 18.45 0 0 1-1.308 4.26 16.98 16.98 0 0 1-4.294 5.77c-.287.264-.589.511-.906.738a17.3 17.3 0 0 1-24.288-3.153 17.9 17.9 0 0 1-2.583-4.7c-.819-2.276-1.151-4.699-.973-7.112v-.034a17.65 17.65 0 0 1 .872-4.361 16.94 16.94 0 0 1 3.522-5.971c.698-.781 1.474-1.489 2.315-2.113 3.633-2.803 8.232-4.046 12.782-3.454s8.678 2.969 11.473 6.608z" class="C"/><path d="M86.008 78.777A17.72 17.72 0 0 1 72.019 71.9c-1.117-1.441-2-3.049-2.617-4.764a17.76 17.76 0 0 1-1.006-7.246v-.034a16.5 16.5 0 0 1 .906-4.428 16.85 16.85 0 0 1 3.589-6.072c.725-.786 1.51-1.515 2.348-2.18 7.728-5.937 18.804-4.496 24.757 3.22h0c1.531 1.982 2.618 4.27 3.187 6.709a18.46 18.46 0 0 1 .47 3.589 20.11 20.11 0 0 1-.235 3.489c-.263 1.504-.714 2.969-1.342 4.361a17.9 17.9 0 0 1-4.361 5.871c-.3.268-.6.5-.906.738a17.54 17.54 0 0 1-6.24 3.086c-1.237.339-2.509.531-3.791.57-.256-.027-.513-.038-.77-.032zm-.029-34.62a16.81 16.81 0 0 0-10.332 3.522c-.804.632-1.556 1.327-2.248 2.08a17.3 17.3 0 0 0-3.455 5.871c-.473 1.376-.766 2.808-.872 4.26h-.335l.335.034a17.03 17.03 0 0 0 .973 6.978c.603 1.651 1.452 3.201 2.516 4.6a17.01 17.01 0 0 0 14.19 6.609c1.222-.059 2.436-.239 3.623-.537 2.175-.578 4.215-1.581 6-2.952l.872-.7c1.796-1.56 3.228-3.495 4.193-5.669a16.82 16.82 0 0 0 1.275-4.193c.195-1.107.274-2.232.235-3.355-.027-1.164-.173-2.321-.436-3.455-.55-2.345-1.603-4.543-3.086-6.441h0a16.85 16.85 0 0 0-13.448-6.652z" class="D"/><circle cx="13.586" cy="13.586" r="13.586" transform="matrix(.128501 -.991709 .991709 .128501 70.795 72.853)" class="C"/><path d="M86.008 75.019c-6.523.009-12.176-4.514-13.599-10.879s1.768-12.865 7.674-15.633 12.942-1.062 16.925 4.104h0a13.9 13.9 0 0 1-11 22.409zm0-27.139c-6.151.005-11.488 4.247-12.88 10.239s1.529 12.152 7.048 14.868 12.182 1.27 16.079-3.489 4.002-11.576.252-16.452h0c-2.508-3.259-6.388-5.168-10.5-5.166z" class="D"/><path d="M92.28 57.072l-2.516 5.6v.034l-.906 1.979-8.387.939h0l-1.106-14.02z" class="E"/><path d="M80.472 66.062a.44.44 0 0 1-.436-.4l-1.107-14.025a.48.48 0 0 1 .168-.369c.114-.092.272-.106.4-.034l12.915 5.468c.108.041.194.127.235.235a.57.57 0 0 1 0 .335l-3.422 7.615a.4.4 0 0 1-.335.235l-8.353.939zm-.6-13.788l1.006 12.882 7.682-.872 3.153-7.011z" class="D"/><path d="M92.851 57.877l.134 12.513-11.909-4.126 8.387-.805h.067l3.321-7.582z" class="E"/><path d="M92.985 70.826a.2.2 0 0 1-.134-.034L80.94 66.666c-.191-.075-.312-.265-.3-.47a.4.4 0 0 1 .369-.369l8.185-.772 3.254-7.38c.029-.095.096-.174.185-.218s.192-.05.285-.017a.4.4 0 0 1 .335.4l.134 12.513c.001.132-.062.257-.168.335-.045.088-.136.141-.234.138zm-9.9-4.294l9.494 3.254-.1-9.93-2.55 5.8c-.069.132-.191.23-.335.268z" class="D"/><path d="M89.496 65.492l3.355-7.615.134 12.513-3.556-4.9z" class="E"/><path d="M92.984 70.826c-.132.001-.257-.062-.335-.168l-3.556-4.9a.41.41 0 0 1-.034-.436c.025-.069.072-.128.134-.168l3.288-7.447c.029-.095.096-.174.185-.218s.192-.05.285-.017a.4.4 0 0 1 .335.4l.134 12.513c.018.191-.112.364-.3.4a.2.2 0 0 1-.136.041zm-3.019-5.334l2.583 3.556-.1-9.192z" class="D"/><path d="M92.28 57.071l-3.422 7.615-9.493-13.083z" class="E"/><path d="M88.859 65.122c-.132.001-.257-.062-.335-.168L79.03 51.871c-.1-.152-.1-.348 0-.5.127-.138.321-.19.5-.134l12.915 5.468c.108.041.194.127.235.235a.57.57 0 0 1 0 .335l-3.422 7.615a.4.4 0 0 1-.335.235zm-8.252-12.513l8.152 11.238 2.952-6.542z" class="D"/><path d="M92.28 57.072l-2.516 5.6v.034l-.906 1.979-8.387.939h0l3.992-6.978z" class="E"/><path d="M80.472 66.062c-.152.012-.296-.066-.369-.2a.5.5 0 0 1 0-.436l3.992-7.011a.49.49 0 0 1 .3-.2l7.816-1.543c.156-.039.318.03.4.168a.42.42 0 0 1 .067.436l-3.422 7.615a.4.4 0 0 1-.335.235l-8.353.939zm4.26-7.045l-3.455 6.105 7.313-.805 2.986-6.642z" class="D"/><circle cx="11.573" cy="11.573" r="11.573" transform="matrix(.995 -.102 .102 .995 119.197 19.143)" class="E"/><path d="M131.853 41.456a11.66 11.66 0 0 1-5.468-1.342c-2.836-1.451-4.974-3.975-5.938-7.011a11.99 11.99 0 0 1 19.445-12.584 11.99 11.99 0 0 1 2.628 14.362h0c-1.451 2.836-3.975 4.974-7.011 5.938-1.167.444-2.408.66-3.656.637zm.034-23.113c-5.473-.016-10.146 3.95-11.021 9.353s2.306 10.641 7.505 12.354 10.871-.606 13.38-5.47h0a11.14 11.14 0 0 0-4.831-15c-1.551-.817-3.278-1.242-5.031-1.237z" class="D"/><circle cx="8.521" cy="8.521" r="8.521" transform="matrix(.631312 -.775529 .775529 .631312 119.896 30.703)" class="E"/><path d="M131.853 38.437a8.89 8.89 0 0 1-4.093-1.006 9 9 0 0 1-4.428-5.233c-.739-2.265-.534-4.732.57-6.843a9 9 0 0 1 5.233-4.428c2.265-.739 4.732-.534 6.843.57a9 9 0 0 1 4.428 5.233c.739 2.265.534 4.732-.57 6.843a9 9 0 0 1-5.233 4.428c-.886.297-1.816.444-2.75.436zm.034-17.075a7.85 7.85 0 0 0-2.482.4c-3.687 1.184-6.024 4.809-5.58 8.656s3.545 6.844 7.405 7.157 7.403-2.146 8.461-5.872-.665-7.679-4.114-9.441a8 8 0 0 0-3.69-.9z" class="D"/><path d="M129.807 31.627l2.08-2.617 4.126-.5 1.107-1.577-3.992.537 3.053-3.827-2.482-1.275-4.5 5.6-1.644.2-1.208 1.51 1.61-.2-2.281 2.851 7.816 3.992 1.644-1.979z" class="C"/><path d="M133.497 36.659a.3.3 0 0 1-.168-.034l-7.816-4.026c-.1-.035-.167-.129-.168-.235a.26.26 0 0 1 .067-.268l1.744-2.181-.772.1c-.138.032-.278-.039-.335-.168a.3.3 0 0 1 .034-.369l1.208-1.51a.54.54 0 0 1 .235-.134l1.51-.2 4.428-5.5a.32.32 0 0 1 .4-.1l2.482 1.275c.1.035.167.129.168.235a.26.26 0 0 1-.067.268l-2.549 3.153 3.187-.4a.34.34 0 0 1 .335.168c.073.117.059.268-.034.369l-1.141 1.543a.34.34 0 0 1-.235.134l-3.958.5-1.744 2.181 4.965 2.55c.1.035.167.129.168.235a.26.26 0 0 1-.067.268l-1.61 1.979c-.045.106-.152.173-.267.167zm-7.28-4.462l7.212 3.69 1.174-1.443-4.965-2.55c-.1-.035-.167-.129-.168-.235a.26.26 0 0 1 .067-.268l2.113-2.617a.54.54 0 0 1 .235-.134l3.958-.5.57-.805-3.22.4a.34.34 0 0 1-.335-.168.3.3 0 0 1 .033-.369l2.784-3.489-1.879-.973-4.327 5.367a.54.54 0 0 1-.235.134l-1.51.2-.6.772.805-.1a.34.34 0 0 1 .335.168.3.3 0 0 1-.033.369z" class="D"/><circle cx="11.573" cy="11.573" r="11.573" transform="matrix(.378 -.926 .926 .378 176.548 157.614)" class="E"/><path d="M191.631 163.256a12.62 12.62 0 0 1-3.992-.671 12 12 0 0 1 1.761-23.121 12 12 0 0 1 13.033 6.621h0c1.384 2.863 1.564 6.161.5 9.158-1.686 4.8-6.217 8.014-11.305 8.018zm-.034-23.113c-1.664-.01-3.308.369-4.8 1.107a11.15 11.15 0 0 0 1.106 20.579 11.15 11.15 0 0 0 13.755-15.346h0a11.1 11.1 0 0 0-10.06-6.34z" class="D"/><circle cx="8.521" cy="8.521" r="8.521" transform="matrix(.437916 -.899016 .899016 .437916 180.237 155.189)" class="E"/><path d="M191.632 160.236a9.15 9.15 0 0 1-2.986-.5c-3.412-1.2-5.766-4.336-5.964-7.947s1.798-6.987 5.058-8.553a8.82 8.82 0 0 1 6.843-.369c3.412 1.2 5.766 4.336 5.964 7.947s-1.798 6.987-5.058 8.553c-1.207.568-2.523.865-3.857.869zm0-17.075c-1.209-.001-2.403.274-3.489.805-3.508 1.675-5.344 5.596-4.384 9.363s4.449 6.33 8.332 6.121 7.075-3.133 7.624-6.982-1.698-7.549-5.366-8.837c-.874-.302-1.792-.461-2.717-.47z" class="D"/><path d="M192.069 154.233l-.805-3.254 2.08-3.589-.537-1.845-2.046 3.489-1.176-4.731-2.516 1.208 1.711 6.978-.805 1.443.47 1.845.805-1.375.906 3.522 7.917-3.791-.6-2.516z" class="C"/><path d="M190.156 158.258a.2.2 0 0 1-.134-.034c-.1-.035-.167-.129-.168-.235l-.671-2.717-.4.671a.34.34 0 0 1-.335.168c-.122-.03-.223-.117-.268-.235l-.47-1.879c-.025-.079-.013-.166.033-.235l.738-1.308-1.711-6.843c-.04-.147.031-.302.168-.369l2.516-1.208c.097-.033.203-.033.3 0s.167.129.168.235l.973 3.925 1.61-2.784c.078-.106.203-.169.335-.168.133.006.245.104.268.235l.537 1.845c.024.09.012.187-.034.268l-2.013 3.455.671 2.717 5.032-2.415c.097-.033.203-.033.3 0s.167.129.168.235l.6 2.482c.04.147-.031.302-.168.369l-7.917 3.791a.2.2 0 0 1-.128.034zm-.906-4.193h.034c.132.032.236.136.268.268l.772 3.12 7.313-3.522-.436-1.812-5.032 2.415c-.097.033-.203.033-.3 0s-.167-.129-.168-.235l-.805-3.254c-.025-.079-.012-.166.034-.235l2.013-3.455-.268-.939-1.61 2.818a.34.34 0 0 1-.335.168c-.122-.03-.223-.117-.268-.235l-1.073-4.327-1.912.906 1.677 6.709c.025.079.012.166-.034.235l-.738 1.308.235.939.4-.7c.021-.109.122-.184.233-.173z" class="D"/><path d="M206.843 32.096a14.64 14.64 0 0 1-3.522 5.032 15.17 15.17 0 0 1-2.382 1.778c-.832.494-1.708.91-2.617 1.241-1.176.434-2.406.705-3.656.805a14.81 14.81 0 0 1-6-.738l-.906-.335a14.75 14.75 0 0 1-4.764-3.22c-.741-.75-1.394-1.583-1.946-2.482-2.214-3.517-2.821-7.812-1.667-11.804s3.957-7.302 7.705-9.096h.034c2.921-1.403 6.226-1.792 9.393-1.107 4.227.943 7.821 3.708 9.814 7.553s2.183 8.375.518 12.374z" class="F"/><path d="M193.392 41.49c-1.654 0-3.298-.272-4.864-.805a10.98 10.98 0 0 1-.939-.369 15.02 15.02 0 0 1-6.911-5.871c-2.595-4.141-3.008-9.286-1.107-13.788a15.47 15.47 0 0 1 2.415-3.958c1.355-1.6 3.036-2.893 4.931-3.791h.034c1.172-.537 2.4-.941 3.661-1.205 1.986-.369 4.027-.335 6 .1a17.7 17.7 0 0 1 2.583.805c7.631 3.207 11.219 11.99 8.017 19.623h0c-1.235 2.918-3.36 5.372-6.072 7.011-.851.512-1.75.939-2.684 1.275a14.45 14.45 0 0 1-3.791.839 5.13 5.13 0 0 1-1.273.134zm-6.273-28.179l.2.4a14.27 14.27 0 0 0-4.663 3.556c-4.002 4.71-4.491 11.47-1.208 16.706.541.877 1.182 1.688 1.912 2.415 1.309 1.338 2.873 2.399 4.6 3.12.3.134.6.235.872.335 1.877.634 3.864.872 5.837.7a13.02 13.02 0 0 0 3.556-.805 14.44 14.44 0 0 0 2.516-1.208c.834-.494 1.61-1.079 2.315-1.744a13.82 13.82 0 0 0 3.388-4.9c1.452-3.456 1.468-7.347.046-10.816s-4.167-6.227-7.627-7.668c-.789-.338-1.609-.596-2.449-.772-1.865-.408-3.794-.431-5.669-.067a14.4 14.4 0 0 0-3.455 1.141z" class="B"/><circle cx="11.439" cy="11.439" r="11.439" transform="matrix(.925567 -.378584 .378584 .925567 178.511 20.202)" class="F"/><path d="M193.391 38.336c-1.569.003-3.122-.317-4.562-.939-4.424-1.859-7.292-6.199-7.267-10.998s2.937-9.109 7.38-10.922 9.54-.772 12.915 2.638 4.364 8.518 2.505 12.942h0a11.94 11.94 0 0 1-10.97 7.279zm.034-22.845c-4.433.009-8.433 2.662-10.165 6.743-2.337 5.602.304 12.038 5.903 14.382s12.039-.29 14.39-5.886-.275-12.039-5.868-14.397c-1.353-.553-2.8-.839-4.261-.843z" class="B"/><path d="M197.149 28.541c-.293-.732-.78-1.37-1.409-1.845l.067-.168a2.94 2.94 0 0 0 3.053-1.778 3.01 3.01 0 0 0 .235-1.61 2.67 2.67 0 0 0-.6-1.241 2.62 2.62 0 0 0-.537-.5l1.006-2.415-1.51-.637-.906 2.181c-.3-.168-.671-.3-1.04-.47l-.067-.034.906-2.147-1.51-.637-.906 2.147-2.65-1.107c-.067-.034-.1 0-.134.067l-.2.47c-.034.067 0 .1.067.134l1.476.805c.067.034.067.067.067.134l-4.361 10.433c-.034.067-.067.067-.134.067l-1.61-.5c-.067-.034-.1 0-.134.067l-.2.47c-.034.067 0 .1.067.134l2.65 1.107-.973 2.281 1.51.637.973-2.281.47.2.637.235-.973 2.315 1.51.637 1.073-2.516a3.71 3.71 0 0 0 2.751-.47 3.3 3.3 0 0 0 1.342-1.61c.335-.819.333-1.737-.006-2.555zm-1.543-7.414l.57.3a2.68 2.68 0 0 1 .906.939 2.9 2.9 0 0 1 .235.57c.127.937-.257 1.871-1.006 2.449a2.3 2.3 0 0 1-.939.369 3.01 3.01 0 0 1-.939-.034 6.34 6.34 0 0 1-1.174-.335c-.106-.031-.207-.076-.3-.134l-.57-.235c-.067-.034-.067-.067-.067-.134l1.812-4.327c.034-.067.067-.067.134-.067l.7.3.168.067zm-2.08 10.869a3.91 3.91 0 0 1-1.711-.134c-.288-.075-.569-.176-.839-.3l-.3-.134-.839-.369c-.067-.034-.067-.067-.034-.134l2.181-5.166c.034-.067.067-.067.134-.067l.805.335c.033 0 .033 0 .067.034a6.41 6.41 0 0 1 1.073.57 3.65 3.65 0 0 1 1.241 1.241 2.7 2.7 0 0 1 0 2.583c-.28.791-.956 1.376-1.778 1.541z" class="C"/><path d="M191.983 35.989a.2.2 0 0 1-.134-.034l-1.51-.637a.4.4 0 0 1-.168-.168c-.034-.075-.034-.16 0-.235l.839-2.013c-.1-.034-.235-.1-.336-.134l-.2-.067-.839 1.979c-.075.166-.269.24-.436.168l-1.51-.637a.4.4 0 0 1-.168-.168c-.034-.075-.034-.16 0-.235l.839-1.979-2.348-1.006c-.102-.05-.185-.133-.235-.235-.035-.109-.035-.226 0-.335l.2-.47c.039-.098.109-.181.2-.235a.57.57 0 0 1 .335 0l1.409.436 4.227-10.064-1.308-.7a.4.4 0 0 1-.2-.537l.2-.47c.05-.102.133-.185.235-.235s.229-.051.335 0l2.348 1.006.772-1.845c.075-.166.269-.24.436-.168l1.51.637a.4.4 0 0 1 .168.168c.034.075.034.16 0 .235l-.772 1.845c.168.067.335.168.5.235l.772-1.845a.4.4 0 0 1 .168-.168c.075-.034.16-.034.235 0l1.51.637c.166.075.24.269.168.436l-.906 2.181c.141.125.275.259.4.4a3.02 3.02 0 0 1 .671 1.409c.086.603.005 1.218-.235 1.778a3.1 3.1 0 0 1-2.784 1.946c.455.445.81.983 1.04 1.577a3.64 3.64 0 0 1 0 2.784 3.74 3.74 0 0 1-1.476 1.744 4 4 0 0 1-2.717.537l-.973 2.281c-.026.122-.137.207-.262.201zm-1.073-1.141l.906.369.939-2.214a.37.37 0 0 1 .335-.2 3.41 3.41 0 0 0 2.516-.4c.551-.358.983-.872 1.241-1.476.302-.73.302-1.551 0-2.281h0a4.05 4.05 0 0 0-1.308-1.711c-.112-.087-.153-.237-.1-.369l.067-.168c.05-.122.169-.201.3-.2a2.58 2.58 0 0 0 2.752-1.579 2.75 2.75 0 0 0 .2-1.442 2.42 2.42 0 0 0-.537-1.107c-.148-.165-.305-.322-.47-.47-.112-.087-.153-.237-.1-.369l.872-2.113-.906-.369-.772 1.879c-.042.08-.114.14-.2.168a.37.37 0 0 1-.268 0c-.3-.168-.637-.3-1.006-.47l-.067-.034c-.166-.075-.24-.269-.168-.436l.772-1.845-.906-.369-.772 1.845c-.075.166-.269.24-.436.168l-2.449-1.04-.034.067 1.308.7q.2.1.2.2a.57.57 0 0 1 0 .335l-4.361 10.433a.41.41 0 0 1-.537.235l-1.409-.436-.034.067 2.449 1.04c.166.075.24.269.168.436l-.839 1.979.906.369.839-1.979c.075-.166.269-.24.436-.168l.47.2c.207.093.419.172.637.235.086.028.158.088.2.168.034.086.034.182 0 .268zm2.113-2.482c-.443-.006-.883-.073-1.308-.2a5.42 5.42 0 0 1-.872-.3l-1.141-.47a.42.42 0 0 1-.235-.537l2.181-5.166a.42.42 0 0 1 .537-.235l.805.335c.034 0 .034.034.067.034.386.156.756.347 1.107.57.55.331 1.011.792 1.342 1.342.466.902.479 1.972.034 2.885a2.65 2.65 0 0 1-1.979 1.744h-.534zm.5-.369zm-3.355-1.141l.939.4c.3.134.57.2.805.3.499.154 1.025.2 1.543.134h0a2.07 2.07 0 0 0 1.51-1.342c.371-.727.371-1.588 0-2.315-.284-.457-.676-.837-1.141-1.107-.328-.212-.677-.392-1.04-.537h-.033l-.6-.268zm4.8-4.764a4.11 4.11 0 0 1-.637-.067c-.428-.07-.845-.194-1.241-.369-.106-.031-.207-.076-.3-.134l-.57-.235c-.108-.041-.194-.127-.235-.235a.57.57 0 0 1 0-.335l1.811-4.327c.041-.108.127-.194.235-.235a.57.57 0 0 1 .335 0l.872.369.537.235a4.87 4.87 0 0 1 .6.335c.416.259.761.616 1.006 1.04a2.34 2.34 0 0 1 .268.671c.096.512.026 1.041-.2 1.51-.189.504-.529.937-.973 1.241a2 2 0 0 1-1.073.4.6.6 0 0 1-.434.137zm-2.281-1.275l.336.134a2.3 2.3 0 0 1 .268.1 5.8 5.8 0 0 0 1.107.335 2.41 2.41 0 0 0 .839.034 1.68 1.68 0 0 0 .805-.3c.33-.251.586-.587.738-.973.165-.356.224-.752.168-1.141a1.94 1.94 0 0 0-.168-.47 2.63 2.63 0 0 0-.805-.805l-.537-.3h0l-.671-.3-.47-.2zm1.443-3.992z" class="B"/><path d="M97.081 10.559a9.73 9.73 0 0 1-.034 4.059c-.146.647-.36 1.276-.637 1.879-.259.584-.585 1.136-.973 1.644-.49.675-1.065 1.284-1.711 1.812-1.04.862-2.253 1.491-3.556 1.845-.208.064-.421.109-.637.134a9.02 9.02 0 0 1-3.791 0 8.03 8.03 0 0 1-1.979-.637c-2.879-1.249-4.96-3.833-5.569-6.911-.194-.983-.24-1.99-.134-2.986a9.37 9.37 0 0 1 1.241-3.791h0c.416-.712.924-1.366 1.51-1.946.911-.926 2.008-1.646 3.22-2.113.546-.206 1.107-.374 1.677-.5 2.505-.519 5.113-.018 7.247 1.392s3.619 3.612 4.126 6.119z" class="F"/><path d="M87.621 22.569a9.58 9.58 0 0 1-1.946-.2 9.4 9.4 0 0 1-2.08-.671c-2.991-1.327-5.163-4.01-5.837-7.212a9.76 9.76 0 0 1-.134-3.12 10.22 10.22 0 0 1 1.308-3.958 9.5 9.5 0 0 1 1.577-2.046c.958-.956 2.099-1.709 3.355-2.214a10.49 10.49 0 0 1 1.744-.537 10.09 10.09 0 0 1 11.875 12.077c-.158.669-.383 1.321-.671 1.946a8.8 8.8 0 0 1-1.006 1.711 9.45 9.45 0 0 1-1.778 1.879c-1.09.897-2.36 1.549-3.724 1.912-.2.067-.436.1-.637.168a7.15 7.15 0 0 1-2.046.265zm.034-19.289c-.62 0-1.239.067-1.845.2-.549.11-1.088.267-1.61.47a9.36 9.36 0 0 0-3.086 2.046 8.75 8.75 0 0 0-1.442 1.879 8.9 8.9 0 0 0-1.208 3.657c-.106.951-.061 1.914.134 2.851a9.27 9.27 0 0 0 5.334 6.609c.613.27 1.254.471 1.912.6a9.4 9.4 0 0 0 3.623 0c.2-.034.4-.1.6-.134a9.32 9.32 0 0 0 3.395-1.736 7.97 7.97 0 0 0 1.61-1.744 7.39 7.39 0 0 0 .906-1.577 8.55 8.55 0 0 0 .6-1.778c.296-1.279.308-2.607.034-3.891h0a9.05 9.05 0 0 0-3.958-5.837c-1.446-1.07-3.202-1.637-5-1.615z" class="B"/><circle cx="7.548" cy="7.548" r="7.548" transform="matrix(.551369 -.834261 .834261 .551369 77.181 14.594)" class="F"/><path d="M87.621 20.489A8 8 0 0 1 86.568 4.56a8 8 0 0 1 8.903 6.335h0c.88 4.326-1.913 8.546-6.238 9.427-.531.105-1.071.161-1.612.167zm.034-15.129a7.22 7.22 0 0 0-1.442.134 7.14 7.14 0 0 0-5.568 8.42 7.14 7.14 0 0 0 8.42 5.569 7.14 7.14 0 0 0 5.569-8.419h0c-.686-3.311-3.597-5.69-6.978-5.703z" class="B"/><path d="M90.439 12.237c-.427-.29-.927-.453-1.443-.47l-.034-.1a1.97 1.97 0 0 0 1.006-2.113 1.72 1.72 0 0 0-1.275-1.442 1.98 1.98 0 0 0-.47-.067l-.335-1.677-1.04.2.3 1.543a6.94 6.94 0 0 0-.738.134h-.034l-.3-1.51-1.04.2.3 1.51-1.879.369c-.034 0-.067.034-.034.067l.067.335c0 .034.034.067.067.034l1.107-.1c.034 0 .067 0 .067.034l1.51 7.347c0 .034 0 .067-.034.067l-1.073.335c-.034 0-.067.034-.034.067l.067.335c0 .034.034.067.067.034L87.113 17l.335 1.61 1.04-.2-.336-1.61.336-.067.436-.1.335 1.61 1.04-.2-.364-1.777a2.63 2.63 0 0 0 1.342-1.275c.193-.432.24-.914.134-1.375-.133-.568-.481-1.063-.972-1.379zM86.85 8.748a1.91 1.91 0 0 1 .436-.034 2.2 2.2 0 0 1 .839.168c.124.059.238.138.335.235a1.53 1.53 0 0 1 .4.805 1.64 1.64 0 0 1-.034.906 1.19 1.19 0 0 1-.369.537 1.64 1.64 0 0 1-.537.335 3.43 3.43 0 0 1-.772.268c-.067 0-.134.034-.2.034l-.4.067c-.034 0-.067 0-.067-.034l-.637-3.053c0-.034 0-.067.034-.067l.5-.1.1-.034zm2.919 6.709a2.98 2.98 0 0 1-.973.57c-.168.067-.369.1-.57.168l-.2.034-.6.134c-.034 0-.067 0-.067-.067l-.738-3.623c0-.034 0-.067.034-.067l.57-.1h.034a3.76 3.76 0 0 1 .805-.1 2.89 2.89 0 0 1 1.141.2 1.81 1.81 0 0 1 .973 1.409 1.57 1.57 0 0 1-.41 1.442z" class="C"/><path d="M87.385 18.946c-.062-.001-.122-.025-.168-.067-.073-.043-.122-.116-.134-.2l-.268-1.308-1.543.3c-.209.027-.406-.1-.47-.3l-.067-.335a.41.41 0 0 1 .268-.47l.839-.235-1.409-6.877-.872.1a.36.36 0 0 1-.268-.067c-.084-.054-.144-.138-.168-.235l-.067-.335c-.026-.105-.002-.216.067-.3.054-.084.138-.144.235-.168l1.543-.3-.235-1.174c-.018-.085.001-.174.052-.244s.129-.116.216-.125l1.04-.2c.08-.023.167-.01.237.035s.118.118.132.2l.24 1.169c.067 0 .1-.034.168-.034l-.235-1.208c-.023-.08-.01-.167.035-.237s.118-.118.2-.132l1.04-.2c.085-.018.174.001.244.052s.116.129.125.216l.3 1.442a.98.98 0 0 1 .3.067c.357.089.682.275.939.537.281.315.477.696.57 1.107.157.753-.098 1.533-.671 2.046a3.2 3.2 0 0 1 .973.436c1.033.688 1.416 2.022.906 3.153-.258.572-.709 1.036-1.275 1.308l.3 1.543c.018.085-.001.174-.052.244s-.129.116-.216.125l-1.04.2a.3.3 0 0 1-.235-.034c-.073-.043-.122-.116-.134-.2l-.268-1.308c-.034 0-.1.034-.134.034h-.034l.268 1.308c.018.085-.001.174-.052.244s-.129.116-.216.125l-1.04.2c.069.102.069.102.034.102zm-.335-2.248c.062.001.122.025.168.067.073.043.122.116.134.2l.268 1.308.4-.1-.268-1.308a.27.27 0 0 1 .1-.3l-.436.1c-.209.027-.406-.1-.47-.3l-.738-3.623c-.026-.105-.002-.216.067-.3l.034-.034c-.009 0-.018-.003-.024-.01s-.01-.015-.01-.024c-.084-.054-.144-.138-.168-.235l-.637-3.053c-.026-.105-.002-.216.067-.3.054-.084.138-.144.235-.168l.436-.1c-.034 0-.034-.034-.067-.034-.073-.043-.122-.116-.134-.2l-.235-1.174-.4.1.235 1.174c.018.085-.001.174-.052.244s-.129.116-.216.125l-.57.1c.116.039.196.146.2.268l1.516 7.343c.026.105.002.216-.067.3l-.034.034.537-.1zm1.879-.4c.034 0 .1.034.134.034.073.043.122.116.134.2l.268 1.308.4-.1-.3-1.442c-.033-.147.036-.297.168-.369a2.24 2.24 0 0 0 1.174-1.107 2.12 2.12 0 0 0 .134-1.208 1.8 1.8 0 0 0-.805-1.174h0c-.375-.263-.817-.414-1.275-.436-.151-.007-.276-.119-.3-.268l-.034-.1v-.1h0a4.71 4.71 0 0 1-.6.4c-.034 0-.034.034-.067.034h.067c.437-.019.873.061 1.275.235a2.18 2.18 0 0 1 1.141 1.644c.175.634-.004 1.313-.47 1.778h0c-.263.334-.631.57-1.044.669zm-3.556.671zm1.577-4.126l.637 3.12.537-.1c.2-.034.369-.1.537-.134a2.37 2.37 0 0 0 .872-.47 1.23 1.23 0 0 0 .3-1.208 1.5 1.5 0 0 0-.805-1.174 1.81 1.81 0 0 0-.973-.168 2.99 2.99 0 0 0-.738.1h-.032zm2.818 2.617zm-3.083-2.55zm.1-.939zm-.335-.2zm-.235-2.583l.5 2.516.134-.034c.067 0 .134-.034.2-.034.241-.053.476-.132.7-.235a1.38 1.38 0 0 0 .436-.268c.129-.123.232-.271.3-.436a1.35 1.35 0 0 0 .034-.738 1.61 1.61 0 0 0-.3-.637 1.02 1.02 0 0 0-.235-.168c-.22-.098-.459-.144-.7-.134a1.5 1.5 0 0 0-.369.034h0zm1.107-.805a2.25 2.25 0 0 1 .939.2c.165.068.313.171.436.3a2.07 2.07 0 0 1 .5.973c.081.368.057.751-.067 1.107a1.57 1.57 0 0 1-.168.335c.581-.342.879-1.017.738-1.677a1.53 1.53 0 0 0-.4-.805c-.177-.175-.397-.303-.637-.369a1.25 1.25 0 0 0-.4-.067c-.151-.007-.276-.119-.3-.268l-.268-1.375-.4.1.235 1.208a.28.28 0 0 1-.067.268.18.18 0 0 1-.134.1h0c-.044-.034-.01-.034-.01-.034zm-1.375.872zm-2.449-.1zm3.355-.4z" class="B"/><path d="M142.659 190.282c-.637 1.719-1.645 3.277-2.952 4.562a13.96 13.96 0 0 1-2.046 1.677c-.706.47-1.459.863-2.248 1.174a13.4 13.4 0 0 1-3.22.839c-1.791.243-3.613.083-5.334-.47a7.56 7.56 0 0 1-.805-.268c-1.592-.607-3.051-1.519-4.294-2.684-.666-.648-1.272-1.356-1.811-2.113a12.86 12.86 0 0 1-1.409-11.808 12.44 12.44 0 0 1 1.946-3.455c1.123-1.414 2.528-2.58 4.126-3.422h.034a12.39 12.39 0 0 1 3.12-1.141c1.697-.386 3.455-.42 5.166-.1a11.31 11.31 0 0 1 2.248.637 12.84 12.84 0 0 1 7.479 16.572z" class="F"/><path d="M130.582 199.071a13.77 13.77 0 0 1-3.858-.57 8.4 8.4 0 0 1-.839-.3 13.7 13.7 0 0 1-4.462-2.784c-.706-.666-1.336-1.409-1.879-2.214-2.43-3.584-2.968-8.124-1.443-12.177a13.93 13.93 0 0 1 2.013-3.589c1.153-1.463 2.606-2.664 4.26-3.522 1.016-.534 2.1-.929 3.221-1.174 1.752-.396 3.565-.442 5.334-.134.789.145 1.563.358 2.315.637a13.33 13.33 0 0 1 4.73 21.906 13.09 13.09 0 0 1-2.113 1.711c-.736.488-1.523.893-2.348 1.208-1.063.439-2.18.732-3.321.872-.531.096-1.07.14-1.61.13zm.033-25.8c-.925-.002-1.848.099-2.751.3-1.041.233-2.045.605-2.986 1.107h-.034a12.56 12.56 0 0 0-3.992 3.288 11.8 11.8 0 0 0-1.879 3.355 12.63 12.63 0 0 0 1.342 11.406c.508.741 1.092 1.427 1.744 2.046 1.198 1.133 2.613 2.012 4.16 2.583.268.1.537.2.772.268a12.23 12.23 0 0 0 5.166.436 12.56 12.56 0 0 0 3.12-.805c.764-.306 1.494-.688 2.181-1.141.711-.47 1.374-1.01 1.979-1.61 1.244-1.252 2.215-2.748 2.851-4.395h0a12.48 12.48 0 0 0-11.674-16.84z" class="B"/><circle cx="10.097" cy="10.097" r="10.097" transform="matrix(.911001 -.412405 .412405 .911001 117.248 180.722)" class="F"/><path d="M130.616 196.287c-1.271-.008-2.53-.235-3.724-.671-4.723-1.767-7.538-6.625-6.724-11.601s5.033-8.682 10.073-8.85 9.495 3.25 10.639 8.161-1.342 9.945-5.937 12.022c-1.357.624-2.834.944-4.327.939zm-.034-20.229c-1.377.008-2.737.305-3.992.872-3.994 1.805-6.277 6.068-5.567 10.393s4.237 7.634 8.598 8.068 8.47-2.116 10.018-6.217h0a9.68 9.68 0 0 0-5.636-12.479c-1.094-.411-2.251-.627-3.42-.637z" class="B"/><path d="M133.97 187.464a3.69 3.69 0 0 0-1.308-1.577l.067-.134a2.6 2.6 0 0 0 2.65-1.677 2.32 2.32 0 0 0 .134-1.409c-.088-.403-.285-.775-.57-1.073a5.97 5.97 0 0 0-.47-.436l.805-2.147-1.342-.5-.738 1.946c-.268-.134-.6-.268-.939-.4l-.067-.034.738-1.912-1.342-.5-.738 1.912-2.382-.906c-.067-.034-.1 0-.1.067l-.168.436c-.034.067 0 .1.034.1l1.342.671c.067.034.067.067.067.1l-3.522 9.359c-.033.067-.067.067-.1.034l-1.443-.4c-.067-.034-.1 0-.1.067l-.168.436c-.034.067 0 .1.034.1l2.382.906-.772 2.046 1.342.5.772-2.046.436.168.57.2-.772 2.08 1.342.5.839-2.248a3.34 3.34 0 0 0 2.415-.5 3.1 3.1 0 0 0 1.138-1.482 2.76 2.76 0 0 0-.066-2.247zm-1.61-6.508a2.4 2.4 0 0 1 .5.268c.348.186.638.465.839.805a1.58 1.58 0 0 1 .2.5c.081.393.047.801-.1 1.174a2.27 2.27 0 0 1-.7 1.006c-.244.185-.534.301-.839.336a3.5 3.5 0 0 1-.839 0 4.76 4.76 0 0 1-1.04-.268l-.268-.1-.5-.2c-.067-.034-.067-.067-.034-.1l1.476-3.891c.034-.067.067-.067.1-.034l.637.235.134.067zm-1.476 9.695c-.502.093-1.018.07-1.51-.067l-.772-.235-.268-.1-.772-.3c-.067-.033-.067-.067-.034-.1l1.744-4.663c.034-.067.067-.067.1-.034l.7.268c.009 0 .018.003.024.01s.01.015.01.024c.34.123.666.28.973.47a3.47 3.47 0 0 1 1.141 1.04c.406.698.444 1.55.1 2.281a2.03 2.03 0 0 1-1.436 1.405z" class="C"/><g class="B"><path d="M129.643 194.24c-.037.004-.073-.008-.1-.034l-1.342-.5a.31.31 0 0 1-.184-.158c-.037-.076-.043-.163-.016-.242l.671-1.744-.268-.1-.134-.034-.671 1.744a.4.4 0 0 1-.168.168c-.075.034-.16.034-.235 0l-1.342-.5a.31.31 0 0 1-.184-.158c-.037-.076-.043-.163-.016-.242l.671-1.744-2.113-.805c-.108-.033-.196-.111-.241-.214s-.043-.221.006-.323l.168-.436a.39.39 0 0 1 .5-.268l1.206.324 3.388-8.957-1.141-.57a.3.3 0 0 1-.2-.2c-.033-.097-.033-.203 0-.3l.168-.436c.032-.108.111-.197.214-.242s.222-.043.323.007l2.08.771.6-1.61a.31.31 0 0 1 .158-.184c.076-.037.163-.043.242-.016l1.342.5a.4.4 0 0 1 .168.168c.034.075.034.16 0 .235l-.6 1.677c.134.067.268.1.4.168l.6-1.644a.4.4 0 0 1 .168-.168c.075-.034.16-.034.235 0l1.342.5a.4.4 0 0 1 .168.168c.034.075.034.16 0 .235l-.738 1.946c.12.103.232.215.335.335a2.6 2.6 0 0 1 .637 1.241 3.03 3.03 0 0 1-.168 1.61 2.83 2.83 0 0 1-2.348 1.845 4.07 4.07 0 0 1 .939 1.308c.675 1.467.176 3.207-1.174 4.093-.705.457-1.546.659-2.382.57l-.772 2.046a.4.4 0 0 1-.168.168zm-.939-1.006l.738.268.738-1.946a.32.32 0 0 1 .335-.2 3 3 0 0 0 2.18-.436 2.84 2.84 0 0 0 1.04-1.308 2.54 2.54 0 0 0-.067-1.979h0a3.3 3.3 0 0 0-1.208-1.443c-.126-.077-.17-.239-.1-.369l.067-.134c.042-.128.166-.21.3-.2a2.24 2.24 0 0 0 2.348-1.476 2.3 2.3 0 0 0 .134-1.241 2.36 2.36 0 0 0-.5-.939 1.61 1.61 0 0 0-.436-.369c-.126-.077-.17-.239-.1-.369l.7-1.845-.738-.268-.637 1.644c-.028.086-.088.158-.168.2-.086.034-.182.034-.268 0a5.7 5.7 0 0 0-.906-.369l-.067-.034a.4.4 0 0 1-.168-.168c-.034-.075-.034-.16 0-.235l.6-1.61-.738-.268-.6 1.61a.31.31 0 0 1-.158.184c-.076.037-.163.043-.242.016l-2.113-.805 1.073.537a.3.3 0 0 1 .2.2c.033.097.033.203 0 .3l-3.522 9.359a.4.4 0 0 1-.5.235l-1.208-.335 2.147.805a.4.4 0 0 1 .168.168c.034.075.034.16 0 .235l-.671 1.744.738.268.671-1.744a.4.4 0 0 1 .168-.168c.075-.034.16-.034.235 0l.436.168.57.2c.086.027.158.088.2.168.034.086.034.182 0 .268zm-.2-14.056zm1.812 11.842a3.85 3.85 0 0 1-1.04-.134l-.805-.235-1.04-.4c-.105-.027-.191-.101-.235-.2-.033-.097-.033-.203 0-.3l1.744-4.663c.027-.105.101-.191.2-.235.097-.033.203-.033.3 0l.7.268c.034 0 .034 0 .067.034a7 7 0 0 1 1.006.47 3.24 3.24 0 0 1 1.241 1.174 2.88 2.88 0 0 1 .134 2.583 2.3 2.3 0 0 1-1.711 1.61h0c-.126-.006-.326.028-.563.028zm.57-.369zm-2.986-.939l.805.3.738.235a2.8 2.8 0 0 0 1.375.067c.606-.141 1.084-.606 1.241-1.208.303-.643.278-1.392-.067-2.013a2.87 2.87 0 0 0-1.04-.939 4.94 4.94 0 0 0-.939-.436h-.033l-.5-.2zm1.375-4.26zm.3-.168zm2.281.134a2.22 2.22 0 0 1-.47-.033 5.26 5.26 0 0 1-1.107-.268l-.268-.1-.5-.2c-.105-.027-.191-.101-.235-.2-.033-.097-.033-.203 0-.3l1.475-3.898c.027-.105.101-.191.2-.235.097-.033.203-.033.3 0l.772.3.47.2a3.07 3.07 0 0 1 .57.3c.373.218.694.516.939.872a2.38 2.38 0 0 1 .268.6c.103.461.056.943-.134 1.375-.163.445-.441.838-.805 1.141a2.3 2.3 0 0 1-.973.4l-.501.046zm-1.912-1.141l.268.1.268.1a4.3 4.3 0 0 0 1.006.235 2.7 2.7 0 0 0 .738 0 1.33 1.33 0 0 0 .7-.3 1.7 1.7 0 0 0 .6-.872 1.79 1.79 0 0 0 .1-1.006 2.05 2.05 0 0 0-.168-.4 1.8 1.8 0 0 0-.738-.671c-.146-.098-.304-.177-.47-.235h0l-.6-.268-.4-.134zm1.073-3.489zM37.07 88.902a.36.36 0 0 1-.335-.268 55.52 55.52 0 0 1 5.032-33.479 53.34 53.34 0 0 1 12.045-15.767c.14-.101.333-.08.447.05s.109.325-.011.45A52.8 52.8 0 0 0 42.37 55.457a54.89 54.89 0 0 0-4.965 33.077c.016.085-.004.172-.055.242s-.128.116-.213.127zM19.961 74.198c-.169-.008-.308-.133-.335-.3a51.24 51.24 0 0 1 3.053-25.327c1.738-4.362 4.199-8.399 7.28-11.942.124-.12.32-.124.45-.011s.152.307.05.447c-3.046 3.475-5.475 7.446-7.179 11.741a50.5 50.5 0 0 0-2.986 24.992c.01.089-.016.178-.073.248a.33.33 0 0 1-.227.121c-.001.017-.016.031-.033.031zm42.268 134.5a81.41 81.41 0 0 0-2.113-21.872c-1.763-7.273-4.005-14.422-6.709-21.4l-8.319-21.2a175.62 175.62 0 0 1-6.877-21.335 80.39 80.39 0 0 1-2.382-21.906c.034-.906.1-1.812.168-2.717.034-.4-.6-.4-.637 0-.516 7.318.015 14.671 1.577 21.839a147.85 147.85 0 0 0 6.441 21.369c2.65 7.112 5.569 14.123 8.286 21.2a185.49 185.49 0 0 1 7.112 21.369 85.12 85.12 0 0 1 2.919 21.939q0 1.359-.1 2.717c-.034.4.637.4.637 0z"/><path d="M41.498 106.784c.464-4.64-.396-9.316-2.482-13.486-.839-1.677-2.08-4.26-4.16-4.629-2.113-.369-2.952 2.214-3.455 3.791-2.717 8.823 1.845 18.081-.6 26.938-.6 2.214-1.476 4.327-2.08 6.508a11.19 11.19 0 0 0-.369 5.938 7.39 7.39 0 0 0 3.316 4.196c1.542.825 3.032 1.744 4.462 2.751 1.287.985 2.003 2.542 1.912 4.16-.185 1.501-.725 2.937-1.574 4.189-1.51 2.617-3.791 5.233-4.026 8.353a5.52 5.52 0 0 0 1.174 3.925 8.67 8.67 0 0 0 3.321 2.382c2.684 1.208 5.871 1.744 8.152 3.657 1.402 1.171 2.162 2.941 2.046 4.764-.1 2.382-1.073 4.6-1.443 6.944-.554 3.833.828 7.691 3.69 10.3a11.42 11.42 0 0 0 10.3 3.153 11.9 11.9 0 0 0 7.682-6.273c1.663-3.05 1.86-6.688.537-9.9-1.711-3.891-5.267-6.508-7.816-9.8-5.166-6.743-3.958-15.733-4.428-23.65-.235-3.925-.839-7.917-2.818-11.406-1.946-3.422-5.2-5.8-7.447-8.99a9.54 9.54 0 0 1-1.912-4.965c-.034-.4-.671-.436-.637 0 .2 3.757 2.885 6.575 5.334 9.158a30.35 30.35 0 0 1 3.657 4.361 18.5 18.5 0 0 1 2.281 5.367c1.946 7.682.2 15.8 2.147 23.482a20.56 20.56 0 0 0 2.08 5.2 27.8 27.8 0 0 0 3.858 4.8c2.617 2.784 5.569 5.736 5.9 9.762a12 12 0 0 1-3.556 9.292 9.96 9.96 0 0 1-9.8 2.717c-3.696-1.089-6.657-3.864-7.984-7.481a10.64 10.64 0 0 1-.268-5.971c.47-2.147 1.275-4.26 1.308-6.508a6.31 6.31 0 0 0-1.811-4.529 10.64 10.64 0 0 0-3.589-2.18c-2.549-1.073-5.669-1.61-7.716-3.589-1.031-.964-1.614-2.313-1.61-3.724.124-1.46.583-2.872 1.342-4.126 1.443-2.583 3.69-5.065 4.193-8.085a5.42 5.42 0 0 0-.805-3.992 10.53 10.53 0 0 0-3.757-2.986c-1.628-.736-3.072-1.824-4.227-3.187a7.47 7.47 0 0 1-.839-5.8c.493-2.107 1.121-4.179 1.879-6.206a24.45 24.45 0 0 0 1.308-6.407c.268-4.428-.537-8.823-.839-13.217a27.76 27.76 0 0 1 .168-6.676c.158-1.051.417-2.084.772-3.086.3-.906.7-2.181 1.61-2.617 1.073-.537 2.181.436 2.818 1.208a15.02 15.02 0 0 1 1.744 2.885 24.06 24.06 0 0 1 2.181 6.575 23.38 23.38 0 0 1 .235 6.676c-.067.47.6.47.637.034z"/><path d="M34.789 151.323c-1.006-5.8-4.462-10.8-8.252-15.163-2.046-2.382-4.227-4.629-6.441-6.843-2.315-2.315-4.663-4.6-7.078-6.81-2.717-2.516-5.535-4.931-8.387-7.313-.335-.268-.772.2-.47.47 5.032 4.16 9.9 8.554 14.526 13.15q3.371 3.321 6.542 6.843a52.72 52.72 0 0 1 5.334 6.911c1.752 2.72 2.97 5.748 3.589 8.923a.33.33 0 1 0 .637-.168zm-22.745-38.234c-1.295-2.128-3.184-3.832-5.435-4.9a4.64 4.64 0 0 0-5.5 1.476 6.88 6.88 0 0 0-.939 5.367 9.95 9.95 0 0 0 3.589 5.435c1.946 1.677 4.227 2.919 6.206 4.6 1.912 1.644 3.757 3.891 3.925 6.508.168 2.717-1.946 4.73-2.214 7.313-.235 2.348 1.174 4.5 2.885 5.971 1.912 1.677 4.26 2.583 6.542 3.623s4.6 2.248 6 4.395c2.717 4.126 1.476 9.695-.5 13.855-1.04 2.181-2.684 4.428-1.879 6.978.744 1.868 2.225 3.349 4.093 4.093a26.44 26.44 0 0 0 6.24 1.711c2.08.436 4.361 1.006 6 2.449a5.23 5.23 0 0 1 1.677 2.784 9.01 9.01 0 0 1-.335 4.327c-.637 2.382-1.644 4.7-1.375 7.212.092 2.227 1.728 4.087 3.925 4.462 2.482.369 4.73-1.006 6.34-2.784.838-.969 1.6-2.001 2.281-3.086.235-.335-.335-.671-.57-.335-1.375 2.08-2.952 4.428-5.4 5.267a5 5 0 0 1-3.489.034 3.73 3.73 0 0 1-2.147-2.348c-1.61-4.831 3.388-9.594.939-14.324-1.979-3.791-6.978-4.059-10.634-4.931a11.75 11.75 0 0 1-5.6-2.751c-.695-.645-1.175-1.488-1.375-2.415a5.77 5.77 0 0 1 .738-3.724c.537-1.107 1.141-2.147 1.61-3.288a20.48 20.48 0 0 0 1.141-3.422 15.48 15.48 0 0 0 .3-6.676 9.7 9.7 0 0 0-3.321-5.6 26.74 26.74 0 0 0-6.407-3.422 13.93 13.93 0 0 1-5.8-4.193 5.88 5.88 0 0 1-1.208-3.12 7.77 7.77 0 0 1 1.006-3.657 9.65 9.65 0 0 0 1.174-3.422 6.55 6.55 0 0 0-.57-3.388c-1.034-2.199-2.631-4.085-4.629-5.468-3.489-2.617-8.454-5.066-8.688-10-.067-1.778.47-3.757 2.08-4.7 2.214-1.308 4.663 0 6.307 1.543.902.851 1.712 1.796 2.415 2.818.268.4.839.067.6-.268zm184.046 94.267c2.864-5.711 6.161-11.193 9.863-16.4 3.657-5.267 7.581-10.332 11.406-15.465 3.791-5.066 7.514-10.165 10.835-15.532a94.9 94.9 0 0 0 8.387-16.706 60.54 60.54 0 0 0 3.925-17.88c.034-.772.067-1.543.067-2.315a.32.32 0 0 0-.483-.291.32.32 0 0 0-.154.291c-.092 6.15-1.179 12.245-3.22 18.048a90.07 90.07 0 0 1-8.018 16.84c-3.22 5.4-6.877 10.5-10.6 15.566l-11.372 15.331c-3.721 5.128-7.084 10.508-10.064 16.1-.369.7-.738 1.409-1.074 2.147-.268.3.3.637.5.268zm13.485-29.553c-1.711-2.65.034-5.8 2.013-7.749 2.248-2.147 5.334-3.12 7.951-4.73 1.283-.738 2.411-1.718 3.321-2.885.93-1.262 1.561-2.718 1.845-4.26.637-3.22.168-6.542.034-9.8-.067-1.61-.067-3.455.906-4.8a7.19 7.19 0 0 1 1.979-1.644 13.09 13.09 0 0 0 1.711-1.342c2.08-2.08 2.885-5.065 3.086-7.917.268-3.522-.47-7.011-.637-10.5-.168-3.388.2-6.978 2.583-9.594 1.811-2.013 4.764-3.489 7.447-2.281 2.818 1.308 3.858 4.663 4.7 7.414 1.107 3.589 2.181 7.514 1.241 11.272-.738 3.086-2.751 5.7-3.891 8.655a7.9 7.9 0 0 0-.6 4.026c.235 1.409.974 2.685 2.08 3.589 1.233.888 2.409 1.851 3.522 2.885a6.41 6.41 0 0 1 1.543 3.958 11.04 11.04 0 0 1-3.288 8.051c-2.415 2.449-5.535 4.059-8.487 5.77a24.54 24.54 0 0 0-7.38 5.971 12.04 12.04 0 0 0-2.046 4.026 12.47 12.47 0 0 0-.1 4.73 12.04 12.04 0 0 1 .1 5.133c-.5 1.711-1.979 2.684-3.422 3.589-3.288 2.013-6.676 3.891-10.131 5.569a138.49 138.49 0 0 1-5.065 2.315c-.369.168-.067.738.335.57 3.62-1.55 7.158-3.286 10.6-5.2a93.77 93.77 0 0 0 5.032-2.952 6.94 6.94 0 0 0 3.22-3.489c.397-1.618.409-3.307.034-4.931-.335-1.695-.335-3.438 0-5.133.839-3.187 3.321-5.7 5.9-7.548 5.233-3.757 12.513-5.938 14.794-12.647.906-2.684.839-5.871-1.107-8.118a34.18 34.18 0 0 0-3.623-2.986 5.08 5.08 0 0 1-1.946-3.891 10.29 10.29 0 0 1 1.174-4.327c.7-1.476 1.51-2.885 2.214-4.395a14.54 14.54 0 0 0 1.442-4.864c.139-1.901-.008-3.812-.436-5.669a44.61 44.61 0 0 0-1.51-5.4c-.418-1.461-1.051-2.851-1.879-4.126a6.83 6.83 0 0 0-3.254-2.65c-1.284-.442-2.681-.43-3.958.034a9.78 9.78 0 0 0-5.8 5.938c-1.275 3.657-.671 7.682-.3 11.406.336 3.22.5 6.508-.537 9.594-.459 1.43-1.252 2.73-2.315 3.791-1.174 1.107-2.784 1.677-3.69 3.053-.78 1.459-1.107 3.118-.939 4.764.034 1.711.2 3.422.268 5.133.1 3.288-.168 6.843-2.482 9.393-2.181 2.348-5.334 3.455-8.051 5-2.516 1.442-4.931 3.757-5.5 6.709a5.19 5.19 0 0 0 .671 3.791c.3.4.872.067.637-.3z"/></g><path d="M80.748 169.281l-17.847 13.72 9.695 5.334 19.289-13.855z" class="C"/><path d="M72.562 188.671a.3.3 0 0 1-.168-.034l-9.695-5.334c-.096-.057-.159-.157-.168-.268s.044-.227.134-.3l17.847-13.72c.095-.077.226-.09.335-.034l11.137 5.2a.52.52 0 0 1 .2.268c.012.117-.039.231-.134.3l-19.289 13.855c-.029.067-.129.067-.199.067zm-9.091-5.7l9.058 5 18.652-13.419-10.433-4.864z" class="B"/><path d="M66.155 180.486l-20.866 7.447-.134 3.858 31.567 1.074.335-9.494c-.033-.034-8.386 6.374-10.902-2.885z" class="G"/><g class="B"><path d="M76.991 193.166l-32.171-1.073.134-4.361.2-.067 21.166-7.548.1.336c.671 2.482 1.845 4.026 3.455 4.562 3.086 1.04 6.911-1.845 6.944-1.879l.5-.4zm-31.534-1.677l30.93 1.04.3-8.588c-1.208.805-4.26 2.516-7.011 1.61-1.744-.6-3.019-2.147-3.757-4.663l-20.363 7.246z"/><path d="M44.263 190.386l33.245 1.131-.081 2.38-33.245-1.131z"/><path d="M77.561 194.072l-33.58-1.141.1-2.717 33.58 1.141zm-33.211-1.443l32.909 1.107.067-2.08-32.909-1.107zm21.067-11.673h-.067c-1.308-.369-7.883-2.382-7.85-4.227 0-.637.738-1.107 2.181-1.443 2.08-.5 3.657-.235 4.7.7 1.744 1.61 1.275 4.629 1.275 4.764-.012.066-.048.126-.1.168-.039.038-.072.038-.139.038zm-3.791-5.435a7.46 7.46 0 0 0-1.811.235c-1.577.369-1.812.772-1.812 1.006-.034 1.073 4.294 2.784 7.212 3.657.067-.772.1-2.885-1.141-4.059a3.4 3.4 0 0 0-2.448-.839z"/><path d="M67.195 188.772a2.51 2.51 0 0 1-1.644-.57c-2.113-1.845-.7-7.581-.637-7.85.025-.069.072-.128.134-.168.063-.033.137-.033.2 0 .268.134 6.307 3.086 6.206 5.77-.034.973-.805 1.744-2.315 2.348a4.56 4.56 0 0 1-1.944.47zm-1.879-7.984c-.268 1.174-1.107 5.636.537 7.078.671.6 1.711.6 3.12.034q1.962-.805 2.013-1.912c.062-1.912-3.824-4.294-5.669-5.2z"/><path d="M58.004 188.537a8.53 8.53 0 0 1-2.617-.4c-.113-.051-.167-.182-.122-.297s.172-.177.29-.139c.034 0 3.321 1.107 5.569-.5 1.543-1.107 2.583-3.556 3.086-5.066a9.51 9.51 0 0 1-5.435 3.22c-.084.012-.168-.022-.22-.088s-.065-.156-.034-.235.103-.135.187-.147c3.657-.6 5.9-4.026 5.938-4.059a.27.27 0 0 1 .3-.1c.105.043.163.158.134.268-.034.2-1.241 4.864-3.657 6.575a5.88 5.88 0 0 1-3.419.968z"/></g><path d="M72.494 108.495L52.4 118.66l8.521 7.045 21.537-10.03z" class="C"/><path d="M60.921 126.04a.36.36 0 0 1-.2-.067l-8.521-7.045c-.095-.069-.146-.183-.134-.3.009-.111.072-.211.168-.268l20.094-10.165a.31.31 0 0 1 .335.034l9.963 7.179c.09.073.14.184.134.3-.004.122-.084.229-.2.268l-21.537 10.03c-.001.034-.068.034-.102.034zm-7.917-7.313l7.984 6.575 20.832-9.695-9.325-6.741z" class="B"/><path d="M56.058 116.781l-21.872 3.422-.839 3.757 30.8 6.944 2.08-9.292s-9.398 4.73-10.169-4.831z" class="G"/><g class="B"><path d="M64.344 131.239l-31.4-7.078.973-4.26 22.409-3.489.034.335c.2 2.549 1.04 4.294 2.549 5.133 2.851 1.61 7.112-.5 7.179-.537l.57-.3zm-30.661-7.514l30.192 6.81 1.879-8.387c-1.342.537-4.663 1.677-7.179.268-1.61-.906-2.55-2.684-2.818-5.267l-21.369 3.321z"/><path d="M32.704 122.421l32.466 7.308-.523 2.324-32.466-7.308z"/><path d="M64.746 132.279l-32.775-7.38.6-2.65 32.775 7.38zm-32.375-7.615l32.137 7.246.47-2.013-32.135-7.248zm22.948-7.546c-.037.004-.073-.008-.1-.034-1.208-.637-7.313-3.824-6.911-5.6q.2-.906 2.415-1.006c2.147-.1 3.623.436 4.462 1.577 1.409 1.912.4 4.8.369 4.931-.034.067-.067.134-.134.134zm-4.126-6.173h-.436c-1.61.067-1.912.436-1.979.637-.235 1.073 3.69 3.522 6.407 4.931.2-.738.637-2.818-.369-4.193a4.33 4.33 0 0 0-3.623-1.375z"/><path d="M56.292 125.201c-.858.075-1.698-.276-2.248-.939-1.744-2.214.738-7.581.839-7.816.04-.062.099-.109.168-.134s.143-.009.2.034c.235.168 5.6 4.193 5.032 6.843-.2.939-1.107 1.577-2.717 1.879-.421.074-.847.118-1.274.133zm-1.073-8.286c-.47 1.107-2.147 5.3-.772 7.045.537.7 1.577.906 3.053.637q2.063-.4 2.315-1.51c.402-1.848-2.986-4.93-4.596-6.172z"/><path d="M47.871 123.323c-1.334-.046-2.64-.39-3.824-1.006-.083-.039-.138-.121-.142-.213s.042-.178.121-.225.177-.046.256.002c.034.034 3.053 1.677 5.569.537 1.711-.772 3.187-3.019 3.992-4.395a9.67 9.67 0 0 1-5.943 2.151c-.13 0-.235-.105-.235-.235s.105-.235.235-.235h.168c2.415-.153 4.692-1.178 6.407-2.885.035-.045.087-.073.143-.08s.113.01.157.046a.22.22 0 0 1 .067.3c-.1.2-2.113 4.529-4.831 5.77a4.97 4.97 0 0 1-2.14.468z"/></g><path d="M132.819 72.668c-.055-.177-.043-.368.034-.537.2-.369.805-.436 1.04-.436h.067a28.83 28.83 0 0 0 3.824-.772c0 0-1.912.2-3.589.4l-2.08.235c-.586.131-1.2-.032-1.644-.436-.102-.159-.138-.352-.1-.537.134-1.006 4.026-1.409 5.971-1.543-2.046-.1-7.045.805-6.911-.939.034-.47.906-.772 2.18-1.006 2.593-.315 5.205-.448 7.816-.4l2.113 1.241c.2 3.153-1.241 3.824-2.382 4.327a11.33 11.33 0 0 1-3.288.939c-1.542.169-2.883-.033-3.051-.536z" class="C"/><path d="M134.798 73.574c-1.073 0-2.08-.2-2.315-.805h0c-.093-.277-.068-.58.067-.839.034-.034.034-.067.067-.1l-.436.067c-.436.067-1.51.1-1.946-.6a1.32 1.32 0 0 1-.168-.772c.034-.2.1-.637 1.275-1.04a3.15 3.15 0 0 1-1.912-.6.98.98 0 0 1-.3-.839c.034-.637.805-1.04 2.482-1.308a50.65 50.65 0 0 1 7.883-.4.25.25 0 0 1 .168.034l2.113 1.241c.096.057.159.157.168.268.2 3.388-1.409 4.126-2.55 4.663-1.074.487-2.217.804-3.388.939a4.9 4.9 0 0 1-1.208.091zm-1.677-1.04c.067.168.973.5 2.784.3 1.101-.142 2.176-.447 3.187-.906 1.073-.5 2.281-1.073 2.181-3.824l-1.879-1.107a55.67 55.67 0 0 0-7.682.4c-1.812.3-1.912.671-1.912.671a.47.47 0 0 0 .1.3c.57.57 2.784.436 4.395.335l2.08-.067a.36.36 0 0 1 .335.335.33.33 0 0 1-.3.335c-5.468.436-5.669 1.241-5.669 1.275a.41.41 0 0 0 .067.3c.168.268.772.335 1.308.268l5.636-.637c.175-.023.337.095.369.268.028.183-.089.356-.268.4-1.277.348-2.578.606-3.891.772h-.067c-.168 0-.637.067-.772.268-.02.104-.021.21-.002.314z" class="B"/><path d="M238.525 72.767a23.12 23.12 0 0 1-1.073 3.254c-2.05.611-4.223.68-6.307.2-4.395-1.073-4.764-4.126-9.561-5.871-4.059-1.476-6-.1-7.816-2.181-1.281-1.498-1.767-3.518-1.308-5.435.205-.722.572-1.387 1.073-1.946 1.342-1.577 1.812-6.206-1.073-18.719a7.46 7.46 0 0 1 3.053-.2c3.791.57 6.575 4.26 9.8 8.688 1.61 2.181 2.08 3.556 3.925 4.562 1.308.738 1.879.537 4.126 1.51 2.147.939 3.422 1.476 4.361 2.617a3.73 3.73 0 0 1 .805 2.516 22.84 22.84 0 0 1-4.931-2.315 48.73 48.73 0 0 0 5.032 3.288 94.43 94.43 0 0 0 .335 3.388 11.58 11.58 0 0 1-2.986-1.241l3.153 2.516c-.002 1.807-.206 3.608-.608 5.369z" class="H"/><path d="M233.795 76.759a10.4 10.4 0 0 1-2.717-.335c-1.829-.479-3.49-1.454-4.8-2.818-1.358-1.356-2.996-2.398-4.8-3.053-1.358-.487-2.785-.758-4.227-.805-1.443-.1-2.617-.2-3.69-1.409a6.3 6.3 0 0 1-1.342-5.636 5.27 5.27 0 0 1 1.107-2.013l.034-.034c1.644-1.946 1.275-8.185-1.141-18.518l-.034-.2.168-.067c1.013-.293 2.075-.373 3.12-.235 3.958.57 6.843 4.562 9.93 8.789l1.073 1.577c.645 1.217 1.607 2.237 2.784 2.952a5.5 5.5 0 0 0 1.677.637c.827.225 1.635.517 2.415.872 2.147.939 3.455 1.51 4.428 2.65.582.757.88 1.696.839 2.65l.034.3-.3-.1c-.537-.2-1.308-.47-2.113-.805.805.537 1.644 1.073 2.348 1.442l.1.034v.1l.336 3.388.034.3-.268-.067a9.82 9.82 0 0 1-1.409-.47l1.812 1.442v.1c.058 1.805-.123 3.609-.537 5.367h0a18.95 18.95 0 0 1-1.107 3.288l-.034.1-.1.034a12.48 12.48 0 0 1-3.62.543zM212.661 42.24c2.415 10.534 2.751 16.639 1.006 18.685l-.034.034a4.66 4.66 0 0 0-1.006 1.845 5.97 5.97 0 0 0 1.275 5.267c.973 1.107 2.013 1.174 3.422 1.275 1.476.062 2.935.345 4.327.839 1.835.682 3.505 1.745 4.9 3.12a9.78 9.78 0 0 0 4.629 2.717c2.018.467 4.122.398 6.105-.2a19.84 19.84 0 0 0 1.577-8.319l-3.086-2.449.235-.335a11.84 11.84 0 0 0 2.65 1.141l-.3-2.986c-1.702-.994-3.348-2.08-4.931-3.254l.235-.335c1.443.905 2.987 1.637 4.6 2.181a3.23 3.23 0 0 0-.738-2.113c-.906-1.073-2.113-1.61-4.26-2.55a19.33 19.33 0 0 0-2.382-.839c-.625-.142-1.224-.378-1.778-.7a8.08 8.08 0 0 1-2.918-3.086 21.22 21.22 0 0 0-1.074-1.543c-3.019-4.16-5.871-8.085-9.661-8.621-.937-.075-1.881.002-2.794.226z" class="B"/><path d="M192.154 115.505c-2.338 6.188-6.055 11.763-10.869 16.3-4.227 3.925-8.789 6.407-23.919 11.976-7.145 2.617-16.4 5.8-27.407 9.125q-20.983 17.411-41.966 34.788a22.6 22.6 0 0 1-7.816-4.361c-3.805-3.355-6.399-7.871-7.38-12.848q22.644-17.511 45.254-35.022 21.084-10.014 42.2-20.027c-8.281-3.996-16.861-7.34-25.663-10-2.952-.906-5.871-1.677-8.689-2.382Q97.72 113.37 69.575 123.719c-2.175-1.704-3.96-3.855-5.233-6.307-1.512-2.956-2.262-6.242-2.181-9.561l58.84-26.334a10.84 10.84 0 0 1 7.816-.436l40.053 12.72c3.858 3.086 7.883 6.508 11.976 10.332 4.096 3.892 7.886 7.716 11.308 11.372z" class="C"/><path d="M87.959 188.1h-.1a22.07 22.07 0 0 1-7.951-4.428c-3.859-3.401-6.499-7.973-7.514-13.016a.4.4 0 0 1 .134-.369l45.254-35.022c.034 0 .034-.034.067-.034l41.526-19.691c-8.053-3.843-16.385-7.073-24.925-9.661-2.818-.839-5.7-1.644-8.588-2.348l-56.257 20.6a.32.32 0 0 1-.335-.067c-2.199-1.738-4.005-3.921-5.3-6.407a20.1 20.1 0 0 1-2.214-9.762.34.34 0 0 1 .2-.3l58.84-26.334a11.31 11.31 0 0 1 8.051-.47l40.054 12.714c.034 0 .067.034.1.067 4.093 3.288 8.152 6.776 12.01 10.332 3.925 3.623 7.783 7.447 11.406 11.372.104.093.131.245.067.369a43.34 43.34 0 0 1-10.97 16.438c-4.093 3.791-8.32 6.273-24.053 12.043-8.957 3.254-18.149 6.34-27.374 9.125l-41.933 34.754a.24.24 0 0 1-.195.095zm-14.828-17.411a22.73 22.73 0 0 0 7.244 12.413c2.199 1.894 4.754 3.33 7.514 4.227l41.832-34.687c.032-.041.082-.066.134-.067 9.225-2.784 18.451-5.871 27.374-9.125 15.6-5.7 19.792-8.185 23.818-11.875 4.727-4.446 8.386-9.905 10.7-15.968a207.33 207.33 0 0 0-11.238-11.171c-3.824-3.556-7.85-7.011-11.909-10.265l-39.987-12.714a10.48 10.48 0 0 0-7.548.436L62.46 108.16a18.98 18.98 0 0 0 2.147 9.158 19.3 19.3 0 0 0 4.965 6.072l56.123-20.6c.063-.033.137-.033.2 0 2.919.738 5.837 1.543 8.722 2.382a180.73 180.73 0 0 1 25.73 10.03.38.38 0 0 1 0 .671l-42.163 19.996z" class="B"/><path d="M188.833 69.983c-9.728 2.885-21 4.965-21 4.965l-23.583-4.7v.1h-.034l-4.16-2.449-2.113-1.241-2.751-1.61c-1.58-.449-3.228-.608-4.864-.47-1.107.1-3.053.268-3.355 1.275-.094.333-.032.691.168.973.47.6 1.443.268 2.986.268a8.8 8.8 0 0 1 .906.034 7.7 7.7 0 0 1 3.288 1.006 7.8 7.8 0 0 1 2.717 2.65c-1.323-.164-2.664-.085-3.958.235a1.95 1.95 0 0 0-.4.335.46.46 0 0 0-.1.134 1.93 1.93 0 0 0-.134.235.59.59 0 0 0-.034.2c0 .537.939.906 2.046 1.308a13.37 13.37 0 0 1 1.04.369c3.12 1.073 2.583 1.308 4.629 1.879 1.185.318 2.399.519 3.623.6v.168s17.847 10.567 23.214 9.661c5.4-.906 26.7-7.145 26.7-7.145l8.554-8.152c-.067-.091-3.653-3.513-13.385-.628z" class="C"/><path d="M166.188 86.287c-6.173 0-22.006-9.359-22.711-9.762-.067-.034-.1-.1-.134-.134-1.145-.096-2.279-.297-3.388-.6-.665-.167-1.307-.415-1.912-.738a15.93 15.93 0 0 0-2.717-1.141l-.57-.2-.47-.168c-1.241-.436-2.281-.839-2.315-1.644.006-.125.029-.249.067-.369a.79.79 0 0 1 .2-.3c.067-.067.1-.134.134-.168a5.01 5.01 0 0 1 .436-.369c1.119-.333 2.293-.447 3.455-.335-.59-.779-1.329-1.433-2.175-1.923a7.68 7.68 0 0 0-3.12-.939c-.29-.028-.581-.039-.872-.034-.47 0-.839.034-1.208.067-.906.067-1.644.1-2.08-.47a1.52 1.52 0 0 1-.235-1.308c.369-1.241 2.449-1.409 3.69-1.51a14.19 14.19 0 0 1 5 .5c.034 0 .067.034.1.034l8.789 5.166h.134l23.516 4.663c.973-.168 11.674-2.214 20.9-4.931 9.829-2.885 13.519.5 13.687.637a.41.41 0 0 1 0 .537L193.835 79a.73.73 0 0 1-.168.1c-.2.067-21.369 6.24-26.736 7.145-.205.009-.474.042-.743.042zm-22.107-10.3c1.979 1.141 17.88 10.332 22.778 9.494 5.133-.872 25.059-6.676 26.569-7.112l8.152-7.783c-1.04-.7-4.831-2.549-12.647-.235l-.1-.369.1.369c-9.628 2.851-20.933 4.965-21.034 4.965h-.134l-23.348-4.629c-.081.046-.178.058-.268.034h-.034c-.034 0-.067-.034-.1-.034l-8.957-5.3c-1.525-.442-3.12-.59-4.7-.436-.906.067-2.818.235-3.053 1.006a.75.75 0 0 0 .1.637c.2.268.6.235 1.443.168.369-.034.772-.067 1.241-.067h.067c.302-.005.605.006.906.034 1.204.086 2.374.441 3.422 1.04a8.31 8.31 0 0 1 2.851 2.751.43.43 0 0 1 0 .4c-.057.129-.197.2-.335.168a12.81 12.81 0 0 0-3.724.168c-.034.034-.2.168-.335.3-.03.028-.053.062-.067.1a.46.46 0 0 1-.1.134v.067c0 .335 1.342.805 1.812.939l.47.168.6.2a20.6 20.6 0 0 1 2.851 1.174c.557.315 1.156.551 1.778.7 1.151.319 2.331.52 3.522.6.103.01.199.057.268.134-.06.082-.027.15.007.217z" class="B"/><path d="M203.388 71.09s-3.321-7.28-24.388 1.342l-3.22 11.808s19.39-3.12 21.134-5.166c1.71-2.012 6.474-7.984 6.474-7.984z" class="G"/><path d="M175.309 84.677l3.388-12.479.168-.067c21.134-8.655 24.69-1.476 24.824-1.174l.1.2-.134.168c-.034.067-4.764 6-6.474 8.018-1.778 2.08-19.356 4.965-21.335 5.267zm3.958-12.01l-3.019 11.137c7.749-1.275 19.222-3.589 20.4-4.965 1.543-1.812 5.5-6.776 6.307-7.816-1.017-1.233-2.471-2.026-4.059-2.214-3.087-.603-8.994-.469-19.629 3.859z" class="B"/><path d="M178.209 80.114c-1.225 2.154-2.604 4.217-4.126 6.173-.556.746-1.149 1.462-1.778 2.147-5.2 4.965-14.056 6.105-14.056 6.105l25.965 24.556c1.107-.805 2.818-1.979 4.864-3.388 12.781-8.823 16.27-10.567 19.591-13.284 4.26-3.455 9.494-9.494 12.915-20.765a47.48 47.48 0 0 0-12.58-8.756 48.43 48.43 0 0 0-10.7-3.623c-14.392 5.267-18.82 8.655-20.095 10.835z" class="G"/><path d="M184.211 119.565l-26.7-25.26.7-.1c.1 0 8.789-1.208 13.855-6.038.168-.168.772-.906 1.744-2.113a50.7 50.7 0 0 0 4.026-6l.1-.168c1.778-3.053 8.454-6.642 20.329-10.936l.1-.034.1.034a48.45 48.45 0 0 1 10.768 3.623c4.671 2.227 8.944 5.208 12.647 8.823l.134.134-.067.2c-2.784 9.125-7.179 16.169-13.05 20.933a73.9 73.9 0 0 1-6.374 4.428l-13.251 8.89-4.864 3.388zm-25.227-24.791l25.26 23.885 4.663-3.254 13.251-8.89a65.34 65.34 0 0 0 6.307-4.395c5.7-4.629 10-11.506 12.748-20.4a46.77 46.77 0 0 0-22.879-12.11c-11.506 4.16-18.216 7.716-19.893 10.6l-.1.134a50.38 50.38 0 0 1-4.059 6.072c-.872 1.107-1.577 1.979-1.812 2.214-4.359 4.299-11.269 5.78-13.483 6.144z" class="B"/><path d="M187.911 97.424s-2.717-4.73-4.093-5.166c-1.409-.436-1.308.6-.3 1.778.967 1.208 2.779 3.455 4.393 3.388z" class="C"/><path d="M187.84 97.76c-1.711 0-3.455-2.08-4.5-3.355l-.134-.134c-.738-.906-1.006-1.677-.7-2.147.168-.235.537-.47 1.375-.235 1.476.47 4.026 4.831 4.294 5.334a.3.3 0 0 1 0 .335.49.49 0 0 1-.3.2zm-4.562-5.233a.2.2 0 0 0-.134.034c-.034.067.034.537.637 1.275l.134.134c.772.939 2.113 2.549 3.321 2.986-1.073-1.778-2.684-4.093-3.522-4.327-.135-.069-.285-.104-.437-.102z" class="B"/><path d="M166.332 78.202q9.812-12.379 19.625-24.791-14.593-10.919-29.157-21.838l-16.5 22.778q13.033 11.922 26.032 23.851z" class="H"/><path d="M166.366 78.471l-.134-.134-26.133-23.952 16.706-23.08.134.1 29.286 21.939zm-25.8-24.153l25.73 23.617 19.39-24.489-28.85-21.6z" class="B"/><path d="M166.334 78.203l5.032 21.5q-14.945-15-29.856-29.99l-1.174-15.331z" class="H"/><path d="M171.7 100.276l-30.359-30.494v-.067l-1.208-15.8 26.4 24.187zm-30.024-30.661l29.357 29.487-4.864-20.832-25.636-23.483z" class="B"/><path d="M171.735 90.984c1.073-.268 6.441-1.275 7.38-.436s7.716 7.179 7.716 7.179a7.2 7.2 0 0 1 1.51 2.382q8.756 1.812 17.478 3.623c.5-1.811 2.919-10.1 5.6-17.008.57-1.442 1.744-4.26 4.059-5.233a6.85 6.85 0 0 1 5.367.268 7.99 7.99 0 0 1 1.51 1.006c3.287 3.12-4.294 20.6-4.294 20.6-3.455 7.951-5.233 11.943-7.917 13.184-5.267 2.482-11.573-.939-15.733-3.187a33.87 33.87 0 0 1-9.292-7.481v-.034a15.72 15.72 0 0 1-2.382-1.308c-1.198-1.179-2.155-2.581-2.818-4.126 0 0-6.474 1.811-6.307-.2.067-.906 1.275-1.476 2.583-1.812-1.912.2-3.958.2-4.026-.637-.134-1.342.537-1.409.771-1.375-.5-.1-3.12-.7-1.375-2.784l5.636-.805s-6.038.335-6.34-.537c-.233-.81-.199-1.011.874-1.279z" class="C"/><path d="M206.12 117.788c-4.294 0-8.689-2.382-11.842-4.093a33.75 33.75 0 0 1-9.393-7.548c-.168-.067-.3-.168-.47-.235-.662-.292-1.291-.651-1.879-1.073a11.92 11.92 0 0 1-2.751-3.958c-1.275.335-4.965 1.208-6.105.268-.268-.22-.407-.561-.369-.906.068-.549.391-1.034.872-1.308a3.32 3.32 0 0 1-1.979-.47.81.81 0 0 1-.335-.637c-.089-.446-.018-.909.2-1.308a2.11 2.11 0 0 1-1.308-1.141 2.13 2.13 0 0 1 .57-1.979.54.54 0 0 1 .235-.134l.839-.134c-1.409-.134-1.744-.436-1.845-.738-.17-.369-.194-.788-.067-1.174.168-.335.57-.47 1.174-.637h0c.067 0 6.441-1.442 7.716-.335.939.839 7.447 6.944 7.749 7.212.638.675 1.15 1.459 1.51 2.315l16.974 3.522c.906-3.187 3.086-10.5 5.5-16.74.47-1.208 1.711-4.361 4.227-5.435 1.845-.7 3.898-.603 5.669.268.565.296 1.094.656 1.577 1.073 1.476 1.409 1.208 5.367-.805 11.842-1.476 4.73-3.355 9.125-3.388 9.158-3.388 7.749-5.233 12.043-8.085 13.385a9.22 9.22 0 0 1-4.191.94zm-20.631-12.01c2.589 2.954 5.678 5.43 9.125 7.313 4.093 2.214 10.3 5.569 15.4 3.153 2.482-1.174 4.16-4.831 7.716-13.016 2.08-4.8 6.911-17.78 4.361-20.195a6.51 6.51 0 0 0-1.409-.939c-1.595-.777-3.44-.862-5.1-.235-2.248.939-3.422 3.891-3.858 5.032-2.482 6.407-4.73 14.022-5.6 16.974-.048.174-.225.278-.4.235l-17.478-3.623c-.127-.025-.232-.113-.278-.234-.307-.84-.787-1.606-1.409-2.248-.067-.067-6.776-6.34-7.716-7.179-.671-.6-5.3.067-7.078.5h0a1.69 1.69 0 0 0-.7.268c.006.204.04.405.1.6.369.369 3.388.47 5.971.3.193 0 .354.147.371.338s-.114.365-.304.4l-5.5.772c-.369.47-.5.872-.369 1.174.168.5 1.006.805 1.644.939.188.036.318.209.3.4-.012.094-.061.178-.136.235s-.171.08-.264.065a.32.32 0 0 0-.235.067c-.067.067-.2.268-.134.906 0 .034.034.067.1.134.2.168.906.47 3.556.2.093-.015.188.008.264.065s.125.141.136.235a.34.34 0 0 1-.268.4c-1.443.369-2.281.906-2.315 1.51a.41.41 0 0 0 .1.3c.738.6 3.925.034 5.77-.47a.4.4 0 0 1 .436.2 12.2 12.2 0 0 0 2.717 3.992c.539.367 1.112.682 1.711.939a9.89 9.89 0 0 1 .57.3c.106.005.193.087.203.193zm-14.257-13.553z" class="B"/><path d="M219.639 80.249c2.248.937 4.05 2.702 5.032 4.931 1.208 3.019.268 6.105-.939 9.326-2.883 7.252-6.755 14.07-11.506 20.262q-4.428-6.491-8.856-13.016a102.53 102.53 0 0 0 5.6-10.332c2.415-5.133 3.522-8.521 6.844-10.232 1.179-.622 2.492-.945 3.825-.939z" class="G"/><path d="M212.191 115.272l-9.225-13.553.1-.168c2.048-3.332 3.917-6.77 5.6-10.3l1.04-2.214c1.778-3.858 3.053-6.676 5.971-8.152a9.34 9.34 0 0 1 3.992-.973h.067l.067.034c2.325.968 4.188 2.794 5.2 5.1 1.275 3.22.235 6.474-.939 9.561a85.62 85.62 0 0 1-11.573 20.329zm-8.454-13.553l8.487 12.446a85.46 85.46 0 0 0 11.2-19.792c1.141-2.952 2.147-6.072.939-9.091a9.01 9.01 0 0 0-4.8-4.7 8.73 8.73 0 0 0-3.623.872c-2.684 1.375-3.891 3.958-5.669 7.85l-1.04 2.214a100.6 100.6 0 0 1-5.493 10.201z" class="B"/><path d="M215.614 111.179l-9.327-11.037c-.365-.419-.895-.656-1.45-.65s-1.08.256-1.435.684l-1.241 1.409c-.618.691-.687 1.714-.168 2.482l8.185 11.54a1.87 1.87 0 0 0 2.717.335l2.348-1.912c.439-.321.727-.807.797-1.346s-.084-1.083-.426-1.505z" class="G"/><path d="M211.722 116.681a.93.93 0 0 1-.3-.034 2.19 2.19 0 0 1-1.476-.872l-8.185-11.54a2.37 2.37 0 0 1 .168-2.885l1.241-1.409c.442-.502 1.075-.794 1.744-.805a2.02 2.02 0 0 1 1.61.772l9.326 11.037c.397.463.579 1.072.5 1.677-.06.642-.374 1.234-.872 1.644l-2.348 1.912a2.2 2.2 0 0 1-1.408.503zm-6.81-16.874a1.66 1.66 0 0 0-1.241.57l-1.241 1.409a1.72 1.72 0 0 0-.134 2.08l8.185 11.54a1.4 1.4 0 0 0 1.04.6 1.57 1.57 0 0 0 1.241-.37l2.348-1.912a1.68 1.68 0 0 0 .268-2.382l-9.326-11.037c-.308-.298-.713-.476-1.141-.5z" class="B"/><path d="M207.06 48.616c-1.309.313-2.675-.222-3.422-1.342a3.02 3.02 0 0 1 .939-4.16c1.277-.59 2.793-.197 3.623.939a4.17 4.17 0 0 1 2.315-1.845c1.378-.325 2.83-.017 3.958.839.784.459 1.406 1.15 1.778 1.979a3.78 3.78 0 0 1 .268 1.442c1.51-.034 2.98.491 4.126 1.476a6.43 6.43 0 0 1 1.879 4.663c.134 4.562-4.26 9.728-8.252 9.494-4.026-.234-8.487-5.937-7.212-13.485z" class="H"/><path d="M214.506 62.336h-.268a7.23 7.23 0 0 1-4.965-2.952 13.45 13.45 0 0 1-2.482-10.466c-1.308.195-2.608-.396-3.321-1.51a3.55 3.55 0 0 1-.369-2.684 2.87 2.87 0 0 1 1.409-1.811c1.276-.593 2.789-.279 3.724.772.55-.793 1.337-1.392 2.248-1.711a4.92 4.92 0 0 1 4.126.872 4.55 4.55 0 0 1 1.845 2.113 4.12 4.12 0 0 1 .268 1.275 5.9 5.9 0 0 1 6 6.307c-.064 2.818-1.262 5.49-3.321 7.414a7.2 7.2 0 0 1-4.894 2.381zm-7.182-14.023l-.067.335c-.725 3.653.128 7.443 2.348 10.433.983 1.622 2.697 2.661 4.59 2.781s3.725-.695 4.904-2.181a10.11 10.11 0 0 0 3.187-7.078 6.26 6.26 0 0 0-1.811-4.5 5.93 5.93 0 0 0-3.958-1.409h-.235v-.235a3.53 3.53 0 0 0-.235-1.342c-.327-.8-.919-1.464-1.677-1.879a4.46 4.46 0 0 0-3.757-.805c-.912.303-1.685.921-2.181 1.744l-.168.268-.2-.268c-.768-1.053-2.172-1.418-3.355-.872a2.45 2.45 0 0 0-1.174 1.51c-.207.781-.099 1.612.3 2.315a3.01 3.01 0 0 0 3.187 1.241z" class="B"/><path d="M204.476 52.674c.933-1.291 1.752-2.66 2.449-4.093 1.28-.83 2.845-1.097 4.328-.738 1.476.436 3.153 1.845 2.952 2.449h0c.063.658.075 1.319.034 1.979a12.74 12.74 0 0 1-.839 3.824c1.61-1.443 3.623-1.476 4.562-.57.973.973.436 2.717.4 2.818a3.87 3.87 0 0 1-3.086 2.55l-5.265 14.725a4.37 4.37 0 0 1-7.078 1.778h0v.034l-5.938 4.764 4.328-9.225h.034a4.9 4.9 0 0 1 .168-.671l2.751-7.749a5.08 5.08 0 0 1-1.308-.5 5.48 5.48 0 0 1-2.181-2.516c-.358-1.017-.382-2.122-.067-3.153.569-2.251 1.844-3.056 3.756-5.706z" class="C"/><g class="B"><path d="M196.995 82.564a.62.62 0 0 1-.235-.067.4.4 0 0 1-.1-.47l4.328-9.225c0-.034.034-.034.034-.067a2.83 2.83 0 0 1 .168-.57l2.617-7.38c-.347-.117-.683-.263-1.006-.436a5.94 5.94 0 0 1-2.348-2.717c-.367-1.095-.401-2.274-.1-3.388a8.65 8.65 0 0 1 2.173-3.788l1.61-2.046h0a32.14 32.14 0 0 0 2.449-4.026.59.59 0 0 1 .134-.168c1.367-.893 3.046-1.173 4.629-.772a5.96 5.96 0 0 1 3.12 2.248 1 1 0 0 1 .1.6 13 13 0 0 1 .034 1.979 13.42 13.42 0 0 1-.5 2.818 3.5 3.5 0 0 1 4.093.168c1.107 1.107.57 2.986.5 3.187a4.19 4.19 0 0 1-3.187 2.751l-5.166 14.526c-.543 1.536-1.834 2.688-3.422 3.053a4.57 4.57 0 0 1-4.026-.939l-5.669 4.6c-.046.083-.135.133-.23.129zm4.6-9.292l-3.556 7.615 4.562-3.69a.6.6 0 0 1 .235-.168c.122-.035.253.004.335.1h0a3.8 3.8 0 0 0 3.589.973c1.347-.297 2.441-1.277 2.885-2.583l5.267-14.727c.044-.118.145-.207.268-.235a3.58 3.58 0 0 0 2.818-2.281s.5-1.61-.336-2.449c-.771-.772-2.583-.738-4.026.57-.133.11-.322.124-.47.034-.141-.097-.196-.277-.134-.436a13.06 13.06 0 0 0 .839-3.69c.039-.637.028-1.277-.033-1.912a.3.3 0 0 1 .033-.168c-.641-.962-1.605-1.664-2.717-1.979-1.34-.339-2.761-.108-3.925.637-.704 1.418-1.523 2.775-2.449 4.059l-1.644 2.08a7.87 7.87 0 0 0-2.013 3.489c-.281.968-.257 1.998.067 2.952.416.97 1.118 1.789 2.013 2.348a4.76 4.76 0 0 0 1.208.47c.105.027.191.101.235.2.06.088.072.2.034.3l-2.751 7.749a2.6 2.6 0 0 0-.168.6c-.035.007-.103.108-.17.141z"/><path d="M204.308 64.516l-.872 2.415a23.57 23.57 0 0 0 5.6-2.583c-1.486.705-3.196.766-4.728.168z"/><path d="M203.101 67.267l1.073-3.053.2.067a5.7 5.7 0 0 0 4.562-.134l.235.4c-1.768 1.114-3.674 1.994-5.669 2.617zm1.375-2.482l-.637 1.778c1.167-.387 2.3-.869 3.388-1.442a7.36 7.36 0 0 1-2.751-.337z"/></g><path d="M204.711 57.236a1.74 1.74 0 0 1-.805-1.006.82.82 0 0 1 .168-.671c.436-.57 3.153-3.556 3.254-3.69l.5.47-3.22 3.657c-.024.041-.035.087-.034.134.034.2.335.436.5.537z" class="D"/><g class="B"><path d="M189.945 91.928c-.071-.007-.139-.03-.2-.067a.33.33 0 0 1-.1-.47c4.663-7.078 8.387-9.46 8.521-9.561.027-.026.063-.038.1-.034l8.051-1.677a.34.34 0 0 1 .134.671l-7.984 1.644c-.47.3-3.992 2.818-8.286 9.326-.023.109-.126.181-.236.168zm-6.351-11.913a.3.3 0 0 1-.235-.1c-.064-.061-.101-.146-.101-.235a.32.32 0 0 1 .101-.235c2.617-2.751 10.735-5.837 11.07-5.971a.34.34 0 1 1 .235.637c-.067.034-8.319 3.153-10.835 5.8a.26.26 0 0 1-.235.104zm34.938 19.858a.3.3 0 0 1-.168-.034.34.34 0 0 1-.134-.47 50.07 50.07 0 0 0 4.327-10.869c.037-.185.217-.306.403-.269s.306.217.269.403a50.59 50.59 0 0 1-4.395 11.037.36.36 0 0 1-.301.202zm-20.799-3.588a.25.25 0 0 1-.168-.034.84.84 0 0 1-.671-.671c-.336-1.141-.47-2.684.268-3.12.3-.168.805-.268 1.577.436a12.1 12.1 0 0 0 1.409 1.073 27.33 27.33 0 0 0 1.912-2.013c.124-.12.32-.124.45-.011s.152.307.05.447l-1.845 1.946c.7.47 1.174.805 1.174 1.275.01.136-.059.266-.178.333s-.265.06-.377-.018a.35.35 0 0 1-.145-.348 4.08 4.08 0 0 0-.973-.738c-.009 0-.018-.003-.024-.01s-.01-.015-.01-.024a4.34 4.34 0 0 1-2.449 1.478zm-.134-3.254c-.034 0-.067 0-.067.034-.235.134-.369 1.073.034 2.348.007.085.058.161.134.2.335.067 1.073-.4 1.912-1.107a16.28 16.28 0 0 1-1.342-1.04c-.298-.301-.537-.435-.667-.435zm15.968.839c-.124-.003-.243-.05-.335-.134-.1-.1-.3-.3-.034-1.342a4.11 4.11 0 0 0-1.443.4c-.173.066-.367-.012-.446-.179s-.015-.367.146-.458a4.98 4.98 0 0 1 1.946-.47 32.35 32.35 0 0 1 1.744-3.891c.091-.161.291-.225.458-.146s.245.273.179.446a41.14 41.14 0 0 0-1.644 3.69 1.28 1.28 0 0 1 .671.47c.134.235.268.805-.738 1.443-.146.107-.322.167-.504.171zm.168-.57zm.168-.839a4.59 4.59 0 0 0-.168.637c.4-.268.47-.436.436-.5a.47.47 0 0 0-.268-.137zm-3.289 17.946c-.071-.007-.139-.03-.2-.067-.3-.2-7.548-5.267-7.414-9.192.03-.176.187-.302.365-.293s.322.149.335.327c-.134 3.556 7.045 8.554 7.112 8.621a.34.34 0 0 1 .149.214c.019.088.001.181-.049.256a.41.41 0 0 1-.298.134zm-28.751-27.642c-.132-.005-.251-.084-.307-.204s-.041-.261.039-.366l1.342-1.476c.074-.102.199-.153.324-.133s.226.11.264.23.003.251-.087.339l-1.342 1.476c-.039.091-.134.145-.232.134zm33.348-3.119c-.088-.004-.171-.039-.235-.1l-1.677-1.476c-.102-.074-.153-.199-.133-.324s.11-.226.23-.264.251-.003.339.087l1.677 1.476c.069.057.111.139.117.228a.33.33 0 0 1-.083.242c-.041.09-.137.143-.235.13zm-28.269 36.162a.2.2 0 0 1-.134-.034 12.8 12.8 0 0 1-6.24-6.206c-.066-.173.012-.367.179-.446s.367-.015.458.146a12.29 12.29 0 0 0 5.871 5.871c.156.062.245.227.212.391a.35.35 0 0 1-.346.28zm-123.599 3.656c-.134.01-.258-.072-.3-.2-.037-.084-.036-.179.003-.263a.32.32 0 0 1 .197-.173l20.195-8.252 17.981-7.347c.034 0 3.589-1.476 9.158-3.288 8.923-2.885 11.573-2.851 12.546-2.851 3.22.034 5.468.906 8.621 2.113.6.235 1.208.47 1.879.7a564.68 564.68 0 0 1 19.792 7.85.34.34 0 0 1-.235.637c-6.575-2.751-13.251-5.367-19.792-7.816-.671-.235-1.308-.5-1.879-.738-3.086-1.174-5.3-2.046-8.387-2.08-.973 0-3.522-.034-12.345 2.818-5.535 1.778-9.091 3.254-9.125 3.254l-17.981 7.347-20.195 8.252a.2.2 0 0 1-.133.037z"/><path d="M77.756 184.411c-.107.005-.208-.046-.268-.134-.06-.066-.091-.153-.084-.242s.049-.171.118-.228l46.227-38.578a40.92 40.92 0 0 1 4.629-1.443c13.15-3.858 48.105-14.157 56.593-28.447.101-.147.297-.194.453-.107s.22.279.147.442c-8.621 14.492-43.744 24.858-56.962 28.749-2.382.7-4.093 1.208-4.5 1.409-2.55 1.275-45.657 38.109-46.093 38.478a.67.67 0 0 1-.26.101zm-11.69-75.178c-.131.001-.25-.078-.3-.2-.066-.177.005-.375.168-.47.637-.3 15.733-7.716 18.518-8.353.12-.024.243.018.324.11s.106.22.067.336a.34.34 0 0 1-.257.226c-2.717.6-18.216 8.219-18.383 8.286-.028.048-.082.075-.137.066zm19.88-9.057a.4.4 0 0 1-.335-.235.35.35 0 0 1 .2-.436l2.281-.839a.34.34 0 1 1 .235.637l-2.281.839c-.027.026-.063.038-.1.034zm-.178 63.299a.3.3 0 0 1-.332-.343.3.3 0 0 1 .131-.227c.5-.47 12.278-11.372 17.679-14.626.163-.073.355-.009.442.147s.041.352-.107.453c-5.334 3.22-17.444 14.425-17.578 14.526-.073.039-.153.062-.235.07zm18.847-15.63a.3.3 0 0 1-.235-.1c-.064-.061-.101-.146-.101-.235a.32.32 0 0 1 .101-.235l3.053-3.053c.13-.13.34-.13.47 0s.13.34 0 .47l-3.053 3.053c-.064.061-.147.096-.235.1zm28.798-18.282c-.131.001-.25-.078-.3-.2-.066-.177.005-.375.168-.47l13.922-6.743c.115-.065.257-.06.368.013s.171.201.157.333-.101.244-.224.292l-13.922 6.743a.3.3 0 0 1-.168.033zm13.94-38.512h-.1a2919.9 2919.9 0 0 1-15.029-4.8.34.34 0 0 1 .235-.637c1.275.436 14.861 4.73 15 4.8.174.069.273.253.235.436-.062.13-.197.21-.341.201zm3.814 1.547h-.1l-2.181-.637a.35.35 0 1 1 .2-.671l2.18.637c.174.069.273.253.235.436a.4.4 0 0 1-.334.235zm-2.837 28.911c-.168.002-.313-.115-.346-.28s.056-.329.212-.391l2.818-1.073a.34.34 0 1 1 .235.637l-2.818 1.074c-.001.033-.034.033-.101.033z"/></g></svg>
