<svg width="24" height="24" viewBox="0 0 24 24" fill="none" xmlns="http://www.w3.org/2000/svg">
<g clip-path="url(#clip0_3475_901193)">
<path d="M0 8C0 3.58172 3.58172 0 8 0H16C20.4183 0 24 3.58172 24 8V16C24 20.4183 20.4183 24 16 24H8C3.58172 24 0 20.4183 0 16V8Z" fill="#FFDF0A"/>
<path d="M7.5 10.068C7.5 9.35311 7.68071 8.91488 7.90865 8.68151C8.11102 8.47432 8.48409 8.29322 9.22074 8.39367C9.67676 8.45586 10.0968 8.13659 10.159 7.68057C10.2212 7.22456 9.90194 6.80447 9.44593 6.74229C8.34925 6.59274 7.38898 6.8283 6.71635 7.51695C6.06929 8.17941 5.83333 9.11619 5.83333 10.068V10.2346H4.33333C3.8731 10.2346 3.5 10.6077 3.5 11.068C3.5 11.5282 3.8731 11.9013 4.33333 11.9013H5.83333V13.568C5.83333 14.2128 5.68799 14.5468 5.52004 14.724C5.36039 14.8925 5.03862 15.068 4.33333 15.068C3.8731 15.068 3.5 15.4411 3.5 15.9013C3.5 16.3616 3.8731 16.7346 4.33333 16.7346C5.29471 16.7346 6.13961 16.4934 6.72996 15.8703C7.31201 15.2559 7.5 14.4232 7.5 13.568V11.9013H9.08333C9.54357 11.9013 9.91667 11.5282 9.91667 11.068C9.91667 10.6077 9.54357 10.2346 9.08333 10.2346H7.5V10.068Z" fill="#363B3F"/>
<path d="M17.8169 10.3823C18.061 10.6264 18.061 11.0221 17.8169 11.2662L16.3839 12.6992L17.8169 14.1323C18.061 14.3764 18.061 14.7721 17.8169 15.0162C17.5729 15.2602 17.1771 15.2602 16.9331 15.0162L15.5 13.5831L14.0669 15.0162C13.8229 15.2602 13.4271 15.2602 13.1831 15.0162C12.939 14.7721 12.939 14.3764 13.1831 14.1323L14.6161 12.6992L13.1831 11.2662C12.939 11.0221 12.939 10.6264 13.1831 10.3823C13.4271 10.1382 13.8229 10.1382 14.0669 10.3823L15.5 11.8153L16.9331 10.3823C17.1771 10.1382 17.5729 10.1382 17.8169 10.3823Z" fill="#363B3F"/>
<path d="M10.3008 12.6997C10.3008 11.6951 10.5044 10.7012 10.8975 9.81687L11.0527 9.49167C11.4357 8.74751 11.9546 8.11 12.5811 7.64011C12.8903 7.40819 13.3286 7.47062 13.5605 7.77976C13.7925 8.08899 13.73 8.52726 13.4209 8.75925C12.9834 9.08741 12.5952 9.55369 12.2979 10.1313L12.1768 10.3862C11.8677 11.0817 11.7012 11.8801 11.7012 12.6997C11.7012 13.5193 11.8677 14.3177 12.1768 15.0132L12.2979 15.268C12.5527 15.7631 12.8743 16.1761 13.2363 16.4907L13.4209 16.6401L13.5254 16.7358C13.7413 16.9794 13.7635 17.349 13.5605 17.6196C13.3575 17.8902 12.9965 17.9719 12.7021 17.8325L12.5811 17.7593L12.3193 17.5483C11.8092 17.1054 11.381 16.5457 11.0527 15.9077L10.8975 15.5825C10.5044 14.6982 10.3008 13.7042 10.3008 12.6997Z" fill="#363B3F"/>
<path d="M20.6992 12.6988C20.6992 13.7033 20.4956 14.6973 20.1025 15.5816L19.9473 15.9068C19.5643 16.6509 19.0454 17.2884 18.4189 17.7583C18.1097 17.9902 17.6714 17.9278 17.4395 17.6187C17.2075 17.3094 17.27 16.8712 17.5791 16.6392C18.0166 16.311 18.4048 15.8447 18.7021 15.2671L18.8232 15.0122C19.1323 14.3168 19.2988 13.5184 19.2988 12.6988C19.2988 11.8791 19.1323 11.0808 18.8232 10.3853L18.7021 10.1304C18.4473 9.63535 18.1257 9.22232 17.7637 8.90774L17.5791 8.75833L17.4746 8.66262C17.2587 8.41902 17.2365 8.04941 17.4395 7.77883C17.6425 7.50823 18.0035 7.42657 18.2979 7.56594L18.4189 7.63918L18.6807 7.85012C19.1908 8.29301 19.619 8.85277 19.9473 9.49075L20.1025 9.81594C20.4956 10.7003 20.6992 11.6942 20.6992 12.6988Z" fill="#363B3F"/>
</g>
<defs>
<clipPath id="clip0_3475_901193">
<rect width="24" height="24" fill="white"/>
</clipPath>
</defs>
</svg>
