<svg width="497" height="494" viewBox="0 0 497 494" fill="none" xmlns="http://www.w3.org/2000/svg">
  <path fill-rule="evenodd" clip-rule="evenodd" d="M330.5 422C303.161 422 281 399.839 281 372.5C281 345.161 303.161 323 330.5 323C357.839 323 380 345.161 380 372.5C380 399.839 357.839 422 330.5 422ZM355.231 373.178L332.041 335.375L308.844 373.181L332.041 386.648L355.231 373.178ZM355.25 377.499L332.041 390.96L308.844 377.503L332.041 409.61L355.25 377.499Z" fill="#E6E6E6"/>
  <path d="M332.041 335.375V362.817L355.235 373.181L332.041 335.375ZM332.041 390.964V409.61L355.25 377.5L332.041 390.964Z" fill="white"/>
  <path d="M332.041 386.648L355.235 373.181L332.041 362.823V386.648Z" fill="white"/>
  <path d="M308.844 373.181L332.041 386.648V362.823L308.844 373.181Z" fill="white"/>
  <g clip-path="url(#clip0)">
    <path d="M453.535 436C469.295 436 482.07 448.775 482.07 464.535C482.07 480.295 469.295 493.07 453.535 493.07C437.775 493.07 425 480.295 425 464.535C425 448.775 437.775 436 453.535 436ZM455.928 464.669L455.648 467.647C459.139 470.426 459.609 472.489 459.074 475.241C457.863 479.503 454.168 479.949 452.595 479.678C450.794 479.348 450.038 479.256 448.483 477.429C447.733 476.474 447.283 475.318 447.191 474.108C447.099 472.897 447.368 471.687 447.964 470.629L447.985 470.593L448.773 474.339L451.038 473.889L449.558 465.999L441.943 467.804L442.553 470.263L445.672 469.657L445.642 469.73C445.508 470.058 444.964 471.439 444.802 472.516C443.753 479.093 449.319 482.072 451.632 482.229C456.221 482.564 458.885 480.581 460.269 478.478C462.837 474.269 461.555 471.155 460.81 469.571C459.836 467.578 455.928 464.669 455.928 464.669ZM454.573 453.397H452.124V475.878H454.573V453.396V453.397ZM454.519 446.717C449.918 446.501 447.309 448.554 445.986 450.694C443.525 454.974 444.889 458.049 445.683 459.606C446.71 461.573 450.694 464.378 450.694 464.378L450.892 461.394C447.325 458.714 446.801 456.666 447.266 453.899C448.363 449.602 452.044 449.067 453.628 449.294C455.427 449.576 456.189 449.65 457.794 451.434C458.57 452.368 459.051 453.512 459.175 454.719C459.3 455.927 459.063 457.145 458.495 458.218L458.475 458.254L457.589 454.537L455.342 455.044L457.027 462.891L464.587 460.886L463.911 458.439L460.808 459.129C460.808 459.129 461.452 457.482 461.603 456.244C462.479 449.64 456.831 446.813 454.519 446.717Z" fill="#E6E6E6"/>
  </g>
  <path fill-rule="evenodd" clip-rule="evenodd" d="M463 395C444.221 395 429 379.779 429 361C429 342.221 444.221 327 463 327C481.779 327 497 342.221 497 361C497 379.779 481.779 395 463 395ZM478.277 356.793C478.944 352.339 475.55 349.944 470.914 348.346L472.418 342.311L468.746 341.397L467.28 347.272C466.315 347.03 465.325 346.805 464.337 346.58L465.813 340.666L462.141 339.75L460.637 345.783C459.838 345.6 459.052 345.422 458.291 345.23L458.295 345.211L453.229 343.947L452.252 347.87C452.252 347.87 454.978 348.494 454.921 348.533C456.408 348.905 456.676 349.888 456.631 350.67L454.919 357.545C455.021 357.57 455.152 357.608 455.301 357.666L454.912 357.57L452.511 367.201C452.328 367.651 451.867 368.329 450.826 368.072C450.864 368.125 448.157 367.407 448.157 367.407L446.334 371.61L451.115 372.802C452.003 373.025 452.874 373.259 453.731 373.478L452.211 379.581L455.881 380.495L457.386 374.46C458.389 374.73 459.362 374.98 460.314 375.218L458.814 381.228L462.486 382.142L464.005 376.051C470.27 377.237 474.979 376.759 476.961 371.094C478.559 366.534 476.883 363.901 473.587 362.186C475.988 361.633 477.794 360.054 478.277 356.793ZM469.883 368.561C468.75 373.123 461.068 370.656 458.578 370.038L460.597 361.952C463.087 362.575 471.071 363.805 469.883 368.561ZM471.02 356.727C469.985 360.877 463.593 358.767 461.521 358.25L463.348 350.919C465.42 351.435 472.099 352.398 471.02 356.727Z" fill="#E6E6E6"/>
  <g clip-path="url(#clip1)">
    <path d="M144.209 302.169C144.717 305.373 145.458 308.536 146.427 311.633C146.427 311.633 140.637 309.018 138.773 304.43L134.336 310.658L126.149 322.272C126.149 322.272 135.8 341.2 135.667 343.727C127.747 341.976 120.381 350.377 120.381 350.377C135.911 351.906 130.742 378.548 120.381 375.622C127.747 392.556 136.51 382.559 137.242 353.834C140.614 356.051 152.306 372.585 138.618 375.622C151.241 398.518 164.93 369.305 146.25 352.527C155.945 353.214 170.898 364.872 159.317 375.622C163.532 386.704 171.786 380.875 173.006 372.585C175.224 357.491 160.87 347.384 146.915 343.971C145.362 343.572 137.73 326.35 137.73 326.35C137.73 326.35 149.112 318.238 151.485 314.692C151.672 314.453 151.815 314.183 151.907 313.894C148.849 310.331 146.261 306.39 144.209 302.169Z" fill="#2D1D1C"/>
    <path d="M333.588 316.443C329.638 310.88 323.848 310.858 317.813 314.36C304.502 314.87 283.847 313.385 271.223 317.84C267.37 313.751 263.755 309.444 260.396 304.94C254.739 307.423 250.967 309.018 250.967 309.018C252.366 307.089 253.084 304.75 253.008 302.369C251.32 304.644 249.257 306.615 246.907 308.198L263.857 329.875C278.728 329.159 293.45 326.575 307.674 322.184C301.862 328.346 293.12 345.147 301.285 352.394C302.638 330.429 315.107 323.846 320.853 322.184C327.708 328.634 327.509 351.397 327.908 359.132C337.714 359.132 335.296 334.618 332.767 324.423C334.247 325.145 335.516 326.236 336.45 327.592C340.11 332.69 342.262 343.107 341.974 350.244C353.577 350.333 346.278 316.82 333.588 316.443Z" fill="#2D1D1C"/>
    <path d="M292.61 270.872C292.61 270.872 159.738 320.011 221.149 276.502C208.592 273.178 172.096 291.397 200.693 292.283C206.04 292.439 177.909 302.856 160.226 292.505C139.86 280.625 125.772 274.042 141.058 287.141C163.954 306.757 130.298 292.727 118.251 284.925C89.8305 266.395 102.721 281.046 109.376 288.848C87.0573 274.729 87.1904 268.9 77.9167 249.506C77.9167 249.506 79.4697 256.864 81.0005 262.805C73.0801 254.936 68.9536 231.508 68.8648 231.774C67.8424 234.227 67.1558 236.807 66.8237 239.443C65.2041 235.963 63.9839 232.927 63.0965 230.577C122.466 200.323 181.414 224.283 146.804 185.916C165.129 178.158 225.786 149.921 210.611 122.038C220.661 145.643 152.284 165.281 134.291 172.883C164.375 206.13 108.711 199.813 51.0273 219.229C51.6539 225.701 52.9551 232.089 54.9099 238.291C54.9099 231.974 56.241 230.112 56.241 230.112C56.352 232.328 57.3725 242.746 61.8097 247.844C61.1989 245.376 61.1989 242.797 61.8097 240.33C61.8097 240.33 65.2263 255.712 70.2182 263.314C70.3442 260.422 70.7906 257.553 71.5493 254.759C71.5493 254.759 72.6364 260.832 74.3225 266.661C75.0991 270.119 75.8534 274.64 78.4935 277.743C79.3809 278.785 78.7597 273.953 79.6472 274.951C94.9554 291.618 112.549 303.986 134.313 310.724L138.75 304.496C140.614 309.084 146.405 311.699 146.405 311.699C145.436 308.603 144.694 305.44 144.186 302.235C146.221 306.438 148.786 310.363 151.818 313.916C151.726 314.205 151.583 314.475 151.396 314.714C168.659 317.231 186.201 317.164 203.445 314.514C203.445 316.088 199.917 317.573 199.917 317.573C211.875 317.573 230.711 312.919 244.289 305.383C244.327 307.364 243.804 309.315 242.78 311.012C243.623 310.746 251.189 305.671 252.941 302.523C253.017 304.905 252.299 307.243 250.9 309.173C250.9 309.173 303.325 287.008 312.577 277.056C312.267 279.258 311.379 281.338 310.003 283.085C318.022 278.298 325.263 272.319 331.479 265.354C331.479 265.354 266.231 289.823 292.61 270.872Z" fill="#AFBDC4"/>
    <path d="M341.663 250.171C340.088 251.789 317.835 261.253 314.219 255.291C310.603 249.329 333.033 226.477 319.566 230.799C306.099 235.121 259.664 261.652 238.698 259.015C217.732 256.377 219.84 236.141 226.385 229.602C231.843 224.194 213.207 233.503 209.169 230.223C205.131 226.943 223.456 216.924 212.341 214.708C201.226 212.491 197.122 201.786 220.084 178.469C206.551 179.998 211.21 167.63 237.633 144.18C256.003 127.956 242.07 124.365 236.79 114.436C239.319 114.436 258.532 118.625 261.882 118.869C255.648 113.749 234.039 108.318 234.039 108.318C242.181 109.05 258.444 112.175 258.444 112.175C232.42 103.043 204.243 102.157 188.824 104.794C201.537 110.69 208.237 116.453 210.611 121.994C225.786 149.877 165.13 178.114 146.804 185.872C181.414 224.239 122.4 200.279 63.0967 230.533C63.9841 232.75 65.2043 235.853 66.8239 239.399C67.156 236.763 67.8426 234.183 68.865 231.73C68.865 231.575 73.0803 255.003 81.0007 262.76C79.4699 256.71 77.9169 249.462 77.9169 249.462C87.2349 268.834 87.0575 274.685 109.376 288.804C102.721 281.002 89.8529 266.351 118.251 284.881C130.298 292.749 163.954 306.779 141.058 287.097C125.772 273.998 139.86 280.581 160.227 292.461C177.975 302.812 206.04 292.461 200.694 292.239C172.096 291.353 208.592 273.133 221.149 276.458C159.805 319.967 292.61 270.828 292.61 270.828C266.12 289.779 331.613 265.243 331.613 265.243C331.568 265.334 331.508 265.416 331.435 265.487V265.62L331.102 265.997L330.947 266.174L330.415 266.75L330.215 266.95L329.461 267.748L329.283 267.903L328.285 268.9L328.13 269.055L326.887 270.23H326.776L325.312 271.56L323.626 273.045C323.626 273.045 338.734 262.317 344.813 254.914C342.772 257.109 343.283 248.553 341.663 250.171Z" fill="#EEEAE8"/>
    <path d="M70.2177 263.271C65.2258 255.668 61.8092 240.286 61.8092 240.286C61.1984 242.754 61.1984 245.333 61.8092 247.8C56.8396 242.148 56.2405 230.068 56.2405 230.068C56.2405 230.068 54.9094 231.93 54.9094 238.247C52.9466 232.055 51.6452 225.673 51.0268 219.208C32.9863 224.933 16.0747 233.737 1.04199 245.229C2.01817 248.886 33.3225 244.276 43.883 242.525C10.6263 262.14 13.3108 272.624 23.2279 268.502C-44.2173 352.727 67.1338 271.161 74.2555 266.618C72.5694 260.788 71.4823 254.715 71.4823 254.715C70.7461 257.512 70.3219 260.381 70.2177 263.271Z" fill="#2D1D1C"/>
    <path d="M253.32 103.887C253.32 103.887 261.373 114.681 272 118.626C270.447 116.143 265.345 106.768 266.876 96.7939C267.12 95.2202 263.259 108.807 263.193 107.123C262.194 85.1797 275.905 74.0974 287.752 71.3712C289.971 70.8614 278.035 70.1965 280.564 69.4872C299.733 64.1899 313 69.7975 320.499 77.7767C318.857 72.9227 313.998 68.9109 315.463 69.6202C327.643 75.8041 334.853 96.2176 371.682 96.7274C375.387 91.4522 376.23 78.1535 376.341 76.3804C376.452 74.6072 372.414 88.1941 372.37 86.5539C372.015 62.3281 358.326 39.5208 358.326 39.5208C359.231 43.4509 359.832 47.445 360.123 51.4675C321.897 -8.19938 200.983 -39.7616 123.089 92.8264C108.18 99.6088 82.2 108.962 75.6774 134.075C50.2967 149.102 21.8766 175.744 31.6605 188.4C19.5692 197.753 19.4583 208.592 19.4583 208.592C11.8485 216.504 -4.21408 241.218 1.04398 245.23C67.7348 192.389 173.34 216.172 134.293 172.885C156.478 163.487 255.605 135.759 188.803 104.84C204.333 102.202 232.399 103.089 258.423 112.22C255.751 110.166 253.934 107.198 253.32 103.887Z" fill="#4E342E"/>
    <path d="M109.354 163.486C82.287 170.135 44.3269 182.104 31.7031 188.421C35.4969 172.64 65.337 167.653 109.354 163.486ZM75.6756 134.073C88.3437 127.757 103.652 129.419 130.719 122.747C86.702 126.914 82.5976 123.678 75.6756 134.073ZM123.087 92.8254C136.088 89.3899 157.697 95.5294 172.983 98.5216C154.347 89.5672 129.987 82.4302 123.087 92.8254ZM37.7155 201.853C98.1943 188.775 113.148 183.966 137.974 177.316C136.909 175.92 135.755 174.435 134.291 172.884C126.459 174.435 97.6175 185.562 37.7155 201.853Z" fill="#2D1D1C"/>
    <path d="M362.694 51.4438C364.336 55.0123 370.415 72.0346 369.838 79.3046C367.62 74.2289 346.876 40.428 338.955 34.4436C344.946 37.2585 355.883 48.2964 363.071 59.7111C362.776 56.9657 362.65 54.2047 362.694 51.4438ZM317.901 41.0929C306.691 31.0578 293.16 23.9645 278.525 20.4515C263.89 16.9384 248.61 17.1157 234.06 20.9676C280.629 17.9089 305.255 34.6431 317.901 41.0929ZM313.109 65.4739C296.891 54.6133 285.066 58.4699 278.166 62.3487C289.862 59.8963 302.024 60.9686 313.109 65.4296V65.4739ZM327.929 24.5582C313.966 13.5198 297.22 6.55461 279.542 4.43286C286.197 7.89052 308.893 15.2491 327.929 24.5139V24.5582ZM193.993 115.122C199.273 119.555 207.304 134.073 75.6752 185.916C196.832 147.483 215.801 126.825 193.993 115.122ZM34.121 178.823C40.0225 172.174 75.0318 159.85 104.872 162.266C74.5881 154.686 42.6626 161.38 34.121 178.823ZM80.3121 126.958C92.2925 118.913 123.087 121.24 140.347 117.738C122.022 108.983 91.405 105.304 80.3121 126.958ZM5.83398 235.564C11.7133 228.915 87.4116 198.616 117.274 201.054C86.9679 193.496 14.3756 218.165 5.83398 235.586V235.564Z" fill="#63463D"/>
    <path d="M379.934 195.048C379.423 185.628 378.802 176.474 371.37 154.509C370.726 151.761 370.15 149.301 369.75 147.151C367.82 136.423 368.952 119.977 370.105 108.828L372.723 111.754C372.723 105.105 373.012 103.221 377.826 99.8738C376.483 99.7257 375.124 99.9323 373.886 100.473C372.648 101.014 371.574 101.869 370.771 102.955C371.237 99.1202 371.614 96.7264 371.614 96.7264C334.785 96.261 327.575 75.8031 315.395 69.6192C313.93 68.8656 318.789 72.9218 320.431 77.7758C312.999 69.7966 299.731 64.1889 280.496 69.4863C277.967 70.1955 289.881 70.8605 287.685 71.3702C275.837 74.0965 262.126 85.1787 263.125 107.122C263.125 108.806 267.052 95.2192 266.808 96.7929C265.299 106.767 270.38 116.143 271.933 118.625C261.305 114.68 253.252 103.886 253.252 103.886C253.866 107.197 255.683 110.165 258.355 112.219C258.355 112.219 242.137 109.094 233.95 108.363C233.95 108.363 255.559 113.793 261.794 118.913C258.444 118.691 239.231 114.48 236.701 114.48C241.982 124.41 255.914 128.001 237.544 144.225C210.921 167.675 206.484 180.043 219.995 178.513C197.144 201.853 201.226 212.536 212.363 214.775C223.501 217.013 205.175 226.943 209.191 230.29C213.206 233.637 231.865 224.261 226.407 229.669C219.751 236.318 217.799 256.466 238.72 259.081C259.642 261.697 306.121 235.21 319.588 230.866C333.055 226.522 310.603 249.484 314.241 255.358C317.88 261.231 340.11 251.856 341.685 250.238C343.26 248.62 342.772 257.064 344.658 255.225C369.883 226.278 375.718 201.143 375.297 181.594C376.916 186.182 379.09 192.477 379.934 195.048Z" fill="#E45325"/>
    <path d="M301.972 123.767L300.464 123.922L298.689 124.078C297.912 124.078 297.158 124.078 296.249 123.9C291.458 123.239 287.085 120.822 283.98 117.118C280.871 113.443 279.207 108.763 279.298 103.952C279.321 102.545 279.514 101.146 279.875 99.7853C280.119 98.8323 280.297 98.3225 280.297 98.3225C280.297 98.3225 280.297 98.8988 280.297 99.8297C280.392 101.166 280.592 102.492 280.896 103.797C281.853 107.886 283.778 111.687 286.509 114.879C289.222 118.094 292.679 120.597 296.581 122.171C297.358 122.482 298.134 122.748 298.689 122.925L300.419 123.324L301.972 123.767ZM367.221 202.917C375.319 189.13 373.877 165.459 365.003 154.421C369.64 161.115 371.503 197.265 367.221 202.917Z" fill="#F27021"/>
    <path d="M216.601 226.699C236.856 224.615 258.199 214.641 269.314 196.134C251.255 210.563 232.597 217.966 216.601 226.699ZM290.99 238.867C305.855 234.988 324.424 227.297 331.612 212.757C316.238 224.926 304.102 232.838 290.99 238.867ZM342.018 246.891C351.025 239.377 356.926 226.943 357.193 218.21C351.424 230.023 350.692 230.511 341.907 246.891H342.018ZM344.569 213.821C352.156 204.955 355.862 191.657 354.641 182.99C350.958 195.58 350.315 196.134 344.458 213.821H344.569ZM242.514 250.614C252.299 249.459 261.605 245.743 269.492 239.842C260.103 242.561 250.995 246.168 242.292 250.614H242.514ZM279.542 213.888C288.017 210.408 306.853 196.156 311.379 184.054C300.486 196.998 283.336 210.009 279.542 213.888ZM221.149 180.065C235.043 176.731 247.309 168.598 255.781 157.102C241.338 169.47 225.652 176.917 221.149 180.065ZM287.706 84.9124C309.892 62.7479 342.838 97.1472 318.345 116.297C330.747 96.8813 308.894 72.1014 287.751 84.9124H287.706Z" fill="#BD3926"/>
    <path d="M338.734 120.952C343.304 125.562 390.649 139.615 394.997 141.343C399.346 143.072 391.425 118.315 370.504 107.698C365.69 105.237 334.119 116.298 338.734 120.952Z" fill="#231F20"/>
    <path d="M387.92 128.399C381.663 119.002 372.523 113.594 366.71 112.596C369.661 115.256 379.6 121.129 387.92 128.399Z" fill="white"/>
    <path d="M318.982 103.705C320.467 93.9133 313.804 84.7846 304.099 83.3156C294.395 81.8467 285.324 88.5938 283.839 98.3857C282.354 108.178 289.017 117.306 298.722 118.775C308.426 120.244 317.497 113.497 318.982 103.705Z" fill="#231F20"/>
    <path d="M310.846 99.7405C309.444 97.517 307.413 95.7585 305.011 94.687C303.647 94.009 302.189 93.5384 300.685 93.2906C300.741 92.8927 300.853 92.5047 301.018 92.1381C302.282 89.5892 305.921 88.7912 309.204 90.3871C312.488 91.9829 314.085 95.3298 312.843 97.9009C312.397 98.7163 311.696 99.3628 310.846 99.7405ZM301.417 116.608C297.368 116.056 293.699 113.931 291.207 110.695C288.715 107.458 287.601 103.371 288.106 99.3194C287.423 101.205 287.176 103.221 287.384 105.216C287.591 107.211 288.248 109.133 289.304 110.839C290.361 112.544 291.789 113.989 293.483 115.065C295.178 116.14 297.094 116.82 299.088 117.051C300.998 117.333 302.947 117.22 304.812 116.719C303.681 116.811 302.543 116.789 301.417 116.652V116.608Z" fill="white"/>
    <path d="M182.168 24.381C182.168 24.381 233.062 47.3213 283.979 65.0307C309.981 74.0295 342.417 84.2252 361.874 84.2252C395.153 84.2252 364.092 64.2771 370.748 64.2771L200.715 14.4956C193.641 15.7455 187.147 19.2069 182.168 24.381Z" fill="white"/>
    <g style="mix-blend-mode:color">
      <path d="M259.818 55.4111C259.818 55.4111 299.753 144.069 337.469 148.502C375.185 152.935 452.836 146.286 443.961 132.987C435.087 119.688 375.185 84.225 375.185 84.225L259.818 55.4111Z" fill="#32BA3F"/>
    </g>
    <path d="M259.818 55.4111C259.818 55.4111 299.753 144.069 337.469 148.502C375.185 152.935 452.836 146.286 443.961 132.987C435.087 119.688 375.185 84.225 375.185 84.225L259.818 55.4111Z" stroke="white" stroke-width="5.85281" stroke-miterlimit="10"/>
    <g style="mix-blend-mode:color">
      <path d="M370.749 64.2767C370.749 64.2767 371.858 29.9217 338.579 27.7053C324.58 26.7744 300.863 9.97367 291.989 25.4888C283.114 41.004 256.491 43.2204 256.491 43.2204C256.491 43.2204 355.218 66.4932 370.749 64.2767Z" fill="#32BA3F"/>
    </g>
    <path d="M370.749 64.2767C370.749 64.2767 371.858 29.9217 338.579 27.7053C324.58 26.7744 300.863 9.97367 291.989 25.4888C283.114 41.004 256.491 43.2204 256.491 43.2204C256.491 43.2204 355.218 66.4932 370.749 64.2767Z" stroke="white" stroke-width="5.85281" stroke-miterlimit="10"/>
    <path d="M317.258 172.884C315.225 180.775 314.84 188.998 316.127 197.044C318.345 209.101 349.295 188.998 349.295 188.998C349.295 188.998 352.733 180.93 349.295 176.918C345.856 172.907 317.258 172.884 317.258 172.884Z" fill="#FFD82E"/>
    <path d="M353 175.101C347.276 176.431 350.781 188.4 350.781 188.4C350.781 188.4 360.543 189.907 366.311 186.183C370.172 183.701 368.53 175.101 368.53 175.101C368.53 175.101 369.173 171.399 353 175.101Z" fill="#FFD82E"/>
    <path d="M368.064 173.727C368.064 173.727 382.928 162.644 384.792 168.163C386.656 173.682 395.885 190.461 386.656 192.323C377.426 194.184 368.064 187.269 368.064 187.269C368.064 187.269 362.473 173.727 368.064 173.727Z" fill="#FFD82E"/>
    <path d="M319.72 197.265C319.077 198.218 323.448 203.449 348.562 188.4L319.72 197.265Z" fill="#A27200"/>
    <path d="M368.53 186.183C368.53 186.183 379.623 192.832 386.279 190.616C392.935 188.4 368.53 186.183 368.53 186.183Z" fill="#A27200"/>
    <path d="M365.934 181.75C368.773 186.36 354.974 190.106 351.491 186.183C350.159 184.565 357.925 189.131 365.934 181.75Z" fill="#A27200"/>
  </g>
  <defs>
    <clipPath id="clip0">
      <rect width="57.0701" height="57.0701" fill="white" transform="translate(425 436)"/>
    </clipPath>
    <clipPath id="clip1">
      <rect width="448" height="384" fill="white"/>
    </clipPath>
  </defs>
</svg>
