<svg xmlns="http://www.w3.org/2000/svg" width="369" height="291" fill="none"><g clip-path="url(#A)"><path fill-rule="evenodd" d="M84.563 169.125C37.858 169.125 0 131.267 0 84.563S37.858 0 84.563 0s84.563 37.858 84.563 84.563-37.858 84.563-84.562 84.563zm42.25-83.405L87.195 21.141 47.566 85.725l39.628 23.007 39.617-23.012zm.032 7.383l-39.649 22.996-39.628-22.99 39.628 54.849 39.649-54.855z" fill="#e6e6e6"/><g fill="#fff"><path d="M87.195 21.141V68.02l39.623 17.705-39.623-64.585zm0 94.963v31.854l39.649-54.855-39.649 23.001z"/><path d="M87.195 108.732l39.623-23.007-39.623-17.695v40.701z"/><path d="M47.566 85.725l39.628 23.007V68.031L47.566 85.725z"/></g></g><g clip-path="url(#B)"><path d="M294.747 193.042c26.924 0 48.748 21.823 48.748 48.747s-21.824 48.747-48.748 48.747S246 268.713 246 241.789s21.824-48.747 48.747-48.747zm4.089 48.975l-.478 5.088c5.962 4.747 6.766 8.272 5.852 12.973-2.068 7.282-8.381 8.044-11.068 7.581-3.077-.564-4.369-.722-7.026-3.842a10.48 10.48 0 0 1-.887-11.617l.037-.061 1.347 6.398 3.869-.768-2.529-13.479-13.009 3.084 1.042 4.201 5.328-1.036-.051.125c-.229.561-1.158 2.919-1.435 4.759-1.792 11.236 7.717 16.324 11.669 16.592 7.839.573 12.39-2.815 14.755-6.407 4.387-7.19 2.196-12.51.923-15.215-1.664-3.406-8.339-8.376-8.339-8.376zm-2.315-19.255h-4.184v38.404h4.184v-38.407.003zm-.092-11.413c-7.86-.368-12.318 3.138-14.578 6.794-4.205 7.313-1.874 12.565-.518 15.225 1.755 3.36 8.561 8.153 8.561 8.153l.338-5.097c-6.093-4.579-6.989-8.077-6.194-12.806 1.874-7.339 8.162-8.253 10.868-7.866 3.074.481 4.375.609 7.117 3.656a10.47 10.47 0 0 1 2.36 5.613c.213 2.063-.192 4.143-1.163 5.977l-.033.06-1.514-6.349-3.839.865 2.879 13.406 12.915-3.425-1.155-4.18-5.301 1.179s1.1-2.815 1.359-4.929c1.496-11.282-8.153-16.111-12.102-16.276z" fill="#e6e6e6"/></g><g clip-path="url(#C)"><path fill-rule="evenodd" d="M310.917 123c-32.081 0-58.084-26.003-58.084-58.083s26.003-58.083 58.084-58.083S369 32.837 369 64.917 342.997 123 310.917 123zm26.097-65.271c1.14-7.609-4.657-11.7-12.578-14.43l2.57-10.31-6.273-1.561-2.505 10.037-5.028-1.183 2.523-10.103-6.273-1.565-2.57 10.306-4.008-.944.007-.033-8.654-2.16-1.67 6.701s4.658 1.067 4.56 1.133c2.541.635 2.998 2.316 2.922 3.652l-2.926 11.744c.174.044.399.109.653.207l-.664-.163-4.102 16.452c-.312.77-1.1 1.928-2.879 1.488.066.091-4.559-1.136-4.559-1.136l-3.115 7.181 8.168 2.037 4.469 1.154-2.596 10.426 6.269 1.561 2.571-10.31 5.002 1.296-2.563 10.266 6.273 1.561 2.596-10.405c10.702 2.026 18.746 1.209 22.133-8.469 2.73-7.79-.134-12.288-5.765-15.218 4.102-.944 7.188-3.641 8.012-9.214zm-14.339 20.104c-1.935 7.794-15.058 3.579-19.313 2.523l3.449-13.813c4.254 1.064 17.893 3.165 15.864 11.29zm1.942-20.217c-1.768 7.09-12.688 3.485-16.227 2.603l3.122-12.524c3.539.882 14.949 2.527 13.105 9.921z" fill="#e6e6e6"/></g><defs><clipPath id="A"><path fill="#fff" d="M0 0h169.125v169.125H0z"/></clipPath><clipPath id="B"><path fill="#fff" transform="translate(246 193.042)" d="M0 0h97.495v97.495H0z"/></clipPath><clipPath id="C"><path fill="#fff" transform="translate(252.833 6.833)" d="M0 0h116.167v116.167H0z"/></clipPath></defs></svg>
