<svg xmlns="http://www.w3.org/2000/svg" width="32" height="37" fill="none"><g clip-path="url(#A)"><path fill-rule="evenodd" d="M3.746 0h24.489A3.78 3.78 0 0 1 32 3.746V36.24l-3.948-3.417-2.211-2.029-2.339-2.157.969 3.344H3.746C1.681 31.982 0 30.3 0 28.235V3.746C0 1.681 1.681 0 3.746 0zm16.228 22.204l1.206 1.462c3.826-.121 5.406-2.49 5.561-2.723l.013-.018c0-5.83-2.632-10.563-2.632-10.563-2.613-1.955-5.117-1.901-5.117-1.901l-.256.292c3.107.932 4.551 2.303 4.551 2.303A15.19 15.19 0 0 0 17.8 9.32c-1.316-.146-2.577-.11-3.692.037-.096 0-.178.014-.27.03l-.041.007c-.64.073-2.193.292-4.148 1.151-.676.292-1.078.512-1.078.512s1.499-1.444 4.788-2.376l-.183-.219s-2.485-.055-5.117 1.901c0 0-2.632 4.733-2.632 10.563 0 0 1.535 2.632 5.574 2.759l1.224-1.498c-2.321-.694-3.198-2.138-3.198-2.138a6.41 6.41 0 0 0 .512.311c.011 0 .023.007.038.017.01.006.021.013.035.02.027.018.055.032.082.046s.055.027.082.046c.457.256.914.457 1.334.621.749.311 1.645.585 2.686.786 1.371.256 2.979.347 4.733.018.859-.164 1.736-.402 2.65-.786a10.46 10.46 0 0 0 2.102-1.078s-.914 1.48-3.308 2.156zm-2.485-4.989c0-1.115.822-2.01 1.864-2.01 1.023 0 1.864.896 1.864 2.01s-.822 2.01-1.864 2.01c-1.023 0-1.864-.896-1.864-2.01zm-6.67 0c0-1.115.822-2.01 1.864-2.01s1.882.896 1.864 2.01c0 1.115-.822 2.01-1.864 2.01-1.024 0-1.864-.896-1.864-2.01z" fill="gray"/></g><defs><clipPath id="A"><path fill="#fff" d="M0 0h32v36.24H0z"/></clipPath></defs></svg>
