<svg xmlns="http://www.w3.org/2000/svg" width="32" height="32" fill="none"><g clip-path="url(#A)"><path d="M16 .374A16 16 0 0 0 .194 13.863 16 16 0 0 0 11.04 31.587h.387c.189.012.378-.017.554-.084a1.33 1.33 0 0 0 .471-.304c.134-.134.237-.294.304-.471s.096-.366.084-.554v-.28-1.453c-.013-.087-.043-.171-.089-.247s-.106-.141-.178-.193c-.077-.063-.168-.107-.265-.13s-.198-.024-.295-.003C8.44 28.64 7.68 26.4 7.627 26.254c-.447-1.185-1.248-2.204-2.293-2.92-.063-.054-.13-.103-.2-.147a.84.84 0 0 1 .507-.093 1.96 1.96 0 0 1 1.533 1.173 4 4 0 0 0 5.333 1.547c.098-.043.185-.109.252-.193s.113-.182.134-.287c.051-.617.315-1.197.747-1.64.096-.085.165-.196.2-.319s.032-.254-.006-.377-.111-.231-.209-.314-.218-.135-.345-.15c-3.16-.36-6.387-1.467-6.387-6.92-.027-1.37.475-2.697 1.4-3.707.085-.094.142-.211.163-.336s.006-.254-.043-.371c-.371-1.035-.366-2.168.013-3.2 1.232.218 2.388.746 3.36 1.533.08.057.172.095.269.111s.196.01.291-.017c1.191-.323 2.419-.489 3.653-.493a13.96 13.96 0 0 1 3.667.493c.092.025.189.03.284.014s.184-.053.263-.108c.974-.785 2.129-1.312 3.36-1.533a4.76 4.76 0 0 1 0 3.173c-.049.117-.064.246-.043.371s.078.242.163.336c.916 1 1.416 2.311 1.4 3.667 0 5.453-3.24 6.547-6.413 6.907-.13.014-.253.065-.354.148s-.175.194-.214.319-.039.259-.002.384.11.237.21.322c.295.305.521.67.661 1.071s.192.827.152 1.249v4.24c-.007.208.033.416.116.607s.207.362.364.5a1.6 1.6 0 0 0 1.413.253 16 16 0 0 0 10.72-17.72A16 16 0 0 0 16 .374z" fill="gray"/></g><defs><clipPath id="A"><path fill="#fff" d="M0 0h32v32H0z"/></clipPath></defs></svg>
