<svg xmlns="http://www.w3.org/2000/svg" width="161" height="277" fill="none"><g clip-path="url(#A)"><path d="M161 234.961h-292.979v18.255H161v-18.255z" fill="#4e352e"/><path d="M-57.251 276.896c-21.856 0-21.96-64.676 0-64.676s21.96 64.676 0 64.676zm154.556-58.417c-.685-.95-1.574-1.735-2.602-2.295 1.769 7.407 3.539 25.14-3.539 25.14-.208-5.633-.104-22.01-5.1-26.705-3.122.939-8.847 3.756-11.969 11.788a56.32 56.32 0 0 0-2.082 9.806v.313c-2.186 18.36 3.122 40.475 15.924 40.475 13.322 0 18.526-24.097 15.612-42.77-.635.55-1.45.847-2.29.834.208-5.32-1.353-12.83-3.955-16.586zm42.152-6.259c-21.961 0-21.856 64.676 0 64.676s21.856-64.676 0-64.676zm-234.8 0c-21.96 0-21.856 64.676 0 64.676s21.96-64.676 0-64.676z" fill="#e45325"/><path d="M-87.33 262.501c2.432.004 4.788-.844 6.661-2.4-2.394 9.598-7.286 16.795-14.571 16.795-19.358 0-21.648-50.697-6.661-62.276-4.891 19.194-.104 47.881 14.571 47.881zm234.696 0c-14.571 0-19.463-28.792-14.571-47.881-14.987 11.579-12.698 62.276 6.661 62.276 7.285 0 12.177-7.197 14.571-16.795-1.873 1.556-4.23 2.404-6.661 2.4zM74.074 226.23c-6.141 18.986-1.561 50.698 13.738 50.698 7.285 0 12.177-7.198 14.571-16.795a11.07 11.07 0 0 1-6.661 2.399c-13.946 0-18.942-26.079-15.195-45.065-2.887 2.297-5.114 5.321-6.453 8.763zm-138.007-11.579c-14.987 11.579-12.698 62.277 6.661 62.277 7.285 0 12.177-7.198 14.571-16.795a11.07 11.07 0 0 1-6.661 2.399c-14.55-.031-19.442-28.718-14.55-47.912l-.021.031z" fill="#be3a26"/><g fill="#2d1e1c"><path d="M-5.025 230.266c-1.145-.313-14.987-34.32-14.987-34.32s9.679-6.885 10.2-8.971c-2.81-2.817-5.516-8.45-5.516-8.45a42.35 42.35 0 0 0 1.561 6.885s-4.163-1.877-5.516-5.216l-9.055 12.936s15.3 35.259 15.195 37.136c-5.724-1.252-11.032 4.799-11.032 4.799 11.136 1.147 7.494 20.341 0 18.255 5.308 12.205 11.657 5.007 12.177-15.752 2.394 1.669 10.824 13.561 1.041 15.752 9.055 16.586 18.942-4.59 5.516-16.691 6.973.522 17.797 8.972 9.471 16.691 3.018 7.928 8.951 3.755 9.887-2.191 1.374-11.057-8.93-18.359-18.942-20.863zm100.248-19.819c-2.81-4.069-6.973-4.069-11.345-1.461-9.575.313-15.508-.939-45.066 2.921 0 0-.208-2.295-.416-5.529-2.498.313-4.996.418-7.598.522l2.706 13.77c7.91-.313 31.744-5.946 43.192-5.946-4.163 4.485-10.512 16.586-4.579 21.802.937-15.856 9.887-20.634 13.946-21.907 3.997 4.841 4.892 21.177 5.1 26.705 7.077 0 5.516-17.629 3.747-25.036.901.608 1.708 1.347 2.394 2.191 2.602 3.651 3.518 11.329 3.955 16.586 8.118 0 2.998-24.41-6.036-24.618z"/></g><path d="M79.611 178.421c-24.562 12.518-55.89 12.831-39.862-18.151-1.249 1.331-2.43 2.723-3.539 4.173 2.914-10.327 11.761-19.612 19.983-25.975-4.043 2.055-7.938 4.39-11.657 6.989 13.426-18.881 26.644-13.039 32.889-40.057-4.892 17.525-24.666 29.208-42.256 33.903-16.757 9.597-62.863-1.356-77.746-6.051 10.408-.834 14.259-1.46 14.259-1.46-10.824-3.338-22.793-9.597-34.658-13.874.52 8.554 2.498 17.421 5.828 24.306-1.769-9.598 0-14.396 0-14.396s3.435 20.342 11.448 32.129c-3.122-12.622-1.769-16.899-1.769-16.899s6.453 24.306 15.924 32.651c-1.251-4.476-1.604-9.156-1.041-13.77 0 0 1.769 4.799 12.906 13.77-2.81-6.781 3.851-4.381 9.055 2.817s8.326 7.823 22.585 5.007c-10.408 5.946 6.245 10.118 16.965 8.762-7.702 4.903 16.652 3.651 30.495.313-7.285 5.633 18.005 3.234 22.169.417 1.249-.834 4.059-.834 7.181-.208 1.249-.835 2.394-1.669 3.539-2.504-7.827 3.964 5.704-21.385-12.698-11.892z" fill="#f2f2f2"/><path d="M54.216 202.623c-19.462 7.51-49.021 4.381-73.687-5.529a8.53 8.53 0 0 1-.416-1.148s9.679-6.884 10.2-8.971c-2.81-2.816-5.516-8.449-5.516-8.449a42.29 42.29 0 0 0 1.561 6.884s-4.163-1.877-5.516-5.215l-9.055 12.935c0 .028.011.054.03.074s.046.03.074.03c-9.679-4.798-18.214-10.64-24.562-17.212 1.457 3.964 2.706 7.824 3.331 9.701-4.163-5.215-20.92-22.532-27.268-47.046a107.57 107.57 0 0 0 .624 11.579 101.95 101.95 0 0 1-7.181-29.939 74.16 74.16 0 0 0-.728 9.389c-2.602-7.407-3.747-17.213-3.955-24.515v-6.885a35.52 35.52 0 0 0-1.873 4.799c-.104.417-.208.73-.312 1.148v.104a5.22 5.22 0 0 0-.208 1.252 76.59 76.59 0 0 1 .52-23.889c22.064 12.101 46.835 27.331 62.135 38.18 2.706 1.878-24.042-7.198-21.336-5.32 22.689 15.334 46.419 27.852 69.316 27.122a64.49 64.49 0 0 0 14.987-2.399c-16.757 9.597-62.863-1.356-77.746-6.051 10.408-.834 14.259-1.46 14.259-1.46-10.824-3.338-22.793-9.597-34.658-13.874.52 8.554 2.498 17.421 5.828 24.306-1.769-9.598 0-14.396 0-14.396s3.435 20.342 11.448 32.129c-3.122-12.622-1.769-16.899-1.769-16.899s6.453 24.306 15.924 32.651c-1.251-4.476-1.604-9.156-1.041-13.77 0 0 1.769 4.799 12.906 13.77-2.81-6.78 3.851-4.381 9.055 2.817s8.326 7.823 22.585 5.007c-10.408 5.946 6.245 10.118 16.965 8.762-7.702 4.903 16.652 3.651 30.495.313-7.286 5.633 18.005 3.234 22.169.418 1.249-.835 4.059-.835 7.181-.209-10.304 6.885-23.313 11.996-40.07 14.396-.208-.105 3.435-1.774 5.308-4.59zM3.01 163.713c5.204 2.19 11.969-.731 17.485-8.137-3.664 3.13-10.949 7.302-17.485 8.137zm0 16.69c3.851 1.252 8.951-.417 13.01-4.694a33.32 33.32 0 0 1-13.01 4.694zm-41.527-40.756c-1.249 5.737 1.249 12.935 6.973 18.568a53.27 53.27 0 0 1-6.973-18.568z" fill="#b3b3b3"/><path d="M154.547 135.339c12.177-38.389-1.665-102.334-121.459-98.788C-24.675 9.429-87.434 40.307-127.92 63.465c20.191 6.572 74.103 37.971 100.123 56.331 2.706 1.877-24.042-7.198-21.336-5.32 22.689 15.334 46.419 27.852 69.316 27.122 20.399-.626 54.745-15.022 58.076-40.684 10.304 1.982 14.155 22.22 13.114 23.785 1.353-1.461 2.914-16.9 10.2-20.655 0 0-3.019 8.658-2.186 10.953 3.851-12.205 33.617-14.083 28.829 16.065 1.353-1.356 3.851-10.328 3.851-10.328-3.538 22.324 5.1 31.295 13.53 32.756 3.955-.73 11.657-14.917 12.594-23.784-.97 2.025-2.194 3.919-3.643 5.633z" fill="#4e352e"/><path d="M-84.311 47.849c10.928-6.781 49.125-23.471 88.674-15.647-38.925-2.086-88.674 15.647-88.674 15.647zm117.4-11.266a83.15 83.15 0 0 0-9.055-3.755c12.191 8.008 23.193 17.701 32.68 28.791-3.331-5.842-7.285-16.273-14.363-25.14-3.018-.031-6.141-.031-9.263.073v.031z" fill="#2d1e1c"/><path d="M43.184 126.263c-44.545 6.051-63.904-6.78-62.134-8.658 19.983 10.64 56.202 8.241 62.135 8.658zm-73.895-30.251c-1.769 1.773 17.589 14.708 62.135 8.658-5.933-.417-42.047 1.982-62.134-8.658zm96.792 9.597c2.082.834 11.761-9.284-.937-31.399.416 3.025 8.222 20.968.937 31.399zm79.828-17.63c-20.608-32.025-53.6-34.842-60.99-32.755 40.153 5.425 56.41 30.179 60.969 32.755h.021z" fill="#6d4d42"/><path d="M142.578 159.123c1.978-2.191 6.869-4.068 8.847-5.007-1.145-.105-4.475.834-7.702 1.877.625-.834 1.249-1.564 1.874-2.503-8.535-1.461-17.069-10.432-13.531-32.755 0 0-2.602 8.971-3.851 10.327 4.788-30.252-24.978-28.27-28.829-16.065-.833-2.295 2.186-10.953 2.186-10.953-7.286 3.755-8.847 19.194-10.2 20.655 1.041-1.565-2.914-21.802-13.114-23.784-.212 1.48-.525 2.943-.937 4.381-6.245 27.018-19.462 21.176-32.889 40.057a97.31 97.31 0 0 1 11.657-6.989c-8.326 6.363-17.069 15.647-19.983 25.975 1.109-1.45 2.29-2.842 3.539-4.173-15.924 30.982 15.299 30.669 39.862 18.151 18.526-9.493 4.788 16.065 12.698 11.788 11.344-6.05 16.444-15.752 19.462-21.176l-3.643 7.719c7.286-5.529 9.992-15.126 15.82-16.273-1.769-4.173-2.602-7.407-1.353-8.241 1.874-1.148 7.806 4.59 10.304 5.946.624-.417.52-1.774.52-1.774 1.237 1.831 2.83 3.392 4.684 4.59.52-1.251 1.249-.521 1.353-.521a11.31 11.31 0 0 1 6.14 1.982 14.45 14.45 0 0 0-2.914-3.234z" fill="#e45325"/><path d="M123.948 115.519c-7.702-7.302-16.756-4.382-20.711.626 3.101-9.284 16.548-10.536 20.711-.626zm-17.173 52.575c-1.249 3.547-10.512 14.604-16.756 15.23 2.789 1.565 16.236-5.841 16.756-15.23zM67.642 148.17c-2.498 2.503-8.014 6.572-13.218 7.198 1.561.97 8.743-.835 13.218-7.198zm-20.503 19.194c-1.353 1.773-4.475 4.381-8.118 4.068 1.249 1.148 6.036.835 8.118-4.068zm25.187-3.651c-1.353 1.773-4.475 4.381-8.118 4.068 1.249 1.148 6.037.835 8.118-4.068zm26.852-1.356c-1.353 1.773-4.475 4.381-8.118 4.068 1.249 1.148 6.036.835 8.118-4.068zm-24.25 8.554c-1.769 3.651-17.901 13.665-25.083 11.161 2.914 3.339 23.417 0 25.083-11.13v-.031z" fill="#be3a26"/><path d="M123.116 132.939c-5.829 3.547-12.802 3.86-17.902-.313 1.041 3.339 11.241 7.511 17.902.313z" fill="#ed6d23"/><g fill="#000"><path d="M138.103 161.001a14.08 14.08 0 0 1-4.684-4.59s.104 1.356-.52 1.773c-2.498-1.356-8.43-7.093-10.304-5.946-1.249.835-.416 4.068 1.353 8.241 2.498 6.05 6.869 14.187 9.263 19.716.937 2.19 6.765 9.806 6.245-19.716-.104-.104-.854-.834-1.353.522zm-24.458-26.184c6.322 0 11.448-5.137 11.448-11.475s-5.126-11.474-11.448-11.474-11.449 5.137-11.449 11.474 5.126 11.475 11.449 11.475z"/></g><path d="M117.287 116.697c.208 1.46-1.457 2.921-3.642 3.234s-4.268-.626-4.476-1.982 1.457-2.921 3.643-3.234 4.163.49 4.475 1.982zm3.227 12.727c-1.296 1.537-3.112 2.54-5.1 2.816-.208-.209-.52-.209-.937-.209-.271.018-.528.128-.728.313-2.217.048-4.407-.492-6.349-1.564a8.15 8.15 0 0 0 2.865 1.871 8.14 8.14 0 0 0 3.38.528c.297.227.667.338 1.04.313.417-.104.729-.209.833-.522 2.706-.626 4.892-2.013 4.996-3.578v.032z" fill="#fff"/></g><defs><clipPath id="A"><path fill="#fff" transform="translate(-132 -21)" d="M0 0h293v298H0z"/></clipPath></defs></svg>
