<svg xmlns="http://www.w3.org/2000/svg" viewBox="0 0 178.56 173.25"><defs><style>.cls-1{fill:#2d1d1c;}.cls-2{fill:#afbdc4;}.cls-3{fill:#eeeae8;}.cls-4{fill:#e45325;}.cls-5{fill:#bd3926;}.cls-11,.cls-14,.cls-15,.cls-6{fill:none;}.cls-6{stroke:#ffe500;stroke-width:2px;}.cls-10,.cls-11,.cls-12,.cls-13,.cls-14,.cls-15,.cls-6{stroke-miterlimit:10;}.cls-12,.cls-7{fill:#fffee9;}.cls-10,.cls-13,.cls-8{fill:#bfa700;}.cls-9{font-size:28.26px;fill:#ffe500;font-family:ArialMT, Arial;}.cls-10,.cls-13,.cls-14,.cls-15{stroke:#bfa700;}.cls-10,.cls-11,.cls-15{stroke-width:0.5px;}.cls-11,.cls-12{stroke:#fffee9;}.cls-12,.cls-13,.cls-14{stroke-width:0.25px;}.cls-16{fill:#4e342e;}.cls-17{fill:#63463d;}.cls-18{fill:#f27021;}.cls-19{fill:#231f20;}.cls-20{fill:#fff;}</style></defs><title>rotkiOG_1</title><g id="Layer_2" data-name="Layer 2"><g id="Layer_1-2" data-name="Layer 1"><path id="left_leg" data-name="left leg" class="cls-1" d="M65,136.33a30.08,30.08,0,0,0,1,4.27s-2.61-1.18-3.45-3.25l-2,2.81-3.69,5.24s4.35,8.54,4.29,9.68c-3.57-.79-6.89,3-6.89,3,7,.69,4.67,12.71,0,11.39,3.32,7.64,7.27,3.13,7.6-9.83,1.52,1,6.79,8.46.62,9.83,5.69,10.33,11.86-2.85,3.44-10.42,4.37.31,11.11,5.57,5.89,10.42,1.9,5,5.62,2.37,6.17-1.37,1-6.81-5.47-11.37-11.76-12.91-.7-.18-4.14-7.95-4.14-7.95s5.13-3.66,6.2-5.26a1.15,1.15,0,0,0,.19-.36A24.72,24.72,0,0,1,65,136.33Z"/><path id="right_leg" data-name="right leg" class="cls-1" d="M150.36,142.77c-1.78-2.51-4.39-2.52-7.11-.94-6,.23-15.31-.44-21,1.57a66.09,66.09,0,0,1-4.88-5.82c-2.55,1.12-4.25,1.84-4.25,1.84a4.85,4.85,0,0,0,.92-3,11.26,11.26,0,0,1-2.75,2.63l7.64,9.78a79.93,79.93,0,0,0,19.75-3.47c-2.62,2.78-6.56,10.36-2.88,13.63.61-9.91,6.23-12.88,8.82-13.63,3.09,2.91,3,13.18,3.18,16.67,4.42,0,3.33-11.06,2.19-15.66a4.31,4.31,0,0,1,1.66,1.43c1.65,2.3,2.62,7,2.49,10.22C159.37,158.06,156.08,142.94,150.36,142.77Z"/><path id="belly_shadow" data-name="belly shadow" class="cls-2" d="M131.89,122.21S72,144.38,99.68,124.75c-5.66-1.5-22.11,6.72-9.22,7.12,2.41.07-10.27,4.77-18.24.1-9.18-5.36-15.53-8.33-8.64-2.42,10.32,8.85-4.85,2.52-10.28-1-12.81-8.36-7-1.75-4,1.77-10.06-6.37-10-9-14.18-17.75,0,0,.7,3.32,1.39,6-3.57-3.55-5.43-14.12-5.47-14a13.33,13.33,0,0,0-.92,3.46c-.73-1.57-1.28-2.94-1.68-4,26.76-13.65,53.33-2.84,37.73-20.15,8.26-3.5,35.6-16.24,28.76-28.82C99.46,65.71,68.64,74.57,60.53,78,74.09,93,49,90.15,23,98.91a42.14,42.14,0,0,0,1.75,8.6c0-2.85.6-3.69.6-3.69.05,1,.51,5.7,2.51,8a7.06,7.06,0,0,1,0-3.39s1.54,6.94,3.79,10.37a17.68,17.68,0,0,1,.6-3.86s.49,2.74,1.25,5.37c.35,1.56.69,3.6,1.88,5,.4.47.12-1.71.52-1.26,6.9,7.52,14.83,13.1,24.64,16.14l2-2.81c.84,2.07,3.45,3.25,3.45,3.25a30.08,30.08,0,0,1-1-4.27,24.72,24.72,0,0,0,3.44,5.27,1.15,1.15,0,0,1-.19.36,79.13,79.13,0,0,0,23.46-.09c0,.71-1.59,1.38-1.59,1.38,5.39,0,13.88-2.1,20-5.5a4.74,4.74,0,0,1-.68,2.54c.38-.12,3.79-2.41,4.58-3.83a4.85,4.85,0,0,1-.92,3s23.63-10,27.8-14.49a5.68,5.68,0,0,1-1.16,2.72,41.46,41.46,0,0,0,9.68-8S120,130.76,131.89,122.21Z"/><path id="belly" class="cls-3" d="M154,112.87c-.71.73-10.74,5-12.37,2.31s8.48-13,2.41-11.05-27,13.92-36.45,12.73-8.5-10.32-5.55-13.27c2.46-2.44-5.94,1.76-7.76.28s6.44-6,1.43-7-6.86-5.83,3.49-16.35c-6.1.69-4-4.89,7.91-15.47,8.28-7.32,2-8.94-.38-13.42,1.14,0,9.8,1.89,11.31,2-2.81-2.31-12.55-4.76-12.55-4.76,3.67.33,11,1.74,11,1.74-11.73-4.12-24.43-4.52-31.38-3.33,5.73,2.66,8.75,5.26,9.82,7.76,6.84,12.58-20.5,25.32-28.76,28.82,15.6,17.31-11,6.5-37.73,20.15.4,1,.95,2.4,1.68,4a13.33,13.33,0,0,1,.92-3.46c0-.07,1.9,10.5,5.47,14-.69-2.73-1.39-6-1.39-6,4.2,8.74,4.12,11.38,14.18,17.75-3-3.52-8.8-10.13,4-1.77,5.43,3.55,20.6,9.88,10.28,1-6.89-5.91-.54-2.94,8.64,2.42,8,4.67,20.65,0,18.24-.1-12.89-.4,3.56-8.62,9.22-7.12-27.65,19.63,32.21-2.54,32.21-2.54-11.94,8.55,17.58-2.52,17.58-2.52a.39.39,0,0,1-.08.11l0,.06-.15.17-.07.08-.24.26-.09.09-.34.36-.08.07-.45.45-.07.07-.56.53-.05,0-.66.6,0,0-.76.67h0s6.81-4.84,9.55-8.18C154.5,116,154.73,112.14,154,112.87Z"/><path id="tail" class="cls-1" d="M31.65,118.78c-2.25-3.43-3.79-10.37-3.79-10.37a7.06,7.06,0,0,0,0,3.39c-2.24-2.55-2.51-8-2.51-8s-.6.84-.6,3.69A41.54,41.54,0,0,1,23,98.9,73.88,73.88,0,0,0,.47,110.64c.44,1.65,14.55-.43,19.31-1.22C4.79,118.27,6,123,10.47,121.14c-30.4,38,19.79,1.2,23-.85-.76-2.63-1.25-5.37-1.25-5.37A17.68,17.68,0,0,0,31.65,118.78Z"/><path id="body_orange" data-name="body orange" class="cls-4" d="M171.25,88c-.23-4.25-.51-8.38-3.86-18.29-.29-1.24-.55-2.35-.73-3.32-.87-4.84-.36-12.26.16-17.29L168,50.42c0-3,.13-3.85,2.3-5.36a3.48,3.48,0,0,0-3.18,1.39c.21-1.73.38-2.81.38-2.81-16.6-.21-19.85-9.44-25.34-12.23-.66-.34,1.53,1.49,2.27,3.68-3.35-3.6-9.33-6.13-18-3.74-1.14.32,4.23.62,3.24.85-5.34,1.23-11.52,6.23-11.07,16.13,0,.76,1.77-5.37,1.66-4.66-.68,4.5,1.61,8.73,2.31,9.85-4.79-1.78-8.42-6.65-8.42-6.65a6.16,6.16,0,0,0,2.3,3.76s-7.31-1.41-11-1.74c0,0,9.74,2.45,12.55,4.76-1.51-.1-10.17-2-11.31-2,2.38,4.48,8.66,6.1.38,13.42-12,10.58-14,16.16-7.91,15.47C88.86,91.07,90.7,95.89,95.72,96.9s-3.24,5.49-1.43,7,10.22-2.72,7.76-.28c-3,3-3.88,12.09,5.55,13.27s30.38-10.77,36.45-12.73-4.05,8.4-2.41,11.05,11.66-1.58,12.37-2.31.49,3.08,1.34,2.25c11.37-13.06,14-24.4,13.81-33.22C169.89,84,170.87,86.84,171.25,88Z"/><path id="orange_shadow" data-name="orange shadow" class="cls-5" d="M97.63,102.28c9.13-.94,18.75-5.44,23.76-13.79C113.25,95,104.84,98.34,97.63,102.28Zm33.53,5.49c6.7-1.75,15.07-5.22,18.31-11.78C142.54,101.48,137.07,105.05,131.16,107.77Zm23,3.62c4.06-3.39,6.72-9,6.84-12.94C158.4,103.78,158.07,104,154.11,111.39Zm1.15-14.92c3.42-4,5.09-10,4.54-13.91C158.19,88.24,157.9,88.49,155.26,96.47Zm-46,16.6a25.22,25.22,0,0,0,12.16-4.86A69.31,69.31,0,0,0,109.21,113.07ZM126,96.5c3.82-1.57,12.31-8,14.35-13.46C135.44,88.88,127.71,94.75,126,96.5ZM99.68,81.24a27.3,27.3,0,0,0,15.61-10.36C108.78,76.46,101.71,79.82,99.68,81.24Zm30-42.93c10-10,24.85,5.52,13.81,14.16C149.08,43.71,139.23,32.53,129.7,38.31Z"/><ellipse class="cls-6" cx="102.93" cy="71.21" rx="3.87" ry="8.66" transform="translate(-4.05 136.17) rotate(-65.95)"/><path class="cls-7" d="M98.93,66.36s1.17-1.48,6.25.59c0,0,4.06,2.3,4.15,3.61C109.43,72.15,106.59,65.82,98.93,66.36Z"/><path class="cls-8" d="M107.52,75.62s-1.2,1.75-6.36-.12c0,0-4.14-2-4.46-3.3S99.68,76.91,107.52,75.62Z"/><ellipse class="cls-6" cx="117.74" cy="78.49" rx="3.87" ry="8.66" transform="translate(-1.16 155.21) rotate(-66.52)"/><path class="cls-7" d="M113.7,73.68s1.15-1.49,6.25.53c0,0,4.08,2.26,4.18,3.56C124.26,79.36,121.36,73.06,113.7,73.68Z"/><path class="cls-8" d="M122.38,82.86s-1.19,1.75-6.36-.06c0,0-4.16-2-4.49-3.25S114.55,84.22,122.38,82.86Z"/><ellipse class="cls-6" cx="137.19" cy="90.27" rx="3.87" ry="8.66" transform="matrix(0.52, -0.85, 0.85, 0.52, -11.49, 160.01)"/><path class="cls-7" d="M133.86,84.94s1.35-1.31,6.12,1.41c0,0,3.72,2.81,3.64,4.11C143.52,92.05,141.53,85.41,133.86,84.94Z"/><path class="cls-8" d="M141.16,95.25s-1.41,1.57-6.28-1c0,0-3.84-2.55-4-3.85S133.23,95.5,141.16,95.25Z"/><path class="cls-6" d="M149.66,95.32c2,3-2.71,6.53-5,5-2.8-1.87-3-2-4.63-4.44a3.74,3.74,0,0,1,5.23-5.16A12.22,12.22,0,0,1,149.66,95.32Z"/><path class="cls-7" d="M142.66,89.36s1.62-1,5.61,2.79h0c.09.1,3,3.61,2.58,4.84C150.4,98.53,150,91.6,142.66,89.36Z"/><path class="cls-8" d="M147.36,101.09s-1.74,1.19-5.88-2.39h0c-.08-.09-3.14-3.39-3-4.67S139.58,99.48,147.36,101.09Z"/><path class="cls-6" d="M101.69,65.77c2,3-2.7,6.54-5,5-2.79-1.86-3-2-4.62-4.43a3.74,3.74,0,0,1,5.22-5.16A12.12,12.12,0,0,1,101.69,65.77Z"/><path class="cls-7" d="M94.7,59.82s1.62-1,5.61,2.78h0c.08.1,3,3.61,2.58,4.85C102.43,69,102.05,62.05,94.7,59.82Z"/><path class="cls-8" d="M99.4,71.54s-1.74,1.19-5.89-2.38h0c-.08-.08-3.14-3.39-3-4.67S91.62,69.94,99.4,71.54Z"/><ellipse class="cls-6" cx="110.14" cy="75.24" rx="3.87" ry="8.66" transform="translate(-8.44 136.32) rotate(-61.59)"/><path class="cls-7" d="M106.52,70.1s1.28-1.38,6.19,1.07c0,0,3.87,2.6,3.86,3.91C116.55,76.67,114.2,70.15,106.52,70.1Z"/><path class="cls-8" d="M114.38,80s-1.33,1.65-6.33-.6c0,0-4-2.34-4.2-3.63S106.46,80.68,114.38,80Z"/><path class="cls-6" d="M152,106c.08,3.61-5.78,4.06-6.9,1.54-1.36-3.08-1.45-3.28-1.52-6.22a3.74,3.74,0,0,1,7.17-1.56A12.12,12.12,0,0,1,152,106Z"/><path class="cls-7" d="M149.3,97.26s1.88.06,3.25,5.36h0c0,.13.56,4.64-.42,5.48C150.92,109.14,154.3,103.09,149.3,97.26Z"/><path class="cls-8" d="M147,109.68s-2.12.07-3.7-5.17h0c0-.11-.83-4.54,0-5.54S141.28,104.15,147,109.68Z"/><ellipse class="cls-6" cx="126.3" cy="79.01" rx="3.87" ry="8.66" transform="translate(3.51 163.38) rotate(-66.52)"/><path class="cls-7" d="M122.25,74.2s1.16-1.48,6.26.54c0,0,4.08,2.26,4.18,3.56C132.82,79.89,129.91,73.59,122.25,74.2Z"/><path class="cls-8" d="M130.93,83.38s-1.18,1.76-6.36-.06c0,0-4.15-2-4.49-3.25S123.11,84.75,130.93,83.38Z"/><ellipse class="cls-6" cx="132.08" cy="85.48" rx="3.87" ry="8.66" transform="translate(1.05 172.57) rotate(-66.52)"/><path class="cls-7" d="M128,80.68s1.15-1.49,6.25.53c0,0,4.08,2.26,4.18,3.56C138.6,86.36,135.7,80.06,128,80.68Z"/><path class="cls-8" d="M136.72,89.85s-1.19,1.76-6.36,0c0,0-4.16-2-4.49-3.26S128.89,91.22,136.72,89.85Z"/><path class="cls-6" d="M158.59,110.67c-2.86,2.19-6.69-2.27-5.31-4.67,1.68-2.91,1.79-3.11,4.12-4.9a3.75,3.75,0,0,1,5.5,4.88A12.22,12.22,0,0,1,158.59,110.67Z"/><path class="cls-7" d="M164.08,103.3s1.07,1.55-2.41,5.78h0c-.09.09-3.41,3.19-4.66,2.89C155.44,111.62,162.33,110.78,164.08,103.3Z"/><path class="cls-8" d="M152.69,108.76s-1.3-1.66,2-6h0c.08-.09,3.18-3.35,4.47-3.28S153.78,100.89,152.69,108.76Z"/><text class="cls-9" transform="translate(142.89 126.94) scale(1.01 1)">₿</text><line class="cls-10" x1="145.58" y1="107.05" x2="145.58" y2="126.64"/><path class="cls-11" d="M146.78,107.45S160,105.53,158.63,113"/><path class="cls-11" d="M156.09,116.68a4.32,4.32,0,0,1,3.48,4.56"/><line class="cls-12" x1="154.27" y1="104.41" x2="154.27" y2="106.66"/><line class="cls-12" x1="149.34" y1="104.41" x2="149.34" y2="106.66"/><line class="cls-13" x1="148.1" y1="104.41" x2="148.1" y2="106.66"/><line class="cls-13" x1="153.12" y1="104.41" x2="153.12" y2="106.66"/><line class="cls-12" x1="154.27" y1="127.06" x2="154.27" y2="129.31"/><line class="cls-13" x1="153.12" y1="127.06" x2="153.12" y2="129.31"/><line class="cls-12" x1="149.27" y1="127.06" x2="149.27" y2="129.31"/><line class="cls-13" x1="148.13" y1="127.06" x2="148.13" y2="129.31"/><path class="cls-14" d="M145.58,126.64c.69-.5,13.06,1.18,13.06-2.69"/><path class="cls-15" d="M147.62,109.29v5.91s8.81,1,9.06-2.27"/><path class="cls-15" d="M147.62,117.52v7.27c.69-.5,9,.94,9.57-2.1"/><path class="cls-6" d="M161.37,105.43c-2.24,1.89-5.23-2-4.15-4,1.31-2.51,1.4-2.68,3.22-4.23,2.55-2.17,5.92,1.15,4.29,4.21A10.19,10.19,0,0,1,161.37,105.43Z"/><path class="cls-7" d="M165.66,99.06s.83,1.35-1.89,5h0c-.08.08-2.67,2.75-3.65,2.49C158.91,106.25,164.29,105.52,165.66,99.06Z"/><path class="cls-8" d="M156.76,103.78s-1-1.44,1.56-5.21h0c.06-.07,2.49-2.89,3.49-2.83S157.61,97,156.76,103.78Z"/><path class="cls-6" d="M164.69,98.64c-.84,1.7-2.75-.58-2.49-2.22a8.7,8.7,0,0,1,1-3.52c.95-2,3-.12,2.57,2.32A8.84,8.84,0,0,1,164.69,98.64Z"/><path class="cls-7" d="M166,93.43s.56.82-.28,3.85h0c0,.07-.93,2.38-1.43,2.35S166.09,98.24,166,93.43Z"/><path class="cls-8" d="M162.28,98.19s-.67-.86.1-4h0c0-.07.83-2.46,1.32-2.57S161.84,93.21,162.28,98.19Z"/><path id="body_brown" data-name="body brown" class="cls-16" d="M114.18,46.87s3.63,4.87,8.42,6.65c-.7-1.12-3-5.35-2.31-9.85.11-.71-1.63,5.42-1.66,4.66-.45-9.9,5.73-14.9,11.07-16.13,1-.23-4.38-.53-3.24-.85,8.64-2.39,14.62.14,18,3.74-.74-2.19-2.93-4-2.27-3.68,5.49,2.79,8.74,12,25.34,12.23,1.67-2.38,2.05-8.38,2.1-9.18s-1.77,5.33-1.79,4.59c-.16-10.93-6.33-21.22-6.33-21.22a35.38,35.38,0,0,1,.81,5.39C145.09-3.7,90.59-17.94,55.48,41.88c-6.72,3.06-18.43,7.28-21.37,18.61C22.67,67.27,9.86,79.29,14.27,85c-5.45,4.22-5.5,9.11-5.5,9.11C5.34,97.68-1.9,108.83.47,110.64,30.53,86.8,78.13,97.53,60.53,78c10-4.24,54.68-16.75,24.57-30.7,7-1.19,19.65-.79,31.38,3.33A6.16,6.16,0,0,1,114.18,46.87Z"/><path id="brown_highliht" data-name="brown highliht" class="cls-17" d="M163.48,23.21c.74,1.61,3.48,9.29,3.22,12.57-1-2.29-10.35-17.54-13.92-20.24,2.7,1.27,7.63,6.25,10.87,11.4A30.31,30.31,0,0,1,163.48,23.21Zm-20.19-4.67A40.92,40.92,0,0,0,105.5,9.46C126.49,8.08,137.59,15.63,143.29,18.54Zm-2.16,11c-7.31-4.9-12.64-3.16-15.75-1.41A27.2,27.2,0,0,1,141.13,29.52Zm6.68-18.46A43.51,43.51,0,0,0,126,2C129,3.56,139.23,6.88,147.81,11.06ZM87.44,51.94c2.38,2,6,8.55-53.33,31.94C88.72,66.54,97.27,57.22,87.44,51.94ZM15.38,80.68c2.66-3,18.44-8.56,31.89-7.47C33.62,69.79,19.23,72.81,15.38,80.68ZM36.2,57.28c5.4-3.63,19.28-2.58,27.06-4.16C55,49.17,41.2,47.51,36.2,57.28Zm-33.57,49c2.65-3,36.77-16.67,50.23-15.57C39.2,87.3,6.48,98.43,2.63,106.29Z"/><path id="brown_shadow" data-name="brown shadow" class="cls-1" d="M49.29,73.76c-12.2,3-29.31,8.4-35,11.25C16,77.89,29.45,75.64,49.29,73.76ZM34.11,60.49c5.71-2.85,12.61-2.1,24.81-5.11C39.08,57.26,37.23,55.8,34.11,60.49ZM55.48,41.88c5.86-1.55,15.6,1.22,22.49,2.57C69.57,40.41,58.59,37.19,55.48,41.88ZM17,91.07C44.26,85.17,51,83,62.19,80c-.48-.63-1-1.3-1.66-2C57,78.7,44,83.72,17,91.07Z"/><path id="orange_highlights" data-name="orange highlights" class="cls-18" d="M136.11,55.84l-.68.07-.8.07c-.35,0-.69,0-1.1-.08A8.78,8.78,0,0,1,128,52.84a8.94,8.94,0,0,1-2.11-5.94,7.81,7.81,0,0,1,.26-1.88c.11-.43.19-.66.19-.66s0,.26,0,.68a11.48,11.48,0,0,0,.27,1.79,11.85,11.85,0,0,0,2.53,5,11.64,11.64,0,0,0,4.54,3.29c.35.14.7.26.95.34l.78.18Zm29.41,35.71c3.65-6.22,3-16.9-1-21.88C166.61,72.69,167.45,89,165.52,91.55Z"/><g id="beak"><path id="beak-2" data-name="beak" class="cls-19" d="M152.68,54.57c2.06,2.08,23.4,8.42,25.36,9.2S176.43,53.38,167,48.59C164.83,47.48,150.6,52.47,152.68,54.57Z"/><path id="highlight" class="cls-20" d="M174.85,57.93c-2.82-4.24-6.94-6.68-9.56-7.13C166.62,52,171.1,54.65,174.85,57.93Z"/></g><g id="eye"><ellipse id="eye-2" data-name="eye" class="cls-19" cx="135.97" cy="45.86" rx="8.08" ry="8" transform="translate(70.06 173.32) rotate(-81.3)"/><path id="highlights" class="cls-20" d="M140.11,45a6,6,0,0,0-2.63-2.28,6.9,6.9,0,0,0-1.95-.63,1.93,1.93,0,0,1,.15-.52c.57-1.15,2.21-1.51,3.69-.79s2.2,2.23,1.64,3.39A1.91,1.91,0,0,1,140.11,45Zm-4.25,7.61a7,7,0,0,1-6-7.8,6,6,0,0,0,4.95,8,6.35,6.35,0,0,0,2.58-.15A7.56,7.56,0,0,1,135.86,52.63Z"/></g></g><g id="Layer_2-2" data-name="Layer 2"><polygon class="cls-19" points="73.44 20.69 168.66 44.42 169.66 50.42 156.66 47.42 147.66 58.42 121.05 51.72 118.66 39.42 70.46 23.75 73.44 20.69"/><polyline class="cls-20" points="124.66 49.42 128.66 49.42 125.66 40.42 121.66 40.42"/></g></g></svg>