<svg xmlns="http://www.w3.org/2000/svg" viewBox="0 0 178.56 173.25"><style><![CDATA[.U{fill:#bfa700}.V{fill:#fffee9}.W{fill:none}.X{stroke:#ffe500}.Y{stroke-width:2}.Z{stroke-width:.25}.a{stroke-miterlimit:10}.b{stroke:#bfa700}.c{stroke:#fffee9}.d{fill:#2d1d1c}.e{fill:#231f20}]]></style><path d="M65 136.33a30.08 30.08 0 0 0 1 4.27s-2.61-1.18-3.45-3.25l-2 2.81-3.69 5.24s4.35 8.54 4.29 9.68c-3.57-.79-6.89 3-6.89 3 7 .69 4.67 12.71 0 11.39 3.32 7.64 7.27 3.13 7.6-9.83 1.52 1 6.79 8.46.62 9.83 5.69 10.33 11.86-2.85 3.44-10.42 4.37.31 11.11 5.57 5.89 10.42 1.9 5 5.62 2.37 6.17-1.37 1-6.81-5.47-11.37-11.76-12.91-.7-.18-4.14-7.95-4.14-7.95s5.13-3.66 6.2-5.26a1.15 1.15 0 0 0 .19-.36 24.72 24.72 0 0 1-3.47-5.29zm85.36 6.44c-1.78-2.51-4.39-2.52-7.11-.94-6 .23-15.31-.44-21 1.57a66.09 66.09 0 0 1-4.88-5.82l-4.25 1.84a4.85 4.85 0 0 0 .92-3 11.26 11.26 0 0 1-2.75 2.63l7.64 9.78a79.93 79.93 0 0 0 19.75-3.47c-2.62 2.78-6.56 10.36-2.88 13.63.61-9.91 6.23-12.88 8.82-13.63 3.09 2.91 3 13.18 3.18 16.67 4.42 0 3.33-11.06 2.19-15.66a4.31 4.31 0 0 1 1.66 1.43c1.65 2.3 2.62 7 2.49 10.22 5.23.04 1.94-15.08-3.78-15.25z" class="d"/><path d="M131.89 122.21S72 144.38 99.68 124.75c-5.66-1.5-22.11 6.72-9.22 7.12 2.41.07-10.27 4.77-18.24.1-9.18-5.36-15.53-8.33-8.64-2.42 10.32 8.85-4.85 2.52-10.28-1-12.81-8.36-7-1.75-4 1.77-10.06-6.37-10-9-14.18-17.75 0 0 .7 3.32 1.39 6-3.57-3.55-5.43-14.12-5.47-14a13.33 13.33 0 0 0-.92 3.46 58.16 58.16 0 0 1-1.68-4c26.76-13.65 53.33-2.84 37.73-20.15 8.26-3.5 35.6-16.24 28.76-28.82C99.46 65.71 68.64 74.57 60.53 78 74.09 93 49 90.15 23 98.91a42.14 42.14 0 0 0 1.75 8.6c0-2.85.6-3.69.6-3.69.05 1 .51 5.7 2.51 8a7.06 7.06 0 0 1 0-3.39s1.54 6.94 3.79 10.37a17.68 17.68 0 0 1 .6-3.86s.49 2.74 1.25 5.37c.35 1.56.69 3.6 1.88 5 .4.47.12-1.71.52-1.26 6.9 7.52 14.83 13.1 24.64 16.14l2-2.81c.84 2.07 3.45 3.25 3.45 3.25a30.08 30.08 0 0 1-1-4.27 24.72 24.72 0 0 0 3.44 5.27 1.15 1.15 0 0 1-.19.36 79.13 79.13 0 0 0 23.46-.09c0 .71-1.59 1.38-1.59 1.38 5.39 0 13.88-2.1 20-5.5a4.74 4.74 0 0 1-.68 2.54c.38-.12 3.79-2.41 4.58-3.83a4.85 4.85 0 0 1-.92 3s23.63-10 27.8-14.49a5.68 5.68 0 0 1-1.16 2.72 41.46 41.46 0 0 0 9.68-8s-29.41 11.04-17.52 2.49z" fill="#afbdc4"/><path d="M154 112.87c-.71.73-10.74 5-12.37 2.31s8.48-13 2.41-11.05-27 13.92-36.45 12.73-8.5-10.32-5.55-13.27c2.46-2.44-5.94 1.76-7.76.28s6.44-6 1.43-7-6.86-5.83 3.49-16.35c-6.1.69-4-4.89 7.91-15.47 8.28-7.32 2-8.94-.38-13.42 1.14 0 9.8 1.89 11.31 2-2.81-2.31-12.55-4.76-12.55-4.76 3.67.33 11 1.74 11 1.74-11.73-4.12-24.43-4.52-31.38-3.33 5.73 2.66 8.75 5.26 9.82 7.76 6.84 12.58-20.5 25.32-28.76 28.82 15.6 17.31-11 6.5-37.73 20.15.4 1 .95 2.4 1.68 4a13.33 13.33 0 0 1 .92-3.46c0-.07 1.9 10.5 5.47 14-.69-2.73-1.39-6-1.39-6 4.2 8.74 4.12 11.38 14.18 17.75-3-3.52-8.8-10.13 4-1.77 5.43 3.55 20.6 9.88 10.28 1-6.89-5.91-.54-2.94 8.64 2.42 8 4.67 20.65 0 18.24-.1-12.89-.4 3.56-8.62 9.22-7.12-27.65 19.63 32.21-2.54 32.21-2.54-11.94 8.55 17.58-2.52 17.58-2.52a.39.39 0 0 1-.08.11v.06l-.15.17-.07.08-.24.26-.09.09-.34.36-.08.07-.45.45-.07.07-.56.53h-.05l-.66.6h0l-.76.67h0s6.81-4.84 9.55-8.18c-.92.99-.69-2.87-1.42-2.14z" fill="#eeeae8"/><path d="M31.65 118.78c-2.25-3.43-3.79-10.37-3.79-10.37a7.06 7.06 0 0 0 0 3.39c-2.24-2.55-2.51-8-2.51-8s-.6.84-.6 3.69A41.54 41.54 0 0 1 23 98.9 73.88 73.88 0 0 0 .47 110.64c.44 1.65 14.55-.43 19.31-1.22C4.79 118.27 6 123 10.47 121.14c-30.4 38 19.79 1.2 23-.85-.76-2.63-1.25-5.37-1.25-5.37a17.68 17.68 0 0 0-.57 3.86z" class="d"/><path d="M171.25 88c-.23-4.25-.51-8.38-3.86-18.29l-.73-3.32c-.87-4.84-.36-12.26.16-17.29l1.18 1.32c0-3 .13-3.85 2.3-5.36a3.48 3.48 0 0 0-3.18 1.39l.38-2.81c-16.6-.21-19.85-9.44-25.34-12.23-.66-.34 1.53 1.49 2.27 3.68-3.35-3.6-9.33-6.13-18-3.74-1.14.32 4.23.62 3.24.85-5.34 1.23-11.52 6.23-11.07 16.13 0 .76 1.77-5.37 1.66-4.66-.68 4.5 1.61 8.73 2.31 9.85-4.79-1.78-8.42-6.65-8.42-6.65a6.16 6.16 0 0 0 2.3 3.76s-7.31-1.41-11-1.74c0 0 9.74 2.45 12.55 4.76-1.51-.1-10.17-2-11.31-2 2.38 4.48 8.66 6.1.38 13.42-12 10.58-14 16.16-7.91 15.47-10.3 10.53-8.46 15.35-3.44 16.36s-3.24 5.49-1.43 7 10.22-2.72 7.76-.28c-3 3-3.88 12.09 5.55 13.27s30.38-10.77 36.45-12.73-4.05 8.4-2.41 11.05 11.66-1.58 12.37-2.31.49 3.08 1.34 2.25c11.37-13.06 14-24.4 13.81-33.22l2.09 6.07z" fill="#e45325"/><path d="M97.63 102.28c9.13-.94 18.75-5.44 23.76-13.79-8.14 6.51-16.55 9.85-23.76 13.79zm33.53 5.49c6.7-1.75 15.07-5.22 18.31-11.78-6.93 5.49-12.4 9.06-18.31 11.78zm23 3.62c4.06-3.39 6.72-9 6.84-12.94-2.6 5.33-2.93 5.55-6.89 12.94zm1.15-14.92c3.42-4 5.09-10 4.54-13.91-1.66 5.68-1.95 5.93-4.59 13.91zm-46 16.6a25.22 25.22 0 0 0 12.16-4.86 69.31 69.31 0 0 0-12.26 4.86zM126 96.5c3.82-1.57 12.31-8 14.35-13.46-4.91 5.84-12.64 11.71-14.35 13.46zM99.68 81.24a27.3 27.3 0 0 0 15.61-10.36c-6.51 5.58-13.58 8.94-15.61 10.36zm30-42.93c10-10 24.85 5.52 13.81 14.16 5.59-8.76-4.26-19.94-13.79-14.16z" fill="#bd3926"/><ellipse cx="102.93" cy="71.21" rx="3.87" ry="8.66" transform="matrix(.407534 -.91319 .91319 .407534 -4.05 136.17)" class="W X Y"/><path d="M98.93 66.36s1.17-1.48 6.25.59c0 0 4.06 2.3 4.15 3.61.1 1.59-2.74-4.74-10.4-4.2z" class="V"/><path d="M107.52 75.62s-1.2 1.75-6.36-.12c0 0-4.14-2-4.46-3.3s2.98 4.71 10.82 3.42z" class="U"/><ellipse cx="117.74" cy="78.49" rx="3.87" ry="8.66" transform="matrix(.398429 -.917199 .917199 .398429 -1.16 155.21)" class="W X Y"/><path d="M113.7 73.68s1.15-1.49 6.25.53c0 0 4.08 2.26 4.18 3.56.13 1.59-2.77-4.71-10.43-4.09z" class="V"/><path d="M122.38 82.86s-1.19 1.75-6.36-.06c0 0-4.16-2-4.49-3.25s3.02 4.67 10.85 3.31z" class="U"/><ellipse cx="137.19" cy="90.27" rx="3.87" ry="8.66" transform="matrix(.52 -.85 .85 .52 -11.49 160.01)" class="W X Y"/><path d="M133.86 84.94s1.35-1.31 6.12 1.41c0 0 3.72 2.81 3.64 4.11-.1 1.59-2.09-5.05-9.76-5.52z" class="V"/><path d="M141.16 95.25s-1.41 1.57-6.28-1c0 0-3.84-2.55-4-3.85s2.35 5.1 10.28 4.85z" class="U"/><path d="M149.66 95.32c2 3-2.71 6.53-5 5-2.8-1.87-3-2-4.63-4.44a3.74 3.74 0 0 1 5.23-5.16 12.22 12.22 0 0 1 4.4 4.6z" class="W X Y a"/><path d="M142.66 89.36s1.62-1 5.61 2.79h0c.09.1 3 3.61 2.58 4.84-.45 1.54-.85-5.39-8.19-7.63z" class="V"/><path d="M147.36 101.09s-1.74 1.19-5.88-2.39h0c-.08-.09-3.14-3.39-3-4.67s1.1 5.45 8.88 7.06z" class="U"/><path d="M101.69 65.77c2 3-2.7 6.54-5 5-2.79-1.86-3-2-4.62-4.43a3.74 3.74 0 0 1 5.22-5.16 12.12 12.12 0 0 1 4.4 4.59z" class="W X Y a"/><path d="M94.7 59.82s1.62-1 5.61 2.78h0c.08.1 3 3.61 2.58 4.85-.46 1.55-.84-5.4-8.19-7.63z" class="V"/><path d="M99.4 71.54s-1.74 1.19-5.89-2.38h0c-.08-.08-3.14-3.39-3-4.67s1.11 5.45 8.89 7.05z" class="U"/><ellipse cx="110.14" cy="75.24" rx="3.87" ry="8.66" transform="matrix(.475778 -.879566 .879566 .475778 -8.44 136.32)" class="W X Y"/><path d="M106.52 70.1s1.28-1.38 6.19 1.07c0 0 3.87 2.6 3.86 3.91-.02 1.59-2.37-4.93-10.05-4.98z" class="V"/><path d="M114.38 80s-1.33 1.65-6.33-.6c0 0-4-2.34-4.2-3.63s2.61 4.91 10.53 4.23z" class="U"/><path d="M152,106c.08,3.61-5.78,4.06-6.9,1.54-1.36-3.08-1.45-3.28-1.52-6.22a3.74,3.74,0,0,1,7.17-1.56A12.12,12.12,0,0,1,152,106Z" class="W X Y a"/><path d="M149.3 97.26s1.88.06 3.25 5.36h0c0 .13.56 4.64-.42 5.48-1.21 1.04 2.17-5.01-2.83-10.84z" class="V"/><path d="M147 109.68s-2.12.07-3.7-5.17h0c0-.11-.83-4.54 0-5.54s-2.02 5.18 3.7 10.71z" class="U"/><ellipse cx="126.3" cy="79.01" rx="3.87" ry="8.66" transform="matrix(.398429 -.917199 .917199 .398429 3.51 163.38)" class="W X Y"/><path d="M122.25 74.2s1.16-1.48 6.26.54c0 0 4.08 2.26 4.18 3.56.13 1.59-2.78-4.71-10.44-4.1z" class="V"/><path d="M130.93 83.38s-1.18 1.76-6.36-.06c0 0-4.15-2-4.49-3.25s3.03 4.68 10.85 3.31z" class="U"/><ellipse cx="132.08" cy="85.48" rx="3.87" ry="8.66" transform="matrix(.398429 -.917199 .917199 .398429 1.05 172.57)" class="W X Y"/><path d="M128 80.68s1.15-1.49 6.25.53c0 0 4.08 2.26 4.18 3.56.17 1.59-2.73-4.71-10.43-4.09z" class="V"/><path d="M136.72 89.85s-1.19 1.76-6.36 0c0 0-4.16-2-4.49-3.26s3.02 4.63 10.85 3.26z" class="U"/><path d="M158.59 110.67c-2.86 2.19-6.69-2.27-5.31-4.67 1.68-2.91 1.79-3.11 4.12-4.9a3.75 3.75 0 0 1 5.5 4.88 12.22 12.22 0 0 1-4.31 4.69z" class="W X Y a"/><path d="M164.08 103.3s1.07 1.55-2.41 5.78h0c-.09.09-3.41 3.19-4.66 2.89-1.57-.35 5.32-1.19 7.07-8.67z" class="V"/><path d="M152.69 108.76s-1.3-1.66 2-6h0c.08-.09 3.18-3.35 4.47-3.28s-5.38 1.41-6.47 9.28z" class="U"/><text transform="matrix(1.01 0 0 1 142.89 126.94)" font-size="28.26" fill="#ffe500" font-family="ArialMT,Arial">₿</text><g class="a"><g stroke-width=".5"><path d="M145.58 107.05v19.59" class="U b"/><path d="M146.78 107.45s13.22-1.92 11.85 5.55m-2.54 3.68a4.32 4.32 0 0 1 3.48 4.56" class="W c"/></g><path d="M154.27 104.41v2.25m-4.93-2.25v2.25" class="V Z c"/><path d="M148.1 104.41v2.25m5.02-2.25v2.25" class="U b Z"/><path d="M154.27 127.06v2.25" class="V Z c"/><path d="M153.12 127.06v2.25" class="U Z b"/><path d="M149.27 127.06v2.25" class="V Z c"/><g class="b"><path d="M148.13 127.06v2.25" class="U Z"/><g class="W"><path d="M145.58,126.64c.69-.5,13.06,1.18,13.06-2.69" class="Z"/><path d="M147.62 109.29v5.91s8.81 1 9.06-2.27m-9.06 4.59v7.27c.69-.5 9 .94 9.57-2.1" stroke-width=".5"/></g></g><path d="M161.37 105.43c-2.24 1.89-5.23-2-4.15-4 1.31-2.51 1.4-2.68 3.22-4.23 2.55-2.17 5.92 1.15 4.29 4.21a10.19 10.19 0 0 1-3.36 4.02z" class="W X Y"/></g><path d="M165.66 99.06s.83 1.35-1.89 5h0c-.08.08-2.67 2.75-3.65 2.49-1.21-.3 4.17-1.03 5.54-7.49z" class="V"/><path d="M156.76 103.78s-1-1.44 1.56-5.21h0c.06-.07 2.49-2.89 3.49-2.83s-4.2 1.26-5.05 8.04z" class="U"/><path d="M164.69 98.64c-.84 1.7-2.75-.58-2.49-2.22a8.7 8.7 0 0 1 1-3.52c.95-2 3-.12 2.57 2.32a8.84 8.84 0 0 1-1.08 3.42z" class="W X Y a"/><path d="M166 93.43s.56.82-.28 3.85h0c0 .07-.93 2.38-1.43 2.35s1.8-1.39 1.71-6.2z" class="V"/><path d="M162.28 98.19s-.67-.86.1-4h0c0-.07.83-2.46 1.32-2.57s-1.86 1.59-1.42 6.57z" class="U"/><path d="M114.18 46.87s3.63 4.87 8.42 6.65c-.7-1.12-3-5.35-2.31-9.85.11-.71-1.63 5.42-1.66 4.66-.45-9.9 5.73-14.9 11.07-16.13 1-.23-4.38-.53-3.24-.85 8.64-2.39 14.62.14 18 3.74-.74-2.19-2.93-4-2.27-3.68 5.49 2.79 8.74 12 25.34 12.23 1.67-2.38 2.05-8.38 2.1-9.18s-1.77 5.33-1.79 4.59c-.16-10.93-6.33-21.22-6.33-21.22a35.38 35.38 0 0 1 .81 5.39C145.09-3.7 90.59-17.94 55.48 41.88c-6.72 3.06-18.43 7.28-21.37 18.61C22.67 67.27 9.86 79.29 14.27 85c-5.45 4.22-5.5 9.11-5.5 9.11-3.43 3.57-10.67 14.72-8.3 16.53C30.53 86.8 78.13 97.53 60.53 78c10-4.24 54.68-16.75 24.57-30.7 7-1.19 19.65-.79 31.38 3.33a6.16 6.16 0 0 1-2.3-3.76z" fill="#4e342e"/><path d="M163.48 23.21c.74 1.61 3.48 9.29 3.22 12.57-1-2.29-10.35-17.54-13.92-20.24 2.7 1.27 7.63 6.25 10.87 11.4a30.31 30.31 0 0 1-.17-3.73zm-20.19-4.67a40.92 40.92 0 0 0-37.79-9.08c20.99-1.38 32.09 6.17 37.79 9.08zm-2.16 11c-7.31-4.9-12.64-3.16-15.75-1.41a27.2 27.2 0 0 1 15.75 1.39zm6.68-18.46A43.51 43.51 0 0 0 126 2c3 1.56 13.23 4.88 21.81 9.06zM87.44 51.94c2.38 2 6 8.55-53.33 31.94 54.61-17.34 63.16-26.66 53.33-31.94zM15.38 80.68c2.66-3 18.44-8.56 31.89-7.47-13.65-3.42-28.04-.4-31.89 7.47zm20.82-23.4c5.4-3.63 19.28-2.58 27.06-4.16C55 49.17 41.2 47.51 36.2 57.28zm-33.57 49c2.65-3 36.77-16.67 50.23-15.57C39.2 87.3 6.48 98.43 2.63 106.29z" fill="#63463d"/><path d="M49.29 73.76c-12.2 3-29.31 8.4-35 11.25 1.71-7.12 15.16-9.37 35-11.25zM34.11 60.49c5.71-2.85 12.61-2.1 24.81-5.11-19.84 1.88-21.69.42-24.81 5.11zm21.37-18.61c5.86-1.55 15.6 1.22 22.49 2.57-8.4-4.04-19.38-7.26-22.49-2.57zM17 91.07C44.26 85.17 51 83 62.19 80c-.48-.63-1-1.3-1.66-2C57 78.7 44 83.72 17 91.07z" class="d"/><path d="M136.11 55.84l-.68.07-.8.07c-.35 0-.69 0-1.1-.08a8.78 8.78 0 0 1-5.53-3.06 8.94 8.94 0 0 1-2.11-5.94 7.81 7.81 0 0 1 .26-1.88l.19-.66v.68a11.48 11.48 0 0 0 .27 1.79 11.85 11.85 0 0 0 2.53 5 11.64 11.64 0 0 0 4.54 3.29l.95.34.78.18zm29.41 35.71c3.65-6.22 3-16.9-1-21.88 2.09 3.02 2.93 19.33 1 21.88z" fill="#f27021"/><path d="M152.68 54.57c2.06 2.08 23.4 8.42 25.36 9.2S176.43 53.38 167 48.59c-2.17-1.11-16.4 3.88-14.32 5.98z" class="e"/><path d="M174.85 57.93c-2.82-4.24-6.94-6.68-9.56-7.13 1.33 1.2 5.81 3.85 9.56 7.13z" fill="#fff"/><ellipse cx="135.97" cy="45.86" rx="8.08" ry="8" transform="matrix(.151261 -.988494 .988494 .151261 70.06 173.32)" class="e"/><path d="M140.11 45a6 6 0 0 0-2.63-2.28 6.9 6.9 0 0 0-1.95-.63 1.93 1.93 0 0 1 .15-.52c.57-1.15 2.21-1.51 3.69-.79s2.2 2.23 1.64 3.39a1.91 1.91 0 0 1-.9.83zm-4.25 7.61a7 7 0 0 1-6-7.8 6 6 0 0 0 4.95 8 6.35 6.35 0 0 0 2.58-.15 7.56 7.56 0 0 1-1.53-.03z" fill="#fff"/><path d="M73.44 20.69l95.22 23.73 1 6-13-3-9 11-26.61-6.7-2.39-12.3-48.2-15.67 2.98-3.06z" class="e"/><path d="M124.66 49.42h4l-3-9h-4" fill="#fff"/></svg>
