<svg width="376" height="365" viewBox="0 0 376 365" fill="none" xmlns="http://www.w3.org/2000/svg">
  <g clip-path="url(#clip0)">
    <path d="M136.8 286.923C137.282 289.966 137.986 292.97 138.905 295.91C138.905 295.91 133.412 293.427 131.644 289.07L127.435 294.984L119.669 306.012C119.669 306.012 128.824 323.986 128.698 326.385C121.184 324.722 114.197 332.699 114.197 332.699C128.929 334.151 124.025 359.449 114.197 356.671C121.184 372.75 129.497 363.258 130.192 335.982C133.391 338.087 144.482 353.787 131.497 356.671C143.472 378.411 156.458 350.672 138.737 334.74C147.934 335.393 162.119 346.463 151.133 356.671C155.132 367.194 162.961 361.659 164.118 353.787C166.223 339.455 152.606 329.858 139.368 326.617C137.895 326.238 130.655 309.885 130.655 309.885C130.655 309.885 141.452 302.182 143.704 298.814C143.881 298.588 144.016 298.331 144.103 298.057C141.202 294.674 138.748 290.932 136.8 286.923Z" fill="#2D1D1C"/>
    <path d="M316.451 300.478C312.705 295.196 307.212 295.174 301.487 298.5C288.86 298.984 269.266 297.574 257.29 301.804C253.635 297.921 250.206 293.832 247.02 289.555C241.653 291.912 238.075 293.428 238.075 293.428C239.402 291.596 240.083 289.375 240.011 287.114C238.41 289.274 236.453 291.146 234.224 292.649L250.303 313.232C264.41 312.552 278.375 310.099 291.869 305.929C286.355 311.78 278.063 327.733 285.808 334.615C287.092 313.758 298.92 307.508 304.371 305.929C310.874 312.054 310.685 333.668 311.063 341.013C320.366 341.013 318.072 317.736 315.673 308.055C317.077 308.74 318.28 309.777 319.166 311.064C322.639 315.905 324.68 325.797 324.407 332.574C335.414 332.658 328.49 300.836 316.451 300.478Z" fill="#2D1D1C"/>
    <path d="M277.579 257.206C277.579 257.206 151.533 303.866 209.789 262.552C197.877 259.395 163.256 276.695 190.384 277.537C195.456 277.684 168.77 287.576 151.996 277.747C132.675 266.467 119.311 260.216 133.812 272.654C155.532 291.28 123.604 277.958 112.176 270.55C85.2161 252.955 97.444 266.867 103.758 274.275C82.5853 260.868 82.7116 255.333 73.9143 236.918C73.9143 236.918 75.3875 243.905 76.8397 249.546C69.3262 242.074 65.4116 219.828 65.3274 220.081C64.3575 222.41 63.7062 224.859 63.3912 227.363C61.8548 224.059 60.6973 221.175 59.8554 218.944C116.175 190.216 172.095 212.967 139.263 176.536C156.647 169.17 214.187 142.357 199.792 115.881C209.326 138.295 144.461 156.942 127.393 164.161C155.931 195.73 103.126 189.732 48.4062 208.169C49.0006 214.314 50.235 220.38 52.0893 226.268C52.0893 220.27 53.3521 218.502 53.3521 218.502C53.4573 220.607 54.4255 230.499 58.6347 235.339C58.0553 232.996 58.0553 230.548 58.6347 228.205C58.6347 228.205 61.8758 242.811 66.6112 250.03C66.7308 247.283 67.1543 244.559 67.874 241.906C67.874 241.906 68.9053 247.672 70.5048 253.208C71.2414 256.491 71.957 260.784 74.4615 263.731C75.3033 264.72 74.714 260.132 75.5559 261.079C90.0778 276.906 106.767 288.649 127.414 295.047L131.623 289.133C133.391 293.49 138.884 295.974 138.884 295.974C137.965 293.033 137.261 290.03 136.779 286.987C138.71 290.977 141.143 294.705 144.019 298.078C143.932 298.352 143.797 298.609 143.619 298.836C159.996 301.226 176.637 301.162 192.994 298.646C192.994 300.141 189.648 301.551 189.648 301.551C200.991 301.551 218.86 297.131 231.74 289.975C231.777 291.857 231.28 293.71 230.309 295.321C231.109 295.069 238.285 290.249 239.948 287.26C240.02 289.521 239.339 291.742 238.012 293.574C238.012 293.574 287.744 272.528 296.52 263.078C296.226 265.169 295.384 267.144 294.079 268.803C301.685 264.257 308.555 258.58 314.452 251.966C314.452 251.966 252.555 275.201 277.579 257.206Z" fill="#AFBDC4"/>
    <path d="M324.112 237.549C322.617 239.085 301.508 248.072 298.078 242.411C294.647 236.749 315.925 215.051 303.15 219.155C290.375 223.259 246.325 248.451 226.436 245.946C206.547 243.442 208.547 224.227 214.756 218.018C219.933 212.883 202.254 221.722 198.424 218.607C194.593 215.493 211.977 205.98 201.433 203.875C190.889 201.77 186.996 191.605 208.778 169.464C195.94 170.917 200.36 159.173 225.426 136.906C242.852 121.5 229.635 118.091 224.626 108.662C227.025 108.662 245.252 112.64 248.429 112.871C242.516 108.009 222.016 102.853 222.016 102.853C229.74 103.548 245.167 106.515 245.167 106.515C220.48 97.8441 193.751 97.0023 179.124 99.5068C191.184 105.105 197.54 110.577 199.792 115.839C214.187 142.315 156.647 169.128 139.263 176.494C172.095 212.925 116.112 190.174 59.8552 218.902C60.6971 221.007 61.8546 223.953 63.391 227.321C63.706 224.817 64.3573 222.368 65.3272 220.039C65.3272 219.891 69.326 242.137 76.8395 249.503C75.3873 243.758 73.9141 236.876 73.9141 236.876C82.7535 255.27 82.5852 260.826 103.758 274.233C97.4438 266.824 85.237 252.913 112.176 270.507C123.604 277.979 155.531 291.301 133.812 272.612C119.311 260.174 132.675 266.424 151.996 277.705C168.833 287.534 195.456 277.705 190.384 277.495C163.255 276.653 197.876 259.353 209.789 262.51C151.596 303.824 277.579 257.164 277.579 257.164C252.449 275.159 314.578 251.86 314.578 251.86C314.536 251.947 314.479 252.025 314.409 252.092V252.218L314.094 252.576L313.946 252.744L313.441 253.292L313.252 253.481L312.536 254.239L312.368 254.386L311.421 255.333L311.274 255.48L310.095 256.596H309.99L308.601 257.859L307.001 259.269C307.001 259.269 321.334 249.082 327.1 242.053C325.164 244.137 325.648 236.013 324.112 237.549Z" fill="#EEEAE8"/>
    <path d="M66.6112 249.988C61.8758 242.769 58.6346 228.163 58.6346 228.163C58.0552 230.506 58.0552 232.955 58.6346 235.298C53.9203 229.931 53.352 218.461 53.352 218.461C53.352 218.461 52.0893 220.228 52.0893 226.227C50.2274 220.347 48.9928 214.287 48.4062 208.148C31.2923 213.584 15.2495 221.944 0.989014 232.856C1.91505 236.329 31.6113 231.951 41.6293 230.289C10.081 248.915 12.6276 258.869 22.0352 254.955C-41.9453 334.93 63.6857 257.48 70.4416 253.166C68.8421 247.631 67.8108 241.864 67.8108 241.864C67.1124 244.519 66.7101 247.244 66.6112 249.988Z" fill="#2D1D1C"/>
    <path d="M360.417 185.207C359.932 176.263 359.343 167.571 352.293 146.714C351.682 144.104 351.135 141.768 350.756 139.727C348.925 129.54 349.999 113.924 351.093 103.338L353.577 106.116C353.577 99.8018 353.85 98.0129 358.417 94.8349C357.143 94.6943 355.855 94.8905 354.68 95.4038C353.506 95.9172 352.486 96.7298 351.724 97.7604C352.166 94.1194 352.524 91.8464 352.524 91.8464C317.587 91.4044 310.747 71.9787 299.193 66.1068C297.804 65.3913 302.413 69.2427 303.971 73.8518C296.92 66.2752 284.334 60.9505 266.087 65.9806C263.688 66.654 274.99 67.2854 272.906 67.7695C261.668 70.3582 248.661 80.8813 249.608 101.717C249.608 103.317 253.333 90.4152 253.102 91.9095C251.671 101.38 256.49 110.283 257.964 112.64C247.882 108.894 240.243 98.6443 240.243 98.6443C240.825 101.789 242.549 104.607 245.083 106.558C245.083 106.558 229.698 103.59 221.932 102.896C221.932 102.896 242.431 108.052 248.345 112.914C245.167 112.703 226.941 108.704 224.542 108.704C229.551 118.133 242.768 121.543 225.342 136.948C200.086 159.215 195.877 170.959 208.694 169.507C187.017 191.669 190.889 201.813 201.454 203.939C212.02 206.064 194.635 215.493 198.445 218.671C202.254 221.849 219.954 212.946 214.777 218.082C208.463 224.396 206.611 243.527 226.457 246.01C246.304 248.493 290.396 223.343 303.171 219.218C315.946 215.093 294.647 236.897 298.099 242.474C301.55 248.052 322.639 239.149 324.133 237.613C325.627 236.076 325.164 244.095 326.953 242.348C350.883 214.862 356.418 190.995 356.018 172.432C357.554 176.789 359.617 182.766 360.417 185.207Z" fill="#E45325"/>
    <path d="M205.474 215.261C224.689 213.283 244.936 203.812 255.48 186.239C238.348 199.94 220.648 206.969 205.474 215.261ZM276.042 226.816C290.143 223.133 307.759 215.83 314.578 202.023C299.993 213.578 288.48 221.091 276.042 226.816ZM324.449 234.435C332.993 227.3 338.592 215.493 338.844 207.201C333.372 218.418 332.678 218.881 324.343 234.435H324.449ZM326.869 203.034C334.067 194.615 337.581 181.987 336.424 173.758C332.93 185.712 332.32 186.239 326.764 203.034H326.869ZM230.056 237.97C239.339 236.874 248.167 233.345 255.648 227.742C246.742 230.323 238.102 233.748 229.846 237.97H230.056ZM265.182 203.097C273.222 199.792 291.09 186.26 295.384 174.768C285.05 187.059 268.781 199.414 265.182 203.097ZM209.789 170.98C222.969 167.815 234.606 160.092 242.642 149.176C228.941 160.92 214.061 167.992 209.789 170.98ZM272.927 80.6286C293.974 59.5824 325.227 92.2461 301.992 110.43C313.757 91.9936 293.026 68.4639 272.969 80.6286H272.927Z" fill="#BD3926"/>
    <path d="M233.263 157.268C235.096 153.16 229.131 146.505 219.939 142.403C210.747 138.3 201.809 138.305 199.976 142.413C198.142 146.521 204.108 153.176 213.3 157.278C222.492 161.381 231.43 161.376 233.263 157.268Z" stroke="#FFE500" stroke-width="4.20925" stroke-miterlimit="10"/>
    <path d="M208.21 139.663C208.21 139.663 210.673 136.548 221.364 140.905C221.364 140.905 229.909 145.745 230.098 148.503C230.309 151.849 224.332 138.527 208.21 139.663Z" fill="#FFFEE9"/>
    <path d="M226.289 159.152C226.289 159.152 223.763 162.835 212.903 158.899C212.903 158.899 204.19 154.69 203.517 151.954C202.843 149.218 209.788 161.867 226.289 159.152Z" fill="#BFA700"/>
    <path d="M264.519 172.457C266.312 168.332 260.28 161.736 251.048 157.725C241.815 153.715 232.878 153.808 231.085 157.934C229.293 162.06 235.325 168.656 244.557 172.666C253.79 176.677 262.727 176.583 264.519 172.457Z" stroke="#FFE500" stroke-width="4.20925" stroke-miterlimit="10"/>
    <path d="M239.296 155.069C239.296 155.069 241.716 151.933 252.45 156.184C252.45 156.184 261.036 160.941 261.247 163.677C261.52 167.023 255.417 153.764 239.296 155.069Z" fill="#FFFEE9"/>
    <path d="M257.564 174.389C257.564 174.389 255.059 178.072 244.178 174.263C244.178 174.263 235.423 170.054 234.728 167.423C234.034 164.792 241.084 177.252 257.564 174.389Z" fill="#BFA700"/>
    <path d="M302.937 199.608C305.276 195.784 300.237 188.441 291.681 183.207C283.125 177.973 274.292 176.829 271.953 180.653C269.614 184.476 274.654 191.819 283.21 197.053C291.766 202.288 300.598 203.431 302.937 199.608Z" stroke="#FFE500" stroke-width="4.19428" stroke-miterlimit="10"/>
    <path d="M281.725 178.768C281.725 178.768 284.566 176.011 294.605 181.735C294.605 181.735 302.434 187.649 302.266 190.385C302.055 193.732 297.867 179.757 281.725 178.768Z" fill="#FFFEE9"/>
    <path d="M297.089 200.465C297.089 200.465 294.121 203.769 283.872 198.361C283.872 198.361 275.79 192.994 275.453 190.258C275.117 187.522 280.399 200.991 297.089 200.465Z" fill="#BFA700"/>
    <path d="M314.978 200.613C319.187 206.927 309.274 214.356 304.454 211.136C298.561 207.201 298.141 206.927 294.71 201.792C293.692 200.27 293.235 198.441 293.42 196.619C293.605 194.797 294.42 193.097 295.723 191.811C297.027 190.524 298.738 189.733 300.562 189.573C302.386 189.412 304.209 189.893 305.717 190.932C309.605 193.284 312.8 196.625 314.978 200.613V200.613Z" stroke="#FFE500" stroke-width="4.20925" stroke-miterlimit="10"/>
    <path d="M300.246 188.069C300.246 188.069 303.655 185.964 312.053 193.941C312.242 194.151 318.366 201.539 317.482 204.127C316.535 207.368 315.694 192.783 300.246 188.069Z" fill="#FFFEE9"/>
    <path d="M310.137 212.756C310.137 212.756 306.475 215.261 297.761 207.726C297.593 207.537 291.153 200.592 291.448 197.898C291.742 195.204 293.763 209.368 310.137 212.756Z" fill="#BFA700"/>
    <path d="M214.019 138.422C218.228 144.735 208.337 152.186 203.496 148.945C197.624 145.03 197.182 144.735 193.773 139.621C192.764 138.101 192.315 136.278 192.502 134.463C192.689 132.648 193.501 130.954 194.798 129.672C196.096 128.389 197.798 127.597 199.615 127.431C201.432 127.265 203.25 127.735 204.759 128.761C208.65 131.1 211.847 134.435 214.019 138.422V138.422Z" stroke="#FFE500" stroke-width="4.20925" stroke-miterlimit="10"/>
    <path d="M199.308 125.899C199.308 125.899 202.717 123.795 211.115 131.75C211.283 131.961 217.428 139.348 216.544 141.958C215.576 145.22 214.777 130.593 199.308 125.899Z" fill="#FFFEE9"/>
    <path d="M209.2 150.565C209.2 150.565 205.538 153.069 196.803 145.556C196.635 145.387 190.195 138.421 190.49 135.727C190.784 133.033 192.826 147.197 209.2 150.565Z" fill="#BFA700"/>
    <path d="M247.836 167.028C249.976 163.071 244.533 155.981 235.68 151.192C226.826 146.403 217.914 145.728 215.774 149.685C213.633 153.641 219.076 160.731 227.929 165.52C236.783 170.309 245.695 170.984 247.836 167.028Z" stroke="#FFE500" stroke-width="4.20925" stroke-miterlimit="10"/>
    <path d="M224.184 147.534C224.184 147.534 226.878 144.63 237.212 149.786C237.212 149.786 245.357 155.258 245.336 158.015C245.294 161.362 240.348 147.64 224.184 147.534Z" fill="#FFFEE9"/>
    <path d="M240.727 168.371C240.727 168.371 237.928 171.844 227.404 167.108C227.404 167.108 218.986 162.184 218.565 159.469C218.144 156.754 224.058 169.802 240.727 168.371Z" fill="#BFA700"/>
    <path d="M319.902 223.091C320.071 230.689 307.738 231.636 305.38 226.332C302.518 219.85 302.329 219.429 302.181 213.242C302.147 211.42 302.746 209.642 303.876 208.212C305.006 206.782 306.597 205.789 308.378 205.402C310.159 205.014 312.019 205.257 313.641 206.088C315.262 206.919 316.546 208.287 317.271 209.958C319.303 214.024 320.211 218.558 319.902 223.091V223.091Z" stroke="#FFE500" stroke-width="4.20925" stroke-miterlimit="10"/>
    <path d="M314.22 204.696C314.22 204.696 318.176 204.823 321.06 215.977C321.06 216.251 322.238 225.743 320.176 227.51C317.629 229.699 324.743 216.966 314.22 204.696Z" fill="#FFFEE9"/>
    <path d="M309.38 230.835C309.38 230.835 304.918 230.982 301.593 219.954C301.593 219.723 299.846 210.399 301.593 208.295C303.339 206.19 297.341 219.197 309.38 230.835Z" fill="#BFA700"/>
    <path d="M282.529 173.565C284.322 169.439 278.29 162.843 269.058 158.833C259.825 154.822 250.888 154.915 249.096 159.041C247.303 163.167 253.335 169.763 262.567 173.774C271.8 177.784 280.737 177.691 282.529 173.565Z" stroke="#FFE500" stroke-width="4.20925" stroke-miterlimit="10"/>
    <path d="M257.29 156.163C257.29 156.163 259.731 153.049 270.465 157.3C270.465 157.3 279.052 162.056 279.262 164.792C279.536 168.139 273.411 154.88 257.29 156.163Z" fill="#FFFEE9"/>
    <path d="M275.558 175.484C275.558 175.484 273.075 179.188 262.173 175.358C262.173 175.358 253.438 171.148 252.723 168.518C252.007 165.887 259.1 178.367 275.558 175.484Z" fill="#BFA700"/>
    <path d="M294.688 187.174C296.481 183.048 290.449 176.452 281.217 172.442C271.984 168.431 263.047 168.525 261.255 172.651C259.462 176.776 265.494 183.372 274.726 187.383C283.959 191.393 292.896 191.3 294.688 187.174Z" stroke="#FFE500" stroke-width="4.20925" stroke-miterlimit="10"/>
    <path d="M269.392 169.801C269.392 169.801 271.812 166.666 282.545 170.917C282.545 170.917 291.132 175.673 291.343 178.409C291.701 181.756 285.597 168.497 269.392 169.801Z" fill="#FFFEE9"/>
    <path d="M287.744 189.1C287.744 189.1 285.239 192.805 274.358 189.1C274.358 189.1 265.603 184.891 264.908 182.239C264.214 179.588 271.264 191.984 287.744 189.1Z" fill="#BFA700"/>
    <path d="M333.772 232.919C327.752 237.528 319.692 228.142 322.596 223.091C326.132 216.966 326.363 216.545 331.267 212.778C332.722 211.679 334.513 211.119 336.334 211.191C338.156 211.263 339.897 211.963 341.26 213.173C342.624 214.383 343.527 216.028 343.815 217.828C344.104 219.629 343.76 221.473 342.843 223.049C340.745 227.083 337.615 230.489 333.772 232.919V232.919Z" stroke="#FFE500" stroke-width="4.20925" stroke-miterlimit="10"/>
    <path d="M345.327 217.408C345.327 217.408 347.579 220.67 340.255 229.573C340.065 229.762 333.078 236.287 330.447 235.655C327.143 234.919 341.644 233.151 345.327 217.408Z" fill="#FFFEE9"/>
    <path d="M321.355 228.899C321.355 228.899 318.619 225.405 325.564 216.271C325.732 216.082 332.257 209.221 334.971 209.368C337.686 209.515 323.649 212.336 321.355 228.899Z" fill="#BFA700"/>
    <path d="M306.391 225.301V266.53" stroke="#BFA700" stroke-width="1.05231" stroke-miterlimit="10"/>
    <path d="M308.916 226.143C308.916 226.143 336.739 222.102 333.856 237.823" stroke="#FFFEE9" stroke-width="1.05231" stroke-miterlimit="10"/>
    <path d="M328.51 245.567C330.694 245.994 332.645 247.206 333.995 248.975C335.345 250.744 335.999 252.946 335.834 255.164" stroke="#FFFEE9" stroke-width="1.05231" stroke-miterlimit="10"/>
    <path d="M324.68 219.744V224.48" stroke="#FFFEE9" stroke-width="0.526156" stroke-miterlimit="10"/>
    <path d="M314.304 219.744V224.48" stroke="#FFFEE9" stroke-width="0.526156" stroke-miterlimit="10"/>
    <path d="M311.695 219.744V224.48" stroke="#BFA700" stroke-width="0.526156" stroke-miterlimit="10"/>
    <path d="M322.26 219.744V224.48" stroke="#BFA700" stroke-width="0.526156" stroke-miterlimit="10"/>
    <path d="M324.68 267.414V272.149" stroke="#FFFEE9" stroke-width="0.526156" stroke-miterlimit="10"/>
    <path d="M322.26 267.414V272.149" stroke="#BFA700" stroke-width="0.526156" stroke-miterlimit="10"/>
    <path d="M314.157 267.414V272.149" stroke="#FFFEE9" stroke-width="0.526156" stroke-miterlimit="10"/>
    <path d="M311.758 267.414V272.149" stroke="#BFA700" stroke-width="0.526156" stroke-miterlimit="10"/>
    <path d="M306.391 266.53C307.843 265.478 333.877 269.014 333.877 260.869" stroke="#BFA700" stroke-width="0.526156" stroke-miterlimit="10"/>
    <path d="M310.685 230.015V242.453C310.685 242.453 329.227 244.558 329.753 237.675" stroke="#BFA700" stroke-width="1.05231" stroke-miterlimit="10"/>
    <path d="M310.685 247.335V262.636C312.137 261.584 329.626 264.614 330.826 258.216" stroke="#BFA700" stroke-width="1.05231" stroke-miterlimit="10"/>
    <path d="M339.623 221.891C334.909 225.869 328.616 217.682 330.889 213.473C333.646 208.19 333.835 207.832 337.666 204.57C343.032 200.003 350.125 206.991 346.695 213.431C345.115 216.819 342.677 219.736 339.623 221.891V221.891Z" stroke="#FFE500" stroke-width="4.20925" stroke-miterlimit="10"/>
    <path d="M348.651 208.484C348.651 208.484 350.398 211.325 344.673 219.007C344.505 219.175 339.054 224.795 336.992 224.248C334.445 223.616 345.768 222.08 348.651 208.484Z" fill="#FFFEE9"/>
    <path d="M329.92 218.418C329.92 218.418 327.816 215.388 333.203 207.453C333.33 207.306 338.444 201.371 340.549 201.497C342.653 201.623 331.709 204.149 329.92 218.418Z" fill="#BFA700"/>
    <path d="M346.61 207.601C344.842 211.179 340.822 206.38 341.37 202.928C341.538 200.338 342.255 197.812 343.474 195.52C345.474 191.311 349.788 195.268 348.883 200.403C348.625 202.932 347.852 205.382 346.61 207.601V207.601Z" stroke="#FFE500" stroke-width="4.20925" stroke-miterlimit="10"/>
    <path d="M349.367 196.635C349.367 196.635 350.546 198.361 348.778 204.738C348.778 204.885 346.821 209.747 345.768 209.684C344.716 209.621 349.557 206.758 349.367 196.635Z" fill="#FFFEE9"/>
    <path d="M341.538 206.653C341.538 206.653 340.128 204.843 341.748 198.235C341.748 198.087 343.495 193.057 344.527 192.826C345.558 192.594 340.612 196.172 341.538 206.653Z" fill="#BFA700"/>
    <path d="M240.305 98.644C240.305 98.644 247.945 108.894 258.026 112.64C256.553 110.283 251.713 101.38 253.165 91.9092C253.396 90.4149 249.734 103.316 249.671 101.717C248.724 80.881 261.731 70.3578 272.969 67.7692C275.074 67.2851 263.751 66.6537 266.15 65.9802C284.334 60.9502 296.92 66.2749 304.033 73.8515C302.476 69.2424 297.867 65.433 299.256 66.1065C310.81 71.9784 317.65 91.362 352.587 91.846C356.102 86.837 356.902 74.2093 357.007 72.5256C357.112 70.8419 353.282 83.7432 353.24 82.1858C352.903 59.1823 339.917 37.5257 339.917 37.5257C340.776 41.2576 341.346 45.0501 341.622 48.8696C305.359 -7.78682 190.657 -37.7567 116.764 88.1419C102.621 94.5821 77.9759 103.464 71.7883 127.309C47.7114 141.578 20.7512 166.876 30.0326 178.893C18.5624 187.775 18.4571 198.066 18.4571 198.066C11.2383 205.58 -3.99921 229.046 0.988751 232.856C64.2537 182.682 164.434 205.264 127.392 164.161C148.439 155.237 242.473 128.908 179.103 99.549C193.835 97.0445 220.459 97.8863 245.146 106.557C242.612 104.607 240.888 101.789 240.305 98.644Z" fill="#4E342E"/>
    <path d="M344.064 48.848C345.621 52.2365 351.388 68.4 350.84 75.3032C348.736 70.4836 329.058 38.3881 321.544 32.7056C327.227 35.3785 337.602 45.8595 344.421 56.6983C344.141 54.0914 344.021 51.4697 344.064 48.848ZM301.571 39.0195C290.937 29.4906 278.101 22.7552 264.218 19.4194C250.335 16.0836 235.84 16.252 222.038 19.9095C266.214 17.0051 289.575 32.895 301.571 39.0195ZM297.025 62.1703C281.64 51.8577 270.423 55.5197 263.877 59.2028C274.973 56.8741 286.509 57.8923 297.025 62.1282V62.1703ZM311.084 23.319C297.839 12.8375 281.953 6.22369 265.182 4.20898C271.496 7.4922 293.026 14.4795 311.084 23.2769V23.319ZM184.028 109.314C189.037 113.523 196.656 127.308 71.7885 176.536C186.722 140.041 204.716 120.426 184.028 109.314ZM32.3689 169.801C37.9672 163.487 71.1781 151.785 99.4853 154.079C70.7572 146.881 40.4717 153.237 32.3689 169.801ZM76.1871 120.553C87.5521 112.913 116.764 115.123 133.138 111.797C115.754 103.484 86.7102 99.9904 76.1871 120.553ZM5.53491 223.679C11.1122 217.365 82.9219 188.595 111.25 190.91C82.501 183.733 13.6377 207.158 5.53491 223.7V223.679Z" fill="#63463D"/>
    <path d="M103.737 155.237C78.0604 161.551 42.0503 172.916 30.075 178.914C33.6739 163.93 61.981 159.194 103.737 155.237ZM71.7886 127.309C83.806 121.311 98.3279 122.889 124.004 116.554C82.2486 120.511 78.355 117.438 71.7886 127.309ZM116.764 88.142C129.097 84.8798 149.597 90.7096 164.097 93.5509C146.419 85.0482 123.31 78.2713 116.764 88.142ZM35.7785 191.668C93.1505 179.251 107.336 174.684 130.886 168.37C129.876 167.044 128.782 165.634 127.393 164.161C119.963 165.634 92.6033 176.199 35.7785 191.668Z" fill="#2D1D1C"/>
    <path d="M286.46 117.523L285.029 117.67L283.345 117.818C282.608 117.818 281.893 117.818 281.03 117.649C276.486 117.022 272.337 114.726 269.391 111.209C266.442 107.719 264.864 103.276 264.951 98.7076C264.972 97.3713 265.155 96.0426 265.498 94.7509C265.729 93.8459 265.898 93.3618 265.898 93.3618C265.898 93.3618 265.898 93.909 265.898 94.793C265.988 96.0617 266.178 97.3214 266.466 98.5602C267.374 102.443 269.2 106.052 271.791 109.083C274.364 112.135 277.644 114.512 281.346 116.008C282.082 116.302 282.819 116.555 283.345 116.723L284.987 117.102L286.46 117.523ZM348.357 192.679C356.039 179.588 354.671 157.111 346.252 146.63C350.651 152.986 352.419 187.312 348.357 192.679Z" fill="#F27021"/>
    <path d="M321.334 114.85C325.67 119.227 370.582 132.571 374.707 134.212C378.832 135.854 371.319 112.345 351.472 102.264C346.905 99.9278 316.956 110.43 321.334 114.85Z" fill="#231F20"/>
    <path d="M367.994 121.921C362.058 112.998 353.387 107.863 347.873 106.916C350.672 109.441 360.101 115.018 367.994 121.921Z" fill="white"/>
    <path d="M302.786 99.0475C304.207 89.7638 297.907 81.0976 288.715 79.6911C279.523 78.2845 270.92 84.6702 269.499 93.954C268.079 103.238 274.379 111.904 283.571 113.31C292.762 114.717 301.365 108.331 302.786 99.0475Z" fill="#231F20"/>
    <path d="M294.878 94.7089C293.548 92.5976 291.622 90.9278 289.343 89.9103C288.049 89.2665 286.666 88.8196 285.239 88.5844C285.293 88.2066 285.399 87.8382 285.555 87.49C286.755 85.0697 290.206 84.312 293.321 85.8273C296.436 87.3427 297.951 90.5207 296.773 92.962C296.35 93.7364 295.684 94.3502 294.878 94.7089ZM285.934 110.725C282.092 110.201 278.612 108.183 276.249 105.11C273.885 102.037 272.827 98.1564 273.306 94.309C272.659 96.0999 272.424 98.0141 272.621 99.9083C272.818 101.802 273.441 103.628 274.443 105.247C275.445 106.866 276.8 108.238 278.408 109.26C280.015 110.281 281.832 110.926 283.724 111.146C285.536 111.414 287.385 111.307 289.154 110.83C288.081 110.918 287.002 110.897 285.934 110.767V110.725Z" fill="white"/>
    <path d="M154.563 43.5454L354.966 93.4881L357.07 106.116L329.71 99.802L310.768 122.953L254.764 108.852L249.734 82.965L148.292 49.9856L154.563 43.5454Z" fill="#231F20"/>
    <path d="M262.363 104.011H270.781L264.467 85.0698H256.049" fill="white"/>
  </g>
  <defs>
    <clipPath id="clip0">
      <rect width="375.802" height="364.626" fill="white"/>
    </clipPath>
  </defs>
</svg>
