<svg width="625" height="603" viewBox="0 0 625 603" fill="none" xmlns="http://www.w3.org/2000/svg">
  <path opacity="0.2" d="M17.0373 254.425C17.0373 254.425 67.3189 158.59 89.3171 139.738C218.729 28.8369 269.121 102.032 306.157 14.0533C331.297 -45.6468 659.699 97.3192 621.988 208.864C535.095 465.889 714.695 633.049 491.57 598.485C181.615 550.458 64.1763 598.485 42.1781 551.354C-17.6413 423.172 123.886 364.398 35.8929 342.404C-31.7987 325.389 17.0373 254.425 17.0373 254.425Z" fill="#B6B6D1"/>
  <path d="M286.407 393.722C286.787 396.299 287.352 398.845 288.098 401.34C288.098 401.34 283.452 399.222 281.957 395.537L278.397 400.539L271.828 409.867C271.828 409.867 279.572 425.069 279.483 427.098C273.11 425.692 267.2 432.438 267.2 432.438C279.661 433.667 275.513 455.063 267.2 452.713C273.11 466.313 280.141 458.285 280.729 435.215C283.434 436.995 292.815 450.275 281.832 452.713C291.961 471.102 302.944 447.64 287.956 434.165C295.735 434.717 307.732 444.08 298.441 452.713C301.823 461.614 308.445 456.932 309.424 450.275C311.204 438.152 299.687 430.053 288.49 427.294C287.244 426.973 281.138 413.142 281.138 413.142C281.138 413.142 290.252 406.627 292.157 403.779C292.311 403.587 292.432 403.371 292.513 403.138C290.081 400.275 288.028 397.11 286.407 393.722Z" fill="#2D1D1C"/>
  <path d="M438.319 405.186C435.15 400.718 430.504 400.701 425.663 403.513C414.982 403.922 398.41 402.73 388.281 406.308C385.195 403.019 382.295 399.56 379.594 395.948C375.055 397.941 372.029 399.223 372.029 399.223C372.919 397.443 373.898 396.25 373.667 393.883C372.317 395.714 370.661 397.298 368.771 398.564L382.371 415.974C394.354 415.434 406.22 413.382 417.688 409.868C413.024 414.817 405.993 428.309 412.543 434.13C413.629 416.49 423.651 411.203 428.244 409.868C433.762 415.048 433.673 433.329 433.904 439.542C441.79 439.542 439.832 419.854 437.82 411.666C439.003 412.246 440.015 413.123 440.758 414.211C443.695 418.305 445.421 426.672 445.208 432.404C454.357 432.404 448.501 405.489 438.319 405.186Z" fill="#2D1D1C"/>
  <path d="M405.441 368.587C405.441 368.587 298.886 408.052 348.105 373.109C338.029 370.439 308.747 385.071 331.692 385.783C335.982 385.908 313.429 394.274 299.224 385.979C282.901 376.42 271.579 371.133 283.844 381.653C302.214 397.425 275.211 386.139 265.545 379.873C242.742 364.992 253.084 376.758 258.424 383.024C240.499 371.685 240.624 367.003 233.165 351.428C233.165 351.428 234.411 357.337 235.64 362.197C229.302 355.878 225.992 337.062 225.903 337.187C225.08 339.162 224.529 341.24 224.265 343.364C222.965 340.551 221.986 338.113 221.274 336.243C268.909 311.945 316.206 331.188 288.437 300.375C303.14 294.163 351.807 271.467 339.631 249.073C347.713 268.031 292.869 283.802 278.415 289.908C302.553 316.609 257.837 311.536 211.573 327.13C212.103 332.352 213.171 337.506 214.759 342.509C214.759 337.436 215.827 335.941 215.827 335.941C215.827 337.721 216.735 346.087 220.295 350.181C219.805 348.2 219.805 346.129 220.295 344.147C220.295 344.147 223.037 356.501 227.042 362.606C227.143 360.284 227.501 357.979 228.11 355.735C228.11 355.735 228.982 360.613 230.335 365.294C230.958 368.089 231.563 371.703 233.681 374.195C234.393 375.031 233.895 371.151 234.625 371.952C246.801 385.231 261.041 395.128 278.433 400.54L281.993 395.538C283.488 399.223 288.134 401.341 288.134 401.341C287.388 398.845 286.823 396.299 286.443 393.722C288.072 397.073 290.124 400.202 292.549 403.032C292.467 403.264 292.347 403.481 292.192 403.673C306.049 405.703 320.131 405.65 333.971 403.512C333.971 404.776 331.123 405.969 331.123 405.969C340.717 405.969 355.83 402.231 366.724 396.179C366.755 397.77 366.336 399.337 365.514 400.7C366.19 400.486 372.26 396.41 373.667 393.882C373.898 396.179 372.919 397.442 372.029 399.222C372.029 399.222 414.092 381.422 421.515 373.429C421.266 375.197 420.554 376.868 419.45 378.271C425.883 374.427 431.694 369.625 436.681 364.03C436.681 364.03 384.187 383.807 405.441 368.587Z" fill="#AFBDC4"/>
  <path d="M444.834 351.962C443.552 353.261 425.716 360.862 422.797 356.074C419.877 351.285 437.892 332.933 427.087 336.404C416.281 339.875 379.025 361.183 362.221 359.064C345.417 356.946 347.072 340.73 352.341 335.389C356.702 331.046 341.75 338.522 338.528 335.888C335.306 333.253 349.992 325.207 341.056 323.427C332.12 321.647 328.844 313.049 347.268 294.323C336.41 295.551 340.059 285.636 361.348 266.785C376.087 253.755 364.909 250.871 360.69 242.897C362.701 242.897 378.134 246.261 380.805 246.457C375.82 242.363 358.465 237.984 358.465 237.984C364.998 238.571 378.045 241.081 378.045 241.081C357.165 233.747 334.558 233.035 322.205 235.153C332.404 239.888 337.762 244.517 339.667 248.967C351.843 271.36 303.176 294.056 288.472 300.268C316.241 331.082 268.891 311.839 221.31 336.137C222.022 337.917 223.09 340.409 224.3 343.257C224.565 341.134 225.116 339.056 225.938 337.08C225.938 336.956 229.338 355.771 235.675 362.09C234.447 357.231 233.201 351.321 233.201 351.321C240.695 366.879 240.535 371.578 258.46 382.917C253.12 376.651 242.778 364.885 265.58 379.767C275.246 386.086 302.25 397.372 283.88 381.547C271.615 371.026 282.936 376.313 299.259 385.872C313.5 394.167 336.018 385.872 331.728 385.676C308.783 384.964 338.065 370.332 348.14 373.002C298.921 407.945 405.476 368.481 405.476 368.481C384.222 383.701 436.77 363.995 436.77 363.995C436.741 364.073 436.699 364.145 436.646 364.209C436.646 364.209 436.646 364.209 436.646 364.298L436.379 364.618L436.254 364.743L435.827 365.206L435.684 365.366L435.061 366.007L434.919 366.131L434.118 366.932L433.993 367.057L433.014 368L432.907 368.089C432.534 368.445 432.16 368.801 431.75 369.157L430.397 370.35C430.397 370.35 442.52 361.734 447.397 355.789C445.706 357.444 446.169 350.662 444.834 351.962Z" fill="#EEEAE8"/>
  <path d="M227.006 362.482C223.001 356.376 220.26 344.023 220.26 344.023C219.77 346.004 219.77 348.076 220.26 350.057C216.29 345.518 215.792 335.817 215.792 335.817C215.792 335.817 214.724 337.312 214.724 342.385C213.144 337.401 212.1 332.264 211.609 327.059C197.131 331.667 183.562 338.75 171.503 347.992C172.287 350.929 197.404 347.227 205.877 345.821C179.176 361.574 181.418 370.065 189.304 366.683C135.19 434.326 224.532 368.819 230.246 365.17C228.893 360.488 228.021 355.611 228.021 355.611C227.43 357.857 227.09 360.161 227.006 362.482Z" fill="#2D1D1C"/>
  <path d="M373.916 234.477C373.916 234.477 380.395 243.146 388.904 246.314C387.658 244.321 383.564 236.791 384.792 228.78C384.988 227.517 381.908 238.428 381.837 237.076C381.036 219.453 392.037 210.553 401.542 208.363C403.323 207.954 393.764 207.42 395.775 206.868C411.155 202.596 421.818 207.099 427.816 213.507C426.499 209.609 422.619 206.387 423.793 206.957C433.548 211.923 439.351 228.318 468.883 228.727C471.855 224.49 472.443 213.81 472.621 212.404C472.799 210.998 469.47 221.874 469.452 220.557C469.168 201.1 458.167 182.783 458.167 182.783C458.9 185.939 459.388 189.147 459.626 192.378C428.991 144.458 331.977 119.11 269.479 225.594C257.517 231.041 236.672 238.553 231.456 258.721C211.075 270.79 188.272 292.187 196.14 302.369C186.421 309.881 186.332 318.585 186.332 318.585C180.226 324.922 167.338 344.788 171.557 347.992C225.084 305.555 309.797 324.655 278.468 289.89C296.269 282.343 375.803 260.074 322.222 235.242C334.576 233.124 357.183 233.836 378.063 241.17C375.9 239.529 374.422 237.144 373.916 234.477Z" fill="#4E342E"/>
  <path d="M258.425 282.342C236.69 287.683 206.233 297.295 196.122 302.368C199.113 289.694 223.108 285.689 258.425 282.342ZM231.403 258.721C241.55 253.648 253.832 254.983 275.549 249.625C240.232 252.971 236.939 250.372 231.403 258.721ZM269.425 225.594C279.857 222.834 297.195 227.765 309.459 230.168C294.525 222.977 274.979 217.245 269.425 225.594ZM200.893 313.155C249.453 302.653 261.504 298.755 281.37 293.468C280.533 292.346 279.59 291.154 278.415 289.908C272.096 291.136 248.937 300.072 200.893 313.155Z" fill="#2D1D1C"/>
  <path d="M461.673 192.359C462.991 195.225 467.868 208.896 467.405 214.735C465.625 210.659 448.981 183.513 442.644 178.706C447.433 180.967 456.209 189.832 461.994 198.999C461.746 196.795 461.639 194.577 461.673 192.359ZM425.751 184.082C416.754 176.023 405.894 170.326 394.149 167.505C382.404 164.683 370.141 164.826 358.465 167.919C395.828 165.427 415.587 178.867 425.751 184.082ZM421.889 203.663C408.894 194.941 399.389 198.038 393.853 201.153C403.24 199.195 412.998 200.068 421.889 203.663ZM433.708 170.732C422.495 161.921 409.066 156.377 394.903 154.711C400.368 157.381 418.507 163.291 433.708 170.732ZM326.263 243.501C330.482 247.061 336.944 258.721 231.332 300.357C328.684 269.526 343.815 252.9 326.334 243.501H326.263ZM197.991 294.66C202.708 289.32 230.798 279.423 254.74 281.363C230.513 275.293 204.898 280.651 198.062 294.66H197.991ZM235.034 253.007C244.647 246.545 269.354 248.432 283.203 245.602C268.5 238.57 244.006 235.704 235.106 253.007H235.034ZM175.277 340.23C179.994 334.89 240.731 310.574 264.69 312.515C240.446 306.444 182.202 326.257 175.348 340.248L175.277 340.23Z" fill="#63463D"/>
  <path d="M475.505 307.62C475.095 300.055 474.597 292.703 468.634 275.063C468.117 272.855 467.655 270.879 467.352 269.171C465.785 260.537 466.693 247.329 467.637 238.375L469.719 240.796C469.719 235.456 469.951 233.943 473.814 231.255C472.734 231.134 471.642 231.301 470.648 231.739C469.654 232.177 468.793 232.869 468.153 233.747C468.527 230.65 468.829 228.727 468.829 228.727C439.298 228.353 433.495 211.923 423.74 206.957C422.565 206.352 426.446 209.609 427.763 213.508C421.818 207.099 411.155 202.596 395.722 206.868C393.71 207.42 403.269 207.954 401.489 208.363C391.984 210.553 380.983 219.453 381.784 237.076C381.784 238.429 384.934 227.517 384.739 228.781C383.528 236.791 387.605 244.321 388.851 246.314C380.342 243.146 373.862 234.477 373.862 234.477C374.355 237.137 375.813 239.52 377.957 241.17C377.957 241.17 364.944 238.66 358.376 238.073C358.376 238.073 375.731 242.452 380.716 246.546C378.046 246.368 362.612 242.986 360.601 242.986C364.82 250.96 375.999 253.844 361.259 266.874C339.899 285.725 336.338 295.64 347.179 294.412C328.755 313.138 332.048 321.718 340.967 323.516C349.885 325.314 335.199 333.289 338.439 335.977C341.679 338.665 356.614 331.135 352.252 335.478C346.912 340.73 345.328 356.999 362.132 359.1C378.936 361.2 416.193 339.929 426.998 336.44C437.803 332.951 419.788 351.392 422.708 356.109C425.627 360.827 443.463 353.297 444.745 351.997C446.027 350.698 445.617 357.48 447.112 356.003C467.352 332.755 472.033 312.569 471.695 296.869C473.084 300.589 474.828 305.626 475.505 307.62Z" fill="#E45325"/>
  <path d="M412.953 250.444L411.742 250.569L410.336 250.693C409.695 250.693 409.09 250.693 408.36 250.551C404.514 250.024 401.001 248.089 398.499 245.122C396.009 242.16 394.675 238.398 394.743 234.53C394.769 233.401 394.924 232.278 395.205 231.184C395.302 230.786 395.421 230.394 395.561 230.009C395.561 230.009 395.561 230.489 395.561 231.219C395.638 232.292 395.798 233.358 396.042 234.406C396.806 237.695 398.358 240.749 400.563 243.306C402.733 245.895 405.509 247.907 408.645 249.162C409.25 249.412 409.873 249.625 410.318 249.768L411.707 250.088L412.953 250.444ZM465.305 314.028C471.802 302.956 470.645 283.945 463.525 275.08C467.245 280.438 468.74 309.436 465.305 314.028Z" fill="#F27021"/>
  <path d="M344.456 333.128C360.708 331.437 377.832 323.427 386.75 308.563C372.26 320.151 357.29 326.097 344.456 333.128ZM404.159 342.883C416.086 339.768 430.967 333.591 436.735 321.913C424.399 331.686 414.662 338.041 404.159 342.883ZM444.994 349.327C452.221 343.292 456.956 333.306 457.17 326.292C452.631 335.78 452.043 336.136 444.994 349.327ZM447.041 322.768C453.129 315.648 456.12 304.967 455.123 298.007C452.257 308.118 451.741 308.563 447.041 322.768ZM365.158 352.317C373.007 351.405 380.472 348.419 386.786 343.666C379.295 345.855 372.029 348.752 365.087 352.317H365.158ZM394.974 322.821C401.774 320.027 416.887 308.581 420.518 298.862C411.778 309.257 398 319.706 394.903 322.821H394.974ZM348.176 295.657C359.325 292.985 369.169 286.452 375.963 277.216C364.286 287.149 351.718 293.147 348.105 295.657H348.176ZM401.578 219.239C419.379 201.438 445.813 229.065 426.161 244.445C436.04 228.869 418.507 209.003 401.542 219.239H401.578Z" fill="#BD3926"/>
  <path d="M442.449 248.165C446.116 251.868 484.102 263.154 487.591 264.542C491.08 265.931 484.725 246.047 467.904 237.521C464.076 235.563 438.746 244.445 442.449 248.165Z" fill="#231F20"/>
  <path d="M481.913 254.181C476.911 246.616 469.559 242.272 464.913 241.489C467.263 243.625 475.238 248.325 481.913 254.181Z" fill="white"/>
  <path d="M426.707 233.795C427.899 225.931 422.553 218.599 414.767 217.419C406.98 216.24 399.703 221.658 398.511 229.523C397.32 237.387 402.666 244.718 410.452 245.898C418.238 247.078 425.516 241.659 426.707 233.795Z" fill="#231F20"/>
  <path d="M420.091 231.201C418.964 229.406 417.328 227.987 415.392 227.124C414.27 226.569 413.069 226.191 411.831 226.003C411.884 225.683 411.98 225.372 412.116 225.077C413.113 223.03 416.05 222.389 418.667 223.671C421.284 224.953 422.601 227.641 421.586 229.706C421.259 230.35 420.736 230.874 420.091 231.201ZM412.526 244.729C409.277 244.286 406.333 242.58 404.334 239.981C402.334 237.381 401.44 234.099 401.845 230.845C401.297 232.366 401.101 233.992 401.273 235.6C401.444 237.208 401.979 238.756 402.836 240.127C403.693 241.499 404.85 242.657 406.22 243.516C407.59 244.375 409.138 244.912 410.746 245.085C412.284 245.312 413.853 245.221 415.356 244.818C414.412 244.898 413.462 244.868 412.526 244.729Z" fill="white"/>
  <path d="M289.522 470.123C286.5 470.115 283.544 469.231 281.014 467.578C278.723 469.189 275.982 470.037 273.181 469.999C268.589 469.999 262.109 467.738 257.428 456.933C256.838 455.574 256.538 454.107 256.546 452.625C256.554 451.143 256.871 449.68 257.475 448.327C258.079 446.974 258.959 445.762 260.057 444.768C261.155 443.773 262.448 443.018 263.854 442.55C262.18 441.994 260.669 441.031 259.458 439.749C258.246 438.466 257.371 436.903 256.911 435.2C256.451 433.497 256.42 431.706 256.821 429.988C257.221 428.27 258.042 426.678 259.208 425.354C260.945 423.422 262.926 421.723 265.1 420.299C264.192 418.412 263.32 416.49 262.323 414.71C261.443 412.977 261.052 411.036 261.193 409.098C261.335 407.159 262.002 405.296 263.124 403.709L273.217 389.468C274.036 388.309 275.079 387.324 276.283 386.572C277.487 385.82 278.829 385.316 280.23 385.089C281.142 384.439 282.151 383.941 283.221 383.612C284.246 383.287 285.315 383.125 286.39 383.131C288.395 383.13 290.36 383.694 292.06 384.758C293.76 385.822 295.126 387.343 296.002 389.148C297.112 391.469 298.486 393.655 300.096 395.663C301.401 396.974 302.343 398.602 302.83 400.387C303.317 402.172 303.332 404.052 302.873 405.845C302.513 407.255 301.911 408.592 301.093 409.796C299.19 412.292 296.977 414.535 294.507 416.472C294.809 417.095 295.094 417.682 295.379 418.252C312.183 423.948 322.187 437.316 320.069 451.895C318.68 461.437 311.702 468.361 303.478 468.361C301.716 468.338 299.973 467.994 298.334 467.346C295.772 469.196 292.682 470.17 289.522 470.123Z" fill="#35215E"/>
  <path d="M433.815 450.222C431.049 450.224 428.39 449.152 426.398 447.233C424.406 445.314 423.236 442.697 423.135 439.933C423.135 439.31 423.028 436.373 423.01 435.75C422.733 437.568 421.99 439.283 420.855 440.73C419.72 442.177 418.23 443.307 416.531 444.009C415.236 444.536 413.852 444.808 412.454 444.81C409.829 444.814 407.294 443.851 405.334 442.105C403.423 440.387 401.885 438.295 400.817 435.959C399.748 433.623 399.171 431.091 399.122 428.523C399.068 427.364 399.104 426.204 399.228 425.051C393.793 425.916 388.314 426.475 382.816 426.725H382.407C380.786 426.722 379.187 426.35 377.732 425.637C376.276 424.925 375.001 423.891 374.005 422.613L360.405 405.204C359.529 404.083 358.886 402.799 358.513 401.426C358.14 400.054 358.045 398.621 358.233 397.211C358.425 395.805 358.896 394.451 359.617 393.228C360.338 392.005 361.296 390.939 362.434 390.091C363.249 389.518 364.017 388.881 364.731 388.186C365.693 386.699 367.011 385.474 368.564 384.623C370.118 383.771 371.859 383.32 373.631 383.309C374.367 383.306 375.101 383.384 375.82 383.54C377.273 383.839 378.645 384.446 379.843 385.32C381.477 385.363 383.08 385.779 384.527 386.539C385.974 387.298 387.228 388.379 388.192 389.699C389.385 391.355 390.702 392.992 391.912 394.416C400.097 393.228 408.37 392.751 416.638 392.992C418.845 392.992 420.963 392.992 422.886 392.992C425.676 391.7 428.711 391.021 431.786 390.999C436.261 390.97 440.583 392.629 443.89 395.645C454.767 399.703 460.499 414.691 460.338 425.354C460.16 436.889 453.467 442.461 446.454 443.155C446.151 443.635 445.813 444.116 445.457 444.579C444.078 446.348 442.311 447.777 440.293 448.755C438.274 449.733 436.058 450.235 433.815 450.222Z" fill="#35215E"/>
  <path d="M331.105 416.721C329.181 416.723 327.29 416.22 325.622 415.261C320.745 415.689 316.028 415.902 311.471 415.902C304.45 415.925 297.438 415.389 290.501 414.3C288.382 413.957 286.416 412.983 284.859 411.505C284.459 411.381 284.066 411.232 283.684 411.06C283.435 410.936 283.007 410.74 282.456 410.437C281.179 410.962 279.813 411.234 278.433 411.238C277.358 411.236 276.291 411.074 275.264 410.758C259.049 405.658 244.298 396.732 232.257 384.733C229.635 384.346 227.243 383.017 225.529 380.995C223.183 378.116 221.533 374.736 220.705 371.116C219.667 370.356 218.774 369.415 218.07 368.339C216.085 365.13 214.467 361.709 213.246 358.139C212.874 357.818 212.524 357.473 212.196 357.106C210.665 355.303 209.411 353.281 208.476 351.108C206.677 349.829 205.325 348.017 204.613 345.928C202.761 340.141 201.532 334.174 200.946 328.127C200.706 325.723 201.288 323.308 202.598 321.278C203.907 319.248 205.866 317.721 208.155 316.948C221.84 312.594 235.789 309.116 249.916 306.534C258.033 304.915 268.678 302.779 273.448 300.714C272.547 299.404 271.554 298.161 270.476 296.993C269.337 295.728 268.517 294.21 268.084 292.563C267.651 290.917 267.618 289.192 267.987 287.53C268.356 285.868 269.117 284.319 270.206 283.011C271.296 281.703 272.682 280.675 274.249 280.011C276.848 278.908 280.426 277.608 284.574 276.095C294.816 272.552 304.849 268.427 314.621 263.742C326.423 257.76 329.111 253.898 329.663 252.847C328.706 250.346 328.723 247.576 329.713 245.086C330.702 242.597 332.59 240.57 335.003 239.408C336.453 238.71 338.04 238.346 339.649 238.34C341.571 238.341 343.457 238.861 345.108 239.845C346.759 240.829 348.114 242.24 349.03 243.929C350.818 247.164 351.893 250.744 352.181 254.428C352.47 258.113 351.966 261.817 350.704 265.29C344.883 281.916 322.917 295.676 304.867 304.452C307.323 309.116 308.32 313.957 306.469 318.906C302.713 328.963 291.463 330.352 277.204 332.114C266.328 333.467 252.283 335.211 237.722 340.552C237.829 340.943 237.918 341.317 238.025 341.691C240.115 342.753 241.798 344.473 242.813 346.586C243.988 349.043 244.985 351.232 245.893 353.226C247.172 356.282 248.665 359.244 250.361 362.091C250.949 361.991 251.544 361.943 252.141 361.948C255.701 361.948 259.457 363.176 269.942 369.959C270.971 368.475 272.348 367.266 273.952 366.438C275.556 365.609 277.339 365.186 279.145 365.206C281.957 365.206 284.859 365.206 304.635 376.776C307.249 378.14 310.143 378.877 313.091 378.93C317.025 367.235 338.118 362.126 345.239 362.126C347.135 362.112 349.025 362.34 350.864 362.803C352.829 363.323 354.605 364.393 355.983 365.888C357.361 367.382 358.284 369.239 358.643 371.24C358.731 371.74 358.785 372.246 358.803 372.753C372.278 368.944 389.296 363.194 401.756 358.513C403.658 357.809 405.721 357.661 407.704 358.087C409.686 358.512 411.507 359.494 412.953 360.916C419.005 359.136 426.499 356.501 432.996 354.062C434.743 353.42 436.627 353.244 438.462 353.554C440.296 353.863 442.019 354.647 443.458 355.827C444.897 357.007 446.002 358.542 446.665 360.281C447.328 362.02 447.525 363.901 447.237 365.74C446.756 368.819 445.76 370.866 438.337 377.524C434.15 381.369 429.554 384.741 424.63 387.581C423.059 388.444 421.296 388.897 419.503 388.899C419.051 388.905 418.598 388.875 418.151 388.81C405.138 396.517 385.842 404.955 376.23 409.013C374.915 409.558 373.506 409.843 372.082 409.85H371.157C370.397 410.284 369.598 410.648 368.771 410.936C367.729 411.266 366.643 411.434 365.549 411.434C364.041 411.433 362.55 411.118 361.17 410.509C351.61 414.265 341.478 416.36 331.212 416.703L331.105 416.721Z" fill="#35215E"/>
  <path d="M288.686 400.344C282.224 400.344 271.419 395.342 264.637 391.657C262.908 392.894 260.85 393.587 258.725 393.647C256.601 393.707 254.507 393.132 252.711 391.996C240.588 384.324 235.301 378.841 231.243 371.881C230.081 371.351 229.021 370.622 228.11 369.727C224.55 366.167 221.47 360.488 218.907 352.531C216.999 351.439 215.48 349.777 214.564 347.779C213.424 345.322 212.374 342.812 211.324 340.089C210.369 337.625 210.36 334.895 211.301 332.426C212.241 329.957 214.063 327.924 216.415 326.72C238.239 315.577 260.098 312.871 274.57 311.073C277.187 310.753 280.124 310.397 282.669 310.005C282.064 309.258 281.334 308.439 280.497 307.496C279.359 306.229 278.54 304.709 278.108 303.062C277.677 301.415 277.645 299.689 278.016 298.027C278.387 296.365 279.15 294.817 280.241 293.509C281.332 292.202 282.72 291.175 284.289 290.514C308.818 280.136 327.402 267.212 330.571 258.312C330.861 257.65 330.989 256.927 330.942 256.206C330.896 255.484 330.677 254.784 330.304 254.164C330.144 253.862 329.984 253.559 329.859 253.257C329.734 252.954 328.31 249.839 317.719 244.944C315.65 243.987 313.942 242.393 312.844 240.396C311.746 238.399 311.316 236.102 311.616 233.843C311.916 231.584 312.932 229.48 314.513 227.839C316.095 226.198 318.16 225.105 320.407 224.722C325.669 223.886 330.992 223.487 336.321 223.529C351.728 223.556 367.026 226.112 381.606 231.095C383.362 231.712 384.927 232.777 386.145 234.185C387.362 235.594 388.191 237.296 388.548 239.123C390.006 240.631 390.988 242.536 391.37 244.598C391.753 246.661 391.519 248.791 390.699 250.721C389.879 252.652 388.508 254.299 386.758 255.456C385.008 256.613 382.956 257.228 380.858 257.226H380.164H379.416C378.793 264.987 372.955 271.022 368.487 275.027C363.89 278.973 359.583 283.244 355.599 287.808C356.125 288.447 356.573 289.146 356.934 289.891C357.898 291.875 358.224 294.109 357.867 296.286C357.51 298.463 356.487 300.476 354.94 302.049C351.282 305.512 348.13 309.473 345.577 313.815C347.538 314.392 349.331 315.43 350.809 316.842C352.286 318.254 353.404 319.999 354.068 321.932C354.262 322.514 354.417 323.109 354.531 323.712C356.399 323.996 358.164 324.756 359.654 325.919C361.144 327.082 362.31 328.608 363.04 330.352C363.915 332.525 364.097 334.916 363.562 337.198C363.026 339.479 361.8 341.539 360.049 343.097C359.732 343.687 359.536 344.333 359.471 345C359.407 345.666 359.477 346.338 359.675 346.978C360.174 348.117 362.577 348.544 363.591 348.669C363.983 348.69 364.375 348.69 364.766 348.669C374.877 348.669 395.704 338.949 408.147 333.164C413.266 330.63 418.512 328.36 423.865 326.364C425.62 325.768 427.458 325.45 429.312 325.421C431.421 325.379 433.503 325.904 435.341 326.94C437.178 327.977 438.705 329.487 439.761 331.313C440.698 332.988 441.236 334.858 441.331 336.775C441.427 338.693 441.078 340.607 440.313 342.367C441.822 341.616 443.486 341.226 445.172 341.228C447.184 341.228 453.485 341.904 455.853 349.826C457.235 351.736 457.946 354.05 457.875 356.407C457.804 358.764 456.956 361.032 455.461 362.856C449.836 369.709 437.66 378.396 436.396 379.357C434.7 380.565 432.688 381.251 430.606 381.33C428.525 381.409 426.467 380.878 424.684 379.802C416.121 382.597 406.883 385.142 402.13 385.142C399.843 385.185 397.583 384.646 395.562 383.576C378.33 389.557 351.06 398.333 339.222 398.333C337.247 398.359 335.279 398.089 333.384 397.532C327.397 399.542 321.114 400.523 314.8 400.433C308.816 400.538 302.875 399.398 297.355 397.087C296.199 398.179 294.837 399.029 293.348 399.588C291.86 400.148 290.275 400.405 288.686 400.344Z" fill="#35215E"/>
  <path d="M174.797 407.856C172.279 407.945 169.789 407.306 167.626 406.014C165.463 404.723 163.719 402.834 162.603 400.575C159.203 393.455 161.927 385.285 173.889 369.175C173.883 369.098 173.883 369.021 173.889 368.944C173.067 365.87 173.331 362.606 174.636 359.705C167.214 359.26 162.728 356.234 161.25 350.805C160.7 348.787 160.754 346.652 161.406 344.665C162.058 342.677 163.279 340.925 164.917 339.626C177.913 329.605 192.565 321.941 208.209 316.983C209.731 316.469 211.349 316.305 212.943 316.503C214.537 316.702 216.066 317.257 217.415 318.127C218.765 318.998 219.901 320.162 220.739 321.533C221.577 322.903 222.094 324.445 222.253 326.044C222.253 326.524 222.253 326.987 222.396 327.45C223.597 328.391 224.582 329.579 225.285 330.933C225.988 332.287 226.393 333.776 226.472 335.3C228.644 336.831 230.167 339.115 230.744 341.708C230.994 342.83 231.332 344.147 231.723 345.536C233.499 346.17 235.076 347.264 236.292 348.705C237.508 350.147 238.321 351.884 238.648 353.742C238.648 353.742 239.449 358.156 240.606 362.233C241.242 364.449 241.144 366.812 240.326 368.969C239.508 371.125 238.013 372.958 236.067 374.195C235.533 374.533 234.287 375.423 232.507 376.669C199.789 399.472 184.16 407.856 174.797 407.856Z" fill="#35215E"/>
  <path d="M171.504 358.672C169.162 358.673 166.885 357.903 165.024 356.483C163.565 355.356 162.364 353.929 161.505 352.299C160.645 350.668 160.145 348.871 160.04 347.031C159.239 336.635 170.72 320.614 176.203 313.939C177.482 308.47 180.121 303.413 183.875 299.236C183.722 297.301 183.835 295.354 184.213 293.451C187.649 275.561 212.694 257.991 222.396 251.726C229.854 231.415 249.667 222.657 261.807 217.299H261.985C302.464 150.528 352.662 140.453 379.22 140.453C408.841 140.453 437.642 152.54 456.992 172.245C457.372 172.245 457.745 172.245 458.113 172.245C459.956 172.246 461.766 172.724 463.37 173.631C464.973 174.539 466.314 175.846 467.263 177.425C471.837 185.46 475.321 194.068 477.623 203.023C478.635 203.576 479.554 204.285 480.346 205.123C481.351 206.207 482.125 207.484 482.621 208.876C483.117 210.269 483.324 211.748 483.23 213.223C482.589 223.244 480.685 230.578 477.569 235.011C476.584 236.413 475.275 237.558 473.754 238.348C472.233 239.138 470.543 239.55 468.829 239.55H468.687C446.81 239.265 435.31 231.166 427.745 224.33C426.287 224.321 424.846 224.012 423.511 223.425C422.176 222.837 420.976 221.982 419.984 220.912C417.139 217.993 413.287 216.268 409.215 216.088C407.759 217.49 405.95 218.468 403.981 218.919C400.23 219.845 396.994 222.211 394.974 225.505C395.501 227.123 395.641 228.843 395.383 230.525C395.183 234.136 396.097 237.721 398 240.796C399.011 242.413 399.57 244.271 399.62 246.177C399.67 248.083 399.208 249.968 398.284 251.636C397.359 253.303 396.005 254.693 394.362 255.66C392.719 256.628 390.846 257.138 388.94 257.137C387.669 257.14 386.408 256.911 385.219 256.461C382.203 255.254 379.355 253.662 376.746 251.726C375.982 251.626 375.23 251.447 374.503 251.192C366.517 248.431 358.248 246.568 349.849 245.638C350.828 248.196 351.27 250.929 351.149 253.666C350.348 272.659 324.252 284.247 294.596 295.159C296.194 299.134 296.345 303.545 295.023 307.62C290.893 320.08 275.442 323.196 254.081 327.468C231.741 331.953 201.124 338.148 178.108 356.341C176.231 357.838 173.904 358.659 171.504 358.672Z" fill="#35215E"/>
  <path d="M200.893 323.836C198.505 323.834 196.187 323.031 194.309 321.556C192.431 320.082 191.102 318.02 190.532 315.701C190.179 314.292 190.124 312.825 190.372 311.394C190.046 311.201 189.736 310.98 189.447 310.735C187.854 309.473 186.655 307.782 185.99 305.862C185.324 303.942 185.221 301.871 185.691 299.894C190.55 279.584 218.48 275.401 257.41 271.716H258.425C260.947 271.718 263.387 272.613 265.312 274.242C267.238 275.871 268.524 278.129 268.945 280.616C268.999 280.904 269.035 281.196 269.052 281.488C271.448 280.688 273.884 280.011 276.35 279.459C277.031 279.331 277.722 279.266 278.415 279.263C279.911 279.269 281.389 279.589 282.754 280.202C284.118 280.815 285.339 281.708 286.336 282.823C287.671 284.301 288.846 285.725 289.896 287.185C290.938 288.584 291.62 290.218 291.885 291.942C292.149 293.666 291.987 295.429 291.413 297.077C290.839 298.724 289.87 300.205 288.591 301.392C287.311 302.578 285.761 303.433 284.075 303.882L273.733 306.676C258.656 310.788 243.062 315.061 203.118 323.694C202.383 323.818 201.637 323.866 200.893 323.836ZM231.403 269.402C229.471 269.402 227.575 268.879 225.917 267.887C224.259 266.896 222.901 265.473 221.987 263.77C221.074 262.068 220.64 260.15 220.73 258.22C220.821 256.29 221.434 254.421 222.503 252.811C229.516 242.238 236.921 241.757 253.12 240.671C258.62 240.315 265.474 239.852 274.481 238.998H275.495C278.11 238.993 280.635 239.947 282.593 241.679C284.551 243.411 285.806 245.801 286.12 248.397C286.434 250.992 285.785 253.613 284.296 255.761C282.807 257.91 280.581 259.438 278.041 260.056C269.708 262.049 261.269 263.57 252.764 264.613C245.43 265.592 240.125 266.393 236.102 268.334C234.636 269.038 233.03 269.403 231.403 269.402ZM309.477 240.92C308.784 240.916 308.093 240.851 307.412 240.725C305.045 240.262 302.481 239.71 299.811 239.123C292.068 237.432 283.292 235.562 276.67 235.562C275.132 235.521 273.594 235.676 272.096 236.025C271.206 236.257 270.291 236.377 269.372 236.381C267.44 236.382 265.544 235.859 263.886 234.867C262.228 233.875 260.87 232.452 259.956 230.75C259.043 229.048 258.609 227.129 258.699 225.199C258.79 223.269 259.403 221.4 260.472 219.791C263.177 215.732 268.696 210.891 279.625 210.891C291.908 210.891 306.469 216.996 314.052 220.645C316.236 221.693 317.999 223.451 319.051 225.632C320.104 227.813 320.385 230.287 319.847 232.649C319.309 235.01 317.984 237.118 316.09 238.628C314.196 240.137 311.846 240.958 309.424 240.956L309.477 240.92Z" fill="#35215E"/>
  <path d="M175.348 350.929C173.537 350.928 171.756 350.467 170.172 349.588C168.589 348.709 167.254 347.442 166.295 345.906C165.335 344.37 164.782 342.615 164.688 340.806C164.593 338.998 164.96 337.195 165.754 335.567C171.877 323.106 197.635 311.589 222.004 305.43C221.743 304.949 221.517 304.449 221.328 303.935C220.85 302.59 220.646 301.163 220.728 299.739C220.811 298.314 221.178 296.92 221.808 295.64C213.656 297.883 207.568 300.571 205.788 301.959C204.036 303.814 201.678 304.981 199.14 305.248C196.602 305.516 194.052 304.865 191.953 303.415C189.853 301.965 188.342 299.811 187.693 297.343C187.044 294.875 187.299 292.257 188.414 289.961C195.072 276.344 212.427 268.209 234.856 268.209C242.484 268.21 250.082 269.148 257.481 271.003C260.06 271.646 262.307 273.226 263.782 275.436C300.381 259.415 312.396 250.8 316.312 246.955C315.742 245.342 315.568 243.616 315.804 241.921C316.04 240.227 316.679 238.614 317.668 237.219C318.657 235.823 319.967 234.685 321.488 233.901C323.008 233.118 324.695 232.71 326.406 232.714C328.166 232.712 329.898 233.153 331.443 233.996C342.693 240.03 343.69 248.236 343.281 252.58C342.319 263.011 334.701 276.166 262.679 301.158C264.278 301.375 265.865 301.678 267.432 302.066C269.958 302.699 272.166 304.234 273.641 306.381C275.115 308.529 275.753 311.141 275.436 313.726C275.119 316.312 273.868 318.692 271.918 320.42C269.969 322.147 267.455 323.103 264.851 323.106H263.961C263.32 323.106 262.643 323.106 261.913 323.106C239.947 323.106 190.337 342.562 182.878 347.903C180.864 349.863 178.159 350.95 175.348 350.929ZM235.105 263.705C233.278 263.704 231.48 263.234 229.886 262.34C228.292 261.446 226.954 260.157 226 258.598C225.046 257.038 224.508 255.26 224.438 253.434C224.368 251.607 224.768 249.793 225.6 248.165C231.795 236.078 243.863 229.403 259.564 229.403C269.362 229.54 279.015 231.786 287.867 235.989C289.885 236.954 291.549 238.529 292.624 240.49C293.7 242.451 294.132 244.7 293.861 246.921C293.589 249.141 292.628 251.22 291.112 252.864C289.596 254.509 287.601 255.636 285.41 256.086C278.865 257.21 272.252 257.894 265.616 258.134C257.321 258.65 244.754 259.415 241.069 261.89C239.307 263.074 237.229 263.7 235.105 263.687V263.705ZM467.405 225.434C465.325 225.432 463.29 224.824 461.551 223.682C459.811 222.54 458.443 220.916 457.615 219.008C455.496 214.433 440.562 190.847 436.165 187.215L435.987 187.091C435.426 188.994 434.346 190.703 432.868 192.026C431.391 193.35 429.573 194.236 427.621 194.585L427.834 194.727C430.024 196.186 431.598 198.401 432.256 200.949C432.913 203.496 432.607 206.197 431.396 208.532C430.185 210.868 428.155 212.675 425.694 213.606C423.233 214.537 420.515 214.527 418.062 213.578C413.531 211.762 408.702 210.808 403.821 210.766C401.16 210.781 398.507 211.055 395.9 211.585C395.225 211.711 394.539 211.777 393.853 211.78C391.491 211.78 389.196 210.997 387.327 209.554C385.458 208.111 384.119 206.089 383.521 203.805C382.923 201.52 383.099 199.102 384.022 196.928C384.944 194.754 386.561 192.948 388.619 191.79C393.729 188.835 399.521 187.265 405.423 187.233C406.672 187.233 407.92 187.305 409.161 187.447C396.129 181.173 381.809 178.033 367.347 178.279C364.677 178.279 362.007 178.368 359.177 178.564H358.465C355.897 178.571 353.412 177.653 351.466 175.977C349.52 174.301 348.243 171.98 347.869 169.44C347.495 166.899 348.049 164.309 349.429 162.143C350.81 159.978 352.924 158.382 355.385 157.648C362.331 155.669 369.524 154.692 376.746 154.747C379.078 154.747 381.57 154.854 384.222 155.085C384.176 153.95 384.309 152.815 384.614 151.721C385.249 149.486 386.595 147.519 388.449 146.119C390.302 144.718 392.562 143.96 394.885 143.96C395.193 143.942 395.502 143.942 395.811 143.96C412.172 145.797 427.684 152.214 440.562 162.472C442.314 163.916 443.561 165.88 444.122 168.08C445.177 168.226 446.203 168.532 447.166 168.987C451.901 171.23 457.366 176.108 462.243 181.644C464.182 181.75 466.055 182.383 467.661 183.475C469.266 184.566 470.544 186.075 471.357 187.838C471.357 187.999 478.833 205.639 478.032 215.536C477.842 217.912 476.862 220.156 475.249 221.911C473.637 223.665 471.483 224.83 469.132 225.22C468.564 225.338 467.986 225.404 467.405 225.416V225.434Z" fill="#35215E"/>
  <path d="M364.713 369.906C363.433 369.903 362.156 369.826 360.885 369.674C350.205 368.339 342.39 362.447 339.347 353.529C338.624 351.421 338.199 349.222 338.083 346.996C335.768 346.646 333.587 345.688 331.763 344.219C330.514 343.211 329.482 341.958 328.732 340.538C327.983 339.118 327.53 337.56 327.402 335.96C327.219 333.581 327.713 331.198 328.826 329.088C326.557 327.03 324.884 324.398 323.985 321.47C321.759 314.189 324.216 305.894 331.479 296.282C328.079 287.061 334.701 276.202 354.281 258.9C355.303 257.995 356.266 257.026 357.165 255.999L356.542 255.304C354.474 253.096 352.681 250.646 351.202 248.006C350.67 246.997 350.304 245.909 350.116 244.784C348.849 243.215 348.052 241.32 347.817 239.317C347.582 237.315 347.919 235.287 348.789 233.467C349.658 231.648 351.025 230.112 352.731 229.037C354.437 227.962 356.413 227.392 358.429 227.393H359.39C361.081 227.535 363.128 227.802 365.264 228.105C366.34 226.635 367.774 225.464 369.43 224.705C370.419 224.257 371.469 223.957 372.545 223.815C374.528 216.27 378.899 209.569 385.005 204.715C385.439 202.755 386.405 200.952 387.796 199.504C389.187 198.057 390.95 197.02 392.891 196.509C397.564 195.174 402.397 194.479 407.256 194.444C411.774 194.426 416.265 195.142 420.554 196.562C423.225 195.808 426.083 196.101 428.546 197.381C432.413 199.561 435.939 202.295 439.013 205.498C445.35 211.532 451.918 217.78 468.936 217.958C471.523 217.995 474.009 218.969 475.932 220.7C477.927 221.111 479.764 222.084 481.225 223.505C482.685 224.926 483.709 226.735 484.175 228.718C484.641 230.702 484.53 232.778 483.855 234.7C483.179 236.623 481.968 238.312 480.364 239.569V240.601C480.396 243.355 479.363 246.014 477.48 248.024C476.882 254.401 476.996 260.825 477.819 267.177C478.05 268.477 478.442 270.115 478.887 272.001C484.796 289.624 485.651 297.902 486.149 306.891C486.264 308.988 485.758 311.073 484.694 312.884C483.63 314.695 482.056 316.152 480.168 317.073C476.43 332.738 468.099 348.064 455.247 362.839C455.065 363.053 454.869 363.256 454.66 363.444C453.628 364.48 452.402 365.303 451.052 365.865C449.702 366.427 448.254 366.717 446.792 366.719C444.797 366.721 442.837 366.192 441.113 365.188C436.543 366.889 431.742 367.892 426.873 368.161C418.951 368.161 415.213 364.014 413.682 361.539C412.412 359.493 411.746 357.13 411.76 354.722C393.425 363.301 377.227 369.906 364.713 369.906Z" fill="#35215E"/>
  <path d="M465.287 324.709C463.423 324.709 461.591 324.221 459.973 323.293C458.356 322.366 457.01 321.031 456.069 319.422C455.127 317.813 454.623 315.985 454.607 314.121C454.591 312.256 455.064 310.42 455.977 308.795C457.277 303.669 456.28 285.369 454.428 280.706C453.01 278.393 452.524 275.628 453.07 272.97C453.616 270.313 455.153 267.963 457.369 266.397C459.585 264.832 462.313 264.168 465 264.541C467.687 264.914 470.132 266.296 471.838 268.405C481.539 280.456 483.105 303.046 475.398 317.909C474.97 318.805 474.457 319.657 473.867 320.455C472.867 321.783 471.57 322.859 470.08 323.598C468.591 324.336 466.949 324.717 465.287 324.709ZM410.229 261.392C409.143 261.392 408.147 261.392 407.043 261.178C400.528 260.325 394.571 257.06 390.346 252.029C386.16 247.056 383.932 240.726 384.08 234.228C384.122 232.322 384.391 230.428 384.881 228.585C385.071 227.814 385.303 227.053 385.575 226.307C386.346 224.287 387.712 222.549 389.492 221.322C391.272 220.095 393.382 219.437 395.544 219.436C396.086 219.442 396.627 219.484 397.163 219.56C399.575 219.925 401.788 221.104 403.437 222.901C405.085 224.699 406.069 227.006 406.224 229.44V230.668C406.423 232.814 407.267 234.849 408.645 236.506L408.787 236.649C409.807 237.852 411.101 238.793 412.561 239.39L413.238 239.639L414.395 239.906L415.569 240.227C417.986 240.861 420.104 242.323 421.555 244.357C423.006 246.392 423.697 248.871 423.508 251.363C423.32 253.854 422.264 256.201 420.524 257.995C418.784 259.788 416.47 260.915 413.985 261.178L412.526 261.321L411.101 261.445H410.265L410.229 261.392Z" fill="#35215E"/>
  <path d="M365.069 362.999C362.713 362.991 360.426 362.206 358.563 360.764C356.7 359.322 355.367 357.304 354.77 355.025C354.173 352.747 354.346 350.334 355.262 348.164C356.178 345.994 357.786 344.188 359.835 343.026C367.453 339.049 375.442 335.83 383.688 333.414C384.673 333.134 385.691 332.99 386.714 332.986C388.343 332.986 389.949 333.358 391.412 334.074C392.874 334.79 394.153 335.83 395.152 337.116C396.261 335.401 397.836 334.037 399.691 333.182C409.09 328.857 418.186 322.982 430.113 313.601C431.421 312.564 432.955 311.849 434.59 311.512C436.226 311.175 437.917 311.226 439.529 311.661L440.74 308.101C442.324 303.526 443.107 301.248 444.852 295.124C445.478 292.892 446.813 290.924 448.656 289.517C450.5 288.11 452.751 287.342 455.069 287.328H455.799C458.242 287.496 460.553 288.498 462.346 290.167C464.138 291.836 465.302 294.07 465.643 296.495C466.383 303.509 465.33 310.595 462.581 317.09C464.22 318.065 465.568 319.461 466.485 321.132C467.402 322.804 467.855 324.69 467.797 326.596C467.459 337.276 460.89 349.897 451.776 357.498C449.876 359.089 447.482 359.969 445.004 359.989C442.527 360.008 440.119 359.165 438.194 357.605C436.271 356.042 434.951 353.859 434.461 351.43C433.97 349.001 434.34 346.477 435.506 344.29C437.714 340.125 439.298 337.17 440.58 334.927C431.679 344.913 417.83 350.324 406.758 353.208C404.734 353.737 402.598 353.66 400.617 352.986C398.636 352.312 396.897 351.071 395.615 349.417C395.01 350.365 394.259 351.212 393.39 351.926C385.486 357.961 376.103 361.755 366.226 362.91C365.842 362.962 365.456 362.992 365.069 362.999ZM344.455 343.809C342.083 343.806 339.778 343.013 337.906 341.554C336.035 340.096 334.702 338.056 334.118 335.756C333.534 333.456 333.733 331.027 334.683 328.853C335.633 326.678 337.28 324.882 339.364 323.748C342.925 321.772 346.627 319.939 350.472 318.016C360.263 313.085 370.391 308.012 380.11 300.215C381.554 299.061 383.272 298.301 385.097 298.01C386.922 297.718 388.792 297.906 390.523 298.553C392.254 299.201 393.787 300.287 394.973 301.704C396.159 303.122 396.957 304.823 397.288 306.641C402.651 302.154 407.662 297.263 412.276 292.009C413.891 290.079 416.136 288.78 418.615 288.343C421.094 287.907 423.647 288.359 425.825 289.622C428.002 290.884 429.664 292.875 430.517 295.243C431.37 297.611 431.359 300.204 430.486 302.565C425.484 316.076 407.595 329.159 398.997 332.684C397.708 333.209 396.33 333.481 394.938 333.485C393.178 333.488 391.444 333.055 389.892 332.226C388.339 331.397 387.015 330.196 386.038 328.732C385.673 328.167 385.357 327.571 385.095 326.952C373.989 336.511 360.171 342.356 345.577 343.667C345.207 343.741 344.832 343.789 344.455 343.809ZM348.016 306.428C345.739 306.432 343.52 305.708 341.684 304.362C339.847 303.016 338.489 301.118 337.807 298.945C337.125 296.773 337.156 294.439 337.894 292.285C338.632 290.131 340.039 288.269 341.91 286.972C343.281 286.028 344.99 285.049 347.375 283.678C354.98 279.541 362.174 274.689 368.86 269.189C370.851 267.48 373.401 266.563 376.024 266.613C378.647 266.664 381.16 267.678 383.083 269.463C385.006 271.247 386.205 273.677 386.451 276.289C386.698 278.901 385.974 281.512 384.418 283.625C376.079 294.977 363.958 302.975 350.241 306.179C349.536 306.303 348.82 306.357 348.105 306.339L348.016 306.428ZM426.036 255.215C424.123 255.214 422.245 254.699 420.599 253.724C418.953 252.75 417.599 251.35 416.678 249.673C415.758 247.996 415.305 246.102 415.366 244.19C415.428 242.278 416.002 240.417 417.029 238.803C417.775 237.691 418.192 236.392 418.233 235.053C418.274 233.715 417.937 232.393 417.261 231.237C416.674 230.074 415.79 229.086 414.699 228.374C413.609 227.661 412.349 227.249 411.048 227.179C409.603 227.226 408.199 227.669 406.99 228.461C404.758 229.804 402.112 230.285 399.55 229.814C396.988 229.343 394.686 227.951 393.078 225.902C391.471 223.852 390.667 221.285 390.82 218.685C390.972 216.084 392.07 213.629 393.906 211.781C396.547 209.001 399.72 206.78 403.237 205.25C406.754 203.721 410.542 202.916 414.377 202.881C420.515 202.974 426.477 204.952 431.454 208.547C436.43 212.142 440.182 217.18 442.199 222.978C445.955 233.89 442.288 245.389 432.623 252.954C430.754 254.372 428.471 255.135 426.125 255.126L426.036 255.215Z" fill="#35215E"/>
  <path d="M487.912 275.312C486.453 275.31 485.008 275.026 483.657 274.475C482.945 274.226 479.474 273.105 476.412 272.143C445.048 262.139 438.248 259.131 434.866 255.695C433.206 254.023 432.08 251.895 431.63 249.582C431.18 247.269 431.426 244.874 432.338 242.701C436.913 231.753 460.819 226.573 466.159 226.573C468.44 226.525 470.699 227.026 472.745 228.033C489.354 236.471 501.227 256.603 498.806 266.554C498.236 269.034 496.844 271.249 494.857 272.839C492.87 274.429 490.403 275.3 487.858 275.312H487.912Z" fill="#35215E"/>
  <path d="M481.913 264.864C479.325 264.861 476.827 263.918 474.882 262.211C471.349 259.229 467.646 256.453 463.792 253.898C461.682 252.518 459.655 251.014 457.722 249.395C456.13 247.948 455.013 246.055 454.515 243.963C454.017 241.871 454.162 239.678 454.932 237.67C455.701 235.662 457.059 233.933 458.827 232.709C460.595 231.485 462.692 230.824 464.842 230.811C465.438 230.806 466.034 230.854 466.622 230.953C475.273 232.431 484.743 239.213 490.742 248.273C491.811 249.883 492.424 251.752 492.514 253.682C492.605 255.612 492.171 257.53 491.257 259.232C490.344 260.935 488.986 262.358 487.328 263.349C485.67 264.341 483.774 264.864 481.842 264.864H481.913Z" fill="#35215E"/>
  <path d="M412.686 257.742C411.422 257.745 410.161 257.65 408.912 257.457C402.701 256.456 397.094 253.157 393.201 248.215C389.309 243.273 387.416 237.048 387.897 230.776C388.379 224.503 391.2 218.641 395.801 214.351C400.403 210.061 406.448 207.657 412.739 207.615C413.996 207.622 415.251 207.717 416.495 207.9C419.745 208.391 422.864 209.526 425.67 211.237C428.476 212.949 430.912 215.203 432.836 217.868C435.549 221.604 437.179 226.015 437.548 230.617C437.918 235.219 437.011 239.834 434.929 243.954C432.847 248.075 429.669 251.542 425.745 253.974C421.821 256.406 417.302 257.71 412.686 257.742Z" fill="#35215E"/>
  <path d="M412.348 255.891C411.281 255.895 410.216 255.817 409.161 255.66C406.303 255.251 403.555 254.275 401.079 252.789C398.603 251.303 396.449 249.338 394.743 247.009C392.662 244.223 391.306 240.964 390.796 237.524C390.286 234.085 390.639 230.573 391.823 227.303C392.56 225.22 393.924 223.416 395.729 222.141C397.533 220.866 399.689 220.182 401.899 220.183H402.7C403.965 217.768 405.877 215.753 408.222 214.364C410.568 212.974 413.253 212.265 415.979 212.315C418.568 212.338 421.117 212.947 423.437 214.095C426.8 215.712 429.525 218.406 431.181 221.749C432.164 223.711 432.685 225.871 432.703 228.065C432.722 230.259 432.237 232.428 431.288 234.406C429.96 237.088 427.799 239.267 425.128 240.618C425.734 242.031 426.028 243.558 425.989 245.095C425.951 246.632 425.581 248.142 424.905 249.523C424.229 250.904 423.263 252.123 422.072 253.096C420.882 254.069 419.496 254.773 418.008 255.161C416.161 255.647 414.258 255.893 412.348 255.891Z" fill="#35215E"/>
  <path d="M286.407 393.722C286.787 396.299 287.352 398.845 288.098 401.34C288.098 401.34 283.452 399.222 281.957 395.537L278.397 400.539L271.828 409.867C271.828 409.867 279.572 425.069 279.483 427.098C273.11 425.692 267.2 432.438 267.2 432.438C279.661 433.667 275.513 455.063 267.2 452.713C273.11 466.313 280.141 458.285 280.729 435.215C283.434 436.995 292.815 450.275 281.832 452.713C291.961 471.102 302.944 447.64 287.956 434.165C295.735 434.717 307.732 444.08 298.441 452.713C301.823 461.614 308.445 456.932 309.424 450.275C311.204 438.152 299.687 430.053 288.49 427.294C287.244 426.973 281.138 413.142 281.138 413.142C281.138 413.142 290.252 406.627 292.157 403.779C292.311 403.587 292.432 403.371 292.513 403.138C290.081 400.275 288.028 397.11 286.407 393.722Z" fill="#2D1D1C"/>
  <path d="M438.319 405.186C435.15 400.718 430.504 400.701 425.663 403.513C414.982 403.922 398.41 402.73 388.281 406.308C385.195 403.019 382.295 399.56 379.594 395.948C375.055 397.941 372.029 399.223 372.029 399.223C372.919 397.443 373.898 396.25 373.667 393.883C372.317 395.714 370.661 397.298 368.771 398.564L382.371 415.974C394.354 415.434 406.22 413.382 417.688 409.868C413.024 414.817 405.993 428.309 412.543 434.13C413.629 416.49 423.651 411.203 428.244 409.868C433.762 415.048 433.673 433.329 433.904 439.542C441.79 439.542 439.832 419.854 437.82 411.666C439.003 412.246 440.015 413.123 440.758 414.211C443.695 418.305 445.421 426.672 445.208 432.404C454.357 432.404 448.501 405.489 438.319 405.186Z" fill="#2D1D1C"/>
  <path d="M405.441 368.587C405.441 368.587 298.886 408.052 348.105 373.109C338.029 370.439 308.747 385.071 331.692 385.783C335.982 385.908 313.429 394.274 299.224 385.979C282.901 376.42 271.579 371.133 283.844 381.653C302.214 397.425 275.211 386.139 265.545 379.873C242.742 364.992 253.084 376.758 258.424 383.024C240.499 371.685 240.624 367.003 233.165 351.428C233.165 351.428 234.411 357.337 235.64 362.197C229.302 355.878 225.992 337.062 225.903 337.187C225.08 339.162 224.529 341.24 224.265 343.364C222.965 340.551 221.986 338.113 221.274 336.243C268.909 311.945 316.206 331.188 288.437 300.375C303.14 294.163 351.807 271.467 339.631 249.073C347.713 268.031 292.869 283.802 278.415 289.908C302.553 316.609 257.837 311.536 211.573 327.13C212.103 332.352 213.171 337.506 214.759 342.509C214.759 337.436 215.827 335.941 215.827 335.941C215.827 337.721 216.735 346.087 220.295 350.181C219.805 348.2 219.805 346.129 220.295 344.147C220.295 344.147 223.037 356.501 227.042 362.606C227.143 360.284 227.501 357.979 228.11 355.735C228.11 355.735 228.982 360.613 230.335 365.294C230.958 368.089 231.563 371.703 233.681 374.195C234.393 375.031 233.895 371.151 234.625 371.952C246.801 385.231 261.041 395.128 278.433 400.54L281.993 395.538C283.488 399.223 288.134 401.341 288.134 401.341C287.388 398.845 286.823 396.299 286.443 393.722C288.072 397.073 290.124 400.202 292.549 403.032C292.467 403.264 292.347 403.481 292.192 403.673C306.049 405.703 320.131 405.65 333.971 403.512C333.971 404.776 331.123 405.969 331.123 405.969C340.717 405.969 355.83 402.231 366.724 396.179C366.755 397.77 366.336 399.337 365.514 400.7C366.19 400.486 372.26 396.41 373.667 393.882C373.898 396.179 372.919 397.442 372.029 399.222C372.029 399.222 414.092 381.422 421.515 373.429C421.266 375.197 420.554 376.868 419.45 378.271C425.883 374.427 431.694 369.625 436.681 364.03C436.681 364.03 384.187 383.807 405.441 368.587Z" fill="#AFBDC4"/>
  <path d="M444.834 351.962C443.552 353.261 425.716 360.862 422.797 356.074C419.877 351.285 437.892 332.933 427.087 336.404C416.281 339.875 379.025 361.183 362.221 359.064C345.417 356.946 347.072 340.73 352.341 335.389C356.702 331.046 341.75 338.522 338.528 335.888C335.306 333.253 349.992 325.207 341.056 323.427C332.12 321.647 328.844 313.049 347.268 294.323C336.41 295.551 340.059 285.636 361.348 266.785C376.087 253.755 364.909 250.871 360.69 242.897C362.701 242.897 378.134 246.261 380.805 246.457C375.82 242.363 358.465 237.984 358.465 237.984C364.998 238.571 378.045 241.081 378.045 241.081C357.165 233.747 334.558 233.035 322.205 235.153C332.404 239.888 337.762 244.517 339.667 248.967C351.843 271.36 303.176 294.056 288.472 300.268C316.241 331.082 268.891 311.839 221.31 336.137C222.022 337.917 223.09 340.409 224.3 343.257C224.565 341.134 225.116 339.056 225.938 337.08C225.938 336.956 229.338 355.771 235.675 362.09C234.447 357.231 233.201 351.321 233.201 351.321C240.695 366.879 240.535 371.578 258.46 382.917C253.12 376.651 242.778 364.885 265.58 379.767C275.246 386.086 302.25 397.372 283.88 381.547C271.615 371.026 282.936 376.313 299.259 385.872C313.5 394.167 336.018 385.872 331.728 385.676C308.783 384.964 338.065 370.332 348.14 373.002C298.921 407.945 405.476 368.481 405.476 368.481C384.222 383.701 436.77 363.995 436.77 363.995C436.741 364.073 436.699 364.145 436.646 364.209C436.646 364.209 436.646 364.209 436.646 364.298L436.379 364.618L436.254 364.743L435.827 365.206L435.684 365.366L435.061 366.007L434.919 366.131L434.118 366.932L433.993 367.057L433.014 368L432.907 368.089C432.534 368.445 432.16 368.801 431.75 369.157L430.397 370.35C430.397 370.35 442.52 361.734 447.397 355.789C445.706 357.444 446.169 350.662 444.834 351.962Z" fill="#EEEAE8"/>
  <path d="M227.006 362.482C223.001 356.376 220.26 344.023 220.26 344.023C219.77 346.004 219.77 348.076 220.26 350.057C216.29 345.518 215.792 335.817 215.792 335.817C215.792 335.817 214.724 337.312 214.724 342.385C213.144 337.401 212.1 332.264 211.609 327.059C197.131 331.667 183.562 338.75 171.503 347.992C172.287 350.929 197.404 347.227 205.877 345.821C179.176 361.574 181.418 370.065 189.304 366.683C135.19 434.326 224.532 368.819 230.246 365.17C228.893 360.488 228.021 355.611 228.021 355.611C227.43 357.857 227.09 360.161 227.006 362.482Z" fill="#2D1D1C"/>
  <path d="M373.916 234.477C373.916 234.477 380.395 243.146 388.904 246.314C387.658 244.321 383.564 236.791 384.792 228.78C384.988 227.517 381.908 238.428 381.837 237.076C381.036 219.453 392.037 210.553 401.542 208.363C403.323 207.954 393.764 207.42 395.775 206.868C411.155 202.596 421.818 207.099 427.816 213.507C426.499 209.609 422.619 206.387 423.793 206.957C433.548 211.923 439.351 228.318 468.883 228.727C471.855 224.49 472.443 213.81 472.621 212.404C472.799 210.998 469.47 221.874 469.452 220.557C469.168 201.1 458.167 182.783 458.167 182.783C458.9 185.939 459.388 189.147 459.626 192.378C428.991 144.458 331.977 119.11 269.479 225.594C257.517 231.041 236.672 238.553 231.456 258.721C211.075 270.79 188.272 292.187 196.14 302.369C186.421 309.881 186.332 318.585 186.332 318.585C180.226 324.922 167.338 344.788 171.557 347.992C225.084 305.555 309.797 324.655 278.468 289.89C296.269 282.343 375.803 260.074 322.222 235.242C334.576 233.124 357.183 233.836 378.063 241.17C375.9 239.529 374.422 237.144 373.916 234.477Z" fill="#4E342E"/>
  <path d="M258.425 282.342C236.69 287.683 206.233 297.295 196.122 302.368C199.113 289.694 223.108 285.689 258.425 282.342ZM231.403 258.721C241.55 253.648 253.832 254.983 275.549 249.625C240.232 252.971 236.939 250.372 231.403 258.721ZM269.425 225.594C279.857 222.834 297.195 227.765 309.459 230.168C294.525 222.977 274.979 217.245 269.425 225.594ZM200.893 313.155C249.453 302.653 261.504 298.755 281.37 293.468C280.533 292.346 279.59 291.154 278.415 289.908C272.096 291.136 248.937 300.072 200.893 313.155Z" fill="#2D1D1C"/>
  <path d="M461.673 192.359C462.991 195.225 467.868 208.896 467.405 214.735C465.625 210.659 448.981 183.513 442.644 178.706C447.433 180.967 456.209 189.832 461.994 198.999C461.746 196.795 461.639 194.577 461.673 192.359ZM425.751 184.082C416.754 176.023 405.894 170.326 394.149 167.505C382.404 164.683 370.141 164.826 358.465 167.919C395.828 165.427 415.587 178.867 425.751 184.082ZM421.889 203.663C408.894 194.941 399.389 198.038 393.853 201.153C403.24 199.195 412.998 200.068 421.889 203.663ZM433.708 170.732C422.495 161.921 409.066 156.377 394.903 154.711C400.368 157.381 418.507 163.291 433.708 170.732ZM326.263 243.501C330.482 247.061 336.944 258.721 231.332 300.357C328.684 269.526 343.815 252.9 326.334 243.501H326.263ZM197.991 294.66C202.708 289.32 230.798 279.423 254.74 281.363C230.513 275.293 204.898 280.651 198.062 294.66H197.991ZM235.034 253.007C244.647 246.545 269.354 248.432 283.203 245.602C268.5 238.57 244.006 235.704 235.106 253.007H235.034ZM175.277 340.23C179.994 334.89 240.731 310.574 264.69 312.515C240.446 306.444 182.202 326.257 175.348 340.248L175.277 340.23Z" fill="#63463D"/>
  <path d="M475.505 307.62C475.095 300.055 474.597 292.703 468.634 275.063C468.117 272.855 467.655 270.879 467.352 269.171C465.785 260.537 466.693 247.329 467.637 238.375L469.719 240.796C469.719 235.456 469.951 233.943 473.814 231.255C472.734 231.134 471.642 231.301 470.648 231.739C469.654 232.177 468.793 232.869 468.153 233.747C468.527 230.65 468.829 228.727 468.829 228.727C439.298 228.353 433.495 211.923 423.74 206.957C422.565 206.352 426.446 209.609 427.763 213.508C421.818 207.099 411.155 202.596 395.722 206.868C393.71 207.42 403.269 207.954 401.489 208.363C391.984 210.553 380.983 219.453 381.784 237.076C381.784 238.429 384.934 227.517 384.739 228.781C383.528 236.791 387.605 244.321 388.851 246.314C380.342 243.146 373.862 234.477 373.862 234.477C374.355 237.137 375.813 239.52 377.957 241.17C377.957 241.17 364.944 238.66 358.376 238.073C358.376 238.073 375.731 242.452 380.716 246.546C378.046 246.368 362.612 242.986 360.601 242.986C364.82 250.96 375.999 253.844 361.259 266.874C339.899 285.725 336.338 295.64 347.179 294.412C328.755 313.138 332.048 321.718 340.967 323.516C349.885 325.314 335.199 333.289 338.439 335.977C341.679 338.665 356.614 331.135 352.252 335.478C346.912 340.73 345.328 356.999 362.132 359.1C378.936 361.2 416.193 339.929 426.998 336.44C437.803 332.951 419.788 351.392 422.708 356.109C425.627 360.827 443.463 353.297 444.745 351.997C446.027 350.698 445.617 357.48 447.112 356.003C467.352 332.755 472.033 312.569 471.695 296.869C473.084 300.589 474.828 305.626 475.505 307.62Z" fill="#E45325"/>
  <path d="M412.953 250.444L411.742 250.569L410.336 250.693C409.695 250.693 409.09 250.693 408.36 250.551C404.514 250.024 401.001 248.089 398.499 245.122C396.009 242.16 394.675 238.398 394.743 234.53C394.769 233.401 394.924 232.278 395.205 231.184C395.302 230.786 395.421 230.394 395.561 230.009C395.561 230.009 395.561 230.489 395.561 231.219C395.638 232.292 395.798 233.358 396.042 234.406C396.806 237.695 398.358 240.749 400.563 243.306C402.733 245.895 405.509 247.907 408.645 249.162C409.25 249.412 409.873 249.625 410.318 249.768L411.707 250.088L412.953 250.444ZM465.305 314.028C471.802 302.956 470.645 283.945 463.525 275.08C467.245 280.438 468.74 309.436 465.305 314.028Z" fill="#F27021"/>
  <path d="M344.456 333.128C360.708 331.437 377.832 323.427 386.75 308.563C372.26 320.151 357.29 326.097 344.456 333.128ZM404.159 342.883C416.086 339.768 430.967 333.591 436.735 321.913C424.399 331.686 414.662 338.041 404.159 342.883ZM444.994 349.327C452.221 343.292 456.956 333.306 457.17 326.292C452.631 335.78 452.043 336.136 444.994 349.327ZM447.041 322.768C453.129 315.648 456.12 304.967 455.123 298.007C452.257 308.118 451.741 308.563 447.041 322.768ZM365.158 352.317C373.007 351.405 380.472 348.419 386.786 343.666C379.295 345.855 372.029 348.752 365.087 352.317H365.158ZM394.974 322.821C401.774 320.027 416.887 308.581 420.518 298.862C411.778 309.257 398 319.706 394.903 322.821H394.974ZM348.176 295.657C359.325 292.985 369.169 286.452 375.963 277.216C364.286 287.149 351.718 293.147 348.105 295.657H348.176ZM401.578 219.239C419.379 201.438 445.813 229.065 426.161 244.445C436.04 228.869 418.507 209.003 401.542 219.239H401.578Z" fill="#BD3926"/>
  <path d="M442.449 248.165C446.116 251.868 484.102 263.154 487.591 264.542C491.08 265.931 484.725 246.047 467.904 237.521C464.076 235.563 438.746 244.445 442.449 248.165Z" fill="#231F20"/>
  <path d="M481.913 254.181C476.911 246.616 469.559 242.272 464.913 241.489C467.263 243.625 475.238 248.325 481.913 254.181Z" fill="white"/>
  <path d="M426.707 233.795C427.899 225.931 422.553 218.599 414.767 217.419C406.98 216.24 399.703 221.658 398.511 229.523C397.32 237.387 402.666 244.718 410.452 245.898C418.238 247.078 425.516 241.659 426.707 233.795Z" fill="#231F20"/>
  <path d="M420.091 231.201C418.964 229.406 417.328 227.987 415.392 227.124C414.27 226.569 413.069 226.191 411.831 226.003C411.884 225.683 411.98 225.372 412.116 225.077C413.113 223.03 416.05 222.389 418.667 223.671C421.284 224.953 422.601 227.641 421.586 229.706C421.259 230.35 420.736 230.874 420.091 231.201ZM412.526 244.729C409.277 244.286 406.333 242.58 404.334 239.981C402.334 237.381 401.44 234.099 401.845 230.845C401.297 232.366 401.101 233.992 401.273 235.6C401.444 237.208 401.979 238.756 402.836 240.127C403.693 241.499 404.85 242.657 406.22 243.516C407.59 244.375 409.138 244.912 410.746 245.085C412.284 245.312 413.853 245.221 415.356 244.818C414.412 244.898 413.462 244.868 412.526 244.729Z" fill="white"/>
  <g style="mix-blend-mode:color" opacity="0.68">
    <path d="M353.32 246.385L477.926 289.107C527.768 264.186 492.166 178.743 492.166 178.743C492.166 178.743 308.818 82.6186 353.32 246.385Z" fill="#35215E"/>
  </g>
  <g style="mix-blend-mode:screen" opacity="0.82">
    <path d="M472.585 184.083L488.606 187.643C488.606 187.643 502.846 239.265 492.166 246.386C481.486 253.506 469.025 241.045 469.025 241.045C469.025 241.045 481.486 189.423 472.585 184.083Z" fill="#F770A8"/>
  </g>
  <g style="mix-blend-mode:screen" opacity="0.82">
    <path d="M465.305 256.692L488.606 264.187C488.606 264.187 485.046 276.647 477.926 278.427C470.805 280.207 451.224 269.527 454.785 267.747C458.345 265.967 465.305 256.692 465.305 256.692Z" fill="#F770A8"/>
  </g>
  <path d="M269.674 225.629C269.674 225.629 342.337 307.709 473.297 307.709C475.909 306.143 478.1 303.965 479.682 301.363C481.263 298.761 482.188 295.813 482.376 292.774L279.607 210.125C279.607 210.125 267.841 216.302 269.674 225.629Z" fill="white" stroke="#35215E" stroke-width="2" stroke-miterlimit="10"/>
  <path d="M282.117 210.784C282.117 210.784 280.907 120 387.142 120C488.606 120 492.166 178.742 492.166 178.742C492.166 178.742 311.488 102.199 351.54 239.265C297.248 228.585 282.117 210.784 282.117 210.784Z" fill="white" stroke="#35215E" stroke-width="2" stroke-miterlimit="10"/>
  <path d="M350.65 258.758C367.854 258.758 381.801 244.811 381.801 227.606C381.801 210.402 367.854 196.455 350.65 196.455C333.446 196.455 319.499 210.402 319.499 227.606C319.499 244.811 333.446 258.758 350.65 258.758Z" fill="white" stroke="#35215E" stroke-width="2" stroke-miterlimit="10"/>
  <path d="M478.815 289.908C478.815 289.908 525.097 263.207 491.276 177.764L478.815 289.908Z" fill="white"/>
  <path d="M478.815 289.908C478.815 289.908 525.097 263.207 491.276 177.764" stroke="#35215E" stroke-width="2" stroke-miterlimit="10"/>
  <path d="M278.557 221.464C278.557 221.464 301.698 285.547 465.465 301.567C333.027 283.41 278.557 221.464 278.557 221.464Z" fill="#9EDDEF"/>
  <path d="M289.238 210.784C284.556 205.817 301.698 84.3984 456.565 141.361C319.499 95.0789 282.829 222.87 289.238 210.784Z" fill="#9EDDEF"/>
  <path d="M351.54 205.443C351.54 205.443 326.619 207.223 326.619 228.584C326.619 251.725 339.08 248.165 347.98 253.505C356.88 258.846 305.258 226.804 351.54 205.443Z" fill="#9EDDEF"/>
</svg>
