<svg xmlns="http://www.w3.org/2000/svg" width="224" height="72" fill="none">
 <rect width="224" height="72" rx="8" fill="#3d3d46"/>
 <path d="M77.162 26v-9.156h2.45c1.4 0 2.492.378 3.276 1.134s1.176 1.89 1.176 3.402c0 .756-.103 1.423-.308 2.002-.196.579-.485 1.064-.868 1.456a3.59 3.59 0 0 1-1.372.868c-.532.196-1.139.294-1.82.294h-2.534zm1.624-1.316h.714c.933 0 1.647-.266 2.142-.798.504-.541.756-1.377.756-2.506 0-1.12-.252-1.937-.756-2.45s-1.218-.77-2.142-.77h-.714v6.524zm10.682 1.484c-.597 0-1.143-.107-1.638-.322-.495-.224-.919-.541-1.274-.952-.355-.42-.63-.924-.826-1.512s-.294-1.255-.294-2.002c0-.737.098-1.395.294-1.974.196-.588.471-1.083.826-1.484a3.59 3.59 0 0 1 1.274-.924c.495-.215 1.041-.322 1.638-.322s1.143.107 1.638.322a3.59 3.59 0 0 1 1.274.924c.364.401.644.896.84 1.484.196.579.294 1.237.294 1.974 0 .747-.098 1.414-.294 2.002s-.476 1.092-.84 1.512c-.355.411-.779.728-1.274.952-.495.215-1.041.322-1.638.322zm0-1.414a2 2 0 0 0 .98-.238 2.21 2.21 0 0 0 .742-.672c.205-.299.364-.653.476-1.064.112-.42.168-.887.168-1.4 0-1.027-.215-1.829-.644-2.408a2 2 0 0 0-1.722-.882c-.728 0-1.307.294-1.736.882-.42.579-.63 1.381-.63 2.408 0 .513.056.98.168 1.4.112.411.271.765.476 1.064a2.21 2.21 0 0 0 .742.672 2 2 0 0 0 .98.238zM96.201 26l-1.82-9.156h1.666l.798 4.62.224 1.47.224 1.456h.056l.294-1.456.308-1.47 1.12-4.62h1.414l1.12 4.62.308 1.456.308 1.47h.056l.21-1.47.224-1.456.798-4.62h1.554L103.313 26h-2.016l-1.134-4.816-.224-1.05-.182-1.064h-.056l-.21 1.064-.21 1.05L98.175 26h-1.974zm10.287 0v-9.156h1.666l2.856 5.152.938 1.946h.056l-.14-1.526-.07-1.596v-3.976h1.554V26h-1.666l-2.856-5.152-.938-1.946h-.056l.126 1.526a14.98 14.98 0 0 1 .084 1.568V26h-1.554zm9.188 0v-9.156h1.624v7.784h3.808V26h-5.432zm10.146.168c-.598 0-1.144-.107-1.638-.322-.495-.224-.92-.541-1.274-.952-.355-.42-.63-.924-.826-1.512s-.294-1.255-.294-2.002c0-.737.098-1.395.294-1.974.196-.588.471-1.083.826-1.484a3.59 3.59 0 0 1 1.274-.924c.495-.215 1.04-.322 1.638-.322s1.143.107 1.638.322a3.59 3.59 0 0 1 1.274.924c.364.401.644.896.84 1.484.196.579.294 1.237.294 1.974 0 .747-.098 1.414-.294 2.002s-.476 1.092-.84 1.512a3.66 3.66 0 0 1-1.274.952c-.495.215-1.041.322-1.638.322zm0-1.414c.364 0 .69-.079.98-.238s.536-.383.742-.672c.205-.299.364-.653.476-1.064.112-.42.168-.887.168-1.4 0-1.027-.215-1.829-.644-2.408a2 2 0 0 0-1.722-.882c-.728 0-1.307.294-1.736.882-.42.579-.63 1.381-.63 2.408 0 .513.056.98.168 1.4.112.411.27.765.476 1.064a2.2 2.2 0 0 0 .742.672 2 2 0 0 0 .98.238zm7.616-3.626l-.322 1.12h2.338l-.322-1.12-.434-1.498-.392-1.526h-.056l-.392 1.54-.42 1.484zM130.372 26l2.982-9.156h1.904L138.24 26h-1.708l-.714-2.478h-3.08L132.024 26h-1.652zm8.997 0v-9.156h2.45c1.4 0 2.492.378 3.276 1.134s1.176 1.89 1.176 3.402c0 .756-.103 1.423-.308 2.002-.196.579-.485 1.064-.868 1.456a3.59 3.59 0 0 1-1.372.868c-.532.196-1.139.294-1.82.294h-2.534zm1.624-1.316h.714c.933 0 1.647-.266 2.142-.798.504-.541.756-1.377.756-2.506 0-1.12-.252-1.937-.756-2.45s-1.218-.77-2.142-.77h-.714v6.524zM150.922 26v-9.156h5.53v1.372h-3.906v2.59h3.332v1.372h-3.332V26h-1.624zm10.556.168c-.598 0-1.144-.107-1.638-.322-.495-.224-.92-.541-1.274-.952-.355-.42-.63-.924-.826-1.512s-.294-1.255-.294-2.002c0-.737.098-1.395.294-1.974.196-.588.471-1.083.826-1.484a3.59 3.59 0 0 1 1.274-.924c.495-.215 1.04-.322 1.638-.322s1.143.107 1.638.322a3.59 3.59 0 0 1 1.274.924c.364.401.644.896.84 1.484.196.579.294 1.237.294 1.974 0 .747-.098 1.414-.294 2.002s-.476 1.092-.84 1.512a3.66 3.66 0 0 1-1.274.952c-.495.215-1.041.322-1.638.322zm0-1.414c.364 0 .69-.079.98-.238s.536-.383.742-.672c.205-.299.364-.653.476-1.064.112-.42.168-.887.168-1.4 0-1.027-.215-1.829-.644-2.408a2 2 0 0 0-1.722-.882c-.728 0-1.307.294-1.736.882-.42.579-.63 1.381-.63 2.408 0 .513.056.98.168 1.4.112.411.27.765.476 1.064a2.2 2.2 0 0 0 .742.672 2 2 0 0 0 .98.238zM167.355 26v-9.156h3.094a6.01 6.01 0 0 1 1.33.14c.41.093.766.247 1.064.462.299.205.532.481.7.826.178.345.266.775.266 1.288 0 .7-.168 1.265-.504 1.694-.326.429-.765.737-1.316.924L174.173 26h-1.82l-1.974-3.584h-1.4V26h-1.624zm1.624-4.872h1.302c.626 0 1.102-.131 1.428-.392.336-.261.504-.653.504-1.176 0-.532-.168-.901-.504-1.106-.326-.205-.802-.308-1.428-.308h-1.302v2.982zM78.156 55V36.744h4.508l2.94 8.12.532 1.68.532 1.68h.112l.504-1.68.532-1.68 2.884-8.12h4.48V55h-3.752v-6.692l.056-1.484.14-1.624.168-1.624.168-1.484h-.112l-1.484 4.34-2.604 6.972h-2.268l-2.604-6.972-1.456-4.34h-.112l.168 1.484.168 1.624.14 1.624.056 1.484V55h-3.696zm25.612-9.24l-.448 1.68h3.892l-.42-1.68-.756-2.912-.728-2.968h-.112l-.7 2.996-.728 2.884zM97.16 55l5.712-18.256h4.956L113.54 55h-4.368l-1.12-4.34h-5.572L101.36 55h-4.2zm25.717.336c-1.157 0-2.249-.196-3.276-.588a8.02 8.02 0 0 1-2.716-1.792c-.765-.784-1.372-1.755-1.82-2.912-.448-1.176-.672-2.529-.672-4.06 0-1.512.234-2.856.7-4.032.467-1.195 1.092-2.203 1.876-3.024a7.91 7.91 0 0 1 2.744-1.876 8.62 8.62 0 0 1 3.304-.644c1.176 0 2.231.243 3.164.728.934.467 1.708 1.017 2.324 1.652l-2.184 2.632c-.466-.429-.961-.775-1.484-1.036-.504-.28-1.082-.42-1.736-.42-.616 0-1.204.14-1.764.42a4.18 4.18 0 0 0-1.428 1.148c-.392.504-.709 1.12-.952 1.848-.224.728-.336 1.549-.336 2.464 0 1.885.402 3.351 1.204 4.396.803 1.027 1.876 1.54 3.22 1.54.747 0 1.41-.159 1.988-.476a6.35 6.35 0 0 0 1.568-1.232l2.184 2.576c-1.53 1.792-3.5 2.688-5.908 2.688zm-63.694-7.709c-.7 1.642-1.529 3.154-2.489 4.543-1.309 1.894-2.381 3.206-3.207 3.934-1.28 1.195-2.652 1.807-4.121 1.842-1.055 0-2.326-.305-3.807-.923s-2.85-.92-4.098-.92c-1.309 0-2.713.305-4.214.92s-2.715.94-3.642.972c-1.409.061-2.813-.569-4.214-1.892-.895-.792-2.014-2.15-3.354-4.073-1.438-2.054-2.62-4.436-3.547-7.151-.993-2.932-1.49-5.772-1.49-8.522 0-3.15.671-5.866 2.013-8.143 1.055-1.829 2.46-3.271 4.217-4.33a11.21 11.21 0 0 1 5.701-1.633c1.119 0 2.586.351 4.41 1.042 1.818.693 2.986 1.044 3.498 1.044.383 0 1.68-.411 3.878-1.23 2.079-.76 3.834-1.074 5.272-.95 3.895.319 6.822 1.878 8.768 4.686-3.484 2.143-5.207 5.144-5.173 8.994.032 2.999 1.103 5.495 3.21 7.476.955.92 2.021 1.63 3.207 2.135a36.04 36.04 0 0 1-.817 2.179zM50.249 11.94c0 2.351-.846 4.545-2.532 6.577-2.035 2.415-4.496 3.81-7.165 3.59a7.43 7.43 0 0 1-.054-.891c0-2.256.968-4.671 2.686-6.646.858-1 1.949-1.831 3.272-2.494 1.32-.653 2.569-1.014 3.744-1.076.034.314.049.629.049.94h0z" fill="#fff"/>
 <path d="m160.37 40.773v9.8242c0 0.576 0.10698 1.0119 0.32031 1.3105s0.57093 0.44922 1.0723 0.44922c0.18133 0 0.32993-0.01187 0.44726-0.033203 0.11733-0.021334 0.21936-0.053037 0.30469-0.095703l-0.17578-0.99219c-0.07467 0.021333-0.13312 0.033203-0.17578 0.033203h-0.11133c-0.096 0-0.18119-0.043573-0.25586-0.12891s-0.11328-0.23393-0.11328-0.44727v-9.9199h-1.3125zm-25.135 0.32031c-0.256 0-0.47491 0.078281-0.65625 0.23828-0.17066 0.14933-0.25586 0.35338-0.25586 0.60938 0 0.24533 0.0852 0.44742 0.25586 0.60742 0.18134 0.16 0.40025 0.24024 0.65625 0.24023 0.256 0 0.46801-0.080234 0.63867-0.24023 0.18134-0.16 0.27344-0.36209 0.27344-0.60742 0-0.256-0.0921-0.46004-0.27344-0.60938-0.17066-0.16-0.38267-0.23828-0.63867-0.23828zm12.467 1.1191-0.16016 2.1758-1.2148 0.080078v0.99219h1.1523v4.3047c0 0.384 0.03666 0.73469 0.11133 1.0547 0.07467 0.32 0.19652 0.59241 0.36719 0.81641 0.18133 0.224 0.41212 0.39934 0.68945 0.52734 0.288 0.128 0.63869 0.19336 1.0547 0.19336 0.24533 0 0.49099-0.031703 0.73633-0.095703 0.256-0.053334 0.49174-0.11869 0.70507-0.19336l-0.25585-0.99219c-0.128 0.053333-0.2736 0.10186-0.4336 0.14453-0.16 0.042667-0.3086 0.064453-0.44726 0.064453-0.448 0-0.76203-0.12877-0.94336-0.38476-0.17067-0.26667-0.25586-0.63914-0.25586-1.1191v-4.3203h2.0957v-1.0723h-2.0957v-2.1758h-1.1055zm-5.3438 1.9844c-0.544 0-1.0234 0.12681-1.4394 0.38281-0.40534 0.24533-0.79464 0.55636-1.168 0.92969h-0.04883l-0.11133-1.1211h-1.0879v7.7754h1.3125v-5.6309c0.39467-0.39467 0.74535-0.69382 1.0547-0.89648 0.30933-0.20267 0.66693-0.30469 1.0723-0.30469 0.512 0 0.88643 0.16543 1.1211 0.49609 0.23466 0.32 0.35156 0.84798 0.35156 1.584v4.752h1.3125v-4.9277c0-1.0027-0.19217-1.7595-0.57617-2.2715-0.37334-0.512-0.97164-0.76758-1.793-0.76758zm12.994 0c-0.448 0-0.87892 0.095109-1.2949 0.28711-0.416 0.18133-0.79043 0.44878-1.1211 0.80078-0.32 0.352-0.58053 0.78292-0.7832 1.2949-0.192 0.50133-0.28906 1.0729-0.28906 1.7129 0 0.64 0.09706 1.2116 0.28906 1.7129 0.192 0.50133 0.45254 0.9273 0.7832 1.2793 0.34134 0.34133 0.7356 0.60878 1.1836 0.80078 0.45866 0.18133 0.94999 0.27148 1.4726 0.27148 0.53334 0 1.0078-0.080235 1.4238-0.24023 0.416-0.16 0.79539-0.34721 1.1367-0.56055l-0.46484-0.86328c-0.288 0.18133-0.59211 0.32993-0.91211 0.44727-0.30934 0.10667-0.65011 0.16016-1.0234 0.16016-0.74667 0-1.3549-0.2407-1.8242-0.7207-0.45866-0.49067-0.71424-1.1504-0.76758-1.9824h5.248c0.02133-0.096 0.03125-0.20794 0.03125-0.33594 0.01067-0.13867 0.01562-0.27735 0.01562-0.41602 0-0.55467-0.06836-1.0559-0.20703-1.5039-0.13866-0.448-0.34075-0.83234-0.60742-1.1523-0.256-0.32-0.58189-0.56566-0.97656-0.73633-0.384-0.17067-0.82183-0.25586-1.3125-0.25586zm-20.789 0.19141v7.7754h1.3105v-7.7754h-1.3105zm20.822 0.84766c0.608 0 1.0756 0.209 1.4062 0.625 0.34134 0.40533 0.51367 1.0017 0.51367 1.791h-4.1602c0.04266-0.384 0.12786-0.72477 0.25586-1.0234 0.13866-0.29867 0.30905-0.54929 0.51172-0.75195 0.20266-0.21333 0.42654-0.3738 0.67187-0.48047 0.256-0.10667 0.52345-0.16016 0.80078-0.16016z" fill="#fff" />
</svg>
