<svg xmlns="http://www.w3.org/2000/svg" width="224" height="72" fill="none">
 <rect width="224" height="72" rx="8" fill="#3d3d46"/>
 <path d="M77.162 26v-9.156h2.45c1.4 0 2.492.378 3.276 1.134s1.176 1.89 1.176 3.402c0 .756-.103 1.423-.308 2.002-.196.579-.485 1.064-.868 1.456a3.59 3.59 0 0 1-1.372.868c-.532.196-1.139.294-1.82.294h-2.534zm1.624-1.316h.714c.933 0 1.647-.266 2.142-.798.504-.541.756-1.377.756-2.506 0-1.12-.252-1.937-.756-2.45s-1.218-.77-2.142-.77h-.714v6.524zm10.682 1.484c-.597 0-1.143-.107-1.638-.322-.495-.224-.919-.541-1.274-.952-.355-.42-.63-.924-.826-1.512s-.294-1.255-.294-2.002c0-.737.098-1.395.294-1.974.196-.588.471-1.083.826-1.484a3.59 3.59 0 0 1 1.274-.924c.495-.215 1.041-.322 1.638-.322s1.143.107 1.638.322a3.59 3.59 0 0 1 1.274.924c.364.401.644.896.84 1.484.196.579.294 1.237.294 1.974 0 .747-.098 1.414-.294 2.002s-.476 1.092-.84 1.512c-.355.411-.779.728-1.274.952-.495.215-1.041.322-1.638.322zm0-1.414a2 2 0 0 0 .98-.238 2.21 2.21 0 0 0 .742-.672c.205-.299.364-.653.476-1.064.112-.42.168-.887.168-1.4 0-1.027-.215-1.829-.644-2.408a2 2 0 0 0-1.722-.882c-.728 0-1.307.294-1.736.882-.42.579-.63 1.381-.63 2.408 0 .513.056.98.168 1.4.112.411.271.765.476 1.064a2.21 2.21 0 0 0 .742.672 2 2 0 0 0 .98.238zM96.201 26l-1.82-9.156h1.666l.798 4.62.224 1.47.224 1.456h.056l.294-1.456.308-1.47 1.12-4.62h1.414l1.12 4.62.308 1.456.308 1.47h.056l.21-1.47.224-1.456.798-4.62h1.554L103.313 26h-2.016l-1.134-4.816-.224-1.05-.182-1.064h-.056l-.21 1.064-.21 1.05L98.175 26h-1.974zm10.287 0v-9.156h1.666l2.856 5.152.938 1.946h.056l-.14-1.526-.07-1.596v-3.976h1.554V26h-1.666l-2.856-5.152-.938-1.946h-.056l.126 1.526a14.98 14.98 0 0 1 .084 1.568V26h-1.554zm9.188 0v-9.156h1.624v7.784h3.808V26h-5.432zm10.146.168c-.598 0-1.144-.107-1.638-.322-.495-.224-.92-.541-1.274-.952-.355-.42-.63-.924-.826-1.512s-.294-1.255-.294-2.002c0-.737.098-1.395.294-1.974.196-.588.471-1.083.826-1.484a3.59 3.59 0 0 1 1.274-.924c.495-.215 1.04-.322 1.638-.322s1.143.107 1.638.322a3.59 3.59 0 0 1 1.274.924c.364.401.644.896.84 1.484.196.579.294 1.237.294 1.974 0 .747-.098 1.414-.294 2.002s-.476 1.092-.84 1.512a3.66 3.66 0 0 1-1.274.952c-.495.215-1.041.322-1.638.322zm0-1.414c.364 0 .69-.079.98-.238s.536-.383.742-.672c.205-.299.364-.653.476-1.064.112-.42.168-.887.168-1.4 0-1.027-.215-1.829-.644-2.408a2 2 0 0 0-1.722-.882c-.728 0-1.307.294-1.736.882-.42.579-.63 1.381-.63 2.408 0 .513.056.98.168 1.4.112.411.27.765.476 1.064a2.2 2.2 0 0 0 .742.672 2 2 0 0 0 .98.238zm7.616-3.626l-.322 1.12h2.338l-.322-1.12-.434-1.498-.392-1.526h-.056l-.392 1.54-.42 1.484zM130.372 26l2.982-9.156h1.904L138.24 26h-1.708l-.714-2.478h-3.08L132.024 26h-1.652zm8.997 0v-9.156h2.45c1.4 0 2.492.378 3.276 1.134s1.176 1.89 1.176 3.402c0 .756-.103 1.423-.308 2.002-.196.579-.485 1.064-.868 1.456a3.59 3.59 0 0 1-1.372.868c-.532.196-1.139.294-1.82.294h-2.534zm1.624-1.316h.714c.933 0 1.647-.266 2.142-.798.504-.541.756-1.377.756-2.506 0-1.12-.252-1.937-.756-2.45s-1.218-.77-2.142-.77h-.714v6.524zM150.922 26v-9.156h5.53v1.372h-3.906v2.59h3.332v1.372h-3.332V26h-1.624zm10.556.168c-.598 0-1.144-.107-1.638-.322-.495-.224-.92-.541-1.274-.952-.355-.42-.63-.924-.826-1.512s-.294-1.255-.294-2.002c0-.737.098-1.395.294-1.974.196-.588.471-1.083.826-1.484a3.59 3.59 0 0 1 1.274-.924c.495-.215 1.04-.322 1.638-.322s1.143.107 1.638.322a3.59 3.59 0 0 1 1.274.924c.364.401.644.896.84 1.484.196.579.294 1.237.294 1.974 0 .747-.098 1.414-.294 2.002s-.476 1.092-.84 1.512a3.66 3.66 0 0 1-1.274.952c-.495.215-1.041.322-1.638.322zm0-1.414c.364 0 .69-.079.98-.238s.536-.383.742-.672c.205-.299.364-.653.476-1.064.112-.42.168-.887.168-1.4 0-1.027-.215-1.829-.644-2.408a2 2 0 0 0-1.722-.882c-.728 0-1.307.294-1.736.882-.42.579-.63 1.381-.63 2.408 0 .513.056.98.168 1.4.112.411.27.765.476 1.064a2.2 2.2 0 0 0 .742.672 2 2 0 0 0 .98.238zM167.355 26v-9.156h3.094a6.01 6.01 0 0 1 1.33.14c.41.093.766.247 1.064.462.299.205.532.481.7.826.178.345.266.775.266 1.288 0 .7-.168 1.265-.504 1.694-.326.429-.765.737-1.316.924L174.173 26h-1.82l-1.974-3.584h-1.4V26h-1.624zm1.624-4.872h1.302c.626 0 1.102-.131 1.428-.392.336-.261.504-.653.504-1.176 0-.532-.168-.901-.504-1.106-.326-.205-.802-.308-1.428-.308h-1.302v2.982zM78.156 55V36.744h4.508l2.94 8.12.532 1.68.532 1.68h.112l.504-1.68.532-1.68 2.884-8.12h4.48V55h-3.752v-6.692l.056-1.484.14-1.624.168-1.624.168-1.484h-.112l-1.484 4.34-2.604 6.972h-2.268l-2.604-6.972-1.456-4.34h-.112l.168 1.484.168 1.624.14 1.624.056 1.484V55h-3.696zm25.612-9.24l-.448 1.68h3.892l-.42-1.68-.756-2.912-.728-2.968h-.112l-.7 2.996-.728 2.884zM97.16 55l5.712-18.256h4.956L113.54 55h-4.368l-1.12-4.34h-5.572L101.36 55h-4.2zm25.717.336c-1.157 0-2.249-.196-3.276-.588a8.02 8.02 0 0 1-2.716-1.792c-.765-.784-1.372-1.755-1.82-2.912-.448-1.176-.672-2.529-.672-4.06 0-1.512.234-2.856.7-4.032.467-1.195 1.092-2.203 1.876-3.024a7.91 7.91 0 0 1 2.744-1.876 8.62 8.62 0 0 1 3.304-.644c1.176 0 2.231.243 3.164.728.934.467 1.708 1.017 2.324 1.652l-2.184 2.632c-.466-.429-.961-.775-1.484-1.036-.504-.28-1.082-.42-1.736-.42-.616 0-1.204.14-1.764.42a4.18 4.18 0 0 0-1.428 1.148c-.392.504-.709 1.12-.952 1.848-.224.728-.336 1.549-.336 2.464 0 1.885.402 3.351 1.204 4.396.803 1.027 1.876 1.54 3.22 1.54.747 0 1.41-.159 1.988-.476a6.35 6.35 0 0 0 1.568-1.232l2.184 2.576c-1.53 1.792-3.5 2.688-5.908 2.688zm-63.694-7.709c-.7 1.642-1.529 3.154-2.489 4.543-1.309 1.894-2.381 3.206-3.207 3.934-1.28 1.195-2.652 1.807-4.121 1.842-1.055 0-2.326-.305-3.807-.923s-2.85-.92-4.098-.92c-1.309 0-2.713.305-4.214.92s-2.715.94-3.642.972c-1.409.061-2.813-.569-4.214-1.892-.895-.792-2.014-2.15-3.354-4.073-1.438-2.054-2.62-4.436-3.547-7.151-.993-2.932-1.49-5.772-1.49-8.522 0-3.15.671-5.866 2.013-8.143 1.055-1.829 2.46-3.271 4.217-4.33a11.21 11.21 0 0 1 5.701-1.633c1.119 0 2.586.351 4.41 1.042 1.818.693 2.986 1.044 3.498 1.044.383 0 1.68-.411 3.878-1.23 2.079-.76 3.834-1.074 5.272-.95 3.895.319 6.822 1.878 8.768 4.686-3.484 2.143-5.207 5.144-5.173 8.994.032 2.999 1.103 5.495 3.21 7.476.955.92 2.021 1.63 3.207 2.135a36.04 36.04 0 0 1-.817 2.179zM50.249 11.94c0 2.351-.846 4.545-2.532 6.577-2.035 2.415-4.496 3.81-7.165 3.59a7.43 7.43 0 0 1-.054-.891c0-2.256.968-4.671 2.686-6.646.858-1 1.949-1.831 3.272-2.494 1.32-.653 2.569-1.014 3.744-1.076.034.314.049.629.049.94h0z" fill="#fff"/>
 <path d="m160.39 40.773v9.8242c0 0.576 0.10698 1.0138 0.32031 1.3125 0.21333 0.29867 0.56898 0.44727 1.0703 0.44727 0.18134 0 0.33189-0.009917 0.44922-0.03125 0.11734-0.021333 0.2174-0.05499 0.30274-0.097656l-0.17578-0.99219c-0.07467 0.021333-0.13312 0.033203-0.17579 0.033203h-0.11132c-0.096 0-0.1812-0.043573-0.25586-0.12891-0.07467-0.085333-0.11133-0.23393-0.11133-0.44727v-9.9199h-1.3125zm25.855 0v9.8242c0 0.576 0.10698 1.0138 0.32031 1.3125 0.21333 0.29867 0.57093 0.44727 1.0723 0.44727 0.18133 0 0.32993-0.009917 0.44726-0.03125s0.21936-0.05499 0.30469-0.097656l-0.17578-0.99219c-0.07467 0.021333-0.13312 0.033203-0.17578 0.033203h-0.11328c-0.096 0-0.1812-0.043573-0.25586-0.12891-0.07467-0.085333-0.11133-0.23393-0.11133-0.44727v-9.9199h-1.3125zm-3.2637 0.32031c-0.256 0-0.47492 0.080235-0.65625 0.24023-0.17067 0.14933-0.25586 0.35142-0.25586 0.60742 0 0.24533 0.08519 0.44742 0.25586 0.60742 0.18133 0.16 0.40025 0.24023 0.65625 0.24023 0.256 1e-6 0.46995-0.080234 0.64062-0.24023 0.18133-0.16 0.27148-0.36209 0.27148-0.60742 1e-5 -0.256-0.09015-0.45809-0.27148-0.60742-0.17067-0.16-0.38462-0.24023-0.64062-0.24023zm8.0156 0c-0.256 0-0.47492 0.080235-0.65625 0.24023-0.17067 0.14933-0.25586 0.35142-0.25586 0.60742 0 0.24533 0.08519 0.44742 0.25586 0.60742 0.18133 0.16 0.40025 0.24023 0.65625 0.24023 0.256 1e-6 0.46996-0.080234 0.64063-0.24023 0.18133-0.16 0.27148-0.36209 0.27148-0.60742 0-0.256-0.09015-0.45809-0.27148-0.60742-0.17067-0.16-0.38463-0.24023-0.64063-0.24023zm-53.52 3.1035c-0.62933 0-1.2058 0.11194-1.7285 0.33594-0.52266 0.21333-0.96545 0.43721-1.3281 0.67188l0.51172 0.91211c0.30933-0.21333 0.66197-0.40551 1.0566-0.57617 0.39466-0.17067 0.81567-0.25586 1.2637-0.25586 0.32 0 0.58249 0.058448 0.78516 0.17578 0.21333 0.10667 0.3768 0.25031 0.49414 0.43164 0.11733 0.18133 0.19756 0.39033 0.24023 0.625 0.05333 0.23467 0.08008 0.47342 0.08008 0.71875-1.664 0.18133-2.8735 0.50227-3.6309 0.96094-0.75733 0.448-1.1367 1.0978-1.1367 1.9512 0 0.704 0.21396 1.2488 0.64063 1.6328 0.43733 0.384 0.98019 0.57617 1.6309 0.57617 0.49066 0 0.95028-0.10698 1.377-0.32031 0.42666-0.224 0.82588-0.49145 1.1992-0.80078h0.04883l0.11132 0.92969h1.0879v-4.7695c0-0.97066-0.212-1.7424-0.63867-2.3184-0.42666-0.58667-1.1151-0.88086-2.0644-0.88086zm8.8789 0c-0.45867 0-0.90146 0.10698-1.3281 0.32031-0.416 0.21333-0.79839 0.46891-1.1504 0.76758h-0.04883l-0.11133-0.89648h-1.0879v11.057h1.3106v-2.625l-0.03125-1.3594c0.36267 0.27733 0.72027 0.49625 1.0723 0.65625 0.36266 0.16 0.72522 0.24023 1.0879 0.24023 0.448 0 0.87396-0.090151 1.2793-0.27148 0.40534-0.192 0.76294-0.46936 1.0723-0.83203 0.30933-0.36267 0.55499-0.8005 0.73633-1.3125 0.18133-0.52267 0.27148-1.1141 0.27148-1.7754 0-0.608-0.06836-1.1528-0.20703-1.6328-0.128-0.49067-0.32017-0.90671-0.57617-1.248-0.256-0.352-0.57694-0.61945-0.96094-0.80078-0.384-0.192-0.82679-0.28711-1.3281-0.28711zm8.8809 0c-0.45867 0-0.90146 0.10698-1.3281 0.32031-0.416 0.21333-0.80034 0.46891-1.1523 0.76758h-0.04688l-0.11328-0.89648h-1.0879v11.057h1.3125v-2.625l-0.03125-1.3594c0.36267 0.27733 0.71831 0.49625 1.0703 0.65625 0.36267 0.16 0.72523 0.24023 1.0879 0.24023 0.448 0 0.87592-0.090151 1.2812-0.27148 0.40534-0.192 0.76294-0.46936 1.0723-0.83203 0.30933-0.36267 0.55499-0.8005 0.73633-1.3125 0.18133-0.52267 0.27148-1.1141 0.27148-1.7754 0-0.608-0.07032-1.1528-0.20898-1.6328-0.128-0.49067-0.32018-0.90671-0.57618-1.248-0.256-0.352-0.57498-0.61945-0.95898-0.80078-0.384-0.192-0.82679-0.28711-1.3281-0.28711zm12.145 0c-0.448 0-0.88088 0.095109-1.2969 0.28711-0.416 0.18133-0.78847 0.44878-1.1191 0.80078-0.32 0.352-0.58249 0.78488-0.78516 1.2969-0.192 0.50133-0.28711 1.0709-0.28711 1.7109s0.09511 1.2116 0.28711 1.7129c0.192 0.50133 0.45449 0.9273 0.78516 1.2793 0.34133 0.34133 0.73559 0.60878 1.1836 0.80078 0.45867 0.18133 0.94999 0.27148 1.4727 0.27148 0.53333 0 1.0078-0.080235 1.4238-0.24023 0.416-0.16 0.79343-0.34721 1.1348-0.56055l-0.46289-0.86328c-0.288 0.18133-0.59211 0.32993-0.91211 0.44727-0.30933 0.10667-0.65205 0.16016-1.0254 0.16016-0.74666 0-1.3529-0.23875-1.8223-0.71875-0.45867-0.49067-0.7162-1.1524-0.76953-1.9844h5.248c0.02134-0.096 0.03321-0.20794 0.03321-0.33594 0.01066-0.13867 0.01562-0.27735 0.01562-0.41602 0-0.55467-0.07032-1.0559-0.20898-1.5039-0.13867-0.448-0.34076-0.83234-0.60742-1.1523-0.256-0.32-0.5819-0.56566-0.97657-0.73633-0.384-0.17067-0.81988-0.25586-1.3105-0.25586zm10.416 0c-0.416 0-0.79043 0.058448-1.1211 0.17578-0.33067 0.10667-0.61299 0.26218-0.84766 0.46484-0.224 0.192-0.39934 0.42579-0.52734 0.70312-0.11734 0.26667-0.17578 0.5559-0.17578 0.86523 0 0.33067 0.06836 0.61299 0.20703 0.84766 0.13866 0.23467 0.31401 0.44171 0.52734 0.62305 0.224 0.17067 0.47462 0.32122 0.75196 0.44922 0.27733 0.11733 0.55469 0.22236 0.83203 0.31836l0.64062 0.25586c0.21333 0.085333 0.40055 0.18735 0.56055 0.30469 0.17066 0.10667 0.30935 0.23543 0.41601 0.38477 0.10667 0.14933 0.16016 0.32468 0.16016 0.52734 0 0.34133-0.12877 0.62861-0.38477 0.86328s-0.64034 0.35352-1.1523 0.35352c-0.46933 0-0.88538-0.085193-1.248-0.25586-0.352-0.17067-0.69773-0.39454-1.0391-0.67188l-0.65625 0.87891c0.37333 0.30933 0.81117 0.56491 1.3125 0.76758s1.0293 0.30469 1.584 0.30469c0.45866 0 0.86284-0.063407 1.2148-0.19141 0.36267-0.11733 0.66182-0.28276 0.89648-0.49609 0.24534-0.21333 0.42759-0.459 0.54493-0.73633 0.128-0.27733 0.1914-0.57648 0.1914-0.89648 0-0.36267-0.07527-0.67173-0.22461-0.92773-0.13866-0.256-0.31897-0.46996-0.54297-0.64062-0.224-0.18133-0.48153-0.32993-0.76953-0.44727-0.27733-0.11733-0.5547-0.22927-0.83203-0.33594-0.224-0.085333-0.44096-0.16557-0.6543-0.24024-0.20266-0.085333-0.38492-0.17548-0.54492-0.27148-0.16-0.10667-0.28876-0.22552-0.38476-0.35352-0.096-0.13867-0.14258-0.29718-0.14258-0.47852 0-0.29867 0.11194-0.56116 0.33594-0.78516 0.23466-0.224 0.59722-0.33594 1.0879-0.33594 0.34133 0 0.65536 0.06536 0.94336 0.19336s0.56536 0.29343 0.83203 0.49609l0.625-0.83203c-0.29867-0.24533-0.65627-0.45433-1.0723-0.625-0.40533-0.17067-0.85308-0.25586-1.3438-0.25586zm19.631 0c-0.50133 0-0.98079 0.090151-1.4394 0.27148-0.448 0.18133-0.84226 0.44878-1.1836 0.80078-0.34133 0.352-0.61374 0.78292-0.8164 1.2949-0.20267 0.50133-0.30469 1.0778-0.30469 1.7285 0 0.64 0.0921 1.2165 0.27344 1.7285 0.192 0.50133 0.44758 0.9273 0.76758 1.2793 0.33066 0.34133 0.71997 0.60382 1.168 0.78516 0.448 0.18133 0.92746 0.27148 1.4395 0.27148 0.46933 0 0.91708-0.085193 1.3438-0.25586 0.42666-0.18133 0.81597-0.427 1.168-0.73633l-0.57618-0.88086c-0.24533 0.21333-0.52269 0.40055-0.83203 0.56055-0.29866 0.14933-0.62952 0.22461-0.99218 0.22461-0.352 0-0.67595-0.070318-0.97461-0.20898-0.29867-0.14933-0.55425-0.35142-0.76758-0.60742-0.20267-0.26667-0.36314-0.58069-0.48047-0.94336s-0.17578-0.7688-0.17578-1.2168 0.05845-0.85218 0.17578-1.2148c0.128-0.37333 0.29839-0.69427 0.51172-0.96094s0.46891-0.46876 0.76758-0.60742c0.29866-0.14933 0.62456-0.22461 0.97656-0.22461 0.30933 0 0.5867 0.063407 0.83203 0.19141 0.256 0.128 0.49475 0.29343 0.71875 0.49609l0.67383-0.86328c-0.27733-0.24533-0.59827-0.45929-0.96094-0.64062s-0.8005-0.27148-1.3125-0.27148zm6.8164 0c-0.48 0-0.93767 0.090151-1.375 0.27148-0.42667 0.18133-0.80605 0.44878-1.1367 0.80078-0.33067 0.352-0.59812 0.78292-0.80078 1.2949-0.192 0.50133-0.28711 1.0778-0.28711 1.7285 0 0.64 0.09511 1.2165 0.28711 1.7285 0.20266 0.50133 0.47011 0.9273 0.80078 1.2793 0.33067 0.34133 0.71005 0.60382 1.1367 0.78516 0.43733 0.18133 0.895 0.27148 1.375 0.27148s0.93271-0.090151 1.3594-0.27148c0.43734-0.18133 0.82168-0.44382 1.1524-0.78516 0.33066-0.352 0.59315-0.77796 0.78515-1.2793 0.20267-0.512 0.30274-1.0885 0.30274-1.7285 0-0.65067-0.10007-1.2272-0.30274-1.7285-0.192-0.512-0.45449-0.94292-0.78515-1.2949-0.33067-0.352-0.71501-0.61945-1.1524-0.80078-0.42666-0.18133-0.87937-0.27148-1.3594-0.27148zm9.5039 0c-0.544 0-1.0234 0.12877-1.4394 0.38476-0.40533 0.24533-0.79464 0.5544-1.168 0.92774h-0.04883l-0.11132-1.1211h-1.0879v7.7773h1.3125v-5.6328c0.39467-0.39467 0.74536-0.69382 1.0547-0.89648 0.30934-0.20267 0.66694-0.30274 1.0723-0.30274 0.512 0 0.88643 0.16543 1.1211 0.49609 0.23467 0.32 0.35156 0.84798 0.35156 1.584v4.752h1.3106v-4.9297c0-1.0027-0.19022-1.7595-0.57422-2.2715-0.37333-0.512-0.97163-0.76758-1.793-0.76758zm-31.439 0.19141v7.7773h1.3125v-7.7773h-1.3125zm8.0156 0v7.7773h1.3125v-7.7773h-1.3125zm-22.912 0.84766c0.608 0 1.0775 0.209 1.4082 0.625 0.34133 0.40533 0.51172 1.0017 0.51172 1.791h-4.1602c0.04267-0.384 0.12786-0.72477 0.25586-1.0234 0.13867-0.29867 0.30905-0.54929 0.51172-0.75195 0.20267-0.21333 0.42654-0.3738 0.67188-0.48047 0.25599-0.10667 0.52344-0.16016 0.80078-0.16016zm36.832 0.048828c0.33066 0 0.63477 0.075276 0.91211 0.22461 0.27733 0.13867 0.51112 0.34076 0.70312 0.60742 0.20267 0.26667 0.35818 0.5876 0.46485 0.96094 0.10666 0.36267 0.16015 0.76684 0.16015 1.2148 0 0.448-0.05349 0.85413-0.16015 1.2168-0.10667 0.36267-0.26218 0.67669-0.46485 0.94336-0.192 0.256-0.42579 0.45809-0.70312 0.60742-0.27734 0.13867-0.58145 0.20898-0.91211 0.20898-0.33067 0-0.63478-0.070318-0.91211-0.20898-0.27733-0.14933-0.51804-0.35142-0.7207-0.60742-0.192-0.26667-0.3406-0.58069-0.44727-0.94336s-0.16016-0.7688-0.16016-1.2168 0.05349-0.85218 0.16016-1.2148c0.10667-0.37333 0.25527-0.69427 0.44727-0.96094 0.20266-0.26667 0.44337-0.46876 0.7207-0.60742 0.27733-0.14933 0.58144-0.22461 0.91211-0.22461zm-58.225 0.015625c0.36266 0 0.67173 0.070318 0.92773 0.20898 0.26667 0.13867 0.48063 0.3358 0.64063 0.5918 0.17066 0.24533 0.29447 0.54448 0.36914 0.89648 0.07466 0.352 0.11133 0.7413 0.11133 1.168 0 0.48-0.05845 0.91092-0.17579 1.2949-0.10666 0.384-0.26217 0.7099-0.46484 0.97656-0.192 0.256-0.42579 0.45809-0.70312 0.60742-0.26667 0.13867-0.56086 0.20898-0.88086 0.20898-0.256 0-0.54824-0.058448-0.87891-0.17578-0.33067-0.128-0.67339-0.34196-1.0254-0.64062v-4.0801c0.384-0.34133 0.7416-0.60187 1.0723-0.7832 0.34133-0.18133 0.67714-0.27344 1.0078-0.27344zm8.8809 0c0.36266 0 0.67173 0.070318 0.92773 0.20898 0.26667 0.13867 0.48063 0.3358 0.64063 0.5918 0.17066 0.24533 0.29252 0.54448 0.36718 0.89648 0.07467 0.352 0.11133 0.7413 0.11133 1.168 0 0.48-0.05845 0.91092-0.17578 1.2949-0.10667 0.384-0.26022 0.7099-0.46289 0.97656-0.192 0.256-0.42774 0.45809-0.70508 0.60742-0.26666 0.13867-0.5589 0.20898-0.8789 0.20898-0.256 0-0.5502-0.058448-0.88086-0.17578-0.33067-0.128-0.67144-0.34196-1.0234-0.64062v-4.0801c0.384-0.34133 0.7416-0.60187 1.0723-0.7832 0.34134-0.18133 0.67715-0.27344 1.0078-0.27344zm-16.049 2.8008v2.1602c-0.37333 0.34133-0.72402 0.60187-1.0547 0.7832-0.33066 0.17067-0.68331 0.25586-1.0566 0.25586-0.384 0-0.70989-0.095109-0.97656-0.28711s-0.40039-0.51294-0.40039-0.96094c0-0.24533 0.0604-0.46921 0.17773-0.67188 0.128-0.21333 0.32513-0.40055 0.5918-0.56055 0.27733-0.16 0.63493-0.29673 1.0723-0.41406 0.448-0.11733 0.99582-0.21935 1.6465-0.30469z" fill="#fff"/>
</svg>
