<svg xmlns="http://www.w3.org/2000/svg" width="224" height="72" fill="none"><rect width="224" height="72" rx="8" fill="#3d3d46"/><path d="M77.162 26v-9.156h2.45c1.4 0 2.492.378 3.276 1.134s1.176 1.89 1.176 3.402c0 .756-.103 1.423-.308 2.002-.196.579-.485 1.064-.868 1.456a3.59 3.59 0 0 1-1.372.868c-.532.196-1.139.294-1.82.294h-2.534zm1.624-1.316h.714c.933 0 1.647-.266 2.142-.798.504-.541.756-1.377.756-2.506 0-1.12-.252-1.937-.756-2.45s-1.218-.77-2.142-.77h-.714v6.524zm10.682 1.484c-.597 0-1.143-.107-1.638-.322-.495-.224-.919-.541-1.274-.952-.355-.42-.63-.924-.826-1.512s-.294-1.255-.294-2.002c0-.737.098-1.395.294-1.974.196-.588.471-1.083.826-1.484a3.59 3.59 0 0 1 1.274-.924c.495-.215 1.041-.322 1.638-.322s1.143.107 1.638.322a3.59 3.59 0 0 1 1.274.924c.364.401.644.896.84 1.484.196.579.294 1.237.294 1.974 0 .747-.098 1.414-.294 2.002s-.476 1.092-.84 1.512c-.355.411-.779.728-1.274.952-.495.215-1.041.322-1.638.322zm0-1.414a2 2 0 0 0 .98-.238 2.21 2.21 0 0 0 .742-.672c.205-.299.364-.653.476-1.064.112-.42.168-.887.168-1.4 0-1.027-.215-1.829-.644-2.408a2 2 0 0 0-1.722-.882c-.728 0-1.307.294-1.736.882-.42.579-.63 1.381-.63 2.408 0 .513.056.98.168 1.4.112.411.271.765.476 1.064a2.21 2.21 0 0 0 .742.672 2 2 0 0 0 .98.238zM96.201 26l-1.82-9.156h1.666l.798 4.62.224 1.47.224 1.456h.056l.294-1.456.308-1.47 1.12-4.62h1.414l1.12 4.62.308 1.456.308 1.47h.056l.21-1.47.224-1.456.798-4.62h1.554L103.313 26h-2.016l-1.134-4.816-.224-1.05-.182-1.064h-.056l-.21 1.064-.21 1.05L98.175 26h-1.974zm10.287 0v-9.156h1.666l2.856 5.152.938 1.946h.056l-.14-1.526-.07-1.596v-3.976h1.554V26h-1.666l-2.856-5.152-.938-1.946h-.056l.126 1.526a14.98 14.98 0 0 1 .084 1.568V26h-1.554zm9.188 0v-9.156h1.624v7.784h3.808V26h-5.432zm10.146.168c-.598 0-1.144-.107-1.638-.322-.495-.224-.92-.541-1.274-.952-.355-.42-.63-.924-.826-1.512s-.294-1.255-.294-2.002c0-.737.098-1.395.294-1.974.196-.588.471-1.083.826-1.484a3.59 3.59 0 0 1 1.274-.924c.495-.215 1.04-.322 1.638-.322s1.143.107 1.638.322a3.59 3.59 0 0 1 1.274.924c.364.401.644.896.84 1.484.196.579.294 1.237.294 1.974 0 .747-.098 1.414-.294 2.002s-.476 1.092-.84 1.512a3.66 3.66 0 0 1-1.274.952c-.495.215-1.041.322-1.638.322zm0-1.414c.364 0 .69-.079.98-.238s.536-.383.742-.672c.205-.299.364-.653.476-1.064.112-.42.168-.887.168-1.4 0-1.027-.215-1.829-.644-2.408a2 2 0 0 0-1.722-.882c-.728 0-1.307.294-1.736.882-.42.579-.63 1.381-.63 2.408 0 .513.056.98.168 1.4.112.411.27.765.476 1.064a2.2 2.2 0 0 0 .742.672 2 2 0 0 0 .98.238zm7.616-3.626l-.322 1.12h2.338l-.322-1.12-.434-1.498-.392-1.526h-.056l-.392 1.54-.42 1.484zM130.372 26l2.982-9.156h1.904L138.24 26h-1.708l-.714-2.478h-3.08L132.024 26h-1.652zm8.997 0v-9.156h2.45c1.4 0 2.492.378 3.276 1.134s1.176 1.89 1.176 3.402c0 .756-.103 1.423-.308 2.002-.196.579-.485 1.064-.868 1.456a3.59 3.59 0 0 1-1.372.868c-.532.196-1.139.294-1.82.294h-2.534zm1.624-1.316h.714c.933 0 1.647-.266 2.142-.798.504-.541.756-1.377.756-2.506 0-1.12-.252-1.937-.756-2.45s-1.218-.77-2.142-.77h-.714v6.524zM150.922 26v-9.156h5.53v1.372h-3.906v2.59h3.332v1.372h-3.332V26h-1.624zm10.556.168c-.598 0-1.144-.107-1.638-.322-.495-.224-.92-.541-1.274-.952-.355-.42-.63-.924-.826-1.512s-.294-1.255-.294-2.002c0-.737.098-1.395.294-1.974.196-.588.471-1.083.826-1.484a3.59 3.59 0 0 1 1.274-.924c.495-.215 1.04-.322 1.638-.322s1.143.107 1.638.322a3.59 3.59 0 0 1 1.274.924c.364.401.644.896.84 1.484.196.579.294 1.237.294 1.974 0 .747-.098 1.414-.294 2.002s-.476 1.092-.84 1.512a3.66 3.66 0 0 1-1.274.952c-.495.215-1.041.322-1.638.322zm0-1.414c.364 0 .69-.079.98-.238s.536-.383.742-.672c.205-.299.364-.653.476-1.064.112-.42.168-.887.168-1.4 0-1.027-.215-1.829-.644-2.408a2 2 0 0 0-1.722-.882c-.728 0-1.307.294-1.736.882-.42.579-.63 1.381-.63 2.408 0 .513.056.98.168 1.4.112.411.27.765.476 1.064a2.2 2.2 0 0 0 .742.672 2 2 0 0 0 .98.238zM167.355 26v-9.156h3.094a6.01 6.01 0 0 1 1.33.14c.41.093.766.247 1.064.462.299.205.532.481.7.826.178.345.266.775.266 1.288 0 .7-.168 1.265-.504 1.694-.326.429-.765.737-1.316.924L174.173 26h-1.82l-1.974-3.584h-1.4V26h-1.624zm1.624-4.872h1.302c.626 0 1.102-.131 1.428-.392.336-.261.504-.653.504-1.176 0-.532-.168-.901-.504-1.106-.326-.205-.802-.308-1.428-.308h-1.302v2.982zM78.156 55V36.744h4.508l2.94 8.12.532 1.68.532 1.68h.112l.504-1.68.532-1.68 2.884-8.12h4.48V55h-3.752v-6.692l.056-1.484.14-1.624.168-1.624.168-1.484h-.112l-1.484 4.34-2.604 6.972h-2.268l-2.604-6.972-1.456-4.34h-.112l.168 1.484.168 1.624.14 1.624.056 1.484V55h-3.696zm25.612-9.24l-.448 1.68h3.892l-.42-1.68-.756-2.912-.728-2.968h-.112l-.7 2.996-.728 2.884zM97.16 55l5.712-18.256h4.956L113.54 55h-4.368l-1.12-4.34h-5.572L101.36 55h-4.2zm25.717.336c-1.157 0-2.249-.196-3.276-.588a8.02 8.02 0 0 1-2.716-1.792c-.765-.784-1.372-1.755-1.82-2.912-.448-1.176-.672-2.529-.672-4.06 0-1.512.234-2.856.7-4.032.467-1.195 1.092-2.203 1.876-3.024a7.91 7.91 0 0 1 2.744-1.876 8.62 8.62 0 0 1 3.304-.644c1.176 0 2.231.243 3.164.728.934.467 1.708 1.017 2.324 1.652l-2.184 2.632c-.466-.429-.961-.775-1.484-1.036-.504-.28-1.082-.42-1.736-.42-.616 0-1.204.14-1.764.42a4.18 4.18 0 0 0-1.428 1.148c-.392.504-.709 1.12-.952 1.848-.224.728-.336 1.549-.336 2.464 0 1.885.402 3.351 1.204 4.396.803 1.027 1.876 1.54 3.22 1.54.747 0 1.41-.159 1.988-.476a6.35 6.35 0 0 0 1.568-1.232l2.184 2.576c-1.53 1.792-3.5 2.688-5.908 2.688zm-63.694-7.709c-.7 1.642-1.529 3.154-2.489 4.543-1.309 1.894-2.381 3.206-3.207 3.934-1.28 1.195-2.652 1.807-4.121 1.842-1.055 0-2.326-.305-3.807-.923s-2.85-.92-4.098-.92c-1.309 0-2.713.305-4.214.92s-2.715.94-3.642.972c-1.409.061-2.813-.569-4.214-1.892-.895-.792-2.014-2.15-3.354-4.073-1.438-2.054-2.62-4.436-3.547-7.151-.993-2.932-1.49-5.772-1.49-8.522 0-3.15.671-5.866 2.013-8.143 1.055-1.829 2.46-3.271 4.217-4.33a11.21 11.21 0 0 1 5.701-1.633c1.119 0 2.586.351 4.41 1.042 1.818.693 2.986 1.044 3.498 1.044.383 0 1.68-.411 3.878-1.23 2.079-.76 3.834-1.074 5.272-.95 3.895.319 6.822 1.878 8.768 4.686-3.484 2.143-5.207 5.144-5.173 8.994.032 2.999 1.103 5.495 3.21 7.476.955.92 2.021 1.63 3.207 2.135a36.04 36.04 0 0 1-.817 2.179zM50.249 11.94c0 2.351-.846 4.545-2.532 6.577-2.035 2.415-4.496 3.81-7.165 3.59a7.43 7.43 0 0 1-.054-.891c0-2.256.968-4.671 2.686-6.646.858-1 1.949-1.831 3.272-2.494 1.32-.653 2.569-1.014 3.744-1.076.034.314.049.629.049.94h0zM160.39 40.773v9.824c0 .576.107 1.014.32 1.313s.569.447 1.07.447a2.64 2.64 0 0 0 .449-.031 1.12 1.12 0 0 0 .303-.098l-.176-.992c-.075.021-.133.033-.176.033h-.111c-.096 0-.181-.044-.256-.129s-.111-.234-.111-.447v-9.92h-1.312zm25.855 0v9.824c0 .576.107 1.014.32 1.313s.571.447 1.072.447a2.58 2.58 0 0 0 .447-.031c.117-.021.219-.055.305-.098l-.176-.992c-.075.021-.133.033-.176.033h-.113c-.096 0-.181-.044-.256-.129s-.111-.234-.111-.447v-9.92h-1.312zm-3.264.32c-.256 0-.475.08-.656.24-.171.149-.256.351-.256.607 0 .245.085.447.256.607.181.16.4.24.656.24a.9.9 0 0 0 .641-.24c.181-.16.271-.362.271-.607 0-.256-.09-.458-.271-.607a.9.9 0 0 0-.641-.24zm8.016 0c-.256 0-.475.08-.656.24-.171.149-.256.351-.256.607 0 .245.085.447.256.607.181.16.4.24.656.24a.9.9 0 0 0 .641-.24c.181-.16.271-.362.271-.607 0-.256-.09-.458-.271-.607a.9.9 0 0 0-.641-.24zm-53.52 3.103a4.34 4.34 0 0 0-1.728.336c-.523.213-.965.437-1.328.672l.512.912a6.13 6.13 0 0 1 1.057-.576 3.15 3.15 0 0 1 1.264-.256c.32 0 .582.058.785.176a1.22 1.22 0 0 1 .494.432c.117.182.198.39.24.625a3.23 3.23 0 0 1 .08.719c-1.664.181-2.874.502-3.631.961-.757.448-1.137 1.098-1.137 1.951 0 .704.214 1.249.641 1.633.437.384.98.576 1.631.576a3.04 3.04 0 0 0 1.377-.32 6.91 6.91 0 0 0 1.199-.801h.049l.111.93h1.088v-4.77c0-.971-.212-1.742-.639-2.318-.427-.587-1.115-.881-2.064-.881zm8.879 0a2.94 2.94 0 0 0-1.328.32c-.416.213-.798.469-1.15.768h-.049l-.111-.896h-1.088v11.057h1.311V52.82l-.031-1.359c.363.277.72.496 1.072.656.363.16.725.24 1.088.24a3.1 3.1 0 0 0 1.279-.271 3.2 3.2 0 0 0 1.072-.832c.309-.363.555-.8.736-1.312.181-.523.271-1.114.271-1.775 0-.608-.068-1.153-.207-1.633-.128-.491-.32-.907-.576-1.248-.256-.352-.577-.619-.961-.801-.384-.192-.827-.287-1.328-.287zm8.881 0a2.94 2.94 0 0 0-1.328.32 6.02 6.02 0 0 0-1.152.768h-.047l-.113-.896h-1.088v11.057h1.313V52.82l-.031-1.359a5.57 5.57 0 0 0 1.07.656c.363.16.725.24 1.088.24.448 0 .876-.09 1.281-.271a3.2 3.2 0 0 0 1.072-.832c.309-.363.555-.8.736-1.312.181-.523.271-1.114.271-1.775 0-.608-.07-1.153-.209-1.633-.128-.491-.32-.907-.576-1.248a2.48 2.48 0 0 0-.959-.801c-.384-.192-.827-.287-1.328-.287zm12.145 0a3.06 3.06 0 0 0-1.297.287c-.416.181-.788.449-1.119.801a4.21 4.21 0 0 0-.785 1.297c-.192.501-.287 1.071-.287 1.711s.095 1.212.287 1.713a3.86 3.86 0 0 0 .785 1.279 3.75 3.75 0 0 0 1.184.801 3.97 3.97 0 0 0 1.473.271c.533 0 1.008-.08 1.424-.24a6.59 6.59 0 0 0 1.135-.561l-.463-.863a4.82 4.82 0 0 1-.912.447c-.309.107-.652.16-1.025.16-.747 0-1.353-.239-1.822-.719-.459-.491-.716-1.152-.77-1.984h5.248a1.58 1.58 0 0 0 .033-.336l.016-.416c0-.555-.07-1.056-.209-1.504a3.3 3.3 0 0 0-.607-1.152 2.49 2.49 0 0 0-.977-.736c-.384-.171-.82-.256-1.31-.256zm10.416 0c-.416 0-.79.058-1.121.176-.331.107-.613.262-.848.465-.224.192-.399.426-.527.703-.117.267-.176.556-.176.865 0 .331.068.613.207.848s.314.442.527.623a4 4 0 0 0 .752.449l.832.318.641.256a2.54 2.54 0 0 1 .561.305 1.44 1.44 0 0 1 .416.385c.107.15.16.325.16.527 0 .341-.129.629-.385.863s-.64.354-1.152.354c-.469 0-.885-.085-1.248-.256-.352-.171-.698-.395-1.039-.672l-.656.879a4.95 4.95 0 0 0 1.313.768 4.18 4.18 0 0 0 1.584.305c.459 0 .863-.063 1.215-.191.363-.117.662-.283.896-.496a2.01 2.01 0 0 0 .545-.736 2.11 2.11 0 0 0 .191-.896c0-.363-.075-.672-.225-.928-.139-.256-.319-.47-.543-.641-.224-.181-.482-.33-.77-.447l-.832-.336-.654-.24c-.203-.085-.385-.175-.545-.271a1.55 1.55 0 0 1-.385-.354c-.096-.139-.143-.297-.143-.479 0-.299.112-.561.336-.785.235-.224.597-.336 1.088-.336.341 0 .655.065.943.193a4.18 4.18 0 0 1 .832.496l.625-.832c-.299-.245-.656-.454-1.072-.625-.405-.171-.853-.256-1.344-.256zm19.631 0a3.88 3.88 0 0 0-1.439.271 3.42 3.42 0 0 0-1.184.801 3.89 3.89 0 0 0-.816 1.295c-.203.501-.305 1.078-.305 1.728 0 .64.092 1.216.273 1.728a4.01 4.01 0 0 0 .768 1.279 3.37 3.37 0 0 0 1.168.785c.448.181.927.271 1.44.271a3.58 3.58 0 0 0 1.344-.256 4.32 4.32 0 0 0 1.168-.736l-.576-.881c-.245.213-.523.401-.832.561-.299.149-.63.225-.992.225a2.28 2.28 0 0 1-.975-.209c-.299-.149-.554-.351-.768-.607-.203-.267-.363-.581-.48-.943s-.176-.769-.176-1.217a3.93 3.93 0 0 1 .176-1.215c.128-.373.298-.694.512-.961a2.11 2.11 0 0 1 .768-.607 2.16 2.16 0 0 1 .977-.225 1.77 1.77 0 0 1 .832.191c.256.128.495.293.719.496l.674-.863a4.46 4.46 0 0 0-.961-.641c-.363-.182-.8-.271-1.312-.271zm6.816 0a3.55 3.55 0 0 0-1.375.271 3.34 3.34 0 0 0-1.137.801c-.331.352-.598.783-.801 1.295-.192.501-.287 1.078-.287 1.728 0 .64.095 1.216.287 1.728a4.08 4.08 0 0 0 .801 1.279 3.45 3.45 0 0 0 1.137.785 3.55 3.55 0 0 0 1.375.271 3.44 3.44 0 0 0 1.359-.271 3.4 3.4 0 0 0 1.152-.785 3.86 3.86 0 0 0 .785-1.279c.203-.512.303-1.089.303-1.728 0-.651-.1-1.227-.303-1.728-.192-.512-.454-.943-.785-1.295s-.715-.619-1.152-.801a3.44 3.44 0 0 0-1.359-.271zm9.504 0c-.544 0-1.023.129-1.439.385-.405.245-.795.554-1.168.928h-.049l-.111-1.121h-1.088v7.777h1.313v-5.633c.395-.395.745-.694 1.055-.896s.667-.303 1.072-.303c.512 0 .886.165 1.121.496.235.32.352.848.352 1.584v4.752h1.311v-4.93c0-1.003-.19-1.76-.574-2.272-.373-.512-.972-.768-1.793-.768zm-31.439.191v7.777h1.313v-7.777h-1.312zm8.016 0v7.777h1.313v-7.777h-1.312zm-22.912.848c.608 0 1.077.209 1.408.625.341.405.512 1.002.512 1.791h-4.16a3.6 3.6 0 0 1 .256-1.023c.139-.299.309-.549.512-.752a2.06 2.06 0 0 1 .672-.48c.256-.107.523-.16.801-.16zm36.832.049c.331 0 .635.075.912.225.277.139.511.341.703.607a2.88 2.88 0 0 1 .465.961c.107.363.16.767.16 1.215a4.31 4.31 0 0 1-.16 1.217 2.89 2.89 0 0 1-.465.943 2.13 2.13 0 0 1-.703.607 2.01 2.01 0 0 1-.912.209 2.01 2.01 0 0 1-.912-.209 2.31 2.31 0 0 1-.721-.607 3.09 3.09 0 0 1-.447-.943 4.31 4.31 0 0 1-.16-1.217c0-.448.053-.852.16-1.215.107-.373.255-.694.447-.961a2.04 2.04 0 0 1 .721-.607c.277-.149.581-.225.912-.225zm-58.225.016c.363 0 .672.07.928.209a1.63 1.63 0 0 1 .641.592 2.44 2.44 0 0 1 .369.896 5.64 5.64 0 0 1 .111 1.168 4.4 4.4 0 0 1-.176 1.295 2.87 2.87 0 0 1-.465.977 2.13 2.13 0 0 1-.703.607 1.88 1.88 0 0 1-.881.209c-.256 0-.548-.058-.879-.176-.331-.128-.673-.342-1.025-.641v-4.08c.384-.341.742-.602 1.072-.783.341-.181.677-.273 1.008-.273zm8.881 0c.363 0 .672.07.928.209a1.63 1.63 0 0 1 .641.592c.171.245.293.544.367.896a5.64 5.64 0 0 1 .111 1.168 4.4 4.4 0 0 1-.176 1.295c-.107.384-.26.71-.463.977a2.14 2.14 0 0 1-.705.607c-.267.139-.559.209-.879.209-.256 0-.55-.058-.881-.176-.331-.128-.671-.342-1.023-.641v-4.08c.384-.341.742-.602 1.072-.783.341-.181.677-.273 1.008-.273zm-16.049 2.801v2.16c-.373.341-.724.602-1.055.783a2.27 2.27 0 0 1-1.057.256c-.384 0-.71-.095-.977-.287s-.4-.513-.4-.961a1.32 1.32 0 0 1 .178-.672c.128-.213.325-.401.592-.561.277-.16.635-.297 1.072-.414.448-.117.996-.219 1.647-.305z" fill="#fff"/></svg>
