<svg xmlns="http://www.w3.org/2000/svg" xmlns:xlink="http://www.w3.org/1999/xlink" width="497" height="494" fill="none"><path fill-rule="evenodd" d="M330.5 422c-27.339 0-49.5-22.161-49.5-49.5s22.161-49.5 49.5-49.5 49.5 22.161 49.5 49.5-22.161 49.5-49.5 49.5zm24.731-48.822l-23.19-37.803-23.197 37.806 23.197 13.467 23.19-13.47zm.019 4.321l-23.209 13.461-23.197-13.457 23.197 32.107 23.209-32.111z" fill="#e6e6e6"/><g fill="#fff"><path d="M332.041 335.375v27.442l23.194 10.364-23.194-37.806zm0 55.589v18.646l23.209-32.11-23.209 13.464z"/><path d="M332.041 386.648l23.194-13.467-23.194-10.358v23.825z"/><path d="M308.844 373.181l23.197 13.467v-23.825l-23.197 10.358z"/></g><g clip-path="url(#A)"><path d="M453.535 436c15.76 0 28.535 12.775 28.535 28.535s-12.775 28.535-28.535 28.535S425 480.295 425 464.535 437.775 436 453.535 436zm2.393 28.669l-.28 2.978c3.491 2.779 3.961 4.842 3.426 7.594-1.211 4.262-4.906 4.708-6.479 4.437-1.801-.33-2.557-.422-4.112-2.249a6.13 6.13 0 0 1-1.292-3.321 6.14 6.14 0 0 1 .773-3.479l.021-.036.788 3.746 2.265-.45-1.48-7.89-7.615 1.805.61 2.459 3.119-.606-.03.073c-.134.328-.678 1.709-.84 2.786-1.049 6.577 4.517 9.556 6.83 9.713 4.589.335 7.253-1.648 8.637-3.751 2.568-4.209 1.286-7.323.541-8.907-.974-1.993-4.882-4.902-4.882-4.902zm-1.355-11.272h-2.449v22.481h2.449v-22.482.001zm-.054-6.68c-4.601-.216-7.21 1.837-8.533 3.977-2.461 4.28-1.097 7.355-.303 8.912 1.027 1.967 5.011 4.772 5.011 4.772l.198-2.984c-3.567-2.68-4.091-4.728-3.626-7.495 1.097-4.297 4.778-4.832 6.362-4.605 1.799.282 2.561.356 4.166 2.14a6.12 6.12 0 0 1 1.381 3.285 6.13 6.13 0 0 1-.68 3.499l-.02.036-.886-3.717-2.247.507 1.685 7.847 7.56-2.005-.676-2.447-3.103.69s.644-1.647.795-2.885c.876-6.604-4.772-9.431-7.084-9.527z" fill="#e6e6e6"/></g><path fill-rule="evenodd" d="M463 395c-18.779 0-34-15.221-34-34s15.221-34 34-34 34 15.221 34 34-15.221 34-34 34zm15.277-38.207c.667-4.454-2.727-6.849-7.363-8.447l1.504-6.035-3.672-.914-1.466 5.875c-.965-.242-1.955-.467-2.943-.692l1.476-5.914-3.672-.916-1.504 6.033-2.346-.553.004-.019-5.066-1.264-.977 3.923s2.726.624 2.669.663c1.487.372 1.755 1.355 1.71 2.137l-1.712 6.875a3.07 3.07 0 0 1 .382.121l-.389-.096-2.401 9.631c-.183.45-.644 1.128-1.685.871.038.053-2.669-.665-2.669-.665l-1.823 4.203 4.781 1.192 2.616.676-1.52 6.103 3.67.914 1.505-6.035 2.928.758-1.5 6.01 3.672.914 1.519-6.091c6.265 1.186 10.974.708 12.956-4.957 1.598-4.56-.078-7.193-3.374-8.908 2.401-.553 4.207-2.132 4.69-5.393zm-8.394 11.768c-1.133 4.562-8.815 2.095-11.305 1.477l2.019-8.086c2.49.623 10.474 1.853 9.286 6.609zm1.137-11.834c-1.035 4.15-7.427 2.04-9.499 1.523l1.827-7.331c2.072.516 8.751 1.479 7.672 5.808z" fill="#e6e6e6"/><g clip-path="url(#B)"><g fill="#2d1d1c"><path d="M144.209 302.169a66.64 66.64 0 0 0 2.218 9.464s-5.79-2.615-7.654-7.203l-4.437 6.228-8.187 11.614s9.651 18.928 9.518 21.455c-7.92-1.751-15.286 6.65-15.286 6.65 15.53 1.529 10.361 28.171 0 25.245 7.366 16.934 16.129 6.937 16.861-21.788 3.372 2.217 15.064 18.751 1.376 21.788 12.623 22.896 26.312-6.317 7.632-23.095 9.695.687 24.648 12.345 13.067 23.095 4.215 11.082 12.469 5.253 13.689-3.037 2.218-15.094-12.136-25.201-26.091-28.614-1.553-.399-9.185-17.621-9.185-17.621s11.382-8.112 13.755-11.658a2.55 2.55 0 0 0 .422-.798 54.78 54.78 0 0 1-7.698-11.725zm189.379 14.274c-3.95-5.563-9.74-5.585-15.775-2.083-13.311.51-33.966-.975-46.59 3.48a146.66 146.66 0 0 1-10.827-12.9l-9.429 4.078a10.74 10.74 0 0 0 2.041-6.649 24.96 24.96 0 0 1-6.101 5.829l16.95 21.677a177.49 177.49 0 0 0 43.817-7.691c-5.812 6.162-14.554 22.963-6.389 30.21 1.353-21.965 13.822-28.548 19.568-30.21 6.855 6.45 6.656 29.213 7.055 36.948 9.806 0 7.388-24.514 4.859-34.709a9.56 9.56 0 0 1 3.683 3.169c3.66 5.098 5.812 15.515 5.524 22.652 11.603.089 4.304-33.424-8.386-33.801z"/></g><path d="M292.61 270.872s-132.872 49.139-71.461 5.63c-12.557-3.324-49.053 14.895-20.456 15.781 5.347.156-22.784 10.573-40.467.222-20.366-11.88-34.454-18.463-19.168-5.364 22.896 19.616-10.76 5.586-22.807-2.216-28.421-18.53-15.53-3.879-8.875 3.923-22.319-14.119-22.186-19.948-31.459-39.342 0 0 1.553 7.358 3.084 13.299-7.92-7.869-12.047-31.297-12.136-31.031a29.53 29.53 0 0 0-2.041 7.669 128.72 128.72 0 0 1-3.727-8.866c59.369-30.254 118.318-6.294 83.708-44.661 18.325-7.758 78.982-35.995 63.807-63.878 10.05 23.605-58.327 43.243-76.32 50.845 30.084 33.247-25.58 26.93-83.264 46.346.627 6.472 1.928 12.86 3.883 19.062 0-6.317 1.331-8.179 1.331-8.179.111 2.216 1.132 12.634 5.569 17.732-.611-2.468-.611-5.047 0-7.514 0 0 3.417 15.382 8.408 22.984.126-2.892.572-5.761 1.331-8.555 0 0 1.087 6.073 2.773 11.902.777 3.458 1.531 7.979 4.171 11.082.887 1.042.266-3.79 1.154-2.792 15.308 16.667 32.902 29.035 54.666 35.773l4.437-6.228c1.864 4.588 7.655 7.203 7.655 7.203a66.58 66.58 0 0 1-2.219-9.464 54.75 54.75 0 0 0 7.632 11.681 2.55 2.55 0 0 1-.422.798 175.74 175.74 0 0 0 52.049-.2c0 1.574-3.528 3.059-3.528 3.059 11.958 0 30.794-4.654 44.372-12.19.038 1.981-.485 3.932-1.509 5.629.843-.266 8.409-5.341 10.161-8.489.076 2.382-.642 4.72-2.041 6.65 0 0 52.425-22.165 61.677-32.117-.31 2.202-1.198 4.282-2.574 6.029a91.97 91.97 0 0 0 21.476-17.731s-65.248 24.469-38.869 5.518z" fill="#afbdc4"/><path d="M341.663 250.171c-1.575 1.618-23.828 11.082-27.444 5.12s18.814-28.814 5.347-24.492-59.902 30.853-80.868 28.216-18.858-22.874-12.313-29.413c5.458-5.408-13.178 3.901-17.216.621s14.287-13.299 3.172-15.515-15.219-12.922 7.743-36.239c-13.533 1.529-8.874-10.839 17.549-34.289 18.37-16.224 4.437-19.815-.843-29.744 2.529 0 21.742 4.189 25.092 4.433-6.234-5.12-27.843-10.551-27.843-10.551 8.142.732 24.405 3.857 24.405 3.857-26.024-9.132-54.201-10.018-69.62-7.381 12.713 5.896 19.413 11.659 21.787 17.2 15.175 27.883-45.481 56.12-63.807 63.878 34.61 38.367-24.404 14.407-83.707 44.661.887 2.217 2.108 5.32 3.727 8.866a29.53 29.53 0 0 1 2.041-7.669c0-.155 4.215 23.273 12.136 31.03-1.531-6.05-3.084-13.298-3.084-13.298 9.318 19.372 9.141 25.223 31.459 39.342-6.655-7.802-19.523-22.453 8.875-3.923 12.047 7.868 45.703 21.898 22.807 2.216-15.286-13.099-1.198-6.516 19.169 5.364 17.748 10.351 45.813 0 40.467-.222-28.598-.886 7.898-19.106 20.455-15.781-61.344 43.509 71.461-5.63 71.461-5.63-26.49 18.951 39.003-5.585 39.003-5.585a.89.89 0 0 1-.178.244v.133l-.333.377-.155.177-.532.576-.2.2-.754.798-.178.155-.998.997-.155.155-1.243 1.175h-.111l-1.464 1.33-1.686 1.485s15.108-10.728 21.187-18.131c-2.041 2.195-1.53-6.361-3.15-4.743z" fill="#eeeae8"/><path d="M70.218 263.271c-4.992-7.603-8.408-22.985-8.408-22.985-.611 2.468-.611 5.047 0 7.514-4.97-5.652-5.569-17.732-5.569-17.732s-1.331 1.862-1.331 8.179c-1.963-6.192-3.264-12.574-3.883-19.039-18.04 5.725-34.952 14.529-49.985 26.021.976 3.657 32.281-.953 42.841-2.704-33.257 19.615-30.572 30.099-20.655 25.977-67.445 84.225 43.906 2.659 51.028-1.884-1.686-5.83-2.773-11.903-2.773-11.903-.736 2.797-1.16 5.666-1.265 8.556z" fill="#2d1d1c"/><path d="M253.32 103.887s8.053 10.794 18.68 14.739c-1.553-2.483-6.655-11.858-5.124-21.832.244-1.574-3.617 12.013-3.683 10.329-.999-21.943 12.712-33.026 24.559-35.752 2.219-.51-9.717-1.175-7.188-1.884 19.169-5.297 32.436.31 39.935 8.29-1.642-4.854-6.501-8.866-5.036-8.157 12.18 6.184 19.39 26.597 56.219 27.107 3.705-5.275 4.548-18.574 4.659-20.347s-3.927 11.814-3.971 10.174c-.355-24.226-14.044-47.033-14.044-47.033a78.47 78.47 0 0 1 1.797 11.947c-38.226-59.667-159.14-91.229-237.034 41.359-14.909 6.782-40.889 16.136-47.412 41.249-25.381 15.027-53.801 41.669-44.017 54.325-12.091 9.353-12.202 20.192-12.202 20.192-7.61 7.912-23.672 32.626-18.414 36.638 66.691-52.841 172.296-29.058 133.249-72.345 22.185-9.398 121.312-37.126 54.51-68.045 15.53-2.638 43.596-1.751 69.62 7.38a13.65 13.65 0 0 1-5.103-8.333z" fill="#4e342e"/><path d="M109.354 163.486c-27.067 6.649-65.027 18.618-77.651 24.935 3.794-15.781 33.634-20.768 77.651-24.935zm-33.678-29.413c12.668-6.316 27.976-4.654 55.043-11.326-44.017 4.167-48.121.931-55.043 11.326zm47.411-41.248c13.001-3.436 34.61 2.704 49.896 5.696-18.636-8.954-42.996-16.091-49.896-5.696zM37.716 201.853c60.479-13.078 75.433-17.887 100.259-24.537-1.065-1.396-2.219-2.881-3.683-4.432-7.832 1.551-36.673 12.678-96.575 28.969z" fill="#2d1d1c"/><path d="M362.694 51.444c1.642 3.569 7.721 20.591 7.144 27.861-2.218-5.076-22.962-38.877-30.883-44.861 5.991 2.815 16.928 13.853 24.116 25.268a67.34 67.34 0 0 1-.377-8.267zm-44.793-10.351c-11.21-10.035-24.741-17.128-39.376-20.641a90.87 90.87 0 0 0-44.465.516c46.569-3.059 71.195 13.675 83.841 20.125zm-4.792 24.381c-16.218-10.861-28.043-7.004-34.943-3.125a60.4 60.4 0 0 1 34.943 3.081v.044zm14.82-40.916a96.58 96.58 0 0 0-48.387-20.125c6.655 3.458 29.351 10.816 48.387 20.081v.044zm-133.936 90.564c5.28 4.433 13.311 18.951-118.318 70.794 121.157-38.433 140.126-59.091 118.318-70.794zM34.121 178.823c5.901-6.649 40.911-18.973 70.751-16.557-30.284-7.58-62.209-.886-70.751 16.557zm46.191-51.865c11.98-8.045 42.775-5.718 60.035-9.22-18.325-8.755-48.942-12.434-60.035 9.22zM5.834 235.564c5.879-6.649 81.578-36.948 111.44-34.51-30.306-7.558-102.898 17.111-111.44 34.532v-.022z" fill="#63463d"/><path d="M379.934 195.048c-.511-9.42-1.132-18.574-8.564-40.539l-1.62-7.358c-1.93-10.728-.798-27.174.355-38.323l2.618 2.926c0-6.649.289-8.533 5.103-11.88a7.73 7.73 0 0 0-3.94.599c-1.238.541-2.312 1.396-3.115 2.482l.843-6.229c-36.829-.465-44.039-20.923-56.219-27.107-1.465-.754 3.394 3.303 5.036 8.157-7.432-7.979-20.7-13.587-39.935-8.29-2.529.709 9.385 1.374 7.189 1.884-11.848 2.726-25.559 13.809-24.56 35.752 0 1.684 3.927-11.903 3.683-10.329-1.509 9.974 3.572 19.35 5.125 21.832-10.628-3.945-18.681-14.739-18.681-14.739a13.65 13.65 0 0 0 5.103 8.333s-16.218-3.125-24.405-3.856c0 0 21.609 5.43 27.844 10.55-3.35-.222-22.563-4.433-25.093-4.433 5.281 9.93 19.213 13.521.843 29.745-26.623 23.45-31.06 35.818-17.549 34.288-22.851 23.34-18.769 34.023-7.632 36.262s-7.188 12.168-3.172 15.515 22.674-6.029 17.216-.621c-6.656 6.649-8.608 26.797 12.313 29.412s67.401-23.871 80.868-28.215-8.985 18.618-5.347 24.492 25.869-3.502 27.444-5.12 1.087 6.826 2.973 4.987c25.225-28.947 31.06-54.082 30.639-73.631l4.637 13.454z" fill="#e45325"/><path d="M301.972 123.767l-1.508.155-1.775.156c-.777 0-1.531 0-2.44-.178-4.791-.661-9.164-3.078-12.269-6.782-3.109-3.675-4.773-8.355-4.682-13.166.023-1.407.216-2.806.577-4.167.244-.953.422-1.463.422-1.463v1.507a25.43 25.43 0 0 0 .599 3.967 26.25 26.25 0 0 0 5.613 11.082c2.713 3.215 6.17 5.718 10.072 7.292.777.311 1.553.577 2.108.754l1.73.399 1.553.443zm65.249 79.15c8.098-13.787 6.656-37.458-2.218-48.496 4.637 6.694 6.5 42.844 2.218 48.496z" fill="#f27021"/><path d="M216.601 226.699c20.255-2.084 41.598-12.058 52.713-30.565-18.059 14.429-36.717 21.832-52.713 30.565zm74.389 12.168c14.865-3.879 33.434-11.57 40.622-26.11-15.374 12.169-27.51 20.081-40.622 26.11zm51.028 8.024c9.007-7.514 14.908-19.948 15.175-28.681-5.769 11.813-6.501 12.301-15.286 28.681h.111zm2.551-33.07c7.587-8.866 11.293-22.164 10.072-30.831-3.683 12.59-4.326 13.144-10.183 30.831h.111zm-102.055 36.793a55.99 55.99 0 0 0 26.978-10.772c-9.389 2.719-18.497 6.326-27.2 10.772h.222zm37.028-36.726c8.475-3.48 27.311-17.732 31.837-29.834-10.893 12.944-28.043 25.955-31.837 29.834zm-58.393-33.823c13.894-3.334 26.16-11.467 34.632-22.963-14.443 12.368-30.129 19.815-34.632 22.963zm66.557-95.153c22.186-22.165 55.132 12.235 30.639 31.385 12.402-19.416-9.451-44.196-30.594-31.385h-.045z" fill="#bd3926"/><path d="M338.734 120.952c4.57 4.61 51.915 18.663 56.263 20.391s-3.572-23.028-24.493-33.645c-4.814-2.461-36.385 8.6-31.77 13.254z" fill="#231f20"/><path d="M387.92 128.399c-6.257-9.397-15.397-14.805-21.21-15.803 2.951 2.66 12.89 8.533 21.21 15.803z" fill="#fff"/><path d="M318.982 103.705c1.485-9.792-5.178-18.92-14.883-20.389s-18.775 5.278-20.26 15.07 5.178 18.92 14.883 20.389 18.775-5.278 20.26-15.07z" fill="#231f20"/><g fill="#fff"><path d="M310.846 99.741a13.3 13.3 0 0 0-5.835-5.053 15.31 15.31 0 0 0-4.326-1.396 4.25 4.25 0 0 1 .333-1.153c1.264-2.549 4.903-3.347 8.186-1.751s4.881 4.943 3.639 7.514a4.24 4.24 0 0 1-1.997 1.84zm-9.429 16.868c-4.049-.552-7.718-2.677-10.21-5.913s-3.606-7.324-3.101-11.376c-.683 1.886-.93 3.902-.722 5.897a13.29 13.29 0 0 0 1.92 5.623 13.32 13.32 0 0 0 4.179 4.226 13.33 13.33 0 0 0 5.605 1.986 14.12 14.12 0 0 0 5.724-.332c-1.131.092-2.269.07-3.395-.067v-.044zM182.168 24.381s50.894 22.94 101.811 40.65c26.002 8.999 58.438 19.195 77.895 19.195 33.279 0 2.218-19.948 8.874-19.948L200.715 14.496c-7.074 1.25-13.568 4.711-18.547 9.885z"/></g><g style="mix-blend-mode:color"><use xlink:href="#C" fill="#32ba3f"/></g><use xlink:href="#C" stroke="#fff" stroke-width="5.853" stroke-miterlimit="10"/><g style="mix-blend-mode:color"><use xlink:href="#D" fill="#32ba3f"/></g><use xlink:href="#D" stroke="#fff" stroke-width="5.853" stroke-miterlimit="10"/><g fill="#ffd82e"><path d="M317.258 172.884c-2.033 7.891-2.418 16.114-1.131 24.16 2.218 12.057 33.168-8.046 33.168-8.046s3.438-8.068 0-12.08-32.037-4.034-32.037-4.034z"/><path d="M353 175.101c-5.724 1.33-2.219 13.299-2.219 13.299s9.762 1.507 15.53-2.217c3.861-2.482 2.219-11.082 2.219-11.082s.643-3.702-15.53 0z"/><path d="M368.064 173.727s14.864-11.083 16.728-5.564 11.093 22.298 1.864 24.16-18.592-5.054-18.592-5.054-5.591-13.542 0-13.542z"/></g><g fill="#a27200"><path d="M319.72 197.265c-.643.953 3.728 6.184 28.842-8.865l-28.842 8.865zm48.81-11.082s11.093 6.649 17.749 4.433-17.749-4.433-17.749-4.433zm-2.596-4.433c2.839 4.61-10.96 8.356-14.443 4.433-1.332-1.618 6.434 2.948 14.443-4.433z"/></g></g><defs><clipPath id="A"><path fill="#fff" transform="translate(425 436)" d="M0 0h57.07v57.07H0z"/></clipPath><clipPath id="B"><path fill="#fff" d="M0 0h448v384H0z"/></clipPath><path id="C" d="M259.818 55.411s39.935 88.658 77.651 93.091 115.367-2.216 106.492-15.515-68.776-48.762-68.776-48.762L259.818 55.411z"/><path id="D" d="M370.749 64.277s1.109-34.355-32.17-36.571c-13.999-.931-37.716-17.732-46.59-2.216S256.491 43.22 256.491 43.22s98.727 23.273 114.258 21.056z"/></defs></svg>
