<svg width="366" height="2046" viewBox="0 0 366 2046" fill="none" xmlns="http://www.w3.org/2000/svg">
<g opacity="0.1">
<g clip-path="url(#clip0)">
<path d="M1916.66 1503.99H30.1338V1621.24H1916.66V1503.99Z" fill="#4E352E"/>
<path d="M511.314 1773.33C370.579 1773.33 369.908 1357.93 511.314 1357.93C652.719 1357.93 652.719 1773.33 511.314 1773.33ZM1506.51 1398.13C1502.1 1392.02 1496.38 1386.99 1489.76 1383.39C1501.15 1430.96 1512.55 1544.86 1466.97 1544.86C1465.63 1508.68 1466.3 1403.49 1434.14 1373.34C1414.03 1379.37 1377.17 1397.46 1357.07 1449.05C1350.73 1469.6 1346.25 1490.68 1343.66 1512.03V1514.04C1329.59 1631.96 1363.77 1774 1446.2 1774C1531.98 1774 1565.49 1619.23 1546.72 1499.3C1542.63 1502.83 1537.39 1504.74 1531.98 1504.66C1533.32 1470.49 1523.27 1422.25 1506.51 1398.13ZM1777.93 1357.93C1636.53 1357.93 1637.2 1773.33 1777.93 1773.33C1918.67 1773.33 1918.67 1357.93 1777.93 1357.93ZM266.032 1357.93C124.627 1357.93 125.297 1773.33 266.032 1773.33C406.768 1773.33 407.438 1357.93 266.032 1357.93Z" fill="#E45325"/>
<path d="M317.634 1680.87C333.293 1680.9 348.468 1675.45 360.525 1665.46C345.111 1727.1 313.613 1773.33 266.701 1773.33C142.05 1773.33 127.307 1447.71 223.811 1373.34C192.313 1496.62 223.141 1680.87 317.634 1680.87ZM1828.86 1680.87C1735.04 1680.87 1703.54 1495.95 1735.04 1373.34C1638.54 1447.71 1653.28 1773.33 1777.93 1773.33C1824.84 1773.33 1856.34 1727.1 1871.75 1665.46C1859.7 1675.45 1844.52 1680.9 1828.86 1680.87ZM1356.93 1447.91C1317.39 1569.85 1346.88 1773.53 1445.39 1773.53C1492.3 1773.53 1523.8 1727.3 1539.22 1665.66C1526.99 1675.35 1511.92 1680.76 1496.33 1681.07C1406.52 1681.07 1374.36 1513.57 1398.48 1391.63C1379.89 1406.38 1365.55 1425.8 1356.93 1447.91ZM468.288 1373.54C371.784 1447.91 386.528 1773.53 511.179 1773.53C558.091 1773.53 589.588 1727.3 605.002 1665.66C592.774 1675.35 577.709 1680.76 562.112 1681.07C468.422 1680.87 436.924 1496.62 468.422 1373.34L468.288 1373.54Z" fill="#BE3A26"/>
<path d="M1229.06 1296.29C1103.74 1344.53 913.415 1324.43 754.585 1260.78C753.517 1258.39 752.621 1255.92 751.905 1253.41C751.905 1253.41 814.23 1209.19 817.581 1195.79C799.486 1177.7 782.062 1141.52 782.062 1141.52C784.171 1156.51 787.534 1171.3 792.115 1185.74C792.115 1185.74 765.308 1173.68 756.596 1152.24L698.291 1235.32C698.291 1235.49 698.362 1235.67 698.487 1235.79C698.613 1235.92 698.784 1235.99 698.961 1235.99C636.636 1205.17 581.682 1167.65 540.802 1125.44C550.184 1150.9 558.226 1175.69 562.247 1187.75C535.44 1154.25 427.543 1043.03 386.663 885.575C386.662 910.42 388.004 935.246 390.684 959.946C365.602 898.565 350.01 833.726 344.442 767.655C341.599 787.635 340.033 807.776 339.751 827.955C322.997 780.385 315.625 717.404 314.285 670.504V626.284C309.522 636.251 305.49 646.552 302.222 657.104C301.552 659.784 300.881 661.794 300.211 664.474V665.144C299.439 667.759 298.989 670.46 298.871 673.184C291.933 622.181 293.064 570.405 302.222 519.753C444.297 597.474 603.797 695.294 702.312 764.975C719.737 777.035 547.503 718.744 564.928 730.804C711.024 829.295 863.823 909.695 1011.26 905.005C1043.92 903.676 1076.31 898.503 1107.76 889.595C999.867 951.236 702.982 880.885 607.148 850.735C674.165 845.375 698.961 841.355 698.961 841.355C629.264 819.915 552.194 779.715 475.795 752.244C479.146 807.185 491.879 864.135 513.325 908.355C501.932 846.715 513.325 815.895 513.325 815.895C513.325 815.895 535.44 946.546 587.043 1022.26C566.938 941.186 575.65 913.715 575.65 913.715C575.65 913.715 617.201 1069.83 678.186 1123.43C670.133 1094.68 667.855 1064.62 671.484 1034.99C671.484 1034.99 682.877 1065.81 754.585 1123.43C736.491 1079.88 779.381 1095.29 812.89 1141.52C846.398 1187.75 866.503 1191.77 958.316 1173.68C891.3 1211.87 998.526 1238.67 1067.55 1229.96C1017.96 1261.45 1174.78 1253.41 1263.91 1231.97C1217 1268.15 1379.85 1252.74 1406.66 1234.65C1414.7 1229.29 1432.8 1229.29 1452.9 1233.31C1386.55 1277.53 1302.78 1310.36 1194.89 1325.77C1193.55 1325.1 1217 1314.38 1229.06 1296.29ZM899.342 1046.38C932.85 1060.45 976.411 1041.69 1011.93 994.116C988.34 1014.22 941.428 1041.02 899.342 1046.38ZM899.342 1153.58C924.138 1161.62 956.976 1150.9 983.113 1123.43C957.6 1139.21 929.064 1149.48 899.342 1153.58ZM631.944 891.806C623.902 928.657 639.986 974.887 676.846 1011.07C654.531 974.48 639.299 934.023 631.944 891.806Z" fill="#B3B3B3"/>
<path d="M56.2695 402.702C90.4481 474.392 190.973 550.772 292.839 609.733C292.32 579.605 295.016 549.508 300.881 519.952C201.026 464.811 110.419 419.921 56.2695 402.702Z" fill="#2D1E1C"/>
<path d="M302.89 -92.6307C215.098 -163.651 164.835 -110.051 192.312 -38.3604C165.506 -51.0905 24.7703 -205.191 30.1316 -108.041C33.4825 -52.4305 162.825 115.07 292.838 280.561C363.545 248.509 436.579 221.856 511.312 200.831C430.222 69.5102 344.44 -59.1305 302.89 -92.6307Z" fill="#2D1E1C"/>
<path d="M1875.11 864.134C1953.52 617.573 1864.38 206.86 1093.02 229.64C721.076 55.4395 316.965 253.761 56.2695 402.501C186.282 444.712 533.429 646.383 700.971 764.304C718.396 776.364 546.162 718.073 563.587 730.133C709.683 828.624 862.482 909.024 1009.92 904.334C1141.27 900.314 1362.43 807.854 1383.87 643.033C1450.22 655.763 1475.02 785.744 1468.31 795.794C1477.03 786.414 1487.08 687.253 1533.99 663.133C1533.99 663.133 1514.56 718.743 1519.92 733.483C1544.71 655.093 1736.38 643.033 1705.55 836.664C1714.27 827.954 1730.35 770.333 1730.35 770.333C1707.56 913.714 1763.19 971.335 1817.47 980.715C1842.94 976.025 1892.53 884.904 1898.56 827.954C1892.32 840.965 1884.44 853.124 1875.11 864.134Z" fill="#4E352E"/>
<path d="M337.07 302.203C407.438 258.653 653.39 151.452 908.054 201.702C657.411 188.302 337.07 302.203 337.07 302.203ZM1093.02 229.843C1074.08 220.665 1054.61 212.611 1034.72 205.722C1113.21 257.157 1184.06 319.411 1245.15 390.644C1223.7 353.123 1198.24 286.123 1152.66 229.173C1133.23 228.972 1113.12 228.972 1093.02 229.642V229.843Z" fill="#2D1E1C"/>
<path d="M327.017 288.803C186.282 125.993 50.9082 -89.7487 50.9082 -121.239C50.9082 -121.44 159.475 52.7612 327.017 288.803ZM397.385 182.273C396.045 162.173 304.232 28.172 212.419 -71.6586C324.337 74.4023 397.385 182.072 397.385 182.072V182.273Z" fill="#4E352E"/>
</g>
<rect y="1254" width="366" height="563" fill="#F9FAFB"/>
</g>
<defs>
<clipPath id="clip0">
<rect width="1886.66" height="1914" fill="white" transform="translate(30 -140)"/>
</clipPath>
</defs>
</svg>
