<svg width="24" height="24" viewBox="0 0 24 24" fill="none" xmlns="http://www.w3.org/2000/svg">
<g clip-path="url(#clip0_82_2301)">
<path fill-rule="evenodd" clip-rule="evenodd" d="M13.2729 11.2238H10.7738V8.98997H13.2729V11.2238ZM13.2729 3.5H10.7738V5.80957H13.2729V3.5ZM16.2263 8.98997H13.7273V11.2238H16.2263V8.98997ZM10.3195 6.26393H7.82044V8.53564H10.3195V6.26393ZM13.2729 6.26393H10.7738V8.53564H13.2729V6.26393ZM23.7613 10.0501C23.2312 9.67151 21.9438 9.55791 20.9972 9.7472C20.8836 8.83854 20.3535 8.04343 19.4448 7.32403L18.9147 6.9833L18.5739 7.51338C17.8923 8.5735 17.703 10.3151 18.4224 11.451C18.0816 11.6403 17.438 11.8675 16.605 11.8675H0.0960947C-0.244688 13.7985 0.323301 16.2973 1.76212 18.0011C3.16314 19.667 5.28352 20.5 8.00978 20.5C13.9544 20.5 18.3846 17.774 20.4292 12.7762C21.2244 12.7762 23.004 12.7762 23.8749 11.0724C23.9128 10.9966 24.1399 10.5802 24.1778 10.4287L23.7613 10.0501ZM4.41266 8.98997H1.91361V11.2238H4.41266V8.98997ZM7.36608 8.98997H4.86702V11.2238H7.36608V8.98997ZM10.3195 8.98997H7.82044V11.2238H10.3195V8.98997ZM7.36608 6.26393H4.86702V8.53564H7.36608V6.26393Z" fill="#4E5BA6"/>
</g>
<defs>
<clipPath id="clip0_82_2301">
<rect width="24" height="24" fill="white"/>
</clipPath>
</defs>
</svg>
