<?xml version="1.0" encoding="utf-8"?>
<svg width="252" height="210" xmlns="http://www.w3.org/2000/svg">
  <style>.B{fill:#382a28}.C{fill:#da5724}.D{fill:#705247}.E{fill:#f2e6d6}.F{fill:#553e37}.G{fill:#b8432a}</style>
  <path d="M46.884 118.204l2.39-.281c-.111-.718-.278-1.427-.5-2.119-.4-1.262-.977-2.461-1.714-3.562l-2.317 1.523q-1.908-2.074-3.813-4.145l1.222-2.33c-1.497-1.02-3.151-1.79-4.895-2.28l-.629 3-1.329.114a14.15 14.15 0 0 0-4.938-.023l-1.155-3.3a16.48 16.48 0 0 0-5.256 2.18l1.868 2.749c-1.788 1.021-3.33 2.42-4.52 4.1l-2.839-1.235c-.945 1.556-1.646 3.247-2.079 5.015l2.692 1.225a14.07 14.07 0 0 0-.315 3.917 14.67 14.67 0 0 0 .218 1.774l-2.739 1.1c.406 1.995 1.15 3.906 2.2 5.651q1.326-.788 2.655-1.57c1.168 1.743 2.71 3.203 4.513 4.275l-1.175 3.294c1.518.911 3.173 1.572 4.9 1.959l.633-3.559h.037c2.077.41 4.22.351 6.271-.174l1.332 3.462a16.6 16.6 0 0 0 4.319-1.985l-1.493-3.217.335-.321a14.11 14.11 0 0 0 3.157-3.027l1.008-.964 2.551 1.667a17.9 17.9 0 0 0 2.19-6.2l-2.561-.82q-.113-2.955-.224-5.893zm-5.681 1.982a8.5 8.5 0 0 1-13.991 7.958 8.5 8.5 0 0 1 6.244-14.835 8.5 8.5 0 0 1 7.747 6.877z" class="D"/>
  <path d="M24.768 169.166c2.173-3.278 6.157-4.2 8.718-2.652 2.675 1.617 2.7 5.26 2.7 5.437 3.539-1.55 7.011-.787 8.293 1.249.571.987.739 2.156.469 3.264 2.279-2.291 5.82-2.75 8.607-1.115 1.767 1.286 2.85 3.31 2.939 5.494H3s.931-10.221 8.494-8.1c0 .013 5.574-8.224 13.274-3.577zm177.148-5.189s-5.4-6.84-1.439-13.5c0 0-3.6-7.737 3.6-12.779s6.659 9.177 6.659 9.177 10.258 2.159 8.457 11.517l-1.8 9.357s26.994-34.734 28.8-28.076-1.8 9.357-1.8 9.357 8.279 5.039 0 8.818l-8.279 3.78s5.939 1.979 4.319 6.12-11.159 6.12-11.159 6.12c5.648 1.282 14.955 3.539 15.3 4.68 0 .017.124.432.362 1.259h-72.535s1.259-13.857 11.517-10.978c0 .006 7.559-11.152 17.998-4.852z" fill="#e5e5e4"/>
  <g fill="#fff9ed">
    <path d="M211.739 168.461c-2.139-4.818-6.98-23.057-7.027-23.241l.348-.09c.05.184 4.881 18.4 7.011 23.188z"/>
    <path d="M201.752 154.155l.145-.327 6.286 2.79-.145.327zm8.525 10.169l3.273-7.704.329.14-3.273 7.704zm7.354 10.103l-.3-.2c3.565-5.35 22.327-25.022 22.515-25.22l.261.248c-.189.196-18.924 19.841-22.476 25.172z"/>
    <path d="M235.379 153.823l8.186-.715.031.361-8.186.715zm-8.093 8.695l1.255-7.835.357.057-1.255 7.835zm-5.684 6.419l13.824-3.427.087.351-13.824 3.427z"/>
  </g>
  <path d="M173.492 181.386H53.804c-5.889 0-10.683-5.126-10.683-11.43V69.677c0-6.3 4.791-11.43 10.683-11.43h119.688c5.889 0 10.683 5.126 10.683 11.43v100.28c0 6.3-4.794 11.429-10.683 11.429zM53.804 59.027c-5.464 0-9.906 4.781-9.906 10.653v100.277c0 5.876 4.446 10.653 9.906 10.653h119.688c5.464 0 9.906-4.781 9.906-10.653V69.677c0-5.876-4.446-10.653-9.906-10.653z" fill="#372a28"/>
  <path d="M183.786 69.676v2.427H43.509v-2.427c0-6.1 4.61-11.041 10.295-11.041h119.688c5.684 0 10.294 4.945 10.294 11.041z" class="C"/>
  <g fill="#fff">
    <path d="M59.837 64.986a2.31 2.31 0 1 1-4.62 0 2.31 2.31 0 0 1 3.943-1.633 2.31 2.31 0 0 1 .677 1.633z" transform="matrix(1, 0, 0, 1, 0, 0)"/>
    <path d="M59.837 64.986a2.31 2.31 0 1 1-4.62 0 2.31 2.31 0 0 1 3.943-1.633 2.31 2.31 0 0 1 .677 1.633z" transform="matrix(1, 0, 0, 1, 11.925000190734863, 0)"/>
    <path d="M59.837 64.986a2.31 2.31 0 1 1-4.62 0 2.31 2.31 0 0 1 3.943-1.633 2.31 2.31 0 0 1 .677 1.633z" transform="matrix(1, 0, 0, 1, 23.854000091552734, 0)"/>
  </g>
  <g fill="#e5e5e4">
    <path d="M172.475 121.636v.6a4.32 4.32 0 0 1-4.319 4.319H57.896a4.32 4.32 0 0 1-4.319-4.319v-.6a4.32 4.32 0 0 1 4.319-4.319h110.26a4.32 4.32 0 0 1 4.319 4.319z" transform="matrix(1, 0, 0, 1, 0, 0)"/>
    <path d="M172.475 121.636v.6a4.32 4.32 0 0 1-4.319 4.319H57.896a4.32 4.32 0 0 1-4.319-4.319v-.6a4.32 4.32 0 0 1 4.319-4.319h110.26a4.32 4.32 0 0 1 4.319 4.319z" transform="matrix(1, 0, 0, 1, 0, -40.59600067138672)"/>
    <path d="M50.389 90.38h35.578v19.431H50.389zm44.635 0h35.578v19.431H95.024zm44.634 0h35.578v19.431h-35.578zm-89.269 47.909h35.578v30.399H50.389zm44.635 0h35.578v30.399H95.024zm44.634 0h35.578v30.399h-35.578z"/>
  </g>
  <path d="M134.188 122.802v.04c-.027 2.066-1.714 3.723-3.78 3.713H57.896a4.32 4.32 0 0 1-4.319-4.319v-.6a4.32 4.32 0 0 1 4.319-4.319h72.238a3.75 3.75 0 0 1 3.555 2.5c.331.96.5 1.969.499 2.985z" class="C"/>
  <g fill="#1b2e4e" transform="matrix(1, 0, 0, 1, 0.211308, 0.440225)">
    <path d="M 134.118 133.153 C 134.127 132.977 134.275 132.841 134.45 132.847 C 134.625 132.853 134.764 132.999 134.761 133.175 C 134.758 133.351 134.614 133.492 134.438 133.491 C 134.35 133.49 134.267 133.453 134.206 133.39 C 134.145 133.327 134.113 133.241 134.117 133.153 L 134.118 133.153 Z" style="fill: rgb(47, 35, 30);"/>
    <path d="M 135.467 133.153 C 135.476 132.977 135.624 132.841 135.799 132.847 C 135.974 132.853 136.113 132.999 136.11 133.175 C 136.107 133.351 135.963 133.492 135.787 133.491 C 135.699 133.49 135.616 133.453 135.555 133.39 C 135.494 133.327 135.462 133.241 135.466 133.153 L 135.467 133.153 Z" style="fill: rgb(47, 35, 30);"/>
    <path d="M 136.82 133.153 C 136.829 132.977 136.977 132.841 137.152 132.847 C 137.327 132.853 137.466 132.999 137.463 133.175 C 137.46 133.351 137.316 133.492 137.14 133.491 C 137.052 133.491 136.968 133.455 136.907 133.391 C 136.846 133.327 136.815 133.241 136.819 133.153 L 136.82 133.153 Z" style="fill: rgb(47, 35, 30);"/>
    <path d="M 87.334409765625 133.6736125732422 Q 86.974409765625 133.6736125732422 86.705609765625 133.5296125732422 Q 86.436809765625 133.38561257324218 86.290409765625 133.06881257324218 Q 86.144009765625 132.75201257324218 86.144009765625 132.2384125732422 L 86.144009765625 130.4768125732422 L 86.700809765625 130.4768125732422 L 86.700809765625 132.2816125732422 Q 86.700809765625 132.6224125732422 86.780009765625 132.8216125732422 Q 86.859209765625 133.02081257324218 87.003209765625 133.10481257324219 Q 87.147209765625 133.1888125732422 87.334409765625 133.1888125732422 Q 87.526409765625 133.1888125732422 87.672809765625 133.10481257324219 Q 87.819209765625 133.02081257324218 87.903209765625 132.8216125732422 Q 87.987209765625 132.6224125732422 87.987209765625 132.2816125732422 L 87.987209765625 130.4768125732422 L 88.520009765625 130.4768125732422 L 88.520009765625 132.2384125732422 Q 88.520009765625 132.75201257324218 88.376009765625 133.06881257324218 Q 88.232009765625 133.38561257324218 87.965609765625 133.5296125732422 Q 87.699209765625 133.6736125732422 87.334409765625 133.6736125732422 Z M 89.30063693847656 133.6160125732422 L 89.30063693847656 130.4768125732422 L 89.87183693847656 130.4768125732422 L 90.85103693847657 132.24321257324218 L 91.17263693847656 132.91041257324218 L 91.19183693847656 132.91041257324218 Q 91.17263693847656 132.67041257324217 91.14623693847656 132.38721257324218 Q 91.11983693847657 132.1040125732422 91.11983693847657 131.84001257324218 L 91.11983693847657 130.4768125732422 L 91.65263693847656 130.4768125732422 L 91.65263693847656 133.6160125732422 L 91.08143693847656 133.6160125732422 L 90.10223693847657 131.84961257324218 L 89.78063693847656 131.18241257324217 L 89.76143693847656 131.18241257324217 Q 89.78063693847656 131.4320125732422 89.80703693847656 131.70561257324218 Q 89.83343693847657 131.9792125732422 89.83343693847657 132.24321257324218 L 89.83343693847657 133.6160125732422 Z M 92.45069187011718 133.6160125732422 L 92.45069187011718 130.4768125732422 L 93.29069187011719 130.4768125732422 Q 94.01069187011718 130.4768125732422 94.41389187011718 130.86561257324217 Q 94.81709187011718 131.25441257324218 94.81709187011718 132.03201257324218 Q 94.81709187011718 132.81441257324218 94.41869187011719 133.21521257324218 Q 94.02029187011719 133.6160125732422 93.31949187011719 133.6160125732422 Z M 93.00749187011719 133.1648125732422 L 93.25229187011719 133.1648125732422 Q 93.72749187011719 133.1648125732422 93.98669187011718 132.88881257324218 Q 94.24589187011719 132.6128125732422 94.24589187011719 132.03201257324218 Q 94.24589187011719 131.4560125732422 93.98669187011718 131.19201257324218 Q 93.72749187011719 130.9280125732422 93.25229187011719 130.9280125732422 L 93.00749187011719 130.9280125732422 Z M 95.45008914794921 133.6160125732422 L 95.45008914794921 130.4768125732422 L 97.34128914794921 130.4768125732422 L 97.34128914794921 130.94721257324218 L 96.00688914794922 130.94721257324218 L 96.00688914794922 131.7488125732422 L 97.13488914794922 131.7488125732422 L 97.13488914794922 132.21921257324217 L 96.00688914794922 132.21921257324217 L 96.00688914794922 133.14561257324218 L 97.38928914794921 133.14561257324218 L 97.38928914794921 133.6160125732422 Z M 98.03274600830078 133.6160125732422 L 98.03274600830078 130.4768125732422 L 99.09354600830078 130.4768125732422 Q 99.41994600830078 130.4768125732422 99.68154600830078 130.5632125732422 Q 99.94314600830079 130.6496125732422 100.09434600830077 130.85361257324217 Q 100.24554600830078 131.05761257324218 100.24554600830078 131.4080125732422 Q 100.24554600830078 131.76801257324217 100.07514600830078 131.9888125732422 Q 99.90474600830078 132.2096125732422 99.62154600830078 132.3056125732422 L 100.37034600830079 133.6160125732422 L 99.74634600830078 133.6160125732422 L 99.06954600830078 132.38721257324218 L 98.58954600830079 132.38721257324218 L 98.58954600830079 133.6160125732422 Z M 98.58954600830079 131.9456125732422 L 99.03594600830078 131.9456125732422 Q 99.35754600830079 131.9456125732422 99.52794600830079 131.8088125732422 Q 99.69834600830077 131.6720125732422 99.69834600830077 131.4080125732422 Q 99.69834600830077 131.1392125732422 99.52794600830079 131.0312125732422 Q 99.35754600830079 130.92321257324218 99.03594600830078 130.92321257324218 L 98.58954600830079 130.92321257324218 Z M 101.83237521972656 133.6160125732422 L 101.83237521972656 130.4768125732422 L 102.46117521972656 130.4768125732422 L 103.01797521972657 132.0128125732422 Q 103.07077521972656 132.1616125732422 103.12117521972657 132.3176125732422 Q 103.17157521972656 132.47361257324218 103.21957521972656 132.6272125732422 L 103.23877521972656 132.6272125732422 Q 103.29157521972657 132.47361257324218 103.33957521972656 132.3176125732422 Q 103.38757521972656 132.1616125732422 103.43557521972656 132.0128125732422 L 103.97797521972656 130.4768125732422 L 104.61157521972656 130.4768125732422 L 104.61157521972656 133.6160125732422 L 104.09797521972656 133.6160125732422 L 104.09797521972656 132.18081257324218 Q 104.09797521972656 132.03201257324218 104.10997521972656 131.8568125732422 Q 104.12197521972656 131.68161257324218 104.13877521972657 131.5040125732422 Q 104.15557521972656 131.32641257324218 104.16997521972657 131.18241257324217 L 104.15077521972657 131.18241257324217 L 103.89637521972656 131.91201257324218 L 103.38277521972657 133.3232125732422 L 103.05157521972656 133.3232125732422 L 102.53317521972656 131.91201257324218 L 102.28357521972656 131.18241257324217 L 102.26437521972656 131.18241257324217 Q 102.27877521972657 131.32641257324218 102.29557521972656 131.5040125732422 Q 102.31237521972656 131.68161257324218 102.32437521972656 131.8568125732422 Q 102.33637521972656 132.03201257324218 102.33637521972656 132.18081257324218 L 102.33637521972656 133.6160125732422 Z M 106.05215908203125 131.9456125732422 L 105.94175908203125 132.3296125732422 L 106.74335908203125 132.3296125732422 L 106.63295908203125 131.9456125732422 Q 106.55615908203124 131.6960125732422 106.48655908203125 131.4320125732422 Q 106.41695908203125 131.16801257324218 106.34975908203126 130.9088125732422 L 106.33055908203124 130.9088125732422 Q 106.26815908203125 131.1728125732422 106.19855908203125 131.43441257324218 Q 106.12895908203124 131.6960125732422 106.05215908203125 131.9456125732422 Z M 105.00095908203124 133.6160125732422 L 106.02335908203125 130.4768125732422 L 106.67615908203125 130.4768125732422 L 107.69855908203125 133.6160125732422 L 107.11295908203125 133.6160125732422 L 106.86815908203126 132.76641257324218 L 105.81215908203124 132.76641257324218 L 105.56735908203125 133.6160125732422 Z M 108.0874869140625 133.6160125732422 L 108.0874869140625 130.4768125732422 L 108.6442869140625 130.4768125732422 L 108.6442869140625 133.6160125732422 Z M 109.44142215576171 133.6160125732422 L 109.44142215576171 130.4768125732422 L 110.01262215576172 130.4768125732422 L 110.99182215576172 132.24321257324218 L 111.31342215576171 132.91041257324218 L 111.33262215576171 132.91041257324218 Q 111.31342215576171 132.67041257324217 111.28702215576172 132.38721257324218 Q 111.26062215576172 132.1040125732422 111.26062215576172 131.84001257324218 L 111.26062215576172 130.4768125732422 L 111.79342215576172 130.4768125732422 L 111.79342215576172 133.6160125732422 L 111.22222215576171 133.6160125732422 L 110.24302215576172 131.84961257324218 L 109.92142215576172 131.18241257324217 L 109.90222215576172 131.18241257324217 Q 109.92142215576172 131.4320125732422 109.94782215576171 131.70561257324218 Q 109.97422215576172 131.9792125732422 109.97422215576172 132.24321257324218 L 109.97422215576172 133.6160125732422 Z M 113.22312396240234 133.6160125732422 L 113.22312396240234 130.94721257324218 L 112.31592396240234 130.94721257324218 L 112.31592396240234 130.4768125732422 L 114.68712396240234 130.4768125732422 L 114.68712396240234 130.94721257324218 L 113.77992396240235 130.94721257324218 L 113.77992396240235 133.6160125732422 Z M 115.20935123291015 133.6160125732422 L 115.20935123291015 130.4768125732422 L 117.10055123291015 130.4768125732422 L 117.10055123291015 130.94721257324218 L 115.76615123291016 130.94721257324218 L 115.76615123291016 131.7488125732422 L 116.89415123291016 131.7488125732422 L 116.89415123291016 132.21921257324217 L 115.76615123291016 132.21921257324217 L 115.76615123291016 133.14561257324218 L 117.14855123291015 133.14561257324218 L 117.14855123291015 133.6160125732422 Z M 117.79200046386718 133.6160125732422 L 117.79200046386718 130.4768125732422 L 118.36320046386719 130.4768125732422 L 119.3424004638672 132.24321257324218 L 119.66400046386718 132.91041257324218 L 119.68320046386718 132.91041257324218 Q 119.66400046386718 132.67041257324217 119.63760046386719 132.38721257324218 Q 119.61120046386719 132.1040125732422 119.61120046386719 131.84001257324218 L 119.61120046386719 130.4768125732422 L 120.14400046386719 130.4768125732422 L 120.14400046386719 133.6160125732422 L 119.57280046386718 133.6160125732422 L 118.59360046386719 131.84961257324218 L 118.27200046386719 131.18241257324217 L 118.25280046386719 131.18241257324217 Q 118.27200046386719 131.4320125732422 118.29840046386718 131.70561257324218 Q 118.32480046386719 131.9792125732422 118.32480046386719 132.24321257324218 L 118.32480046386719 133.6160125732422 Z M 121.58330227050782 131.9456125732422 L 121.47290227050782 132.3296125732422 L 122.27450227050781 132.3296125732422 L 122.16410227050781 131.9456125732422 Q 122.0873022705078 131.6960125732422 122.01770227050781 131.4320125732422 Q 121.94810227050782 131.16801257324218 121.88090227050782 130.9088125732422 L 121.8617022705078 130.9088125732422 Q 121.79930227050781 131.1728125732422 121.72970227050781 131.43441257324218 Q 121.6601022705078 131.6960125732422 121.58330227050782 131.9456125732422 Z M 120.5321022705078 133.6160125732422 L 121.55450227050781 130.4768125732422 L 122.20730227050781 130.4768125732422 L 123.22970227050781 133.6160125732422 L 122.64410227050782 133.6160125732422 L 122.39930227050782 132.76641257324218 L 121.3433022705078 132.76641257324218 L 121.09850227050781 133.6160125732422 Z M 123.61863010253906 133.6160125732422 L 123.61863010253906 130.4768125732422 L 124.18983010253906 130.4768125732422 L 125.16903010253907 132.24321257324218 L 125.49063010253906 132.91041257324218 L 125.50983010253906 132.91041257324218 Q 125.49063010253906 132.67041257324217 125.46423010253906 132.38721257324218 Q 125.43783010253907 132.1040125732422 125.43783010253907 131.84001257324218 L 125.43783010253907 130.4768125732422 L 125.97063010253906 130.4768125732422 L 125.97063010253906 133.6160125732422 L 125.39943010253906 133.6160125732422 L 124.42023010253907 131.84961257324218 L 124.09863010253906 131.18241257324217 L 124.07943010253906 131.18241257324217 Q 124.09863010253906 131.4320125732422 124.12503010253906 131.70561257324218 Q 124.15143010253907 131.9792125732422 124.15143010253907 132.24321257324218 L 124.15143010253907 133.6160125732422 Z M 128.01952427978514 133.6736125732422 Q 127.62592427978515 133.6736125732422 127.30432427978516 133.48641257324218 Q 126.98272427978516 133.2992125732422 126.79312427978516 132.93681257324218 Q 126.60352427978516 132.5744125732422 126.60352427978516 132.05601257324219 Q 126.60352427978516 131.5424125732422 126.79792427978515 131.1752125732422 Q 126.99232427978515 130.8080125732422 127.31872427978516 130.6136125732422 Q 127.64512427978515 130.4192125732422 128.03872427978516 130.4192125732422 Q 128.33632427978515 130.4192125732422 128.56672427978515 130.5392125732422 Q 128.79712427978515 130.6592125732422 128.94592427978515 130.8176125732422 L 128.64832427978516 131.1776125732422 Q 128.52832427978515 131.0528125732422 128.38192427978515 130.9784125732422 Q 128.23552427978515 130.9040125732422 128.05312427978515 130.9040125732422 Q 127.79872427978516 130.9040125732422 127.59952427978516 131.0408125732422 Q 127.40032427978515 131.1776125732422 127.28752427978516 131.4320125732422 Q 127.17472427978515 131.6864125732422 127.17472427978515 132.0416125732422 Q 127.17472427978515 132.5792125732422 127.40992427978516 132.8840125732422 Q 127.64512427978515 133.1888125732422 128.03872427978516 133.1888125732422 Q 128.24992427978515 133.1888125732422 128.41312427978517 133.1000125732422 Q 128.57632427978515 133.01121257324218 128.71072427978515 132.8672125732422 L 129.00832427978514 133.21761257324218 Q 128.81632427978516 133.43841257324218 128.56912427978514 133.55601257324219 Q 128.32192427978515 133.6736125732422 128.01952427978514 133.6736125732422 Z M 129.5313345703125 133.6160125732422 L 129.5313345703125 130.4768125732422 L 131.4225345703125 130.4768125732422 L 131.4225345703125 130.94721257324218 L 130.0881345703125 130.94721257324218 L 130.0881345703125 131.7488125732422 L 131.2161345703125 131.7488125732422 L 131.2161345703125 132.21921257324217 L 130.0881345703125 132.21921257324217 L 130.0881345703125 133.14561257324218 L 131.4705345703125 133.14561257324218 L 131.4705345703125 133.6160125732422 Z" transform="matrix(1, 0, 0, 1, 0, 0)" style="fill: rgb(47, 35, 30); white-space: pre;"/>
  </g>
  <g fill="#fff">
    <path d="M64.546 82.419a2.3 2.3 0 0 1-1.151-4.289 2.3 2.3 0 0 1 3.156 3.124c-.406.725-1.174 1.172-2.005 1.165zm.007-3.646a1.3 1.3 0 0 0-.358.05c-.344.093-.636.321-.81.633a1.34 1.34 0 0 0-.127 1.021c.093.344.321.636.633.81.646.364 1.464.138 1.831-.506h0a1.34 1.34 0 0 0 .127-1.021c-.093-.344-.321-.636-.633-.81a1.34 1.34 0 0 0-.67-.177z"/>
    <path d="M62.134 84.783l-.355-.2c-.211-.12-.315-.325-.231-.452l1.691-2.554c.077-.117.3-.124.5-.01h0c.2.114.3.3.244.432q-.668 1.376-1.336 2.755c-.074.133-.302.146-.513.029z"/>
    <circle cx="48.106" cy="157.338" r="27.098"/>
  </g>
  <path d="M48.106 184.979a27.64 27.64 0 0 1-19.544-47.184 27.64 27.64 0 0 1 47.184 19.544c-.018 15.258-12.382 27.622-27.64 27.64zm0-54.2c-10.741 0-20.424 6.47-24.535 16.393s-1.838 21.346 5.757 28.94 19.017 9.867 28.94 5.757 16.393-13.794 16.393-24.535c-.018-14.659-11.897-26.537-26.556-26.552z" class="B"/>
  <path d="M32.957 142.487c2.715-2.489 5.955-4.335 9.481-5.4a23.64 23.64 0 0 1 5.594-.961 22.29 22.29 0 0 1 5.805.482 21.54 21.54 0 0 1 5.614 2.062 22.43 22.43 0 0 1 4.948 3.592 25.5 25.5 0 0 1 3.884 4.777 28.01 28.01 0 0 1 1.507 2.705c.462.95.864 1.927 1.205 2.926l-7.714 1.962c-.1-.735-.249-1.463-.445-2.179a19.7 19.7 0 0 0-.72-2.176 18.91 18.91 0 0 0-2.179-4.051 16.84 16.84 0 0 0-3.177-3.375 17.13 17.13 0 0 0-4.091-2.441 18.87 18.87 0 0 0-4.751-1.3c-1.684-.229-3.389-.254-5.079-.074a23.62 23.62 0 0 0-9.882 3.451zm36.508 15.889l-21.858-2.7c-.32-.04-.644.022-.927.177l-2.307 1.272a1.53 1.53 0 0 0-.792 1.367c.01.567.331 1.083.836 1.341l2.354 1.2a1.53 1.53 0 0 0 .894.154z" class="C"/>
  <circle cx="47.651" cy="158.29" r="1.413" class="E"/>
  <path d="M193.6 35.836q1.376-.869 2.752-1.734a19.03 19.03 0 0 0-6.01-5.651q-.969 1.6-1.938 3.207-3.535-1.421-7.071-2.839l.134-3.555a22.67 22.67 0 0 0-7.305.067l.978 4.024-1.557.914c-2.166.587-4.212 1.551-6.043 2.849l-3.335-3.358a22.31 22.31 0 0 0-5.146 5.722l3.884 2.27a19.03 19.03 0 0 0-3.127 7.64l-4.188.147a24.18 24.18 0 0 0 .382 7.332q2-.035 4-.074c.58 2.53 1.669 4.915 3.2 7.011q-1.351 1.471-2.7 2.946c1.661 2.199 3.684 4.099 5.983 5.618q1.165-1.733 2.327-3.465a19.04 19.04 0 0 0 8 2.588l.485 4.7a22.51 22.51 0 0 0 7.124-.462l-1.3-4.714.044-.027a19 19 0 0 0 4.523-1.791 18.76 18.76 0 0 0 3.027-2.072l3.646 3.452a22.43 22.43 0 0 0 4.115-4.942l-3.7-3.06.221-.586a19.06 19.06 0 0 0 2.092-5.531l.666-1.764 4.084.549c.237-2.983-.082-5.985-.941-8.852l-3.606.489zm-5.782 5.728a11.5 11.5 0 1 1-13.462-3.884 11.51 11.51 0 0 1 13.463 3.884zm-30.453 22.07l2.39-.281a13.88 13.88 0 0 0-.5-2.119c-.4-1.262-.977-2.461-1.714-3.562l-2.317 1.523q-1.908-2.074-3.813-4.145l1.222-2.33a16.72 16.72 0 0 0-4.895-2.28l-.629 3-1.329.114a14.15 14.15 0 0 0-4.938-.023l-1.155-3.3c-1.865.416-3.644 1.153-5.256 2.179l1.868 2.749c-1.788 1.021-3.33 2.42-4.52 4.1l-2.839-1.235a17.82 17.82 0 0 0-2.079 5.015l2.692 1.225a14.07 14.07 0 0 0-.315 3.917 14.7 14.7 0 0 0 .218 1.774l-2.739 1.1c.406 1.995 1.15 3.906 2.2 5.651q1.326-.788 2.655-1.57c1.168 1.743 2.71 3.203 4.513 4.275l-1.175 3.294a16.61 16.61 0 0 0 4.9 1.958l.633-3.559h.037a14.2 14.2 0 0 0 6.271-.174l1.333 3.462a16.6 16.6 0 0 0 4.319-1.985l-1.493-3.217.335-.321a14.13 14.13 0 0 0 3.157-3.027l1.008-.964 2.551 1.667a17.9 17.9 0 0 0 2.19-6.2l-2.561-.82q-.114-2.953-.225-5.891zm-5.681 1.982a8.5 8.5 0 1 1-7.747-6.877 8.5 8.5 0 0 1 7.747 6.877z" class="D"/>
  <g transform="matrix(1, 0, 0, 1, -43.229115, 1.729633)">
    <path d="M 253.842 104.154 C 253.787 102.722 253.735 101.287 253.681 99.858 L 252.177 99.489 L 251.726 99.403 L 251.105 99.296 L 249.536 99.073 C 249.527 99.073 249.522 99.073 249.513 99.073 L 249.065 99.015 L 249.062 99.015 C 247.642 98.792 246.2 98.802 244.779 99.034 L 244.225 99.177 C 243.48 99.391 242.794 99.782 242.216 100.319 C 242.115 100.411 242.023 100.508 241.935 100.609 L 241.71 100.872 C 241.141 101.623 240.675 102.459 240.33 103.351 C 240.072 103.992 239.85 104.648 239.667 105.314 L 239.597 105.571 L 239.46 106.126 L 239.362 106.587 L 238.925 108.883 L 238.557 110.679 L 238.41 111.362 L 238.298 111.878 L 238.071 112.935 L 237.767 114.523 L 237.672 115.014 L 237.454 116.153 L 237.157 117.701 L 236.781 119.658 L 237.154 119.6 L 237.612 119.499 C 238.115 119.377 238.609 119.212 239.086 119.008 L 239.184 118.965 L 239.563 118.785 C 240.379 118.33 241.124 117.744 241.771 117.044 C 241.983 116.797 242.167 116.525 242.325 116.235 L 242.555 115.805 L 242.805 115.298 L 243.032 114.794 L 243.225 114.339 L 243.426 113.848 L 244.142 111.848 L 244.288 111.39 L 244.67 110.098 L 244.803 109.634 L 244.852 109.451 L 245.01 108.844 L 245.78 105.354 L 245.791 105.277 L 246.228 105.219 L 246.358 105.201 L 246.834 105.134 L 250.31 104.655 L 250.826 104.581 C 251.833 104.435 252.839 104.294 253.842 104.154 Z" class="F" style="" transform="matrix(-1, 0, 0, -1, 490.623001, 218.511696)"/>
    <path d="M 238.542 116.841 C 238.396 117.473 239.094 118.511 239.96 119.503 L 240.157 119.012 C 239.404 118.132 238.89 117.345 238.982 116.957 C 239.065 116.597 240.025 116.82 240.73 116.975 L 240.874 117.009 L 241.02 116.551 L 240.819 116.505 C 239.799 116.273 238.735 116.032 238.542 116.841 Z M 244.641 108.1 C 243.518 106.906 241.991 106.863 240.764 106.83 C 239.945 106.805 239.235 106.784 238.999 106.411 C 238.867 106.121 238.847 105.785 238.945 105.48 C 238.847 105.569 238.755 105.666 238.663 105.767 L 238.442 106.033 C 238.442 106.262 238.508 106.488 238.626 106.68 C 238.994 107.254 239.81 107.278 240.752 107.306 C 241.9 107.342 243.325 107.385 244.319 108.439 C 244.946 109.101 244.952 109.315 244.935 109.367 C 244.888 109.519 244.296 109.632 243.822 109.724 C 242.247 109.88 240.773 110.606 239.646 111.788 C 238.982 112.582 238.724 113.18 238.841 113.669 C 238.985 114.292 239.689 114.56 240.427 114.844 C 240.764 114.96 241.089 115.104 241.407 115.266 L 241.537 114.798 C 241.227 114.646 240.905 114.511 240.58 114.395 C 239.957 114.154 239.367 113.931 239.275 113.556 C 239.204 113.241 239.439 112.756 239.982 112.112 C 240.664 111.333 241.54 110.78 242.512 110.521 L 243.09 110.365 L 243.9 110.2 C 244.698 110.045 245.236 109.947 245.363 109.513 C 245.469 109.162 245.256 108.756 244.641 108.1 Z M 245.415 105.852 C 245.751 105.343 246.038 104.799 246.27 104.228 C 246.262 104.228 246.253 104.228 246.245 104.228 L 245.8 104.17 C 245.593 104.662 245.339 105.129 245.049 105.572 C 244.886 105.862 244.613 106.06 244.302 106.115 C 243.647 106.194 242.856 105.446 242.092 104.726 L 241.508 104.192 L 240.954 104.332 C 241.241 104.573 241.52 104.824 241.79 105.086 C 242.626 105.877 243.497 106.695 244.348 106.594 C 244.788 106.524 245.178 106.252 245.415 105.852 Z M 248.912 104.643 L 248.464 104.561 C 248.392 106.161 247.998 107.727 247.311 109.153 L 247.044 109.806 L 247.561 109.733 L 247.719 109.348 C 248.418 107.886 248.823 106.283 248.912 104.643 Z" class="G" style="" transform="matrix(-1, 0, 0, -1, 487.354004, 223.672997)"/>
    <path d="M 235.221 176.335 L 235.203 175.587 C 235.203 175.587 247.613 175.501 248.789 175.718 C 249.965 175.932 251.172 177.394 251.191 178.139 C 251.209 178.887 250.277 178.594 250.277 178.594 L 235.221 176.335 Z" style="" transform="matrix(-1, 0, 0, -1, 486.394257, 354.220718)"/>
    <g class="E" style="" transform="matrix(-0.727862, 0, 0, 0.773218, 397.017456, 38.848869)">
      <path d="M202.515 171.476l.117-4.627 6.619-.5-.1 4.115-.9 3.438z"/>
      <path d="M221.675 177.14a4.08 4.08 0 0 1-2.638 2.508c-.472.147-4.757.194-9.029.2h-.322-4.356l-4.319-.017a43.95 43.95 0 0 1 .753-4.449l.455-2.22.285-1.339c1.773-.082 3.536.297 5.119 1.1-.288-1.292 2.005-2.842 2.005-2.842s.586 2.266 1.219 2.6l.167.08.753.325.693.291.76.311.736.308.763.311 1.369.562a1 1 0 0 0 .107.044l3.726 1.517 1.754.71z"/>
    </g>
    <path d="M 246.01 172.859 C 246.228 172.734 248.016 171.955 249.826 171.167 C 249.666 170.92 249.467 170.709 249.235 170.535 C 248.521 170.056 246.894 170.596 245.51 171.381 C 244.452 171.98 241.215 172.349 239.733 172.489 L 239.939 173.524 C 241.229 173.589 242.512 173.295 243.664 172.679 C 243.455 173.683 245.121 174.877 245.121 174.877 C 245.121 174.877 245.546 173.121 246.01 172.859 Z" style="" transform="matrix(-1, 0, 0, -1, 489.559006, 345.23143)"/>
    <path d="M 251.152 174.533 L 247.456 174.551 C 247.605 175.876 247.82 177.198 248.096 178.499 C 248.507 178.542 248.922 178.478 249.301 178.313 C 250.726 177.687 251.651 175.638 251.152 174.533 Z" style="" transform="matrix(-1, 0, 0, -1, 498.744583, 353.045013)" fill="#1b2e4e"/>
    <path d="M 244.155 176.231 C 243.844 175.291 243.135 174.555 242.235 174.252 C 241.89 174.133 238.772 174.103 235.665 174.097 C 236.056 174.71 236.929 175.312 238.835 175.404 C 242.93 175.599 243.152 174.964 242.453 175.932 C 241.83 176.793 240.215 176.988 240.163 177.999 L 242.876 176.793 L 244.155 176.231 Z" style="" transform="matrix(-1, 0, 0, -1, 479.819992, 352.095993)"/>
    <g fill="#fff" style="" transform="matrix(-0.727862, 0, 0, 0.773218, 397.017456, 38.848869)">
      <path d="M211.769 173.085l-.747 1.145a.4.4 0 0 1-.348.184c-.075-.003-.148-.026-.211-.067a.4.4 0 0 1-.117-.559l.67-1.028.753.325z"/>
      <path d="M213.225 173.692l-.73 1.118a.4.4 0 0 1-.348.184c-.075-.003-.148-.026-.211-.067a.4.4 0 0 1-.117-.559l.646-.991.76.315z" transform="matrix(1, 0, 0, 1, 0, 0)"/>
      <path d="M214.721 174.312l-.616.948a.4.4 0 0 1-.348.184c-.075-.003-.148-.026-.211-.067a.4.4 0 0 1-.117-.559l.532-.82.76.314z"/>
    </g>
    <path d="M 259.359 133.78 C 258.753 128.122 257.571 122.547 255.844 117.155 L 252.851 117.299 C 252.754 117.299 252.656 117.308 252.558 117.314 C 252.539 117.314 252.518 117.314 252.495 117.314 C 251.337 117.369 250.179 117.424 249.02 117.479 L 247.928 117.528 L 248.644 121.433 L 250.837 133.368 L 252.144 140.509 C 251.185 141.993 250.222 143.471 249.262 144.954 L 242.91 154.755 C 241.709 156.612 240.507 158.462 239.303 160.312 C 240.025 161.176 240.743 162.043 241.465 162.904 L 242.83 164.55 C 243.884 165.817 244.934 167.081 245.988 168.345 C 248.678 163.497 250.957 159.662 252.493 157.134 C 256.947 149.8 258.729 147.534 259.525 143.123 C 260.043 140.301 259.815 138.085 259.359 133.78 Z" class="D" style="fill: rgb(152, 92, 70);" transform="matrix(-1, 0, 0, -1, 499.12468, 285.5)"/>
    <g class="B" style="" transform="matrix(-0.727862, 0, 0, 0.773218, 397.017456, 38.848869)">
      <path d="M211.571 135.965c-.214 3.03-3.753 26.6-4.469 31.33-.134 0-.268-.01-.405-.017a.69.69 0 0 0-.084 0l4.473-31.343c.188-2.608-10.717-18.819-16.509-27.028l.4-.278c.685.975 16.838 23.908 16.594 27.336z"/>
      <path d="M202.176 131.532l-8.728-12.674-1.982-10.543-.552-2.926 2.427.8 1.969.65s6.043 16.567 6.866 24.693zm4.527 35.746q-2.431-.11-4.861-.214l-.516-5.116 3.01-15.434 2.367 20.764z"/>
    </g>
    <path d="M 238.855 176.481 L 238.838 175.733 C 238.838 175.733 251.249 175.648 252.424 175.864 C 253.599 176.078 254.807 177.541 254.824 178.286 C 254.844 179.034 253.91 178.741 253.91 178.741 L 238.855 176.481 Z" style="" transform="matrix(-1, 0, 0, -1, 493.662323, 354.514038)"/>
    <g class="E" style="" transform="matrix(-0.727862, 0, 0, 0.773218, 397.017456, 38.848869)">
      <path d="M197.513 172.023l.1-3.914 6.615-.4-.087 3.482-.887 2.9z"/>
      <path d="M216.683 177.335a4.08 4.08 0 0 1-2.638 2.508c-.472.147-4.757.194-9.029.2h-.321-4.356l-4.319-.017a43.9 43.9 0 0 1 .753-4.449l.455-2.22.285-1.339c1.773-.082 3.536.297 5.119 1.1-.288-1.292 2.005-2.842 2.005-2.842s.586 2.267 1.219 2.6l.167.08.753.325.693.291.76.311.737.308.763.311 1.369.563a1.04 1.04 0 0 0 .107.044l3.726 1.517 1.752.709z"/>
    </g>
    <path d="M 251.106 176.644 C 251.324 176.519 253.109 175.74 254.922 174.95 C 254.761 174.705 254.561 174.492 254.327 174.318 C 253.615 173.838 251.988 174.382 250.602 175.166 C 249.545 175.762 246.309 176.131 244.825 176.275 L 245.03 177.31 C 246.323 177.371 247.605 177.081 248.757 176.461 C 248.547 177.466 250.212 178.662 250.212 178.662 C 250.212 178.662 250.64 176.904 251.106 176.644 Z M 247.056 170.504 L 243.363 170.523 C 243.512 171.851 243.725 173.17 244.004 174.473 C 244.412 174.513 244.825 174.449 245.208 174.284 C 246.628 173.658 247.559 171.613 247.056 170.504 Z" style="" transform="matrix(-1, 0, 0, -1, 498.285004, 349.166)"/>
    <path d="M 247.792 176.381 C 247.481 175.438 246.771 174.702 245.871 174.4 C 245.527 174.284 242.411 174.25 239.298 174.247 C 239.692 174.861 240.566 175.462 242.474 175.554 C 246.567 175.749 246.791 175.114 246.092 176.079 C 245.465 176.943 243.851 177.139 243.799 178.149 L 246.512 176.943 L 247.792 176.381 Z" style="" transform="matrix(-1, 0, 0, -1, 487.090012, 352.395996)"/>
    <g fill="#fff" style="" transform="matrix(-0.727862, 0, 0, 0.773218, 397.017456, 38.848869)">
      <path d="M206.777 173.281l-.747 1.145a.4.4 0 0 1-.348.184.41.41 0 0 1-.211-.067.4.4 0 0 1-.117-.559l.67-1.028.753.325z"/>
      <path d="M213.225 173.692l-.73 1.118a.4.4 0 0 1-.348.184c-.075-.003-.148-.026-.211-.067a.4.4 0 0 1-.117-.559l.646-.991.76.315z" transform="matrix(1, 0, 0, 1, -4.992000102996826, 0.1899999976158142)"/>
      <path d="M209.73 174.506l-.616.947a.4.4 0 0 1-.348.184c-.075-.003-.148-.026-.211-.067a.4.4 0 0 1-.117-.559l.532-.82.76.315z"/>
    </g>
    <path d="M 263.174 143.366 L 262.41 147.066 L 259.861 159.99 L 258.983 164.665 L 258.874 164.799 C 258.61 166.375 258.346 167.947 258.085 169.516 L 249.841 170.823 C 248.87 170.109 248.143 169.086 247.761 167.901 C 247.47 167.001 247.284 165.721 247.985 163.163 C 248.522 161.233 249.318 159.395 250.353 157.707 C 251.543 153.05 252.733 148.391 253.923 143.735 C 254.879 140.001 255.782 136.065 256.892 130.848 C 258.021 125.526 258.863 120.998 259.461 117.581 C 261.636 116.473 264.232 116.919 265.968 118.702 C 265.106 131.883 264.054 139.122 263.174 143.366 Z" class="D" style="fill: rgb(152, 92, 70);" transform="matrix(-1, 0, 0, -1, 513.468857, 287.801277)"/>
    <g class="B" style="" transform="matrix(-0.727862, 0, 0, 0.773218, 397.017456, 38.848869)">
      <path d="M185.895 106.899l.47-.108 14.689 63.786-.47.108z"/>
      <path d="M200.815 106.513c-14.985 7.164-21.253-.643-21.253-.643v-2.658l2.939-.352 15.179-1.821 1.359 2.374.509.887z"/>
      <path d="M199.548 104.297c-1.162 1-3.743 2.538-8.631 2.538a29.99 29.99 0 0 1-11.356-2.461v-1.162l2.939-.352 16.539.552z"/>
    </g>
    <path d="M 237.302 115.824 L 234.293 116.209 C 233.954 116.936 233.878 117.766 234.071 118.548 C 234.465 119.574 237.807 117.705 237.807 117.705 L 237.302 115.824 Z" class="C" style="" transform="matrix(-1, 0, 0, -1, 471.77388, 234.679649)"/>
    <path d="M 250.391 101.837 C 249.532 103.351 248.836 104.963 248.315 106.643 C 248.226 109.9 248.399 113.711 248.5 115.503 C 248.675 115.442 248.85 115.375 249.02 115.308 C 250.069 112.386 252.388 105.003 250.391 101.837 Z" class="B" style="" transform="matrix(-1, 0, 0, -1, 499.466415, 217.339996)"/>
    <path d="M 267.791 105.678 L 267.785 105.342 L 267.785 105.223 L 267.783 105.098 C 267.757 104.383 267.662 103.672 267.501 102.979 C 267.4 102.551 267.274 102.136 267.122 101.727 C 266.86 101.022 266.524 100.347 266.125 99.718 L 265.716 99.113 C 264.88 98.671 264.012 98.307 263.118 98.023 C 261.704 97.581 260.239 97.349 258.766 97.34 L 257.428 97.398 L 257.097 97.428 C 256.102 97.544 255.123 97.758 254.168 98.075 L 253.576 98.286 C 252.726 98.61 251.906 99.01 251.122 99.483 C 250.719 100.359 250.421 101.284 250.228 102.24 C 250.15 102.622 250.09 103.006 250.052 103.394 C 250.038 103.519 250.03 103.641 250.02 103.751 C 249.97 104.744 250.009 105.739 250.136 106.722 C 250.228 107.601 250.372 108.468 250.565 109.326 L 250.604 109.516 L 251.199 112.166 C 251.199 112.175 251.202 112.187 251.202 112.196 L 251.688 114.404 L 251.794 114.899 L 252.746 119.347 L 252.849 119.854 L 252.918 120.177 L 252.926 120.217 L 254.852 120.602 L 255.387 120.675 C 256.122 120.761 256.861 120.803 257.603 120.803 L 258.502 120.776 C 259.865 120.703 261.219 120.483 262.535 120.113 L 264.308 119.521 L 264.774 119.335 L 266.355 118.587 L 267.119 118.162 L 267.242 115.045 L 267.269 114.547 L 267.294 114.056 L 267.501 110.975 L 267.53 110.566 L 267.599 109.665 C 267.599 109.641 267.602 109.616 267.602 109.589 L 267.749 107.409 L 267.788 106.279 L 267.791 105.678 Z" class="F" style="" transform="matrix(-1, 0, 0, -1, 517.789902, 218.142998)"/>
    <path d="M 257.169 96.067 L 256.945 94.021 C 255.261 94.732 255.247 96.854 255.247 96.854 L 257.169 96.067 Z" style="" transform="matrix(-1, 0, 0, -1, 512.416, 190.875)" fill="#cd7d6c"/>
    <path d="M 265.013 100.064 C 262.875 98.684 262.226 99.133 261.538 99.609 C 261.099 99.972 260.558 100.168 260.001 100.165 C 259.509 100.146 259.285 100.085 259.161 99.923 C 259.072 99.798 259.044 99.633 259.084 99.481 C 259.115 99.23 259.167 98.815 257.409 98.208 C 257.213 98.137 257.011 98.082 256.811 98.04 C 255.666 97.835 254.497 97.951 253.411 98.379 C 252.347 98.708 251.425 98.995 250.666 98.104 L 251.002 97.786 C 251.542 98.421 252.157 98.272 253.284 97.921 C 254.65 97.368 256.146 97.31 257.549 97.753 L 258.147 97.982 C 259.524 98.565 259.59 99.072 259.527 99.548 C 259.527 99.572 259.521 99.603 259.518 99.624 C 259.679 99.673 259.849 99.698 260.015 99.691 C 260.477 99.691 260.926 99.523 261.288 99.215 C 261.642 98.928 262.059 98.742 262.498 98.672 C 263.392 98.956 264.26 99.316 265.094 99.762 L 265.504 100.366 L 265.013 100.064 Z M 267.45 108.708 C 267.327 109.251 267.168 109.788 266.982 110.31 C 266.879 110.61 266.74 110.894 266.574 111.162 C 266.473 111.321 266.35 111.468 266.212 111.593 C 265.823 111.892 265.37 112.075 264.895 112.133 C 264.881 112.136 264.867 112.139 264.852 112.145 C 264.041 112.31 263.254 112.603 262.524 113.016 C 261.838 113.391 261.134 113.727 260.412 114.029 C 259.737 114.319 259.199 114.551 259.161 114.777 C 259.107 115.092 259.877 115.855 260.168 116.142 L 260.708 116.67 C 261.277 117.22 261.429 117.366 261.363 117.605 C 261.303 117.812 261.11 117.843 260.817 117.892 C 259.895 118.02 259.015 118.389 258.262 118.969 L 256.241 120.304 C 255.724 120.597 255.235 120.936 254.776 121.32 L 254.244 121.25 C 254.747 120.682 255.347 120.218 256.015 119.888 L 258.006 118.572 C 258.82 117.956 259.762 117.562 260.75 117.418 L 260.797 117.412 L 260.409 117.024 L 259.866 116.493 C 258.94 115.571 258.65 115.116 258.722 114.692 C 258.807 114.209 259.352 113.971 260.253 113.587 C 260.958 113.29 261.65 112.961 262.323 112.588 C 263.105 112.152 263.944 111.837 264.809 111.66 L 264.976 111.623 C 265.321 111.574 265.651 111.434 265.933 111.217 C 265.981 111.171 266.028 111.126 266.071 111.077 C 266.557 110.329 266.881 109.477 267.025 108.579 L 267.146 108.048 C 267.364 106.964 267.31 106.5 267.189 106.311 C 267.177 106.289 267.16 106.268 267.14 106.25 C 266.959 106.082 266.537 106.189 266.028 106.384 L 265.286 106.699 L 263.849 107.276 C 262.854 107.608 262.685 107.969 262.616 108.124 C 262.581 108.231 262.498 108.317 262.392 108.344 C 262.24 108.372 262.153 108.286 261.944 108.066 L 261.079 107.233 C 260.311 106.537 259.742 106.082 259.44 106.125 C 259.222 106.152 259.012 106.482 258.698 106.979 L 258.247 107.669 C 257.871 108.323 257.707 109.086 257.779 109.846 L 257.794 110.57 C 257.955 112.139 257.701 113.724 257.06 115.15 C 256.868 115.544 256.656 115.922 256.416 116.286 C 256.118 116.75 255.744 117.153 255.316 117.479 C 254.962 117.76 254.83 117.864 254.83 118.716 C 254.864 119.339 254.569 119.931 254.063 120.252 C 253.499 120.548 252.861 120.636 252.244 120.502 C 251.829 120.432 251.422 120.319 251.027 120.157 C 250.821 119.934 250.648 119.678 250.513 119.4 C 251.031 119.675 251.577 119.873 252.143 119.998 C 252.709 120.154 253.31 120.099 253.842 119.836 C 254.206 119.601 254.419 119.168 254.388 118.713 C 254.388 117.675 254.618 117.443 255.052 117.098 C 255.753 116.533 256.31 115.782 256.667 114.927 L 256.822 114.591 C 257.164 113.761 257.347 112.872 257.36 111.965 L 257.347 110.594 C 257.311 109.41 257.273 108.289 257.888 107.395 L 258.326 106.726 C 258.708 106.118 258.96 105.718 259.38 105.657 C 259.854 105.587 260.426 106.015 261.375 106.879 L 262.259 107.727 L 262.294 107.764 C 262.645 107.279 263.151 106.943 263.717 106.827 C 264.202 106.665 264.663 106.46 265.119 106.265 L 266.166 105.841 C 266.303 105.792 266.445 105.755 266.585 105.728 C 266.781 105.679 266.985 105.685 267.18 105.743 C 267.275 105.776 267.364 105.828 267.441 105.899 C 267.528 105.978 267.594 106.076 267.637 106.186 C 267.821 106.641 267.761 107.434 267.447 108.708 L 267.45 108.708 Z M 259.4 105.163 C 258.34 105.981 257.132 106.558 255.851 106.857 C 254.434 107.273 253.692 107.544 253.62 108.665 C 253.562 109.581 254.198 109.978 254.804 110.372 C 255.27 110.665 255.707 110.946 255.758 111.443 C 255.802 111.877 255.54 112.347 254.908 112.979 C 253.557 114.322 253.482 114.371 253.209 114.386 C 253.106 114.393 252.887 114.405 251.864 115.083 L 251.183 115.547 L 250.206 116.273 L 250.271 115.629 L 251.073 115.049 L 251.626 114.68 C 252.746 113.935 253.002 113.919 253.186 113.904 C 253.289 113.901 253.387 113.837 254.601 112.631 C 255.1 112.13 255.339 111.749 255.316 111.495 C 255.293 111.242 254.956 111.025 254.577 110.781 C 253.957 110.387 253.103 109.84 253.177 108.631 C 253.272 107.117 254.416 106.784 255.736 106.396 C 256.96 106.112 258.116 105.566 259.133 104.784 C 259.544 104.439 259.983 103.957 259.722 103.587 C 259.719 103.584 259.716 103.578 259.71 103.575 C 259.115 102.781 256.282 102.723 255.281 103.49 C 255.232 103.529 255.186 103.569 255.144 103.612 C 254.686 104.097 254.31 104.665 254.031 105.285 C 253.592 106.137 253.169 106.937 252.465 107.135 C 252.266 107.19 252.063 107.196 251.861 107.153 C 251.594 107.092 251.338 106.982 251.108 106.827 C 250.263 106.219 249.812 105.154 249.944 104.079 C 249.965 103.648 250.056 103.227 250.208 102.83 C 249.933 103.218 249.674 103.621 249.435 104.039 C 249.476 103.651 249.536 103.267 249.611 102.885 C 249.878 102.485 250.221 102.021 250.671 101.465 L 250.769 101.34 C 251.401 100.442 252.137 99.633 252.962 98.931 C 253.141 98.809 253.344 98.739 253.554 98.724 C 254.132 98.779 254.683 98.989 255.166 99.331 L 255.756 99.652 C 256.339 99.872 256.741 100.442 256.768 101.099 C 256.692 101.829 256.244 102.458 255.598 102.723 C 254.623 103.206 253.474 103.041 252.655 102.299 C 252.339 101.954 251.861 101.835 251.436 102 C 250.772 102.467 250.378 103.264 250.393 104.112 C 250.275 105.007 250.639 105.899 251.341 106.418 C 251.554 106.57 251.801 106.665 252.053 106.702 C 252.151 106.711 252.252 106.705 252.347 106.674 C 252.868 106.528 253.24 105.813 253.635 105.053 L 254.189 104.054 C 254.408 103.688 254.689 103.367 255.011 103.105 C 256.233 102.168 259.36 102.29 260.075 103.306 C 260.159 103.419 260.214 103.551 260.236 103.694 C 260.291 104.036 260.15 104.54 259.397 105.163 L 259.4 105.163 Z M 251.249 101.557 C 251.827 101.313 252.487 101.456 252.934 101.92 C 253.617 102.546 254.58 102.687 255.399 102.287 C 255.887 102.097 256.239 101.636 256.31 101.087 C 256.316 100.693 256.048 100.342 255.549 100.076 L 254.951 99.752 C 254.04 99.249 253.706 99.087 253.313 99.273 C 252.847 99.496 252.269 100.207 251.128 101.624 C 251.166 101.6 251.209 101.578 251.249 101.56 L 251.249 101.557 Z M 266.652 115.193 C 266.114 114.994 265.556 114.863 264.99 114.802 C 264.766 114.783 264.545 114.777 264.324 114.793 C 264.079 114.777 263.841 114.869 263.659 115.049 C 263.413 115.333 263.47 115.763 263.562 116.481 L 263.711 117.971 C 263.751 118.603 263.751 119.238 263.711 119.867 C 263.711 119.931 263.708 119.992 263.705 120.056 C 263.705 120.093 263.697 120.13 263.694 120.169 L 264.16 119.98 L 264.171 119.766 C 264.226 118.649 264.174 117.528 264.013 116.423 C 263.944 115.901 263.893 115.489 263.992 115.376 C 264.062 115.321 264.145 115.287 264.234 115.284 C 264.475 115.26 264.72 115.26 264.968 115.284 C 265.533 115.351 266.093 115.489 266.631 115.693 L 266.652 115.193 Z" class="G" style="" transform="matrix(-1, 0, 0, -1, 517.175537, 218.778694)"/>
    <path d="M 267.04 108.216 L 257.064 106.702 L 255.69 116.67 L 258.469 110.063 L 259.173 108.753 L 266.939 109.599 C 266.974 109.114 267.011 108.65 267.04 108.216 Z M 267.229 104.903 C 264.862 104.174 258.49 102.604 255.658 105.764 C 254.078 107.541 252.399 109.221 250.634 110.79 L 250.042 108.14 C 250.028 108.076 250.014 108.015 250.002 107.947 C 250.577 104.983 251.778 101.221 254.253 100.348 C 257.685 99.136 264.715 102.525 267.226 103.841 L 267.229 104.903 Z" class="B" style="" transform="matrix(-1, 0, 0, -1, 517.231003, 216.760574)"/>
    <path d="M 260.252 89.216 C 259.887 88.324 258.516 87.756 257.395 88.098 C 256.182 88.55 255.383 89.784 255.421 91.149 L 256.32 91.121 C 257.686 91.051 259.037 90.828 260.353 90.455 C 260.418 90.04 260.385 89.613 260.252 89.216 Z M 255.585 100.485 C 255.458 100.091 254.745 97.817 255.771 95.97 C 256.134 95.328 256.66 94.806 257.286 94.467 C 260.114 92.941 258.433 99.203 258.433 99.203 C 257.487 99.63 256.538 100.058 255.585 100.485 Z" class="B" style="" transform="matrix(-1, 0, 0, -1, 515.610916, 188.482307)"/>
    <g class="C" style="" transform="matrix(-0.727862, 0, 0, 0.773218, 397.017456, 38.848869)">
      <path d="M195.434 66.821q-.3 2.461-.589 4.918l-.281 2.344-.275 2.307a2.93 2.93 0 0 1-2.183 1.366 3.04 3.04 0 0 1-2.963-1.751l1-9.729z"/>
      <path d="M190.871 68.394a.94.94 0 0 1-1.031.837.94.94 0 0 1-.837-1.031.94.94 0 0 1 1.031-.837.94.94 0 0 1 .837 1.031z"/>
      <path d="M190.71 69.948s1.825 3.646 5 3.345 1.651-9.89 1.651-9.89-5.062-2.725-6.532-.673-.119 7.218-.119 7.218z"/>
    </g>
    <path d="M 256.815 91.549 C 256.801 91.418 256.689 91.32 256.563 91.335 C 256.44 91.351 256.35 91.47 256.362 91.601 C 256.376 91.735 256.488 91.83 256.612 91.818 C 256.738 91.803 256.828 91.683 256.813 91.549 L 256.815 91.549 Z M 258.853 91.326 C 258.839 91.195 258.727 91.097 258.601 91.113 C 258.477 91.128 258.386 91.247 258.4 91.378 C 258.411 91.512 258.526 91.607 258.649 91.595 C 258.773 91.583 258.865 91.461 258.851 91.329 L 258.853 91.326 Z M 256.175 92.349 C 256.129 92.352 256.094 92.383 256.077 92.425 C 256.069 92.456 256.072 92.493 256.083 92.52 C 256.094 92.548 256.121 92.572 256.152 92.581 C 256.457 92.691 256.787 92.7 257.098 92.609 C 257.152 92.581 257.178 92.511 257.155 92.453 C 257.135 92.392 257.069 92.361 257.011 92.383 C 256.752 92.453 256.479 92.444 256.227 92.349 C 256.209 92.346 256.192 92.346 256.175 92.349 Z M 259.066 92.032 C 259.049 92.035 259.035 92.038 259.02 92.047 C 258.788 92.19 258.523 92.261 258.256 92.245 C 258.193 92.233 258.135 92.279 258.124 92.343 C 258.112 92.41 258.152 92.471 258.215 92.483 C 258.537 92.508 258.859 92.428 259.135 92.251 C 259.184 92.224 259.205 92.163 259.187 92.108 C 259.17 92.053 259.118 92.019 259.063 92.028 L 259.066 92.032 Z M 257.347 89.928 L 257.356 90.135 C 257.9 90.108 257.96 90.224 257.966 90.239 C 257.977 90.267 257.939 90.337 257.897 90.422 C 257.854 90.499 257.819 90.581 257.784 90.661 C 257.687 90.911 257.63 91.177 257.62 91.445 L 257.819 91.454 C 257.825 91.21 257.873 90.969 257.966 90.746 L 258.066 90.523 C 258.135 90.386 258.193 90.279 258.144 90.16 C 258.081 89.977 257.825 89.9 257.347 89.928 Z M 253.519 90.6 C 253.554 90.597 253.588 90.618 253.603 90.648 C 253.625 90.694 253.611 90.749 253.568 90.771 C 253.298 90.932 253.298 91.018 253.298 91.036 C 253.307 91.106 253.485 91.186 253.635 91.213 C 253.677 91.229 253.703 91.274 253.698 91.32 C 253.686 91.366 253.649 91.4 253.603 91.393 C 253.531 91.381 253.166 91.296 253.131 91.064 C 253.108 90.914 253.223 90.767 253.485 90.615 C 253.499 90.609 253.508 90.603 253.519 90.6 Z" style="" transform="matrix(-1, 0, 0, -1, 512.321487, 182.593414)" fill="#322223"/>
    <g class="B" style="" transform="matrix(-0.727862, 0, 0, 0.773218, 397.017456, 38.848869)">
      <path d="M189.725 67.176l.9.408c.964-1.27 1.743-2.671 2.313-4.161l.9.221 1.245.315c.583.134 2.169.352 2.635-.288.539-.743-.288-2.846-1.861-3.308-.782-.182-1.604-.032-2.273.412-.32-.394-.752-.682-1.239-.827-1.537-.412-3.455.947-4.041 2.678a4.3 4.3 0 0 0 1.421 4.55z"/>
      <path d="M190.983 65.642s.479 2.628 1.2 3.345 4.2.649 5.447 1.041l.05.629c.017.318.017.636 0 .954a2.98 2.98 0 0 1-.954 2.149 2.63 2.63 0 0 1-1.2.479 4.12 4.12 0 0 1-1.433 0c-1.7-.341-2.769-2.648-2.866-2.866-.482-1.075-.716-5.256-.716-5.256h0z"/>
    </g>
    <path d="M 255.919 93.348 C 255.373 93.253 254.815 93.384 254.356 93.717 C 254.356 93.681 254.372 93.152 254.706 92.981 C 254.872 92.914 255.057 92.914 255.226 92.981 C 255.474 93.064 255.709 93.189 255.919 93.348 Z" style="" transform="matrix(-1, 0, 0, -1, 510.275009, 186.647758)" fill="#fff9ed"/>
    <path d="M 224.965 87.829 L 232.474 95.338 C 233.289 99.1 227.834 104.618 224.027 103.786 L 216.518 96.278 C 216.175 97.442 216.004 98.644 216.004 99.847 C 216.004 103.036 217.213 106.223 219.648 108.661 C 222.339 111.352 225.949 112.56 229.467 112.286 C 231.325 112.143 233.155 112.821 234.474 114.14 L 253.713 133.382 C 254.865 134.533 256.375 135.11 257.889 135.11 C 261.198 135.11 263.867 132.395 263.796 129.077 C 263.764 127.609 263.187 126.149 262.068 125.028 L 242.827 105.785 C 241.508 104.469 240.832 102.638 240.973 100.78 C 241.247 97.26 240.035 93.649 237.349 90.962 C 234.91 88.525 231.723 87.317 228.531 87.317 C 227.331 87.317 226.129 87.489 224.965 87.829 Z M 259.813 129.137 C 259.813 130.237 258.922 131.128 257.822 131.128 C 256.72 131.128 255.831 130.236 255.831 129.137 C 255.831 128.037 256.72 127.146 257.822 127.146 C 258.922 127.146 259.813 128.035 259.813 129.137 Z" style="fill: rgb(112, 82, 71);" transform="matrix(0.999227, 0.039308, -0.039308, 0.999227, 4.55699, -9.344065)"/>
    <g class="C" style="" transform="matrix(-0.727862, 0, 0, 0.773218, 397.017456, 38.848869)">
      <path d="M215.046 91.631c.039.086.039.185 0 .271-.167.285-.991.087-1.363 0l-3.957-.931a12.3 12.3 0 0 1 1.232.914c.231.184.42.414.556.676a1.37 1.37 0 0 1 .067.4c.028.166-.022.336-.134.462a.45.45 0 0 1-.4.067.92.92 0 0 1 .264.727.93.93 0 0 1-.4.663c.071.221.046.461-.067.663a.95.95 0 0 1-.663.331c-1.356.275-2.036.408-2.32.067a.5.5 0 0 1-.134-.331c.037-.211.171-.392.362-.489a4.04 4.04 0 0 1 1.493-.505 13.7 13.7 0 0 1-3.355-.281l-1-.254c-1.6-.472-2.819-.83-3.271-1.908a3.52 3.52 0 0 1 .546-3l3.077.2 2.1.07c1.475.146 2.934.42 4.362.817.95.233 2.771.688 3.005 1.371z"/>
      <path d="M204.416 89.452a9.12 9.12 0 0 1 1.908-.817c.415-.124.295-.057 1.091-.271 1.065-.288 1.466-.459 1.634-.271.096.169.096.377 0 .546-.208.452-1.014.77-1.152.9l-.087.08a1.14 1.14 0 0 0-.124.117c-.27.262-1.63 1.353-3.27-.284z"/>
    </g>
    <path d="M 230.928 114.292 C 230.928 114.292 231.181 118.063 231.557 117.718 C 231.937 117.373 231.776 114.738 231.776 114.738 C 231.776 114.738 231.827 118.866 232.38 118.536 C 232.932 118.206 232.667 114.625 232.667 114.625 L 232.842 114.64 L 233.164 117.477 C 233.19 117.892 233.227 118.686 233.592 118.823 C 233.65 118.841 233.71 118.85 233.77 118.838 C 234.029 118.768 234.207 117.892 233.906 114.542 L 234.259 114.57 C 234.259 114.57 234.687 118.35 235.052 118.194 C 235.418 118.041 235.136 114.64 235.136 114.64 C 235.11 114.503 235.131 114.466 235.15 114.451 C 235.32 114.344 236.13 115.864 236.645 115.7 C 236.728 115.672 236.797 115.611 236.837 115.529 C 236.915 115.345 236.734 115.196 236.539 114.756 C 236.332 114.289 236.36 114.051 236.081 113.782 C 236.032 113.736 235.986 113.706 235.941 113.666 C 235.521 113.333 235.052 113.077 234.555 112.909 C 234.004 112.643 233.385 112.594 232.802 112.762 C 232.773 112.772 232.739 112.79 232.67 112.817 C 231.764 113.217 231.052 113.541 230.94 114.106 C 230.931 114.167 230.926 114.231 230.928 114.292 Z" class="C" style="" transform="matrix(-1, 0, 0, -1, 467.783112, 231.507912)"/>
    <path d="M 267.105 101.339 L 266.114 100.853 L 265.662 100.649 L 265.059 100.395 L 264.711 100.255 C 264.696 100.249 264.679 100.24 264.662 100.237 L 263.984 99.98 L 263.587 99.84 L 261.391 99.11 L 260.722 98.899 L 258.724 98.356 L 258.19 98.243 C 256.686 97.861 255.12 97.874 253.619 98.28 C 253.292 98.39 252.976 98.536 252.677 98.719 C 252.494 98.829 252.32 98.954 252.157 99.092 C 251.476 99.693 250.93 100.45 250.565 101.305 L 250.536 101.366 L 250.375 101.739 L 250.341 101.818 C 250.148 102.307 249.984 102.808 249.852 103.32 L 249.734 103.788 C 249.444 105.012 249.222 106.255 249.073 107.506 L 248.754 110.288 L 248.688 110.935 L 248.639 111.405 L 248.639 111.415 C 248.581 111.668 248.55 111.927 248.553 112.187 C 248.556 112.84 248.705 113.485 248.99 114.065 C 249.116 114.324 249.274 114.562 249.463 114.776 L 249.504 114.825 C 249.654 114.984 249.823 115.121 250.01 115.231 C 250.079 115.271 250.148 115.307 250.223 115.341 C 250.404 115.417 250.596 115.469 250.792 115.487 C 251.671 115.5 252.525 115.179 253.209 114.593 C 253.261 114.556 253.304 114.514 253.349 114.468 C 253.471 114.358 253.583 114.233 253.686 114.104 C 254.287 113.155 254.697 112.083 254.896 110.957 L 255.143 109.925 L 255.292 109.259 L 255.83 106.633 L 255.957 105.943 C 255.988 105.763 256.02 105.583 256.054 105.403 L 256.198 104.517 L 256.252 104.526 L 257.698 104.74 L 258.233 104.82 L 263.355 105.58 L 263.593 105.616 L 264.478 105.748 C 264.499 105.748 264.521 105.754 264.545 105.757 L 265.059 105.836 L 265.397 105.885 L 265.596 105.916 L 266.125 105.992 L 266.223 106.007 L 266.286 105.867 L 266.551 105.171 C 266.709 104.713 266.835 104.243 266.924 103.763 L 267.031 103.113 C 267.07 102.792 267.094 102.472 267.105 102.148 C 267.119 101.852 267.114 101.58 267.105 101.339 Z" class="F" style="" transform="matrix(-1, 0, 0, -1, 515.666534, 213.453087)"/>
    <path d="M 249.268 103.26 L 249.15 103.724 C 251.141 104.539 253.225 105.528 253.329 106.475 C 253.381 106.939 253.43 107.571 253.263 107.766 C 253.136 107.91 252.808 107.901 252.346 107.882 C 251.469 107.824 250.592 107.907 249.741 108.129 C 249.288 108.249 248.673 108.465 248.569 108.978 C 248.437 109.659 249.299 110.371 250.397 111.277 C 251.225 111.897 251.975 112.627 252.622 113.454 C 252.772 113.683 252.717 113.79 252.693 113.827 C 252.426 114.346 250.811 114.608 248.873 114.706 L 248.917 114.755 C 249.066 114.914 249.236 115.051 249.42 115.161 C 250.573 115.161 251.711 114.902 252.762 114.401 C 252.895 114.315 253.007 114.196 253.087 114.056 C 253.09 114.05 253.093 114.041 253.096 114.031 C 253.222 113.747 253.176 113.408 252.978 113.173 C 252.306 112.306 251.527 111.54 250.665 110.896 C 249.851 110.224 248.928 109.461 249.003 109.073 C 249.026 108.972 249.161 108.774 249.839 108.591 C 250.653 108.383 251.489 108.304 252.325 108.358 C 252.909 108.377 253.32 108.392 253.585 108.09 C 253.823 107.815 253.878 107.348 253.771 106.417 C 253.642 105.201 251.509 104.173 249.268 103.26 Z M 255.464 105.321 C 253.809 103.712 251.967 102.338 249.98 101.235 L 249.948 101.299 L 249.79 101.672 C 251.745 102.753 253.553 104.105 255.177 105.687 L 255.378 105.867 C 255.409 105.69 255.444 105.51 255.476 105.327 L 255.464 105.321 Z M 263.144 100.533 L 264.078 100.17 L 263.396 99.913 L 262.977 100.087 C 261.957 100.518 261.793 100.591 260.807 99.043 L 260.299 98.222 L 259.919 98.484 L 260.135 98.829 C 261.483 101 261.767 101.116 263.144 100.533 Z M 266.524 102.084 C 265.975 102.954 265.357 103.776 264.67 104.527 C 264.376 104.957 263.923 105.226 263.423 105.266 C 262.848 105.214 262.382 104.466 261.966 103.806 C 261.578 103.177 261.238 102.637 260.779 102.557 C 260.563 102.524 260.342 102.594 260.178 102.747 C 259.695 103.147 259.324 102.789 258.381 101.672 C 257.433 100.405 256.22 99.394 254.838 98.72 C 254.243 98.463 253.806 98.344 253.607 98.616 C 253.357 98.964 253.714 99.492 254.775 100.973 C 255.651 102.13 256.432 103.366 257.103 104.67 L 257.64 104.747 C 256.939 103.302 256.096 101.938 255.128 100.677 C 254.702 100.136 254.323 99.553 253.998 98.939 C 254.229 98.982 254.453 99.055 254.663 99.162 C 255.982 99.806 257.139 100.774 258.039 101.989 C 258.873 102.979 259.594 103.834 260.451 103.122 C 260.517 103.055 260.609 103.021 260.703 103.028 C 260.968 103.076 261.284 103.583 261.586 104.072 C 261.885 104.627 262.282 105.119 262.758 105.51 C 262.943 105.638 263.153 105.717 263.374 105.742 C 263.546 105.757 263.718 105.736 263.882 105.675 C 264.308 105.507 264.687 105.223 264.984 104.856 C 265.498 104.282 265.98 103.678 266.431 103.043 C 266.48 102.725 266.509 102.405 266.524 102.084 Z" class="G" style="" transform="matrix(-1, 0, 0, -1, 515.079605, 213.383003)"/>
  </g>
  <defs>
    <path id="B" d="M59.837 64.986a2.31 2.31 0 1 1-4.62 0 2.31 2.31 0 0 1 3.943-1.633 2.31 2.31 0 0 1 .677 1.633z"/>
    <path id="C" d="M172.475 121.636v.6a4.32 4.32 0 0 1-4.319 4.319H57.896a4.32 4.32 0 0 1-4.319-4.319v-.6a4.32 4.32 0 0 1 4.319-4.319h110.26a4.32 4.32 0 0 1 4.319 4.319z"/>
    <path id="D" d="M124.08 132.989c.009-.176.157-.312.332-.306s.314.152.311.328-.147.317-.323.316c-.088-.001-.171-.038-.232-.101s-.093-.149-.089-.237z"/>
    <path id="E" d="M213.225 173.692l-.73 1.118a.4.4 0 0 1-.348.184c-.075-.003-.148-.026-.211-.067a.4.4 0 0 1-.117-.559l.646-.991.76.315z"/>
  </defs>
</svg>