<svg xmlns="http://www.w3.org/2000/svg" width="640" height="640" fill="none"><style><![CDATA[.B{fill:#fff}.C{fill:#4e5ba6}.D{fill-opacity:.12}.E{fill:#ff8b00}.F{fill:#ffb400}.G{fill:#2d1e1c}]]></style><g clip-path="url(#A)"><path d="M586.4 44.235H67.48A15.93 15.93 0 0 0 51.555 60.16v431.892a15.93 15.93 0 0 0 15.926 15.926H586.4a15.93 15.93 0 0 0 15.926-15.926V60.16A15.93 15.93 0 0 0 586.4 44.235z" class="C D"/><path d="M595.723 61.118v429.968c0 5.67-4.61 10.28-10.287 10.28H68.44c-5.67 0-10.28-4.61-10.28-10.28V61.118c0-5.669 4.61-10.28 10.28-10.28h516.996c5.677 0 10.287 4.611 10.287 10.28z" fill="#667085" fill-opacity=".04"/><path d="M595.723 61.118v35.466H58.16V61.118c0-5.669 4.61-10.28 10.28-10.28h516.996c5.677 0 10.287 4.611 10.287 10.28z" class="C D"/><path d="M83.453 78.828a5.117 5.117 0 1 0 0-10.233 5.117 5.117 0 0 0 0 10.233zm23.199 0a5.117 5.117 0 1 0-.001-10.233 5.117 5.117 0 0 0 .001 10.233zm23.199 0a5.116 5.116 0 1 0 0-10.233 5.117 5.117 0 1 0 0 10.233z" class="B"/><path d="M119.002 114.675v80.089a1.914 1.914 0 0 1-1.916 1.915H20.791a1.919 1.919 0 0 1-1.916-1.915v-80.089c0-1.052.864-1.908 1.916-1.908h96.295c1.059 0 1.916.856 1.916 1.908z" class="C D"/><path d="M112.857 117.47H25.011a1.44 1.44 0 0 0-1.44 1.441v71.632c0 .795.644 1.44 1.44 1.44h87.846a1.44 1.44 0 0 0 1.44-1.44v-71.632a1.44 1.44 0 0 0-1.44-1.441z" class="B"/><path d="M94.751 157.538l-6.183-1.713a18.63 18.63 0 0 0-.756-6.55l5.6-3.037a.46.46 0 0 0 .07-.771c-.537-.42-1.37-1.254-2.266-2.827s-1.192-2.702-1.278-3.372c-.038-.327-.412-.506-.708-.343l-5.576 3.03a19.428 19.428 0 0 0-5.32-4.12l1.745-5.973a.467.467 0 0 0-.506-.592c-.685.07-1.877.055-3.652-.436s-2.796-1.09-3.341-1.503a.487.487 0 0 0-.756.249l-1.736 5.95a20.14 20.14 0 0 0-6.776.755l-3.084-5.396a.49.49 0 0 0-.794-.071c-.436.522-1.293 1.332-2.905 2.212-1.612.872-2.772 1.161-3.458 1.246a.462.462 0 0 0-.35.693l3.084 5.397a19.156 19.156 0 0 0-4.221 5.218l-6.106-1.698c-.327-.093-.646.164-.615.491.07.67.055 1.83-.444 3.559-.506 1.729-1.121 2.726-1.542 3.263-.21.257-.07.646.25.732l6.128 1.698a18.83 18.83 0 0 0 .795 6.58l-5.576 3.03a.46.46 0 0 0-.07.771c.537.42 1.37 1.261 2.266 2.827.895 1.573 1.191 2.702 1.277 3.372.039.327.413.506.709.342l5.6-3.037a19.623 19.623 0 0 0 5.31 4.081l-1.76 6.028a.467.467 0 0 0 .507.592c.685-.071 1.876-.055 3.652.436s2.796 1.09 3.34 1.503a.49.49 0 0 0 .756-.25l1.76-6.043a20.048 20.048 0 0 0 6.698-.763l3.138 5.49a.49.49 0 0 0 .794.07c.437-.521 1.293-1.331 2.905-2.211 1.612-.873 2.773-1.161 3.458-1.246a.462.462 0 0 0 .35-.693l-3.138-5.491a19.259 19.259 0 0 0 4.19-5.147l6.199 1.721c.327.085.646-.164.615-.499-.07-.67-.054-1.83.452-3.559s1.121-2.725 1.542-3.263c.21-.257.07-.646-.25-.732h-.023zm-17.85-7.133c2.454 4.291.873 9.703-3.527 12.086-4.4 2.391-9.953.849-12.398-3.442-2.445-4.283-.872-9.696 3.528-12.087s9.952-.848 12.398 3.443zm381.496 314.892v72.13a1.73 1.73 0 0 1-1.721 1.729h-86.732a1.73 1.73 0 0 1-1.729-1.729v-72.13a1.73 1.73 0 0 1 1.729-1.721h86.732a1.72 1.72 0 0 1 1.721 1.721z" class="C D"/><path d="M452.861 467.812h-79.115a1.3 1.3 0 0 0-1.301 1.301v64.514a1.3 1.3 0 0 0 1.301 1.3h79.115a1.3 1.3 0 0 0 1.301-1.3v-64.514a1.3 1.3 0 0 0-1.301-1.301z" class="B"/><path d="M436.553 503.901l-5.568-1.542a16.62 16.62 0 0 0-.685-5.903l5.038-2.734a.413.413 0 0 0 .063-.693c-.483-.381-1.231-1.129-2.041-2.546s-1.067-2.43-1.145-3.037c-.039-.296-.373-.452-.638-.312l-5.023 2.726a17.477 17.477 0 0 0-4.79-3.715l1.573-5.381a.425.425 0 0 0-.459-.538c-.615.063-1.69.047-3.286-.397s-2.524-.981-3.014-1.355a.438.438 0 0 0-.678.226l-1.565 5.358a18.102 18.102 0 0 0-6.098.685l-2.78-4.859c-.148-.257-.522-.296-.709-.063-.389.468-1.16 1.2-2.617 1.986s-2.492 1.044-3.115 1.122a.42.42 0 0 0-.319.623l2.78 4.859a17.286 17.286 0 0 0-3.808 4.696l-5.506-1.526c-.296-.086-.584.148-.553.444.07.599.055 1.651-.405 3.208s-1.004 2.461-1.386 2.936c-.187.234-.062.577.226.662l5.514 1.534a16.778 16.778 0 0 0 .716 5.927l-5.023 2.726a.412.412 0 0 0-.062.693c.483.381 1.23 1.129 2.04 2.546s1.067 2.43 1.145 3.037c.039.296.374.452.639.312l5.038-2.734a17.61 17.61 0 0 0 4.79 3.676l-1.589 5.428a.426.426 0 0 0 .459.538c.616-.063 1.69-.047 3.287.397 1.604.444 2.523.981 3.014 1.355a.435.435 0 0 0 .677-.218l1.589-5.444a18.085 18.085 0 0 0 6.028-.685l2.827 4.945c.147.257.521.296.708.062.39-.475 1.161-1.199 2.609-1.985 1.456-.787 2.492-1.044 3.115-1.122a.42.42 0 0 0 .319-.623l-2.826-4.945a17.146 17.146 0 0 0 3.769-4.634l5.584 1.55c.296.078.584-.148.553-.444-.071-.6-.055-1.651.404-3.209s1.005-2.46 1.387-2.935c.187-.234.062-.577-.226-.662l.023-.016zm-16.074-6.425c2.204 3.863.787 8.738-3.177 10.887s-8.964.764-11.168-3.099-.786-8.738 3.178-10.887 8.963-.764 11.167 3.099z" class="C D"/><path d="M578.588 332.28l-27.036-7.487a80.768 80.768 0 0 0-3.327-28.661l24.464-13.272c1.286-.681 1.475-2.458.303-3.366-2.345-1.853-5.975-5.483-9.907-12.364s-5.181-11.798-5.559-14.747c-.189-1.437-1.815-2.193-3.1-1.513l-24.389 13.235a84.974 84.974 0 0 0-23.255-18.037l7.638-26.128c.416-1.399-.756-2.76-2.231-2.609-2.987.302-8.205.227-15.956-1.929s-12.251-4.764-14.634-6.579c-1.172-.87-2.873-.302-3.289 1.097l-7.601 26.015a87.883 87.883 0 0 0-29.607 3.327l-13.499-23.595c-.718-1.248-2.533-1.437-3.44-.302-1.891 2.268-5.635 5.823-12.706 9.642s-12.099 5.067-15.124 5.445c-1.475.189-2.269 1.777-1.551 3.025l13.499 23.595a83.848 83.848 0 0 0-18.49 22.8l-26.733-7.411c-1.437-.416-2.836.719-2.685 2.155.341 2.912.265 8.017-1.966 15.579s-4.878 11.949-6.731 14.255c-.907 1.135-.302 2.798 1.097 3.214l26.771 7.449c-.567 9.567.567 19.285 3.479 28.775l-24.389 13.235c-1.286.68-1.475 2.458-.303 3.365 2.345 1.853 5.975 5.483 9.907 12.365s5.18 11.797 5.559 14.746c.189 1.437 1.815 2.194 3.1 1.513l24.465-13.272c6.73 7.335 14.633 13.31 23.254 17.847l-7.714 26.355c-.416 1.399.757 2.761 2.231 2.609 2.988-.302 8.206-.226 15.957 1.929 7.789 2.155 12.251 4.764 14.633 6.579 1.173.908 2.874.303 3.29-1.058l7.714-26.431c9.755.529 19.624-.53 29.267-3.328l13.725 24.011c.719 1.248 2.534 1.437 3.441.303 1.891-2.307 5.634-5.824 12.667-9.643 7.071-3.819 12.1-5.067 15.125-5.445 1.475-.189 2.269-1.777 1.551-3.025l-13.726-24.01a83.14 83.14 0 0 0 18.301-22.499l27.111 7.525c1.437.378 2.836-.718 2.685-2.155-.34-2.912-.265-8.017 1.966-15.579s4.878-11.949 6.731-14.255c.907-1.135.302-2.798-1.097-3.214l.114-.076zm-78.045-31.195c10.701 18.755 3.819 42.425-15.427 52.862s-43.522 3.705-54.223-15.05-3.819-42.425 15.427-52.861 43.522-3.706 54.223 15.049z" class="B"/><path d="M22.509 613.493c-3.043-3.059-3.03-9.921.022-12.959L542.642 82.261l13.575 14.273L33.559 613.517c-3.795 3.265-8.008 3.035-11.05-.024z" class="C"/><path d="M452.755 183.33a22.3 22.3 0 0 1-7.069-15.663L441.593 37.56a22.28 22.28 0 0 1 6.076-16.075c4.106-4.377 9.667-6.887 15.662-7.069l130.113-4.085a22.31 22.31 0 0 1 16.075 6.075 22.252 22.252 0 0 1 7.069 15.663l4.08 130.105c.387 12.375-9.364 22.758-21.738 23.144l-130.1 4.087c-5.991.189-11.698-1.969-16.075-6.075z" class="E"/><path d="M595.472 174.94l-123.837 3.892a15.1 15.1 0 0 1-15.565-14.627l-.767-24.565-.169-5.139-.249-8.056-.251-7.588-.038-1.538-.528-16.579-.256-8.051-.238-7.586-.125-4.006-1.272-40.717a15.09 15.09 0 0 1 14.621-15.571l123.843-3.885c8.343-.265 15.318 6.28 15.571 14.622l3.885 123.842a15.1 15.1 0 0 1-14.627 15.564l.002-.012z" class="F"/><path d="M493.891 120.464c2.335-2.485 5.157-3.693 8.454-3.594 3.299.088 6.293 1.405 8.986 3.927 2.686 2.528 4.18 5.433 4.487 8.724.294 3.289-.717 6.174-3.059 8.665s-5.162 3.685-8.454 3.593c-3.304-.094-6.293-1.405-8.986-3.927s-4.185-5.44-4.486-8.724.716-6.174 3.058-8.664zm31.132-.193l-13.775-12.933 44.972-52.24 18.111 17.016-49.315 48.163.007-.006z" class="B"/><path d="M303.979 477.21 140.148 323.743c-7.82-7.326-20.098-6.925-27.424.896l-80.58 86.021c-7.326 7.821-6.925 20.099.895 27.425L196.87 591.552c7.82 7.326 20.099 6.925 27.424-.896l80.581-86.021c7.325-7.821 6.924-20.099-.896-27.425z" class="E"/><path d="M304.328 499.617l-85.067 90.811c-4.643 4.957-12.439 5.212-17.397.568L33.244 433.043a12.32 12.32 0 0 1-.568-17.398l85.067-90.81c4.643-4.958 12.44-5.212 17.397-.568L303.759 482.22c4.958 4.644 5.212 12.44.569 17.397z" class="F"/><path d="M223.011 432.606c20.526 27.189 59.206 32.59 86.395 12.064s32.59-59.206 12.064-86.394-59.206-32.59-86.395-12.065-32.59 59.207-12.064 86.395z" class="E"/><path d="m301.135 417.247-41.953-55.57a3.778 3.778 0 0 0-5.291-.739l-5.661 4.274a3.777 3.777 0 0 0-.739 5.291l41.952 55.571a3.778 3.778 0 0 0 5.291.739l5.662-4.275a3.778 3.778 0 0 0 .739-5.291z" class="B"/><g clip-path="url(#B)"><path d="M374.212 225.472c-1.196-.147-2.393-.144-3.513.232 6.587 4.023 20.59 15.432 15.517 20.526-4.194-3.879-15.881-15.666-22.833-15.427-1.564 2.918-3.644 9.053-.114 17.045a56.994 56.994 0 0 0 5.55 8.511l.225.223c11.618 14.704 31.304 26.699 40.48 17.485 9.549-9.589-4.026-30.568-19.524-41.824a3.479 3.479 0 0 1-1.042 2.244c-3.671-3.954-10.184-8.202-14.746-9.015zm25.719-34.816c-15.741 15.807 30.78 61.986 46.446 46.254s-30.779-61.985-46.446-46.254z" fill="#e55426"/><path d="M441.71 220.921c-10.444 10.488-34.626-6.581-44.829-23.754-2.428 19.068 35.621 53.677 49.498 39.743 5.222-5.244 3.559-13.913-1.617-22.499-.294 2.542-1.261 4.712-3.052 6.51zm-78.59 26.777c9.233 17.998 35.289 37.381 46.256 26.369 5.222-5.244 3.559-13.913-1.617-22.499-.369 2.468-1.261 4.712-3.052 6.51-9.996 10.039-32.305-5.016-43.254-21.291-.368 2.917-.136 6.579 1.667 10.911z" fill="#be3b27"/><path d="M309.344 307.542c-1.045.6-35.389-13.757-35.389-13.757s1.994-11.89.869-13.757c-4.037.008-10.022-2.072-10.022-2.072s4.043 2.982 6.063 3.8c0 0-4.332 1.653-7.699.24l2.798 15.768s36.288 14.204 37.561 15.621c-5.002 3.225-4.461 11.373-4.461 11.373 8.806-7.195 19.979 9.154 13.109 13.055 12.57 4.908 11.952-4.809-2.583-20.029 2.914-.53 17.497 1.907 12.058 10.515 18.401 5.345 10.281-16.916-8.032-15.906 5.373-4.647 19.199-6.395 18.775 5.119 7.857 3.497 9.112-3.757 5.514-8.683-6.971-8.882-19.601-6.688-28.561-1.287zm57.608-86.316c-4.936-.887-7.92 2.11-9.18 7.121-6.639 7.116-11.79 10.491-30.206 34.527 0 0-1.797-1.492-4.268-3.655-1.566 2.022-3.282 3.895-5.072 5.842l11.828 7.9c5.445-5.917 18.484-27.101 26.69-35.341.237 6.204 4.377 19.428 12.375 18.888-10.716-12.014-7.746-21.888-5.735-25.705 6.281.585 18.713 11.623 22.833 15.427 5.073-5.094-8.706-16.578-15.294-20.601 1.271-.227 2.168-.229 3.29-.157 4.487.739 10.702 5.585 14.746 9.016 5.819-5.844-15.367-19.63-22.007-13.262z" class="G"/><path d="M332.766 209.56c-8.617 26.632-30.848 49.405-41.608 15.711.079 2.018.233 3.962.46 5.531-5.327-9.483-5.653-22.49-4.33-32.959 0 0-2.599 8.004-3.336 13.388-3.935-23.166 9.734-28.503-5.192-52.319 9.079 16.054 3.295 38.643-5.942 54.66-5.119 18.925-46.034 44.278-60.073 51.633 6.861-8.088 9.172-11.307 9.172-11.307-10.156 5.403-23.23 9.542-34.806 15.024 6.516 5.742 14.301 10.66 21.632 13.187-8.16-5.59-10.338-10.295-10.338-10.295s17.07 12.075 31.28 14.737c-11.303-6.78-13.405-10.812-13.405-10.812s22.081 12.738 34.862 11.889c-6.361-3.351-10.634-9.099-10.634-9.099s4.714 2.158 19.139.559c-6.883-2.827-.386-5.906 8.513-4.504s11.587-.397 19.785-12.675c-3.19 11.744 11.743 2.742 18.453-5.944-2 9.05 14.558-9.375 22.083-21.726-1.177 9.273 15.229-10.647 16.19-15.658.296-1.496 2.31-3.518 4.998-5.318.296-1.496.517-2.917.738-4.338-2.748 8.454-11.254-19.413-17.641.635z" fill="#f2f2f2"/><path d="M331.943 245.147c-8.557 19.38-31.991 38.417-56.789 49.084-.748-.297-1.122-.521-1.122-.521s1.993-11.89.868-13.757c-4.037.008-10.022-2.072-10.022-2.072s4.043 2.982 6.063 3.8c0 0-4.332 1.653-7.699.24l2.799 15.768s.075.075.149 0c-10.384 3.535-20.696 5.5-29.967 5.37 3.891 1.786 7.558 3.647 9.355 4.541-6.73-.734-31.177-1.057-53.332-14.019 3.521 3.656 8.763 7.832 8.763 7.832-10.55-4.24-20.058-10.724-26.648-16.242 1.2 1.642 4.872 6.045 6.22 7.238-7.184-3.424-15.046-9.612-20.439-14.685l-.225-.224-1.124-1.119-.225-.223-.074-.075-3.297-3.282c.527 1.419 1.203 3.137 2.104 4.78.225.373.375.672.6 1.045l.075.075c.225.373.45.746.749 1.045-7.637-5.816-13.407-12.457-16.782-17.459 24.506-7.228 53.199-14.165 71.956-17.418 3.288-.605-22.402 12.157-19.114 11.552 27.276-5.364 53.275-13.492 69.163-30.495 3.133-3.296 6.189-7.564 9.02-12.504-5.119 18.925-46.034 44.278-60.073 51.633 6.861-8.088 9.171-11.307 9.171-11.307-10.156 5.404-23.23 9.542-34.806 15.024 6.516 5.743 14.301 10.66 21.633 13.187-8.16-5.59-10.338-10.295-10.338-10.295s17.07 12.075 31.279 14.737c-11.302-6.779-13.404-10.812-13.404-10.812s22.08 12.738 34.862 11.889c-6.361-3.351-10.634-9.099-10.634-9.099s4.714 2.159 19.139.559c-6.884-2.827-.386-5.905 8.513-4.503s11.587-.398 19.784-12.676c-3.19 11.744 11.743 2.742 18.453-5.944-1.999 9.05 14.559-9.375 22.084-21.726-1.177 9.273 15.228-10.647 16.19-15.658.296-1.495 2.31-3.518 4.997-5.318-2.441 12.34-8.096 25.36-18.384 39.137-.224.075 1.189-3.741.509-7.103zm-64.647 9.03c5.303-2.179 8.055-9.137 6.69-18.404-.364 4.86-2.589 13.088-6.69 18.404zm11.986 11.937c3.659-1.877 6.116-6.741 5.954-12.722-.666 3.216-2.822 8.828-5.954 12.722zm-59.057.72c3.225 5.002 10.184 8.352 18.332 8.26-4.562-.962-12.567-4.01-18.332-8.26z" fill="#b3b3b3"/><path d="M101.453 276.725c11.821 4.162 31.551 1.429 49.483-3.392-3.896-3.88-7.118-7.686-9.143-10.896-17.259 5.045-32.349 10.16-40.34 14.288zM73.548 194.026c-17.714 1.905-17.316 13.492-6.242 18.403-4.407 1.579-37.304.152-25.844 10.37 6.59 5.818 39.717 10.01 72.693 13.904 4.238-11.148 9.298-22.522 15.406-33.299-23.71-5.558-47.642-10.293-56.013-9.378z" class="G"/><path d="M355.539 124.812c-18.84-36.219-74.684-71.987-158.004 16.775-60.882 22.18-83.693 89.435-96.083 135.138 19.193-9.833 80.386-26.183 112.221-31.781 3.288-.605-22.402 12.157-19.114 11.552 27.275-5.364 53.274-13.492 69.163-30.495 14.172-15.131 28.453-50.147 12.412-70.897 8.809-5.999 26.102 5.703 26.48 7.571-.079-2.019-10.047-14.184-7.522-22.113 0 0 4.054 8.364 6.299 9.406-6.004-11.5 13.984-34.268 32.202-9.262-.004-1.943-4.656-10.157-4.656-10.157 13.495 18.512 26.129 18.71 33.221 13.686 2.31-3.369-2.357-19.058-8.054-26.074a26.7 26.7 0 0 1 1.435 6.651z" fill="#4e362f"/><path d="M121.474 234.146c2.964-12.715 18.357-52.145 52.324-75.016-29.399 26.525-52.324 75.016-52.324 75.016zm76.061-92.559a84.436 84.436 0 0 0-9.187 3.832c17.71-3.7 33.483-3.808 44.101-2.933-6.583-1.78-16.909-6.394-28.349-7.641l-6.565 6.742z" class="G"/><path d="M269.199 198.479c-27.585 36.389-50.676 41.147-50.756 38.531 21.965-6.774 46.204-34.56 50.756-38.531zm-74.693 31.553c.005 2.542 23.171-2.141 50.756-38.531-4.552 3.972-28.716 31.682-50.756 38.531zm76.273-62.806c2.091-.901 1.762-15.104-23.221-21.781 2.471 1.864 20.951 9.077 23.221 21.781zm44.559-70.066c-37.769-8.07-63.441 13.663-67.239 20.474 32.692-25.037 62.084-19.043 67.239-20.474z" fill="#6d4e43"/><path d="M364.042 150.436c-.156-2.99 2.002-7.853 2.745-9.948-.895.749-2.608 3.818-4.172 6.886-.152-1.046-.228-2.018-.455-3.139-7.166 5.099-19.726 4.826-33.221-13.686 0 0 4.577 8.288 4.656 10.157-18.293-25.08-38.206-2.238-32.202 9.262-2.244-1.042-6.299-9.406-6.299-9.406-2.525 7.93 7.443 20.094 7.522 22.113-.378-1.868-17.746-13.495-26.48-7.571a33.528 33.528 0 0 1 2.475 3.808c14.926 23.817 1.256 29.153 5.192 52.32.736-5.384 3.336-13.389 3.336-13.389-1.398 10.544-.998 23.476 4.33 32.96-.228-1.57-.381-3.513-.46-5.532 10.835 33.619 32.991 10.921 41.608-15.71 6.462-20.124 14.968 8.042 17.566-.71 3.787-12.492.476-23.101-1.256-29.153a623.313 623.313 0 0 1 2.932 8.143c1.252-9.198-3.7-18.009-.347-23.025-4.265-1.711-7.184-3.424-6.888-4.92.519-2.169 8.892-2.336 11.656-3.164.148-.748-.901-1.643-.901-1.643 2.094.295 4.562.514 6.654-.088-.526-1.27.52-1.272.595-1.347 2.164-1.874 3.509-2.474 5.825-3.003-.748-.297-2.542-.293-4.411-.215z" fill="#e55426"/><path d="M319.371 132.662c-10.764.321-15.157 8.928-14.396 15.355-4.429-8.887 4.296-19.446 14.396-15.355zm25.447 49.96c1.652 3.436 2.953 18.011-1.074 22.953 3.138-.903 7.443-15.864 1.074-22.953zm-42.359 13.919c.008 3.588-1.025 10.468-4.305 14.661 1.793-.452 5.667-6.889 4.305-14.661zm-.913 28.484c.304 2.242-.061 6.355-2.897 8.753 1.719-.078 4.926-3.748 2.897-8.753zm15.432-20.74c.304 2.242-.061 6.355-2.897 8.753 1.719-.078 4.926-3.748 2.897-8.753zm18.274-20.297c.304 2.242-.062 6.354-2.897 8.753 1.719-.079 4.926-3.749 2.897-8.753zm-11.24 23.572c1.354 3.885-3.018 22.658-9.963 26.037 4.486.289 16.785-16.856 9.963-26.037z" fill="#be3b27"/><path d="M331.287 145.72c-1.631 6.731-6.404 11.974-13.057 12.661 3.144 1.638 13.451-2.719 13.057-12.661z" fill="#ed6e24"/><path d="M118.856 233.778c-33.87-2.397-73.062-11.287-76.583-14.793 0 0 31.563 7.261 76.583 14.793zm-4.077-19.728c-2.397-2.088-27.6-6.746-48.983-7.598 28.79 3.753 48.983 7.598 48.983 7.598z" fill="#4e362f"/><path d="M362.179 155.001c-2.017.677-4.484.457-6.653.088 0 0 1.049.895.901 1.643-2.765.828-11.137.995-11.656 3.164-.296 1.496 2.623 3.209 6.888 4.92 6.135 2.529 15.112 5.201 20.798 7.432 2.245.893 11.891 2.144-9.682-18.594-.15 0-1.196.002-.596 1.347zm-36.332-1.121a11.63 11.63 0 0 0-.034-16.447c-4.551-4.532-11.914-4.517-16.447.034s-4.516 11.915.035 16.447a11.63 11.63 0 0 0 16.446-.034z" fill="#030304"/><path d="M315.426 138.277c1.198.895 1.053 3.138-.289 4.935-1.416 1.872-3.508 2.624-4.631 1.804-1.198-.895-1.053-3.138.289-4.935 1.267-1.872 3.358-2.624 4.631-1.804zm11.452 6.779c.229 2.168-.515 4.113-1.633 5.685-.299.001-.523.226-.821.525-.224.225-.298.599-.298.749-1.865 1.872-4.18 3.148-5.674 3.45 2.392.145 4.558-1.131 6.199-2.779.299 0 .672-.225.971-.525.223-.374.372-.674.222-.972 1.49-2.396 2.083-4.939 1.034-6.133z" class="B"/></g><path d="M359.12 100.798s23.872 12.71 12.62 21.395-127.955-9.081-127.955-9.081 52.864-21.818 115.335-12.314z" fill="#ffd169"/><path d="M359.119 100.798c-2.739-30.362-22.195-60.762-51.2-70.835-20.569-7.143-52.185-9.325-71.507 2.938-11.558 7.334-18.553 21.151-22.694 33.887-4.448 13.677-7.571 29.184-7.36 43.629.019 1.159 2.323 18.797 2.291 18.81 0 0 73.03-41.19 150.464-28.429h.006z" class="F"/><path d="M214.254 65.182s25.331-24.64 52.025-4.262 23.853 40.787 23.853 40.787l7.482-1.159s7.68-24.915-23.872-46.13-52.403-5.025-52.403-5.025-6.311 8.525-7.079 15.79h-.006zm69.191-40.467s37.562 10.662 46.97 37.408c9.414 26.745 7.859 36.473 7.859 36.473l6.067-.115s2.496-24.877-11.936-46.361-42.745-26.957-48.96-27.405z" class="E"/></g><defs><clipPath id="A"><path d="M0 0h640v640H0z" class="B"/></clipPath><clipPath id="B"><path transform="rotate(314.881 289.17 81.226)" d="M0 0h324.572v303.427H0z" class="B"/></clipPath></defs></svg>
