<svg width="60" height="34" viewBox="0 0 60 34" fill="none" xmlns="http://www.w3.org/2000/svg">
  <path d="M4.89436 30.4078C4.53186 31.1527 4.84187 32.0504 5.58677 32.4129C6.33168 32.7754 7.22941 32.4654 7.59191 31.7205L4.89436 30.4078ZM54.8537 3.77329C55.6754 3.87858 56.4269 3.2978 56.5322 2.47609C56.6375 1.65438 56.0567 0.902905 55.235 0.797618L54.8537 3.77329ZM3.23077 19.4873C3.0022 18.6911 2.17141 18.2309 1.37513 18.4594C0.578864 18.688 0.11865 19.5188 0.34722 20.3151L3.23077 19.4873ZM4.72059 30.1141L3.27881 30.5279L3.2792 30.5293L4.72059 30.1141ZM7.9419 32.0651L7.70419 30.584L7.70284 30.5842L7.9419 32.0651ZM19.3288 31.7566C20.1468 31.6253 20.7034 30.8558 20.5722 30.0379C20.4409 29.2199 19.6714 28.6633 18.8534 28.7945L19.3288 31.7566ZM6.24313 31.0641C7.59191 31.7205 7.59176 31.7208 7.59164 31.721C7.59164 31.721 7.59155 31.7212 7.59155 31.7212C7.59155 31.7212 7.59167 31.721 7.59191 31.7205C7.59238 31.7195 7.59332 31.7176 7.59474 31.7147C7.59757 31.7089 7.60229 31.6994 7.6089 31.6861C7.6221 31.6596 7.64283 31.6182 7.67104 31.5628C7.72746 31.452 7.81378 31.285 7.92965 31.0681C8.16145 30.6341 8.51122 30.0007 8.97618 29.2171C9.90679 27.6488 11.2951 25.4852 13.1182 23.1175C16.7796 18.3624 22.1203 12.882 28.9425 9.67716L27.6669 6.96184C20.2379 10.4517 14.5478 16.3436 10.7412 21.2872C8.83039 23.7688 7.37537 26.036 6.39619 27.6863C5.90625 28.5119 5.53449 29.1848 5.28348 29.6547C5.15796 29.8897 5.06256 30.0741 4.99761 30.2016C4.96514 30.2654 4.94027 30.315 4.92305 30.3496C4.91444 30.3669 4.90774 30.3805 4.90295 30.3902C4.90056 30.3951 4.89865 30.399 4.89722 30.4019C4.8965 30.4034 4.8959 30.4046 4.89543 30.4056C4.89519 30.406 4.89492 30.4066 4.8948 30.4068C4.89456 30.4073 4.89436 30.4078 6.24313 31.0641ZM28.9425 9.67716C42.9328 3.10502 52.5523 3.47841 54.8537 3.77329L55.235 0.797618C52.3738 0.431017 42.179 0.144598 27.6669 6.96184L28.9425 9.67716ZM0.34722 20.3151L3.27882 30.5279L6.16237 29.7002L3.23077 19.4873L0.34722 20.3151ZM3.2792 30.5293C3.89187 32.6561 6.03091 33.893 8.18096 33.5459L7.70284 30.5842C6.9442 30.7067 6.32535 30.266 6.16198 29.6988L3.2792 30.5293ZM8.17961 33.5461L19.3288 31.7566L18.8534 28.7945L7.70419 30.584L8.17961 33.5461Z" fill="#4E5BA6"/>
</svg>
