<svg xmlns="http://www.w3.org/2000/svg" width="32" height="32" fill="none"><path d="M31.093 8.587c.095-.079.166-.182.206-.299s.046-.242.018-.363-.088-.23-.175-.318-.196-.15-.316-.18l-1.053-.267c-.096-.024-.185-.069-.261-.132s-.138-.142-.18-.231-.064-.187-.064-.286.022-.196.065-.285l.587-1.187c.055-.115.077-.243.061-.37s-.067-.246-.148-.345-.189-.171-.311-.21-.252-.042-.375-.009l-2.667.747c-.099.029-.204.034-.306.016s-.198-.06-.281-.123c-1.154-.865-2.558-1.333-4-1.333-1.768 0-3.464.702-4.714 1.953s-1.953 2.946-1.953 4.714v.48c.001.082-.029.161-.083.223s-.129.101-.21.111c-3.747.44-7.333-1.467-11.2-5.92a.68.68 0 0 0-.68-.2c-.109.05-.202.128-.27.227s-.108.214-.117.333c-.534 2.194-.318 4.503.613 6.56.028.055.04.116.035.177s-.026.119-.062.169-.084.088-.141.112-.118.031-.179.022L1.44 12.08c-.106-.017-.215-.008-.317.026s-.194.092-.269.169-.129.171-.16.274-.035.212-.015.317c.115 1.023.459 2.008 1.006 2.88s1.283 1.611 2.154 2.16c.056.027.104.07.137.123s.051.114.051.177-.018.124-.051.177-.081.096-.137.123l-.707.28c-.086.034-.164.086-.228.152s-.115.145-.148.231-.047.179-.042.271.029.183.071.265c.391.855.983 1.603 1.726 2.179s1.615.963 2.54 1.128c.064.023.12.066.159.122s.06.123.06.191-.021.135-.06.191-.095.099-.159.122c-1.813.75-3.758 1.126-5.72 1.107a.68.68 0 0 0-.8.533.68.68 0 0 0 .533.8c3.397 1.611 7.095 2.488 10.853 2.573 3.306.05 6.553-.877 9.333-2.667 2.287-1.527 4.161-3.595 5.454-6.022s1.967-5.135 1.959-7.885v-1.16a.67.67 0 0 1 .064-.28c.041-.087.102-.165.176-.227l2.187-1.827z" fill="gray"/></svg>
