<svg xmlns="http://www.w3.org/2000/svg" width="224" height="72" fill="none"><rect width="224" height="72" rx="8" fill="#3d3d46"/><path d="M74.162 26v-9.156h2.45c1.4 0 2.492.378 3.276 1.134s1.176 1.89 1.176 3.402c0 .756-.103 1.423-.308 2.002-.196.579-.485 1.064-.868 1.456a3.59 3.59 0 0 1-1.372.868c-.532.196-1.139.294-1.82.294h-2.534zm1.624-1.316h.714c.933 0 1.647-.266 2.142-.798.504-.541.756-1.377.756-2.506 0-1.12-.252-1.937-.756-2.45s-1.218-.77-2.142-.77h-.714v6.524zm10.682 1.484c-.597 0-1.143-.107-1.638-.322-.495-.224-.919-.541-1.274-.952-.355-.42-.63-.924-.826-1.512s-.294-1.255-.294-2.002c0-.737.098-1.395.294-1.974.196-.588.471-1.083.826-1.484a3.59 3.59 0 0 1 1.274-.924c.495-.215 1.041-.322 1.638-.322s1.143.107 1.638.322a3.59 3.59 0 0 1 1.274.924c.364.401.644.896.84 1.484.196.579.294 1.237.294 1.974 0 .747-.098 1.414-.294 2.002s-.476 1.092-.84 1.512c-.355.411-.779.728-1.274.952-.495.215-1.041.322-1.638.322zm0-1.414a2 2 0 0 0 .98-.238 2.21 2.21 0 0 0 .742-.672c.205-.299.364-.653.476-1.064.112-.42.168-.887.168-1.4 0-1.027-.215-1.829-.644-2.408a2 2 0 0 0-1.722-.882c-.728 0-1.307.294-1.736.882-.42.579-.63 1.381-.63 2.408 0 .513.056.98.168 1.4.112.411.271.765.476 1.064a2.21 2.21 0 0 0 .742.672 2 2 0 0 0 .98.238zM93.201 26l-1.82-9.156h1.666l.798 4.62.224 1.47.224 1.456h.056l.294-1.456.308-1.47 1.12-4.62h1.414l1.12 4.62.308 1.456.308 1.47h.056l.21-1.47.224-1.456.798-4.62h1.554L100.313 26h-2.016l-1.134-4.816-.224-1.05-.182-1.064h-.056l-.21 1.064-.21 1.05L95.175 26h-1.974zm10.287 0v-9.156h1.666l2.856 5.152.938 1.946h.056l-.14-1.526-.07-1.596v-3.976h1.554V26h-1.666l-2.856-5.152-.938-1.946h-.056l.126 1.526a14.98 14.98 0 0 1 .084 1.568V26h-1.554zm9.188 0v-9.156h1.624v7.784h3.808V26h-5.432zm10.146.168c-.598 0-1.144-.107-1.638-.322-.495-.224-.92-.541-1.274-.952-.355-.42-.63-.924-.826-1.512s-.294-1.255-.294-2.002c0-.737.098-1.395.294-1.974.196-.588.471-1.083.826-1.484a3.59 3.59 0 0 1 1.274-.924c.495-.215 1.04-.322 1.638-.322s1.143.107 1.638.322a3.59 3.59 0 0 1 1.274.924c.364.401.644.896.84 1.484.196.579.294 1.237.294 1.974 0 .747-.098 1.414-.294 2.002s-.476 1.092-.84 1.512a3.66 3.66 0 0 1-1.274.952c-.495.215-1.041.322-1.638.322zm0-1.414c.364 0 .69-.079.98-.238s.536-.383.742-.672c.205-.299.364-.653.476-1.064.112-.42.168-.887.168-1.4 0-1.027-.215-1.829-.644-2.408a2 2 0 0 0-1.722-.882c-.728 0-1.307.294-1.736.882-.42.579-.63 1.381-.63 2.408 0 .513.056.98.168 1.4.112.411.27.765.476 1.064a2.2 2.2 0 0 0 .742.672 2 2 0 0 0 .98.238zm7.616-3.626l-.322 1.12h2.338l-.322-1.12-.434-1.498-.392-1.526h-.056l-.392 1.54-.42 1.484zM127.372 26l2.982-9.156h1.904L135.24 26h-1.708l-.714-2.478h-3.08L129.024 26h-1.652zm8.997 0v-9.156h2.45c1.4 0 2.492.378 3.276 1.134s1.176 1.89 1.176 3.402c0 .756-.103 1.423-.308 2.002-.196.579-.485 1.064-.868 1.456a3.59 3.59 0 0 1-1.372.868c-.532.196-1.139.294-1.82.294h-2.534zm1.624-1.316h.714c.933 0 1.647-.266 2.142-.798.504-.541.756-1.377.756-2.506 0-1.12-.252-1.937-.756-2.45s-1.218-.77-2.142-.77h-.714v6.524zM147.922 26v-9.156h5.53v1.372h-3.906v2.59h3.332v1.372h-3.332V26h-1.624zm10.556.168c-.598 0-1.144-.107-1.638-.322-.495-.224-.92-.541-1.274-.952-.355-.42-.63-.924-.826-1.512s-.294-1.255-.294-2.002c0-.737.098-1.395.294-1.974.196-.588.471-1.083.826-1.484a3.59 3.59 0 0 1 1.274-.924c.495-.215 1.04-.322 1.638-.322s1.143.107 1.638.322a3.59 3.59 0 0 1 1.274.924c.364.401.644.896.84 1.484.196.579.294 1.237.294 1.974 0 .747-.098 1.414-.294 2.002s-.476 1.092-.84 1.512a3.66 3.66 0 0 1-1.274.952c-.495.215-1.041.322-1.638.322zm0-1.414c.364 0 .69-.079.98-.238s.536-.383.742-.672c.205-.299.364-.653.476-1.064.112-.42.168-.887.168-1.4 0-1.027-.215-1.829-.644-2.408a2 2 0 0 0-1.722-.882c-.728 0-1.307.294-1.736.882-.42.579-.63 1.381-.63 2.408 0 .513.056.98.168 1.4.112.411.27.765.476 1.064a2.2 2.2 0 0 0 .742.672 2 2 0 0 0 .98.238zM164.355 26v-9.156h3.094a6.01 6.01 0 0 1 1.33.14c.41.093.766.247 1.064.462.299.205.532.481.7.826.178.345.266.775.266 1.288 0 .7-.168 1.265-.504 1.694-.326.429-.765.737-1.316.924L171.173 26h-1.82l-1.974-3.584h-1.4V26h-1.624zm1.624-4.872h1.302c.626 0 1.102-.131 1.428-.392.336-.261.504-.653.504-1.176 0-.532-.168-.901-.504-1.106-.326-.205-.802-.308-1.428-.308h-1.302v2.982zM75.156 55V36.744h4.116v14.784h7.224V55h-11.34zm14.492 0V36.744h4.116V55h-4.116zm8.422 0V36.744h4.228l4.76 9.072 1.792 4.032h.112l-.336-3.248-.168-3.416v-6.44h3.92V55h-4.228l-4.76-9.1-1.792-3.976h-.112l.308 3.248a29.88 29.88 0 0 1 .196 3.36V55h-3.92zm25.817.336c-2.371 0-4.181-.7-5.432-2.1s-1.876-3.631-1.876-6.692v-9.8h4.144v10.22c0 1.792.271 3.043.812 3.752s1.325 1.064 2.352 1.064 1.82-.355 2.38-1.064.84-1.96.84-3.752v-10.22h3.976v9.8c0 3.061-.616 5.292-1.848 6.692-1.213 1.4-2.996 2.1-5.348 2.1zm9.304-.336l5.068-9.38-4.76-8.876h4.592l1.596 3.444.616 1.372.7 1.568h.112l.588-1.568.588-1.372 1.456-3.444h4.396l-4.732 9.072 5.04 9.184h-4.592l-1.82-3.724-.672-1.428-.7-1.568h-.112l-.616 1.568-.616 1.428L137.615 55h-4.424zm-97.82-30.681c-.481.052-.315.497-.583.507s-.21-.567.583-.507zm1.45.073c.468-.121.471.354.726.267.248-.084-.004-.603-.726-.267zm16.13 31.082c-1.446.732-3.332 2.358-4.037 3.032-.518.5-2.691.747-3.898.122-1.43-.742-.672-1.899-2.88-1.954l-3.235-.023-2.857.093c-3.316.029-3.641 2.213-5.754 2.133-1.446-.054-3.271-1.203-6.404-1.863-2.202-.462-4.317-.571-4.769-1.553s.558-2.075.625-3.05c.082-1.271-.956-3-.188-3.669.634-.555 2.023-.148 2.918-.651.952-.532 1.334-.975 1.334-2.143.35 1.193-.016 2.181-.803 2.666-.468.285-1.338.436-2.054.362-.567-.054-.918.039-1.09.256-.22.283-.149.776.127 1.434s.612 1.075.568 1.88-.924 1.762-.784 2.439c.054.26.308.477.918.65 1.01.286 2.812.545 4.591.981 1.977.488 4.018 1.408 5.287 1.232 3.793-.532 1.63-4.628 1.016-5.603-3.202-5.075-5.319-8.398-7.014-7.079-.443.343-.459-.864-.44-1.328.073-1.668.915-2.252 1.415-3.55.936-2.432 1.666-5.217 3.114-6.657 1.078-1.389 2.759-3.675 3.082-4.882-.271-2.624-.354-5.385-.396-7.804-.041-2.573.364-4.83 3.249-6.409.704-.385 1.618-.526 2.587-.536 1.733-.019 3.643.469 4.864 1.38 1.946 1.453 3.169 4.544 3.026 6.768-.116 1.712.191 3.506.736 5.35.652 2.19 1.685 3.73 3.324 5.481 1.976 2.11 3.514 6.268 3.947 8.902.408 2.46-.123 3.98-.659 4.057-.798.119-1.296 2.672-3.797 2.553-1.596-.078-1.752-1.026-2.194-1.835-.711-1.293-1.434-.889-1.724.459-.15.689-.041 1.678.179 2.447.446 1.575.293 3.07.026 4.882-.511 3.477 2.413 4.135 4.386 2.483 1.946-1.632 2.363-1.892 4.825-2.738 3.714-1.281 2.466-2.413.469-3.089-1.79-.606-1.864-3.653-1.223-4.227.143 3.272 1.834 3.746 2.551 4.193 3.072 1.921-1.161 3.496-2.962 4.409zm-8.27-9.583c.338-.404.736-.45 1.261-.459.08-1.994 3.163-1.847 4.173-1.013 0-.462-.969-.876-1.357-1.072.672-2.252.357-3.156-.089-5.283-.338-1.623-1.806-3.807-2.957-4.49.29.256.842 1.001 1.424 2.093 1.003 1.881 1.994 4.661 1.334 6.996-.254.892-.834 1.004-1.233 1.049-1.768.186-.729-2.104-1.463-5.258-.817-3.506-1.656-3.769-1.866-4.044-1.013-4.561-2.14-4.106-2.459-5.828-.286-1.524 1.319-2.784-.863-3.21-.665-.132-1.617-.811-1.997-.86s-.56-2.515.819-2.615 1.643 1.569 1.372 2.227c-.392.651.029.895.711.683.558-.173.198-1.636.331-1.853-.36-2.095-1.229-2.397-2.133-2.573-3.434.265-1.892 4.096-2.24 3.727-.486-.52-1.949-.029-1.942-.362.031-1.953-.619-3.085-1.514-3.109-.997-.029-1.408 1.377-1.468 2.168-.057.76.449 2.345.818 2.223.242-.081.656-.57.213-.568-.229.003-.575-.538-.611-1.197s.204-1.318 1.052-1.283c.994.039.984 1.993.876 2.069a4.48 4.48 0 0 0-.77.725c-.316.533-.95.664-1.182.898-.442.445-.532.949-.2 1.142 1.137.657.767 1.388 2.357 1.456 1.044.041 1.83-.164 2.541-.383.554-.169 2.332-.55 2.707-1.208.163-.279.367-.289.503-.209.239.139.29.604-.325.77-.879.241-1.767.713-2.545 1.027s-1.025.439-1.758.575c-1.651.298-2.87-.6-1.762.478.367.359.721.584 1.67.545 2.08-.083 4.41-2.598 4.64-1.472.048.231-.659.545-1.21.821-1.95.966-3.323 2.874-4.571 2.214-1.117-.593-2.229-3.384-2.209-2.134.031 1.928-2.524 3.644-1.348 5.838-.761.209-2.497 3.897-2.747 5.818-.136 1.088.104 2.454-.155 3.218-.376 1.103-2.083-1.052-1.538-3.692.098-.465.015-.563-.108-.339-.694 1.235-.313 2.957.235 4.166.24.523.8.754 1.214 1.219.894 1.007 4.317 3.563 4.937 4.176.752.744.541 2.451-1.057 2.614.819 1.556 1.617 1.703 1.605 4.247.927-.501.554-1.597.166-2.319-.271-.494-.625-.718-.548-.834.058-.087.535-.5.822-.177.844.952 2.437 1.123 4.151.908s3.545-.821 4.393-2.194c.398-.645.684-.873.869-.76s.261.571.242 1.302c-.022.812-.359 1.655-.569 2.329-.237.763-.309 1.305.429 1.334l.717-4.205c.125-1.598-1.025-4.571.214-6.053zM34.198 23.209c-.057.315-.035.511.182.511.035 0 .073-.007.087-.087.104-.625-.217-1.081-.348-1.117-.305-.077-.267.362-.108.328.096-.02.226.141.188.366zm5.645-.859c-.313.029-.223.186-.067.231.203.061.395.41.439.789.003.035.261-.055.261-.138.019-.607-.497-.894-.633-.882z" fill="#fff"/></svg>
