<svg xmlns="http://www.w3.org/2000/svg" width="224" height="72" fill="none"><rect width="224" height="72" rx="8" fill="#3d3d46"/><path d="M77.162 26v-9.156h2.45c1.4 0 2.492.378 3.276 1.134s1.176 1.89 1.176 3.402c0 .756-.103 1.423-.308 2.002-.196.579-.485 1.064-.868 1.456a3.59 3.59 0 0 1-1.372.868c-.532.196-1.139.294-1.82.294h-2.534zm1.624-1.316h.714c.933 0 1.647-.266 2.142-.798.504-.541.756-1.377.756-2.506 0-1.12-.252-1.937-.756-2.45s-1.218-.77-2.142-.77h-.714v6.524zm10.682 1.484c-.597 0-1.143-.107-1.638-.322-.495-.224-.919-.541-1.274-.952-.355-.42-.63-.924-.826-1.512s-.294-1.255-.294-2.002c0-.737.098-1.395.294-1.974.196-.588.471-1.083.826-1.484a3.59 3.59 0 0 1 1.274-.924c.495-.215 1.041-.322 1.638-.322s1.143.107 1.638.322a3.59 3.59 0 0 1 1.274.924c.364.401.644.896.84 1.484.196.579.294 1.237.294 1.974 0 .747-.098 1.414-.294 2.002s-.476 1.092-.84 1.512c-.355.411-.779.728-1.274.952-.495.215-1.041.322-1.638.322zm0-1.414a2 2 0 0 0 .98-.238 2.21 2.21 0 0 0 .742-.672c.205-.299.364-.653.476-1.064.112-.42.168-.887.168-1.4 0-1.027-.215-1.829-.644-2.408a2 2 0 0 0-1.722-.882c-.728 0-1.307.294-1.736.882-.42.579-.63 1.381-.63 2.408 0 .513.056.98.168 1.4.112.411.271.765.476 1.064a2.21 2.21 0 0 0 .742.672 2 2 0 0 0 .98.238zM96.201 26l-1.82-9.156h1.666l.798 4.62.224 1.47.224 1.456h.056l.294-1.456.308-1.47 1.12-4.62h1.414l1.12 4.62.308 1.456.308 1.47h.056l.21-1.47.224-1.456.798-4.62h1.554L103.313 26h-2.016l-1.134-4.816-.224-1.05-.182-1.064h-.056l-.21 1.064-.21 1.05L98.175 26h-1.974zm10.287 0v-9.156h1.666l2.856 5.152.938 1.946h.056l-.14-1.526-.07-1.596v-3.976h1.554V26h-1.666l-2.856-5.152-.938-1.946h-.056l.126 1.526a14.98 14.98 0 0 1 .084 1.568V26h-1.554zm9.188 0v-9.156h1.624v7.784h3.808V26h-5.432zm10.146.168c-.598 0-1.144-.107-1.638-.322-.495-.224-.92-.541-1.274-.952-.355-.42-.63-.924-.826-1.512s-.294-1.255-.294-2.002c0-.737.098-1.395.294-1.974.196-.588.471-1.083.826-1.484a3.59 3.59 0 0 1 1.274-.924c.495-.215 1.04-.322 1.638-.322s1.143.107 1.638.322a3.59 3.59 0 0 1 1.274.924c.364.401.644.896.84 1.484.196.579.294 1.237.294 1.974 0 .747-.098 1.414-.294 2.002s-.476 1.092-.84 1.512a3.66 3.66 0 0 1-1.274.952c-.495.215-1.041.322-1.638.322zm0-1.414c.364 0 .69-.079.98-.238s.536-.383.742-.672c.205-.299.364-.653.476-1.064.112-.42.168-.887.168-1.4 0-1.027-.215-1.829-.644-2.408a2 2 0 0 0-1.722-.882c-.728 0-1.307.294-1.736.882-.42.579-.63 1.381-.63 2.408 0 .513.056.98.168 1.4.112.411.27.765.476 1.064a2.2 2.2 0 0 0 .742.672 2 2 0 0 0 .98.238zm7.616-3.626l-.322 1.12h2.338l-.322-1.12-.434-1.498-.392-1.526h-.056l-.392 1.54-.42 1.484zM130.372 26l2.982-9.156h1.904L138.24 26h-1.708l-.714-2.478h-3.08L132.024 26h-1.652zm8.997 0v-9.156h2.45c1.4 0 2.492.378 3.276 1.134s1.176 1.89 1.176 3.402c0 .756-.103 1.423-.308 2.002-.196.579-.485 1.064-.868 1.456a3.59 3.59 0 0 1-1.372.868c-.532.196-1.139.294-1.82.294h-2.534zm1.624-1.316h.714c.933 0 1.647-.266 2.142-.798.504-.541.756-1.377.756-2.506 0-1.12-.252-1.937-.756-2.45s-1.218-.77-2.142-.77h-.714v6.524zM150.922 26v-9.156h5.53v1.372h-3.906v2.59h3.332v1.372h-3.332V26h-1.624zm10.556.168c-.598 0-1.144-.107-1.638-.322-.495-.224-.92-.541-1.274-.952-.355-.42-.63-.924-.826-1.512s-.294-1.255-.294-2.002c0-.737.098-1.395.294-1.974.196-.588.471-1.083.826-1.484a3.59 3.59 0 0 1 1.274-.924c.495-.215 1.04-.322 1.638-.322s1.143.107 1.638.322a3.59 3.59 0 0 1 1.274.924c.364.401.644.896.84 1.484.196.579.294 1.237.294 1.974 0 .747-.098 1.414-.294 2.002s-.476 1.092-.84 1.512a3.66 3.66 0 0 1-1.274.952c-.495.215-1.041.322-1.638.322zm0-1.414c.364 0 .69-.079.98-.238s.536-.383.742-.672c.205-.299.364-.653.476-1.064.112-.42.168-.887.168-1.4 0-1.027-.215-1.829-.644-2.408a2 2 0 0 0-1.722-.882c-.728 0-1.307.294-1.736.882-.42.579-.63 1.381-.63 2.408 0 .513.056.98.168 1.4.112.411.27.765.476 1.064a2.2 2.2 0 0 0 .742.672 2 2 0 0 0 .98.238zM167.355 26v-9.156h3.094a6.01 6.01 0 0 1 1.33.14c.41.093.766.247 1.064.462.299.205.532.481.7.826.178.345.266.775.266 1.288 0 .7-.168 1.265-.504 1.694-.326.429-.765.737-1.316.924L174.173 26h-1.82l-1.974-3.584h-1.4V26h-1.624zm1.624-4.872h1.302c.626 0 1.102-.131 1.428-.392.336-.261.504-.653.504-1.176 0-.532-.168-.901-.504-1.106-.326-.205-.802-.308-1.428-.308h-1.302v2.982zM79.78 55l-3.388-18.256h4.228l1.26 8.54.364 2.884.364 2.884h.112l.532-2.884.56-2.884 1.96-8.54h3.5l1.96 8.54.532 2.856.56 2.912h.112l.364-2.912.392-2.856 1.26-8.54H98.4L95.152 55h-5.18l-1.792-8.288-.42-2.128-.308-2.1h-.112l-.364 2.1-.392 2.128L84.876 55H79.78zm21.153 0V36.744h4.116V55h-4.116zm8.422 0V36.744h4.228l4.76 9.072 1.792 4.032h.112l-.336-3.248-.168-3.416v-6.44h3.92V55h-4.228l-4.76-9.1-1.792-3.976h-.112l.308 3.248a29.88 29.88 0 0 1 .196 3.36V55h-3.92zm18.621 0V36.744h5.152c1.4 0 2.66.177 3.78.532s2.082.905 2.884 1.652c.803.728 1.419 1.661 1.848 2.8s.644 2.492.644 4.06-.214 2.931-.644 4.088-1.036 2.119-1.82 2.884c-.784.747-1.726 1.307-2.828 1.68-1.082.373-2.296.56-3.64.56h-5.376zm4.116-3.332h.784c.784 0 1.494-.103 2.128-.308a4 4 0 0 0 1.624-.98c.448-.467.794-1.073 1.036-1.82.262-.747.392-1.671.392-2.772 0-1.083-.13-1.988-.392-2.716-.242-.747-.588-1.335-1.036-1.764a3.75 3.75 0 0 0-1.624-.952c-.634-.187-1.344-.28-2.128-.28h-.784v11.592zm21.078 3.668c-1.232 0-2.362-.215-3.388-.644a7.52 7.52 0 0 1-2.604-1.904c-.728-.821-1.298-1.82-1.708-2.996-.392-1.176-.588-2.511-.588-4.004s.196-2.819.588-3.976c.41-1.176.98-2.156 1.708-2.94.728-.803 1.596-1.409 2.604-1.82 1.026-.429 2.156-.644 3.388-.644s2.352.215 3.36.644a7.03 7.03 0 0 1 2.632 1.82c.728.803 1.288 1.792 1.68 2.968.41 1.157.616 2.473.616 3.948 0 1.493-.206 2.828-.616 4.004-.392 1.176-.952 2.175-1.68 2.996a7.46 7.46 0 0 1-2.632 1.904c-1.008.429-2.128.644-3.36.644zm0-3.556c1.25 0 2.24-.532 2.968-1.596.728-1.083 1.092-2.548 1.092-4.396 0-1.829-.364-3.257-1.092-4.284s-1.718-1.54-2.968-1.54-2.24.513-2.968 1.54-1.092 2.455-1.092 4.284c0 1.848.364 3.313 1.092 4.396.728 1.064 1.717 1.596 2.968 1.596zM166.514 55l-3.388-18.256h4.228l1.26 8.54.364 2.884.364 2.884h.112l.532-2.884.56-2.884 1.96-8.54h3.5l1.96 8.54.532 2.856.56 2.912h.112l.364-2.912.392-2.856 1.26-8.54h3.948L181.886 55h-5.18l-1.792-8.288-.42-2.128-.308-2.1h-.112l-.364 2.1-.392 2.128L171.61 55h-5.096zm26.726.336a10.54 10.54 0 0 1-3.584-.644 9.54 9.54 0 0 1-3.164-1.988l2.352-2.828c.653.56 1.372 1.017 2.156 1.372.802.355 1.586.532 2.352.532.858 0 1.493-.159 1.904-.476.429-.317.644-.747.644-1.288 0-.28-.066-.523-.196-.728-.112-.205-.29-.383-.532-.532a3.53 3.53 0 0 0-.84-.448l-1.064-.476-2.38-1.008c-.467-.187-.924-.429-1.372-.728a6.83 6.83 0 0 1-1.176-1.036 5.18 5.18 0 0 1-.812-1.4c-.206-.541-.308-1.148-.308-1.82 0-.747.158-1.447.476-2.1a5.06 5.06 0 0 1 1.344-1.736c.578-.504 1.26-.896 2.044-1.176.802-.28 1.68-.42 2.632-.42a8.37 8.37 0 0 1 3.136.616 7.95 7.95 0 0 1 2.744 1.792l-2.1 2.604a7.56 7.56 0 0 0-1.792-1.064 4.91 4.91 0 0 0-1.988-.392c-.71 0-1.279.149-1.708.448-.411.28-.616.681-.616 1.204 0 .28.065.523.196.728a2.73 2.73 0 0 0 .588.532c.261.149.56.299.896.448l1.092.448 2.352.952c1.12.448 1.997 1.064 2.632 1.848.653.784.98 1.82.98 3.108a5.18 5.18 0 0 1-.476 2.184c-.299.672-.747 1.269-1.344 1.792-.579.504-1.298.915-2.156 1.232-.859.299-1.83.448-2.912.448zM19 38.056v11.672l16.664 2.393V38.056H19zm16.664-17.93L19 22.518V34.19h16.664V20.126zm23.409 14.065V16.567l-19.541 2.805v14.819h19.541zM39.532 52.876l19.541 2.802V38.056H39.532v14.819z" fill="#fff"/></svg>
