<svg xmlns="http://www.w3.org/2000/svg" height="16" width="16" fill="#4E5BA6"><path d="M7.567 8.595L8 8.803l.432-.207.107-.466-.299-.373h-.481l-.3.373.107.466zM7.108 6.94l.001.001a.262.262 0 0 0 .416-.201v-.002l.006-.003.089-1.571-.317.055a3.1 3.1 0 0 0-1.486.809l1.288.913zm-.691 1.191h.002a.262.262 0 0 0 .103-.45l-.001-.001.001-.006-1.176-1.052a3.089 3.089 0 0 0-.437 1.95l1.507-.435zm.515 1.12a.261.261 0 0 0-.303-.199h-.002l-.002-.003-1.545.262a3.103 3.103 0 0 0 1.243 1.555l.599-1.447-.004-.006v-.002a.259.259 0 0 0 .015-.161zm1.299.571L8.23 9.82a.265.265 0 0 0-.24-.138.263.263 0 0 0-.222.138l-.001.001h-.001l-.76 1.374a3.114 3.114 0 0 0 1.69.086 3.23 3.23 0 0 0 .302-.084L8.236 9.82zm1.138-.777h-.002a.255.255 0 0 0-.06-.004.263.263 0 0 0-.227.366l.001.001-.002.003.605 1.462a3.093 3.093 0 0 0 1.247-1.567l-1.559-.263zm1.276-2.423L9.476 7.668v.003l-.001.001a.262.262 0 0 0 .103.451h.002l.001.007 1.515.436a3.146 3.146 0 0 0-.451-1.944zm-2.176.112v.001a.258.258 0 0 0 .057.152.262.262 0 0 0 .36.048l.001-.001.004.002 1.279-.907a3.115 3.115 0 0 0-1.792-.864l.089 1.568zm6.721 2.785l-1.239-5.384a.953.953 0 0 0-.519-.646L8.415 1.094a.967.967 0 0 0-.833 0L2.566 3.491a.954.954 0 0 0-.519.645L.81 9.52a.945.945 0 0 0 .13.729.918.918 0 0 0 .054.076l3.472 4.317a.962.962 0 0 0 .75.358l5.568-.001a.963.963 0 0 0 .75-.357l3.471-4.317a.946.946 0 0 0 .185-.805zm-1.906-.065a.322.322 0 0 1-.391.221h-.002-.002l-.003-.001-.002-.001-.029-.006-.049-.011a1.232 1.232 0 0 1-.179-.066l-.09-.038-.009-.003a2.76 2.76 0 0 0-.514-.151.206.206 0 0 0-.148.049l-.019.013-.001.001h-.001l-.126-.022a3.908 3.908 0 0 1-1.729 2.175l.015.04a.468.468 0 0 0 .033.078l.001.001v.001l-.008.021a.207.207 0 0 0-.015.155 2.845 2.845 0 0 0 .266.476l.056.08a1.2 1.2 0 0 1 .105.16l.028.057.011.024a.304.304 0 1 1-.547.259l-.011-.023-.026-.054a1.253 1.253 0 0 1-.061-.183l-.027-.092-.003-.008a2.772 2.772 0 0 0-.203-.496.209.209 0 0 0-.131-.085l-.021-.006h-.001l-.001-.001-.03-.054-.033-.06a3.943 3.943 0 0 1-.513.155 3.879 3.879 0 0 1-2.255-.162l-.068.122H6.55a.241.241 0 0 0-.128.062 1.141 1.141 0 0 0-.168.36l-.064.178-.027.094a1.237 1.237 0 0 1-.06.181l-.025.051-.012.025v.001l-.001.001a.339.339 0 0 1-.298.197.274.274 0 0 1-.12-.027.321.321 0 0 1-.129-.43l.014-.029.025-.052a1.265 1.265 0 0 1 .105-.161l.056-.079a2.91 2.91 0 0 0 .271-.488.294.294 0 0 0-.027-.168v-.001-.001l.054-.129a3.911 3.911 0 0 1-1.73-2.16l-.13.022-.001-.001-.013-.008a.298.298 0 0 0-.158-.053 2.772 2.772 0 0 0-.514.151l-.009.003-.089.037a1.247 1.247 0 0 1-.181.067l-.055.012-.023.005-.002.001-.003.001-.002.001h-.002a.304.304 0 1 1-.135-.59l.002-.001h.003.001.002L3 9.085l.057-.013a1.207 1.207 0 0 1 .19-.018l.098-.005h.007a2.777 2.777 0 0 0 .531-.089A.36.36 0 0 0 4 8.847l.012-.016V8.83h.001l.124-.036a3.888 3.888 0 0 1 .612-2.706l-.095-.085v-.001l-.002-.014a.299.299 0 0 0-.058-.158 2.809 2.809 0 0 0-.446-.313l-.086-.047a1.237 1.237 0 0 1-.163-.099l-.045-.036-.018-.014-.003-.001-.002-.002a.352.352 0 0 1-.131-.217.286.286 0 0 1 .056-.229A.292.292 0 0 1 4 4.764a.361.361 0 0 1 .211.08l.018.014.049.039a1.263 1.263 0 0 1 .134.138l.064.072.005.005a2.761 2.761 0 0 0 .399.36.208.208 0 0 0 .155.02l.021-.003h.001.001l.107.076a3.864 3.864 0 0 1 1.962-1.12 3.984 3.984 0 0 1 .541-.083l.007-.126h0a.324.324 0 0 0 .097-.154 2.789 2.789 0 0 0-.033-.54v-.004l-.016-.096a1.281 1.281 0 0 1-.025-.19V3.2v-.025-.004-.005a.304.304 0 1 1 .606 0v.03.055a1.267 1.267 0 0 1-.025.19l-.016.096-.002.016a2.724 2.724 0 0 0-.032.528.207.207 0 0 0 .081.133l.016.015.001.001v.001l.007.132a3.895 3.895 0 0 1 1.359.378 3.941 3.941 0 0 1 1.132.825l.113-.081h.001l.016.001a.296.296 0 0 0 .165-.021 2.744 2.744 0 0 0 .394-.355l.011-.011.064-.071a1.285 1.285 0 0 1 .135-.139l.048-.039.018-.014a.304.304 0 1 1 .377.474l-.022.018-.044.035a1.237 1.237 0 0 1-.163.098l-.087.047a2.844 2.844 0 0 0-.446.313.208.208 0 0 0-.054.146l-.002.022v.001h-.001l-.046.041-.059.053a3.899 3.899 0 0 1 .625 2.7l.12.035.001.001.009.013a.301.301 0 0 0 .12.117 2.798 2.798 0 0 0 .531.088h.006l.098.005a1.231 1.231 0 0 1 .19.018l.055.013.032.008a.322.322 0 0 1 .256.37z"/></svg>
