<svg width="24" height="24" viewBox="0 0 24 24" fill="none" xmlns="http://www.w3.org/2000/svg">
<g clip-path="url(#clip0_82_1971)">
<path d="M12.5042 0C12.3487 0.001 12.1885 0.00775 12.0235 0.02025C7.79722 0.3555 8.91847 4.8285 8.85547 6.32025C8.77747 7.41 8.55547 8.27325 7.80547 9.3405C6.91822 10.3913 5.67622 12.0907 5.08672 13.8593C4.80997 14.691 4.67647 15.5475 4.80172 16.3522C4.75415 16.3868 4.71535 16.432 4.68847 16.4842C4.43047 16.7542 4.23847 17.0865 4.02772 17.3243C3.82897 17.523 3.54397 17.5905 3.23047 17.7233C2.91847 17.859 2.57047 17.9925 2.36722 18.4065C2.27722 18.5947 2.22997 18.7972 2.23447 19.0087C2.23447 19.2037 2.26222 19.407 2.28922 19.5435C2.34847 19.9417 2.40622 20.2703 2.32822 20.5125C2.07847 21.1912 2.05147 21.6562 2.22322 21.9967C2.39797 22.3328 2.75797 22.4655 3.15997 22.599C3.97297 22.7978 5.07022 22.7347 5.93797 23.196C6.86272 23.6647 7.80472 23.868 8.55472 23.6693C8.81342 23.6112 9.05595 23.4963 9.26469 23.3329C9.47342 23.1694 9.64313 22.9615 9.76147 22.7243C10.3472 22.7205 10.9915 22.4543 12.0197 22.3883C12.7187 22.329 13.594 22.6575 14.5975 22.587C14.6245 22.7242 14.6597 22.7857 14.7145 22.923V22.9268C15.1045 23.7038 15.8275 24.0555 16.6015 23.997C17.3702 23.9347 18.1907 23.4622 18.8545 22.689C19.4875 21.927 20.5382 21.606 21.2335 21.189C21.5815 20.9888 21.8627 20.7202 21.8822 20.3333C21.9055 19.935 21.6835 19.521 21.1712 18.9585V18.8602L21.1675 18.8565C20.9957 18.6578 20.9177 18.3218 20.8277 17.9318C20.7415 17.529 20.6477 17.1465 20.3357 16.8848C20.2727 16.83 20.2105 16.818 20.1445 16.752C20.0888 16.7134 20.0238 16.6906 19.9562 16.686C20.386 15.408 20.218 14.139 19.78 12.9938C19.249 11.5838 18.3152 10.3538 17.608 9.51C16.8107 8.50575 16.03 7.55325 16.0457 6.14325C16.0727 3.99 16.2835 0.0105 12.5027 0.00225L12.5042 0ZM13.0315 3.40575H13.0472C13.258 3.40575 13.441 3.46875 13.6292 3.6015C13.8205 3.73725 13.9615 3.93375 14.0665 4.13625C14.1722 4.39425 14.2277 4.593 14.2345 4.8585C14.2345 4.83975 14.2382 4.8195 14.2382 4.80075V4.90575C14.2382 4.8975 14.2345 4.89075 14.2345 4.8825L14.2307 4.8585C14.2307 5.1015 14.1805 5.34375 14.083 5.56575C14.0373 5.69245 13.9637 5.80727 13.8677 5.90175C13.8412 5.88625 13.8125 5.872 13.7815 5.859C13.6765 5.81175 13.5827 5.79675 13.4965 5.727C13.4253 5.6992 13.3521 5.67689 13.2775 5.66025C13.3247 5.6025 13.4222 5.5275 13.4612 5.4615C13.5122 5.33625 13.5392 5.19975 13.5475 5.0595V5.03925C13.5491 4.9039 13.5278 4.76925 13.4845 4.641C13.4417 4.50825 13.3877 4.44075 13.3052 4.30875C13.219 4.242 13.1372 4.176 13.0352 4.176H13.0202C12.9265 4.176 12.844 4.203 12.7585 4.30875C12.6652 4.40169 12.5955 4.51562 12.5552 4.641C12.5012 4.76715 12.4707 4.90212 12.4652 5.03925V5.0595C12.4652 5.14875 12.4735 5.23875 12.484 5.32875C12.289 5.26275 12.0467 5.1915 11.875 5.1255C11.8653 5.05967 11.8601 4.99328 11.8592 4.92675V4.9065C11.8519 4.6424 11.9029 4.37994 12.0085 4.13775C12.0902 3.91875 12.2387 3.7305 12.4382 3.606C12.6092 3.47775 12.8162 3.40725 13.0315 3.40725V3.40575ZM10.0705 3.465H10.1057C10.2467 3.465 10.3757 3.51225 10.5047 3.59775C10.6525 3.72675 10.771 3.8865 10.849 4.062C10.939 4.26225 10.9892 4.46475 11.005 4.73025V4.734C11.0087 4.86675 11.0087 4.938 11.0012 5.00025V5.082L10.9195 5.10525C10.7672 5.16 10.6465 5.238 10.5242 5.3055C10.5357 5.215 10.537 5.12625 10.528 5.03925V5.0235C10.5167 4.8915 10.489 4.82475 10.4462 4.69125C10.4141 4.58863 10.3563 4.49594 10.2782 4.422C10.254 4.40021 10.2256 4.38343 10.1949 4.37261C10.1641 4.3618 10.1315 4.35718 10.099 4.359H10.075C10.0052 4.36275 9.94597 4.398 9.89197 4.49175C9.82667 4.56832 9.78476 4.66204 9.77122 4.76175C9.74347 4.86675 9.73522 4.98 9.74722 5.094V5.10525C9.75922 5.2425 9.78247 5.30925 9.82897 5.44125C9.85921 5.54296 9.91589 5.63484 9.99322 5.7075C10.0052 5.7195 10.0135 5.72775 10.0285 5.73075C9.95872 5.79 9.91147 5.802 9.85372 5.868C9.81397 5.89575 9.77197 5.931 9.72097 5.93925C9.61708 5.81404 9.52541 5.67918 9.44722 5.5365C9.35099 5.32645 9.29794 5.0992 9.29122 4.86825C9.27672 4.64262 9.30314 4.41623 9.36922 4.2C9.42847 4.005 9.52222 3.82125 9.65422 3.66525C9.78322 3.5325 9.91222 3.4665 10.072 3.4665L10.0705 3.465ZM11.4415 5.172C11.7737 5.172 12.1727 5.23425 12.6565 5.57025C12.9497 5.7705 13.1807 5.84025 13.7117 6.03525C13.9697 6.1725 14.1175 6.30525 14.1917 6.438V6.30525C14.2273 6.37769 14.2472 6.45688 14.2499 6.53756C14.2526 6.61824 14.2381 6.69858 14.2075 6.77325C14.0822 7.086 13.6915 7.41825 13.1417 7.617V7.62075C12.8755 7.7535 12.6415 7.953 12.3677 8.08575C12.091 8.2185 11.7775 8.379 11.356 8.352C11.2033 8.35855 11.0509 8.33589 10.9067 8.28525C10.7959 8.22578 10.6889 8.1594 10.5865 8.0865C10.3915 7.95375 10.2235 7.75425 9.97372 7.6215V7.61775H9.96997C9.56722 7.37175 9.35272 7.1055 9.28222 6.90675C9.21622 6.6375 9.27847 6.43875 9.47797 6.306C9.69997 6.17325 9.85597 6.036 9.95797 5.97C10.063 5.89575 10.1027 5.868 10.1342 5.841H10.138V5.83725C10.306 5.634 10.5707 5.3685 10.978 5.235C11.1137 5.19975 11.2712 5.17275 11.4422 5.17275L11.4415 5.172ZM14.2382 7.31175C14.5982 8.73 15.4382 10.7888 15.9775 11.7847C16.2625 12.3195 16.8325 13.4445 17.0785 14.8088C17.235 14.8053 17.4057 14.8273 17.5907 14.8748C18.2387 13.203 17.0477 11.406 16.5047 10.9058C16.282 10.707 16.2707 10.5735 16.3795 10.5735C16.9697 11.1045 17.7422 12.1448 18.0235 13.3275C18.1525 13.8623 18.1847 14.4338 18.0475 14.9993C18.1135 15.0263 18.1802 15.0615 18.2507 15.0653C19.282 15.6015 19.6645 16.0035 19.4807 16.6042V16.5615C19.423 16.5585 19.36 16.5615 19.3015 16.5615H19.2857C19.4387 16.0935 19.1027 15.7335 18.22 15.3353C17.3057 14.937 16.5752 14.9992 16.45 15.8002C16.4408 15.8454 16.4357 15.8914 16.435 15.9375C16.3637 15.9607 16.294 15.9878 16.2242 15.9998C15.7945 16.2698 15.5635 16.6717 15.4315 17.1877C15.3025 17.7225 15.2635 18.3435 15.2282 19.059C15.2042 19.395 15.0565 19.8982 14.9072 20.4097C13.4072 21.4837 11.3252 21.9487 9.56047 20.7458C9.44747 20.5497 9.31322 20.3715 9.15772 20.211C9.08291 20.0868 8.98958 19.9748 8.88097 19.8787C9.06397 19.8787 9.22072 19.848 9.34597 19.812C9.48889 19.7429 9.60131 19.6235 9.66172 19.4767C9.76747 19.2105 9.66172 18.7808 9.31372 18.312C8.97097 17.8477 8.38447 17.3197 7.52872 16.7933C6.89647 16.395 6.54097 15.9225 6.37672 15.3983C6.21247 14.8635 6.23572 14.3123 6.36097 13.7543C6.60697 12.684 7.23622 11.6415 7.63897 10.9882C7.74397 10.926 7.67422 11.1255 7.22872 11.9655C6.83347 12.7155 6.08797 14.4615 7.10647 15.8168C7.14511 14.8269 7.365 13.8525 7.75522 12.942C8.31697 11.6648 9.49747 9.43875 9.59122 7.67325C9.63847 7.71225 9.80647 7.8105 9.87997 7.8765C10.0952 8.00925 10.2587 8.20875 10.4702 8.3415C10.681 8.54025 10.9465 8.6775 11.3455 8.6775C11.384 8.6805 11.4202 8.68175 11.4542 8.68125C11.8645 8.68125 12.1855 8.5485 12.4502 8.415C12.739 8.27775 12.9745 8.079 13.192 8.013H13.1957C13.6607 7.88025 14.032 7.61025 14.239 7.31325L14.2382 7.31175ZM16.426 16.2698C16.465 16.8705 16.7702 17.5155 17.3087 17.6475C17.8945 17.7803 18.742 17.3153 19.0975 16.8825L19.3082 16.8743C19.624 16.866 19.8865 16.8825 20.155 17.1405L20.1587 17.1442C20.3657 17.343 20.464 17.6752 20.5495 18.0195C20.6357 18.4215 20.7017 18.8003 20.9597 19.0853C21.4435 19.6125 21.604 19.9913 21.5965 20.226C21.5807 20.487 21.4082 20.6198 21.0962 20.8193C20.467 21.222 19.3502 21.5303 18.6392 22.3905C18.0212 23.1285 17.2682 23.5305 16.603 23.5815C15.9392 23.6362 15.3647 23.3828 15.0287 22.6838L15.025 22.68C14.8142 22.281 14.9042 21.6562 15.0797 20.9918C15.256 20.3235 15.5095 19.6448 15.5447 19.0935C15.58 18.3787 15.619 17.7577 15.736 17.2762C15.8567 16.8113 16.045 16.479 16.381 16.296L16.4237 16.272L16.426 16.2698ZM5.60947 16.32H5.62147C5.67597 16.319 5.72797 16.3242 5.77747 16.3358C6.15247 16.3905 6.48472 16.668 6.80122 17.0858L7.71097 18.75L7.71472 18.7537C7.95697 19.2847 8.46847 19.8158 8.90197 20.391C9.33622 20.988 9.67222 21.5228 9.63322 21.9608V21.969C9.57397 22.7108 9.15247 23.1128 8.50822 23.262C7.86322 23.3948 6.98797 23.262 6.11347 22.797C5.14522 22.2622 3.99247 22.3283 3.25447 22.1947C2.88772 22.1287 2.64547 21.9915 2.53147 21.7927C2.42272 21.594 2.41822 21.1905 2.65672 20.562V20.559C2.77372 20.223 2.68897 19.8053 2.62972 19.4377C2.57497 19.0387 2.54797 18.7297 2.67247 18.4995C2.83222 18.1635 3.07072 18.1012 3.36322 17.9647C3.65647 17.832 4.00447 17.766 4.27747 17.496H4.28122V17.4923C4.53547 17.2275 4.72747 16.8953 4.94947 16.656C5.13772 16.4527 5.32822 16.32 5.60947 16.32ZM12.7705 7.24575C12.3362 7.4445 11.8247 7.7805 11.2817 7.7805C10.7387 7.7805 10.3127 7.51575 10.0045 7.3155C9.84847 7.17975 9.72322 7.04625 9.62947 6.9795C9.46522 6.8475 9.48472 6.64425 9.55522 6.64425C9.66397 6.65925 9.68422 6.78 9.75397 6.8475C9.85222 6.9135 9.96922 7.04625 10.1132 7.17975C10.4065 7.3785 10.7972 7.64775 11.281 7.64775C11.7662 7.64775 12.3362 7.3785 12.6797 7.17975C12.8747 7.047 13.1245 6.8475 13.3277 6.71475C13.4837 6.5775 13.477 6.44475 13.6045 6.44475C13.7335 6.4605 13.6405 6.5775 13.4605 6.777C13.2767 6.91425 12.9955 7.113 12.7697 7.24575H12.7705ZM11.6882 5.66025V5.6415C11.6845 5.62125 11.6995 5.59875 11.719 5.5905C11.7887 5.54775 11.8982 5.56275 11.977 5.59425C12.0392 5.59425 12.1367 5.66025 12.1292 5.73C12.121 5.77725 12.043 5.79675 11.992 5.79675C11.938 5.79675 11.8982 5.754 11.8517 5.727C11.8007 5.71125 11.7032 5.71875 11.6882 5.66025ZM11.137 5.66025C11.1167 5.7195 11.023 5.71125 10.9727 5.727C10.9255 5.754 10.8865 5.79675 10.8317 5.79675C10.7807 5.79675 10.699 5.7765 10.6945 5.727C10.6877 5.66025 10.7807 5.59425 10.8437 5.59425C10.9255 5.562 11.0267 5.547 11.1047 5.5905C11.1205 5.59875 11.1407 5.62125 11.1325 5.6415V5.66025H11.137Z" fill="#4E5BA6"/>
</g>
<defs>
<clipPath id="clip0_82_1971">
<rect width="24" height="24" fill="white"/>
</clipPath>
</defs>
</svg>
