<svg xmlns="http://www.w3.org/2000/svg" width="86" height="88" fill="none"><path d="M85.67 74.728H.007v5.33H85.67v-5.33z" fill="#4e352e"/><path d="M21.856 86.971c-6.391 0-6.421-18.882 0-18.882s6.421 18.882 0 18.882zm45.19-17.055c-.2-.278-.46-.507-.761-.67.517 2.162 1.035 7.34-1.035 7.34-.061-1.645-.031-6.426-1.491-7.797-.913.274-2.587 1.096-3.499 3.441-.288.934-.491 1.892-.609 2.863v.091c-.639 5.36.913 11.817 4.656 11.817 3.895 0 5.417-7.035 4.565-12.487a1 1 0 0 1-.669.244c.061-1.553-.396-3.746-1.156-4.842zm12.325-1.827c-6.421 0-6.391 18.882 0 18.882s6.39-18.882 0-18.882zm-68.652 0c-6.421 0-6.391 18.882 0 18.882s6.421-18.882 0-18.882z" fill="#e45325"/><path d="M13.062 82.768a3.04 3.04 0 0 0 1.948-.7c-.7 2.802-2.13 4.903-4.26 4.903-5.66 0-6.33-14.801-1.948-18.182-1.43 5.604-.03 13.979 4.26 13.979zm68.622 0c-4.26 0-5.691-8.406-4.26-13.979-4.382 3.38-3.713 18.182 1.948 18.182 2.13 0 3.56-2.101 4.26-4.903a3.04 3.04 0 0 1-1.948.7zM60.255 72.179c-1.796 5.543-.457 14.801 4.017 14.801 2.13 0 3.56-2.101 4.26-4.903a3.24 3.24 0 0 1-1.948.701c-4.078 0-5.538-7.614-4.443-13.157a6.09 6.09 0 0 0-1.887 2.558zm-40.351-3.381c-4.382 3.381-3.713 18.182 1.948 18.182 2.13 0 3.56-2.101 4.26-4.903a3.24 3.24 0 0 1-1.948.701c-4.254-.009-5.684-8.384-4.254-13.988l-.006.009z" fill="#be3a26"/><path d="M37.127 73.358c-.335-.091-4.382-10.02-4.382-10.02s2.83-2.01 2.982-2.619c-.822-.822-1.613-2.467-1.613-2.467a12.33 12.33 0 0 0 .457 2.01s-1.217-.548-1.613-1.523l-2.648 3.777s4.473 10.294 4.443 10.842c-1.674-.365-3.226 1.401-3.226 1.401 3.256.335 2.191 5.939 0 5.33 1.552 3.563 3.408 1.462 3.56-4.599.7.487 3.165 3.959.304 4.599 2.648 4.842 5.538-1.34 1.613-4.873 2.039.152 5.204 2.619 2.769 4.873.882 2.315 2.617 1.096 2.891-.639.402-3.228-2.611-5.36-5.538-6.091zm29.311-5.787c-.822-1.188-2.039-1.188-3.317-.426-2.8.091-4.534-.274-13.177.853 0 0-.061-.67-.122-1.614-.73.091-1.461.122-2.221.152l.791 4.02c2.313-.091 9.282-1.736 12.629-1.736-1.217 1.31-3.074 4.842-1.339 6.365.274-4.629 2.891-6.024 4.078-6.395 1.169 1.413 1.43 6.182 1.491 7.796 2.069 0 1.613-5.147 1.096-7.309.264.178.499.393.7.64.761 1.066 1.029 3.307 1.156 4.842 2.374 0 .876-7.126-1.765-7.187z" fill="#2d1e1c"/><path d="M61.873 58.221c-7.182 3.655-16.341 3.746-11.655-5.299a15.93 15.93 0 0 0-1.035 1.218c.852-3.015 3.439-5.726 5.843-7.583-1.182.6-2.321 1.282-3.408 2.04 3.926-5.512 7.79-3.807 9.616-11.695-1.43 5.117-7.212 8.528-12.355 9.898-4.899 2.802-18.38-.396-22.732-1.766 3.043-.244 4.169-.426 4.169-.426-3.165-.975-6.664-2.802-10.134-4.051.152 2.497.73 5.086 1.704 7.096-.517-2.802 0-4.203 0-4.203s1.004 5.939 3.347 9.38c-.913-3.685-.517-4.934-.517-4.934s1.887 7.096 4.656 9.532c-.366-1.307-.469-2.673-.304-4.02 0 0 .517 1.401 3.773 4.02-.822-1.98 1.126-1.279 2.648.822s2.435 2.284 6.604 1.462c-3.043 1.736 1.826 2.954 4.96 2.558-2.252 1.431 4.869 1.066 8.916.091-2.13 1.645 5.264.944 6.482.122.365-.244 1.187-.244 2.1-.061a30.39 30.39 0 0 0 1.035-.731c-2.288 1.157 1.668-6.243-3.713-3.472z" fill="#f2f2f2"/><path d="M54.448 65.287c-5.691 2.193-14.333 1.279-21.545-1.614-.048-.109-.089-.221-.122-.335 0 0 2.83-2.01 2.982-2.619-.822-.822-1.613-2.467-1.613-2.467a12.33 12.33 0 0 0 .456 2.01s-1.217-.548-1.613-1.523l-2.648 3.776c0 .008.003.016.009.022s.013.009.021.009c-2.83-1.401-5.325-3.106-7.182-5.025.426 1.157.791 2.284.974 2.832-1.217-1.523-6.117-6.578-7.973-13.735a31.37 31.37 0 0 0 .183 3.38c-1.139-2.79-1.847-5.737-2.1-8.741a21.6 21.6 0 0 0-.213 2.741c-.761-2.162-1.096-5.025-1.156-7.157v-2.01a10.36 10.36 0 0 0-.548 1.401c-.03.122-.061.213-.091.335v.03c-.035.119-.056.242-.061.366-.315-2.318-.264-4.672.152-6.974 6.451 3.533 13.694 7.979 18.167 11.147.791.548-7.029-2.101-6.238-1.553 6.634 4.477 13.572 8.132 20.267 7.918 1.483-.06 2.954-.296 4.382-.7-4.899 2.802-18.38-.396-22.732-1.766 3.043-.244 4.169-.426 4.169-.426-3.165-.975-6.664-2.802-10.133-4.05.152 2.497.73 5.086 1.704 7.096-.517-2.802 0-4.203 0-4.203s1.004 5.939 3.347 9.38c-.913-3.685-.517-4.934-.517-4.934s1.887 7.096 4.656 9.532c-.366-1.307-.469-2.673-.304-4.02 0 0 .517 1.401 3.773 4.02-.822-1.98 1.126-1.279 2.648.822s2.435 2.284 6.604 1.462c-3.043 1.736 1.826 2.954 4.96 2.558-2.252 1.431 4.869 1.066 8.916.091-2.13 1.644 5.264.944 6.482.122.365-.244 1.187-.244 2.1-.061-3.013 2.01-6.817 3.502-11.716 4.203-.061-.031 1.004-.518 1.552-1.34zm-14.972-11.36c1.522.64 3.5-.213 5.112-2.376-1.071.914-3.201 2.132-5.112 2.376zm0 4.873c1.126.365 2.617-.122 3.804-1.37-1.159.718-2.454 1.184-3.804 1.37zM27.334 46.901c-.365 1.675.365 3.776 2.039 5.421a15.54 15.54 0 0 1-2.039-5.421z" fill="#b3b3b3"/><path d="M1.194 24.669C2.746 27.928 7.31 31.4 11.936 34.08a19.27 19.27 0 0 1 .365-4.081c-4.534-2.506-8.648-4.547-11.107-5.33zM12.392 2.153C8.406-1.075 6.123 1.362 7.371 4.62 6.154 4.042-.237-2.963.007 1.453.159 3.981 6.032 11.594 11.936 19.117c3.211-1.457 6.527-2.669 9.921-3.624-3.682-5.969-7.577-11.817-9.464-13.339z" fill="#2d1e1c"/><path d="M83.783 45.643c3.56-11.208-.487-29.876-35.513-28.841-16.889-7.918-35.239 1.096-47.077 7.857 5.904 1.919 21.667 11.086 29.275 16.446.791.548-7.03-2.101-6.238-1.553 6.634 4.477 13.572 8.132 20.267 7.918 5.964-.183 16.007-4.385 16.98-11.878 3.013.579 4.139 6.487 3.834 6.944.396-.426.852-4.934 2.982-6.03 0 0-.882 2.528-.639 3.198 1.126-3.563 9.829-4.112 8.429 4.69.396-.396 1.126-3.015 1.126-3.015-1.035 6.517 1.491 9.136 3.956 9.563 1.156-.213 3.408-4.355 3.682-6.944a7.69 7.69 0 0 1-1.065 1.645z" fill="#4e352e"/><path d="M13.944 20.1c3.195-1.98 14.364-6.852 25.927-4.568C28.49 14.923 13.944 20.1 13.944 20.1zm34.326-3.289a24.33 24.33 0 0 0-2.648-1.096 45.3 45.3 0 0 1 9.555 8.406c-.974-1.706-2.13-4.751-4.199-7.34-.883-.009-1.795-.009-2.708.021v.009z" fill="#2d1e1c"/><path d="M51.222 42.993c-13.024 1.766-18.685-1.98-18.167-2.528 5.843 3.106 16.433 2.406 18.167 2.528zm-21.606-8.832c-.517.518 5.143 4.294 18.167 2.528-1.735-.122-12.294.579-18.167-2.528zm28.301 2.802c.609.244 3.439-2.711-.274-9.167.122.883 2.404 6.121.274 9.167zm23.341-5.147c-6.025-9.35-15.672-10.172-17.833-9.563 11.74 1.584 16.494 8.811 17.826 9.563h.006z" fill="#6d4d42"/><path d="M80.284 52.587c.578-.64 2.008-1.188 2.587-1.462-.335-.03-1.309.244-2.252.548l.548-.731c-2.495-.426-4.991-3.046-3.956-9.563 0 0-.761 2.619-1.126 3.015 1.4-8.832-7.303-8.253-8.429-4.69-.243-.67.639-3.198.639-3.198-2.13 1.096-2.587 5.604-2.982 6.03.304-.457-.852-6.365-3.834-6.944-.062.432-.154.86-.274 1.279-1.826 7.888-5.691 6.182-9.616 11.695a28.47 28.47 0 0 1 3.408-2.041c-2.434 1.858-4.991 4.568-5.843 7.583.324-.423.67-.83 1.035-1.218-4.656 9.045 4.473 8.954 11.655 5.299 5.417-2.771 1.4 4.69 3.713 3.441 3.317-1.766 4.808-4.599 5.691-6.182l-1.065 2.254c2.13-1.614 2.921-4.416 4.626-4.751-.517-1.218-.761-2.162-.396-2.406.548-.335 2.282 1.34 3.013 1.736.183-.122.152-.518.152-.518.362.535.827.99 1.369 1.34.152-.365.365-.152.396-.152a3.31 3.31 0 0 1 1.795.579c-.235-.356-.522-.674-.852-.944z" fill="#e45325"/><path d="M74.837 39.857c-2.252-2.132-4.899-1.279-6.056.183.907-2.711 4.839-3.076 6.056-.183zm-5.021 15.349c-.365 1.035-3.073 4.264-4.899 4.446.816.457 4.747-1.706 4.899-4.446zm-11.442-5.817c-.73.731-2.343 1.919-3.865 2.101.456.283 2.556-.244 3.865-2.101zm-5.995 5.604c-.396.518-1.309 1.279-2.374 1.188.365.335 1.765.244 2.374-1.188zm7.364-1.066c-.396.518-1.309 1.279-2.374 1.188.365.335 1.765.244 2.374-1.188zm7.851-.396c-.396.518-1.309 1.279-2.374 1.188.365.335 1.765.244 2.374-1.188zm-7.09 2.497c-.517 1.066-5.234 3.99-7.334 3.259.852.974 6.847 0 7.334-3.25v-.009z" fill="#be3a26"/><path d="M74.593 44.943c-1.704 1.035-3.743 1.127-5.234-.091.304.974 3.287 2.193 5.234.091z" fill="#ed6d23"/><path d="M13.488 19.491C7.097 12.091.95 2.284.95.853c0-.009 4.93 7.909 12.538 18.638zm3.195-4.842c-.061-.914-4.23-7.005-8.399-11.542 5.082 6.639 8.399 11.533 8.399 11.533v.009z" fill="#4e352e"/><path d="M78.975 53.135a4.11 4.11 0 0 1-1.369-1.34s.03.396-.152.518c-.73-.396-2.465-2.071-3.013-1.736-.365.244-.122 1.188.396 2.406l2.708 5.756c.274.64 1.978 2.863 1.826-5.756-.03-.03-.25-.244-.396.152zm-7.151-7.644a3.35 3.35 0 1 0 0-6.7 3.35 3.35 0 1 0 0 6.7z" fill="#000"/><path d="M72.889 40.201c.061.426-.426.853-1.065.944s-1.248-.183-1.308-.579.426-.853 1.065-.944 1.217.143 1.308.579zm.943 3.715a2.38 2.38 0 0 1-1.491.822c-.061-.061-.152-.061-.274-.061-.079.005-.155.037-.213.091-.648.014-1.288-.144-1.856-.457a2.38 2.38 0 0 0 1.826.701c.087.066.195.099.304.091.122-.03.213-.061.243-.152.791-.183 1.43-.588 1.461-1.045v.009z" fill="#fff"/></svg>
