<svg xmlns="http://www.w3.org/2000/svg" xmlns:xlink="http://www.w3.org/1999/xlink" width="625" height="603" fill="none"><path opacity=".2" d="M17.037 254.425s50.282-95.835 72.28-114.687c129.412-110.901 179.804-37.706 216.84-125.685 25.14-59.7 353.542 83.266 315.831 194.811-86.893 257.025 92.707 424.185-130.418 389.621-309.955-48.027-427.394 0-449.392-47.131-59.819-128.182 81.708-186.956-6.285-208.95-67.692-17.015-18.856-87.979-18.856-87.979z" fill="#b6b6d1"/><g fill="#2d1d1c"><use xlink:href="#B"/><use xlink:href="#C"/></g><use xlink:href="#D" fill="#afbdc4"/><use xlink:href="#E" fill="#eeeae8"/><use xlink:href="#F" fill="#2d1d1c"/><use xlink:href="#G" fill="#4e342e"/><use xlink:href="#H" fill="#2d1d1c"/><use xlink:href="#I" fill="#63463d"/><use xlink:href="#J" fill="#e45325"/><use xlink:href="#K" fill="#f27021"/><use xlink:href="#L" fill="#bd3926"/><use xlink:href="#M" fill="#231f20"/><use xlink:href="#N" fill="#fff"/><use xlink:href="#O" fill="#231f20"/><use xlink:href="#P" fill="#fff"/><g fill="#35215e"><path d="M289.522 470.123a15.63 15.63 0 0 1-8.508-2.545c-2.291 1.611-5.032 2.459-7.833 2.421-4.592 0-11.072-2.261-15.753-13.066a10.67 10.67 0 0 1-.882-4.308c.008-1.482.325-2.945.929-4.298s1.484-2.565 2.582-3.559a10.69 10.69 0 0 1 3.797-2.218 10.68 10.68 0 0 1-7.033-12.562c.4-1.718 1.221-3.31 2.387-4.634 1.737-1.932 3.718-3.631 5.892-5.055-.908-1.887-1.78-3.809-2.777-5.589-.88-1.733-1.271-3.674-1.13-5.612a10.68 10.68 0 0 1 1.931-5.389l10.093-14.241a10.69 10.69 0 0 1 3.066-2.896c1.204-.752 2.546-1.256 3.947-1.483.912-.65 1.921-1.148 2.991-1.477 1.025-.325 2.094-.487 3.169-.481a10.68 10.68 0 0 1 9.612 6.017c1.11 2.321 2.484 4.507 4.094 6.515a10.68 10.68 0 0 1 2.734 4.724c.487 1.785.502 3.665.043 5.458a12.56 12.56 0 0 1-1.78 3.951c-1.903 2.496-4.116 4.739-6.586 6.676l.872 1.78c16.804 5.696 26.808 19.064 24.69 33.643-1.389 9.542-8.367 16.466-16.591 16.466-1.762-.023-3.505-.367-5.144-1.015a14.68 14.68 0 0 1-8.812 2.777zm144.293-19.901a10.68 10.68 0 0 1-10.68-10.289l-.125-4.183c-.277 1.818-1.02 3.533-2.155 4.98a10.68 10.68 0 0 1-4.324 3.279c-1.295.527-2.679.799-4.077.801a10.68 10.68 0 0 1-7.12-2.705 18.75 18.75 0 0 1-4.517-6.146 18.73 18.73 0 0 1-1.695-7.436c-.054-1.159-.018-2.319.106-3.472a146.86 146.86 0 0 1-16.412 1.674h-.409a10.67 10.67 0 0 1-4.675-1.088c-1.456-.712-2.731-1.746-3.727-3.024l-13.6-17.409c-.876-1.121-1.519-2.405-1.892-3.778s-.468-2.805-.28-4.215.663-2.76 1.384-3.983a10.67 10.67 0 0 1 2.817-3.137 18.77 18.77 0 0 0 2.297-1.905 10.68 10.68 0 0 1 3.833-3.563c1.554-.852 3.295-1.303 5.067-1.314a10.13 10.13 0 0 1 2.189.231c1.453.299 2.825.906 4.023 1.78 1.634.043 3.237.459 4.684 1.219s2.701 1.84 3.665 3.16a76.61 76.61 0 0 0 3.72 4.717 143.11 143.11 0 0 1 24.726-1.424h6.248c2.79-1.292 5.825-1.971 8.9-1.993a17.79 17.79 0 0 1 12.104 4.646c10.877 4.058 16.609 19.046 16.448 29.709-.178 11.535-6.871 17.107-13.884 17.801-.303.48-.641.961-.997 1.424a14.65 14.65 0 0 1-5.164 4.176c-2.019.978-4.235 1.48-6.478 1.467z"/><path d="M331.105 416.721c-1.924.002-3.815-.501-5.483-1.46-4.877.428-9.594.641-14.151.641a132.42 132.42 0 0 1-20.97-1.602 10.67 10.67 0 0 1-5.642-2.795c-.4-.124-.793-.273-1.175-.445-.249-.124-.677-.32-1.228-.623a10.66 10.66 0 0 1-4.023.801 10.84 10.84 0 0 1-3.169-.48 105.97 105.97 0 0 1-43.007-26.025 10.91 10.91 0 0 1-6.728-3.738c-2.346-2.879-3.996-6.259-4.824-9.879a10.71 10.71 0 0 1-2.635-2.777 50.38 50.38 0 0 1-4.824-10.2c-.372-.321-.722-.666-1.05-1.033a23.8 23.8 0 0 1-3.72-5.998 10.52 10.52 0 0 1-3.863-5.18c-1.852-5.787-3.081-11.754-3.667-17.801-.24-2.404.342-4.819 1.652-6.849a10.68 10.68 0 0 1 5.557-4.33c13.685-4.354 27.634-7.832 41.761-10.414 8.117-1.619 18.762-3.755 23.532-5.82-.901-1.31-1.894-2.553-2.972-3.721-1.139-1.265-1.959-2.783-2.392-4.43a10.68 10.68 0 0 1 2.122-9.552 10.69 10.69 0 0 1 4.043-3c2.599-1.103 6.177-2.403 10.325-3.916a285.11 285.11 0 0 0 30.047-12.353c11.802-5.982 14.49-9.844 15.042-10.895-.957-2.501-.94-5.271.05-7.761a10.68 10.68 0 0 1 5.29-5.678 10.8 10.8 0 0 1 4.646-1.068c1.922.001 3.808.521 5.459 1.505s3.006 2.395 3.922 4.084c1.788 3.235 2.863 6.815 3.151 10.499a25.88 25.88 0 0 1-1.477 10.862c-5.821 16.626-27.787 30.386-45.837 39.162 2.456 4.664 3.453 9.505 1.602 14.454-3.756 10.057-15.006 11.446-29.265 13.208-10.876 1.353-24.921 3.097-39.482 8.438l.303 1.139c2.09 1.062 3.773 2.782 4.788 4.895l3.08 6.64c1.279 3.056 2.772 6.018 4.468 8.865.588-.1 1.183-.148 1.78-.143 3.56 0 7.316 1.228 17.801 8.011 1.029-1.484 2.406-2.693 4.01-3.521s3.387-1.252 5.193-1.232c2.812 0 5.714 0 25.49 11.57 2.614 1.364 5.508 2.101 8.456 2.154 3.934-11.695 25.027-16.804 32.148-16.804 1.896-.014 3.786.214 5.625.677 1.965.52 3.741 1.59 5.119 3.085s2.301 3.351 2.66 5.352a10.98 10.98 0 0 1 .16 1.513c13.475-3.809 30.493-9.559 42.953-14.24 1.902-.704 3.965-.852 5.948-.426s3.803 1.407 5.249 2.829c6.052-1.78 13.546-4.415 20.043-6.854 1.747-.642 3.631-.818 5.466-.508a10.68 10.68 0 0 1 8.203 6.727 10.68 10.68 0 0 1 .572 5.459c-.481 3.079-1.477 5.126-8.9 11.784a77.54 77.54 0 0 1-13.707 10.057 10.67 10.67 0 0 1-5.127 1.318 8.61 8.61 0 0 1-1.352-.089c-13.013 7.707-32.309 16.145-41.921 20.203-1.315.545-2.724.83-4.148.837h-.925a14.29 14.29 0 0 1-2.386 1.086 10.67 10.67 0 0 1-3.222.498c-1.508-.001-2.999-.316-4.379-.925a90.16 90.16 0 0 1-29.958 6.194l-.107.018z"/><path d="M288.686 400.344c-6.462 0-17.267-5.002-24.049-8.687a10.68 10.68 0 0 1-5.912 1.99c-2.124.06-4.218-.515-6.014-1.651-12.123-7.672-17.41-13.155-21.468-20.115a10.96 10.96 0 0 1-3.133-2.154c-3.56-3.56-6.64-9.239-9.203-17.196-1.908-1.092-3.427-2.754-4.343-4.752-1.14-2.457-2.19-4.967-3.24-7.69a10.68 10.68 0 0 1 5.091-13.369c21.824-11.143 43.683-13.849 58.155-15.647l8.099-1.068c-.605-.747-1.335-1.566-2.172-2.509-1.138-1.267-1.957-2.787-2.389-4.434a10.69 10.69 0 0 1 2.133-9.553 10.67 10.67 0 0 1 4.048-2.995c24.529-10.378 43.113-23.302 46.282-32.202a4.52 4.52 0 0 0-.267-4.148c-.16-.302-.32-.605-.445-.907s-1.549-3.418-12.14-8.313a10.68 10.68 0 0 1-4.875-4.548c-1.098-1.997-1.528-4.294-1.228-6.553a10.68 10.68 0 0 1 8.791-9.121c5.262-.836 10.585-1.235 15.914-1.193a140.79 140.79 0 0 1 45.285 7.566c1.756.617 3.321 1.682 4.539 3.09s2.046 3.111 2.403 4.938c1.458 1.508 2.44 3.413 2.822 5.475s.149 4.193-.671 6.123a10.68 10.68 0 0 1-9.841 6.505h-.694-.748c-.623 7.761-6.461 13.796-10.929 17.801-4.597 3.946-8.904 8.217-12.888 12.781a10.44 10.44 0 0 1 1.335 2.083 10.68 10.68 0 0 1 .933 6.395c-.357 2.177-1.38 4.19-2.927 5.763-3.658 3.463-6.81 7.424-9.363 11.766 1.961.577 3.754 1.615 5.232 3.027a12.79 12.79 0 0 1 3.259 5.09 13.65 13.65 0 0 1 .463 1.78 11.02 11.02 0 0 1 8.509 6.64c.875 2.173 1.057 4.564.522 6.846a11.38 11.38 0 0 1-3.513 5.899c-.317.59-.513 1.236-.578 1.903s.006 1.338.204 1.978c.499 1.139 2.902 1.566 3.916 1.691.392.021.784.021 1.175 0 10.111 0 30.938-9.72 43.381-15.505a166.75 166.75 0 0 1 15.718-6.8c1.755-.596 3.593-.914 5.447-.943a11.8 11.8 0 0 1 6.029 1.519c1.837 1.037 3.364 2.547 4.42 4.373.937 1.675 1.475 3.545 1.57 5.462s-.253 3.832-1.018 5.592a10.88 10.88 0 0 1 4.859-1.139c2.012 0 8.313.676 10.681 8.598a10.68 10.68 0 0 1-.392 13.03c-5.625 6.853-17.801 15.54-19.065 16.501-1.696 1.208-3.708 1.894-5.79 1.973s-4.139-.452-5.922-1.528c-8.563 2.795-17.801 5.34-22.554 5.34-2.287.043-4.547-.496-6.568-1.566-17.232 5.981-44.502 14.757-56.34 14.757a19.78 19.78 0 0 1-5.838-.801c-5.987 2.01-12.27 2.991-18.584 2.901-5.984.105-11.925-1.035-17.445-3.346a11.95 11.95 0 0 1-4.007 2.501c-1.488.56-3.073.817-4.662.756z"/><path d="M174.797 407.856a13.08 13.08 0 0 1-12.194-7.281c-3.4-7.12-.676-15.29 11.286-31.4-.006-.077-.006-.154 0-.231a13.82 13.82 0 0 1 .747-9.239c-7.422-.445-11.908-3.471-13.386-8.9-.55-2.018-.496-4.153.156-6.14a10.68 10.68 0 0 1 3.511-5.039c12.996-10.021 27.648-17.685 43.292-22.643a10.68 10.68 0 0 1 4.734-.48c1.594.199 3.123.754 4.472 1.624s2.486 2.035 3.324 3.406 1.355 2.912 1.514 4.511c0 .48 0 .943.143 1.406a10.67 10.67 0 0 1 2.889 3.483c.703 1.354 1.108 2.843 1.187 4.367 2.172 1.531 3.695 3.815 4.272 6.408.25 1.122.588 2.439.979 3.828 1.776.634 3.353 1.728 4.569 3.169s2.029 3.179 2.356 5.037c0 0 .801 4.414 1.958 8.491.636 2.216.538 4.579-.28 6.736s-2.313 3.989-4.259 5.226c-.534.338-1.78 1.228-3.56 2.474-32.718 22.803-48.347 31.187-57.71 31.187z"/><path d="M171.504 358.672c-2.342.001-4.619-.769-6.48-2.189a12.87 12.87 0 0 1-4.984-9.452c-.801-10.396 10.68-26.417 16.163-33.092a33.36 33.36 0 0 1 7.672-14.703 21.14 21.14 0 0 1 .338-5.785c3.436-17.89 28.481-35.46 38.183-41.725 7.458-20.311 27.271-29.069 39.411-34.427h.178c40.479-66.771 90.677-76.846 117.235-76.846 29.621 0 58.422 12.087 77.772 31.792h1.121a10.69 10.69 0 0 1 9.15 5.18 104.16 104.16 0 0 1 10.36 25.598c1.012.553 1.931 1.262 2.723 2.1 1.005 1.084 1.779 2.361 2.275 3.753s.703 2.872.609 4.347c-.641 10.021-2.545 17.355-5.661 21.788a10.68 10.68 0 0 1-3.815 3.337c-1.521.79-3.211 1.202-4.925 1.202h-.142c-21.877-.285-33.377-8.384-40.942-15.22-1.458-.009-2.899-.318-4.234-.905a10.68 10.68 0 0 1-3.527-2.513 16.03 16.03 0 0 0-10.769-4.824c-1.456 1.402-3.265 2.38-5.234 2.831a14.7 14.7 0 0 0-9.007 6.586c.527 1.618.667 3.338.409 5.02A17.66 17.66 0 0 0 398 240.796a10.68 10.68 0 0 1 1.62 5.381 10.69 10.69 0 0 1-1.336 5.459c-.925 1.667-2.279 3.057-3.922 4.024a10.67 10.67 0 0 1-5.422 1.477c-1.271.003-2.532-.226-3.721-.676a37.77 37.77 0 0 1-8.473-4.735 11.15 11.15 0 0 1-2.243-.534 113.77 113.77 0 0 0-24.654-5.554 19.99 19.99 0 0 1 1.3 8.028c-.801 18.993-26.897 30.581-56.553 41.493 1.598 3.975 1.749 8.386.427 12.461-4.13 12.46-19.581 15.576-40.942 19.848-22.34 4.485-52.957 10.68-75.973 28.873-1.877 1.497-4.204 2.318-6.604 2.331z"/><path d="M200.893 323.836c-2.388-.002-4.706-.805-6.584-2.28s-3.207-3.536-3.777-5.855a10.41 10.41 0 0 1-.16-4.307 6.75 6.75 0 0 1-.925-.659c-1.593-1.262-2.792-2.953-3.457-4.873s-.769-3.991-.299-5.968c4.859-20.31 32.789-24.493 71.719-28.178h1.015c2.522.002 4.962.897 6.887 2.526a10.68 10.68 0 0 1 3.633 6.374 6.92 6.92 0 0 1 .107.872 74.27 74.27 0 0 1 7.298-2.029c.681-.128 1.372-.193 2.065-.196 1.496.006 2.974.326 4.339.939s2.585 1.506 3.582 2.621c1.335 1.478 2.51 2.902 3.56 4.362a10.68 10.68 0 0 1 1.989 4.757 10.69 10.69 0 0 1-.472 5.135c-.574 1.647-1.543 3.128-2.822 4.315s-2.83 2.041-4.516 2.49l-10.342 2.794c-15.077 4.112-30.671 8.385-70.615 17.018a10.77 10.77 0 0 1-2.225.142zm30.51-54.434c-1.932 0-3.828-.523-5.486-1.515a10.68 10.68 0 0 1-3.93-4.117c-.913-1.702-1.347-3.62-1.257-5.55a10.69 10.69 0 0 1 1.773-5.409c7.013-10.573 14.418-11.054 30.617-12.14l21.361-1.673h1.014a10.68 10.68 0 0 1 10.625 9.399c.314 2.595-.335 5.216-1.824 7.364a10.68 10.68 0 0 1-6.255 4.295 227.95 227.95 0 0 1-25.277 4.557c-7.334.979-12.639 1.78-16.662 3.721a10.84 10.84 0 0 1-4.699 1.068zm78.074-28.482a11.72 11.72 0 0 1-2.065-.195l-7.601-1.602c-7.743-1.691-16.519-3.561-23.141-3.561-1.538-.041-3.076.114-4.574.463a10.99 10.99 0 0 1-2.724.356c-1.932.001-3.828-.522-5.486-1.514s-3.016-2.415-3.93-4.117a10.69 10.69 0 0 1-1.257-5.551 10.68 10.68 0 0 1 1.773-5.408c2.705-4.059 8.224-8.9 19.153-8.9 12.283 0 26.844 6.105 34.427 9.754 2.184 1.048 3.947 2.806 4.999 4.987a10.68 10.68 0 0 1 .796 7.017c-.538 2.361-1.863 4.469-3.757 5.979s-4.244 2.33-6.666 2.328l.053-.036z"/><path d="M175.348 350.929a10.68 10.68 0 0 1-5.176-1.341c-1.583-.879-2.918-2.146-3.877-3.682s-1.513-3.291-1.607-5.1.272-3.611 1.066-5.239c6.123-12.461 31.881-23.978 56.25-30.137-.261-.481-.487-.981-.676-1.495-.478-1.345-.682-2.772-.6-4.196a10.69 10.69 0 0 1 1.08-4.099c-8.152 2.243-14.24 4.931-16.02 6.319a10.68 10.68 0 0 1-6.648 3.289c-2.538.268-5.088-.383-7.187-1.833a10.68 10.68 0 0 1-3.539-13.454c6.658-13.617 24.013-21.752 46.442-21.752 7.628.001 15.226.939 22.625 2.794a10.68 10.68 0 0 1 6.301 4.433c36.599-16.021 48.614-24.636 52.53-28.481-.57-1.613-.744-3.339-.508-5.034s.875-3.307 1.864-4.702 2.299-2.534 3.82-3.318 3.207-1.191 4.918-1.187a10.49 10.49 0 0 1 5.037 1.282c11.25 6.034 12.247 14.24 11.838 18.584-.962 10.431-8.58 23.586-80.602 48.578a44.9 44.9 0 0 1 4.753.908c2.526.633 4.734 2.168 6.209 4.315s2.112 4.76 1.795 7.345a10.68 10.68 0 0 1-3.518 6.694c-1.949 1.727-4.463 2.683-7.067 2.686h-.89-2.048c-21.966 0-71.576 19.456-79.035 24.797a10.68 10.68 0 0 1-7.53 3.026zm59.757-87.224c-1.827-.001-3.625-.471-5.219-1.365s-2.932-2.183-3.886-3.742-1.492-3.338-1.562-5.164a10.68 10.68 0 0 1 1.162-5.269c6.195-12.087 18.263-18.762 33.964-18.762a68.21 68.21 0 0 1 28.303 6.586 10.68 10.68 0 0 1 5.994 10.932c-.272 2.22-1.233 4.299-2.749 5.943s-3.511 2.772-5.702 3.222a148.7 148.7 0 0 1-19.794 2.048c-8.295.516-20.862 1.281-24.547 3.756-1.762 1.184-3.84 1.81-5.964 1.797v.018zm232.3-38.271c-2.08-.002-4.115-.61-5.854-1.752s-3.108-2.766-3.936-4.674c-2.119-4.575-17.053-28.161-21.45-31.793l-.178-.124c-.561 1.903-1.641 3.612-3.119 4.935a10.68 10.68 0 0 1-5.247 2.559l.213.142c2.19 1.459 3.764 3.674 4.422 6.222a10.68 10.68 0 0 1-6.562 12.657 10.68 10.68 0 0 1-7.632-.028c-4.531-1.816-9.36-2.77-14.241-2.812-2.661.015-5.314.289-7.921.819-.675.126-1.361.192-2.047.195a10.68 10.68 0 0 1-6.526-2.226c-1.869-1.443-3.208-3.465-3.806-5.749a10.68 10.68 0 0 1 5.098-12.015c5.11-2.955 10.902-4.525 16.804-4.557a32.88 32.88 0 0 1 3.738.214 92.76 92.76 0 0 0-41.814-9.168c-2.67 0-5.34.089-8.17.285h-.712a10.68 10.68 0 0 1-10.596-9.124c-.374-2.541.18-5.131 1.56-7.297a10.69 10.69 0 0 1 5.956-4.495 75.85 75.85 0 0 1 21.361-2.901 86.25 86.25 0 0 1 7.476.338c-.046-1.135.087-2.27.392-3.364.635-2.235 1.981-4.202 3.835-5.602a10.67 10.67 0 0 1 6.436-2.159c.308-.018.617-.018.926 0 16.361 1.837 31.873 8.254 44.751 18.512a10.69 10.69 0 0 1 3.56 5.608 10.49 10.49 0 0 1 3.044.907c4.735 2.243 10.2 7.121 15.077 12.657a10.67 10.67 0 0 1 5.418 1.831 10.69 10.69 0 0 1 3.696 4.363c0 .161 7.476 17.801 6.675 27.698a10.68 10.68 0 0 1-2.783 6.375c-1.612 1.754-3.766 2.919-6.117 3.309a9.45 9.45 0 0 1-1.727.196v.018z"/><path d="M364.713 369.906a32.87 32.87 0 0 1-3.828-.232c-10.68-1.335-18.495-7.227-21.538-16.145-.723-2.108-1.148-4.307-1.264-6.533a13.23 13.23 0 0 1-6.32-2.777c-1.249-1.008-2.281-2.261-3.031-3.681a11.84 11.84 0 0 1-1.33-4.578 12.65 12.65 0 0 1 1.424-6.872 17.04 17.04 0 0 1-4.841-7.618c-2.226-7.281.231-15.576 7.494-25.188-3.4-9.221 3.222-20.08 22.802-37.382a32.23 32.23 0 0 0 2.884-2.901l-.623-.695c-2.068-2.208-3.861-4.658-5.34-7.298-.532-1.009-.898-2.097-1.086-3.222a10.68 10.68 0 0 1-2.299-5.467c-.235-2.002.102-4.03.972-5.85s2.236-3.355 3.942-4.43a10.68 10.68 0 0 1 5.698-1.644h.961c1.691.142 3.738.409 5.874.712 1.076-1.47 2.51-2.641 4.166-3.4.989-.448 2.039-.748 3.115-.89 1.983-7.545 6.354-14.246 12.46-19.1.434-1.96 1.4-3.763 2.791-5.211a10.93 10.93 0 0 1 5.095-2.995c4.673-1.335 9.506-2.03 14.365-2.065a41.78 41.78 0 0 1 13.298 2.118c2.671-.754 5.529-.461 7.992.819 3.867 2.18 7.393 4.914 10.467 8.117 6.337 6.034 12.905 12.282 29.923 12.46 2.587.037 5.073 1.011 6.996 2.742 1.995.411 3.832 1.384 5.293 2.805s2.484 3.23 2.95 5.213.355 4.06-.32 5.982a10.69 10.69 0 0 1-3.491 4.869v1.032c.032 2.754-1.001 5.413-2.884 7.423a86.33 86.33 0 0 0 .339 19.153c.231 1.3.623 2.938 1.068 4.824 5.909 17.623 6.764 25.901 7.262 34.89.115 2.097-.391 4.182-1.455 5.993a10.68 10.68 0 0 1-4.526 4.189c-3.738 15.665-12.069 30.991-24.921 45.766-.182.214-.378.417-.587.605a11.13 11.13 0 0 1-3.608 2.421c-1.35.562-2.798.852-4.26.854-1.995.002-3.955-.527-5.679-1.531-4.57 1.701-9.371 2.704-14.24 2.973-7.922 0-11.66-4.147-13.191-6.622-1.27-2.046-1.936-4.409-1.922-6.817-18.335 8.579-34.533 15.184-47.047 15.184z"/><path d="M465.287 324.709a10.68 10.68 0 0 1-5.314-1.416 10.67 10.67 0 0 1-3.904-3.871c-.942-1.609-1.446-3.437-1.462-5.301s.457-3.701 1.37-5.326c1.3-5.126.303-23.426-1.549-28.089-1.418-2.313-1.904-5.078-1.358-7.736a10.68 10.68 0 0 1 11.93-8.429c2.687.373 5.132 1.755 6.838 3.864 9.701 12.051 11.267 34.641 3.56 49.504-.428.896-.941 1.748-1.531 2.546a10.68 10.68 0 0 1-8.58 4.254zm-55.058-63.317c-1.086 0-2.082 0-3.186-.214-6.515-.853-12.472-4.118-16.697-9.149a26.7 26.7 0 0 1-6.266-17.801 24.02 24.02 0 0 1 .801-5.643c.19-.771.422-1.532.694-2.278a10.68 10.68 0 0 1 3.917-4.985 10.67 10.67 0 0 1 6.052-1.886c.542.006 1.083.048 1.619.124 2.412.365 4.625 1.544 6.274 3.341s2.632 4.105 2.787 6.539v1.228a10.67 10.67 0 0 0 2.421 5.838l.142.143c1.02 1.203 2.314 2.144 3.774 2.741l.677.249 1.157.267 1.174.321c2.417.634 4.535 2.096 5.986 4.13s2.142 4.514 1.953 7.006a10.68 10.68 0 0 1-9.523 9.815l-1.459.143-1.425.124h-.836l-.036-.053z"/><path d="M365.069 362.999c-2.356-.008-4.643-.793-6.506-2.235a10.68 10.68 0 0 1-3.301-12.6c.916-2.17 2.524-3.976 4.573-5.138 7.618-3.977 15.607-7.196 23.853-9.612.985-.28 2.003-.424 3.026-.428 1.629 0 3.235.372 4.698 1.088s2.741 1.756 3.74 3.042c1.109-1.715 2.684-3.079 4.539-3.934 9.399-4.325 18.495-10.2 30.422-19.581 1.308-1.037 2.842-1.752 4.477-2.089a10.68 10.68 0 0 1 4.939.149l1.211-3.56c1.584-4.575 2.367-6.853 4.112-12.977.626-2.232 1.961-4.2 3.804-5.607a10.68 10.68 0 0 1 6.413-2.189h.73c2.443.168 4.754 1.17 6.547 2.839a10.68 10.68 0 0 1 3.297 6.328 41.63 41.63 0 0 1-3.062 20.595c1.639.975 2.987 2.371 3.904 4.042s1.37 3.558 1.312 5.464c-.338 10.68-6.907 23.301-16.021 30.902a10.68 10.68 0 0 1-6.772 2.491 10.69 10.69 0 0 1-6.81-2.384 10.68 10.68 0 0 1-2.688-13.315l5.074-9.363c-8.901 9.986-22.75 15.397-33.822 18.281a10.68 10.68 0 0 1-11.143-3.791 10.69 10.69 0 0 1-2.225 2.509c-7.904 6.035-17.287 9.829-27.164 10.984a9.96 9.96 0 0 1-1.157.089zm-20.614-19.19c-2.372-.003-4.677-.796-6.549-2.255s-3.204-3.498-3.788-5.798-.385-4.729.565-6.903 2.597-3.971 4.681-5.105c3.561-1.976 7.263-3.809 11.108-5.732 9.791-4.931 19.919-10.004 29.638-17.801 1.444-1.154 3.162-1.914 4.987-2.205a10.68 10.68 0 0 1 5.426.543 10.69 10.69 0 0 1 4.45 3.151c1.186 1.418 1.984 3.119 2.315 4.937 5.363-4.487 10.374-9.378 14.988-14.632 1.615-1.93 3.86-3.229 6.339-3.666a10.68 10.68 0 0 1 11.902 6.9c.853 2.368.842 4.961-.031 7.322-5.002 13.511-22.891 26.594-31.489 30.119-1.289.525-2.667.797-4.059.801-1.76.003-3.494-.43-5.046-1.259a10.68 10.68 0 0 1-3.854-3.494 11.65 11.65 0 0 1-.943-1.78 70.21 70.21 0 0 1-39.518 16.715 7.84 7.84 0 0 1-1.122.142zm3.561-37.381a10.68 10.68 0 0 1-10.209-7.483 10.68 10.68 0 0 1 .087-6.66c.738-2.154 2.145-4.016 4.016-5.313 1.371-.944 3.08-1.923 5.465-3.294 7.605-4.137 14.799-8.989 21.485-14.489 1.991-1.709 4.541-2.626 7.164-2.576a10.68 10.68 0 0 1 7.059 2.85c1.923 1.784 3.122 4.214 3.368 6.826s-.477 5.223-2.033 7.336a59.08 59.08 0 0 1-34.177 22.554 10.77 10.77 0 0 1-2.136.16l-.089.089zm78.02-51.213a10.68 10.68 0 0 1-9.358-5.542 10.69 10.69 0 0 1-1.312-5.483 10.68 10.68 0 0 1 1.663-5.387 7.12 7.12 0 0 0 1.204-3.75c.041-1.338-.296-2.66-.972-3.816a7.4 7.4 0 0 0-2.562-2.863c-1.09-.713-2.35-1.125-3.651-1.195a7.87 7.87 0 0 0-4.058 1.282c-2.232 1.343-4.878 1.824-7.44 1.353s-4.864-1.863-6.472-3.912-2.411-4.617-2.258-7.217a10.68 10.68 0 0 1 3.086-6.904c2.641-2.78 5.814-5.001 9.331-6.531s7.305-2.334 11.14-2.369a29.94 29.94 0 0 1 27.822 20.097c3.756 10.912.089 22.411-9.576 29.976a10.68 10.68 0 0 1-6.498 2.172l-.089.089z"/><path d="M487.912 275.312a11.31 11.31 0 0 1-4.255-.837l-7.245-2.332c-31.364-10.004-38.164-13.012-41.546-16.448-1.66-1.672-2.786-3.8-3.236-6.113s-.204-4.708.708-6.881c4.575-10.948 28.481-16.128 33.821-16.128 2.281-.048 4.54.453 6.586 1.46 16.609 8.438 28.482 28.57 26.061 38.521a11.29 11.29 0 0 1-3.949 6.285c-1.987 1.59-4.454 2.461-6.999 2.473h.054z"/><path d="M481.913 264.864c-2.588-.003-5.086-.946-7.031-2.653-3.533-2.982-7.236-5.758-11.09-8.313a64.08 64.08 0 0 1-6.07-4.503 10.68 10.68 0 0 1-3.207-5.432 10.67 10.67 0 0 1 .417-6.293 10.68 10.68 0 0 1 9.91-6.859 10.21 10.21 0 0 1 1.78.142c8.651 1.478 18.121 8.26 24.12 17.32a10.68 10.68 0 0 1 1.772 5.409c.091 1.93-.343 3.848-1.257 5.55a10.67 10.67 0 0 1-3.929 4.117c-1.658.992-3.554 1.515-5.486 1.515h.071zm-69.227-7.122c-1.264.003-2.525-.092-3.774-.285a25.08 25.08 0 0 1-15.711-9.242c-3.892-4.942-5.785-11.167-5.304-17.439a25.08 25.08 0 0 1 7.904-16.425c4.601-4.29 10.647-6.694 16.938-6.736 1.257.007 2.512.102 3.756.285 3.25.491 6.369 1.626 9.175 3.337a24.7 24.7 0 0 1 7.166 6.631 25.11 25.11 0 0 1-7.091 36.106 25.12 25.12 0 0 1-13.059 3.768z"/><path d="M412.348 255.891a21.11 21.11 0 0 1-3.187-.231 21.67 21.67 0 0 1-8.082-2.871 21.69 21.69 0 0 1-6.336-5.78c-2.081-2.786-3.437-6.045-3.947-9.485a20.98 20.98 0 0 1 1.027-10.221 10.68 10.68 0 0 1 10.076-7.12h.801a14.68 14.68 0 0 1 5.522-5.819c2.346-1.39 5.031-2.099 7.757-2.049a17.16 17.16 0 0 1 7.458 1.78c3.363 1.617 6.088 4.311 7.744 7.654a14.36 14.36 0 0 1 1.522 6.316c.019 2.194-.466 4.363-1.415 6.341-1.328 2.682-3.489 4.861-6.16 6.212a10.67 10.67 0 0 1-.223 8.905 10.67 10.67 0 0 1-2.833 3.573c-1.19.973-2.576 1.677-4.064 2.065-1.847.486-3.75.732-5.66.73z"/></g><g fill="#2d1d1c"><use xlink:href="#B"/><use xlink:href="#C"/></g><use xlink:href="#D" fill="#afbdc4"/><use xlink:href="#E" fill="#eeeae8"/><use xlink:href="#F" fill="#2d1d1c"/><use xlink:href="#G" fill="#4e342e"/><use xlink:href="#H" fill="#2d1d1c"/><use xlink:href="#I" fill="#63463d"/><use xlink:href="#J" fill="#e45325"/><use xlink:href="#K" fill="#f27021"/><use xlink:href="#L" fill="#bd3926"/><use xlink:href="#M" fill="#231f20"/><use xlink:href="#N" fill="#fff"/><use xlink:href="#O" fill="#231f20"/><use xlink:href="#P" fill="#fff"/><path d="M353.32 246.385l124.606 42.722c49.842-24.921 14.24-110.364 14.24-110.364S308.818 82.619 353.32 246.385z" fill="#35215e" style="mix-blend-mode:color" opacity=".68"/><path d="M472.585 184.083l16.021 3.56s14.24 51.622 3.56 58.743-23.141-5.341-23.141-5.341 12.461-51.622 3.56-56.962zm-7.28 72.609l23.301 7.495s-3.56 12.46-10.68 14.24-26.702-8.9-23.141-10.68 10.52-11.055 10.52-11.055z" style="mix-blend-mode:screen" opacity=".82" fill="#f770a8"/><g fill="#fff"><g stroke="#35215e" stroke-width="2" stroke-miterlimit="10"><path d="M269.674 225.629s72.663 82.08 203.623 82.08c2.612-1.566 4.803-3.744 6.385-6.346s2.506-5.55 2.694-8.589l-202.769-82.649s-11.766 6.177-9.933 15.504z"/><path d="M282.117 210.784S280.907 120 387.142 120c101.464 0 105.024 58.742 105.024 58.742s-180.678-76.543-140.626 60.523c-54.292-10.68-69.423-28.481-69.423-28.481z"/><path d="M350.65 258.758c17.204 0 31.151-13.947 31.151-31.152s-13.947-31.151-31.151-31.151-31.151 13.947-31.151 31.151 13.947 31.152 31.151 31.152z"/></g><path d="M478.815 289.908s46.282-26.701 12.461-112.144l-12.461 112.144z"/></g><path d="M478.815 289.908s46.282-26.701 12.461-112.144" stroke="#35215e" stroke-width="2" stroke-miterlimit="10"/><path d="M278.557 221.464s23.141 64.083 186.908 80.103c-132.438-18.157-186.908-80.103-186.908-80.103zm10.681-10.68c-4.682-4.967 12.46-126.386 167.327-69.423-137.066-46.282-173.736 81.509-167.327 69.423zm62.302-5.341s-24.921 1.78-24.921 23.141c0 23.141 12.461 19.581 21.361 24.921s-42.722-26.701 3.56-48.062z" fill="#9eddef"/><defs ><path id="B" d="M286.407 393.722c.38 2.577.945 5.123 1.691 7.618 0 0-4.646-2.118-6.141-5.803l-3.56 5.002-6.569 9.328s7.744 15.202 7.655 17.231c-6.373-1.406-12.283 5.34-12.283 5.34 12.461 1.229 8.313 22.625 0 20.275 5.91 13.6 12.941 5.572 13.529-17.498 2.705 1.78 12.086 15.06 1.103 17.498 10.129 18.389 21.112-5.073 6.124-18.548 7.779.552 19.776 9.915 10.485 18.548 3.382 8.901 10.004 4.219 10.983-2.438 1.78-12.123-9.737-20.222-20.934-22.981-1.246-.321-7.352-14.152-7.352-14.152s9.114-6.515 11.019-9.363c.154-.192.275-.408.356-.641-2.432-2.863-4.485-6.028-6.106-9.416z"/><path id="C" d="M438.319 405.186c-3.169-4.468-7.815-4.485-12.656-1.673-10.681.409-27.253-.783-37.382 2.795a121.34 121.34 0 0 1-8.687-10.36l-7.565 3.275c.89-1.78 1.869-2.973 1.638-5.34-1.35 1.831-3.006 3.415-4.896 4.681l13.6 17.41c11.983-.54 23.849-2.592 35.317-6.106-4.664 4.949-11.695 18.441-5.145 24.262 1.086-17.64 11.108-22.927 15.701-24.262 5.518 5.18 5.429 23.461 5.66 29.674 7.886 0 5.928-19.688 3.916-27.876a7.62 7.62 0 0 1 2.938 2.545c2.937 4.094 4.663 12.461 4.45 18.193 9.149 0 3.293-26.915-6.889-27.218z"/><path id="D" d="M405.441 368.587s-106.555 39.465-57.336 4.522c-10.076-2.67-39.358 11.962-16.413 12.674 4.29.125-18.263 8.491-32.468.196-16.323-9.559-27.645-14.846-15.38-4.326 18.37 15.772-8.633 4.486-18.299-1.78-22.803-14.881-12.461-3.115-7.121 3.151-17.925-11.339-17.8-16.021-25.259-31.596 0 0 1.246 5.909 2.475 10.769-6.338-6.319-9.648-25.135-9.737-25.01a23.64 23.64 0 0 0-1.638 6.177 111.14 111.14 0 0 1-2.991-7.121c47.635-24.298 94.932-5.055 67.163-35.868 14.703-6.212 63.37-28.908 51.194-51.302 8.082 18.958-46.762 34.729-61.216 40.835 24.138 26.701-20.578 21.628-66.842 37.222.53 5.222 1.598 10.376 3.186 15.379 0-5.073 1.068-6.568 1.068-6.568 0 1.78.908 10.146 4.468 14.24a12.57 12.57 0 0 1 0-6.034s2.742 12.354 6.747 18.459c.101-2.322.459-4.627 1.068-6.871 0 0 .872 4.878 2.225 9.559.623 2.795 1.228 6.409 3.346 8.901.712.836.214-3.044.944-2.243 12.176 13.279 26.416 23.176 43.808 28.588l3.56-5.002c1.495 3.685 6.141 5.803 6.141 5.803a54.23 54.23 0 0 1-1.691-7.619 43.61 43.61 0 0 0 6.106 9.31 2.17 2.17 0 0 1-.357.641c13.857 2.03 27.939 1.977 41.779-.161 0 1.264-2.848 2.457-2.848 2.457 9.594 0 24.707-3.738 35.601-9.79.031 1.591-.388 3.158-1.21 4.521.676-.214 6.746-4.29 8.153-6.818.231 2.297-.748 3.56-1.638 5.34 0 0 42.063-17.8 49.486-25.793a10.11 10.11 0 0 1-2.065 4.842c6.433-3.844 12.244-8.646 17.231-14.241 0 0-52.494 19.777-31.24 4.557z"/><path id="E" d="M444.834 351.962c-1.282 1.299-19.118 8.9-22.037 4.112s15.095-23.141 4.29-19.67-48.062 24.779-64.866 22.66-15.149-18.334-9.88-23.675c4.361-4.343-10.591 3.133-13.813.499s11.464-10.681 2.528-12.461-12.212-10.378 6.212-29.104c-10.858 1.228-7.209-8.687 14.08-27.538 14.739-13.03 3.561-15.914-.658-23.888 2.011 0 17.444 3.364 20.115 3.56-4.985-4.094-22.34-8.473-22.34-8.473 6.533.587 19.58 3.097 19.58 3.097-20.88-7.334-43.487-8.046-55.84-5.928 10.199 4.735 15.557 9.364 17.462 13.814 12.176 22.393-36.491 45.089-51.195 51.301 27.769 30.814-19.581 11.571-67.162 35.869.712 1.78 1.78 4.272 2.99 7.12a23.74 23.74 0 0 1 1.638-6.177c0-.124 3.4 18.691 9.737 25.01-1.228-4.859-2.474-10.769-2.474-10.769 7.494 15.558 7.334 20.257 25.259 31.596-5.34-6.266-15.682-18.032 7.12-3.15 9.666 6.319 36.67 17.605 18.3 1.78-12.265-10.521-.944-5.234 15.379 4.325 14.241 8.295 36.759 0 32.469-.196-22.945-.712 6.337-15.344 16.412-12.674-49.219 34.943 57.336-4.521 57.336-4.521-21.254 15.22 31.294-4.486 31.294-4.486a.74.74 0 0 1-.124.214v.089l-.267.32-.125.125-.427.463-.143.16-.623.641-.142.124-.801.801-.125.125-.979.943-.107.089a32.93 32.93 0 0 1-1.157 1.068l-1.353 1.193s12.123-8.616 17-14.561c-1.691 1.655-1.228-5.127-2.563-3.827z"/><path id="F" d="M227.006 362.482c-4.005-6.106-6.746-18.459-6.746-18.459a12.57 12.57 0 0 0 0 6.034c-3.97-4.539-4.468-14.24-4.468-14.24s-1.068 1.495-1.068 6.568a73.58 73.58 0 0 1-3.115-15.326 131.49 131.49 0 0 0-40.106 20.933c.784 2.937 25.901-.765 34.374-2.171-26.701 15.753-24.459 24.244-16.573 20.862-54.114 67.643 35.228 2.136 40.942-1.513-1.353-4.682-2.225-9.559-2.225-9.559a31.47 31.47 0 0 0-1.015 6.871z"/><path id="G" d="M373.916 234.477s6.479 8.669 14.988 11.837c-1.246-1.993-5.34-9.523-4.112-17.534.196-1.263-2.884 9.648-2.955 8.296-.801-17.623 10.2-26.523 19.705-28.713 1.781-.409-7.778-.943-5.767-1.495 15.38-4.272 26.043.231 32.041 6.639-1.317-3.898-5.197-7.12-4.023-6.55 9.755 4.966 15.558 21.361 45.09 21.77 2.972-4.237 3.56-14.917 3.738-16.323s-3.151 9.47-3.169 8.153c-.284-19.457-11.285-37.774-11.285-37.774a62.81 62.81 0 0 1 1.459 9.595c-30.635-47.92-127.649-73.268-190.147 33.216-11.962 5.447-32.807 12.959-38.023 33.127-20.381 12.069-43.184 33.466-35.316 43.648-9.719 7.512-9.808 16.216-9.808 16.216-6.106 6.337-18.994 26.203-14.775 29.407 53.527-42.437 138.24-23.337 106.911-58.102 17.801-7.547 97.335-29.816 43.754-54.648 12.354-2.118 34.961-1.406 55.841 5.928a10.97 10.97 0 0 1-4.147-6.693z"/><path id="H" d="M258.425 282.342c-21.735 5.341-52.192 14.953-62.303 20.026 2.991-12.674 26.986-16.679 62.303-20.026zm-27.022-23.621c10.147-5.073 22.429-3.738 44.146-9.096-35.317 3.346-38.61.747-44.146 9.096zm38.022-33.127c10.432-2.76 27.77 2.171 40.034 4.574-14.934-7.191-34.48-12.923-40.034-4.574zm-68.532 87.561c48.56-10.502 60.611-14.4 80.477-19.687-.837-1.122-1.78-2.314-2.955-3.56-6.319 1.228-29.478 10.164-77.522 23.247z"/><path id="I" d="M461.673 192.359c1.318 2.866 6.195 16.537 5.732 22.376-1.78-4.076-18.424-31.222-24.761-36.029 4.789 2.261 13.565 11.126 19.35 20.293-.248-2.204-.355-4.422-.321-6.64zm-35.922-8.277c-8.997-8.059-19.857-13.756-31.602-16.577a72.87 72.87 0 0 0-35.684.414c37.363-2.492 57.122 10.948 67.286 16.163zm-3.862 19.581c-12.995-8.722-22.5-5.625-28.036-2.51a48.42 48.42 0 0 1 28.036 2.51zm11.819-32.931a77.45 77.45 0 0 0-38.805-16.021c5.465 2.67 23.604 8.58 38.805 16.021zm-107.445 72.769c4.219 3.56 10.681 15.22-94.931 56.856 97.352-30.831 112.483-47.457 95.002-56.856h-.071zM197.991 294.66c4.717-5.34 32.807-15.237 56.749-13.297-24.227-6.07-49.842-.712-56.678 13.297h-.071zm37.043-41.653c9.613-6.462 34.32-4.575 48.169-7.405-14.703-7.032-39.197-9.898-48.097 7.405h-.072zm-59.757 87.223c4.717-5.34 65.454-29.656 89.413-27.715-24.244-6.071-82.488 13.742-89.342 27.733l-.071-.018z"/><path id="J" d="M475.505 307.62c-.41-7.565-.908-14.917-6.871-32.557-.517-2.208-.979-4.184-1.282-5.892-1.567-8.634-.659-21.842.285-30.796l2.082 2.421c0-5.34.232-6.853 4.095-9.541a6.15 6.15 0 0 0-3.166.484 6.16 6.16 0 0 0-2.495 2.008l.676-5.02c-29.531-.374-35.334-16.804-45.089-21.77-1.175-.605 2.706 2.652 4.023 6.551-5.945-6.409-16.608-10.912-32.041-6.64-2.012.552 7.547 1.086 5.767 1.495-9.505 2.19-20.506 11.09-19.705 28.713 0 1.353 3.15-9.559 2.955-8.295-1.211 8.01 2.866 15.54 4.112 17.533-8.509-3.168-14.989-11.837-14.989-11.837.493 2.66 1.951 5.043 4.095 6.693 0 0-13.013-2.51-19.581-3.097 0 0 17.355 4.379 22.34 8.473-2.67-.178-18.104-3.56-20.115-3.56 4.219 7.974 15.398 10.858.658 23.888-21.36 18.851-24.921 28.766-14.08 27.538-18.424 18.726-15.131 27.306-6.212 29.104s-5.768 9.773-2.528 12.461 18.175-4.842 13.813-.499c-5.34 5.252-6.924 21.521 9.88 23.622s54.061-19.171 64.866-22.66-7.21 14.952-4.29 19.669 20.755-2.812 22.037-4.112.872 5.483 2.367 4.006c20.24-23.248 24.921-43.434 24.583-59.134 1.389 3.72 3.133 8.757 3.81 10.751z"/><path id="K" d="M412.953 250.444l-1.211.125-1.406.124c-.641 0-1.246 0-1.976-.142-3.846-.527-7.359-2.462-9.861-5.429a16.02 16.02 0 0 1-3.756-10.592c.026-1.129.181-2.252.462-3.346.097-.398.216-.79.356-1.175v1.21a20.54 20.54 0 0 0 .481 3.187c.764 3.289 2.316 6.343 4.521 8.9a20.47 20.47 0 0 0 8.082 5.856c.605.25 1.228.463 1.673.606l1.389.32 1.246.356zm52.352 63.584c6.497-11.072 5.34-30.083-1.78-38.948 3.72 5.358 5.215 34.356 1.78 38.948z"/><path id="L" d="M344.456 333.128c16.252-1.691 33.376-9.701 42.294-24.565-14.49 11.588-29.46 17.534-42.294 24.565zm59.703 9.755c11.927-3.115 26.808-9.292 32.576-20.97-12.336 9.773-22.073 16.128-32.576 20.97zm40.835 6.444c7.227-6.035 11.962-16.021 12.176-23.035-4.539 9.488-5.127 9.844-12.176 23.035zm2.047-26.559c6.088-7.12 9.079-17.801 8.082-24.761-2.866 10.111-3.382 10.556-8.082 24.761zm-81.883 29.549a44.5 44.5 0 0 0 21.628-8.651c-7.491 2.189-14.757 5.086-21.699 8.651h.071zm29.816-29.496c6.8-2.794 21.913-14.24 25.544-23.959-8.74 10.395-22.518 20.844-25.615 23.959h.071zm-46.798-27.164a48.54 48.54 0 0 0 27.787-18.441c-11.677 9.933-24.245 15.931-27.858 18.441h.071zm53.402-76.418c17.801-17.801 44.235 9.826 24.583 25.206 9.879-15.576-7.654-35.442-24.619-25.206h.036z"/><path id="M" d="M442.449 248.165c3.667 3.703 41.653 14.989 45.142 16.377s-2.866-18.495-19.687-27.021c-3.828-1.958-29.158 6.924-25.455 10.644z"/><path id="N" d="M481.913 254.181c-5.002-7.565-12.354-11.909-17-12.692 2.35 2.136 10.325 6.836 17 12.692z"/><path id="O" d="M426.707 233.795c1.192-7.864-4.154-15.196-11.94-16.376s-15.064 4.239-16.256 12.104 4.155 15.195 11.941 16.375 15.064-4.239 16.255-12.103z"/><path id="P" d="M420.091 231.201c-1.127-1.795-2.763-3.214-4.699-4.077a12.14 12.14 0 0 0-3.561-1.121c.053-.32.149-.631.285-.926.997-2.047 3.934-2.688 6.551-1.406s3.934 3.97 2.919 6.035c-.327.644-.85 1.168-1.495 1.495zm-7.565 13.528a12.46 12.46 0 0 1-10.681-13.884 10.68 10.68 0 0 0-.572 4.755 10.67 10.67 0 0 0 1.563 4.527c.857 1.372 2.014 2.53 3.384 3.389a10.67 10.67 0 0 0 4.526 1.569c1.538.227 3.107.136 4.61-.267-.944.08-1.894.05-2.83-.089z"/></defs></svg>
